<?xml version="1.0" encoding="UTF-8"?>
<svg width="1280px" height="720px" viewBox="0 0 1280 720" version="1.1" xmlns="http://www.w3.org/2000/svg" xmlns:xlink="http://www.w3.org/1999/xlink" style="background: #FFFFFF;">
    <!-- Generator: Sketch 47.1 (45422) - http://www.bohemiancoding.com/sketch -->
    <title>define-todosstate</title>
    <desc>Created with Sketch.</desc>
    <defs></defs>
    <g id="Page-1" stroke="none" stroke-width="1" fill="none" fill-rule="evenodd">
        <g id="define-todosstate">
            <g id="Group" transform="translate(125.000000, 55.000000)">
                <rect id="Rectangle-7" fill="#F4F6F8" x="0" y="24" width="1030" height="586" rx="15"></rect>
                <path d="M15,0 L1015,0 L1015,1.77635684e-15 C1023.28427,5.91178485e-14 1030,6.71572875 1030,15 L1030,58 L0,58 L0,15 L-1.77635684e-15,15 C-2.79088747e-15,6.71572875 6.71572875,-2.54560899e-16 15,-1.77635684e-15 Z" id="Rectangle" fill="#DF7575"></path>
            </g>
            <path d="M211.32,179.44 L199.32,179.44 C199.64,181.52 201.56,183.44 204.12,183.44 C207.16,183.44 208.76,181.04 208.76,181.04 L210.84,183.12 C210.84,183.12 208.44,186.32 204.12,186.32 C199.8,186.32 196.12,182.64 196.12,178.16 C196.12,173.84 199.64,170.32 203.96,170.32 C208.28,170.32 211.48,173.52 211.48,177.84 C211.48,178.8 211.32,179.44 211.32,179.44 Z M203.96,173.04 C201.56,173.04 199.96,174.64 199.448,176.72 L208.344,176.72 C207.96,174.64 206.36,173.04 203.96,173.04 Z M222.68,178 L227.96,170.64 L224.28,170.64 L220.76,175.6 L217.24,170.64 L213.56,170.64 L218.84,178 L213.08,186 L216.76,186 L220.76,180.4 L224.76,186 L228.44,186 L222.68,178 Z M239.16,186.32 C236.12,186.32 234.2,184.24 234.2,184.24 L234.2,192.72 L231,192.72 L231,170.64 L234.2,170.64 L234.2,172.4 C234.2,172.4 236.12,170.32 239.16,170.32 C243.16,170.32 246.68,173.84 246.68,178.32 C246.68,182.8 243.16,186.32 239.16,186.32 Z M238.84,173.2 C236.44,173.2 234.2,175.44 234.2,178.32 C234.2,181.2 236.44,183.44 238.84,183.44 C241.24,183.44 243.48,181.2 243.48,178.32 C243.48,175.44 241.24,173.2 238.84,173.2 Z M262.04,178.32 C262.04,175.44 259.8,173.2 257.24,173.2 C254.68,173.2 252.44,175.44 252.44,178.32 C252.44,181.2 254.68,183.44 257.24,183.44 C259.8,183.44 262.04,181.2 262.04,178.32 Z M249.24,178.32 C249.24,174 252.92,170.32 257.24,170.32 C261.56,170.32 265.24,174 265.24,178.32 C265.24,182.64 261.56,186.32 257.24,186.32 C252.92,186.32 249.24,182.64 249.24,178.32 Z M277.4,173.36 L277.4,170.32 L276.6,170.32 C273.72,170.32 271.96,172.24 271.96,172.24 L271.96,170.64 L268.76,170.64 L268.76,186 L271.96,186 L271.96,177.68 C271.96,174.8 273.56,173.2 275.96,173.2 C276.76,173.2 277.4,173.36 277.4,173.36 Z M281.88,168.72 C281.88,170 281.24,170.64 280.28,170.64 L278.68,170.64 L278.68,173.52 L281.56,173.52 L281.56,181.52 C281.56,184.72 283.16,186.32 286.04,186.32 C287.32,186.32 288.28,186 288.28,186 L288.28,183.12 C288.28,183.12 287.48,183.44 286.68,183.44 C285.56,183.44 284.76,182.64 284.76,181.488 L284.76,173.52 L287.96,173.52 L287.96,170.64 L284.76,170.64 L284.76,165.52 L281.88,165.52 L281.88,168.72 Z M301.88,170.64 L298.68,170.64 L298.68,186 L301.88,186 L301.88,170.64 Z M302.2,165.84 C302.2,164.72 301.4,163.92 300.28,163.92 C299.16,163.92 298.36,164.72 298.36,165.84 C298.36,166.96 299.16,167.76 300.28,167.76 C301.4,167.76 302.2,166.96 302.2,165.84 Z M309.72,170.64 L306.52,170.64 L306.52,186 L309.72,186 L309.72,177.68 C309.72,174.8 311.32,173.2 313.72,173.2 C315.8,173.2 317.4,174.8 317.4,177.04 L317.4,186 L320.6,186 L320.6,177.04 C320.6,172.88 318.04,170.32 314.36,170.32 C311.48,170.32 309.72,172.24 309.72,172.24 L309.72,170.64 Z M327,168.72 C327,170 326.36,170.64 325.4,170.64 L323.8,170.64 L323.8,173.52 L326.68,173.52 L326.68,181.52 C326.68,184.72 328.28,186.32 331.16,186.32 C332.44,186.32 333.4,186 333.4,186 L333.4,183.12 C333.4,183.12 332.6,183.44 331.8,183.44 C330.68,183.44 329.88,182.64 329.88,181.488 L329.88,173.52 L333.08,173.52 L333.08,170.64 L329.88,170.64 L329.88,165.52 L327,165.52 L327,168.72 Z M350.84,179.44 L338.84,179.44 C339.16,181.52 341.08,183.44 343.64,183.44 C346.68,183.44 348.28,181.04 348.28,181.04 L350.36,183.12 C350.36,183.12 347.96,186.32 343.64,186.32 C339.32,186.32 335.64,182.64 335.64,178.16 C335.64,173.84 339.16,170.32 343.48,170.32 C347.8,170.32 351,173.52 351,177.84 C351,178.8 350.84,179.44 350.84,179.44 Z M343.48,173.04 C341.08,173.04 339.48,174.64 338.968,176.72 L347.864,176.72 C347.48,174.64 345.88,173.04 343.48,173.04 Z M363.16,173.36 L363.16,170.32 L362.36,170.32 C359.48,170.32 357.72,172.24 357.72,172.24 L357.72,170.64 L354.52,170.64 L354.52,186 L357.72,186 L357.72,177.68 C357.72,174.8 359.32,173.2 361.72,173.2 C362.52,173.2 363.16,173.36 363.16,173.36 Z M374.36,170.64 L370.84,170.64 L370.84,168.112 C370.84,166.96 371.64,166.16 372.76,166.16 C373.56,166.16 374.36,166.48 374.36,166.48 L374.36,163.6 C374.36,163.6 373.4,163.28 372.12,163.28 C369.24,163.28 367.64,164.88 367.64,168.08 L367.64,170.64 L365.4,170.64 L365.4,173.52 L367.64,173.52 L367.64,186 L370.84,186 L370.84,173.52 L374.36,173.52 L374.36,170.64 Z M389.88,186 L386.68,186 L386.68,184.4 C386.68,184.4 384.92,186.32 382.04,186.32 C378.84,186.32 376.6,184.08 376.6,181.84 C376.6,179.28 378.36,177.52 381.08,177.04 L386.68,176.08 C386.68,174.48 385.4,173.2 383.48,173.2 C380.76,173.2 379.48,175.28 379.48,175.28 L377.4,173.2 C377.4,173.2 379.48,170.32 383.48,170.32 C387.32,170.32 389.88,172.88 389.88,176.08 L389.88,186 Z M382.52,183.44 C385.08,183.44 386.68,181.84 386.68,178.96 L386.68,178.64 L381.72,179.44 C380.6,179.632 379.8,180.4 379.8,181.52 C379.8,182.48 380.76,183.44 382.52,183.44 Z M393.4,178.32 C393.4,182.64 397.08,186.32 401.4,186.32 C405.4,186.32 407.8,183.12 407.8,183.12 L405.72,181.04 C405.72,181.04 404.12,183.44 401.4,183.44 C398.84,183.44 396.6,181.2 396.6,178.32 C396.6,175.44 398.84,173.2 401.4,173.2 C404.12,173.2 405.56,175.44 405.56,175.44 L407.64,173.36 C407.64,173.36 405.4,170.32 401.4,170.32 C397.08,170.32 393.4,174 393.4,178.32 Z M425.24,179.44 L413.24,179.44 C413.56,181.52 415.48,183.44 418.04,183.44 C421.08,183.44 422.68,181.04 422.68,181.04 L424.76,183.12 C424.76,183.12 422.36,186.32 418.04,186.32 C413.72,186.32 410.04,182.64 410.04,178.16 C410.04,173.84 413.56,170.32 417.88,170.32 C422.2,170.32 425.4,173.52 425.4,177.84 C425.4,178.8 425.24,179.44 425.24,179.44 Z M417.88,173.04 C415.48,173.04 413.88,174.64 413.368,176.72 L422.264,176.72 C421.88,174.64 420.28,173.04 417.88,173.04 Z M433.88,163.6 L450.84,163.6 L450.84,166.8 L444.12,166.8 L444.12,186 L440.6,186 L440.6,166.8 L433.88,166.8 L433.88,163.6 Z M463.48,178.32 C463.48,175.44 461.24,173.2 458.68,173.2 C456.12,173.2 453.88,175.44 453.88,178.32 C453.88,181.2 456.12,183.44 458.68,183.44 C461.24,183.44 463.48,181.2 463.48,178.32 Z M450.68,178.32 C450.68,174 454.36,170.32 458.68,170.32 C463,170.32 466.68,174 466.68,178.32 C466.68,182.64 463,186.32 458.68,186.32 C454.36,186.32 450.68,182.64 450.68,178.32 Z M476.76,170.32 C479.8,170.32 481.72,172.4 481.72,172.4 L481.72,163.6 L484.92,163.6 L484.92,186 L481.72,186 L481.72,184.24 C481.72,184.24 479.8,186.32 476.76,186.32 C472.76,186.32 469.24,182.8 469.24,178.32 C469.24,173.84 472.76,170.32 476.76,170.32 Z M477.08,183.44 C479.48,183.44 481.72,181.2 481.72,178.32 C481.72,175.44 479.48,173.2 477.08,173.2 C474.68,173.2 472.44,175.44 472.44,178.32 C472.44,181.2 474.68,183.44 477.08,183.44 Z M501.56,178.32 C501.56,175.44 499.32,173.2 496.76,173.2 C494.2,173.2 491.96,175.44 491.96,178.32 C491.96,181.2 494.2,183.44 496.76,183.44 C499.32,183.44 501.56,181.2 501.56,178.32 Z M488.76,178.32 C488.76,174 492.44,170.32 496.76,170.32 C501.08,170.32 504.76,174 504.76,178.32 C504.76,182.64 501.08,186.32 496.76,186.32 C492.44,186.32 488.76,182.64 488.76,178.32 Z M518.04,172.4 C518.04,172.4 516.44,170.32 513.08,170.32 C509.88,170.32 507.64,172.56 507.64,174.8 C507.64,180.24 515.48,178.64 515.48,181.52 C515.48,182.64 514.68,183.44 512.92,183.44 C510.52,183.44 509.08,181.52 509.08,181.52 L507,183.6 C507,183.6 508.92,186.32 512.92,186.32 C516.44,186.32 518.68,184.08 518.68,181.52 C518.68,176.08 510.84,177.68 510.84,174.8 C510.84,174 511.64,173.2 513.08,173.2 C514.84,173.2 515.96,174.48 515.96,174.48 L518.04,172.4 Z M533.88,179.6 C533.88,181.52 532.28,183.12 529.4,183.12 C525.4,183.12 523.64,180.56 523.64,180.56 L521.4,182.8 C521.4,182.8 523.96,186.32 529.4,186.32 C534.52,186.32 537.4,183.44 537.4,179.6 C537.4,171.28 525.56,174.48 525.56,169.36 C525.56,167.92 527,166.48 529.4,166.48 C532.44,166.48 533.88,168.4 533.88,168.4 L536.12,166.16 C536.12,166.16 533.88,163.28 529.4,163.28 C524.76,163.28 522.04,166 522.04,169.36 C522.04,177.68 533.88,174.48 533.88,179.6 Z M543,168.72 C543,170 542.36,170.64 541.4,170.64 L539.8,170.64 L539.8,173.52 L542.68,173.52 L542.68,181.52 C542.68,184.72 544.28,186.32 547.16,186.32 C548.44,186.32 549.4,186 549.4,186 L549.4,183.12 C549.4,183.12 548.6,183.44 547.8,183.44 C546.68,183.44 545.88,182.64 545.88,181.488 L545.88,173.52 L549.08,173.52 L549.08,170.64 L545.88,170.64 L545.88,165.52 L543,165.52 L543,168.72 Z M564.92,186 L561.72,186 L561.72,184.4 C561.72,184.4 559.96,186.32 557.08,186.32 C553.88,186.32 551.64,184.08 551.64,181.84 C551.64,179.28 553.4,177.52 556.12,177.04 L561.72,176.08 C561.72,174.48 560.44,173.2 558.52,173.2 C555.8,173.2 554.52,175.28 554.52,175.28 L552.44,173.2 C552.44,173.2 554.52,170.32 558.52,170.32 C562.36,170.32 564.92,172.88 564.92,176.08 L564.92,186 Z M557.56,183.44 C560.12,183.44 561.72,181.84 561.72,178.96 L561.72,178.64 L556.76,179.44 C555.64,179.632 554.84,180.4 554.84,181.52 C554.84,182.48 555.8,183.44 557.56,183.44 Z M571.32,168.72 C571.32,170 570.68,170.64 569.72,170.64 L568.12,170.64 L568.12,173.52 L571,173.52 L571,181.52 C571,184.72 572.6,186.32 575.48,186.32 C576.76,186.32 577.72,186 577.72,186 L577.72,183.12 C577.72,183.12 576.92,183.44 576.12,183.44 C575,183.44 574.2,182.64 574.2,181.488 L574.2,173.52 L577.4,173.52 L577.4,170.64 L574.2,170.64 L574.2,165.52 L571.32,165.52 L571.32,168.72 Z M595.16,179.44 L583.16,179.44 C583.48,181.52 585.4,183.44 587.96,183.44 C591,183.44 592.6,181.04 592.6,181.04 L594.68,183.12 C594.68,183.12 592.28,186.32 587.96,186.32 C583.64,186.32 579.96,182.64 579.96,178.16 C579.96,173.84 583.48,170.32 587.8,170.32 C592.12,170.32 595.32,173.52 595.32,177.84 C595.32,178.8 595.16,179.44 595.16,179.44 Z M587.8,173.04 C585.4,173.04 583.8,174.64 583.288,176.72 L592.184,176.72 C591.8,174.64 590.2,173.04 587.8,173.04 Z M605.08,179.28 C606.36,179.28 607,179.92 607,181.2 L607,188.08 C607,190.96 608.76,192.72 611.96,192.72 L613.72,192.72 L613.72,190.16 L611.96,190.16 C610.68,190.16 609.88,189.36 609.88,188.08 L609.88,181.2 C609.88,178.32 608.12,178 608.152,178 C608.12,178 609.88,177.68 609.88,174.8 L609.88,167.92 C609.88,166.64 610.68,165.84 611.96,165.84 L613.72,165.84 L613.72,163.28 L611.96,163.28 C608.76,163.28 607,165.04 607,167.92 L607,174.8 C607,176.08 606.36,176.72 605.08,176.72 L605.08,179.28 Z M213.4,205.6 L210.2,205.6 L210.2,228 L213.4,228 L213.4,205.6 Z M230.04,220.32 C230.04,217.44 227.8,215.2 225.24,215.2 C222.68,215.2 220.44,217.44 220.44,220.32 C220.44,223.2 222.68,225.44 225.24,225.44 C227.8,225.44 230.04,223.2 230.04,220.32 Z M217.24,220.32 C217.24,216 220.92,212.32 225.24,212.32 C229.56,212.32 233.24,216 233.24,220.32 C233.24,224.64 229.56,228.32 225.24,228.32 C220.92,228.32 217.24,224.64 217.24,220.32 Z M249.08,228 L245.88,228 L245.88,226.4 C245.88,226.4 244.12,228.32 241.24,228.32 C238.04,228.32 235.8,226.08 235.8,223.84 C235.8,221.28 237.56,219.52 240.28,219.04 L245.88,218.08 C245.88,216.48 244.6,215.2 242.68,215.2 C239.96,215.2 238.68,217.28 238.68,217.28 L236.6,215.2 C236.6,215.2 238.68,212.32 242.68,212.32 C246.52,212.32 249.08,214.88 249.08,218.08 L249.08,228 Z M241.72,225.44 C244.28,225.44 245.88,223.84 245.88,220.96 L245.88,220.64 L240.92,221.44 C239.8,221.632 239,222.4 239,223.52 C239,224.48 239.96,225.44 241.72,225.44 Z M260.12,212.32 C263.16,212.32 265.08,214.4 265.08,214.4 L265.08,205.6 L268.28,205.6 L268.28,228 L265.08,228 L265.08,226.24 C265.08,226.24 263.16,228.32 260.12,228.32 C256.12,228.32 252.6,224.8 252.6,220.32 C252.6,215.84 256.12,212.32 260.12,212.32 Z M260.44,225.44 C262.84,225.44 265.08,223.2 265.08,220.32 C265.08,217.44 262.84,215.2 260.44,215.2 C258.04,215.2 255.8,217.44 255.8,220.32 C255.8,223.2 258.04,225.44 260.44,225.44 Z M287.32,221.44 L275.32,221.44 C275.64,223.52 277.56,225.44 280.12,225.44 C283.16,225.44 284.76,223.04 284.76,223.04 L286.84,225.12 C286.84,225.12 284.44,228.32 280.12,228.32 C275.8,228.32 272.12,224.64 272.12,220.16 C272.12,215.84 275.64,212.32 279.96,212.32 C284.28,212.32 287.48,215.52 287.48,219.84 C287.48,220.8 287.32,221.44 287.32,221.44 Z M279.96,215.04 C277.56,215.04 275.96,216.64 275.448,218.72 L284.344,218.72 C283.96,216.64 282.36,215.04 279.96,215.04 Z M297.56,212.32 C300.6,212.32 302.52,214.4 302.52,214.4 L302.52,205.6 L305.72,205.6 L305.72,228 L302.52,228 L302.52,226.24 C302.52,226.24 300.6,228.32 297.56,228.32 C293.56,228.32 290.04,224.8 290.04,220.32 C290.04,215.84 293.56,212.32 297.56,212.32 Z M297.88,225.44 C300.28,225.44 302.52,223.2 302.52,220.32 C302.52,217.44 300.28,215.2 297.88,215.2 C295.48,215.2 293.24,217.44 293.24,220.32 C293.24,223.2 295.48,225.44 297.88,225.44 Z M310.04,226.24 C310.04,227.36 311,228.32 312.12,228.32 C313.24,228.32 314.2,227.36 314.2,226.24 C314.2,225.12 313.24,224.16 312.12,224.16 C311,224.16 310.04,225.12 310.04,226.24 Z M310.04,214.4 C310.04,215.52 311,216.48 312.12,216.48 C313.24,216.48 314.2,215.52 314.2,214.4 C314.2,213.28 313.24,212.32 312.12,212.32 C311,212.32 310.04,213.28 310.04,214.4 Z M332.76,212.32 C336.76,212.32 340.28,215.84 340.28,220.32 C340.28,224.8 336.76,228.32 332.76,228.32 C329.72,228.32 327.8,226.24 327.8,226.24 L327.8,228 L324.6,228 L324.6,205.6 L327.8,205.6 L327.8,214.4 C327.8,214.4 329.72,212.32 332.76,212.32 Z M332.44,225.44 C334.84,225.44 337.08,223.2 337.08,220.32 C337.08,217.44 334.84,215.2 332.44,215.2 C330.04,215.2 327.8,217.44 327.8,220.32 C327.8,223.2 330.04,225.44 332.44,225.44 Z M355.64,220.32 C355.64,217.44 353.4,215.2 350.84,215.2 C348.28,215.2 346.04,217.44 346.04,220.32 C346.04,223.2 348.28,225.44 350.84,225.44 C353.4,225.44 355.64,223.2 355.64,220.32 Z M342.84,220.32 C342.84,216 346.52,212.32 350.84,212.32 C355.16,212.32 358.84,216 358.84,220.32 C358.84,224.64 355.16,228.32 350.84,228.32 C346.52,228.32 342.84,224.64 342.84,220.32 Z M374.2,220.32 C374.2,217.44 371.96,215.2 369.4,215.2 C366.84,215.2 364.6,217.44 364.6,220.32 C364.6,223.2 366.84,225.44 369.4,225.44 C371.96,225.44 374.2,223.2 374.2,220.32 Z M361.4,220.32 C361.4,216 365.08,212.32 369.4,212.32 C373.72,212.32 377.4,216 377.4,220.32 C377.4,224.64 373.72,228.32 369.4,228.32 C365.08,228.32 361.4,224.64 361.4,220.32 Z M384.44,205.6 L381.24,205.6 L381.24,228 L384.44,228 L384.44,205.6 Z M403.48,221.44 L391.48,221.44 C391.8,223.52 393.72,225.44 396.28,225.44 C399.32,225.44 400.92,223.04 400.92,223.04 L403,225.12 C403,225.12 400.6,228.32 396.28,228.32 C391.96,228.32 388.28,224.64 388.28,220.16 C388.28,215.84 391.8,212.32 396.12,212.32 C400.44,212.32 403.64,215.52 403.64,219.84 C403.64,220.8 403.48,221.44 403.48,221.44 Z M396.12,215.04 C393.72,215.04 392.12,216.64 391.608,218.72 L400.504,218.72 C400.12,216.64 398.52,215.04 396.12,215.04 Z M419.48,228 L416.28,228 L416.28,226.4 C416.28,226.4 414.52,228.32 411.64,228.32 C408.44,228.32 406.2,226.08 406.2,223.84 C406.2,221.28 407.96,219.52 410.68,219.04 L416.28,218.08 C416.28,216.48 415,215.2 413.08,215.2 C410.36,215.2 409.08,217.28 409.08,217.28 L407,215.2 C407,215.2 409.08,212.32 413.08,212.32 C416.92,212.32 419.48,214.88 419.48,218.08 L419.48,228 Z M412.12,225.44 C414.68,225.44 416.28,223.84 416.28,220.96 L416.28,220.64 L411.32,221.44 C410.2,221.632 409.4,222.4 409.4,223.52 C409.4,224.48 410.36,225.44 412.12,225.44 Z M427.16,212.64 L423.96,212.64 L423.96,228 L427.16,228 L427.16,219.68 C427.16,216.8 428.76,215.2 431.16,215.2 C433.24,215.2 434.84,216.8 434.84,219.04 L434.84,228 L438.04,228 L438.04,219.04 C438.04,214.88 435.48,212.32 431.8,212.32 C428.92,212.32 427.16,214.24 427.16,214.24 L427.16,212.64 Z M443.64,224.16 L440.44,231.04 L442.52,232.16 L446.52,225.76 L443.64,224.16 Z M442.52,214.4 C442.52,215.52 443.48,216.48 444.6,216.48 C445.72,216.48 446.68,215.52 446.68,214.4 C446.68,213.28 445.72,212.32 444.6,212.32 C443.48,212.32 442.52,213.28 442.52,214.4 Z M213.4,247.6 L210.2,247.6 L210.2,270 L213.4,270 L213.4,247.6 Z M230.04,262.32 C230.04,259.44 227.8,257.2 225.24,257.2 C222.68,257.2 220.44,259.44 220.44,262.32 C220.44,265.2 222.68,267.44 225.24,267.44 C227.8,267.44 230.04,265.2 230.04,262.32 Z M217.24,262.32 C217.24,258 220.92,254.32 225.24,254.32 C229.56,254.32 233.24,258 233.24,262.32 C233.24,266.64 229.56,270.32 225.24,270.32 C220.92,270.32 217.24,266.64 217.24,262.32 Z M249.08,270 L245.88,270 L245.88,268.4 C245.88,268.4 244.12,270.32 241.24,270.32 C238.04,270.32 235.8,268.08 235.8,265.84 C235.8,263.28 237.56,261.52 240.28,261.04 L245.88,260.08 C245.88,258.48 244.6,257.2 242.68,257.2 C239.96,257.2 238.68,259.28 238.68,259.28 L236.6,257.2 C236.6,257.2 238.68,254.32 242.68,254.32 C246.52,254.32 249.08,256.88 249.08,260.08 L249.08,270 Z M241.72,267.44 C244.28,267.44 245.88,265.84 245.88,262.96 L245.88,262.64 L240.92,263.44 C239.8,263.632 239,264.4 239,265.52 C239,266.48 239.96,267.44 241.72,267.44 Z M260.12,254.32 C263.16,254.32 265.08,256.4 265.08,256.4 L265.08,247.6 L268.28,247.6 L268.28,270 L265.08,270 L265.08,268.24 C265.08,268.24 263.16,270.32 260.12,270.32 C256.12,270.32 252.6,266.8 252.6,262.32 C252.6,257.84 256.12,254.32 260.12,254.32 Z M260.44,267.44 C262.84,267.44 265.08,265.2 265.08,262.32 C265.08,259.44 262.84,257.2 260.44,257.2 C258.04,257.2 255.8,259.44 255.8,262.32 C255.8,265.2 258.04,267.44 260.44,267.44 Z M276.44,254.64 L273.24,254.64 L273.24,270 L276.44,270 L276.44,254.64 Z M276.76,249.84 C276.76,248.72 275.96,247.92 274.84,247.92 C273.72,247.92 272.92,248.72 272.92,249.84 C272.92,250.96 273.72,251.76 274.84,251.76 C275.96,251.76 276.76,250.96 276.76,249.84 Z M284.28,254.64 L281.08,254.64 L281.08,270 L284.28,270 L284.28,261.68 C284.28,258.8 285.88,257.2 288.28,257.2 C290.36,257.2 291.96,258.8 291.96,261.04 L291.96,270 L295.16,270 L295.16,261.04 C295.16,256.88 292.6,254.32 288.92,254.32 C286.04,254.32 284.28,256.24 284.28,256.24 L284.28,254.64 Z M310.52,269.072 L310.52,267.76 C310.52,267.76 308.76,269.68 305.88,269.68 C302.04,269.68 298.68,266.32 298.68,262 C298.68,257.68 302.04,254.32 305.88,254.32 C308.76,254.32 310.52,256.24 310.52,256.24 L310.52,254.64 L313.72,254.64 L313.72,269.04 C313.72,273.36 310.36,276.72 306.04,276.72 C301.4,276.72 299.16,273.52 299.16,273.52 L301.24,271.44 C301.24,271.44 303,273.84 306.04,273.84 C308.6,273.84 310.52,271.92 310.52,269.072 Z M301.88,262 C301.88,264.72 303.96,266.8 306.2,266.8 C308.44,266.8 310.52,264.72 310.52,262 C310.52,259.28 308.44,257.2 306.2,257.2 C303.96,257.2 301.88,259.28 301.88,262 Z M317.72,268.24 C317.72,269.36 318.68,270.32 319.8,270.32 C320.92,270.32 321.88,269.36 321.88,268.24 C321.88,267.12 320.92,266.16 319.8,266.16 C318.68,266.16 317.72,267.12 317.72,268.24 Z M317.72,256.4 C317.72,257.52 318.68,258.48 319.8,258.48 C320.92,258.48 321.88,257.52 321.88,256.4 C321.88,255.28 320.92,254.32 319.8,254.32 C318.68,254.32 317.72,255.28 317.72,256.4 Z M340.44,254.32 C344.44,254.32 347.96,257.84 347.96,262.32 C347.96,266.8 344.44,270.32 340.44,270.32 C337.4,270.32 335.48,268.24 335.48,268.24 L335.48,270 L332.28,270 L332.28,247.6 L335.48,247.6 L335.48,256.4 C335.48,256.4 337.4,254.32 340.44,254.32 Z M340.12,267.44 C342.52,267.44 344.76,265.2 344.76,262.32 C344.76,259.44 342.52,257.2 340.12,257.2 C337.72,257.2 335.48,259.44 335.48,262.32 C335.48,265.2 337.72,267.44 340.12,267.44 Z M363.32,262.32 C363.32,259.44 361.08,257.2 358.52,257.2 C355.96,257.2 353.72,259.44 353.72,262.32 C353.72,265.2 355.96,267.44 358.52,267.44 C361.08,267.44 363.32,265.2 363.32,262.32 Z M350.52,262.32 C350.52,258 354.2,254.32 358.52,254.32 C362.84,254.32 366.52,258 366.52,262.32 C366.52,266.64 362.84,270.32 358.52,270.32 C354.2,270.32 350.52,266.64 350.52,262.32 Z M381.88,262.32 C381.88,259.44 379.64,257.2 377.08,257.2 C374.52,257.2 372.28,259.44 372.28,262.32 C372.28,265.2 374.52,267.44 377.08,267.44 C379.64,267.44 381.88,265.2 381.88,262.32 Z M369.08,262.32 C369.08,258 372.76,254.32 377.08,254.32 C381.4,254.32 385.08,258 385.08,262.32 C385.08,266.64 381.4,270.32 377.08,270.32 C372.76,270.32 369.08,266.64 369.08,262.32 Z M392.12,247.6 L388.92,247.6 L388.92,270 L392.12,270 L392.12,247.6 Z M408.6,265.04 C408.6,265.04 408.6,265.040001 408.599999,265.040002 L408.6,265.04 Z M408.6,265.04 L410.68,267.12 C410.68,267.12 408.28,270.32 403.96,270.32 C399.64,270.32 395.96,266.64 395.96,262.16 C395.96,257.84 399.48,254.32 403.8,254.32 C408.12,254.32 411.32,257.52 411.32,261.84 C411.32,262.8 411.16,263.44 411.16,263.44 L399.16,263.44 C399.48,265.52 401.4,267.44 403.96,267.44 C406.998361,267.44 408.598274,265.042588 408.599999,265.040002 L408.6,265.04 Z M403.8,257.04 C401.4,257.04 399.8,258.64 399.288,260.72 L408.184,260.72 C407.8,258.64 406.2,257.04 403.8,257.04 Z M427.16,270 L423.96,270 L423.96,268.4 C423.96,268.4 422.2,270.32 419.32,270.32 C416.12,270.32 413.88,268.08 413.88,265.84 C413.88,263.28 415.64,261.52 418.36,261.04 L423.96,260.08 C423.96,258.48 422.68,257.2 420.76,257.2 C418.04,257.2 416.76,259.28 416.76,259.28 L414.68,257.2 C414.68,257.2 416.76,254.32 420.76,254.32 C424.6,254.32 427.16,256.88 427.16,260.08 L427.16,270 Z M419.8,267.44 C422.36,267.44 423.96,265.84 423.96,262.96 L423.96,262.64 L419,263.44 C417.88,263.632 417.08,264.4 417.08,265.52 C417.08,266.48 418.04,267.44 419.8,267.44 Z M434.84,254.64 L431.64,254.64 L431.64,270 L434.84,270 L434.84,261.68 C434.84,258.8 436.44,257.2 438.84,257.2 C440.92,257.2 442.52,258.8 442.52,261.04 L442.52,270 L445.72,270 L445.72,261.04 C445.72,256.88 443.16,254.32 439.48,254.32 C436.6,254.32 434.84,256.24 434.84,256.24 L434.84,254.64 Z M451.32,266.16 L448.12,273.04 L450.2,274.16 L454.2,267.76 L451.32,266.16 Z M450.2,256.4 C450.2,257.52 451.16,258.48 452.28,258.48 C453.4,258.48 454.36,257.52 454.36,256.4 C454.36,255.28 453.4,254.32 452.28,254.32 C451.16,254.32 450.2,255.28 450.2,256.4 Z M211.8,294.72 C211.8,296 211.16,296.64 210.2,296.64 L208.6,296.64 L208.6,299.52 L211.48,299.52 L211.48,307.52 C211.48,310.72 213.08,312.32 215.96,312.32 C217.24,312.32 218.2,312 218.2,312 L218.2,309.12 C218.2,309.12 217.4,309.44 216.6,309.44 C215.48,309.44 214.68,308.64 214.68,307.488 L214.68,299.52 L217.88,299.52 L217.88,296.64 L214.68,296.64 L214.68,291.52 L211.8,291.52 L211.8,294.72 Z M233.24,304.32 C233.24,301.44 231,299.2 228.44,299.2 C225.88,299.2 223.64,301.44 223.64,304.32 C223.64,307.2 225.88,309.44 228.44,309.44 C231,309.44 233.24,307.2 233.24,304.32 Z M220.44,304.32 C220.44,300 224.12,296.32 228.44,296.32 C232.76,296.32 236.44,300 236.44,304.32 C236.44,308.64 232.76,312.32 228.44,312.32 C224.12,312.32 220.44,308.64 220.44,304.32 Z M246.52,296.32 C249.56,296.32 251.48,298.4 251.48,298.4 L251.48,289.6 L254.68,289.6 L254.68,312 L251.48,312 L251.48,310.24 C251.48,310.24 249.56,312.32 246.52,312.32 C242.52,312.32 239,308.8 239,304.32 C239,299.84 242.52,296.32 246.52,296.32 Z M246.84,309.44 C249.24,309.44 251.48,307.2 251.48,304.32 C251.48,301.44 249.24,299.2 246.84,299.2 C244.44,299.2 242.2,301.44 242.2,304.32 C242.2,307.2 244.44,309.44 246.84,309.44 Z M271.32,304.32 C271.32,301.44 269.08,299.2 266.52,299.2 C263.96,299.2 261.72,301.44 261.72,304.32 C261.72,307.2 263.96,309.44 266.52,309.44 C269.08,309.44 271.32,307.2 271.32,304.32 Z M258.52,304.32 C258.52,300 262.2,296.32 266.52,296.32 C270.84,296.32 274.52,300 274.52,304.32 C274.52,308.64 270.84,312.32 266.52,312.32 C262.2,312.32 258.52,308.64 258.52,304.32 Z M287.8,298.4 C287.8,298.4 286.2,296.32 282.84,296.32 C279.64,296.32 277.4,298.56 277.4,300.8 C277.4,306.24 285.24,304.64 285.24,307.52 C285.24,308.64 284.44,309.44 282.68,309.44 C280.28,309.44 278.84,307.52 278.84,307.52 L276.76,309.6 C276.76,309.6 278.68,312.32 282.68,312.32 C286.2,312.32 288.44,310.08 288.44,307.52 C288.44,302.08 280.6,303.68 280.6,300.8 C280.6,300 281.4,299.2 282.84,299.2 C284.6,299.2 285.72,300.48 285.72,300.48 L287.8,298.4 Z M291.48,310.24 C291.48,311.36 292.44,312.32 293.56,312.32 C294.68,312.32 295.64,311.36 295.64,310.24 C295.64,309.12 294.68,308.16 293.56,308.16 C292.44,308.16 291.48,309.12 291.48,310.24 Z M291.48,298.4 C291.48,299.52 292.44,300.48 293.56,300.48 C294.68,300.48 295.64,299.52 295.64,298.4 C295.64,297.28 294.68,296.32 293.56,296.32 C292.44,296.32 291.48,297.28 291.48,298.4 Z M304.28,289.6 L321.24,289.6 L321.24,292.8 L314.52,292.8 L314.52,312 L311,312 L311,292.8 L304.28,292.8 L304.28,289.6 Z M333.88,304.32 C333.88,301.44 331.64,299.2 329.08,299.2 C326.52,299.2 324.28,301.44 324.28,304.32 C324.28,307.2 326.52,309.44 329.08,309.44 C331.64,309.44 333.88,307.2 333.88,304.32 Z M321.08,304.32 C321.08,300 324.76,296.32 329.08,296.32 C333.4,296.32 337.08,300 337.08,304.32 C337.08,308.64 333.4,312.32 329.08,312.32 C324.76,312.32 321.08,308.64 321.08,304.32 Z M347.16,296.32 C350.2,296.32 352.12,298.4 352.12,298.4 L352.12,289.6 L355.32,289.6 L355.32,312 L352.12,312 L352.12,310.24 C352.12,310.24 350.2,312.32 347.16,312.32 C343.16,312.32 339.64,308.8 339.64,304.32 C339.64,299.84 343.16,296.32 347.16,296.32 Z M347.48,309.44 C349.88,309.44 352.12,307.2 352.12,304.32 C352.12,301.44 349.88,299.2 347.48,299.2 C345.08,299.2 342.84,301.44 342.84,304.32 C342.84,307.2 345.08,309.44 347.48,309.44 Z M371.96,304.32 C371.96,301.44 369.72,299.2 367.16,299.2 C364.6,299.2 362.36,301.44 362.36,304.32 C362.36,307.2 364.6,309.44 367.16,309.44 C369.72,309.44 371.96,307.2 371.96,304.32 Z M359.16,304.32 C359.16,300 362.84,296.32 367.16,296.32 C371.48,296.32 375.16,300 375.16,304.32 C375.16,308.64 371.48,312.32 367.16,312.32 C362.84,312.32 359.16,308.64 359.16,304.32 Z M382.04,291.84 L386.2,291.84 L386.2,289.28 L379.16,289.28 L379.16,318.72 L386.2,318.72 L386.2,316.16 L382.04,316.16 L382.04,291.84 Z M392.28,316.16 L388.12,316.16 L388.12,318.72 L395.16,318.72 L395.16,289.28 L388.12,289.28 L388.12,291.84 L392.28,291.84 L392.28,316.16 Z M400.92,308.16 L397.72,315.04 L399.8,316.16 L403.8,309.76 L400.92,308.16 Z M399.8,298.4 C399.8,299.52 400.76,300.48 401.88,300.48 C403,300.48 403.96,299.52 403.96,298.4 C403.96,297.28 403,296.32 401.88,296.32 C400.76,296.32 399.8,297.28 399.8,298.4 Z M204.6,344.72 C203.32,344.72 202.68,344.08 202.68,342.8 L202.68,335.92 C202.68,333.04 200.92,331.28 197.72,331.28 L195.96,331.28 L195.96,333.84 L197.72,333.84 C199,333.84 199.8,334.64 199.8,335.92 L199.8,342.8 C199.8,345.68 201.56,346 201.528,346 C201.56,346 199.8,346.32 199.8,349.2 L199.8,356.08 C199.8,357.36 199,358.16 197.72,358.16 L195.96,358.16 L195.96,360.72 L197.72,360.72 C200.92,360.72 202.68,358.96 202.68,356.08 L202.68,349.2 C202.68,347.92 203.32,347.28 204.6,347.28 L204.6,344.72 Z M196.12,430.32 C196.12,434.64 199.8,438.32 204.12,438.32 C208.12,438.32 210.52,435.12 210.52,435.12 L208.44,433.04 C208.44,433.04 206.84,435.44 204.12,435.44 C201.56,435.44 199.32,433.2 199.32,430.32 C199.32,427.44 201.56,425.2 204.12,425.2 C206.84,425.2 208.28,427.44 208.28,427.44 L210.36,425.36 C210.36,425.36 208.12,422.32 204.12,422.32 C199.8,422.32 196.12,426 196.12,430.32 Z M225.56,430.32 C225.56,427.44 223.32,425.2 220.76,425.2 C218.2,425.2 215.96,427.44 215.96,430.32 C215.96,433.2 218.2,435.44 220.76,435.44 C223.32,435.44 225.56,433.2 225.56,430.32 Z M212.76,430.32 C212.76,426 216.44,422.32 220.76,422.32 C225.08,422.32 228.76,426 228.76,430.32 C228.76,434.64 225.08,438.32 220.76,438.32 C216.44,438.32 212.76,434.64 212.76,430.32 Z M235.48,422.64 L232.28,422.64 L232.28,438 L235.48,438 L235.48,429.68 C235.48,426.8 237.08,425.2 239.48,425.2 C241.56,425.2 243.16,426.8 243.16,429.04 L243.16,438 L246.36,438 L246.36,429.04 C246.36,424.88 243.8,422.32 240.12,422.32 C237.24,422.32 235.48,424.24 235.48,424.24 L235.48,422.64 Z M260.6,424.4 C260.6,424.4 259,422.32 255.64,422.32 C252.44,422.32 250.2,424.56 250.2,426.8 C250.2,432.24 258.04,430.64 258.04,433.52 C258.04,434.64 257.24,435.44 255.48,435.44 C253.08,435.44 251.64,433.52 251.64,433.52 L249.56,435.6 C249.56,435.6 251.48,438.32 255.48,438.32 C259,438.32 261.24,436.08 261.24,433.52 C261.24,428.08 253.4,429.68 253.4,426.8 C253.4,426 254.2,425.2 255.64,425.2 C257.4,425.2 258.52,426.48 258.52,426.48 L260.6,424.4 Z M266.68,420.72 C266.68,422 266.04,422.64 265.08,422.64 L263.48,422.64 L263.48,425.52 L266.36,425.52 L266.36,433.52 C266.36,436.72 267.96,438.32 270.84,438.32 C272.12,438.32 273.08,438 273.08,438 L273.08,435.12 C273.08,435.12 272.28,435.44 271.48,435.44 C270.36,435.44 269.56,434.64 269.56,433.488 L269.56,425.52 L272.76,425.52 L272.76,422.64 L269.56,422.64 L269.56,417.52 L266.68,417.52 L266.68,420.72 Z M286.68,422.64 L283.48,422.64 L283.48,438 L286.68,438 L286.68,422.64 Z M287,417.84 C287,416.72 286.2,415.92 285.08,415.92 C283.96,415.92 283.16,416.72 283.16,417.84 C283.16,418.96 283.96,419.76 285.08,419.76 C286.2,419.76 287,418.96 287,417.84 Z M294.52,422.64 L291.32,422.64 L291.32,438 L294.52,438 L294.52,429.68 C294.52,426.8 296.12,425.2 298.52,425.2 C300.6,425.2 302.2,426.8 302.2,429.04 L302.2,438 L305.4,438 L305.4,429.04 C305.4,424.88 302.84,422.32 299.16,422.32 C296.28,422.32 294.52,424.24 294.52,424.24 L294.52,422.64 Z M313.24,422.64 L310.04,422.64 L310.04,438 L313.24,438 L313.24,422.64 Z M313.56,417.84 C313.56,416.72 312.76,415.92 311.64,415.92 C310.52,415.92 309.72,416.72 309.72,417.84 C309.72,418.96 310.52,419.76 311.64,419.76 C312.76,419.76 313.56,418.96 313.56,417.84 Z M319.8,420.72 C319.8,422 319.16,422.64 318.2,422.64 L316.6,422.64 L316.6,425.52 L319.48,425.52 L319.48,433.52 C319.48,436.72 321.08,438.32 323.96,438.32 C325.24,438.32 326.2,438 326.2,438 L326.2,435.12 C326.2,435.12 325.4,435.44 324.6,435.44 C323.48,435.44 322.68,434.64 322.68,433.488 L322.68,425.52 L325.88,425.52 L325.88,422.64 L322.68,422.64 L322.68,417.52 L319.8,417.52 L319.8,420.72 Z M333.4,422.64 L330.2,422.64 L330.2,438 L333.4,438 L333.4,422.64 Z M333.72,417.84 C333.72,416.72 332.92,415.92 331.8,415.92 C330.68,415.92 329.88,416.72 329.88,417.84 C329.88,418.96 330.68,419.76 331.8,419.76 C332.92,419.76 333.72,418.96 333.72,417.84 Z M350.36,438 L347.16,438 L347.16,436.4 C347.16,436.4 345.4,438.32 342.52,438.32 C339.32,438.32 337.08,436.08 337.08,433.84 C337.08,431.28 338.84,429.52 341.56,429.04 L347.16,428.08 C347.16,426.48 345.88,425.2 343.96,425.2 C341.24,425.2 339.96,427.28 339.96,427.28 L337.88,425.2 C337.88,425.2 339.96,422.32 343.96,422.32 C347.8,422.32 350.36,424.88 350.36,428.08 L350.36,438 Z M343,435.44 C345.56,435.44 347.16,433.84 347.16,430.96 L347.16,430.64 L342.2,431.44 C341.08,431.632 340.28,432.4 340.28,433.52 C340.28,434.48 341.24,435.44 343,435.44 Z M358.36,415.6 L355.16,415.6 L355.16,438 L358.36,438 L358.36,415.6 Z M374.84,431.6 C374.84,433.52 373.24,435.12 370.36,435.12 C366.36,435.12 364.6,432.56 364.6,432.56 L362.36,434.8 C362.36,434.8 364.92,438.32 370.36,438.32 C375.48,438.32 378.36,435.44 378.36,431.6 C378.36,423.28 366.52,426.48 366.52,421.36 C366.52,419.92 367.96,418.48 370.36,418.48 C373.4,418.48 374.84,420.4 374.84,420.4 L377.08,418.16 C377.08,418.16 374.84,415.28 370.36,415.28 C365.72,415.28 363,418 363,421.36 C363,429.68 374.84,426.48 374.84,431.6 Z M383.96,420.72 C383.96,422 383.32,422.64 382.36,422.64 L380.76,422.64 L380.76,425.52 L383.64,425.52 L383.64,433.52 C383.64,436.72 385.24,438.32 388.12,438.32 C389.4,438.32 390.36,438 390.36,438 L390.36,435.12 C390.36,435.12 389.56,435.44 388.76,435.44 C387.64,435.44 386.84,434.64 386.84,433.488 L386.84,425.52 L390.04,425.52 L390.04,422.64 L386.84,422.64 L386.84,417.52 L383.96,417.52 L383.96,420.72 Z M405.88,438 L402.68,438 L402.68,436.4 C402.68,436.4 400.92,438.32 398.04,438.32 C394.84,438.32 392.6,436.08 392.6,433.84 C392.6,431.28 394.36,429.52 397.08,429.04 L402.68,428.08 C402.68,426.48 401.4,425.2 399.48,425.2 C396.76,425.2 395.48,427.28 395.48,427.28 L393.4,425.2 C393.4,425.2 395.48,422.32 399.48,422.32 C403.32,422.32 405.88,424.88 405.88,428.08 L405.88,438 Z M398.52,435.44 C401.08,435.44 402.68,433.84 402.68,430.96 L402.68,430.64 L397.72,431.44 C396.6,431.632 395.8,432.4 395.8,433.52 C395.8,434.48 396.76,435.44 398.52,435.44 Z M412.28,420.72 C412.28,422 411.64,422.64 410.68,422.64 L409.08,422.64 L409.08,425.52 L411.96,425.52 L411.96,433.52 C411.96,436.72 413.56,438.32 416.44,438.32 C417.72,438.32 418.68,438 418.68,438 L418.68,435.12 C418.68,435.12 417.88,435.44 417.08,435.44 C415.96,435.44 415.16,434.64 415.16,433.488 L415.16,425.52 L418.36,425.52 L418.36,422.64 L415.16,422.64 L415.16,417.52 L412.28,417.52 L412.28,420.72 Z M433.56,433.04 C433.56,433.04 433.559999,433.040001 433.559998,433.040004 L433.56,433.04 Z M433.56,433.04 L435.64,435.12 C435.64,435.12 433.24,438.32 428.92,438.32 C424.6,438.32 420.92,434.64 420.92,430.16 C420.92,425.84 424.44,422.32 428.76,422.32 C433.08,422.32 436.28,425.52 436.28,429.84 C436.28,430.8 436.12,431.44 436.12,431.44 L424.12,431.44 C424.44,433.52 426.36,435.44 428.92,435.44 C431.957836,435.44 433.557721,433.043416 433.559998,433.040004 L433.56,433.04 Z M428.76,425.04 C426.36,425.04 424.76,426.64 424.248,428.72 L433.144,428.72 C432.76,426.64 431.16,425.04 428.76,425.04 Z M439.32,436.24 C439.32,437.36 440.28,438.32 441.4,438.32 C442.52,438.32 443.48,437.36 443.48,436.24 C443.48,435.12 442.52,434.16 441.4,434.16 C440.28,434.16 439.32,435.12 439.32,436.24 Z M439.32,424.4 C439.32,425.52 440.28,426.48 441.4,426.48 C442.52,426.48 443.48,425.52 443.48,424.4 C443.48,423.28 442.52,422.32 441.4,422.32 C440.28,422.32 439.32,423.28 439.32,424.4 Z M452.12,415.6 L469.08,415.6 L469.08,418.8 L462.36,418.8 L462.36,438 L458.84,438 L458.84,418.8 L452.12,418.8 L452.12,415.6 Z M481.72,430.32 C481.72,427.44 479.48,425.2 476.92,425.2 C474.36,425.2 472.12,427.44 472.12,430.32 C472.12,433.2 474.36,435.44 476.92,435.44 C479.48,435.44 481.72,433.2 481.72,430.32 Z M468.92,430.32 C468.92,426 472.6,422.32 476.92,422.32 C481.24,422.32 484.92,426 484.92,430.32 C484.92,434.64 481.24,438.32 476.92,438.32 C472.6,438.32 468.92,434.64 468.92,430.32 Z M495,422.32 C498.04,422.32 499.96,424.4 499.96,424.4 L499.96,415.6 L503.16,415.6 L503.16,438 L499.96,438 L499.96,436.24 C499.96,436.24 498.04,438.32 495,438.32 C491,438.32 487.48,434.8 487.48,430.32 C487.48,425.84 491,422.32 495,422.32 Z M495.32,435.44 C497.72,435.44 499.96,433.2 499.96,430.32 C499.96,427.44 497.72,425.2 495.32,425.2 C492.92,425.2 490.68,427.44 490.68,430.32 C490.68,433.2 492.92,435.44 495.32,435.44 Z M519.8,430.32 C519.8,427.44 517.56,425.2 515,425.2 C512.44,425.2 510.2,427.44 510.2,430.32 C510.2,433.2 512.44,435.44 515,435.44 C517.56,435.44 519.8,433.2 519.8,430.32 Z M507,430.32 C507,426 510.68,422.32 515,422.32 C519.32,422.32 523,426 523,430.32 C523,434.64 519.32,438.32 515,438.32 C510.68,438.32 507,434.64 507,430.32 Z M536.28,424.4 C536.28,424.4 534.68,422.32 531.32,422.32 C528.12,422.32 525.88,424.56 525.88,426.8 C525.88,432.24 533.72,430.64 533.72,433.52 C533.72,434.64 532.92,435.44 531.16,435.44 C528.76,435.44 527.32,433.52 527.32,433.52 L525.24,435.6 C525.24,435.6 527.16,438.32 531.16,438.32 C534.68,438.32 536.92,436.08 536.92,433.52 C536.92,428.08 529.08,429.68 529.08,426.8 C529.08,426 529.88,425.2 531.32,425.2 C533.08,425.2 534.2,426.48 534.2,426.48 L536.28,424.4 Z M552.12,431.6 C552.12,433.52 550.52,435.12 547.64,435.12 C543.64,435.12 541.88,432.56 541.88,432.56 L539.64,434.8 C539.64,434.8 542.2,438.32 547.64,438.32 C552.76,438.32 555.64,435.44 555.64,431.6 C555.64,423.28 543.8,426.48 543.8,421.36 C543.8,419.92 545.24,418.48 547.64,418.48 C550.68,418.48 552.12,420.4 552.12,420.4 L554.36,418.16 C554.36,418.16 552.12,415.28 547.64,415.28 C543,415.28 540.28,418 540.28,421.36 C540.28,429.68 552.12,426.48 552.12,431.6 Z M561.24,420.72 C561.24,422 560.6,422.64 559.64,422.64 L558.04,422.64 L558.04,425.52 L560.92,425.52 L560.92,433.52 C560.92,436.72 562.52,438.32 565.4,438.32 C566.68,438.32 567.64,438 567.64,438 L567.64,435.12 C567.64,435.12 566.84,435.44 566.04,435.44 C564.92,435.44 564.12,434.64 564.12,433.488 L564.12,425.52 L567.32,425.52 L567.32,422.64 L564.12,422.64 L564.12,417.52 L561.24,417.52 L561.24,420.72 Z M583.16,438 L579.96,438 L579.96,436.4 C579.96,436.4 578.2,438.32 575.32,438.32 C572.12,438.32 569.88,436.08 569.88,433.84 C569.88,431.28 571.64,429.52 574.36,429.04 L579.96,428.08 C579.96,426.48 578.68,425.2 576.76,425.2 C574.04,425.2 572.76,427.28 572.76,427.28 L570.68,425.2 C570.68,425.2 572.76,422.32 576.76,422.32 C580.6,422.32 583.16,424.88 583.16,428.08 L583.16,438 Z M575.8,435.44 C578.36,435.44 579.96,433.84 579.96,430.96 L579.96,430.64 L575,431.44 C573.88,431.632 573.08,432.4 573.08,433.52 C573.08,434.48 574.04,435.44 575.8,435.44 Z M589.56,420.72 C589.56,422 588.92,422.64 587.96,422.64 L586.36,422.64 L586.36,425.52 L589.24,425.52 L589.24,433.52 C589.24,436.72 590.84,438.32 593.72,438.32 C595,438.32 595.96,438 595.96,438 L595.96,435.12 C595.96,435.12 595.16,435.44 594.36,435.44 C593.24,435.44 592.44,434.64 592.44,433.488 L592.44,425.52 L595.64,425.52 L595.64,422.64 L592.44,422.64 L592.44,417.52 L589.56,417.52 L589.56,420.72 Z M613.4,431.44 L601.4,431.44 C601.72,433.52 603.64,435.44 606.2,435.44 C609.24,435.44 610.84,433.04 610.84,433.04 L612.92,435.12 C612.92,435.12 610.52,438.32 606.2,438.32 C601.88,438.32 598.2,434.64 598.2,430.16 C598.2,425.84 601.72,422.32 606.04,422.32 C610.36,422.32 613.56,425.52 613.56,429.84 C613.56,430.8 613.4,431.44 613.4,431.44 Z M606.04,425.04 C603.64,425.04 602.04,426.64 601.528,428.72 L610.424,428.72 C610.04,426.64 608.44,425.04 606.04,425.04 Z M635.8,430 L622.68,430 L622.68,432.88 L635.8,432.88 L635.8,430 Z M635.8,424.24 L622.68,424.24 L622.68,427.12 L635.8,427.12 L635.8,424.24 Z M645.4,431.28 C646.68,431.28 647.32,431.92 647.32,433.2 L647.32,440.08 C647.32,442.96 649.08,444.72 652.28,444.72 L654.04,444.72 L654.04,442.16 L652.28,442.16 C651,442.16 650.2,441.36 650.2,440.08 L650.2,433.2 C650.2,430.32 648.44,430 648.472,430 C648.44,430 650.2,429.68 650.2,426.8 L650.2,419.92 C650.2,418.64 651,417.84 652.28,417.84 L654.04,417.84 L654.04,415.28 L652.28,415.28 C649.08,415.28 647.32,417.04 647.32,419.92 L647.32,426.8 C647.32,428.08 646.68,428.72 645.4,428.72 L645.4,431.28 Z M213.4,457.6 L210.2,457.6 L210.2,480 L213.4,480 L213.4,457.6 Z M230.04,472.32 C230.04,469.44 227.8,467.2 225.24,467.2 C222.68,467.2 220.44,469.44 220.44,472.32 C220.44,475.2 222.68,477.44 225.24,477.44 C227.8,477.44 230.04,475.2 230.04,472.32 Z M217.24,472.32 C217.24,468 220.92,464.32 225.24,464.32 C229.56,464.32 233.24,468 233.24,472.32 C233.24,476.64 229.56,480.32 225.24,480.32 C220.92,480.32 217.24,476.64 217.24,472.32 Z M249.08,480 L245.88,480 L245.88,478.4 C245.88,478.4 244.12,480.32 241.24,480.32 C238.04,480.32 235.8,478.08 235.8,475.84 C235.8,473.28 237.56,471.52 240.28,471.04 L245.88,470.08 C245.88,468.48 244.6,467.2 242.68,467.2 C239.96,467.2 238.68,469.28 238.68,469.28 L236.6,467.2 C236.6,467.2 238.68,464.32 242.68,464.32 C246.52,464.32 249.08,466.88 249.08,470.08 L249.08,480 Z M241.72,477.44 C244.28,477.44 245.88,475.84 245.88,472.96 L245.88,472.64 L240.92,473.44 C239.8,473.632 239,474.4 239,475.52 C239,476.48 239.96,477.44 241.72,477.44 Z M260.12,464.32 C263.16,464.32 265.08,466.4 265.08,466.4 L265.08,457.6 L268.28,457.6 L268.28,480 L265.08,480 L265.08,478.24 C265.08,478.24 263.16,480.32 260.12,480.32 C256.12,480.32 252.6,476.8 252.6,472.32 C252.6,467.84 256.12,464.32 260.12,464.32 Z M260.44,477.44 C262.84,477.44 265.08,475.2 265.08,472.32 C265.08,469.44 262.84,467.2 260.44,467.2 C258.04,467.2 255.8,469.44 255.8,472.32 C255.8,475.2 258.04,477.44 260.44,477.44 Z M287.32,473.44 L275.32,473.44 C275.64,475.52 277.56,477.44 280.12,477.44 C283.16,477.44 284.76,475.04 284.76,475.04 L286.84,477.12 C286.84,477.12 284.44,480.32 280.12,480.32 C275.8,480.32 272.12,476.64 272.12,472.16 C272.12,467.84 275.64,464.32 279.96,464.32 C284.28,464.32 287.48,467.52 287.48,471.84 C287.48,472.8 287.32,473.44 287.32,473.44 Z M279.96,467.04 C277.56,467.04 275.96,468.64 275.448,470.72 L284.344,470.72 C283.96,468.64 282.36,467.04 279.96,467.04 Z M297.56,464.32 C300.6,464.32 302.52,466.4 302.52,466.4 L302.52,457.6 L305.72,457.6 L305.72,480 L302.52,480 L302.52,478.24 C302.52,478.24 300.6,480.32 297.56,480.32 C293.56,480.32 290.04,476.8 290.04,472.32 C290.04,467.84 293.56,464.32 297.56,464.32 Z M297.88,477.44 C300.28,477.44 302.52,475.2 302.52,472.32 C302.52,469.44 300.28,467.2 297.88,467.2 C295.48,467.2 293.24,469.44 293.24,472.32 C293.24,475.2 295.48,477.44 297.88,477.44 Z M310.04,478.24 C310.04,479.36 311,480.32 312.12,480.32 C313.24,480.32 314.2,479.36 314.2,478.24 C314.2,477.12 313.24,476.16 312.12,476.16 C311,476.16 310.04,477.12 310.04,478.24 Z M310.04,466.4 C310.04,467.52 311,468.48 312.12,468.48 C313.24,468.48 314.2,467.52 314.2,466.4 C314.2,465.28 313.24,464.32 312.12,464.32 C311,464.32 310.04,465.28 310.04,466.4 Z M331.96,464.64 L328.44,464.64 L328.44,462.112 C328.44,460.96 329.24,460.16 330.36,460.16 C331.16,460.16 331.96,460.48 331.96,460.48 L331.96,457.6 C331.96,457.6 331,457.28 329.72,457.28 C326.84,457.28 325.24,458.88 325.24,462.08 L325.24,464.64 L323,464.64 L323,467.52 L325.24,467.52 L325.24,480 L328.44,480 L328.44,467.52 L331.96,467.52 L331.96,464.64 Z M347.48,480 L344.28,480 L344.28,478.4 C344.28,478.4 342.52,480.32 339.64,480.32 C336.44,480.32 334.2,478.08 334.2,475.84 C334.2,473.28 335.96,471.52 338.68,471.04 L344.28,470.08 C344.28,468.48 343,467.2 341.08,467.2 C338.36,467.2 337.08,469.28 337.08,469.28 L335,467.2 C335,467.2 337.08,464.32 341.08,464.32 C344.92,464.32 347.48,466.88 347.48,470.08 L347.48,480 Z M340.12,477.44 C342.68,477.44 344.28,475.84 344.28,472.96 L344.28,472.64 L339.32,473.44 C338.2,473.632 337.4,474.4 337.4,475.52 C337.4,476.48 338.36,477.44 340.12,477.44 Z M355.48,457.6 L352.28,457.6 L352.28,480 L355.48,480 L355.48,457.6 Z M370.04,466.4 C370.04,466.4 368.44,464.32 365.08,464.32 C361.88,464.32 359.64,466.56 359.64,468.8 C359.64,474.24 367.48,472.64 367.48,475.52 C367.48,476.64 366.68,477.44 364.92,477.44 C362.52,477.44 361.08,475.52 361.08,475.52 L359,477.6 C359,477.6 360.92,480.32 364.92,480.32 C368.44,480.32 370.68,478.08 370.68,475.52 C370.68,470.08 362.84,471.68 362.84,468.8 C362.84,468 363.64,467.2 365.08,467.2 C366.84,467.2 367.96,468.48 367.96,468.48 L370.04,466.4 Z M388.44,473.44 L376.44,473.44 C376.76,475.52 378.68,477.44 381.24,477.44 C384.28,477.44 385.88,475.04 385.88,475.04 L387.96,477.12 C387.96,477.12 385.56,480.32 381.24,480.32 C376.92,480.32 373.24,476.64 373.24,472.16 C373.24,467.84 376.76,464.32 381.08,464.32 C385.4,464.32 388.6,467.52 388.6,471.84 C388.6,472.8 388.44,473.44 388.44,473.44 Z M381.08,467.04 C378.68,467.04 377.08,468.64 376.568,470.72 L385.464,470.72 C385.08,468.64 383.48,467.04 381.08,467.04 Z M393.24,476.16 L390.04,483.04 L392.12,484.16 L396.12,477.76 L393.24,476.16 Z M213.4,499.6 L210.2,499.6 L210.2,522 L213.4,522 L213.4,499.6 Z M230.04,514.32 C230.04,511.44 227.8,509.2 225.24,509.2 C222.68,509.2 220.44,511.44 220.44,514.32 C220.44,517.2 222.68,519.44 225.24,519.44 C227.8,519.44 230.04,517.2 230.04,514.32 Z M217.24,514.32 C217.24,510 220.92,506.32 225.24,506.32 C229.56,506.32 233.24,510 233.24,514.32 C233.24,518.64 229.56,522.32 225.24,522.32 C220.92,522.32 217.24,518.64 217.24,514.32 Z M249.08,522 L245.88,522 L245.88,520.4 C245.88,520.4 244.12,522.32 241.24,522.32 C238.04,522.32 235.8,520.08 235.8,517.84 C235.8,515.28 237.56,513.52 240.28,513.04 L245.88,512.08 C245.88,510.48 244.6,509.2 242.68,509.2 C239.96,509.2 238.68,511.28 238.68,511.28 L236.6,509.2 C236.6,509.2 238.68,506.32 242.68,506.32 C246.52,506.32 249.08,508.88 249.08,512.08 L249.08,522 Z M241.72,519.44 C244.28,519.44 245.88,517.84 245.88,514.96 L245.88,514.64 L240.92,515.44 C239.8,515.632 239,516.4 239,517.52 C239,518.48 239.96,519.44 241.72,519.44 Z M260.12,506.32 C263.16,506.32 265.08,508.4 265.08,508.4 L265.08,499.6 L268.28,499.6 L268.28,522 L265.08,522 L265.08,520.24 C265.08,520.24 263.16,522.32 260.12,522.32 C256.12,522.32 252.6,518.8 252.6,514.32 C252.6,509.84 256.12,506.32 260.12,506.32 Z M260.44,519.44 C262.84,519.44 265.08,517.2 265.08,514.32 C265.08,511.44 262.84,509.2 260.44,509.2 C258.04,509.2 255.8,511.44 255.8,514.32 C255.8,517.2 258.04,519.44 260.44,519.44 Z M276.44,506.64 L273.24,506.64 L273.24,522 L276.44,522 L276.44,506.64 Z M276.76,501.84 C276.76,500.72 275.96,499.92 274.84,499.92 C273.72,499.92 272.92,500.72 272.92,501.84 C272.92,502.96 273.72,503.76 274.84,503.76 C275.96,503.76 276.76,502.96 276.76,501.84 Z M284.28,506.64 L281.08,506.64 L281.08,522 L284.28,522 L284.28,513.68 C284.28,510.8 285.88,509.2 288.28,509.2 C290.36,509.2 291.96,510.8 291.96,513.04 L291.96,522 L295.16,522 L295.16,513.04 C295.16,508.88 292.6,506.32 288.92,506.32 C286.04,506.32 284.28,508.24 284.28,508.24 L284.28,506.64 Z M310.52,521.072 L310.52,519.76 C310.52,519.76 308.76,521.68 305.88,521.68 C302.04,521.68 298.68,518.32 298.68,514 C298.68,509.68 302.04,506.32 305.88,506.32 C308.76,506.32 310.52,508.24 310.52,508.24 L310.52,506.64 L313.72,506.64 L313.72,521.04 C313.72,525.36 310.36,528.72 306.04,528.72 C301.4,528.72 299.16,525.52 299.16,525.52 L301.24,523.44 C301.24,523.44 303,525.84 306.04,525.84 C308.6,525.84 310.52,523.92 310.52,521.072 Z M301.88,514 C301.88,516.72 303.96,518.8 306.2,518.8 C308.44,518.8 310.52,516.72 310.52,514 C310.52,511.28 308.44,509.2 306.2,509.2 C303.96,509.2 301.88,511.28 301.88,514 Z M317.72,520.24 C317.72,521.36 318.68,522.32 319.8,522.32 C320.92,522.32 321.88,521.36 321.88,520.24 C321.88,519.12 320.92,518.16 319.8,518.16 C318.68,518.16 317.72,519.12 317.72,520.24 Z M317.72,508.4 C317.72,509.52 318.68,510.48 319.8,510.48 C320.92,510.48 321.88,509.52 321.88,508.4 C321.88,507.28 320.92,506.32 319.8,506.32 C318.68,506.32 317.72,507.28 317.72,508.4 Z M339.64,506.64 L336.12,506.64 L336.12,504.112 C336.12,502.96 336.92,502.16 338.04,502.16 C338.84,502.16 339.64,502.48 339.64,502.48 L339.64,499.6 C339.64,499.6 338.68,499.28 337.4,499.28 C334.52,499.28 332.92,500.88 332.92,504.08 L332.92,506.64 L330.68,506.64 L330.68,509.52 L332.92,509.52 L332.92,522 L336.12,522 L336.12,509.52 L339.64,509.52 L339.64,506.64 Z M355.16,522 L351.96,522 L351.96,520.4 C351.96,520.4 350.2,522.32 347.32,522.32 C344.12,522.32 341.88,520.08 341.88,517.84 C341.88,515.28 343.64,513.52 346.36,513.04 L351.96,512.08 C351.96,510.48 350.68,509.2 348.76,509.2 C346.04,509.2 344.76,511.28 344.76,511.28 L342.68,509.2 C342.68,509.2 344.76,506.32 348.76,506.32 C352.6,506.32 355.16,508.88 355.16,512.08 L355.16,522 Z M347.8,519.44 C350.36,519.44 351.96,517.84 351.96,514.96 L351.96,514.64 L347,515.44 C345.88,515.632 345.08,516.4 345.08,517.52 C345.08,518.48 346.04,519.44 347.8,519.44 Z M363.16,499.6 L359.96,499.6 L359.96,522 L363.16,522 L363.16,499.6 Z M377.72,508.4 C377.72,508.4 376.12,506.32 372.76,506.32 C369.56,506.32 367.32,508.56 367.32,510.8 C367.32,516.24 375.16,514.64 375.16,517.52 C375.16,518.64 374.36,519.44 372.6,519.44 C370.2,519.44 368.76,517.52 368.76,517.52 L366.68,519.6 C366.68,519.6 368.6,522.32 372.6,522.32 C376.12,522.32 378.36,520.08 378.36,517.52 C378.36,512.08 370.52,513.68 370.52,510.8 C370.52,510 371.32,509.2 372.76,509.2 C374.52,509.2 375.64,510.48 375.64,510.48 L377.72,508.4 Z M396.12,515.44 L384.12,515.44 C384.44,517.52 386.36,519.44 388.92,519.44 C391.96,519.44 393.56,517.04 393.56,517.04 L395.64,519.12 C395.64,519.12 393.24,522.32 388.92,522.32 C384.6,522.32 380.92,518.64 380.92,514.16 C380.92,509.84 384.44,506.32 388.76,506.32 C393.08,506.32 396.28,509.52 396.28,513.84 C396.28,514.8 396.12,515.44 396.12,515.44 Z M388.76,509.04 C386.36,509.04 384.76,510.64 384.248,512.72 L393.144,512.72 C392.76,510.64 391.16,509.04 388.76,509.04 Z M400.92,518.16 L397.72,525.04 L399.8,526.16 L403.8,519.76 L400.92,518.16 Z M211.8,546.72 C211.8,548 211.16,548.64 210.2,548.64 L208.6,548.64 L208.6,551.52 L211.48,551.52 L211.48,559.52 C211.48,562.72 213.08,564.32 215.96,564.32 C217.24,564.32 218.2,564 218.2,564 L218.2,561.12 C218.2,561.12 217.4,561.44 216.6,561.44 C215.48,561.44 214.68,560.64 214.68,559.488 L214.68,551.52 L217.88,551.52 L217.88,548.64 L214.68,548.64 L214.68,543.52 L211.8,543.52 L211.8,546.72 Z M233.24,556.32 C233.24,553.44 231,551.2 228.44,551.2 C225.88,551.2 223.64,553.44 223.64,556.32 C223.64,559.2 225.88,561.44 228.44,561.44 C231,561.44 233.24,559.2 233.24,556.32 Z M220.44,556.32 C220.44,552 224.12,548.32 228.44,548.32 C232.76,548.32 236.44,552 236.44,556.32 C236.44,560.64 232.76,564.32 228.44,564.32 C224.12,564.32 220.44,560.64 220.44,556.32 Z M246.52,548.32 C249.56,548.32 251.48,550.4 251.48,550.4 L251.48,541.6 L254.68,541.6 L254.68,564 L251.48,564 L251.48,562.24 C251.48,562.24 249.56,564.32 246.52,564.32 C242.52,564.32 239,560.8 239,556.32 C239,551.84 242.52,548.32 246.52,548.32 Z M246.84,561.44 C249.24,561.44 251.48,559.2 251.48,556.32 C251.48,553.44 249.24,551.2 246.84,551.2 C244.44,551.2 242.2,553.44 242.2,556.32 C242.2,559.2 244.44,561.44 246.84,561.44 Z M271.32,556.32 C271.32,553.44 269.08,551.2 266.52,551.2 C263.96,551.2 261.72,553.44 261.72,556.32 C261.72,559.2 263.96,561.44 266.52,561.44 C269.08,561.44 271.32,559.2 271.32,556.32 Z M258.52,556.32 C258.52,552 262.2,548.32 266.52,548.32 C270.84,548.32 274.52,552 274.52,556.32 C274.52,560.64 270.84,564.32 266.52,564.32 C262.2,564.32 258.52,560.64 258.52,556.32 Z M287.8,550.4 C287.8,550.4 286.2,548.32 282.84,548.32 C279.64,548.32 277.4,550.56 277.4,552.8 C277.4,558.24 285.24,556.64 285.24,559.52 C285.24,560.64 284.44,561.44 282.68,561.44 C280.28,561.44 278.84,559.52 278.84,559.52 L276.76,561.6 C276.76,561.6 278.68,564.32 282.68,564.32 C286.2,564.32 288.44,562.08 288.44,559.52 C288.44,554.08 280.6,555.68 280.6,552.8 C280.6,552 281.4,551.2 282.84,551.2 C284.6,551.2 285.72,552.48 285.72,552.48 L287.8,550.4 Z M291.48,562.24 C291.48,563.36 292.44,564.32 293.56,564.32 C294.68,564.32 295.64,563.36 295.64,562.24 C295.64,561.12 294.68,560.16 293.56,560.16 C292.44,560.16 291.48,561.12 291.48,562.24 Z M291.48,550.4 C291.48,551.52 292.44,552.48 293.56,552.48 C294.68,552.48 295.64,551.52 295.64,550.4 C295.64,549.28 294.68,548.32 293.56,548.32 C292.44,548.32 291.48,549.28 291.48,550.4 Z M308.92,548.64 L305.72,548.64 L305.72,564 L308.92,564 L308.92,555.68 C308.92,552.8 310.52,551.2 312.92,551.2 C315,551.2 316.6,552.8 316.6,555.04 L316.6,564 L319.8,564 L319.8,555.04 C319.8,550.88 317.24,548.32 313.56,548.32 C310.68,548.32 308.92,550.24 308.92,550.24 L308.92,548.64 Z M335.16,564 L338.36,564 L338.36,548.64 L335.16,548.64 L335.16,556.96 C335.16,559.84 333.56,561.44 331.16,561.44 C329.08,561.44 327.48,559.84 327.48,557.6 L327.48,548.64 L324.28,548.64 L324.28,557.6 C324.28,561.76 326.84,564.32 330.52,564.32 C333.4,564.32 335.16,562.4 335.16,562.4 L335.16,564 Z M346.52,541.6 L343.32,541.6 L343.32,564 L346.52,564 L346.52,541.6 Z M354.84,541.6 L351.64,541.6 L351.64,564 L354.84,564 L354.84,541.6 Z M360.76,560.16 L357.56,567.04 L359.64,568.16 L363.64,561.76 L360.76,560.16 Z M204.6,596.72 C203.32,596.72 202.68,596.08 202.68,594.8 L202.68,587.92 C202.68,585.04 200.92,583.28 197.72,583.28 L195.96,583.28 L195.96,585.84 L197.72,585.84 C199,585.84 199.8,586.64 199.8,587.92 L199.8,594.8 C199.8,597.68 201.56,598 201.528,598 C201.56,598 199.8,598.32 199.8,601.2 L199.8,608.08 C199.8,609.36 199,610.16 197.72,610.16 L195.96,610.16 L195.96,612.72 L197.72,612.72 C200.92,612.72 202.68,610.96 202.68,608.08 L202.68,601.2 C202.68,599.92 203.32,599.28 204.6,599.28 L204.6,596.72 Z M209.72,602.16 L206.52,609.04 L208.6,610.16 L212.6,603.76 L209.72,602.16 Z M208.6,592.4 C208.6,593.52 209.56,594.48 210.68,594.48 C211.8,594.48 212.76,593.52 212.76,592.4 C212.76,591.28 211.8,590.32 210.68,590.32 C209.56,590.32 208.6,591.28 208.6,592.4 Z" id="export-interface-Tod" fill="#545E6F"></path>
            <text id="DEFINE-TODOSSTATE" font-family="TTNorms-Bold, TT Norms" font-size="24" font-weight="bold" fill="#FFFFFF">
                <tspan x="511.62" y="93">DEFINE TODOSSTATE</tspan>
            </text>
        </g>
    </g>
</svg>