<?xml version="1.0" encoding="UTF-8"?>
<svg width="1280px" height="720px" viewBox="0 0 1280 720" version="1.1" xmlns="http://www.w3.org/2000/svg" xmlns:xlink="http://www.w3.org/1999/xlink" style="background: #FFFFFF;">
    <!-- Generator: Sketch 47.1 (45422) - http://www.bohemiancoding.com/sketch -->
    <title>create-reducer</title>
    <desc>Created with Sketch.</desc>
    <defs></defs>
    <g id="Page-1" stroke="none" stroke-width="1" fill="none" fill-rule="evenodd">
        <g id="create-reducer">
            <g id="Group" transform="translate(141.000000, 50.000000)">
                <rect id="Rectangle-7" fill="#F4F6F8" x="0" y="24" width="1030" height="586" rx="15"></rect>
                <path d="M15,0 L1015,0 L1015,1.77635684e-15 C1023.28427,5.91178485e-14 1030,6.71572875 1030,15 L1030,58 L0,58 L0,15 L-1.77635684e-15,15 C-2.79088747e-15,6.71572875 6.71572875,-2.54560899e-16 15,-1.77635684e-15 Z" id="Rectangle" fill="#DF7575"></path>
            </g>
            <path d="M226.3,163.85 L215.05,163.85 C215.35,165.8 217.15,167.6 219.55,167.6 C222.4,167.6 223.9,165.35 223.9,165.35 L225.85,167.3 C225.85,167.3 223.6,170.3 219.55,170.3 C215.5,170.3 212.05,166.85 212.05,162.65 C212.05,158.6 215.35,155.3 219.4,155.3 C223.45,155.3 226.45,158.3 226.45,162.35 C226.45,163.25 226.3,163.85 226.3,163.85 Z M219.4,157.85 C217.15,157.85 215.65,159.35 215.17,161.3 L223.51,161.3 C223.15,159.35 221.65,157.85 219.4,157.85 Z M236.95,162.5 L241.9,155.6 L238.45,155.6 L235.15,160.25 L231.85,155.6 L228.4,155.6 L233.35,162.5 L227.95,170 L231.4,170 L235.15,164.75 L238.9,170 L242.35,170 L236.95,162.5 Z M252.4,170.3 C249.55,170.3 247.75,168.35 247.75,168.35 L247.75,176.3 L244.75,176.3 L244.75,155.6 L247.75,155.6 L247.75,157.25 C247.75,157.25 249.55,155.3 252.4,155.3 C256.15,155.3 259.45,158.6 259.45,162.8 C259.45,167 256.15,170.3 252.4,170.3 Z M252.1,158 C249.85,158 247.75,160.1 247.75,162.8 C247.75,165.5 249.85,167.6 252.1,167.6 C254.35,167.6 256.45,165.5 256.45,162.8 C256.45,160.1 254.35,158 252.1,158 Z M273.85,162.8 C273.85,160.1 271.75,158 269.35,158 C266.95,158 264.85,160.1 264.85,162.8 C264.85,165.5 266.95,167.6 269.35,167.6 C271.75,167.6 273.85,165.5 273.85,162.8 Z M261.85,162.8 C261.85,158.75 265.3,155.3 269.35,155.3 C273.4,155.3 276.85,158.75 276.85,162.8 C276.85,166.85 273.4,170.3 269.35,170.3 C265.3,170.3 261.85,166.85 261.85,162.8 Z M288.25,158.15 L288.25,155.3 L287.5,155.3 C284.8,155.3 283.15,157.1 283.15,157.1 L283.15,155.6 L280.15,155.6 L280.15,170 L283.15,170 L283.15,162.2 C283.15,159.5 284.65,158 286.9,158 C287.65,158 288.25,158.15 288.25,158.15 Z M292.45,153.8 C292.45,155 291.85,155.6 290.95,155.6 L289.45,155.6 L289.45,158.3 L292.15,158.3 L292.15,165.8 C292.15,168.8 293.65,170.3 296.35,170.3 C297.55,170.3 298.45,170 298.45,170 L298.45,167.3 C298.45,167.3 297.7,167.6 296.95,167.6 C295.9,167.6 295.15,166.85 295.15,165.77 L295.15,158.3 L298.15,158.3 L298.15,155.6 L295.15,155.6 L295.15,150.8 L292.45,150.8 L292.45,153.8 Z M315.25,155.6 L311.95,155.6 L311.95,153.23 C311.95,152.15 312.7,151.4 313.75,151.4 C314.5,151.4 315.25,151.7 315.25,151.7 L315.25,149 C315.25,149 314.35,148.7 313.15,148.7 C310.45,148.7 308.95,150.2 308.95,153.2 L308.95,155.6 L306.85,155.6 L306.85,158.3 L308.95,158.3 L308.95,170 L311.95,170 L311.95,158.3 L315.25,158.3 L315.25,155.6 Z M328.45,170 L331.45,170 L331.45,155.6 L328.45,155.6 L328.45,163.4 C328.45,166.1 326.95,167.6 324.7,167.6 C322.75,167.6 321.25,166.1 321.25,164 L321.25,155.6 L318.25,155.6 L318.25,164 C318.25,167.9 320.65,170.3 324.1,170.3 C326.8,170.3 328.45,168.5 328.45,168.5 L328.45,170 Z M338.8,155.6 L335.8,155.6 L335.8,170 L338.8,170 L338.8,162.2 C338.8,159.5 340.3,158 342.55,158 C344.5,158 346,159.5 346,161.6 L346,170 L349,170 L349,161.6 C349,157.7 346.6,155.3 343.15,155.3 C340.45,155.3 338.8,157.1 338.8,157.1 L338.8,155.6 Z M352.3,162.8 C352.3,166.85 355.75,170.3 359.8,170.3 C363.55,170.3 365.8,167.3 365.8,167.3 L363.85,165.35 C363.85,165.35 362.35,167.6 359.8,167.6 C357.4,167.6 355.3,165.5 355.3,162.8 C355.3,160.1 357.4,158 359.8,158 C362.35,158 363.7,160.1 363.7,160.1 L365.65,158.15 C365.65,158.15 363.55,155.3 359.8,155.3 C355.75,155.3 352.3,158.75 352.3,162.8 Z M370.6,153.8 C370.6,155 370,155.6 369.1,155.6 L367.6,155.6 L367.6,158.3 L370.3,158.3 L370.3,165.8 C370.3,168.8 371.8,170.3 374.5,170.3 C375.7,170.3 376.6,170 376.6,170 L376.6,167.3 C376.6,167.3 375.85,167.6 375.1,167.6 C374.05,167.6 373.3,166.85 373.3,165.77 L373.3,158.3 L376.3,158.3 L376.3,155.6 L373.3,155.6 L373.3,150.8 L370.6,150.8 L370.6,153.8 Z M383.35,155.6 L380.35,155.6 L380.35,170 L383.35,170 L383.35,155.6 Z M383.65,151.1 C383.65,150.05 382.9,149.3 381.85,149.3 C380.8,149.3 380.05,150.05 380.05,151.1 C380.05,152.15 380.8,152.9 381.85,152.9 C382.9,152.9 383.65,152.15 383.65,151.1 Z M398.8,162.8 C398.8,160.1 396.7,158 394.3,158 C391.9,158 389.8,160.1 389.8,162.8 C389.8,165.5 391.9,167.6 394.3,167.6 C396.7,167.6 398.8,165.5 398.8,162.8 Z M386.8,162.8 C386.8,158.75 390.25,155.3 394.3,155.3 C398.35,155.3 401.8,158.75 401.8,162.8 C401.8,166.85 398.35,170.3 394.3,170.3 C390.25,170.3 386.8,166.85 386.8,162.8 Z M408.1,155.6 L405.1,155.6 L405.1,170 L408.1,170 L408.1,162.2 C408.1,159.5 409.6,158 411.85,158 C413.8,158 415.3,159.5 415.3,161.6 L415.3,170 L418.3,170 L418.3,161.6 C418.3,157.7 415.9,155.3 412.45,155.3 C409.75,155.3 408.1,157.1 408.1,157.1 L408.1,155.6 Z M436.6,158.15 L436.6,155.3 L435.85,155.3 C433.15,155.3 431.5,157.1 431.5,157.1 L431.5,155.6 L428.5,155.6 L428.5,170 L431.5,170 L431.5,162.2 C431.5,159.5 433,158 435.25,158 C436,158 436.6,158.15 436.6,158.15 Z M452.35,163.85 L441.1,163.85 C441.4,165.8 443.2,167.6 445.6,167.6 C448.45,167.6 449.95,165.35 449.95,165.35 L451.9,167.3 C451.9,167.3 449.65,170.3 445.6,170.3 C441.55,170.3 438.1,166.85 438.1,162.65 C438.1,158.6 441.4,155.3 445.45,155.3 C449.5,155.3 452.5,158.3 452.5,162.35 C452.5,163.25 452.35,163.85 452.35,163.85 Z M445.45,157.85 C443.2,157.85 441.7,159.35 441.22,161.3 L449.56,161.3 C449.2,159.35 447.7,157.85 445.45,157.85 Z M461.95,155.3 C464.8,155.3 466.6,157.25 466.6,157.25 L466.6,149 L469.6,149 L469.6,170 L466.6,170 L466.6,168.35 C466.6,168.35 464.8,170.3 461.95,170.3 C458.2,170.3 454.9,167 454.9,162.8 C454.9,158.6 458.2,155.3 461.95,155.3 Z M462.25,167.6 C464.5,167.6 466.6,165.5 466.6,162.8 C466.6,160.1 464.5,158 462.25,158 C460,158 457.9,160.1 457.9,162.8 C457.9,165.5 460,167.6 462.25,167.6 Z M484.3,170 L487.3,170 L487.3,155.6 L484.3,155.6 L484.3,163.4 C484.3,166.1 482.8,167.6 480.55,167.6 C478.6,167.6 477.1,166.1 477.1,164 L477.1,155.6 L474.1,155.6 L474.1,164 C474.1,167.9 476.5,170.3 479.95,170.3 C482.65,170.3 484.3,168.5 484.3,168.5 L484.3,170 Z M490.75,162.8 C490.75,166.85 494.2,170.3 498.25,170.3 C502,170.3 504.25,167.3 504.25,167.3 L502.3,165.35 C502.3,165.35 500.8,167.6 498.25,167.6 C495.85,167.6 493.75,165.5 493.75,162.8 C493.75,160.1 495.85,158 498.25,158 C500.8,158 502.15,160.1 502.15,160.1 L504.1,158.15 C504.1,158.15 502,155.3 498.25,155.3 C494.2,155.3 490.75,158.75 490.75,162.8 Z M520.6,163.85 L509.35,163.85 C509.65,165.8 511.45,167.6 513.85,167.6 C516.7,167.6 518.2,165.35 518.2,165.35 L520.15,167.3 C520.15,167.3 517.9,170.3 513.85,170.3 C509.8,170.3 506.35,166.85 506.35,162.65 C506.35,158.6 509.65,155.3 513.7,155.3 C517.75,155.3 520.75,158.3 520.75,162.35 C520.75,163.25 520.6,163.85 520.6,163.85 Z M513.7,157.85 C511.45,157.85 509.95,159.35 509.47,161.3 L517.81,161.3 C517.45,159.35 515.95,157.85 513.7,157.85 Z M532.15,158.15 L532.15,155.3 L531.4,155.3 C528.7,155.3 527.05,157.1 527.05,157.1 L527.05,155.6 L524.05,155.6 L524.05,170 L527.05,170 L527.05,162.2 C527.05,159.5 528.55,158 530.8,158 C531.55,158 532.15,158.15 532.15,158.15 Z M537.7,162.5 C537.7,155 541.9,149.6 541.9,149.6 L539.65,148.25 C539.65,148.25 535,153.8 535,162.5 C535,171.2 539.65,176.75 539.65,176.75 L541.9,175.4 C541.9,175.4 537.7,170 537.7,162.5 Z M240.1,193.25 C240.1,193.25 238.6,191.3 235.45,191.3 C232.45,191.3 230.35,193.4 230.35,195.5 C230.35,200.6 237.7,199.1 237.7,201.8 C237.7,202.85 236.95,203.6 235.3,203.6 C233.05,203.6 231.7,201.8 231.7,201.8 L229.75,203.75 C229.75,203.75 231.55,206.3 235.3,206.3 C238.6,206.3 240.7,204.2 240.7,201.8 C240.7,196.7 233.35,198.2 233.35,195.5 C233.35,194.75 234.1,194 235.45,194 C237.1,194 238.15,195.2 238.15,195.2 L240.1,193.25 Z M245.8,189.8 C245.8,191 245.2,191.6 244.3,191.6 L242.8,191.6 L242.8,194.3 L245.5,194.3 L245.5,201.8 C245.5,204.8 247,206.3 249.7,206.3 C250.9,206.3 251.8,206 251.8,206 L251.8,203.3 C251.8,203.3 251.05,203.6 250.3,203.6 C249.25,203.6 248.5,202.85 248.5,201.77 L248.5,194.3 L251.5,194.3 L251.5,191.6 L248.5,191.6 L248.5,186.8 L245.8,186.8 L245.8,189.8 Z M266.35,206 L263.35,206 L263.35,204.5 C263.35,204.5 261.7,206.3 259,206.3 C256,206.3 253.9,204.2 253.9,202.1 C253.9,199.7 255.55,198.05 258.1,197.6 L263.35,196.7 C263.35,195.2 262.15,194 260.35,194 C257.8,194 256.6,195.95 256.6,195.95 L254.65,194 C254.65,194 256.6,191.3 260.35,191.3 C263.95,191.3 266.35,193.7 266.35,196.7 L266.35,206 Z M259.45,203.6 C261.85,203.6 263.35,202.1 263.35,199.4 L263.35,199.1 L258.7,199.85 C257.65,200.03 256.9,200.75 256.9,201.8 C256.9,202.7 257.8,203.6 259.45,203.6 Z M272.35,189.8 C272.35,191 271.75,191.6 270.85,191.6 L269.35,191.6 L269.35,194.3 L272.05,194.3 L272.05,201.8 C272.05,204.8 273.55,206.3 276.25,206.3 C277.45,206.3 278.35,206 278.35,206 L278.35,203.3 C278.35,203.3 277.6,203.6 276.85,203.6 C275.8,203.6 275.05,202.85 275.05,201.77 L275.05,194.3 L278.05,194.3 L278.05,191.6 L275.05,191.6 L275.05,186.8 L272.35,186.8 L272.35,189.8 Z M294.7,199.85 L283.45,199.85 C283.75,201.8 285.55,203.6 287.95,203.6 C290.8,203.6 292.3,201.35 292.3,201.35 L294.25,203.3 C294.25,203.3 292,206.3 287.95,206.3 C283.9,206.3 280.45,202.85 280.45,198.65 C280.45,194.6 283.75,191.3 287.8,191.3 C291.85,191.3 294.85,194.3 294.85,198.35 C294.85,199.25 294.7,199.85 294.7,199.85 Z M287.8,193.85 C285.55,193.85 284.05,195.35 283.57,197.3 L291.91,197.3 C291.55,195.35 290.05,193.85 287.8,193.85 Z M315.7,198.5 L303.4,198.5 L303.4,201.2 L315.7,201.2 L315.7,198.5 Z M315.7,193.1 L303.4,193.1 L303.4,195.8 L315.7,195.8 L315.7,193.1 Z M328,191.6 L325,191.6 L325,206 L328,206 L328,191.6 Z M328.3,187.1 C328.3,186.05 327.55,185.3 326.5,185.3 C325.45,185.3 324.7,186.05 324.7,187.1 C324.7,188.15 325.45,188.9 326.5,188.9 C327.55,188.9 328.3,188.15 328.3,187.1 Z M335.35,191.6 L332.35,191.6 L332.35,206 L335.35,206 L335.35,198.2 C335.35,195.5 336.85,194 339.1,194 C341.05,194 342.55,195.5 342.55,197.6 L342.55,206 L345.55,206 L345.55,197.6 C345.55,193.7 343.15,191.3 339.7,191.3 C337,191.3 335.35,193.1 335.35,193.1 L335.35,191.6 Z M352.9,191.6 L349.9,191.6 L349.9,206 L352.9,206 L352.9,191.6 Z M353.2,187.1 C353.2,186.05 352.45,185.3 351.4,185.3 C350.35,185.3 349.6,186.05 349.6,187.1 C349.6,188.15 350.35,188.9 351.4,188.9 C352.45,188.9 353.2,188.15 353.2,187.1 Z M359.05,189.8 C359.05,191 358.45,191.6 357.55,191.6 L356.05,191.6 L356.05,194.3 L358.75,194.3 L358.75,201.8 C358.75,204.8 360.25,206.3 362.95,206.3 C364.15,206.3 365.05,206 365.05,206 L365.05,203.3 C365.05,203.3 364.3,203.6 363.55,203.6 C362.5,203.6 361.75,202.85 361.75,201.77 L361.75,194.3 L364.75,194.3 L364.75,191.6 L361.75,191.6 L361.75,186.8 L359.05,186.8 L359.05,189.8 Z M371.8,191.6 L368.8,191.6 L368.8,206 L371.8,206 L371.8,191.6 Z M372.1,187.1 C372.1,186.05 371.35,185.3 370.3,185.3 C369.25,185.3 368.5,186.05 368.5,187.1 C368.5,188.15 369.25,188.9 370.3,188.9 C371.35,188.9 372.1,188.15 372.1,187.1 Z M387.7,206 L384.7,206 L384.7,204.5 C384.7,204.5 383.05,206.3 380.35,206.3 C377.35,206.3 375.25,204.2 375.25,202.1 C375.25,199.7 376.9,198.05 379.45,197.6 L384.7,196.7 C384.7,195.2 383.5,194 381.7,194 C379.15,194 377.95,195.95 377.95,195.95 L376,194 C376,194 377.95,191.3 381.7,191.3 C385.3,191.3 387.7,193.7 387.7,196.7 L387.7,206 Z M380.8,203.6 C383.2,203.6 384.7,202.1 384.7,199.4 L384.7,199.1 L380.05,199.85 C379,200.03 378.25,200.75 378.25,201.8 C378.25,202.7 379.15,203.6 380.8,203.6 Z M395.2,185 L392.2,185 L392.2,206 L395.2,206 L395.2,185 Z M410.65,200 C410.65,201.8 409.15,203.3 406.45,203.3 C402.7,203.3 401.05,200.9 401.05,200.9 L398.95,203 C398.95,203 401.35,206.3 406.45,206.3 C411.25,206.3 413.95,203.6 413.95,200 C413.95,192.2 402.85,195.2 402.85,190.4 C402.85,189.05 404.2,187.7 406.45,187.7 C409.3,187.7 410.65,189.5 410.65,189.5 L412.75,187.4 C412.75,187.4 410.65,184.7 406.45,184.7 C402.1,184.7 399.55,187.25 399.55,190.4 C399.55,198.2 410.65,195.2 410.65,200 Z M419.2,189.8 C419.2,191 418.6,191.6 417.7,191.6 L416.2,191.6 L416.2,194.3 L418.9,194.3 L418.9,201.8 C418.9,204.8 420.4,206.3 423.1,206.3 C424.3,206.3 425.2,206 425.2,206 L425.2,203.3 C425.2,203.3 424.45,203.6 423.7,203.6 C422.65,203.6 421.9,202.85 421.9,201.77 L421.9,194.3 L424.9,194.3 L424.9,191.6 L421.9,191.6 L421.9,186.8 L419.2,186.8 L419.2,189.8 Z M439.75,206 L436.75,206 L436.75,204.5 C436.75,204.5 435.1,206.3 432.4,206.3 C429.4,206.3 427.3,204.2 427.3,202.1 C427.3,199.7 428.95,198.05 431.5,197.6 L436.75,196.7 C436.75,195.2 435.55,194 433.75,194 C431.2,194 430,195.95 430,195.95 L428.05,194 C428.05,194 430,191.3 433.75,191.3 C437.35,191.3 439.75,193.7 439.75,196.7 L439.75,206 Z M432.85,203.6 C435.25,203.6 436.75,202.1 436.75,199.4 L436.75,199.1 L432.1,199.85 C431.05,200.03 430.3,200.75 430.3,201.8 C430.3,202.7 431.2,203.6 432.85,203.6 Z M445.75,189.8 C445.75,191 445.15,191.6 444.25,191.6 L442.75,191.6 L442.75,194.3 L445.45,194.3 L445.45,201.8 C445.45,204.8 446.95,206.3 449.65,206.3 C450.85,206.3 451.75,206 451.75,206 L451.75,203.3 C451.75,203.3 451,203.6 450.25,203.6 C449.2,203.6 448.45,202.85 448.45,201.77 L448.45,194.3 L451.45,194.3 L451.45,191.6 L448.45,191.6 L448.45,186.8 L445.75,186.8 L445.75,189.8 Z M468.1,199.85 L456.85,199.85 C457.15,201.8 458.95,203.6 461.35,203.6 C464.2,203.6 465.7,201.35 465.7,201.35 L467.65,203.3 C467.65,203.3 465.4,206.3 461.35,206.3 C457.3,206.3 453.85,202.85 453.85,198.65 C453.85,194.6 457.15,191.3 461.2,191.3 C465.25,191.3 468.25,194.3 468.25,198.35 C468.25,199.25 468.1,199.85 468.1,199.85 Z M461.2,193.85 C458.95,193.85 457.45,195.35 456.97,197.3 L465.31,197.3 C464.95,195.35 463.45,193.85 461.2,193.85 Z M472.6,202.4 L469.6,208.85 L471.55,209.9 L475.3,203.9 L472.6,202.4 Z M242.5,242 L239.5,242 L239.5,240.5 C239.5,240.5 237.85,242.3 235.15,242.3 C232.15,242.3 230.05,240.2 230.05,238.1 C230.05,235.7 231.7,234.05 234.25,233.6 L239.5,232.7 C239.5,231.2 238.3,230 236.5,230 C233.95,230 232.75,231.95 232.75,231.95 L230.8,230 C230.8,230 232.75,227.3 236.5,227.3 C240.1,227.3 242.5,229.7 242.5,232.7 L242.5,242 Z M235.6,239.6 C238,239.6 239.5,238.1 239.5,235.4 L239.5,235.1 L234.85,235.85 C233.8,236.03 233.05,236.75 233.05,237.8 C233.05,238.7 233.95,239.6 235.6,239.6 Z M245.8,234.8 C245.8,238.85 249.25,242.3 253.3,242.3 C257.05,242.3 259.3,239.3 259.3,239.3 L257.35,237.35 C257.35,237.35 255.85,239.6 253.3,239.6 C250.9,239.6 248.8,237.5 248.8,234.8 C248.8,232.1 250.9,230 253.3,230 C255.85,230 257.2,232.1 257.2,232.1 L259.15,230.15 C259.15,230.15 257.05,227.3 253.3,227.3 C249.25,227.3 245.8,230.75 245.8,234.8 Z M264.1,225.8 C264.1,227 263.5,227.6 262.6,227.6 L261.1,227.6 L261.1,230.3 L263.8,230.3 L263.8,237.8 C263.8,240.8 265.3,242.3 268,242.3 C269.2,242.3 270.1,242 270.1,242 L270.1,239.3 C270.1,239.3 269.35,239.6 268.6,239.6 C267.55,239.6 266.8,238.85 266.8,237.77 L266.8,230.3 L269.8,230.3 L269.8,227.6 L266.8,227.6 L266.8,222.8 L264.1,222.8 L264.1,225.8 Z M276.85,227.6 L273.85,227.6 L273.85,242 L276.85,242 L276.85,227.6 Z M277.15,223.1 C277.15,222.05 276.4,221.3 275.35,221.3 C274.3,221.3 273.55,222.05 273.55,223.1 C273.55,224.15 274.3,224.9 275.35,224.9 C276.4,224.9 277.15,224.15 277.15,223.1 Z M292.3,234.8 C292.3,232.1 290.2,230 287.8,230 C285.4,230 283.3,232.1 283.3,234.8 C283.3,237.5 285.4,239.6 287.8,239.6 C290.2,239.6 292.3,237.5 292.3,234.8 Z M280.3,234.8 C280.3,230.75 283.75,227.3 287.8,227.3 C291.85,227.3 295.3,230.75 295.3,234.8 C295.3,238.85 291.85,242.3 287.8,242.3 C283.75,242.3 280.3,238.85 280.3,234.8 Z M301.6,227.6 L298.6,227.6 L298.6,242 L301.6,242 L301.6,234.2 C301.6,231.5 303.1,230 305.35,230 C307.3,230 308.8,231.5 308.8,233.6 L308.8,242 L311.8,242 L311.8,233.6 C311.8,229.7 309.4,227.3 305.95,227.3 C303.25,227.3 301.6,229.1 301.6,229.1 L301.6,227.6 Z M315.55,240.35 C315.55,241.4 316.45,242.3 317.5,242.3 C318.55,242.3 319.45,241.4 319.45,240.35 C319.45,239.3 318.55,238.4 317.5,238.4 C316.45,238.4 315.55,239.3 315.55,240.35 Z M315.55,229.25 C315.55,230.3 316.45,231.2 317.5,231.2 C318.55,231.2 319.45,230.3 319.45,229.25 C319.45,228.2 318.55,227.3 317.5,227.3 C316.45,227.3 315.55,228.2 315.55,229.25 Z M336.1,227.6 L332.8,227.6 L332.8,225.23 C332.8,224.15 333.55,223.4 334.6,223.4 C335.35,223.4 336.1,223.7 336.1,223.7 L336.1,221 C336.1,221 335.2,220.7 334,220.7 C331.3,220.7 329.8,222.2 329.8,225.2 L329.8,227.6 L327.7,227.6 L327.7,230.3 L329.8,230.3 L329.8,242 L332.8,242 L332.8,230.3 L336.1,230.3 L336.1,227.6 Z M347.2,230.15 L347.2,227.3 L346.45,227.3 C343.75,227.3 342.1,229.1 342.1,229.1 L342.1,227.6 L339.1,227.6 L339.1,242 L342.1,242 L342.1,234.2 C342.1,231.5 343.6,230 345.85,230 C346.6,230 347.2,230.15 347.2,230.15 Z M360.7,234.8 C360.7,232.1 358.6,230 356.2,230 C353.8,230 351.7,232.1 351.7,234.8 C351.7,237.5 353.8,239.6 356.2,239.6 C358.6,239.6 360.7,237.5 360.7,234.8 Z M348.7,234.8 C348.7,230.75 352.15,227.3 356.2,227.3 C360.25,227.3 363.7,230.75 363.7,234.8 C363.7,238.85 360.25,242.3 356.2,242.3 C352.15,242.3 348.7,238.85 348.7,234.8 Z M385.6,242 L388.6,242 L388.6,233.6 C388.6,229.4 386.5,227.3 383.2,227.3 C379.9,227.3 378.25,229.7 378.25,229.7 C378.25,229.7 377.05,227.3 373.9,227.3 C371.5,227.3 370,229.1 370,229.1 L370,227.6 L367,227.6 L367,242 L370,242 L370,234.2 C370,231.5 371.5,230 373.3,230 C375.1,230 376.3,231.2 376.3,233.6 L376.3,242 L379.3,242 L379.3,234.2 C379.3,231.5 380.8,230 382.6,230 C384.4,230 385.6,231.2 385.6,233.6 L385.6,242 Z M391.45,221 L407.35,221 L407.35,224 L401.05,224 L401.05,242 L397.75,242 L397.75,224 L391.45,224 L391.45,221 Z M419.2,234.8 C419.2,232.1 417.1,230 414.7,230 C412.3,230 410.2,232.1 410.2,234.8 C410.2,237.5 412.3,239.6 414.7,239.6 C417.1,239.6 419.2,237.5 419.2,234.8 Z M407.2,234.8 C407.2,230.75 410.65,227.3 414.7,227.3 C418.75,227.3 422.2,230.75 422.2,234.8 C422.2,238.85 418.75,242.3 414.7,242.3 C410.65,242.3 407.2,238.85 407.2,234.8 Z M431.65,227.3 C434.5,227.3 436.3,229.25 436.3,229.25 L436.3,221 L439.3,221 L439.3,242 L436.3,242 L436.3,240.35 C436.3,240.35 434.5,242.3 431.65,242.3 C427.9,242.3 424.6,239 424.6,234.8 C424.6,230.6 427.9,227.3 431.65,227.3 Z M431.95,239.6 C434.2,239.6 436.3,237.5 436.3,234.8 C436.3,232.1 434.2,230 431.95,230 C429.7,230 427.6,232.1 427.6,234.8 C427.6,237.5 429.7,239.6 431.95,239.6 Z M454.9,234.8 C454.9,232.1 452.8,230 450.4,230 C448,230 445.9,232.1 445.9,234.8 C445.9,237.5 448,239.6 450.4,239.6 C452.8,239.6 454.9,237.5 454.9,234.8 Z M442.9,234.8 C442.9,230.75 446.35,227.3 450.4,227.3 C454.45,227.3 457.9,230.75 457.9,234.8 C457.9,238.85 454.45,242.3 450.4,242.3 C446.35,242.3 442.9,238.85 442.9,234.8 Z M470.35,229.25 C470.35,229.25 468.85,227.3 465.7,227.3 C462.7,227.3 460.6,229.4 460.6,231.5 C460.6,236.6 467.95,235.1 467.95,237.8 C467.95,238.85 467.2,239.6 465.55,239.6 C463.3,239.6 461.95,237.8 461.95,237.8 L460,239.75 C460,239.75 461.8,242.3 465.55,242.3 C468.85,242.3 470.95,240.2 470.95,237.8 C470.95,232.7 463.6,234.2 463.6,231.5 C463.6,230.75 464.35,230 465.7,230 C467.35,230 468.4,231.2 468.4,231.2 L470.35,229.25 Z M477.7,240.35 C477.7,239.3 476.8,238.4 475.75,238.4 C474.7,238.4 473.8,239.3 473.8,240.35 C473.8,241.4 474.7,242.3 475.75,242.3 C476.8,242.3 477.7,241.4 477.7,240.35 Z M479.8,221 L495.7,221 L495.7,224 L489.4,224 L489.4,242 L486.1,242 L486.1,224 L479.8,224 L479.8,221 Z M507.55,234.8 C507.55,232.1 505.45,230 503.05,230 C500.65,230 498.55,232.1 498.55,234.8 C498.55,237.5 500.65,239.6 503.05,239.6 C505.45,239.6 507.55,237.5 507.55,234.8 Z M495.55,234.8 C495.55,230.75 499,227.3 503.05,227.3 C507.1,227.3 510.55,230.75 510.55,234.8 C510.55,238.85 507.1,242.3 503.05,242.3 C499,242.3 495.55,238.85 495.55,234.8 Z M520,227.3 C522.85,227.3 524.65,229.25 524.65,229.25 L524.65,221 L527.65,221 L527.65,242 L524.65,242 L524.65,240.35 C524.65,240.35 522.85,242.3 520,242.3 C516.25,242.3 512.95,239 512.95,234.8 C512.95,230.6 516.25,227.3 520,227.3 Z M520.3,239.6 C522.55,239.6 524.65,237.5 524.65,234.8 C524.65,232.1 522.55,230 520.3,230 C518.05,230 515.95,232.1 515.95,234.8 C515.95,237.5 518.05,239.6 520.3,239.6 Z M543.25,234.8 C543.25,232.1 541.15,230 538.75,230 C536.35,230 534.25,232.1 534.25,234.8 C534.25,237.5 536.35,239.6 538.75,239.6 C541.15,239.6 543.25,237.5 543.25,234.8 Z M531.25,234.8 C531.25,230.75 534.7,227.3 538.75,227.3 C542.8,227.3 546.25,230.75 546.25,234.8 C546.25,238.85 542.8,242.3 538.75,242.3 C534.7,242.3 531.25,238.85 531.25,234.8 Z M558.7,229.25 C558.7,229.25 557.2,227.3 554.05,227.3 C551.05,227.3 548.95,229.4 548.95,231.5 C548.95,236.6 556.3,235.1 556.3,237.8 C556.3,238.85 555.55,239.6 553.9,239.6 C551.65,239.6 550.3,237.8 550.3,237.8 L548.35,239.75 C548.35,239.75 550.15,242.3 553.9,242.3 C557.2,242.3 559.3,240.2 559.3,237.8 C559.3,232.7 551.95,234.2 551.95,231.5 C551.95,230.75 552.7,230 554.05,230 C555.7,230 556.75,231.2 556.75,231.2 L558.7,229.25 Z M571.75,229.25 C571.75,229.25 570.25,227.3 567.1,227.3 C564.1,227.3 562,229.4 562,231.5 C562,236.6 569.35,235.1 569.35,237.8 C569.35,238.85 568.6,239.6 566.95,239.6 C564.7,239.6 563.35,237.8 563.35,237.8 L561.4,239.75 C561.4,239.75 563.2,242.3 566.95,242.3 C570.25,242.3 572.35,240.2 572.35,237.8 C572.35,232.7 565,234.2 565,231.5 C565,230.75 565.75,230 567.1,230 C568.75,230 569.8,231.2 569.8,231.2 L571.75,229.25 Z M574.3,242 L583,221 L586.3,221 L595,242 L591.55,242 L589.3,236.45 L580,236.45 L577.75,242 L574.3,242 Z M584.65,224.75 L581.2,233.45 L588.1,233.45 L584.65,224.75 Z M596.65,234.8 C596.65,238.85 600.1,242.3 604.15,242.3 C607.9,242.3 610.15,239.3 610.15,239.3 L608.2,237.35 C608.2,237.35 606.7,239.6 604.15,239.6 C601.75,239.6 599.65,237.5 599.65,234.8 C599.65,232.1 601.75,230 604.15,230 C606.7,230 608.05,232.1 608.05,232.1 L610,230.15 C610,230.15 607.9,227.3 604.15,227.3 C600.1,227.3 596.65,230.75 596.65,234.8 Z M614.95,225.8 C614.95,227 614.35,227.6 613.45,227.6 L611.95,227.6 L611.95,230.3 L614.65,230.3 L614.65,237.8 C614.65,240.8 616.15,242.3 618.85,242.3 C620.05,242.3 620.95,242 620.95,242 L620.95,239.3 C620.95,239.3 620.2,239.6 619.45,239.6 C618.4,239.6 617.65,238.85 617.65,237.77 L617.65,230.3 L620.65,230.3 L620.65,227.6 L617.65,227.6 L617.65,222.8 L614.95,222.8 L614.95,225.8 Z M627.7,227.6 L624.7,227.6 L624.7,242 L627.7,242 L627.7,227.6 Z M628,223.1 C628,222.05 627.25,221.3 626.2,221.3 C625.15,221.3 624.4,222.05 624.4,223.1 C624.4,224.15 625.15,224.9 626.2,224.9 C627.25,224.9 628,224.15 628,223.1 Z M643.15,234.8 C643.15,232.1 641.05,230 638.65,230 C636.25,230 634.15,232.1 634.15,234.8 C634.15,237.5 636.25,239.6 638.65,239.6 C641.05,239.6 643.15,237.5 643.15,234.8 Z M631.15,234.8 C631.15,230.75 634.6,227.3 638.65,227.3 C642.7,227.3 646.15,230.75 646.15,234.8 C646.15,238.85 642.7,242.3 638.65,242.3 C634.6,242.3 631.15,238.85 631.15,234.8 Z M652.45,227.6 L649.45,227.6 L649.45,242 L652.45,242 L652.45,234.2 C652.45,231.5 653.95,230 656.2,230 C658.15,230 659.65,231.5 659.65,233.6 L659.65,242 L662.65,242 L662.65,233.6 C662.65,229.7 660.25,227.3 656.8,227.3 C654.1,227.3 652.45,229.1 652.45,229.1 L652.45,227.6 Z M216.1,270.5 C216.1,278 211.9,283.4 211.9,283.4 L214.15,284.75 C214.15,284.75 218.8,279.2 218.8,270.5 C218.8,261.8 214.15,256.25 214.15,256.25 L211.9,257.6 C211.9,257.6 216.1,263 216.1,270.5 Z M222.7,276.35 C222.7,277.4 223.6,278.3 224.65,278.3 C225.7,278.3 226.6,277.4 226.6,276.35 C226.6,275.3 225.7,274.4 224.65,274.4 C223.6,274.4 222.7,275.3 222.7,276.35 Z M222.7,265.25 C222.7,266.3 223.6,267.2 224.65,267.2 C225.7,267.2 226.6,266.3 226.6,265.25 C226.6,264.2 225.7,263.3 224.65,263.3 C223.6,263.3 222.7,264.2 222.7,265.25 Z M234.7,257 L250.6,257 L250.6,260 L244.3,260 L244.3,278 L241,278 L241,260 L234.7,260 L234.7,257 Z M262.45,270.8 C262.45,268.1 260.35,266 257.95,266 C255.55,266 253.45,268.1 253.45,270.8 C253.45,273.5 255.55,275.6 257.95,275.6 C260.35,275.6 262.45,273.5 262.45,270.8 Z M250.45,270.8 C250.45,266.75 253.9,263.3 257.95,263.3 C262,263.3 265.45,266.75 265.45,270.8 C265.45,274.85 262,278.3 257.95,278.3 C253.9,278.3 250.45,274.85 250.45,270.8 Z M274.9,263.3 C277.75,263.3 279.55,265.25 279.55,265.25 L279.55,257 L282.55,257 L282.55,278 L279.55,278 L279.55,276.35 C279.55,276.35 277.75,278.3 274.9,278.3 C271.15,278.3 267.85,275 267.85,270.8 C267.85,266.6 271.15,263.3 274.9,263.3 Z M275.2,275.6 C277.45,275.6 279.55,273.5 279.55,270.8 C279.55,268.1 277.45,266 275.2,266 C272.95,266 270.85,268.1 270.85,270.8 C270.85,273.5 272.95,275.6 275.2,275.6 Z M298.15,270.8 C298.15,268.1 296.05,266 293.65,266 C291.25,266 289.15,268.1 289.15,270.8 C289.15,273.5 291.25,275.6 293.65,275.6 C296.05,275.6 298.15,273.5 298.15,270.8 Z M286.15,270.8 C286.15,266.75 289.6,263.3 293.65,263.3 C297.7,263.3 301.15,266.75 301.15,270.8 C301.15,274.85 297.7,278.3 293.65,278.3 C289.6,278.3 286.15,274.85 286.15,270.8 Z M313.6,265.25 C313.6,265.25 312.1,263.3 308.95,263.3 C305.95,263.3 303.85,265.4 303.85,267.5 C303.85,272.6 311.2,271.1 311.2,273.8 C311.2,274.85 310.45,275.6 308.8,275.6 C306.55,275.6 305.2,273.8 305.2,273.8 L303.25,275.75 C303.25,275.75 305.05,278.3 308.8,278.3 C312.1,278.3 314.2,276.2 314.2,273.8 C314.2,268.7 306.85,270.2 306.85,267.5 C306.85,266.75 307.6,266 308.95,266 C310.6,266 311.65,267.2 311.65,267.2 L313.6,265.25 Z M328.45,272 C328.45,273.8 326.95,275.3 324.25,275.3 C320.5,275.3 318.85,272.9 318.85,272.9 L316.75,275 C316.75,275 319.15,278.3 324.25,278.3 C329.05,278.3 331.75,275.6 331.75,272 C331.75,264.2 320.65,267.2 320.65,262.4 C320.65,261.05 322,259.7 324.25,259.7 C327.1,259.7 328.45,261.5 328.45,261.5 L330.55,259.4 C330.55,259.4 328.45,256.7 324.25,256.7 C319.9,256.7 317.35,259.25 317.35,262.4 C317.35,270.2 328.45,267.2 328.45,272 Z M337,261.8 C337,263 336.4,263.6 335.5,263.6 L334,263.6 L334,266.3 L336.7,266.3 L336.7,273.8 C336.7,276.8 338.2,278.3 340.9,278.3 C342.1,278.3 343,278 343,278 L343,275.3 C343,275.3 342.25,275.6 341.5,275.6 C340.45,275.6 339.7,274.85 339.7,273.77 L339.7,266.3 L342.7,266.3 L342.7,263.6 L339.7,263.6 L339.7,258.8 L337,258.8 L337,261.8 Z M357.55,278 L354.55,278 L354.55,276.5 C354.55,276.5 352.9,278.3 350.2,278.3 C347.2,278.3 345.1,276.2 345.1,274.1 C345.1,271.7 346.75,270.05 349.3,269.6 L354.55,268.7 C354.55,267.2 353.35,266 351.55,266 C349,266 347.8,267.95 347.8,267.95 L345.85,266 C345.85,266 347.8,263.3 351.55,263.3 C355.15,263.3 357.55,265.7 357.55,268.7 L357.55,278 Z M350.65,275.6 C353.05,275.6 354.55,274.1 354.55,271.4 L354.55,271.1 L349.9,271.85 C348.85,272.03 348.1,272.75 348.1,273.8 C348.1,274.7 349,275.6 350.65,275.6 Z M363.55,261.8 C363.55,263 362.95,263.6 362.05,263.6 L360.55,263.6 L360.55,266.3 L363.25,266.3 L363.25,273.8 C363.25,276.8 364.75,278.3 367.45,278.3 C368.65,278.3 369.55,278 369.55,278 L369.55,275.3 C369.55,275.3 368.8,275.6 368.05,275.6 C367,275.6 366.25,274.85 366.25,273.77 L366.25,266.3 L369.25,266.3 L369.25,263.6 L366.25,263.6 L366.25,258.8 L363.55,258.8 L363.55,261.8 Z M385.9,271.85 L374.65,271.85 C374.95,273.8 376.75,275.6 379.15,275.6 C382,275.6 383.5,273.35 383.5,273.35 L385.45,275.3 C385.45,275.3 383.2,278.3 379.15,278.3 C375.1,278.3 371.65,274.85 371.65,270.65 C371.65,266.6 374.95,263.3 379,263.3 C383.05,263.3 386.05,266.3 386.05,270.35 C386.05,271.25 385.9,271.85 385.9,271.85 Z M379,265.85 C376.75,265.85 375.25,267.35 374.77,269.3 L383.11,269.3 C382.75,267.35 381.25,265.85 379,265.85 Z M395.2,271.7 C396.4,271.7 397,272.3 397,273.5 L397,279.95 C397,282.65 398.65,284.3 401.65,284.3 L403.3,284.3 L403.3,281.9 L401.65,281.9 C400.45,281.9 399.7,281.15 399.7,279.95 L399.7,273.5 C399.7,270.8 398.05,270.5 398.08,270.5 C398.05,270.5 399.7,270.2 399.7,267.5 L399.7,261.05 C399.7,259.85 400.45,259.1 401.65,259.1 L403.3,259.1 L403.3,256.7 L401.65,256.7 C398.65,256.7 397,258.35 397,261.05 L397,267.5 C397,268.7 396.4,269.3 395.2,269.3 L395.2,271.7 Z M234.1,301.25 C234.1,301.25 232.6,299.3 229.45,299.3 C226.45,299.3 224.35,301.4 224.35,303.5 C224.35,308.6 231.7,307.1 231.7,309.8 C231.7,310.85 230.95,311.6 229.3,311.6 C227.05,311.6 225.7,309.8 225.7,309.8 L223.75,311.75 C223.75,311.75 225.55,314.3 229.3,314.3 C232.6,314.3 234.7,312.2 234.7,309.8 C234.7,304.7 227.35,306.2 227.35,303.5 C227.35,302.75 228.1,302 229.45,302 C231.1,302 232.15,303.2 232.15,303.2 L234.1,301.25 Z M245.95,299.6 L242.65,309.5 L239.35,299.6 L236.2,299.6 L241.15,314 L244,314 L247.3,304.4 L250.6,314 L253.45,314 L258.4,299.6 L255.25,299.6 L251.95,309.5 L248.65,299.6 L245.95,299.6 Z M263.95,299.6 L260.95,299.6 L260.95,314 L263.95,314 L263.95,299.6 Z M264.25,295.1 C264.25,294.05 263.5,293.3 262.45,293.3 C261.4,293.3 260.65,294.05 260.65,295.1 C260.65,296.15 261.4,296.9 262.45,296.9 C263.5,296.9 264.25,296.15 264.25,295.1 Z M270.1,297.8 C270.1,299 269.5,299.6 268.6,299.6 L267.1,299.6 L267.1,302.3 L269.8,302.3 L269.8,309.8 C269.8,312.8 271.3,314.3 274,314.3 C275.2,314.3 276.1,314 276.1,314 L276.1,311.3 C276.1,311.3 275.35,311.6 274.6,311.6 C273.55,311.6 272.8,310.85 272.8,309.77 L272.8,302.3 L275.8,302.3 L275.8,299.6 L272.8,299.6 L272.8,294.8 L270.1,294.8 L270.1,297.8 Z M278.2,306.8 C278.2,310.85 281.65,314.3 285.7,314.3 C289.45,314.3 291.7,311.3 291.7,311.3 L289.75,309.35 C289.75,309.35 288.25,311.6 285.7,311.6 C283.3,311.6 281.2,309.5 281.2,306.8 C281.2,304.1 283.3,302 285.7,302 C288.25,302 289.6,304.1 289.6,304.1 L291.55,302.15 C291.55,302.15 289.45,299.3 285.7,299.3 C281.65,299.3 278.2,302.75 278.2,306.8 Z M298,293 L295,293 L295,314 L298,314 L298,306.2 C298,303.5 299.5,302 301.75,302 C303.7,302 305.2,303.5 305.2,305.6 L305.2,314 L308.2,314 L308.2,305.6 C308.2,301.7 305.8,299.3 302.35,299.3 C299.65,299.3 298,301.1 298,301.1 L298,293 Z M321.55,306.5 C321.55,299 325.75,293.6 325.75,293.6 L323.5,292.25 C323.5,292.25 318.85,297.8 318.85,306.5 C318.85,315.2 323.5,320.75 323.5,320.75 L325.75,319.4 C325.75,319.4 321.55,314 321.55,306.5 Z M340.15,314 L337.15,314 L337.15,312.5 C337.15,312.5 335.5,314.3 332.8,314.3 C329.8,314.3 327.7,312.2 327.7,310.1 C327.7,307.7 329.35,306.05 331.9,305.6 L337.15,304.7 C337.15,303.2 335.95,302 334.15,302 C331.6,302 330.4,303.95 330.4,303.95 L328.45,302 C328.45,302 330.4,299.3 334.15,299.3 C337.75,299.3 340.15,301.7 340.15,304.7 L340.15,314 Z M333.25,311.6 C335.65,311.6 337.15,310.1 337.15,307.4 L337.15,307.1 L332.5,307.85 C331.45,308.03 330.7,308.75 330.7,309.8 C330.7,310.7 331.6,311.6 333.25,311.6 Z M343.45,306.8 C343.45,310.85 346.9,314.3 350.95,314.3 C354.7,314.3 356.95,311.3 356.95,311.3 L355,309.35 C355,309.35 353.5,311.6 350.95,311.6 C348.55,311.6 346.45,309.5 346.45,306.8 C346.45,304.1 348.55,302 350.95,302 C353.5,302 354.85,304.1 354.85,304.1 L356.8,302.15 C356.8,302.15 354.7,299.3 350.95,299.3 C346.9,299.3 343.45,302.75 343.45,306.8 Z M361.75,297.8 C361.75,299 361.15,299.6 360.25,299.6 L358.75,299.6 L358.75,302.3 L361.45,302.3 L361.45,309.8 C361.45,312.8 362.95,314.3 365.65,314.3 C366.85,314.3 367.75,314 367.75,314 L367.75,311.3 C367.75,311.3 367,311.6 366.25,311.6 C365.2,311.6 364.45,310.85 364.45,309.77 L364.45,302.3 L367.45,302.3 L367.45,299.6 L364.45,299.6 L364.45,294.8 L361.75,294.8 L361.75,297.8 Z M374.5,299.6 L371.5,299.6 L371.5,314 L374.5,314 L374.5,299.6 Z M374.8,295.1 C374.8,294.05 374.05,293.3 373,293.3 C371.95,293.3 371.2,294.05 371.2,295.1 C371.2,296.15 371.95,296.9 373,296.9 C374.05,296.9 374.8,296.15 374.8,295.1 Z M389.95,306.8 C389.95,304.1 387.85,302 385.45,302 C383.05,302 380.95,304.1 380.95,306.8 C380.95,309.5 383.05,311.6 385.45,311.6 C387.85,311.6 389.95,309.5 389.95,306.8 Z M377.95,306.8 C377.95,302.75 381.4,299.3 385.45,299.3 C389.5,299.3 392.95,302.75 392.95,306.8 C392.95,310.85 389.5,314.3 385.45,314.3 C381.4,314.3 377.95,310.85 377.95,306.8 Z M399.25,299.6 L396.25,299.6 L396.25,314 L399.25,314 L399.25,306.2 C399.25,303.5 400.75,302 403,302 C404.95,302 406.45,303.5 406.45,305.6 L406.45,314 L409.45,314 L409.45,305.6 C409.45,301.7 407.05,299.3 403.6,299.3 C400.9,299.3 399.25,301.1 399.25,301.1 L399.25,299.6 Z M417.1,312.35 C417.1,311.3 416.2,310.4 415.15,310.4 C414.1,310.4 413.2,311.3 413.2,312.35 C413.2,313.4 414.1,314.3 415.15,314.3 C416.2,314.3 417.1,313.4 417.1,312.35 Z M422.35,297.8 C422.35,299 421.75,299.6 420.85,299.6 L419.35,299.6 L419.35,302.3 L422.05,302.3 L422.05,309.8 C422.05,312.8 423.55,314.3 426.25,314.3 C427.45,314.3 428.35,314 428.35,314 L428.35,311.3 C428.35,311.3 427.6,311.6 426.85,311.6 C425.8,311.6 425.05,310.85 425.05,309.77 L425.05,302.3 L428.05,302.3 L428.05,299.6 L425.05,299.6 L425.05,294.8 L422.35,294.8 L422.35,297.8 Z M435.4,315.5 C434.86,316.85 434.05,317.6 432.85,317.6 C432.1,317.6 431.35,317.3 431.35,317.3 L431.35,320 C431.35,320 432.1,320.3 433.45,320.3 C435.64,320.3 436.93,319.1 438.4,315.5 L444.85,299.6 L441.7,299.6 L437.5,310.1 L433.3,299.6 L430.15,299.6 L436,314 L435.4,315.5 Z M454.9,314.3 C452.05,314.3 450.25,312.35 450.25,312.35 L450.25,320.3 L447.25,320.3 L447.25,299.6 L450.25,299.6 L450.25,301.25 C450.25,301.25 452.05,299.3 454.9,299.3 C458.65,299.3 461.95,302.6 461.95,306.8 C461.95,311 458.65,314.3 454.9,314.3 Z M454.6,302 C452.35,302 450.25,304.1 450.25,306.8 C450.25,309.5 452.35,311.6 454.6,311.6 C456.85,311.6 458.95,309.5 458.95,306.8 C458.95,304.1 456.85,302 454.6,302 Z M478.6,307.85 L467.35,307.85 C467.65,309.8 469.45,311.6 471.85,311.6 C474.7,311.6 476.2,309.35 476.2,309.35 L478.15,311.3 C478.15,311.3 475.9,314.3 471.85,314.3 C467.8,314.3 464.35,310.85 464.35,306.65 C464.35,302.6 467.65,299.3 471.7,299.3 C475.75,299.3 478.75,302.3 478.75,306.35 C478.75,307.25 478.6,307.85 478.6,307.85 Z M471.7,301.85 C469.45,301.85 467.95,303.35 467.47,305.3 L475.81,305.3 C475.45,303.35 473.95,301.85 471.7,301.85 Z M485.2,306.5 C485.2,314 481,319.4 481,319.4 L483.25,320.75 C483.25,320.75 487.9,315.2 487.9,306.5 C487.9,297.8 483.25,292.25 483.25,292.25 L481,293.6 C481,293.6 485.2,299 485.2,306.5 Z M498.1,307.7 C499.3,307.7 499.9,308.3 499.9,309.5 L499.9,315.95 C499.9,318.65 501.55,320.3 504.55,320.3 L506.2,320.3 L506.2,317.9 L504.55,317.9 C503.35,317.9 502.6,317.15 502.6,315.95 L502.6,309.5 C502.6,306.8 500.95,306.5 500.98,306.5 C500.95,306.5 502.6,306.2 502.6,303.5 L502.6,297.05 C502.6,295.85 503.35,295.1 504.55,295.1 L506.2,295.1 L506.2,292.7 L504.55,292.7 C501.55,292.7 499.9,294.35 499.9,297.05 L499.9,303.5 C499.9,304.7 499.3,305.3 498.1,305.3 L498.1,307.7 Z M235.9,342.65 C235.9,346.7 239.5,350.3 243.85,350.3 C247.9,350.3 249.85,347.3 249.85,347.3 L247.45,344.75 C247.45,344.75 246.1,346.7 243.85,346.7 C241.75,346.7 239.95,344.9 239.95,342.65 C239.95,340.4 241.75,338.6 243.85,338.6 C246.1,338.6 247.3,340.55 247.3,340.55 L249.85,338 C249.85,338 247.9,335 243.85,335 C239.5,335 235.9,338.6 235.9,342.65 Z M260.65,350 L260.65,348.5 C260.65,348.5 259.15,350.3 256.6,350.3 C253.6,350.3 251.65,348.35 251.65,346.1 C251.65,343.7 253.3,342.02 256,341.54 L260.65,340.7 C260.65,339.5 259.75,338.6 258.1,338.6 C255.85,338.6 254.8,340.1 254.8,340.1 L252.55,337.85 C252.55,337.85 254.5,335 258.4,335 C262.15,335 264.7,337.55 264.7,340.85 L264.7,350 L260.65,350 Z M257.65,347 C259.45,347 260.65,345.8 260.65,343.7 L260.65,343.25 L257.35,343.85 C256.3,344.03 255.7,344.6 255.7,345.5 C255.7,346.4 256.3,347 257.65,347 Z M278.8,337.25 C278.8,337.25 277.15,335 273.7,335 C270.4,335 268,337.4 268,339.65 C268,344.51 274.75,343.4 274.75,345.65 C274.75,346.4 274.15,347 272.8,347 C270.85,347 269.65,345.35 269.65,345.35 L267.4,347.6 C267.4,347.6 269.2,350.3 273.4,350.3 C277.15,350.3 279.25,348.2 279.25,345.65 C279.25,340.7 272.5,341.75 272.5,339.65 C272.5,339.05 273.1,338.45 274.3,338.45 C275.8,338.45 276.7,339.65 276.7,339.65 L278.8,337.25 Z M296.2,344 L285.55,344 C285.85,345.5 287.2,346.85 289.45,346.85 C292,346.85 293.35,345.05 293.35,345.05 L295.45,347.75 C295.45,347.75 293.2,350.3 289.15,350.3 C284.8,350.3 281.35,346.85 281.35,342.65 C281.35,338.45 284.8,335 289,335 C293.2,335 296.35,338.15 296.35,342.35 C296.35,343.4 296.2,344 296.2,344 Z M289,338.45 C287.2,338.45 286,339.65 285.55,341.15 L292.3,341.15 C292,339.65 290.8,338.45 289,338.45 Z M313.75,335.75 L310.45,335.75 L310.45,333.95 C310.45,333.05 311.2,332.3 312.25,332.3 C313.15,332.3 313.75,332.6 313.75,332.6 L313.75,329.15 C313.75,329.15 312.55,328.7 311.05,328.7 C308.05,328.7 306.4,330.35 306.4,333.8 L306.4,335.75 L304.3,335.75 L304.3,339.35 L306.4,339.35 L306.4,350 L310.45,350 L310.45,339.35 L313.75,339.35 L313.75,335.75 Z M325.3,335.15 L324.7,335.15 C322,335.15 320.5,337.1 320.5,337.1 L320.5,335.3 L316.45,335.3 L316.45,350 L320.5,350 L320.5,342.95 C320.5,340.4 321.85,339.05 323.95,339.05 C324.85,339.05 325.3,339.2 325.3,339.2 L325.3,335.15 Z M330.85,342.65 C330.85,344.9 332.5,346.55 334.45,346.55 C336.4,346.55 338.05,344.9 338.05,342.65 C338.05,340.4 336.4,338.75 334.45,338.75 C332.5,338.75 330.85,340.4 330.85,342.65 Z M342.25,342.65 C342.25,346.7 338.65,350.3 334.45,350.3 C330.25,350.3 326.65,346.7 326.65,342.65 C326.65,338.6 330.25,335 334.45,335 C338.65,335 342.25,338.6 342.25,342.65 Z M363.55,350 L367.6,350 L367.6,341.45 C367.6,337.1 365.5,335 362.35,335 C359.05,335 357.4,337.55 357.4,337.55 C357.4,337.55 356.35,335 353.2,335 C350.65,335 349.3,337.1 349.3,337.1 L349.3,335.3 L345.25,335.3 L345.25,350 L349.3,350 L349.3,342.35 C349.3,340.1 350.5,338.9 352,338.9 C353.35,338.9 354.4,339.95 354.4,341.9 L354.4,350 L358.45,350 L358.45,342.35 C358.45,340.1 359.65,338.9 361.15,338.9 C362.5,338.9 363.55,339.95 363.55,341.9 L363.55,350 Z M370.3,329 L386.8,329 L386.8,333.05 L380.8,333.05 L380.8,350 L376.3,350 L376.3,333.05 L370.3,333.05 L370.3,329 Z M390.7,342.65 C390.7,344.9 392.35,346.55 394.3,346.55 C396.25,346.55 397.9,344.9 397.9,342.65 C397.9,340.4 396.25,338.75 394.3,338.75 C392.35,338.75 390.7,340.4 390.7,342.65 Z M402.1,342.65 C402.1,346.7 398.5,350.3 394.3,350.3 C390.1,350.3 386.5,346.7 386.5,342.65 C386.5,338.6 390.1,335 394.3,335 C398.5,335 402.1,338.6 402.1,342.65 Z M411.25,335 C414.1,335 415.6,337.1 415.6,337.1 L415.6,329 L419.65,329 L419.65,350 L415.6,350 L415.6,348.2 C415.6,348.2 414.1,350.3 411.25,350.3 C407.5,350.3 404.2,347 404.2,342.65 C404.2,338.3 407.5,335 411.25,335 Z M412,346.7 C413.95,346.7 415.6,345.05 415.6,342.65 C415.6,340.25 413.95,338.6 412,338.6 C410.05,338.6 408.4,340.25 408.4,342.65 C408.4,345.05 410.05,346.7 412,346.7 Z M427,342.65 C427,344.9 428.65,346.55 430.6,346.55 C432.55,346.55 434.2,344.9 434.2,342.65 C434.2,340.4 432.55,338.75 430.6,338.75 C428.65,338.75 427,340.4 427,342.65 Z M438.4,342.65 C438.4,346.7 434.8,350.3 430.6,350.3 C426.4,350.3 422.8,346.7 422.8,342.65 C422.8,338.6 426.4,335 430.6,335 C434.8,335 438.4,338.6 438.4,342.65 Z M451.6,337.25 C451.6,337.25 449.95,335 446.5,335 C443.2,335 440.8,337.4 440.8,339.65 C440.8,344.51 447.55,343.4 447.55,345.65 C447.55,346.4 446.95,347 445.6,347 C443.65,347 442.45,345.35 442.45,345.35 L440.2,347.6 C440.2,347.6 442,350.3 446.2,350.3 C449.95,350.3 452.05,348.2 452.05,345.65 C452.05,340.7 445.3,341.75 445.3,339.65 C445.3,339.05 445.9,338.45 447.1,338.45 C448.6,338.45 449.5,339.65 449.5,339.65 L451.6,337.25 Z M454.6,348.05 C454.6,349.25 455.65,350.3 457,350.3 C458.35,350.3 459.4,349.25 459.4,348.05 C459.4,346.85 458.35,345.8 457,345.8 C455.65,345.8 454.6,346.85 454.6,348.05 Z M474.25,341.15 L471.7,334.25 L469.15,341.15 L474.25,341.15 Z M475.75,345.05 L467.65,345.05 L465.85,350 L461.05,350 L469.3,329 L474.1,329 L482.35,350 L477.55,350 L475.75,345.05 Z M485.35,329 L493.15,329 C499.3,329 503.95,333.65 503.95,339.5 C503.95,345.35 499.3,350 493.15,350 L485.35,350 L485.35,329 Z M493.15,333.05 L489.85,333.05 L489.85,345.95 L493.15,345.95 C496.6,345.95 499.45,343.1 499.45,339.5 C499.45,335.9 496.75,333.05 493.15,333.05 Z M508.15,329 L515.95,329 C522.1,329 526.75,333.65 526.75,339.5 C526.75,345.35 522.1,350 515.95,350 L508.15,350 L508.15,329 Z M515.95,333.05 L512.65,333.05 L512.65,345.95 L515.95,345.95 C519.4,345.95 522.25,343.1 522.25,339.5 C522.25,335.9 519.55,333.05 515.95,333.05 Z M538.9,352.55 L527.95,352.55 L527.95,356.3 L538.9,356.3 L538.9,352.55 Z M539.2,329 L539.2,333.05 L545.2,333.05 L545.2,350 L549.7,350 L549.7,333.05 L555.7,333.05 L555.7,329 L539.2,329 Z M561.25,339.5 C561.25,343.4 564.25,346.4 568,346.4 C571.75,346.4 574.75,343.4 574.75,339.5 C574.75,335.6 571.75,332.6 568,332.6 C564.25,332.6 561.25,335.6 561.25,339.5 Z M556.6,339.5 C556.6,333.5 561.55,328.55 568,328.55 C574.45,328.55 579.4,333.5 579.4,339.5 C579.4,345.5 574.45,350.45 568,350.45 C561.55,350.45 556.6,345.5 556.6,339.5 Z M583.6,329 L591.4,329 C597.55,329 602.2,333.65 602.2,339.5 C602.2,345.35 597.55,350 591.4,350 L583.6,350 L583.6,329 Z M591.4,333.05 L588.1,333.05 L588.1,345.95 L591.4,345.95 C594.85,345.95 597.7,343.1 597.7,339.5 C597.7,335.9 595,333.05 591.4,333.05 Z M609.85,339.5 C609.85,343.4 612.85,346.4 616.6,346.4 C620.35,346.4 623.35,343.4 623.35,339.5 C623.35,335.6 620.35,332.6 616.6,332.6 C612.85,332.6 609.85,335.6 609.85,339.5 Z M605.2,339.5 C605.2,333.5 610.15,328.55 616.6,328.55 C623.05,328.55 628,333.5 628,339.5 C628,345.5 623.05,350.45 616.6,350.45 C610.15,350.45 605.2,345.5 605.2,339.5 Z M630.85,348.05 C630.85,349.25 631.9,350.3 633.25,350.3 C634.6,350.3 635.65,349.25 635.65,348.05 C635.65,346.85 634.6,345.8 633.25,345.8 C631.9,345.8 630.85,346.85 630.85,348.05 Z M630.85,337.25 C630.85,338.45 631.9,339.5 633.25,339.5 C634.6,339.5 635.65,338.45 635.65,337.25 C635.65,336.05 634.6,335 633.25,335 C631.9,335 630.85,336.05 630.85,337.25 Z M644.8,344.15 C646,344.15 646.75,344.9 646.75,346.1 L646.75,351.2 C646.75,354.5 648.55,356.3 651.7,356.3 L653.95,356.3 L653.95,352.7 L652.45,352.7 C651.4,352.7 650.65,351.95 650.65,350.84 L650.65,345.95 C650.65,342.95 648.7,342.5 648.7,342.5 C648.7,342.5 650.65,342.05 650.65,339.05 L650.65,334.19 C650.65,333.05 651.4,332.3 652.45,332.3 L653.95,332.3 L653.95,328.7 L651.7,328.7 C648.55,328.7 646.75,330.5 646.75,333.8 L646.75,338.9 C646.75,340.1 646,340.85 644.8,340.85 L644.8,344.15 Z M248.8,378.65 C248.8,382.7 252.4,386.3 256.75,386.3 C260.8,386.3 262.75,383.3 262.75,383.3 L260.35,380.75 C260.35,380.75 259,382.7 256.75,382.7 C254.65,382.7 252.85,380.9 252.85,378.65 C252.85,376.4 254.65,374.6 256.75,374.6 C259,374.6 260.2,376.55 260.2,376.55 L262.75,374 C262.75,374 260.8,371 256.75,371 C252.4,371 248.8,374.6 248.8,378.65 Z M268.75,378.65 C268.75,380.9 270.4,382.55 272.35,382.55 C274.3,382.55 275.95,380.9 275.95,378.65 C275.95,376.4 274.3,374.75 272.35,374.75 C270.4,374.75 268.75,376.4 268.75,378.65 Z M280.15,378.65 C280.15,382.7 276.55,386.3 272.35,386.3 C268.15,386.3 264.55,382.7 264.55,378.65 C264.55,374.6 268.15,371 272.35,371 C276.55,371 280.15,374.6 280.15,378.65 Z M287.2,371.3 L283.15,371.3 L283.15,386 L287.2,386 L287.2,378.35 C287.2,376.1 288.4,374.9 290.2,374.9 C291.85,374.9 293.05,376.1 293.05,377.9 L293.05,386 L297.1,386 L297.1,377.45 C297.1,373.4 294.7,371 291.4,371 C288.7,371 287.2,373.1 287.2,373.1 L287.2,371.3 Z M311.2,373.25 C311.2,373.25 309.55,371 306.1,371 C302.8,371 300.4,373.4 300.4,375.65 C300.4,380.51 307.15,379.4 307.15,381.65 C307.15,382.4 306.55,383 305.2,383 C303.25,383 302.05,381.35 302.05,381.35 L299.8,383.6 C299.8,383.6 301.6,386.3 305.8,386.3 C309.55,386.3 311.65,384.2 311.65,381.65 C311.65,376.7 304.9,377.75 304.9,375.65 C304.9,375.05 305.5,374.45 306.7,374.45 C308.2,374.45 309.1,375.65 309.1,375.65 L311.2,373.25 Z M316.45,369.65 C316.45,370.85 315.7,371.6 314.8,371.6 L313.45,371.6 L313.45,375.2 L316,375.2 L316,381.2 C316,384.65 317.65,386.3 320.65,386.3 C322.15,386.3 323.35,385.85 323.35,385.85 L323.35,382.4 C323.35,382.4 322.75,382.7 321.85,382.7 C320.8,382.7 320.05,381.95 320.05,381.05 L320.05,375.2 L323.05,375.2 L323.05,371.6 L320.05,371.6 L320.05,366.95 L316.45,366.95 L316.45,369.65 Z M334.75,369.65 C334.75,370.85 334,371.6 333.1,371.6 L331.75,371.6 L331.75,375.2 L334.3,375.2 L334.3,381.2 C334.3,384.65 335.95,386.3 338.95,386.3 C340.45,386.3 341.65,385.85 341.65,385.85 L341.65,382.4 C341.65,382.4 341.05,382.7 340.15,382.7 C339.1,382.7 338.35,381.95 338.35,381.05 L338.35,375.2 L341.35,375.2 L341.35,371.6 L338.35,371.6 L338.35,366.95 L334.75,366.95 L334.75,369.65 Z M347.8,378.65 C347.8,380.9 349.45,382.55 351.4,382.55 C353.35,382.55 355,380.9 355,378.65 C355,376.4 353.35,374.75 351.4,374.75 C349.45,374.75 347.8,376.4 347.8,378.65 Z M359.2,378.65 C359.2,382.7 355.6,386.3 351.4,386.3 C347.2,386.3 343.6,382.7 343.6,378.65 C343.6,374.6 347.2,371 351.4,371 C355.6,371 359.2,374.6 359.2,378.65 Z M368.35,371 C371.2,371 372.7,373.1 372.7,373.1 L372.7,365 L376.75,365 L376.75,386 L372.7,386 L372.7,384.2 C372.7,384.2 371.2,386.3 368.35,386.3 C364.6,386.3 361.3,383 361.3,378.65 C361.3,374.3 364.6,371 368.35,371 Z M369.1,382.7 C371.05,382.7 372.7,381.05 372.7,378.65 C372.7,376.25 371.05,374.6 369.1,374.6 C367.15,374.6 365.5,376.25 365.5,378.65 C365.5,381.05 367.15,382.7 369.1,382.7 Z M384.1,378.65 C384.1,380.9 385.75,382.55 387.7,382.55 C389.65,382.55 391.3,380.9 391.3,378.65 C391.3,376.4 389.65,374.75 387.7,374.75 C385.75,374.75 384.1,376.4 384.1,378.65 Z M395.5,378.65 C395.5,382.7 391.9,386.3 387.7,386.3 C383.5,386.3 379.9,382.7 379.9,378.65 C379.9,374.6 383.5,371 387.7,371 C391.9,371 395.5,374.6 395.5,378.65 Z M416.5,378.35 L404.05,378.35 L404.05,381.8 L416.5,381.8 L416.5,378.35 Z M416.5,372.5 L404.05,372.5 L404.05,375.95 L416.5,375.95 L416.5,372.5 Z M427.9,376.1 C427.9,376.1 427.9,376.099999 427.900001,376.099998 L427.9,376.1 Z M427.9,376.1 L425.65,373.85 C425.65,373.85 427.6,371 431.5,371 C435.25,371 437.8,373.55 437.8,376.85 L437.8,386 L433.75,386 L433.75,384.5 C433.75,384.5 432.25,386.3 429.7,386.3 C426.7,386.3 424.75,384.35 424.75,382.1 C424.75,379.7 426.4,378.02 429.1,377.54 L433.75,376.7 C433.75,375.5 432.85,374.6 431.2,374.6 C428.951543,374.6 427.901441,376.097943 427.900001,376.099998 L427.9,376.1 Z M430.75,383 C432.55,383 433.75,381.8 433.75,379.7 L433.75,379.25 L430.45,379.85 C429.4,380.03 428.8,380.6 428.8,381.5 C428.8,382.4 429.4,383 430.75,383 Z M440.8,378.65 C440.8,382.7 444.4,386.3 448.75,386.3 C452.8,386.3 454.75,383.3 454.75,383.3 L452.35,380.75 C452.35,380.75 451,382.7 448.75,382.7 C446.65,382.7 444.85,380.9 444.85,378.65 C444.85,376.4 446.65,374.6 448.75,374.6 C451,374.6 452.2,376.55 452.2,376.55 L454.75,374 C454.75,374 452.8,371 448.75,371 C444.4,371 440.8,374.6 440.8,378.65 Z M459.25,369.65 C459.25,370.85 458.5,371.6 457.6,371.6 L456.25,371.6 L456.25,375.2 L458.8,375.2 L458.8,381.2 C458.8,384.65 460.45,386.3 463.45,386.3 C464.95,386.3 466.15,385.85 466.15,385.85 L466.15,382.4 C466.15,382.4 465.55,382.7 464.65,382.7 C463.6,382.7 462.85,381.95 462.85,381.05 L462.85,375.2 L465.85,375.2 L465.85,371.6 L462.85,371.6 L462.85,366.95 L459.25,366.95 L459.25,369.65 Z M473.8,371.3 L469.75,371.3 L469.75,386 L473.8,386 L473.8,371.3 Z M474.1,367.1 C474.1,365.75 473.2,364.85 471.7,364.85 C470.35,364.85 469.45,365.75 469.45,367.1 C469.45,368.45 470.35,369.35 471.7,369.35 C473.2,369.35 474.1,368.45 474.1,367.1 Z M481.15,378.65 C481.15,380.9 482.8,382.55 484.75,382.55 C486.7,382.55 488.35,380.9 488.35,378.65 C488.35,376.4 486.7,374.75 484.75,374.75 C482.8,374.75 481.15,376.4 481.15,378.65 Z M492.55,378.65 C492.55,382.7 488.95,386.3 484.75,386.3 C480.55,386.3 476.95,382.7 476.95,378.65 C476.95,374.6 480.55,371 484.75,371 C488.95,371 492.55,374.6 492.55,378.65 Z M499.6,371.3 L495.55,371.3 L495.55,386 L499.6,386 L499.6,378.35 C499.6,376.1 500.8,374.9 502.6,374.9 C504.25,374.9 505.45,376.1 505.45,377.9 L505.45,386 L509.5,386 L509.5,377.45 C509.5,373.4 507.1,371 503.8,371 C501.1,371 499.6,373.1 499.6,373.1 L499.6,371.3 Z M512.95,384.05 C512.95,385.25 514,386.3 515.35,386.3 C516.7,386.3 517.75,385.25 517.75,384.05 C517.75,382.85 516.7,381.8 515.35,381.8 C514,381.8 512.95,382.85 512.95,384.05 Z M529.3,386.3 C526.45,386.3 524.95,384.2 524.95,384.2 L524.95,392.3 L520.9,392.3 L520.9,371.3 L524.95,371.3 L524.95,373.1 C524.95,373.1 526.45,371 529.3,371 C533.05,371 536.35,374.3 536.35,378.65 C536.35,383 533.05,386.3 529.3,386.3 Z M528.55,374.6 C526.6,374.6 524.95,376.25 524.95,378.65 C524.95,381.05 526.6,382.7 528.55,382.7 C530.5,382.7 532.15,381.05 532.15,378.65 C532.15,376.25 530.5,374.6 528.55,374.6 Z M547.45,386 L547.45,384.5 C547.45,384.5 545.95,386.3 543.4,386.3 C540.4,386.3 538.45,384.35 538.45,382.1 C538.45,379.7 540.1,378.02 542.8,377.54 L547.45,376.7 C547.45,375.5 546.55,374.6 544.9,374.6 C542.65,374.6 541.6,376.1 541.6,376.1 L539.35,373.85 C539.35,373.85 541.3,371 545.2,371 C548.95,371 551.5,373.55 551.5,376.85 L551.5,386 L547.45,386 Z M544.45,383 C546.25,383 547.45,381.8 547.45,379.7 L547.45,379.25 L544.15,379.85 C543.1,380.03 542.5,380.6 542.5,381.5 C542.5,382.4 543.1,383 544.45,383 Z M558.85,386.9 C558.46,387.8 557.65,388.55 556.3,388.55 C555.4,388.55 554.8,388.25 554.8,388.25 L554.8,391.85 C554.8,391.85 555.85,392.3 557.35,392.3 C559.9,392.3 561.7,390.5 563.05,386.9 L568.9,371.3 L564.7,371.3 L561.25,381.05 L557.8,371.3 L553.6,371.3 L559.3,385.85 L558.85,386.9 Z M575.2,365 L571.15,365 L571.15,386 L575.2,386 L575.2,365 Z M582.55,378.65 C582.55,380.9 584.2,382.55 586.15,382.55 C588.1,382.55 589.75,380.9 589.75,378.65 C589.75,376.4 588.1,374.75 586.15,374.75 C584.2,374.75 582.55,376.4 582.55,378.65 Z M593.95,378.65 C593.95,382.7 590.35,386.3 586.15,386.3 C581.95,386.3 578.35,382.7 578.35,378.65 C578.35,374.6 581.95,371 586.15,371 C590.35,371 593.95,374.6 593.95,378.65 Z M605.05,386 L605.05,384.5 C605.05,384.5 603.55,386.3 601,386.3 C598,386.3 596.05,384.35 596.05,382.1 C596.05,379.7 597.7,378.02 600.4,377.54 L605.05,376.7 C605.05,375.5 604.15,374.6 602.5,374.6 C600.25,374.6 599.2,376.1 599.2,376.1 L596.95,373.85 C596.95,373.85 598.9,371 602.8,371 C606.55,371 609.1,373.55 609.1,376.85 L609.1,386 L605.05,386 Z M602.05,383 C603.85,383 605.05,381.8 605.05,379.7 L605.05,379.25 L601.75,379.85 C600.7,380.03 600.1,380.6 600.1,381.5 C600.1,382.4 600.7,383 602.05,383 Z M619.15,371 C622,371 623.5,373.1 623.5,373.1 L623.5,365 L627.55,365 L627.55,386 L623.5,386 L623.5,384.2 C623.5,384.2 622,386.3 619.15,386.3 C615.4,386.3 612.1,383 612.1,378.65 C612.1,374.3 615.4,371 619.15,371 Z M619.9,382.7 C621.85,382.7 623.5,381.05 623.5,378.65 C623.5,376.25 621.85,374.6 619.9,374.6 C617.95,374.6 616.3,376.25 616.3,378.65 C616.3,381.05 617.95,382.7 619.9,382.7 Z M631.75,373.25 C631.75,374.45 632.8,375.5 634.15,375.5 C635.5,375.5 636.55,374.45 636.55,373.25 C636.55,372.05 635.5,371 634.15,371 C632.8,371 631.75,372.05 631.75,373.25 Z M632.95,381.65 L629.65,388.55 L632.35,389.9 L636.25,383.6 L632.95,381.65 Z M248.8,414.65 C248.8,418.7 252.4,422.3 256.75,422.3 C260.8,422.3 262.75,419.3 262.75,419.3 L260.35,416.75 C260.35,416.75 259,418.7 256.75,418.7 C254.65,418.7 252.85,416.9 252.85,414.65 C252.85,412.4 254.65,410.6 256.75,410.6 C259,410.6 260.2,412.55 260.2,412.55 L262.75,410 C262.75,410 260.8,407 256.75,407 C252.4,407 248.8,410.6 248.8,414.65 Z M268.75,414.65 C268.75,416.9 270.4,418.55 272.35,418.55 C274.3,418.55 275.95,416.9 275.95,414.65 C275.95,412.4 274.3,410.75 272.35,410.75 C270.4,410.75 268.75,412.4 268.75,414.65 Z M280.15,414.65 C280.15,418.7 276.55,422.3 272.35,422.3 C268.15,422.3 264.55,418.7 264.55,414.65 C264.55,410.6 268.15,407 272.35,407 C276.55,407 280.15,410.6 280.15,414.65 Z M287.2,407.3 L283.15,407.3 L283.15,422 L287.2,422 L287.2,414.35 C287.2,412.1 288.4,410.9 290.2,410.9 C291.85,410.9 293.05,412.1 293.05,413.9 L293.05,422 L297.1,422 L297.1,413.45 C297.1,409.4 294.7,407 291.4,407 C288.7,407 287.2,409.1 287.2,409.1 L287.2,407.3 Z M311.2,409.25 C311.2,409.25 309.55,407 306.1,407 C302.8,407 300.4,409.4 300.4,411.65 C300.4,416.51 307.15,415.4 307.15,417.65 C307.15,418.4 306.55,419 305.2,419 C303.25,419 302.05,417.35 302.05,417.35 L299.8,419.6 C299.8,419.6 301.6,422.3 305.8,422.3 C309.55,422.3 311.65,420.2 311.65,417.65 C311.65,412.7 304.9,413.75 304.9,411.65 C304.9,411.05 305.5,410.45 306.7,410.45 C308.2,410.45 309.1,411.65 309.1,411.65 L311.2,409.25 Z M316.45,405.65 C316.45,406.85 315.7,407.6 314.8,407.6 L313.45,407.6 L313.45,411.2 L316,411.2 L316,417.2 C316,420.65 317.65,422.3 320.65,422.3 C322.15,422.3 323.35,421.85 323.35,421.85 L323.35,418.4 C323.35,418.4 322.75,418.7 321.85,418.7 C320.8,418.7 320.05,417.95 320.05,417.05 L320.05,411.2 L323.05,411.2 L323.05,407.6 L320.05,407.6 L320.05,402.95 L316.45,402.95 L316.45,405.65 Z M334.75,405.65 C334.75,406.85 334,407.6 333.1,407.6 L331.75,407.6 L331.75,411.2 L334.3,411.2 L334.3,417.2 C334.3,420.65 335.95,422.3 338.95,422.3 C340.45,422.3 341.65,421.85 341.65,421.85 L341.65,418.4 C341.65,418.4 341.05,418.7 340.15,418.7 C339.1,418.7 338.35,417.95 338.35,417.05 L338.35,411.2 L341.35,411.2 L341.35,407.6 L338.35,407.6 L338.35,402.95 L334.75,402.95 L334.75,405.65 Z M347.8,414.65 C347.8,416.9 349.45,418.55 351.4,418.55 C353.35,418.55 355,416.9 355,414.65 C355,412.4 353.35,410.75 351.4,410.75 C349.45,410.75 347.8,412.4 347.8,414.65 Z M359.2,414.65 C359.2,418.7 355.6,422.3 351.4,422.3 C347.2,422.3 343.6,418.7 343.6,414.65 C343.6,410.6 347.2,407 351.4,407 C355.6,407 359.2,410.6 359.2,414.65 Z M368.35,407 C371.2,407 372.7,409.1 372.7,409.1 L372.7,401 L376.75,401 L376.75,422 L372.7,422 L372.7,420.2 C372.7,420.2 371.2,422.3 368.35,422.3 C364.6,422.3 361.3,419 361.3,414.65 C361.3,410.3 364.6,407 368.35,407 Z M369.1,418.7 C371.05,418.7 372.7,417.05 372.7,414.65 C372.7,412.25 371.05,410.6 369.1,410.6 C367.15,410.6 365.5,412.25 365.5,414.65 C365.5,417.05 367.15,418.7 369.1,418.7 Z M384.1,414.65 C384.1,416.9 385.75,418.55 387.7,418.55 C389.65,418.55 391.3,416.9 391.3,414.65 C391.3,412.4 389.65,410.75 387.7,410.75 C385.75,410.75 384.1,412.4 384.1,414.65 Z M395.5,414.65 C395.5,418.7 391.9,422.3 387.7,422.3 C383.5,422.3 379.9,418.7 379.9,414.65 C379.9,410.6 383.5,407 387.7,407 C391.9,407 395.5,410.6 395.5,414.65 Z M408.7,409.25 C408.7,409.25 407.05,407 403.6,407 C400.3,407 397.9,409.4 397.9,411.65 C397.9,416.51 404.65,415.4 404.65,417.65 C404.65,418.4 404.05,419 402.7,419 C400.75,419 399.55,417.35 399.55,417.35 L397.3,419.6 C397.3,419.6 399.1,422.3 403.3,422.3 C407.05,422.3 409.15,420.2 409.15,417.65 C409.15,412.7 402.4,413.75 402.4,411.65 C402.4,411.05 403,410.45 404.2,410.45 C405.7,410.45 406.6,411.65 406.6,411.65 L408.7,409.25 Z M430.15,414.35 L417.7,414.35 L417.7,417.8 L430.15,417.8 L430.15,414.35 Z M430.15,408.5 L417.7,408.5 L417.7,411.95 L430.15,411.95 L430.15,408.5 Z M443.8,404.15 L447.4,404.15 L447.4,400.7 L439.9,400.7 L439.9,428.3 L447.4,428.3 L447.4,424.85 L443.8,424.85 L443.8,404.15 Z M449.65,420.05 C449.65,421.25 450.7,422.3 452.05,422.3 C453.4,422.3 454.45,421.25 454.45,420.05 C454.45,418.85 453.4,417.8 452.05,417.8 C450.7,417.8 449.65,418.85 449.65,420.05 Z M457.75,420.05 C457.75,421.25 458.8,422.3 460.15,422.3 C461.5,422.3 462.55,421.25 462.55,420.05 C462.55,418.85 461.5,417.8 460.15,417.8 C458.8,417.8 457.75,418.85 457.75,420.05 Z M465.85,420.05 C465.85,421.25 466.9,422.3 468.25,422.3 C469.6,422.3 470.65,421.25 470.65,420.05 C470.65,418.85 469.6,417.8 468.25,417.8 C466.9,417.8 465.85,418.85 465.85,420.05 Z M484,409.25 C484,409.25 482.35,407 478.9,407 C475.6,407 473.2,409.4 473.2,411.65 C473.2,416.51 479.95,415.4 479.95,417.65 C479.95,418.4 479.35,419 478,419 C476.05,419 474.85,417.35 474.85,417.35 L472.6,419.6 C472.6,419.6 474.4,422.3 478.6,422.3 C482.35,422.3 484.45,420.2 484.45,417.65 C484.45,412.7 477.7,413.75 477.7,411.65 C477.7,411.05 478.3,410.45 479.5,410.45 C481,410.45 481.9,411.65 481.9,411.65 L484,409.25 Z M489.25,405.65 C489.25,406.85 488.5,407.6 487.6,407.6 L486.25,407.6 L486.25,411.2 L488.8,411.2 L488.8,417.2 C488.8,420.65 490.45,422.3 493.45,422.3 C494.95,422.3 496.15,421.85 496.15,421.85 L496.15,418.4 C496.15,418.4 495.55,418.7 494.65,418.7 C493.6,418.7 492.85,417.95 492.85,417.05 L492.85,411.2 L495.85,411.2 L495.85,407.6 L492.85,407.6 L492.85,402.95 L489.25,402.95 L489.25,405.65 Z M507.1,422 L507.1,420.5 C507.1,420.5 505.6,422.3 503.05,422.3 C500.05,422.3 498.1,420.35 498.1,418.1 C498.1,415.7 499.75,414.02 502.45,413.54 L507.1,412.7 C507.1,411.5 506.2,410.6 504.55,410.6 C502.3,410.6 501.25,412.1 501.25,412.1 L499,409.85 C499,409.85 500.95,407 504.85,407 C508.6,407 511.15,409.55 511.15,412.85 L511.15,422 L507.1,422 Z M504.1,419 C505.9,419 507.1,417.8 507.1,415.7 L507.1,415.25 L503.8,415.85 C502.75,416.03 502.15,416.6 502.15,417.5 C502.15,418.4 502.75,419 504.1,419 Z M516.85,405.65 C516.85,406.85 516.1,407.6 515.2,407.6 L513.85,407.6 L513.85,411.2 L516.4,411.2 L516.4,417.2 C516.4,420.65 518.05,422.3 521.05,422.3 C522.55,422.3 523.75,421.85 523.75,421.85 L523.75,418.4 C523.75,418.4 523.15,418.7 522.25,418.7 C521.2,418.7 520.45,417.95 520.45,417.05 L520.45,411.2 L523.45,411.2 L523.45,407.6 L520.45,407.6 L520.45,402.95 L516.85,402.95 L516.85,405.65 Z M540.55,416 L529.9,416 C530.2,417.5 531.55,418.85 533.8,418.85 C536.35,418.85 537.7,417.05 537.7,417.05 L539.8,419.75 C539.8,419.75 537.55,422.3 533.5,422.3 C529.15,422.3 525.7,418.85 525.7,414.65 C525.7,410.45 529.15,407 533.35,407 C537.55,407 540.7,410.15 540.7,414.35 C540.7,415.4 540.55,416 540.55,416 Z M533.35,410.45 C531.55,410.45 530.35,411.65 529.9,413.15 L536.65,413.15 C536.35,411.65 535.15,410.45 533.35,410.45 Z M543.25,420.05 C543.25,421.25 544.3,422.3 545.65,422.3 C547,422.3 548.05,421.25 548.05,420.05 C548.05,418.85 547,417.8 545.65,417.8 C544.3,417.8 543.25,418.85 543.25,420.05 Z M553,405.65 C553,406.85 552.25,407.6 551.35,407.6 L550,407.6 L550,411.2 L552.55,411.2 L552.55,417.2 C552.55,420.65 554.2,422.3 557.2,422.3 C558.7,422.3 559.9,421.85 559.9,421.85 L559.9,418.4 C559.9,418.4 559.3,418.7 558.4,418.7 C557.35,418.7 556.6,417.95 556.6,417.05 L556.6,411.2 L559.6,411.2 L559.6,407.6 L556.6,407.6 L556.6,402.95 L553,402.95 L553,405.65 Z M566.05,414.65 C566.05,416.9 567.7,418.55 569.65,418.55 C571.6,418.55 573.25,416.9 573.25,414.65 C573.25,412.4 571.6,410.75 569.65,410.75 C567.7,410.75 566.05,412.4 566.05,414.65 Z M577.45,414.65 C577.45,418.7 573.85,422.3 569.65,422.3 C565.45,422.3 561.85,418.7 561.85,414.65 C561.85,410.6 565.45,407 569.65,407 C573.85,407 577.45,410.6 577.45,414.65 Z M586.6,407 C589.45,407 590.95,409.1 590.95,409.1 L590.95,401 L595,401 L595,422 L590.95,422 L590.95,420.2 C590.95,420.2 589.45,422.3 586.6,422.3 C582.85,422.3 579.55,419 579.55,414.65 C579.55,410.3 582.85,407 586.6,407 Z M587.35,418.7 C589.3,418.7 590.95,417.05 590.95,414.65 C590.95,412.25 589.3,410.6 587.35,410.6 C585.4,410.6 583.75,412.25 583.75,414.65 C583.75,417.05 585.4,418.7 587.35,418.7 Z M602.35,414.65 C602.35,416.9 604,418.55 605.95,418.55 C607.9,418.55 609.55,416.9 609.55,414.65 C609.55,412.4 607.9,410.75 605.95,410.75 C604,410.75 602.35,412.4 602.35,414.65 Z M613.75,414.65 C613.75,418.7 610.15,422.3 605.95,422.3 C601.75,422.3 598.15,418.7 598.15,414.65 C598.15,410.6 601.75,407 605.95,407 C610.15,407 613.75,410.6 613.75,414.65 Z M626.95,409.25 C626.95,409.25 625.3,407 621.85,407 C618.55,407 616.15,409.4 616.15,411.65 C616.15,416.51 622.9,415.4 622.9,417.65 C622.9,418.4 622.3,419 620.95,419 C619,419 617.8,417.35 617.8,417.35 L615.55,419.6 C615.55,419.6 617.35,422.3 621.55,422.3 C625.3,422.3 627.4,420.2 627.4,417.65 C627.4,412.7 620.65,413.75 620.65,411.65 C620.65,411.05 621.25,410.45 622.45,410.45 C623.95,410.45 624.85,411.65 624.85,411.65 L626.95,409.25 Z M631.75,417.65 L628.45,424.55 L631.15,425.9 L635.05,419.6 L631.75,417.65 Z M646.15,405.65 C646.15,406.85 645.4,407.6 644.5,407.6 L643.15,407.6 L643.15,411.2 L645.7,411.2 L645.7,417.2 C645.7,420.65 647.35,422.3 650.35,422.3 C651.85,422.3 653.05,421.85 653.05,421.85 L653.05,418.4 C653.05,418.4 652.45,418.7 651.55,418.7 C650.5,418.7 649.75,417.95 649.75,417.05 L649.75,411.2 L652.75,411.2 L652.75,407.6 L649.75,407.6 L649.75,402.95 L646.15,402.95 L646.15,405.65 Z M659.2,414.65 C659.2,416.9 660.85,418.55 662.8,418.55 C664.75,418.55 666.4,416.9 666.4,414.65 C666.4,412.4 664.75,410.75 662.8,410.75 C660.85,410.75 659.2,412.4 659.2,414.65 Z M670.6,414.65 C670.6,418.7 667,422.3 662.8,422.3 C658.6,422.3 655,418.7 655,414.65 C655,410.6 658.6,407 662.8,407 C667,407 670.6,410.6 670.6,414.65 Z M679.75,407 C682.6,407 684.1,409.1 684.1,409.1 L684.1,401 L688.15,401 L688.15,422 L684.1,422 L684.1,420.2 C684.1,420.2 682.6,422.3 679.75,422.3 C676,422.3 672.7,419 672.7,414.65 C672.7,410.3 676,407 679.75,407 Z M680.5,418.7 C682.45,418.7 684.1,417.05 684.1,414.65 C684.1,412.25 682.45,410.6 680.5,410.6 C678.55,410.6 676.9,412.25 676.9,414.65 C676.9,417.05 678.55,418.7 680.5,418.7 Z M695.5,414.65 C695.5,416.9 697.15,418.55 699.1,418.55 C701.05,418.55 702.7,416.9 702.7,414.65 C702.7,412.4 701.05,410.75 699.1,410.75 C697.15,410.75 695.5,412.4 695.5,414.65 Z M706.9,414.65 C706.9,418.7 703.3,422.3 699.1,422.3 C694.9,422.3 691.3,418.7 691.3,414.65 C691.3,410.6 694.9,407 699.1,407 C703.3,407 706.9,410.6 706.9,414.65 Z M712.6,424.85 L709,424.85 L709,428.3 L716.5,428.3 L716.5,400.7 L709,400.7 L709,404.15 L712.6,404.15 L712.6,424.85 Z M720.85,409.25 C720.85,410.45 721.9,411.5 723.25,411.5 C724.6,411.5 725.65,410.45 725.65,409.25 C725.65,408.05 724.6,407 723.25,407 C721.9,407 720.85,408.05 720.85,409.25 Z M722.05,417.65 L718.75,424.55 L721.45,425.9 L725.35,419.6 L722.05,417.65 Z M258.55,443.15 L257.95,443.15 C255.25,443.15 253.75,445.1 253.75,445.1 L253.75,443.3 L249.7,443.3 L249.7,458 L253.75,458 L253.75,450.95 C253.75,448.4 255.1,447.05 257.2,447.05 C258.1,447.05 258.55,447.2 258.55,447.2 L258.55,443.15 Z M274.75,452 L264.1,452 C264.4,453.5 265.75,454.85 268,454.85 C270.55,454.85 271.9,453.05 271.9,453.05 L274,455.75 C274,455.75 271.75,458.3 267.7,458.3 C263.35,458.3 259.9,454.85 259.9,450.65 C259.9,446.45 263.35,443 267.55,443 C271.75,443 274.9,446.15 274.9,450.35 C274.9,451.4 274.75,452 274.75,452 Z M267.55,446.45 C265.75,446.45 264.55,447.65 264.1,449.15 L270.85,449.15 C270.55,447.65 269.35,446.45 267.55,446.45 Z M279.7,441.65 C279.7,442.85 278.95,443.6 278.05,443.6 L276.7,443.6 L276.7,447.2 L279.25,447.2 L279.25,453.2 C279.25,456.65 280.9,458.3 283.9,458.3 C285.4,458.3 286.6,457.85 286.6,457.85 L286.6,454.4 C286.6,454.4 286,454.7 285.1,454.7 C284.05,454.7 283.3,453.95 283.3,453.05 L283.3,447.2 L286.3,447.2 L286.3,443.6 L283.3,443.6 L283.3,438.95 L279.7,438.95 L279.7,441.65 Z M299.95,458 L304,458 L304,443.3 L299.95,443.3 L299.95,451.1 C299.95,453.35 298.75,454.55 296.95,454.55 C295.3,454.55 294.1,453.35 294.1,451.7 L294.1,443.3 L290.05,443.3 L290.05,452.09 C290.05,455.9 292.45,458.3 295.75,458.3 C298.45,458.3 299.95,456.5 299.95,456.5 L299.95,458 Z M316.9,443.15 L316.3,443.15 C313.6,443.15 312.1,445.1 312.1,445.1 L312.1,443.3 L308.05,443.3 L308.05,458 L312.1,458 L312.1,450.95 C312.1,448.4 313.45,447.05 315.55,447.05 C316.45,447.05 316.9,447.2 316.9,447.2 L316.9,443.15 Z M323.2,443.3 L319.15,443.3 L319.15,458 L323.2,458 L323.2,450.35 C323.2,448.1 324.4,446.9 326.2,446.9 C327.85,446.9 329.05,448.1 329.05,449.9 L329.05,458 L333.1,458 L333.1,449.45 C333.1,445.4 330.7,443 327.4,443 C324.7,443 323.2,445.1 323.2,445.1 L323.2,443.3 Z M343,452.15 C344.2,452.15 344.95,452.9 344.95,454.1 L344.95,459.2 C344.95,462.5 346.75,464.3 349.9,464.3 L352.15,464.3 L352.15,460.7 L350.65,460.7 C349.6,460.7 348.85,459.95 348.85,458.84 L348.85,453.95 C348.85,450.95 346.9,450.5 346.9,450.5 C346.9,450.5 348.85,450.05 348.85,447.05 L348.85,442.19 C348.85,441.05 349.6,440.3 350.65,440.3 L352.15,440.3 L352.15,436.7 L349.9,436.7 C346.75,436.7 344.95,438.5 344.95,441.8 L344.95,446.9 C344.95,448.1 344.2,448.85 343,448.85 L343,452.15 Z M360.7,456.05 C360.7,457.25 361.75,458.3 363.1,458.3 C364.45,458.3 365.5,457.25 365.5,456.05 C365.5,454.85 364.45,453.8 363.1,453.8 C361.75,453.8 360.7,454.85 360.7,456.05 Z M368.8,456.05 C368.8,457.25 369.85,458.3 371.2,458.3 C372.55,458.3 373.6,457.25 373.6,456.05 C373.6,454.85 372.55,453.8 371.2,453.8 C369.85,453.8 368.8,454.85 368.8,456.05 Z M376.9,456.05 C376.9,457.25 377.95,458.3 379.3,458.3 C380.65,458.3 381.7,457.25 381.7,456.05 C381.7,454.85 380.65,453.8 379.3,453.8 C377.95,453.8 376.9,454.85 376.9,456.05 Z M395.05,445.25 C395.05,445.25 393.4,443 389.95,443 C386.65,443 384.25,445.4 384.25,447.65 C384.25,452.51 391,451.4 391,453.65 C391,454.4 390.4,455 389.05,455 C387.1,455 385.9,453.35 385.9,453.35 L383.65,455.6 C383.65,455.6 385.45,458.3 389.65,458.3 C393.4,458.3 395.5,456.2 395.5,453.65 C395.5,448.7 388.75,449.75 388.75,447.65 C388.75,447.05 389.35,446.45 390.55,446.45 C392.05,446.45 392.95,447.65 392.95,447.65 L395.05,445.25 Z M400.3,441.65 C400.3,442.85 399.55,443.6 398.65,443.6 L397.3,443.6 L397.3,447.2 L399.85,447.2 L399.85,453.2 C399.85,456.65 401.5,458.3 404.5,458.3 C406,458.3 407.2,457.85 407.2,457.85 L407.2,454.4 C407.2,454.4 406.6,454.7 405.7,454.7 C404.65,454.7 403.9,453.95 403.9,453.05 L403.9,447.2 L406.9,447.2 L406.9,443.6 L403.9,443.6 L403.9,438.95 L400.3,438.95 L400.3,441.65 Z M418.15,458 L418.15,456.5 C418.15,456.5 416.65,458.3 414.1,458.3 C411.1,458.3 409.15,456.35 409.15,454.1 C409.15,451.7 410.8,450.02 413.5,449.54 L418.15,448.7 C418.15,447.5 417.25,446.6 415.6,446.6 C413.35,446.6 412.3,448.1 412.3,448.1 L410.05,445.85 C410.05,445.85 412,443 415.9,443 C419.65,443 422.2,445.55 422.2,448.85 L422.2,458 L418.15,458 Z M415.15,455 C416.95,455 418.15,453.8 418.15,451.7 L418.15,451.25 L414.85,451.85 C413.8,452.03 413.2,452.6 413.2,453.5 C413.2,454.4 413.8,455 415.15,455 Z M427.9,441.65 C427.9,442.85 427.15,443.6 426.25,443.6 L424.9,443.6 L424.9,447.2 L427.45,447.2 L427.45,453.2 C427.45,456.65 429.1,458.3 432.1,458.3 C433.6,458.3 434.8,457.85 434.8,457.85 L434.8,454.4 C434.8,454.4 434.2,454.7 433.3,454.7 C432.25,454.7 431.5,453.95 431.5,453.05 L431.5,447.2 L434.5,447.2 L434.5,443.6 L431.5,443.6 L431.5,438.95 L427.9,438.95 L427.9,441.65 Z M451.6,452 L440.95,452 C441.25,453.5 442.6,454.85 444.85,454.85 C447.4,454.85 448.75,453.05 448.75,453.05 L450.85,455.75 C450.85,455.75 448.6,458.3 444.55,458.3 C440.2,458.3 436.75,454.85 436.75,450.65 C436.75,446.45 440.2,443 444.4,443 C448.6,443 451.75,446.15 451.75,450.35 C451.75,451.4 451.6,452 451.6,452 Z M444.4,446.45 C442.6,446.45 441.4,447.65 440.95,449.15 L447.7,449.15 C447.4,447.65 446.2,446.45 444.4,446.45 Z M456.1,453.65 L452.8,460.55 L455.5,461.9 L459.4,455.6 L456.1,453.65 Z M470.5,441.65 C470.5,442.85 469.75,443.6 468.85,443.6 L467.5,443.6 L467.5,447.2 L470.05,447.2 L470.05,453.2 C470.05,456.65 471.7,458.3 474.7,458.3 C476.2,458.3 477.4,457.85 477.4,457.85 L477.4,454.4 C477.4,454.4 476.8,454.7 475.9,454.7 C474.85,454.7 474.1,453.95 474.1,453.05 L474.1,447.2 L477.1,447.2 L477.1,443.6 L474.1,443.6 L474.1,438.95 L470.5,438.95 L470.5,441.65 Z M483.55,450.65 C483.55,452.9 485.2,454.55 487.15,454.55 C489.1,454.55 490.75,452.9 490.75,450.65 C490.75,448.4 489.1,446.75 487.15,446.75 C485.2,446.75 483.55,448.4 483.55,450.65 Z M494.95,450.65 C494.95,454.7 491.35,458.3 487.15,458.3 C482.95,458.3 479.35,454.7 479.35,450.65 C479.35,446.6 482.95,443 487.15,443 C491.35,443 494.95,446.6 494.95,450.65 Z M504.1,443 C506.95,443 508.45,445.1 508.45,445.1 L508.45,437 L512.5,437 L512.5,458 L508.45,458 L508.45,456.2 C508.45,456.2 506.95,458.3 504.1,458.3 C500.35,458.3 497.05,455 497.05,450.65 C497.05,446.3 500.35,443 504.1,443 Z M504.85,454.7 C506.8,454.7 508.45,453.05 508.45,450.65 C508.45,448.25 506.8,446.6 504.85,446.6 C502.9,446.6 501.25,448.25 501.25,450.65 C501.25,453.05 502.9,454.7 504.85,454.7 Z M519.85,450.65 C519.85,452.9 521.5,454.55 523.45,454.55 C525.4,454.55 527.05,452.9 527.05,450.65 C527.05,448.4 525.4,446.75 523.45,446.75 C521.5,446.75 519.85,448.4 519.85,450.65 Z M531.25,450.65 C531.25,454.7 527.65,458.3 523.45,458.3 C519.25,458.3 515.65,454.7 515.65,450.65 C515.65,446.6 519.25,443 523.45,443 C527.65,443 531.25,446.6 531.25,450.65 Z M544.45,445.25 C544.45,445.25 542.8,443 539.35,443 C536.05,443 533.65,445.4 533.65,447.65 C533.65,452.51 540.4,451.4 540.4,453.65 C540.4,454.4 539.8,455 538.45,455 C536.5,455 535.3,453.35 535.3,453.35 L533.05,455.6 C533.05,455.6 534.85,458.3 539.05,458.3 C542.8,458.3 544.9,456.2 544.9,453.65 C544.9,448.7 538.15,449.75 538.15,447.65 C538.15,447.05 538.75,446.45 539.95,446.45 C541.45,446.45 542.35,447.65 542.35,447.65 L544.45,445.25 Z M562.45,448.85 C561.25,448.85 560.5,448.1 560.5,446.9 L560.5,441.8 C560.5,438.5 558.7,436.7 555.55,436.7 L553.3,436.7 L553.3,440.3 L554.8,440.3 C555.85,440.3 556.6,441.05 556.6,442.19 L556.6,447.05 C556.6,450.05 558.55,450.5 558.55,450.5 C558.55,450.5 556.6,450.95 556.6,453.95 L556.6,458.84 C556.6,459.95 555.85,460.7 554.8,460.7 L553.3,460.7 L553.3,464.3 L555.55,464.3 C558.7,464.3 560.5,462.5 560.5,459.2 L560.5,454.1 C560.5,452.9 561.25,452.15 562.45,452.15 L562.45,448.85 Z M566.05,445.25 C566.05,446.45 567.1,447.5 568.45,447.5 C569.8,447.5 570.85,446.45 570.85,445.25 C570.85,444.05 569.8,443 568.45,443 C567.1,443 566.05,444.05 566.05,445.25 Z M567.25,453.65 L563.95,460.55 L566.65,461.9 L570.55,455.6 L567.25,453.65 Z M245.8,484.85 C244.6,484.85 243.85,484.1 243.85,482.9 L243.85,477.8 C243.85,474.5 242.05,472.7 238.9,472.7 L236.65,472.7 L236.65,476.3 L238.15,476.3 C239.2,476.3 239.95,477.05 239.95,478.19 L239.95,483.05 C239.95,486.05 241.9,486.5 241.9,486.5 C241.9,486.5 239.95,486.95 239.95,489.95 L239.95,494.84 C239.95,495.95 239.2,496.7 238.15,496.7 L236.65,496.7 L236.65,500.3 L238.9,500.3 C242.05,500.3 243.85,498.5 243.85,495.2 L243.85,490.1 C243.85,488.9 244.6,488.15 245.8,488.15 L245.8,484.85 Z M232,521.3 C230.8,521.3 230.2,520.7 230.2,519.5 L230.2,513.05 C230.2,510.35 228.55,508.7 225.55,508.7 L223.9,508.7 L223.9,511.1 L225.55,511.1 C226.75,511.1 227.5,511.85 227.5,513.05 L227.5,519.5 C227.5,522.2 229.15,522.5 229.12,522.5 C229.15,522.5 227.5,522.8 227.5,525.5 L227.5,531.95 C227.5,533.15 226.75,533.9 225.55,533.9 L223.9,533.9 L223.9,536.3 L225.55,536.3 C228.55,536.3 230.2,534.65 230.2,531.95 L230.2,525.5 C230.2,524.3 230.8,523.7 232,523.7 L232,521.3 Z M233.05,554.15 L233.05,551.3 L232.3,551.3 C229.6,551.3 227.95,553.1 227.95,553.1 L227.95,551.6 L224.95,551.6 L224.95,566 L227.95,566 L227.95,558.2 C227.95,555.5 229.45,554 231.7,554 C232.45,554 233.05,554.15 233.05,554.15 Z M248.8,559.85 L237.55,559.85 C237.85,561.8 239.65,563.6 242.05,563.6 C244.9,563.6 246.4,561.35 246.4,561.35 L248.35,563.3 C248.35,563.3 246.1,566.3 242.05,566.3 C238,566.3 234.55,562.85 234.55,558.65 C234.55,554.6 237.85,551.3 241.9,551.3 C245.95,551.3 248.95,554.3 248.95,558.35 C248.95,559.25 248.8,559.85 248.8,559.85 Z M241.9,553.85 C239.65,553.85 238.15,555.35 237.67,557.3 L246.01,557.3 C245.65,555.35 244.15,553.85 241.9,553.85 Z M254.05,549.8 C254.05,551 253.45,551.6 252.55,551.6 L251.05,551.6 L251.05,554.3 L253.75,554.3 L253.75,561.8 C253.75,564.8 255.25,566.3 257.95,566.3 C259.15,566.3 260.05,566 260.05,566 L260.05,563.3 C260.05,563.3 259.3,563.6 258.55,563.6 C257.5,563.6 256.75,562.85 256.75,561.77 L256.75,554.3 L259.75,554.3 L259.75,551.6 L256.75,551.6 L256.75,546.8 L254.05,546.8 L254.05,549.8 Z M273.85,566 L276.85,566 L276.85,551.6 L273.85,551.6 L273.85,559.4 C273.85,562.1 272.35,563.6 270.1,563.6 C268.15,563.6 266.65,562.1 266.65,560 L266.65,551.6 L263.65,551.6 L263.65,560 C263.65,563.9 266.05,566.3 269.5,566.3 C272.2,566.3 273.85,564.5 273.85,564.5 L273.85,566 Z M289.3,554.15 L289.3,551.3 L288.55,551.3 C285.85,551.3 284.2,553.1 284.2,553.1 L284.2,551.6 L281.2,551.6 L281.2,566 L284.2,566 L284.2,558.2 C284.2,555.5 285.7,554 287.95,554 C288.7,554 289.3,554.15 289.3,554.15 Z M294.7,551.6 L291.7,551.6 L291.7,566 L294.7,566 L294.7,558.2 C294.7,555.5 296.2,554 298.45,554 C300.4,554 301.9,555.5 301.9,557.6 L301.9,566 L304.9,566 L304.9,557.6 C304.9,553.7 302.5,551.3 299.05,551.3 C296.35,551.3 294.7,553.1 294.7,553.1 L294.7,551.6 Z M324.25,553.25 C324.25,553.25 322.75,551.3 319.6,551.3 C316.6,551.3 314.5,553.4 314.5,555.5 C314.5,560.6 321.85,559.1 321.85,561.8 C321.85,562.85 321.1,563.6 319.45,563.6 C317.2,563.6 315.85,561.8 315.85,561.8 L313.9,563.75 C313.9,563.75 315.7,566.3 319.45,566.3 C322.75,566.3 324.85,564.2 324.85,561.8 C324.85,556.7 317.5,558.2 317.5,555.5 C317.5,554.75 318.25,554 319.6,554 C321.25,554 322.3,555.2 322.3,555.2 L324.25,553.25 Z M329.95,549.8 C329.95,551 329.35,551.6 328.45,551.6 L326.95,551.6 L326.95,554.3 L329.65,554.3 L329.65,561.8 C329.65,564.8 331.15,566.3 333.85,566.3 C335.05,566.3 335.95,566 335.95,566 L335.95,563.3 C335.95,563.3 335.2,563.6 334.45,563.6 C333.4,563.6 332.65,562.85 332.65,561.77 L332.65,554.3 L335.65,554.3 L335.65,551.6 L332.65,551.6 L332.65,546.8 L329.95,546.8 L329.95,549.8 Z M350.5,566 L347.5,566 L347.5,564.5 C347.5,564.5 345.85,566.3 343.15,566.3 C340.15,566.3 338.05,564.2 338.05,562.1 C338.05,559.7 339.7,558.05 342.25,557.6 L347.5,556.7 C347.5,555.2 346.3,554 344.5,554 C341.95,554 340.75,555.95 340.75,555.95 L338.8,554 C338.8,554 340.75,551.3 344.5,551.3 C348.1,551.3 350.5,553.7 350.5,556.7 L350.5,566 Z M343.6,563.6 C346,563.6 347.5,562.1 347.5,559.4 L347.5,559.1 L342.85,559.85 C341.8,560.03 341.05,560.75 341.05,561.8 C341.05,562.7 341.95,563.6 343.6,563.6 Z M356.5,549.8 C356.5,551 355.9,551.6 355,551.6 L353.5,551.6 L353.5,554.3 L356.2,554.3 L356.2,561.8 C356.2,564.8 357.7,566.3 360.4,566.3 C361.6,566.3 362.5,566 362.5,566 L362.5,563.3 C362.5,563.3 361.75,563.6 361,563.6 C359.95,563.6 359.2,562.85 359.2,561.77 L359.2,554.3 L362.2,554.3 L362.2,551.6 L359.2,551.6 L359.2,546.8 L356.5,546.8 L356.5,549.8 Z M378.85,559.85 L367.6,559.85 C367.9,561.8 369.7,563.6 372.1,563.6 C374.95,563.6 376.45,561.35 376.45,561.35 L378.4,563.3 C378.4,563.3 376.15,566.3 372.1,566.3 C368.05,566.3 364.6,562.85 364.6,558.65 C364.6,554.6 367.9,551.3 371.95,551.3 C376,551.3 379,554.3 379,558.35 C379,559.25 378.85,559.85 378.85,559.85 Z M371.95,553.85 C369.7,553.85 368.2,555.35 367.72,557.3 L376.06,557.3 C375.7,555.35 374.2,553.85 371.95,553.85 Z M383.35,562.4 L380.35,568.85 L382.3,569.9 L386.05,563.9 L383.35,562.4 Z M382.3,553.25 C382.3,554.3 383.2,555.2 384.25,555.2 C385.3,555.2 386.2,554.3 386.2,553.25 C386.2,552.2 385.3,551.3 384.25,551.3 C383.2,551.3 382.3,552.2 382.3,553.25 Z M220,593.3 C218.8,593.3 218.2,592.7 218.2,591.5 L218.2,585.05 C218.2,582.35 216.55,580.7 213.55,580.7 L211.9,580.7 L211.9,583.1 L213.55,583.1 C214.75,583.1 215.5,583.85 215.5,585.05 L215.5,591.5 C215.5,594.2 217.15,594.5 217.12,594.5 C217.15,594.5 215.5,594.8 215.5,597.5 L215.5,603.95 C215.5,605.15 214.75,605.9 213.55,605.9 L211.9,605.9 L211.9,608.3 L213.55,608.3 C216.55,608.3 218.2,606.65 218.2,603.95 L218.2,597.5 C218.2,596.3 218.8,595.7 220,595.7 L220,593.3 Z" id="export-function-redu" fill="#545E6F"></path>
            <text id="REDUCERS" font-family="TTNorms-Bold, TT Norms" font-size="24" font-weight="bold" fill="#FFFFFF">
                <tspan x="589.26" y="88">REDUCERS</tspan>
            </text>
        </g>
    </g>
</svg>