<?xml version="1.0" encoding="UTF-8"?>
<svg width="1280px" height="720px" viewBox="0 0 1280 720" version="1.1" xmlns="http://www.w3.org/2000/svg" xmlns:xlink="http://www.w3.org/1999/xlink" style="background: #FFFFFF;">
    <!-- Generator: Sketch 47.1 (45422) - http://www.bohemiancoding.com/sketch -->
    <title>export-selector</title>
    <desc>Created with Sketch.</desc>
    <defs></defs>
    <g id="Page-1" stroke="none" stroke-width="1" fill="none" fill-rule="evenodd">
        <g id="export-selector">
            <g id="Group" transform="translate(125.000000, 244.000000)">
                <rect id="Rectangle-7" fill="#F4F6F8" x="0" y="24" width="1030" height="208" rx="15"></rect>
                <path d="M15,0 L1015,0 L1015,1.77635684e-15 C1023.28427,5.91178485e-14 1030,6.71572875 1030,15 L1030,58 L0,58 L0,15 L-1.77635684e-15,15 C-2.79088747e-15,6.71572875 6.71572875,-2.54560899e-16 15,-1.77635684e-15 Z" id="Rectangle" fill="#DF7575"></path>
            </g>
            <path d="M211.32,381.44 L199.32,381.44 C199.64,383.52 201.56,385.44 204.12,385.44 C207.16,385.44 208.76,383.04 208.76,383.04 L210.84,385.12 C210.84,385.12 208.44,388.32 204.12,388.32 C199.8,388.32 196.12,384.64 196.12,380.16 C196.12,375.84 199.64,372.32 203.96,372.32 C208.28,372.32 211.48,375.52 211.48,379.84 C211.48,380.8 211.32,381.44 211.32,381.44 Z M203.96,375.04 C201.56,375.04 199.96,376.64 199.448,378.72 L208.344,378.72 C207.96,376.64 206.36,375.04 203.96,375.04 Z M222.68,380 L227.96,372.64 L224.28,372.64 L220.76,377.6 L217.24,372.64 L213.56,372.64 L218.84,380 L213.08,388 L216.76,388 L220.76,382.4 L224.76,388 L228.44,388 L222.68,380 Z M239.16,388.32 C236.12,388.32 234.2,386.24 234.2,386.24 L234.2,394.72 L231,394.72 L231,372.64 L234.2,372.64 L234.2,374.4 C234.2,374.4 236.12,372.32 239.16,372.32 C243.16,372.32 246.68,375.84 246.68,380.32 C246.68,384.8 243.16,388.32 239.16,388.32 Z M238.84,375.2 C236.44,375.2 234.2,377.44 234.2,380.32 C234.2,383.2 236.44,385.44 238.84,385.44 C241.24,385.44 243.48,383.2 243.48,380.32 C243.48,377.44 241.24,375.2 238.84,375.2 Z M262.04,380.32 C262.04,377.44 259.8,375.2 257.24,375.2 C254.68,375.2 252.44,377.44 252.44,380.32 C252.44,383.2 254.68,385.44 257.24,385.44 C259.8,385.44 262.04,383.2 262.04,380.32 Z M249.24,380.32 C249.24,376 252.92,372.32 257.24,372.32 C261.56,372.32 265.24,376 265.24,380.32 C265.24,384.64 261.56,388.32 257.24,388.32 C252.92,388.32 249.24,384.64 249.24,380.32 Z M277.4,375.36 L277.4,372.32 L276.6,372.32 C273.72,372.32 271.96,374.24 271.96,374.24 L271.96,372.64 L268.76,372.64 L268.76,388 L271.96,388 L271.96,379.68 C271.96,376.8 273.56,375.2 275.96,375.2 C276.76,375.2 277.4,375.36 277.4,375.36 Z M281.88,370.72 C281.88,372 281.24,372.64 280.28,372.64 L278.68,372.64 L278.68,375.52 L281.56,375.52 L281.56,383.52 C281.56,386.72 283.16,388.32 286.04,388.32 C287.32,388.32 288.28,388 288.28,388 L288.28,385.12 C288.28,385.12 287.48,385.44 286.68,385.44 C285.56,385.44 284.76,384.64 284.76,383.488 L284.76,375.52 L287.96,375.52 L287.96,372.64 L284.76,372.64 L284.76,367.52 L281.88,367.52 L281.88,370.72 Z M309.88,383.04 C309.88,383.04 309.88,383.04 309.88,383.04 L309.88,383.04 Z M309.88,383.04 L311.96,385.12 C311.96,385.12 309.56,388.32 305.56,388.32 C301.24,388.32 297.56,384.64 297.56,380.32 C297.56,376 301.24,372.32 305.56,372.32 C309.56,372.32 311.8,375.36 311.8,375.36 L309.72,377.44 C309.72,377.44 308.28,375.2 305.56,375.2 C303,375.2 300.76,377.44 300.76,380.32 C300.76,383.2 303,385.44 305.56,385.44 C308.27938,385.44 309.879271,383.041094 309.88,383.04 L309.88,383.04 Z M327,380.32 C327,377.44 324.76,375.2 322.2,375.2 C319.64,375.2 317.4,377.44 317.4,380.32 C317.4,383.2 319.64,385.44 322.2,385.44 C324.76,385.44 327,383.2 327,380.32 Z M314.2,380.32 C314.2,376 317.88,372.32 322.2,372.32 C326.52,372.32 330.2,376 330.2,380.32 C330.2,384.64 326.52,388.32 322.2,388.32 C317.88,388.32 314.2,384.64 314.2,380.32 Z M336.92,372.64 L333.72,372.64 L333.72,388 L336.92,388 L336.92,379.68 C336.92,376.8 338.52,375.2 340.92,375.2 C343,375.2 344.6,376.8 344.6,379.04 L344.6,388 L347.8,388 L347.8,379.04 C347.8,374.88 345.24,372.32 341.56,372.32 C338.68,372.32 336.92,374.24 336.92,374.24 L336.92,372.64 Z M362.04,374.4 C362.04,374.4 360.44,372.32 357.08,372.32 C353.88,372.32 351.64,374.56 351.64,376.8 C351.64,382.24 359.48,380.64 359.48,383.52 C359.48,384.64 358.68,385.44 356.92,385.44 C354.52,385.44 353.08,383.52 353.08,383.52 L351,385.6 C351,385.6 352.92,388.32 356.92,388.32 C360.44,388.32 362.68,386.08 362.68,383.52 C362.68,378.08 354.84,379.68 354.84,376.8 C354.84,376 355.64,375.2 357.08,375.2 C358.84,375.2 359.96,376.48 359.96,376.48 L362.04,374.4 Z M368.12,370.72 C368.12,372 367.48,372.64 366.52,372.64 L364.92,372.64 L364.92,375.52 L367.8,375.52 L367.8,383.52 C367.8,386.72 369.4,388.32 372.28,388.32 C373.56,388.32 374.52,388 374.52,388 L374.52,385.12 C374.52,385.12 373.72,385.44 372.92,385.44 C371.8,385.44 371,384.64 371,383.488 L371,375.52 L374.2,375.52 L374.2,372.64 L371,372.64 L371,367.52 L368.12,367.52 L368.12,370.72 Z M395.64,387.072 L395.64,385.76 C395.64,385.76 393.88,387.68 391,387.68 C387.16,387.68 383.8,384.32 383.8,380 C383.8,375.68 387.16,372.32 391,372.32 C393.88,372.32 395.64,374.24 395.64,374.24 L395.64,372.64 L398.84,372.64 L398.84,387.04 C398.84,391.36 395.48,394.72 391.16,394.72 C386.52,394.72 384.28,391.52 384.28,391.52 L386.36,389.44 C386.36,389.44 388.12,391.84 391.16,391.84 C393.72,391.84 395.64,389.92 395.64,387.072 Z M387,380 C387,382.72 389.08,384.8 391.32,384.8 C393.56,384.8 395.64,382.72 395.64,380 C395.64,377.28 393.56,375.2 391.32,375.2 C389.08,375.2 387,377.28 387,380 Z M415,383.04 C415,383.04 415,383.04 415,383.040001 L415,383.04 Z M415,383.04 L417.08,385.12 C417.08,385.12 414.68,388.32 410.36,388.32 C406.04,388.32 402.36,384.64 402.36,380.16 C402.36,375.84 405.88,372.32 410.2,372.32 C414.52,372.32 417.72,375.52 417.72,379.84 C417.72,380.8 417.56,381.44 417.56,381.44 L405.56,381.44 C405.88,383.52 407.8,385.44 410.36,385.44 C413.399035,385.44 414.998984,383.041524 415,383.040001 L415,383.04 Z M410.2,375.04 C407.8,375.04 406.2,376.64 405.688,378.72 L414.584,378.72 C414.2,376.64 412.6,375.04 410.2,375.04 Z M423.16,370.72 C423.16,372 422.52,372.64 421.56,372.64 L419.96,372.64 L419.96,375.52 L422.84,375.52 L422.84,383.52 C422.84,386.72 424.44,388.32 427.32,388.32 C428.6,388.32 429.56,388 429.56,388 L429.56,385.12 C429.56,385.12 428.76,385.44 427.96,385.44 C426.84,385.44 426.04,384.64 426.04,383.488 L426.04,375.52 L429.24,375.52 L429.24,372.64 L426.04,372.64 L426.04,367.52 L423.16,367.52 L423.16,370.72 Z M431.96,365.6 L448.92,365.6 L448.92,368.8 L442.2,368.8 L442.2,388 L438.68,388 L438.68,368.8 L431.96,368.8 L431.96,365.6 Z M461.56,380.32 C461.56,377.44 459.32,375.2 456.76,375.2 C454.2,375.2 451.96,377.44 451.96,380.32 C451.96,383.2 454.2,385.44 456.76,385.44 C459.32,385.44 461.56,383.2 461.56,380.32 Z M448.76,380.32 C448.76,376 452.44,372.32 456.76,372.32 C461.08,372.32 464.76,376 464.76,380.32 C464.76,384.64 461.08,388.32 456.76,388.32 C452.44,388.32 448.76,384.64 448.76,380.32 Z M474.84,372.32 C477.88,372.32 479.8,374.4 479.8,374.4 L479.8,365.6 L483,365.6 L483,388 L479.8,388 L479.8,386.24 C479.8,386.24 477.88,388.32 474.84,388.32 C470.84,388.32 467.32,384.8 467.32,380.32 C467.32,375.84 470.84,372.32 474.84,372.32 Z M475.16,385.44 C477.56,385.44 479.8,383.2 479.8,380.32 C479.8,377.44 477.56,375.2 475.16,375.2 C472.76,375.2 470.52,377.44 470.52,380.32 C470.52,383.2 472.76,385.44 475.16,385.44 Z M499.64,380.32 C499.64,377.44 497.4,375.2 494.84,375.2 C492.28,375.2 490.04,377.44 490.04,380.32 C490.04,383.2 492.28,385.44 494.84,385.44 C497.4,385.44 499.64,383.2 499.64,380.32 Z M486.84,380.32 C486.84,376 490.52,372.32 494.84,372.32 C499.16,372.32 502.84,376 502.84,380.32 C502.84,384.64 499.16,388.32 494.84,388.32 C490.52,388.32 486.84,384.64 486.84,380.32 Z M516.12,374.4 C516.12,374.4 514.52,372.32 511.16,372.32 C507.96,372.32 505.72,374.56 505.72,376.8 C505.72,382.24 513.56,380.64 513.56,383.52 C513.56,384.64 512.76,385.44 511,385.44 C508.6,385.44 507.16,383.52 507.16,383.52 L505.08,385.6 C505.08,385.6 507,388.32 511,388.32 C514.52,388.32 516.76,386.08 516.76,383.52 C516.76,378.08 508.92,379.68 508.92,376.8 C508.92,376 509.72,375.2 511.16,375.2 C512.92,375.2 514.04,376.48 514.04,376.48 L516.12,374.4 Z M539,380 L525.88,380 L525.88,382.88 L539,382.88 L539,380 Z M539,374.24 L525.88,374.24 L525.88,377.12 L539,377.12 L539,374.24 Z M552.12,380 C552.12,372 556.6,366.24 556.6,366.24 L554.2,364.8 C554.2,364.8 549.24,370.72 549.24,380 C549.24,389.28 554.2,395.2 554.2,395.2 L556.6,393.76 C556.6,393.76 552.12,388 552.12,380 Z M569.4,374.4 C569.4,374.4 567.8,372.32 564.44,372.32 C561.24,372.32 559,374.56 559,376.8 C559,382.24 566.84,380.64 566.84,383.52 C566.84,384.64 566.04,385.44 564.28,385.44 C561.88,385.44 560.44,383.52 560.44,383.52 L558.36,385.6 C558.36,385.6 560.28,388.32 564.28,388.32 C567.8,388.32 570.04,386.08 570.04,383.52 C570.04,378.08 562.2,379.68 562.2,376.8 C562.2,376 563,375.2 564.44,375.2 C566.2,375.2 567.32,376.48 567.32,376.48 L569.4,374.4 Z M575.48,370.72 C575.48,372 574.84,372.64 573.88,372.64 L572.28,372.64 L572.28,375.52 L575.16,375.52 L575.16,383.52 C575.16,386.72 576.76,388.32 579.64,388.32 C580.92,388.32 581.88,388 581.88,388 L581.88,385.12 C581.88,385.12 581.08,385.44 580.28,385.44 C579.16,385.44 578.36,384.64 578.36,383.488 L578.36,375.52 L581.56,375.52 L581.56,372.64 L578.36,372.64 L578.36,367.52 L575.48,367.52 L575.48,370.72 Z M597.4,388 L594.2,388 L594.2,386.4 C594.2,386.4 592.44,388.32 589.56,388.32 C586.36,388.32 584.12,386.08 584.12,383.84 C584.12,381.28 585.88,379.52 588.6,379.04 L594.2,378.08 C594.2,376.48 592.92,375.2 591,375.2 C588.28,375.2 587,377.28 587,377.28 L584.92,375.2 C584.92,375.2 587,372.32 591,372.32 C594.84,372.32 597.4,374.88 597.4,378.08 L597.4,388 Z M590.04,385.44 C592.6,385.44 594.2,383.84 594.2,380.96 L594.2,380.64 L589.24,381.44 C588.12,381.632 587.32,382.4 587.32,383.52 C587.32,384.48 588.28,385.44 590.04,385.44 Z M603.8,370.72 C603.8,372 603.16,372.64 602.2,372.64 L600.6,372.64 L600.6,375.52 L603.48,375.52 L603.48,383.52 C603.48,386.72 605.08,388.32 607.96,388.32 C609.24,388.32 610.2,388 610.2,388 L610.2,385.12 C610.2,385.12 609.4,385.44 608.6,385.44 C607.48,385.44 606.68,384.64 606.68,383.488 L606.68,375.52 L609.88,375.52 L609.88,372.64 L606.68,372.64 L606.68,367.52 L603.8,367.52 L603.8,370.72 Z M627.64,381.44 L615.64,381.44 C615.96,383.52 617.88,385.44 620.44,385.44 C623.48,385.44 625.08,383.04 625.08,383.04 L627.16,385.12 C627.16,385.12 624.76,388.32 620.44,388.32 C616.12,388.32 612.44,384.64 612.44,380.16 C612.44,375.84 615.96,372.32 620.28,372.32 C624.6,372.32 627.8,375.52 627.8,379.84 C627.8,380.8 627.64,381.44 627.64,381.44 Z M620.28,375.04 C617.88,375.04 616.28,376.64 615.768,378.72 L624.664,378.72 C624.28,376.64 622.68,375.04 620.28,375.04 Z M630.84,386.24 C630.84,387.36 631.8,388.32 632.92,388.32 C634.04,388.32 635,387.36 635,386.24 C635,385.12 634.04,384.16 632.92,384.16 C631.8,384.16 630.84,385.12 630.84,386.24 Z M630.84,374.4 C630.84,375.52 631.8,376.48 632.92,376.48 C634.04,376.48 635,375.52 635,374.4 C635,373.28 634.04,372.32 632.92,372.32 C631.8,372.32 630.84,373.28 630.84,374.4 Z M643.64,365.6 L660.6,365.6 L660.6,368.8 L653.88,368.8 L653.88,388 L650.36,388 L650.36,368.8 L643.64,368.8 L643.64,365.6 Z M673.24,380.32 C673.24,377.44 671,375.2 668.44,375.2 C665.88,375.2 663.64,377.44 663.64,380.32 C663.64,383.2 665.88,385.44 668.44,385.44 C671,385.44 673.24,383.2 673.24,380.32 Z M660.44,380.32 C660.44,376 664.12,372.32 668.44,372.32 C672.76,372.32 676.44,376 676.44,380.32 C676.44,384.64 672.76,388.32 668.44,388.32 C664.12,388.32 660.44,384.64 660.44,380.32 Z M686.52,372.32 C689.56,372.32 691.48,374.4 691.48,374.4 L691.48,365.6 L694.68,365.6 L694.68,388 L691.48,388 L691.48,386.24 C691.48,386.24 689.56,388.32 686.52,388.32 C682.52,388.32 679,384.8 679,380.32 C679,375.84 682.52,372.32 686.52,372.32 Z M686.84,385.44 C689.24,385.44 691.48,383.2 691.48,380.32 C691.48,377.44 689.24,375.2 686.84,375.2 C684.44,375.2 682.2,377.44 682.2,380.32 C682.2,383.2 684.44,385.44 686.84,385.44 Z M711.32,380.32 C711.32,377.44 709.08,375.2 706.52,375.2 C703.96,375.2 701.72,377.44 701.72,380.32 C701.72,383.2 703.96,385.44 706.52,385.44 C709.08,385.44 711.32,383.2 711.32,380.32 Z M698.52,380.32 C698.52,376 702.2,372.32 706.52,372.32 C710.84,372.32 714.52,376 714.52,380.32 C714.52,384.64 710.84,388.32 706.52,388.32 C702.2,388.32 698.52,384.64 698.52,380.32 Z M727.8,374.4 C727.8,374.4 726.2,372.32 722.84,372.32 C719.64,372.32 717.4,374.56 717.4,376.8 C717.4,382.24 725.24,380.64 725.24,383.52 C725.24,384.64 724.44,385.44 722.68,385.44 C720.28,385.44 718.84,383.52 718.84,383.52 L716.76,385.6 C716.76,385.6 718.68,388.32 722.68,388.32 C726.2,388.32 728.44,386.08 728.44,383.52 C728.44,378.08 720.6,379.68 720.6,376.8 C720.6,376 721.4,375.2 722.84,375.2 C724.6,375.2 725.72,376.48 725.72,376.48 L727.8,374.4 Z M743.64,381.6 C743.64,383.52 742.04,385.12 739.16,385.12 C735.16,385.12 733.4,382.56 733.4,382.56 L731.16,384.8 C731.16,384.8 733.72,388.32 739.16,388.32 C744.28,388.32 747.16,385.44 747.16,381.6 C747.16,373.28 735.32,376.48 735.32,371.36 C735.32,369.92 736.76,368.48 739.16,368.48 C742.2,368.48 743.64,370.4 743.64,370.4 L745.88,368.16 C745.88,368.16 743.64,365.28 739.16,365.28 C734.52,365.28 731.8,368 731.8,371.36 C731.8,379.68 743.64,376.48 743.64,381.6 Z M752.76,370.72 C752.76,372 752.12,372.64 751.16,372.64 L749.56,372.64 L749.56,375.52 L752.44,375.52 L752.44,383.52 C752.44,386.72 754.04,388.32 756.92,388.32 C758.2,388.32 759.16,388 759.16,388 L759.16,385.12 C759.16,385.12 758.36,385.44 757.56,385.44 C756.44,385.44 755.64,384.64 755.64,383.488 L755.64,375.52 L758.84,375.52 L758.84,372.64 L755.64,372.64 L755.64,367.52 L752.76,367.52 L752.76,370.72 Z M774.68,388 L771.48,388 L771.48,386.4 C771.48,386.4 769.72,388.32 766.84,388.32 C763.64,388.32 761.4,386.08 761.4,383.84 C761.4,381.28 763.16,379.52 765.88,379.04 L771.48,378.08 C771.48,376.48 770.2,375.2 768.28,375.2 C765.56,375.2 764.28,377.28 764.28,377.28 L762.2,375.2 C762.2,375.2 764.28,372.32 768.28,372.32 C772.12,372.32 774.68,374.88 774.68,378.08 L774.68,388 Z M767.32,385.44 C769.88,385.44 771.48,383.84 771.48,380.96 L771.48,380.64 L766.52,381.44 C765.4,381.632 764.6,382.4 764.6,383.52 C764.6,384.48 765.56,385.44 767.32,385.44 Z M781.08,370.72 C781.08,372 780.44,372.64 779.48,372.64 L777.88,372.64 L777.88,375.52 L780.76,375.52 L780.76,383.52 C780.76,386.72 782.36,388.32 785.24,388.32 C786.52,388.32 787.48,388 787.48,388 L787.48,385.12 C787.48,385.12 786.68,385.44 785.88,385.44 C784.76,385.44 783.96,384.64 783.96,383.488 L783.96,375.52 L787.16,375.52 L787.16,372.64 L783.96,372.64 L783.96,367.52 L781.08,367.52 L781.08,370.72 Z M804.92,381.44 L792.92,381.44 C793.24,383.52 795.16,385.44 797.72,385.44 C800.76,385.44 802.36,383.04 802.36,383.04 L804.44,385.12 C804.44,385.12 802.04,388.32 797.72,388.32 C793.4,388.32 789.72,384.64 789.72,380.16 C789.72,375.84 793.24,372.32 797.56,372.32 C801.88,372.32 805.08,375.52 805.08,379.84 C805.08,380.8 804.92,381.44 804.92,381.44 Z M797.56,375.04 C795.16,375.04 793.56,376.64 793.048,378.72 L801.944,378.72 C801.56,376.64 799.96,375.04 797.56,375.04 Z M811.96,380 C811.96,388 807.48,393.76 807.48,393.76 L809.88,395.2 C809.88,395.2 814.84,389.28 814.84,380 C814.84,370.72 809.88,364.8 809.88,364.8 L807.48,366.24 C807.48,366.24 811.96,372 811.96,380 Z M838.2,380 L825.08,380 L825.08,382.88 L838.2,382.88 L838.2,380 Z M838.2,374.24 L825.08,374.24 L825.08,377.12 L838.2,377.12 L838.2,374.24 Z M860.6,379.36 L847.16,372.32 L847.16,375.52 L856.12,380.16 L847.16,384.8 L847.16,388 L860.6,380.96 L860.6,379.36 Z M880.12,374.4 C880.12,374.4 878.52,372.32 875.16,372.32 C871.96,372.32 869.72,374.56 869.72,376.8 C869.72,382.24 877.56,380.64 877.56,383.52 C877.56,384.64 876.76,385.44 875,385.44 C872.6,385.44 871.16,383.52 871.16,383.52 L869.08,385.6 C869.08,385.6 871,388.32 875,388.32 C878.52,388.32 880.76,386.08 880.76,383.52 C880.76,378.08 872.92,379.68 872.92,376.8 C872.92,376 873.72,375.2 875.16,375.2 C876.92,375.2 878.04,376.48 878.04,376.48 L880.12,374.4 Z M886.2,370.72 C886.2,372 885.56,372.64 884.6,372.64 L883,372.64 L883,375.52 L885.88,375.52 L885.88,383.52 C885.88,386.72 887.48,388.32 890.36,388.32 C891.64,388.32 892.6,388 892.6,388 L892.6,385.12 C892.6,385.12 891.8,385.44 891,385.44 C889.88,385.44 889.08,384.64 889.08,383.488 L889.08,375.52 L892.28,375.52 L892.28,372.64 L889.08,372.64 L889.08,367.52 L886.2,367.52 L886.2,370.72 Z M908.12,388 L904.92,388 L904.92,386.4 C904.92,386.4 903.16,388.32 900.28,388.32 C897.08,388.32 894.84,386.08 894.84,383.84 C894.84,381.28 896.6,379.52 899.32,379.04 L904.92,378.08 C904.92,376.48 903.64,375.2 901.72,375.2 C899,375.2 897.72,377.28 897.72,377.28 L895.64,375.2 C895.64,375.2 897.72,372.32 901.72,372.32 C905.56,372.32 908.12,374.88 908.12,378.08 L908.12,388 Z M900.76,385.44 C903.32,385.44 904.92,383.84 904.92,380.96 L904.92,380.64 L899.96,381.44 C898.84,381.632 898.04,382.4 898.04,383.52 C898.04,384.48 899,385.44 900.76,385.44 Z M914.52,370.72 C914.52,372 913.88,372.64 912.92,372.64 L911.32,372.64 L911.32,375.52 L914.2,375.52 L914.2,383.52 C914.2,386.72 915.8,388.32 918.68,388.32 C919.96,388.32 920.92,388 920.92,388 L920.92,385.12 C920.92,385.12 920.12,385.44 919.32,385.44 C918.2,385.44 917.4,384.64 917.4,383.488 L917.4,375.52 L920.6,375.52 L920.6,372.64 L917.4,372.64 L917.4,367.52 L914.52,367.52 L914.52,370.72 Z M938.36,381.44 L926.36,381.44 C926.68,383.52 928.6,385.44 931.16,385.44 C934.2,385.44 935.8,383.04 935.8,383.04 L937.88,385.12 C937.88,385.12 935.48,388.32 931.16,388.32 C926.84,388.32 923.16,384.64 923.16,380.16 C923.16,375.84 926.68,372.32 931,372.32 C935.32,372.32 938.52,375.52 938.52,379.84 C938.52,380.8 938.36,381.44 938.36,381.44 Z M931,375.04 C928.6,375.04 927,376.64 926.488,378.72 L935.384,378.72 C935,376.64 933.4,375.04 931,375.04 Z M945.72,386.24 C945.72,385.12 944.76,384.16 943.64,384.16 C942.52,384.16 941.56,385.12 941.56,386.24 C941.56,387.36 942.52,388.32 943.64,388.32 C944.76,388.32 945.72,387.36 945.72,386.24 Z M951.32,370.72 C951.32,372 950.68,372.64 949.72,372.64 L948.12,372.64 L948.12,375.52 L951,375.52 L951,383.52 C951,386.72 952.6,388.32 955.48,388.32 C956.76,388.32 957.72,388 957.72,388 L957.72,385.12 C957.72,385.12 956.92,385.44 956.12,385.44 C955,385.44 954.2,384.64 954.2,383.488 L954.2,375.52 L957.4,375.52 L957.4,372.64 L954.2,372.64 L954.2,367.52 L951.32,367.52 L951.32,370.72 Z M972.76,380.32 C972.76,377.44 970.52,375.2 967.96,375.2 C965.4,375.2 963.16,377.44 963.16,380.32 C963.16,383.2 965.4,385.44 967.96,385.44 C970.52,385.44 972.76,383.2 972.76,380.32 Z M959.96,380.32 C959.96,376 963.64,372.32 967.96,372.32 C972.28,372.32 975.96,376 975.96,380.32 C975.96,384.64 972.28,388.32 967.96,388.32 C963.64,388.32 959.96,384.64 959.96,380.32 Z M986.04,372.32 C989.08,372.32 991,374.4 991,374.4 L991,365.6 L994.2,365.6 L994.2,388 L991,388 L991,386.24 C991,386.24 989.08,388.32 986.04,388.32 C982.04,388.32 978.52,384.8 978.52,380.32 C978.52,375.84 982.04,372.32 986.04,372.32 Z M986.36,385.44 C988.76,385.44 991,383.2 991,380.32 C991,377.44 988.76,375.2 986.36,375.2 C983.96,375.2 981.72,377.44 981.72,380.32 C981.72,383.2 983.96,385.44 986.36,385.44 Z M1010.84,380.32 C1010.84,377.44 1008.6,375.2 1006.04,375.2 C1003.48,375.2 1001.24,377.44 1001.24,380.32 C1001.24,383.2 1003.48,385.44 1006.04,385.44 C1008.6,385.44 1010.84,383.2 1010.84,380.32 Z M998.04,380.32 C998.04,376 1001.72,372.32 1006.04,372.32 C1010.36,372.32 1014.04,376 1014.04,380.32 C1014.04,384.64 1010.36,388.32 1006.04,388.32 C1001.72,388.32 998.04,384.64 998.04,380.32 Z M1027.32,374.4 C1027.32,374.4 1025.72,372.32 1022.36,372.32 C1019.16,372.32 1016.92,374.56 1016.92,376.8 C1016.92,382.24 1024.76,380.64 1024.76,383.52 C1024.76,384.64 1023.96,385.44 1022.2,385.44 C1019.8,385.44 1018.36,383.52 1018.36,383.52 L1016.28,385.6 C1016.28,385.6 1018.2,388.32 1022.2,388.32 C1025.72,388.32 1027.96,386.08 1027.96,383.52 C1027.96,378.08 1020.12,379.68 1020.12,376.8 C1020.12,376 1020.92,375.2 1022.36,375.2 C1024.12,375.2 1025.24,376.48 1025.24,376.48 L1027.32,374.4 Z M1032.6,384.16 L1029.4,391.04 L1031.48,392.16 L1035.48,385.76 L1032.6,384.16 Z M1031.48,374.4 C1031.48,375.52 1032.44,376.48 1033.56,376.48 C1034.68,376.48 1035.64,375.52 1035.64,374.4 C1035.64,373.28 1034.68,372.32 1033.56,372.32 C1032.44,372.32 1031.48,373.28 1031.48,374.4 Z" id="export-const-getTodo" fill="#545E6F"></path>
            <text id="EXPORT-SELECTOR" font-family="TTNorms-Bold, TT Norms" font-size="24" font-weight="bold" fill="#FFFFFF">
                <tspan x="523.08" y="282">EXPORT SELECTOR</tspan>
            </text>
        </g>
    </g>
</svg>