<?xml version="1.0" encoding="UTF-8"?>
<svg width="1280px" height="720px" viewBox="0 0 1280 720" version="1.1" xmlns="http://www.w3.org/2000/svg" xmlns:xlink="http://www.w3.org/1999/xlink" style="background: #FFFFFF;">
    <!-- Generator: Sketch 47.1 (45422) - http://www.bohemiancoding.com/sketch -->
    <title>action-reducers</title>
    <desc>Created with Sketch.</desc>
    <defs></defs>
    <g id="Page-1" stroke="none" stroke-width="1" fill="none" fill-rule="evenodd">
        <g id="action-reducers">
            <g id="Group" transform="translate(125.000000, 55.000000)">
                <rect id="Rectangle-7" fill="#F4F6F8" x="0" y="24" width="1030" height="586" rx="15"></rect>
                <path d="M15,0 L1015,0 L1015,1.77635684e-15 C1023.28427,5.91178485e-14 1030,6.71572875 1030,15 L1030,58 L0,58 L0,15 L-1.77635684e-15,15 C-2.79088747e-15,6.71572875 6.71572875,-2.54560899e-16 15,-1.77635684e-15 Z" id="Rectangle" fill="#DF7575"></path>
            </g>
            <path d="M200.44,170.64 L197.24,170.64 L197.24,186 L200.44,186 L200.44,170.64 Z M200.76,165.84 C200.76,164.72 199.96,163.92 198.84,163.92 C197.72,163.92 196.92,164.72 196.92,165.84 C196.92,166.96 197.72,167.76 198.84,167.76 C199.96,167.76 200.76,166.96 200.76,165.84 Z M224.92,186 L228.12,186 L228.12,177.04 C228.12,172.56 225.88,170.32 222.36,170.32 C218.84,170.32 217.08,172.88 217.08,172.88 C217.08,172.88 215.8,170.32 212.44,170.32 C209.88,170.32 208.28,172.24 208.28,172.24 L208.28,170.64 L205.08,170.64 L205.08,186 L208.28,186 L208.28,177.68 C208.28,174.8 209.88,173.2 211.8,173.2 C213.72,173.2 215,174.48 215,177.04 L215,186 L218.2,186 L218.2,177.68 C218.2,174.8 219.8,173.2 221.72,173.2 C223.64,173.2 224.92,174.48 224.92,177.04 L224.92,186 Z M240.76,186.32 C237.72,186.32 235.8,184.24 235.8,184.24 L235.8,192.72 L232.6,192.72 L232.6,170.64 L235.8,170.64 L235.8,172.4 C235.8,172.4 237.72,170.32 240.76,170.32 C244.76,170.32 248.28,173.84 248.28,178.32 C248.28,182.8 244.76,186.32 240.76,186.32 Z M240.44,173.2 C238.04,173.2 235.8,175.44 235.8,178.32 C235.8,181.2 238.04,183.44 240.44,183.44 C242.84,183.44 245.08,181.2 245.08,178.32 C245.08,175.44 242.84,173.2 240.44,173.2 Z M263.64,178.32 C263.64,175.44 261.4,173.2 258.84,173.2 C256.28,173.2 254.04,175.44 254.04,178.32 C254.04,181.2 256.28,183.44 258.84,183.44 C261.4,183.44 263.64,181.2 263.64,178.32 Z M250.84,178.32 C250.84,174 254.52,170.32 258.84,170.32 C263.16,170.32 266.84,174 266.84,178.32 C266.84,182.64 263.16,186.32 258.84,186.32 C254.52,186.32 250.84,182.64 250.84,178.32 Z M279,173.36 L279,170.32 L278.2,170.32 C275.32,170.32 273.56,172.24 273.56,172.24 L273.56,170.64 L270.36,170.64 L270.36,186 L273.56,186 L273.56,177.68 C273.56,174.8 275.16,173.2 277.56,173.2 C278.36,173.2 279,173.36 279,173.36 Z M283.48,168.72 C283.48,170 282.84,170.64 281.88,170.64 L280.28,170.64 L280.28,173.52 L283.16,173.52 L283.16,181.52 C283.16,184.72 284.76,186.32 287.64,186.32 C288.92,186.32 289.88,186 289.88,186 L289.88,183.12 C289.88,183.12 289.08,183.44 288.28,183.44 C287.16,183.44 286.36,182.64 286.36,181.488 L286.36,173.52 L289.56,173.52 L289.56,170.64 L286.36,170.64 L286.36,165.52 L283.48,165.52 L283.48,168.72 Z M299.96,179.28 C301.24,179.28 301.88,179.92 301.88,181.2 L301.88,188.08 C301.88,190.96 303.64,192.72 306.84,192.72 L308.6,192.72 L308.6,190.16 L306.84,190.16 C305.56,190.16 304.76,189.36 304.76,188.08 L304.76,181.2 C304.76,178.32 303,178 303.032,178 C303,178 304.76,177.68 304.76,174.8 L304.76,167.92 C304.76,166.64 305.56,165.84 306.84,165.84 L308.6,165.84 L308.6,163.28 L306.84,163.28 C303.64,163.28 301.88,165.04 301.88,167.92 L301.88,174.8 C301.88,176.08 301.24,176.72 299.96,176.72 L299.96,179.28 Z M316.6,186 L325.88,163.6 L329.4,163.6 L338.68,186 L335,186 L332.6,180.08 L322.68,180.08 L320.28,186 L316.6,186 Z M327.64,167.6 L323.96,176.88 L331.32,176.88 L327.64,167.6 Z M340.44,178.32 C340.44,182.64 344.12,186.32 348.44,186.32 C352.44,186.32 354.84,183.12 354.84,183.12 L352.76,181.04 C352.76,181.04 351.16,183.44 348.44,183.44 C345.88,183.44 343.64,181.2 343.64,178.32 C343.64,175.44 345.88,173.2 348.44,173.2 C351.16,173.2 352.6,175.44 352.6,175.44 L354.68,173.36 C354.68,173.36 352.44,170.32 348.44,170.32 C344.12,170.32 340.44,174 340.44,178.32 Z M359.96,168.72 C359.96,170 359.32,170.64 358.36,170.64 L356.76,170.64 L356.76,173.52 L359.64,173.52 L359.64,181.52 C359.64,184.72 361.24,186.32 364.12,186.32 C365.4,186.32 366.36,186 366.36,186 L366.36,183.12 C366.36,183.12 365.56,183.44 364.76,183.44 C363.64,183.44 362.84,182.64 362.84,181.488 L362.84,173.52 L366.04,173.52 L366.04,170.64 L362.84,170.64 L362.84,165.52 L359.96,165.52 L359.96,168.72 Z M373.56,170.64 L370.36,170.64 L370.36,186 L373.56,186 L373.56,170.64 Z M373.88,165.84 C373.88,164.72 373.08,163.92 371.96,163.92 C370.84,163.92 370.04,164.72 370.04,165.84 C370.04,166.96 370.84,167.76 371.96,167.76 C373.08,167.76 373.88,166.96 373.88,165.84 Z M390.04,178.32 C390.04,175.44 387.8,173.2 385.24,173.2 C382.68,173.2 380.44,175.44 380.44,178.32 C380.44,181.2 382.68,183.44 385.24,183.44 C387.8,183.44 390.04,181.2 390.04,178.32 Z M377.24,178.32 C377.24,174 380.92,170.32 385.24,170.32 C389.56,170.32 393.24,174 393.24,178.32 C393.24,182.64 389.56,186.32 385.24,186.32 C380.92,186.32 377.24,182.64 377.24,178.32 Z M399.96,170.64 L396.76,170.64 L396.76,186 L399.96,186 L399.96,177.68 C399.96,174.8 401.56,173.2 403.96,173.2 C406.04,173.2 407.64,174.8 407.64,177.04 L407.64,186 L410.84,186 L410.84,177.04 C410.84,172.88 408.28,170.32 404.6,170.32 C401.72,170.32 399.96,172.24 399.96,172.24 L399.96,170.64 Z M416.44,186 L416.44,163.6 L425.88,163.6 C430.04,163.6 433.08,166.64 433.08,170.48 C433.08,175.44 428.6,177.04 428.6,177.04 L433.72,186 L429.88,186 L425.08,177.36 L419.96,177.36 L419.96,186 L416.44,186 Z M429.56,170.48 C429.56,168.4 427.96,166.8 425.88,166.8 L419.96,166.8 L419.96,174.16 L425.88,174.16 C427.96,174.16 429.56,172.56 429.56,170.48 Z M451.96,179.44 L439.96,179.44 C440.28,181.52 442.2,183.44 444.76,183.44 C447.8,183.44 449.4,181.04 449.4,181.04 L451.48,183.12 C451.48,183.12 449.08,186.32 444.76,186.32 C440.44,186.32 436.76,182.64 436.76,178.16 C436.76,173.84 440.28,170.32 444.6,170.32 C448.92,170.32 452.12,173.52 452.12,177.84 C452.12,178.8 451.96,179.44 451.96,179.44 Z M444.6,173.04 C442.2,173.04 440.6,174.64 440.088,176.72 L448.984,176.72 C448.6,174.64 447,173.04 444.6,173.04 Z M462.2,170.32 C465.24,170.32 467.16,172.4 467.16,172.4 L467.16,163.6 L470.36,163.6 L470.36,186 L467.16,186 L467.16,184.24 C467.16,184.24 465.24,186.32 462.2,186.32 C458.2,186.32 454.68,182.8 454.68,178.32 C454.68,173.84 458.2,170.32 462.2,170.32 Z M462.52,183.44 C464.92,183.44 467.16,181.2 467.16,178.32 C467.16,175.44 464.92,173.2 462.52,173.2 C460.12,173.2 457.88,175.44 457.88,178.32 C457.88,181.2 460.12,183.44 462.52,183.44 Z M486.04,186 L489.24,186 L489.24,170.64 L486.04,170.64 L486.04,178.96 C486.04,181.84 484.44,183.44 482.04,183.44 C479.96,183.44 478.36,181.84 478.36,179.6 L478.36,170.64 L475.16,170.64 L475.16,179.6 C475.16,183.76 477.72,186.32 481.4,186.32 C484.28,186.32 486.04,184.4 486.04,184.4 L486.04,186 Z M492.92,178.32 C492.92,182.64 496.6,186.32 500.92,186.32 C504.92,186.32 507.32,183.12 507.32,183.12 L505.24,181.04 C505.24,181.04 503.64,183.44 500.92,183.44 C498.36,183.44 496.12,181.2 496.12,178.32 C496.12,175.44 498.36,173.2 500.92,173.2 C503.64,173.2 505.08,175.44 505.08,175.44 L507.16,173.36 C507.16,173.36 504.92,170.32 500.92,170.32 C496.6,170.32 492.92,174 492.92,178.32 Z M524.76,179.44 L512.76,179.44 C513.08,181.52 515,183.44 517.56,183.44 C520.6,183.44 522.2,181.04 522.2,181.04 L524.28,183.12 C524.28,183.12 521.88,186.32 517.56,186.32 C513.24,186.32 509.56,182.64 509.56,178.16 C509.56,173.84 513.08,170.32 517.4,170.32 C521.72,170.32 524.92,173.52 524.92,177.84 C524.92,178.8 524.76,179.44 524.76,179.44 Z M517.4,173.04 C515,173.04 513.4,174.64 512.888,176.72 L521.784,176.72 C521.4,174.64 519.8,173.04 517.4,173.04 Z M537.08,173.36 L537.08,170.32 L536.28,170.32 C533.4,170.32 531.64,172.24 531.64,172.24 L531.64,170.64 L528.44,170.64 L528.44,186 L531.64,186 L531.64,177.68 C531.64,174.8 533.24,173.2 535.64,173.2 C536.44,173.2 537.08,173.36 537.08,173.36 Z M552.44,174.48 L543.8,163.6 L540.76,163.6 L540.76,186 L544.28,186 L544.28,169.68 L552.44,179.92 L560.6,169.68 L560.6,186 L564.12,186 L564.12,163.6 L561.08,163.6 L552.44,174.48 Z M581.72,186 L578.52,186 L578.52,184.4 C578.52,184.4 576.76,186.32 573.88,186.32 C570.68,186.32 568.44,184.08 568.44,181.84 C568.44,179.28 570.2,177.52 572.92,177.04 L578.52,176.08 C578.52,174.48 577.24,173.2 575.32,173.2 C572.6,173.2 571.32,175.28 571.32,175.28 L569.24,173.2 C569.24,173.2 571.32,170.32 575.32,170.32 C579.16,170.32 581.72,172.88 581.72,176.08 L581.72,186 Z M574.36,183.44 C576.92,183.44 578.52,181.84 578.52,178.96 L578.52,178.64 L573.56,179.44 C572.44,179.632 571.64,180.4 571.64,181.52 C571.64,182.48 572.6,183.44 574.36,183.44 Z M594.36,186.32 C591.32,186.32 589.4,184.24 589.4,184.24 L589.4,192.72 L586.2,192.72 L586.2,170.64 L589.4,170.64 L589.4,172.4 C589.4,172.4 591.32,170.32 594.36,170.32 C598.36,170.32 601.88,173.84 601.88,178.32 C601.88,182.8 598.36,186.32 594.36,186.32 Z M594.04,173.2 C591.64,173.2 589.4,175.44 589.4,178.32 C589.4,181.2 591.64,183.44 594.04,183.44 C596.44,183.44 598.68,181.2 598.68,178.32 C598.68,175.44 596.44,173.2 594.04,173.2 Z M619.32,176.72 C618.04,176.72 617.4,176.08 617.4,174.8 L617.4,167.92 C617.4,165.04 615.64,163.28 612.44,163.28 L610.68,163.28 L610.68,165.84 L612.44,165.84 C613.72,165.84 614.52,166.64 614.52,167.92 L614.52,174.8 C614.52,177.68 616.28,178 616.248,178 C616.28,178 614.52,178.32 614.52,181.2 L614.52,188.08 C614.52,189.36 613.72,190.16 612.44,190.16 L610.68,190.16 L610.68,192.72 L612.44,192.72 C615.64,192.72 617.4,190.96 617.4,188.08 L617.4,181.2 C617.4,179.92 618.04,179.28 619.32,179.28 L619.32,176.72 Z M637.4,170.64 L633.88,170.64 L633.88,168.112 C633.88,166.96 634.68,166.16 635.8,166.16 C636.6,166.16 637.4,166.48 637.4,166.48 L637.4,163.6 C637.4,163.6 636.44,163.28 635.16,163.28 C632.28,163.28 630.68,164.88 630.68,168.08 L630.68,170.64 L628.44,170.64 L628.44,173.52 L630.68,173.52 L630.68,186 L633.88,186 L633.88,173.52 L637.4,173.52 L637.4,170.64 Z M649.24,173.36 L649.24,170.32 L648.44,170.32 C645.56,170.32 643.8,172.24 643.8,172.24 L643.8,170.64 L640.6,170.64 L640.6,186 L643.8,186 L643.8,177.68 C643.8,174.8 645.4,173.2 647.8,173.2 C648.6,173.2 649.24,173.36 649.24,173.36 Z M663.64,178.32 C663.64,175.44 661.4,173.2 658.84,173.2 C656.28,173.2 654.04,175.44 654.04,178.32 C654.04,181.2 656.28,183.44 658.84,183.44 C661.4,183.44 663.64,181.2 663.64,178.32 Z M650.84,178.32 C650.84,174 654.52,170.32 658.84,170.32 C663.16,170.32 666.84,174 666.84,178.32 C666.84,182.64 663.16,186.32 658.84,186.32 C654.52,186.32 650.84,182.64 650.84,178.32 Z M690.2,186 L693.4,186 L693.4,177.04 C693.4,172.56 691.16,170.32 687.64,170.32 C684.12,170.32 682.36,172.88 682.36,172.88 C682.36,172.88 681.08,170.32 677.72,170.32 C675.16,170.32 673.56,172.24 673.56,172.24 L673.56,170.64 L670.36,170.64 L670.36,186 L673.56,186 L673.56,177.68 C673.56,174.8 675.16,173.2 677.08,173.2 C679,173.2 680.28,174.48 680.28,177.04 L680.28,186 L683.48,186 L683.48,177.68 C683.48,174.8 685.08,173.2 687,173.2 C688.92,173.2 690.2,174.48 690.2,177.04 L690.2,186 Z M707,163.6 L704.12,163.6 L704.12,170.32 L707,170.32 L707,163.6 Z M723.32,174.48 C721.4,174.48 719.8,176.08 719.8,178.16 C719.8,180.24 721.4,181.84 723.32,181.84 C725.08,181.84 726.52,180.4 726.52,178.16 C726.52,175.92 725.08,174.48 723.32,174.48 Z M723,172.24 C725.4,172.24 726.52,173.68 726.52,173.68 L726.52,172.4 L728.76,172.4 L728.76,179.92 C728.76,181.04 729.56,181.84 730.52,181.84 C731.96,181.84 733.24,180.56 733.24,177.36 C733.24,172.24 729.08,168.08 723.48,168.08 C718.2,168.08 713.72,172.56 713.72,178 C713.72,183.44 718.2,187.92 723.48,187.92 C727.16,187.92 729.24,185.84 729.24,185.84 L730.68,187.6 C730.68,187.6 728.12,190.16 723.48,190.16 C716.76,190.16 711.16,184.56 711.16,178 C711.16,171.44 716.76,165.84 723.48,165.84 C730.52,165.84 735.8,171.12 735.8,177.36 C735.8,181.84 733.56,184.08 730.52,184.08 C728.12,184.08 727,182.16 727,182.16 C727,182.16 725.88,184.08 723,184.08 C719.96,184.08 717.4,181.52 717.4,178.16 C717.4,174.8 719.96,172.24 723,172.24 Z M743.32,170.64 L740.12,170.64 L740.12,186 L743.32,186 L743.32,177.68 C743.32,174.8 744.92,173.2 747.32,173.2 C749.4,173.2 751,174.8 751,177.04 L751,186 L754.2,186 L754.2,177.04 C754.2,172.88 751.64,170.32 747.96,170.32 C745.08,170.32 743.32,172.24 743.32,172.24 L743.32,170.64 Z M769.56,185.072 L769.56,183.76 C769.56,183.76 767.8,185.68 764.92,185.68 C761.08,185.68 757.72,182.32 757.72,178 C757.72,173.68 761.08,170.32 764.92,170.32 C767.8,170.32 769.56,172.24 769.56,172.24 L769.56,170.64 L772.76,170.64 L772.76,185.04 C772.76,189.36 769.4,192.72 765.08,192.72 C760.44,192.72 758.2,189.52 758.2,189.52 L760.28,187.44 C760.28,187.44 762.04,189.84 765.08,189.84 C767.64,189.84 769.56,187.92 769.56,185.072 Z M760.92,178 C760.92,180.72 763,182.8 765.24,182.8 C767.48,182.8 769.56,180.72 769.56,178 C769.56,175.28 767.48,173.2 765.24,173.2 C763,173.2 760.92,175.28 760.92,178 Z M785.88,173.36 L785.88,170.32 L785.08,170.32 C782.2,170.32 780.44,172.24 780.44,172.24 L780.44,170.64 L777.24,170.64 L777.24,186 L780.44,186 L780.44,177.68 C780.44,174.8 782.04,173.2 784.44,173.2 C785.24,173.2 785.88,173.36 785.88,173.36 Z M796.12,178 L801.4,170.64 L797.72,170.64 L794.2,175.6 L790.68,170.64 L787,170.64 L792.28,178 L786.52,186 L790.2,186 L794.2,180.4 L798.2,186 L801.88,186 L796.12,178 Z M815.8,163.28 L812.92,163.28 L803.32,192.72 L806.2,192.72 L815.8,163.28 Z M828.6,172.4 C828.6,172.4 827,170.32 823.64,170.32 C820.44,170.32 818.2,172.56 818.2,174.8 C818.2,180.24 826.04,178.64 826.04,181.52 C826.04,182.64 825.24,183.44 823.48,183.44 C821.08,183.44 819.64,181.52 819.64,181.52 L817.56,183.6 C817.56,183.6 819.48,186.32 823.48,186.32 C827,186.32 829.24,184.08 829.24,181.52 C829.24,176.08 821.4,177.68 821.4,174.8 C821.4,174 822.2,173.2 823.64,173.2 C825.4,173.2 826.52,174.48 826.52,174.48 L828.6,172.4 Z M834.68,168.72 C834.68,170 834.04,170.64 833.08,170.64 L831.48,170.64 L831.48,173.52 L834.36,173.52 L834.36,181.52 C834.36,184.72 835.96,186.32 838.84,186.32 C840.12,186.32 841.08,186 841.08,186 L841.08,183.12 C841.08,183.12 840.28,183.44 839.48,183.44 C838.36,183.44 837.56,182.64 837.56,181.488 L837.56,173.52 L840.76,173.52 L840.76,170.64 L837.56,170.64 L837.56,165.52 L834.68,165.52 L834.68,168.72 Z M856.12,178.32 C856.12,175.44 853.88,173.2 851.32,173.2 C848.76,173.2 846.52,175.44 846.52,178.32 C846.52,181.2 848.76,183.44 851.32,183.44 C853.88,183.44 856.12,181.2 856.12,178.32 Z M843.32,178.32 C843.32,174 847,170.32 851.32,170.32 C855.64,170.32 859.32,174 859.32,178.32 C859.32,182.64 855.64,186.32 851.32,186.32 C847,186.32 843.32,182.64 843.32,178.32 Z M871.48,173.36 L871.48,170.32 L870.68,170.32 C867.8,170.32 866.04,172.24 866.04,172.24 L866.04,170.64 L862.84,170.64 L862.84,186 L866.04,186 L866.04,177.68 C866.04,174.8 867.64,173.2 870.04,173.2 C870.84,173.2 871.48,173.36 871.48,173.36 Z M888.28,179.44 L876.28,179.44 C876.6,181.52 878.52,183.44 881.08,183.44 C884.12,183.44 885.72,181.04 885.72,181.04 L887.8,183.12 C887.8,183.12 885.4,186.32 881.08,186.32 C876.76,186.32 873.08,182.64 873.08,178.16 C873.08,173.84 876.6,170.32 880.92,170.32 C885.24,170.32 888.44,173.52 888.44,177.84 C888.44,178.8 888.28,179.44 888.28,179.44 Z M880.92,173.04 C878.52,173.04 876.92,174.64 876.408,176.72 L885.304,176.72 C884.92,174.64 883.32,173.04 880.92,173.04 Z M894.68,163.6 L891.8,163.6 L891.8,170.32 L894.68,170.32 L894.68,163.6 Z M899.8,182.16 L896.6,189.04 L898.68,190.16 L902.68,183.76 L899.8,182.16 Z M898.68,172.4 C898.68,173.52 899.64,174.48 900.76,174.48 C901.88,174.48 902.84,173.52 902.84,172.4 C902.84,171.28 901.88,170.32 900.76,170.32 C899.64,170.32 898.68,171.28 898.68,172.4 Z M200.44,254.64 L197.24,254.64 L197.24,270 L200.44,270 L200.44,254.64 Z M200.76,249.84 C200.76,248.72 199.96,247.92 198.84,247.92 C197.72,247.92 196.92,248.72 196.92,249.84 C196.92,250.96 197.72,251.76 198.84,251.76 C199.96,251.76 200.76,250.96 200.76,249.84 Z M224.92,270 L228.12,270 L228.12,261.04 C228.12,256.56 225.88,254.32 222.36,254.32 C218.84,254.32 217.08,256.88 217.08,256.88 C217.08,256.88 215.8,254.32 212.44,254.32 C209.88,254.32 208.28,256.24 208.28,256.24 L208.28,254.64 L205.08,254.64 L205.08,270 L208.28,270 L208.28,261.68 C208.28,258.8 209.88,257.2 211.8,257.2 C213.72,257.2 215,258.48 215,261.04 L215,270 L218.2,270 L218.2,261.68 C218.2,258.8 219.8,257.2 221.72,257.2 C223.64,257.2 224.92,258.48 224.92,261.04 L224.92,270 Z M240.76,270.32 C237.72,270.32 235.8,268.24 235.8,268.24 L235.8,276.72 L232.6,276.72 L232.6,254.64 L235.8,254.64 L235.8,256.4 C235.8,256.4 237.72,254.32 240.76,254.32 C244.76,254.32 248.28,257.84 248.28,262.32 C248.28,266.8 244.76,270.32 240.76,270.32 Z M240.44,257.2 C238.04,257.2 235.8,259.44 235.8,262.32 C235.8,265.2 238.04,267.44 240.44,267.44 C242.84,267.44 245.08,265.2 245.08,262.32 C245.08,259.44 242.84,257.2 240.44,257.2 Z M263.64,262.32 C263.64,259.44 261.4,257.2 258.84,257.2 C256.28,257.2 254.04,259.44 254.04,262.32 C254.04,265.2 256.28,267.44 258.84,267.44 C261.4,267.44 263.64,265.2 263.64,262.32 Z M250.84,262.32 C250.84,258 254.52,254.32 258.84,254.32 C263.16,254.32 266.84,258 266.84,262.32 C266.84,266.64 263.16,270.32 258.84,270.32 C254.52,270.32 250.84,266.64 250.84,262.32 Z M279,257.36 L279,254.32 L278.2,254.32 C275.32,254.32 273.56,256.24 273.56,256.24 L273.56,254.64 L270.36,254.64 L270.36,270 L273.56,270 L273.56,261.68 C273.56,258.8 275.16,257.2 277.56,257.2 C278.36,257.2 279,257.36 279,257.36 Z M283.48,252.72 C283.48,254 282.84,254.64 281.88,254.64 L280.28,254.64 L280.28,257.52 L283.16,257.52 L283.16,265.52 C283.16,268.72 284.76,270.32 287.64,270.32 C288.92,270.32 289.88,270 289.88,270 L289.88,267.12 C289.88,267.12 289.08,267.44 288.28,267.44 C287.16,267.44 286.36,266.64 286.36,265.488 L286.36,257.52 L289.56,257.52 L289.56,254.64 L286.36,254.64 L286.36,249.52 L283.48,249.52 L283.48,252.72 Z M305.72,247.6 L303.16,247.6 L303.48,251.6 L299.8,250.16 L299,252.56 L302.84,253.52 L300.28,256.72 L302.2,258.32 L304.44,254.8 L306.68,258.32 L308.6,256.72 L306.04,253.52 L309.88,252.56 L309.08,250.16 L305.4,251.6 L305.72,247.6 Z M321.24,259.28 C321.24,259.28 321.240001,259.279999 321.240002,259.279997 L321.24,259.28 Z M321.24,259.28 L319.16,257.2 C319.16,257.2 321.24,254.32 325.24,254.32 C329.08,254.32 331.64,256.88 331.64,260.08 L331.64,270 L328.44,270 L328.44,268.4 C328.44,268.4 326.68,270.32 323.8,270.32 C320.6,270.32 318.36,268.08 318.36,265.84 C318.36,263.28 320.12,261.52 322.84,261.04 L328.44,260.08 C328.44,258.48 327.16,257.2 325.24,257.2 C322.522037,257.2 321.241918,259.276886 321.240002,259.279997 L321.24,259.28 Z M324.28,267.44 C326.84,267.44 328.44,265.84 328.44,262.96 L328.44,262.64 L323.48,263.44 C322.36,263.632 321.56,264.4 321.56,265.52 C321.56,266.48 322.52,267.44 324.28,267.44 Z M345.88,256.4 C345.88,256.4 344.28,254.32 340.92,254.32 C337.72,254.32 335.48,256.56 335.48,258.8 C335.48,264.24 343.32,262.64 343.32,265.52 C343.32,266.64 342.52,267.44 340.76,267.44 C338.36,267.44 336.92,265.52 336.92,265.52 L334.84,267.6 C334.84,267.6 336.76,270.32 340.76,270.32 C344.28,270.32 346.52,268.08 346.52,265.52 C346.52,260.08 338.68,261.68 338.68,258.8 C338.68,258 339.48,257.2 340.92,257.2 C342.68,257.2 343.8,258.48 343.8,258.48 L345.88,256.4 Z M364.12,254.64 L360.6,254.64 L360.6,252.112 C360.6,250.96 361.4,250.16 362.52,250.16 C363.32,250.16 364.12,250.48 364.12,250.48 L364.12,247.6 C364.12,247.6 363.16,247.28 361.88,247.28 C359,247.28 357.4,248.88 357.4,252.08 L357.4,254.64 L355.16,254.64 L355.16,257.52 L357.4,257.52 L357.4,270 L360.6,270 L360.6,257.52 L364.12,257.52 L364.12,254.64 Z M375.96,257.36 L375.96,254.32 L375.16,254.32 C372.28,254.32 370.52,256.24 370.52,256.24 L370.52,254.64 L367.32,254.64 L367.32,270 L370.52,270 L370.52,261.68 C370.52,258.8 372.12,257.2 374.52,257.2 C375.32,257.2 375.96,257.36 375.96,257.36 Z M390.36,262.32 C390.36,259.44 388.12,257.2 385.56,257.2 C383,257.2 380.76,259.44 380.76,262.32 C380.76,265.2 383,267.44 385.56,267.44 C388.12,267.44 390.36,265.2 390.36,262.32 Z M377.56,262.32 C377.56,258 381.24,254.32 385.56,254.32 C389.88,254.32 393.56,258 393.56,262.32 C393.56,266.64 389.88,270.32 385.56,270.32 C381.24,270.32 377.56,266.64 377.56,262.32 Z M416.92,270 L420.12,270 L420.12,261.04 C420.12,256.56 417.88,254.32 414.36,254.32 C410.84,254.32 409.08,256.88 409.08,256.88 C409.08,256.88 407.8,254.32 404.44,254.32 C401.88,254.32 400.28,256.24 400.28,256.24 L400.28,254.64 L397.08,254.64 L397.08,270 L400.28,270 L400.28,261.68 C400.28,258.8 401.88,257.2 403.8,257.2 C405.72,257.2 407,258.48 407,261.04 L407,270 L410.2,270 L410.2,261.68 C410.2,258.8 411.8,257.2 413.72,257.2 C415.64,257.2 416.92,258.48 416.92,261.04 L416.92,270 Z M423.16,247.6 L440.12,247.6 L440.12,250.8 L433.4,250.8 L433.4,270 L429.88,270 L429.88,250.8 L423.16,250.8 L423.16,247.6 Z M452.76,262.32 C452.76,259.44 450.52,257.2 447.96,257.2 C445.4,257.2 443.16,259.44 443.16,262.32 C443.16,265.2 445.4,267.44 447.96,267.44 C450.52,267.44 452.76,265.2 452.76,262.32 Z M439.96,262.32 C439.96,258 443.64,254.32 447.96,254.32 C452.28,254.32 455.96,258 455.96,262.32 C455.96,266.64 452.28,270.32 447.96,270.32 C443.64,270.32 439.96,266.64 439.96,262.32 Z M466.04,254.32 C469.08,254.32 471,256.4 471,256.4 L471,247.6 L474.2,247.6 L474.2,270 L471,270 L471,268.24 C471,268.24 469.08,270.32 466.04,270.32 C462.04,270.32 458.52,266.8 458.52,262.32 C458.52,257.84 462.04,254.32 466.04,254.32 Z M466.36,267.44 C468.76,267.44 471,265.2 471,262.32 C471,259.44 468.76,257.2 466.36,257.2 C463.96,257.2 461.72,259.44 461.72,262.32 C461.72,265.2 463.96,267.44 466.36,267.44 Z M490.84,262.32 C490.84,259.44 488.6,257.2 486.04,257.2 C483.48,257.2 481.24,259.44 481.24,262.32 C481.24,265.2 483.48,267.44 486.04,267.44 C488.6,267.44 490.84,265.2 490.84,262.32 Z M478.04,262.32 C478.04,258 481.72,254.32 486.04,254.32 C490.36,254.32 494.04,258 494.04,262.32 C494.04,266.64 490.36,270.32 486.04,270.32 C481.72,270.32 478.04,266.64 478.04,262.32 Z M507.32,256.4 C507.32,256.4 505.72,254.32 502.36,254.32 C499.16,254.32 496.92,256.56 496.92,258.8 C496.92,264.24 504.76,262.64 504.76,265.52 C504.76,266.64 503.96,267.44 502.2,267.44 C499.8,267.44 498.36,265.52 498.36,265.52 L496.28,267.6 C496.28,267.6 498.2,270.32 502.2,270.32 C505.72,270.32 507.96,268.08 507.96,265.52 C507.96,260.08 500.12,261.68 500.12,258.8 C500.12,258 500.92,257.2 502.36,257.2 C504.12,257.2 505.24,258.48 505.24,258.48 L507.32,256.4 Z M525.56,254.64 L522.04,254.64 L522.04,252.112 C522.04,250.96 522.84,250.16 523.96,250.16 C524.76,250.16 525.56,250.48 525.56,250.48 L525.56,247.6 C525.56,247.6 524.6,247.28 523.32,247.28 C520.44,247.28 518.84,248.88 518.84,252.08 L518.84,254.64 L516.6,254.64 L516.6,257.52 L518.84,257.52 L518.84,270 L522.04,270 L522.04,257.52 L525.56,257.52 L525.56,254.64 Z M537.4,257.36 L537.4,254.32 L536.6,254.32 C533.72,254.32 531.96,256.24 531.96,256.24 L531.96,254.64 L528.76,254.64 L528.76,270 L531.96,270 L531.96,261.68 C531.96,258.8 533.56,257.2 535.96,257.2 C536.76,257.2 537.4,257.36 537.4,257.36 Z M551.8,262.32 C551.8,259.44 549.56,257.2 547,257.2 C544.44,257.2 542.2,259.44 542.2,262.32 C542.2,265.2 544.44,267.44 547,267.44 C549.56,267.44 551.8,265.2 551.8,262.32 Z M539,262.32 C539,258 542.68,254.32 547,254.32 C551.32,254.32 555,258 555,262.32 C555,266.64 551.32,270.32 547,270.32 C542.68,270.32 539,266.64 539,262.32 Z M578.36,270 L581.56,270 L581.56,261.04 C581.56,256.56 579.32,254.32 575.8,254.32 C572.28,254.32 570.52,256.88 570.52,256.88 C570.52,256.88 569.24,254.32 565.88,254.32 C563.32,254.32 561.72,256.24 561.72,256.24 L561.72,254.64 L558.52,254.64 L558.52,270 L561.72,270 L561.72,261.68 C561.72,258.8 563.32,257.2 565.24,257.2 C567.16,257.2 568.44,258.48 568.44,261.04 L568.44,270 L571.64,270 L571.64,261.68 C571.64,258.8 573.24,257.2 575.16,257.2 C577.08,257.2 578.36,258.48 578.36,261.04 L578.36,270 Z M595.16,247.6 L592.28,247.6 L592.28,254.32 L595.16,254.32 L595.16,247.6 Z M602.84,268.24 C602.84,267.12 601.88,266.16 600.76,266.16 C599.64,266.16 598.68,267.12 598.68,268.24 C598.68,269.36 599.64,270.32 600.76,270.32 C601.88,270.32 602.84,269.36 602.84,268.24 Z M617.88,247.28 L615,247.28 L605.4,276.72 L608.28,276.72 L617.88,247.28 Z M622.84,252.72 C622.84,254 622.2,254.64 621.24,254.64 L619.64,254.64 L619.64,257.52 L622.52,257.52 L622.52,265.52 C622.52,268.72 624.12,270.32 627,270.32 C628.28,270.32 629.24,270 629.24,270 L629.24,267.12 C629.24,267.12 628.44,267.44 627.64,267.44 C626.52,267.44 625.72,266.64 625.72,265.488 L625.72,257.52 L628.92,257.52 L628.92,254.64 L625.72,254.64 L625.72,249.52 L622.84,249.52 L622.84,252.72 Z M644.28,262.32 C644.28,259.44 642.04,257.2 639.48,257.2 C636.92,257.2 634.68,259.44 634.68,262.32 C634.68,265.2 636.92,267.44 639.48,267.44 C642.04,267.44 644.28,265.2 644.28,262.32 Z M631.48,262.32 C631.48,258 635.16,254.32 639.48,254.32 C643.8,254.32 647.48,258 647.48,262.32 C647.48,266.64 643.8,270.32 639.48,270.32 C635.16,270.32 631.48,266.64 631.48,262.32 Z M657.56,254.32 C660.6,254.32 662.52,256.4 662.52,256.4 L662.52,247.6 L665.72,247.6 L665.72,270 L662.52,270 L662.52,268.24 C662.52,268.24 660.6,270.32 657.56,270.32 C653.56,270.32 650.04,266.8 650.04,262.32 C650.04,257.84 653.56,254.32 657.56,254.32 Z M657.88,267.44 C660.28,267.44 662.52,265.2 662.52,262.32 C662.52,259.44 660.28,257.2 657.88,257.2 C655.48,257.2 653.24,259.44 653.24,262.32 C653.24,265.2 655.48,267.44 657.88,267.44 Z M682.36,262.32 C682.36,259.44 680.12,257.2 677.56,257.2 C675,257.2 672.76,259.44 672.76,262.32 C672.76,265.2 675,267.44 677.56,267.44 C680.12,267.44 682.36,265.2 682.36,262.32 Z M669.56,262.32 C669.56,258 673.24,254.32 677.56,254.32 C681.88,254.32 685.56,258 685.56,262.32 C685.56,266.64 681.88,270.32 677.56,270.32 C673.24,270.32 669.56,266.64 669.56,262.32 Z M698.84,256.4 C698.84,256.4 697.24,254.32 693.88,254.32 C690.68,254.32 688.44,256.56 688.44,258.8 C688.44,264.24 696.28,262.64 696.28,265.52 C696.28,266.64 695.48,267.44 693.72,267.44 C691.32,267.44 689.88,265.52 689.88,265.52 L687.8,267.6 C687.8,267.6 689.72,270.32 693.72,270.32 C697.24,270.32 699.48,268.08 699.48,265.52 C699.48,260.08 691.64,261.68 691.64,258.8 C691.64,258 692.44,257.2 693.88,257.2 C695.64,257.2 696.76,258.48 696.76,258.48 L698.84,256.4 Z M706.68,268.24 C706.68,267.12 705.72,266.16 704.6,266.16 C703.48,266.16 702.52,267.12 702.52,268.24 C702.52,269.36 703.48,270.32 704.6,270.32 C705.72,270.32 706.68,269.36 706.68,268.24 Z M719,257.36 L719,254.32 L718.2,254.32 C715.32,254.32 713.56,256.24 713.56,256.24 L713.56,254.64 L710.36,254.64 L710.36,270 L713.56,270 L713.56,261.68 C713.56,258.8 715.16,257.2 717.56,257.2 C718.36,257.2 719,257.36 719,257.36 Z M735.8,263.44 L723.8,263.44 C724.12,265.52 726.04,267.44 728.6,267.44 C731.64,267.44 733.24,265.04 733.24,265.04 L735.32,267.12 C735.32,267.12 732.92,270.32 728.6,270.32 C724.28,270.32 720.6,266.64 720.6,262.16 C720.6,257.84 724.12,254.32 728.44,254.32 C732.76,254.32 735.96,257.52 735.96,261.84 C735.96,262.8 735.8,263.44 735.8,263.44 Z M728.44,257.04 C726.04,257.04 724.44,258.64 723.928,260.72 L732.824,260.72 C732.44,258.64 730.84,257.04 728.44,257.04 Z M746.04,254.32 C749.08,254.32 751,256.4 751,256.4 L751,247.6 L754.2,247.6 L754.2,270 L751,270 L751,268.24 C751,268.24 749.08,270.32 746.04,270.32 C742.04,270.32 738.52,266.8 738.52,262.32 C738.52,257.84 742.04,254.32 746.04,254.32 Z M746.36,267.44 C748.76,267.44 751,265.2 751,262.32 C751,259.44 748.76,257.2 746.36,257.2 C743.96,257.2 741.72,259.44 741.72,262.32 C741.72,265.2 743.96,267.44 746.36,267.44 Z M769.88,270 L773.08,270 L773.08,254.64 L769.88,254.64 L769.88,262.96 C769.88,265.84 768.28,267.44 765.88,267.44 C763.8,267.44 762.2,265.84 762.2,263.6 L762.2,254.64 L759,254.64 L759,263.6 C759,267.76 761.56,270.32 765.24,270.32 C768.12,270.32 769.88,268.4 769.88,268.4 L769.88,270 Z M776.76,262.32 C776.76,266.64 780.44,270.32 784.76,270.32 C788.76,270.32 791.16,267.12 791.16,267.12 L789.08,265.04 C789.08,265.04 787.48,267.44 784.76,267.44 C782.2,267.44 779.96,265.2 779.96,262.32 C779.96,259.44 782.2,257.2 784.76,257.2 C787.48,257.2 788.92,259.44 788.92,259.44 L791,257.36 C791,257.36 788.76,254.32 784.76,254.32 C780.44,254.32 776.76,258 776.76,262.32 Z M808.6,263.44 L796.6,263.44 C796.92,265.52 798.84,267.44 801.4,267.44 C804.44,267.44 806.04,265.04 806.04,265.04 L808.12,267.12 C808.12,267.12 805.72,270.32 801.4,270.32 C797.08,270.32 793.4,266.64 793.4,262.16 C793.4,257.84 796.92,254.32 801.24,254.32 C805.56,254.32 808.76,257.52 808.76,261.84 C808.76,262.8 808.6,263.44 808.6,263.44 Z M801.24,257.04 C798.84,257.04 797.24,258.64 796.728,260.72 L805.624,260.72 C805.24,258.64 803.64,257.04 801.24,257.04 Z M820.92,257.36 L820.92,254.32 L820.12,254.32 C817.24,254.32 815.48,256.24 815.48,256.24 L815.48,254.64 L812.28,254.64 L812.28,270 L815.48,270 L815.48,261.68 C815.48,258.8 817.08,257.2 819.48,257.2 C820.28,257.2 820.92,257.36 820.92,257.36 Z M827.48,247.6 L824.6,247.6 L824.6,254.32 L827.48,254.32 L827.48,247.6 Z M832.6,266.16 L829.4,273.04 L831.48,274.16 L835.48,267.76 L832.6,266.16 Z M831.48,256.4 C831.48,257.52 832.44,258.48 833.56,258.48 C834.68,258.48 835.64,257.52 835.64,256.4 C835.64,255.28 834.68,254.32 833.56,254.32 C832.44,254.32 831.48,255.28 831.48,256.4 Z M211.32,347.44 L199.32,347.44 C199.64,349.52 201.56,351.44 204.12,351.44 C207.16,351.44 208.76,349.04 208.76,349.04 L210.84,351.12 C210.84,351.12 208.44,354.32 204.12,354.32 C199.8,354.32 196.12,350.64 196.12,346.16 C196.12,341.84 199.64,338.32 203.96,338.32 C208.28,338.32 211.48,341.52 211.48,345.84 C211.48,346.8 211.32,347.44 211.32,347.44 Z M203.96,341.04 C201.56,341.04 199.96,342.64 199.448,344.72 L208.344,344.72 C207.96,342.64 206.36,341.04 203.96,341.04 Z M222.68,346 L227.96,338.64 L224.28,338.64 L220.76,343.6 L217.24,338.64 L213.56,338.64 L218.84,346 L213.08,354 L216.76,354 L220.76,348.4 L224.76,354 L228.44,354 L222.68,346 Z M239.16,354.32 C236.12,354.32 234.2,352.24 234.2,352.24 L234.2,360.72 L231,360.72 L231,338.64 L234.2,338.64 L234.2,340.4 C234.2,340.4 236.12,338.32 239.16,338.32 C243.16,338.32 246.68,341.84 246.68,346.32 C246.68,350.8 243.16,354.32 239.16,354.32 Z M238.84,341.2 C236.44,341.2 234.2,343.44 234.2,346.32 C234.2,349.2 236.44,351.44 238.84,351.44 C241.24,351.44 243.48,349.2 243.48,346.32 C243.48,343.44 241.24,341.2 238.84,341.2 Z M262.04,346.32 C262.04,343.44 259.8,341.2 257.24,341.2 C254.68,341.2 252.44,343.44 252.44,346.32 C252.44,349.2 254.68,351.44 257.24,351.44 C259.8,351.44 262.04,349.2 262.04,346.32 Z M249.24,346.32 C249.24,342 252.92,338.32 257.24,338.32 C261.56,338.32 265.24,342 265.24,346.32 C265.24,350.64 261.56,354.32 257.24,354.32 C252.92,354.32 249.24,350.64 249.24,346.32 Z M277.4,341.36 L277.4,338.32 L276.6,338.32 C273.72,338.32 271.96,340.24 271.96,340.24 L271.96,338.64 L268.76,338.64 L268.76,354 L271.96,354 L271.96,345.68 C271.96,342.8 273.56,341.2 275.96,341.2 C276.76,341.2 277.4,341.36 277.4,341.36 Z M281.88,336.72 C281.88,338 281.24,338.64 280.28,338.64 L278.68,338.64 L278.68,341.52 L281.56,341.52 L281.56,349.52 C281.56,352.72 283.16,354.32 286.04,354.32 C287.32,354.32 288.28,354 288.28,354 L288.28,351.12 C288.28,351.12 287.48,351.44 286.68,351.44 C285.56,351.44 284.76,350.64 284.76,349.488 L284.76,341.52 L287.96,341.52 L287.96,338.64 L284.76,338.64 L284.76,333.52 L281.88,333.52 L281.88,336.72 Z M301.88,338.64 L298.68,338.64 L298.68,354 L301.88,354 L301.88,338.64 Z M302.2,333.84 C302.2,332.72 301.4,331.92 300.28,331.92 C299.16,331.92 298.36,332.72 298.36,333.84 C298.36,334.96 299.16,335.76 300.28,335.76 C301.4,335.76 302.2,334.96 302.2,333.84 Z M309.72,338.64 L306.52,338.64 L306.52,354 L309.72,354 L309.72,345.68 C309.72,342.8 311.32,341.2 313.72,341.2 C315.8,341.2 317.4,342.8 317.4,345.04 L317.4,354 L320.6,354 L320.6,345.04 C320.6,340.88 318.04,338.32 314.36,338.32 C311.48,338.32 309.72,340.24 309.72,340.24 L309.72,338.64 Z M327,336.72 C327,338 326.36,338.64 325.4,338.64 L323.8,338.64 L323.8,341.52 L326.68,341.52 L326.68,349.52 C326.68,352.72 328.28,354.32 331.16,354.32 C332.44,354.32 333.4,354 333.4,354 L333.4,351.12 C333.4,351.12 332.6,351.44 331.8,351.44 C330.68,351.44 329.88,350.64 329.88,349.488 L329.88,341.52 L333.08,341.52 L333.08,338.64 L329.88,338.64 L329.88,333.52 L327,333.52 L327,336.72 Z M350.84,347.44 L338.84,347.44 C339.16,349.52 341.08,351.44 343.64,351.44 C346.68,351.44 348.28,349.04 348.28,349.04 L350.36,351.12 C350.36,351.12 347.96,354.32 343.64,354.32 C339.32,354.32 335.64,350.64 335.64,346.16 C335.64,341.84 339.16,338.32 343.48,338.32 C347.8,338.32 351,341.52 351,345.84 C351,346.8 350.84,347.44 350.84,347.44 Z M343.48,341.04 C341.08,341.04 339.48,342.64 338.968,344.72 L347.864,344.72 C347.48,342.64 345.88,341.04 343.48,341.04 Z M363.16,341.36 L363.16,338.32 L362.36,338.32 C359.48,338.32 357.72,340.24 357.72,340.24 L357.72,338.64 L354.52,338.64 L354.52,354 L357.72,354 L357.72,345.68 C357.72,342.8 359.32,341.2 361.72,341.2 C362.52,341.2 363.16,341.36 363.16,341.36 Z M374.36,338.64 L370.84,338.64 L370.84,336.112 C370.84,334.96 371.64,334.16 372.76,334.16 C373.56,334.16 374.36,334.48 374.36,334.48 L374.36,331.6 C374.36,331.6 373.4,331.28 372.12,331.28 C369.24,331.28 367.64,332.88 367.64,336.08 L367.64,338.64 L365.4,338.64 L365.4,341.52 L367.64,341.52 L367.64,354 L370.84,354 L370.84,341.52 L374.36,341.52 L374.36,338.64 Z M389.88,354 L386.68,354 L386.68,352.4 C386.68,352.4 384.92,354.32 382.04,354.32 C378.84,354.32 376.6,352.08 376.6,349.84 C376.6,347.28 378.36,345.52 381.08,345.04 L386.68,344.08 C386.68,342.48 385.4,341.2 383.48,341.2 C380.76,341.2 379.48,343.28 379.48,343.28 L377.4,341.2 C377.4,341.2 379.48,338.32 383.48,338.32 C387.32,338.32 389.88,340.88 389.88,344.08 L389.88,354 Z M382.52,351.44 C385.08,351.44 386.68,349.84 386.68,346.96 L386.68,346.64 L381.72,347.44 C380.6,347.632 379.8,348.4 379.8,349.52 C379.8,350.48 380.76,351.44 382.52,351.44 Z M405.72,349.04 C405.72,349.04 405.719999,349.040001 405.719998,349.040004 L405.72,349.04 Z M405.72,349.04 L407.8,351.12 C407.8,351.12 405.4,354.32 401.4,354.32 C397.08,354.32 393.4,350.64 393.4,346.32 C393.4,342 397.08,338.32 401.4,338.32 C405.4,338.32 407.64,341.36 407.64,341.36 L405.56,343.44 C405.56,343.44 404.12,341.2 401.4,341.2 C398.84,341.2 396.6,343.44 396.6,346.32 C396.6,349.2 398.84,351.44 401.4,351.44 C404.118039,351.44 405.717692,349.04346 405.719998,349.040004 L405.72,349.04 Z M425.24,347.44 L413.24,347.44 C413.56,349.52 415.48,351.44 418.04,351.44 C421.08,351.44 422.68,349.04 422.68,349.04 L424.76,351.12 C424.76,351.12 422.36,354.32 418.04,354.32 C413.72,354.32 410.04,350.64 410.04,346.16 C410.04,341.84 413.56,338.32 417.88,338.32 C422.2,338.32 425.4,341.52 425.4,345.84 C425.4,346.8 425.24,347.44 425.24,347.44 Z M417.88,341.04 C415.48,341.04 413.88,342.64 413.368,344.72 L422.264,344.72 C421.88,342.64 420.28,341.04 417.88,341.04 Z M436.44,331.6 L436.44,354 L439.96,354 L439.96,344.24 L449.56,344.24 L449.56,341.04 L439.96,341.04 L439.96,334.8 L452.12,334.8 L452.12,331.6 L436.44,331.6 Z M468.12,347.44 L456.12,347.44 C456.44,349.52 458.36,351.44 460.92,351.44 C463.96,351.44 465.56,349.04 465.56,349.04 L467.64,351.12 C467.64,351.12 465.24,354.32 460.92,354.32 C456.6,354.32 452.92,350.64 452.92,346.16 C452.92,341.84 456.44,338.32 460.76,338.32 C465.08,338.32 468.28,341.52 468.28,345.84 C468.28,346.8 468.12,347.44 468.12,347.44 Z M460.76,341.04 C458.36,341.04 456.76,342.64 456.248,344.72 L465.144,344.72 C464.76,342.64 463.16,341.04 460.76,341.04 Z M484.12,354 L480.92,354 L480.92,352.4 C480.92,352.4 479.16,354.32 476.28,354.32 C473.08,354.32 470.84,352.08 470.84,349.84 C470.84,347.28 472.6,345.52 475.32,345.04 L480.92,344.08 C480.92,342.48 479.64,341.2 477.72,341.2 C475,341.2 473.72,343.28 473.72,343.28 L471.64,341.2 C471.64,341.2 473.72,338.32 477.72,338.32 C481.56,338.32 484.12,340.88 484.12,344.08 L484.12,354 Z M476.76,351.44 C479.32,351.44 480.92,349.84 480.92,346.96 L480.92,346.64 L475.96,347.44 C474.84,347.632 474.04,348.4 474.04,349.52 C474.04,350.48 475,351.44 476.76,351.44 Z M490.52,336.72 C490.52,338 489.88,338.64 488.92,338.64 L487.32,338.64 L487.32,341.52 L490.2,341.52 L490.2,349.52 C490.2,352.72 491.8,354.32 494.68,354.32 C495.96,354.32 496.92,354 496.92,354 L496.92,351.12 C496.92,351.12 496.12,351.44 495.32,351.44 C494.2,351.44 493.4,350.64 493.4,349.488 L493.4,341.52 L496.6,341.52 L496.6,338.64 L493.4,338.64 L493.4,333.52 L490.52,333.52 L490.52,336.72 Z M511.64,354 L514.84,354 L514.84,338.64 L511.64,338.64 L511.64,346.96 C511.64,349.84 510.04,351.44 507.64,351.44 C505.56,351.44 503.96,349.84 503.96,347.6 L503.96,338.64 L500.76,338.64 L500.76,347.6 C500.76,351.76 503.32,354.32 507,354.32 C509.88,354.32 511.64,352.4 511.64,352.4 L511.64,354 Z M528.12,341.36 L528.12,338.32 L527.32,338.32 C524.44,338.32 522.68,340.24 522.68,340.24 L522.68,338.64 L519.48,338.64 L519.48,354 L522.68,354 L522.68,345.68 C522.68,342.8 524.28,341.2 526.68,341.2 C527.48,341.2 528.12,341.36 528.12,341.36 Z M544.92,347.44 L532.92,347.44 C533.24,349.52 535.16,351.44 537.72,351.44 C540.76,351.44 542.36,349.04 542.36,349.04 L544.44,351.12 C544.44,351.12 542.04,354.32 537.72,354.32 C533.4,354.32 529.72,350.64 529.72,346.16 C529.72,341.84 533.24,338.32 537.56,338.32 C541.88,338.32 545.08,341.52 545.08,345.84 C545.08,346.8 544.92,347.44 544.92,347.44 Z M537.56,341.04 C535.16,341.04 533.56,342.64 533.048,344.72 L541.944,344.72 C541.56,342.64 539.96,341.04 537.56,341.04 Z M560.28,347.6 C560.28,349.52 558.68,351.12 555.8,351.12 C551.8,351.12 550.04,348.56 550.04,348.56 L547.8,350.8 C547.8,350.8 550.36,354.32 555.8,354.32 C560.92,354.32 563.8,351.44 563.8,347.6 C563.8,339.28 551.96,342.48 551.96,337.36 C551.96,335.92 553.4,334.48 555.8,334.48 C558.84,334.48 560.28,336.4 560.28,336.4 L562.52,334.16 C562.52,334.16 560.28,331.28 555.8,331.28 C551.16,331.28 548.44,334 548.44,337.36 C548.44,345.68 560.28,342.48 560.28,347.6 Z M569.4,336.72 C569.4,338 568.76,338.64 567.8,338.64 L566.2,338.64 L566.2,341.52 L569.08,341.52 L569.08,349.52 C569.08,352.72 570.68,354.32 573.56,354.32 C574.84,354.32 575.8,354 575.8,354 L575.8,351.12 C575.8,351.12 575,351.44 574.2,351.44 C573.08,351.44 572.28,350.64 572.28,349.488 L572.28,341.52 L575.48,341.52 L575.48,338.64 L572.28,338.64 L572.28,333.52 L569.4,333.52 L569.4,336.72 Z M591.32,354 L588.12,354 L588.12,352.4 C588.12,352.4 586.36,354.32 583.48,354.32 C580.28,354.32 578.04,352.08 578.04,349.84 C578.04,347.28 579.8,345.52 582.52,345.04 L588.12,344.08 C588.12,342.48 586.84,341.2 584.92,341.2 C582.2,341.2 580.92,343.28 580.92,343.28 L578.84,341.2 C578.84,341.2 580.92,338.32 584.92,338.32 C588.76,338.32 591.32,340.88 591.32,344.08 L591.32,354 Z M583.96,351.44 C586.52,351.44 588.12,349.84 588.12,346.96 L588.12,346.64 L583.16,347.44 C582.04,347.632 581.24,348.4 581.24,349.52 C581.24,350.48 582.2,351.44 583.96,351.44 Z M597.72,336.72 C597.72,338 597.08,338.64 596.12,338.64 L594.52,338.64 L594.52,341.52 L597.4,341.52 L597.4,349.52 C597.4,352.72 599,354.32 601.88,354.32 C603.16,354.32 604.12,354 604.12,354 L604.12,351.12 C604.12,351.12 603.32,351.44 602.52,351.44 C601.4,351.44 600.6,350.64 600.6,349.488 L600.6,341.52 L603.8,341.52 L603.8,338.64 L600.6,338.64 L600.6,333.52 L597.72,333.52 L597.72,336.72 Z M621.56,347.44 L609.56,347.44 C609.88,349.52 611.8,351.44 614.36,351.44 C617.4,351.44 619,349.04 619,349.04 L621.08,351.12 C621.08,351.12 618.68,354.32 614.36,354.32 C610.04,354.32 606.36,350.64 606.36,346.16 C606.36,341.84 609.88,338.32 614.2,338.32 C618.52,338.32 621.72,341.52 621.72,345.84 C621.72,346.8 621.56,347.44 621.56,347.44 Z M614.2,341.04 C611.8,341.04 610.2,342.64 609.688,344.72 L618.584,344.72 C618.2,342.64 616.6,341.04 614.2,341.04 Z M631.48,347.28 C632.76,347.28 633.4,347.92 633.4,349.2 L633.4,356.08 C633.4,358.96 635.16,360.72 638.36,360.72 L640.12,360.72 L640.12,358.16 L638.36,358.16 C637.08,358.16 636.28,357.36 636.28,356.08 L636.28,349.2 C636.28,346.32 634.52,346 634.552,346 C634.52,346 636.28,345.68 636.28,342.8 L636.28,335.92 C636.28,334.64 637.08,333.84 638.36,333.84 L640.12,333.84 L640.12,331.28 L638.36,331.28 C635.16,331.28 633.4,333.04 633.4,335.92 L633.4,342.8 C633.4,344.08 632.76,344.72 631.48,344.72 L631.48,347.28 Z M211.8,378.72 C211.8,380 211.16,380.64 210.2,380.64 L208.6,380.64 L208.6,383.52 L211.48,383.52 L211.48,391.52 C211.48,394.72 213.08,396.32 215.96,396.32 C217.24,396.32 218.2,396 218.2,396 L218.2,393.12 C218.2,393.12 217.4,393.44 216.6,393.44 C215.48,393.44 214.68,392.64 214.68,391.488 L214.68,383.52 L217.88,383.52 L217.88,380.64 L214.68,380.64 L214.68,375.52 L211.8,375.52 L211.8,378.72 Z M233.24,388.32 C233.24,385.44 231,383.2 228.44,383.2 C225.88,383.2 223.64,385.44 223.64,388.32 C223.64,391.2 225.88,393.44 228.44,393.44 C231,393.44 233.24,391.2 233.24,388.32 Z M220.44,388.32 C220.44,384 224.12,380.32 228.44,380.32 C232.76,380.32 236.44,384 236.44,388.32 C236.44,392.64 232.76,396.32 228.44,396.32 C224.12,396.32 220.44,392.64 220.44,388.32 Z M246.52,380.32 C249.56,380.32 251.48,382.4 251.48,382.4 L251.48,373.6 L254.68,373.6 L254.68,396 L251.48,396 L251.48,394.24 C251.48,394.24 249.56,396.32 246.52,396.32 C242.52,396.32 239,392.8 239,388.32 C239,383.84 242.52,380.32 246.52,380.32 Z M246.84,393.44 C249.24,393.44 251.48,391.2 251.48,388.32 C251.48,385.44 249.24,383.2 246.84,383.2 C244.44,383.2 242.2,385.44 242.2,388.32 C242.2,391.2 244.44,393.44 246.84,393.44 Z M271.32,388.32 C271.32,385.44 269.08,383.2 266.52,383.2 C263.96,383.2 261.72,385.44 261.72,388.32 C261.72,391.2 263.96,393.44 266.52,393.44 C269.08,393.44 271.32,391.2 271.32,388.32 Z M258.52,388.32 C258.52,384 262.2,380.32 266.52,380.32 C270.84,380.32 274.52,384 274.52,388.32 C274.52,392.64 270.84,396.32 266.52,396.32 C262.2,396.32 258.52,392.64 258.52,388.32 Z M287.8,382.4 C287.8,382.4 286.2,380.32 282.84,380.32 C279.64,380.32 277.4,382.56 277.4,384.8 C277.4,390.24 285.24,388.64 285.24,391.52 C285.24,392.64 284.44,393.44 282.68,393.44 C280.28,393.44 278.84,391.52 278.84,391.52 L276.76,393.6 C276.76,393.6 278.68,396.32 282.68,396.32 C286.2,396.32 288.44,394.08 288.44,391.52 C288.44,386.08 280.6,387.68 280.6,384.8 C280.6,384 281.4,383.2 282.84,383.2 C284.6,383.2 285.72,384.48 285.72,384.48 L287.8,382.4 Z M291.48,394.24 C291.48,395.36 292.44,396.32 293.56,396.32 C294.68,396.32 295.64,395.36 295.64,394.24 C295.64,393.12 294.68,392.16 293.56,392.16 C292.44,392.16 291.48,393.12 291.48,394.24 Z M291.48,382.4 C291.48,383.52 292.44,384.48 293.56,384.48 C294.68,384.48 295.64,383.52 295.64,382.4 C295.64,381.28 294.68,380.32 293.56,380.32 C292.44,380.32 291.48,381.28 291.48,382.4 Z M313.4,380.64 L309.88,380.64 L309.88,378.112 C309.88,376.96 310.68,376.16 311.8,376.16 C312.6,376.16 313.4,376.48 313.4,376.48 L313.4,373.6 C313.4,373.6 312.44,373.28 311.16,373.28 C308.28,373.28 306.68,374.88 306.68,378.08 L306.68,380.64 L304.44,380.64 L304.44,383.52 L306.68,383.52 L306.68,396 L309.88,396 L309.88,383.52 L313.4,383.52 L313.4,380.64 Z M325.24,383.36 L325.24,380.32 L324.44,380.32 C321.56,380.32 319.8,382.24 319.8,382.24 L319.8,380.64 L316.6,380.64 L316.6,396 L319.8,396 L319.8,387.68 C319.8,384.8 321.4,383.2 323.8,383.2 C324.6,383.2 325.24,383.36 325.24,383.36 Z M339.64,388.32 C339.64,385.44 337.4,383.2 334.84,383.2 C332.28,383.2 330.04,385.44 330.04,388.32 C330.04,391.2 332.28,393.44 334.84,393.44 C337.4,393.44 339.64,391.2 339.64,388.32 Z M326.84,388.32 C326.84,384 330.52,380.32 334.84,380.32 C339.16,380.32 342.84,384 342.84,388.32 C342.84,392.64 339.16,396.32 334.84,396.32 C330.52,396.32 326.84,392.64 326.84,388.32 Z M366.2,396 L369.4,396 L369.4,387.04 C369.4,382.56 367.16,380.32 363.64,380.32 C360.12,380.32 358.36,382.88 358.36,382.88 C358.36,382.88 357.08,380.32 353.72,380.32 C351.16,380.32 349.56,382.24 349.56,382.24 L349.56,380.64 L346.36,380.64 L346.36,396 L349.56,396 L349.56,387.68 C349.56,384.8 351.16,383.2 353.08,383.2 C355,383.2 356.28,384.48 356.28,387.04 L356.28,396 L359.48,396 L359.48,387.68 C359.48,384.8 361.08,383.2 363,383.2 C364.92,383.2 366.2,384.48 366.2,387.04 L366.2,396 Z M372.44,373.6 L389.4,373.6 L389.4,376.8 L382.68,376.8 L382.68,396 L379.16,396 L379.16,376.8 L372.44,376.8 L372.44,373.6 Z M402.04,388.32 C402.04,385.44 399.8,383.2 397.24,383.2 C394.68,383.2 392.44,385.44 392.44,388.32 C392.44,391.2 394.68,393.44 397.24,393.44 C399.8,393.44 402.04,391.2 402.04,388.32 Z M389.24,388.32 C389.24,384 392.92,380.32 397.24,380.32 C401.56,380.32 405.24,384 405.24,388.32 C405.24,392.64 401.56,396.32 397.24,396.32 C392.92,396.32 389.24,392.64 389.24,388.32 Z M415.32,380.32 C418.36,380.32 420.28,382.4 420.28,382.4 L420.28,373.6 L423.48,373.6 L423.48,396 L420.28,396 L420.28,394.24 C420.28,394.24 418.36,396.32 415.32,396.32 C411.32,396.32 407.8,392.8 407.8,388.32 C407.8,383.84 411.32,380.32 415.32,380.32 Z M415.64,393.44 C418.04,393.44 420.28,391.2 420.28,388.32 C420.28,385.44 418.04,383.2 415.64,383.2 C413.24,383.2 411,385.44 411,388.32 C411,391.2 413.24,393.44 415.64,393.44 Z M440.12,388.32 C440.12,385.44 437.88,383.2 435.32,383.2 C432.76,383.2 430.52,385.44 430.52,388.32 C430.52,391.2 432.76,393.44 435.32,393.44 C437.88,393.44 440.12,391.2 440.12,388.32 Z M427.32,388.32 C427.32,384 431,380.32 435.32,380.32 C439.64,380.32 443.32,384 443.32,388.32 C443.32,392.64 439.64,396.32 435.32,396.32 C431,396.32 427.32,392.64 427.32,388.32 Z M456.6,382.4 C456.6,382.4 455,380.32 451.64,380.32 C448.44,380.32 446.2,382.56 446.2,384.8 C446.2,390.24 454.04,388.64 454.04,391.52 C454.04,392.64 453.24,393.44 451.48,393.44 C449.08,393.44 447.64,391.52 447.64,391.52 L445.56,393.6 C445.56,393.6 447.48,396.32 451.48,396.32 C455,396.32 457.24,394.08 457.24,391.52 C457.24,386.08 449.4,387.68 449.4,384.8 C449.4,384 450.2,383.2 451.64,383.2 C453.4,383.2 454.52,384.48 454.52,384.48 L456.6,382.4 Z M464.44,394.24 C464.44,393.12 463.48,392.16 462.36,392.16 C461.24,392.16 460.28,393.12 460.28,394.24 C460.28,395.36 461.24,396.32 462.36,396.32 C463.48,396.32 464.44,395.36 464.44,394.24 Z M466.68,373.6 L483.64,373.6 L483.64,376.8 L476.92,376.8 L476.92,396 L473.4,396 L473.4,376.8 L466.68,376.8 L466.68,373.6 Z M496.28,388.32 C496.28,385.44 494.04,383.2 491.48,383.2 C488.92,383.2 486.68,385.44 486.68,388.32 C486.68,391.2 488.92,393.44 491.48,393.44 C494.04,393.44 496.28,391.2 496.28,388.32 Z M483.48,388.32 C483.48,384 487.16,380.32 491.48,380.32 C495.8,380.32 499.48,384 499.48,388.32 C499.48,392.64 495.8,396.32 491.48,396.32 C487.16,396.32 483.48,392.64 483.48,388.32 Z M509.56,380.32 C512.6,380.32 514.52,382.4 514.52,382.4 L514.52,373.6 L517.72,373.6 L517.72,396 L514.52,396 L514.52,394.24 C514.52,394.24 512.6,396.32 509.56,396.32 C505.56,396.32 502.04,392.8 502.04,388.32 C502.04,383.84 505.56,380.32 509.56,380.32 Z M509.88,393.44 C512.28,393.44 514.52,391.2 514.52,388.32 C514.52,385.44 512.28,383.2 509.88,383.2 C507.48,383.2 505.24,385.44 505.24,388.32 C505.24,391.2 507.48,393.44 509.88,393.44 Z M534.36,388.32 C534.36,385.44 532.12,383.2 529.56,383.2 C527,383.2 524.76,385.44 524.76,388.32 C524.76,391.2 527,393.44 529.56,393.44 C532.12,393.44 534.36,391.2 534.36,388.32 Z M521.56,388.32 C521.56,384 525.24,380.32 529.56,380.32 C533.88,380.32 537.56,384 537.56,388.32 C537.56,392.64 533.88,396.32 529.56,396.32 C525.24,396.32 521.56,392.64 521.56,388.32 Z M550.84,382.4 C550.84,382.4 549.24,380.32 545.88,380.32 C542.68,380.32 540.44,382.56 540.44,384.8 C540.44,390.24 548.28,388.64 548.28,391.52 C548.28,392.64 547.48,393.44 545.72,393.44 C543.32,393.44 541.88,391.52 541.88,391.52 L539.8,393.6 C539.8,393.6 541.72,396.32 545.72,396.32 C549.24,396.32 551.48,394.08 551.48,391.52 C551.48,386.08 543.64,387.68 543.64,384.8 C543.64,384 544.44,383.2 545.88,383.2 C547.64,383.2 548.76,384.48 548.76,384.48 L550.84,382.4 Z M566.68,389.6 C566.68,391.52 565.08,393.12 562.2,393.12 C558.2,393.12 556.44,390.56 556.44,390.56 L554.2,392.8 C554.2,392.8 556.76,396.32 562.2,396.32 C567.32,396.32 570.2,393.44 570.2,389.6 C570.2,381.28 558.36,384.48 558.36,379.36 C558.36,377.92 559.8,376.48 562.2,376.48 C565.24,376.48 566.68,378.4 566.68,378.4 L568.92,376.16 C568.92,376.16 566.68,373.28 562.2,373.28 C557.56,373.28 554.84,376 554.84,379.36 C554.84,387.68 566.68,384.48 566.68,389.6 Z M575.8,378.72 C575.8,380 575.16,380.64 574.2,380.64 L572.6,380.64 L572.6,383.52 L575.48,383.52 L575.48,391.52 C575.48,394.72 577.08,396.32 579.96,396.32 C581.24,396.32 582.2,396 582.2,396 L582.2,393.12 C582.2,393.12 581.4,393.44 580.6,393.44 C579.48,393.44 578.68,392.64 578.68,391.488 L578.68,383.52 L581.88,383.52 L581.88,380.64 L578.68,380.64 L578.68,375.52 L575.8,375.52 L575.8,378.72 Z M597.72,396 L594.52,396 L594.52,394.4 C594.52,394.4 592.76,396.32 589.88,396.32 C586.68,396.32 584.44,394.08 584.44,391.84 C584.44,389.28 586.2,387.52 588.92,387.04 L594.52,386.08 C594.52,384.48 593.24,383.2 591.32,383.2 C588.6,383.2 587.32,385.28 587.32,385.28 L585.24,383.2 C585.24,383.2 587.32,380.32 591.32,380.32 C595.16,380.32 597.72,382.88 597.72,386.08 L597.72,396 Z M590.36,393.44 C592.92,393.44 594.52,391.84 594.52,388.96 L594.52,388.64 L589.56,389.44 C588.44,389.632 587.64,390.4 587.64,391.52 C587.64,392.48 588.6,393.44 590.36,393.44 Z M604.12,378.72 C604.12,380 603.48,380.64 602.52,380.64 L600.92,380.64 L600.92,383.52 L603.8,383.52 L603.8,391.52 C603.8,394.72 605.4,396.32 608.28,396.32 C609.56,396.32 610.52,396 610.52,396 L610.52,393.12 C610.52,393.12 609.72,393.44 608.92,393.44 C607.8,393.44 607,392.64 607,391.488 L607,383.52 L610.2,383.52 L610.2,380.64 L607,380.64 L607,375.52 L604.12,375.52 L604.12,378.72 Z M627.96,389.44 L615.96,389.44 C616.28,391.52 618.2,393.44 620.76,393.44 C623.8,393.44 625.4,391.04 625.4,391.04 L627.48,393.12 C627.48,393.12 625.08,396.32 620.76,396.32 C616.44,396.32 612.76,392.64 612.76,388.16 C612.76,383.84 616.28,380.32 620.6,380.32 C624.92,380.32 628.12,383.52 628.12,387.84 C628.12,388.8 627.96,389.44 627.96,389.44 Z M620.6,383.04 C618.2,383.04 616.6,384.64 616.088,386.72 L624.984,386.72 C624.6,384.64 623,383.04 620.6,383.04 Z M632.76,392.16 L629.56,399.04 L631.64,400.16 L635.64,393.76 L632.76,392.16 Z M631.64,382.4 C631.64,383.52 632.6,384.48 633.72,384.48 C634.84,384.48 635.8,383.52 635.8,382.4 C635.8,381.28 634.84,380.32 633.72,380.32 C632.6,380.32 631.64,381.28 631.64,382.4 Z M204.6,428.72 C203.32,428.72 202.68,428.08 202.68,426.8 L202.68,419.92 C202.68,417.04 200.92,415.28 197.72,415.28 L195.96,415.28 L195.96,417.84 L197.72,417.84 C199,417.84 199.8,418.64 199.8,419.92 L199.8,426.8 C199.8,429.68 201.56,430 201.528,430 C201.56,430 199.8,430.32 199.8,433.2 L199.8,440.08 C199.8,441.36 199,442.16 197.72,442.16 L195.96,442.16 L195.96,444.72 L197.72,444.72 C200.92,444.72 202.68,442.96 202.68,440.08 L202.68,433.2 C202.68,431.92 203.32,431.28 204.6,431.28 L204.6,428.72 Z M211.32,515.44 L199.32,515.44 C199.64,517.52 201.56,519.44 204.12,519.44 C207.16,519.44 208.76,517.04 208.76,517.04 L210.84,519.12 C210.84,519.12 208.44,522.32 204.12,522.32 C199.8,522.32 196.12,518.64 196.12,514.16 C196.12,509.84 199.64,506.32 203.96,506.32 C208.28,506.32 211.48,509.52 211.48,513.84 C211.48,514.8 211.32,515.44 211.32,515.44 Z M203.96,509.04 C201.56,509.04 199.96,510.64 199.448,512.72 L208.344,512.72 C207.96,510.64 206.36,509.04 203.96,509.04 Z M222.68,514 L227.96,506.64 L224.28,506.64 L220.76,511.6 L217.24,506.64 L213.56,506.64 L218.84,514 L213.08,522 L216.76,522 L220.76,516.4 L224.76,522 L228.44,522 L222.68,514 Z M239.16,522.32 C236.12,522.32 234.2,520.24 234.2,520.24 L234.2,528.72 L231,528.72 L231,506.64 L234.2,506.64 L234.2,508.4 C234.2,508.4 236.12,506.32 239.16,506.32 C243.16,506.32 246.68,509.84 246.68,514.32 C246.68,518.8 243.16,522.32 239.16,522.32 Z M238.84,509.2 C236.44,509.2 234.2,511.44 234.2,514.32 C234.2,517.2 236.44,519.44 238.84,519.44 C241.24,519.44 243.48,517.2 243.48,514.32 C243.48,511.44 241.24,509.2 238.84,509.2 Z M262.04,514.32 C262.04,511.44 259.8,509.2 257.24,509.2 C254.68,509.2 252.44,511.44 252.44,514.32 C252.44,517.2 254.68,519.44 257.24,519.44 C259.8,519.44 262.04,517.2 262.04,514.32 Z M249.24,514.32 C249.24,510 252.92,506.32 257.24,506.32 C261.56,506.32 265.24,510 265.24,514.32 C265.24,518.64 261.56,522.32 257.24,522.32 C252.92,522.32 249.24,518.64 249.24,514.32 Z M277.4,509.36 L277.4,506.32 L276.6,506.32 C273.72,506.32 271.96,508.24 271.96,508.24 L271.96,506.64 L268.76,506.64 L268.76,522 L271.96,522 L271.96,513.68 C271.96,510.8 273.56,509.2 275.96,509.2 C276.76,509.2 277.4,509.36 277.4,509.36 Z M281.88,504.72 C281.88,506 281.24,506.64 280.28,506.64 L278.68,506.64 L278.68,509.52 L281.56,509.52 L281.56,517.52 C281.56,520.72 283.16,522.32 286.04,522.32 C287.32,522.32 288.28,522 288.28,522 L288.28,519.12 C288.28,519.12 287.48,519.44 286.68,519.44 C285.56,519.44 284.76,518.64 284.76,517.488 L284.76,509.52 L287.96,509.52 L287.96,506.64 L284.76,506.64 L284.76,501.52 L281.88,501.52 L281.88,504.72 Z M297.56,514.32 C297.56,518.64 301.24,522.32 305.56,522.32 C309.56,522.32 311.96,519.12 311.96,519.12 L309.88,517.04 C309.88,517.04 308.28,519.44 305.56,519.44 C303,519.44 300.76,517.2 300.76,514.32 C300.76,511.44 303,509.2 305.56,509.2 C308.28,509.2 309.72,511.44 309.72,511.44 L311.8,509.36 C311.8,509.36 309.56,506.32 305.56,506.32 C301.24,506.32 297.56,510 297.56,514.32 Z M327,514.32 C327,511.44 324.76,509.2 322.2,509.2 C319.64,509.2 317.4,511.44 317.4,514.32 C317.4,517.2 319.64,519.44 322.2,519.44 C324.76,519.44 327,517.2 327,514.32 Z M314.2,514.32 C314.2,510 317.88,506.32 322.2,506.32 C326.52,506.32 330.2,510 330.2,514.32 C330.2,518.64 326.52,522.32 322.2,522.32 C317.88,522.32 314.2,518.64 314.2,514.32 Z M336.92,506.64 L333.72,506.64 L333.72,522 L336.92,522 L336.92,513.68 C336.92,510.8 338.52,509.2 340.92,509.2 C343,509.2 344.6,510.8 344.6,513.04 L344.6,522 L347.8,522 L347.8,513.04 C347.8,508.88 345.24,506.32 341.56,506.32 C338.68,506.32 336.92,508.24 336.92,508.24 L336.92,506.64 Z M362.04,508.4 C362.04,508.4 360.44,506.32 357.08,506.32 C353.88,506.32 351.64,508.56 351.64,510.8 C351.64,516.24 359.48,514.64 359.48,517.52 C359.48,518.64 358.68,519.44 356.92,519.44 C354.52,519.44 353.08,517.52 353.08,517.52 L351,519.6 C351,519.6 352.92,522.32 356.92,522.32 C360.44,522.32 362.68,520.08 362.68,517.52 C362.68,512.08 354.84,513.68 354.84,510.8 C354.84,510 355.64,509.2 357.08,509.2 C358.84,509.2 359.96,510.48 359.96,510.48 L362.04,508.4 Z M368.12,504.72 C368.12,506 367.48,506.64 366.52,506.64 L364.92,506.64 L364.92,509.52 L367.8,509.52 L367.8,517.52 C367.8,520.72 369.4,522.32 372.28,522.32 C373.56,522.32 374.52,522 374.52,522 L374.52,519.12 C374.52,519.12 373.72,519.44 372.92,519.44 C371.8,519.44 371,518.64 371,517.488 L371,509.52 L374.2,509.52 L374.2,506.64 L371,506.64 L371,501.52 L368.12,501.52 L368.12,504.72 Z M393.4,509.36 L393.4,506.32 L392.6,506.32 C389.72,506.32 387.96,508.24 387.96,508.24 L387.96,506.64 L384.76,506.64 L384.76,522 L387.96,522 L387.96,513.68 C387.96,510.8 389.56,509.2 391.96,509.2 C392.76,509.2 393.4,509.36 393.4,509.36 Z M410.2,515.44 L398.2,515.44 C398.52,517.52 400.44,519.44 403,519.44 C406.04,519.44 407.64,517.04 407.64,517.04 L409.72,519.12 C409.72,519.12 407.32,522.32 403,522.32 C398.68,522.32 395,518.64 395,514.16 C395,509.84 398.52,506.32 402.84,506.32 C407.16,506.32 410.36,509.52 410.36,513.84 C410.36,514.8 410.2,515.44 410.2,515.44 Z M402.84,509.04 C400.44,509.04 398.84,510.64 398.328,512.72 L407.224,512.72 C406.84,510.64 405.24,509.04 402.84,509.04 Z M420.44,506.32 C423.48,506.32 425.4,508.4 425.4,508.4 L425.4,499.6 L428.6,499.6 L428.6,522 L425.4,522 L425.4,520.24 C425.4,520.24 423.48,522.32 420.44,522.32 C416.44,522.32 412.92,518.8 412.92,514.32 C412.92,509.84 416.44,506.32 420.44,506.32 Z M420.76,519.44 C423.16,519.44 425.4,517.2 425.4,514.32 C425.4,511.44 423.16,509.2 420.76,509.2 C418.36,509.2 416.12,511.44 416.12,514.32 C416.12,517.2 418.36,519.44 420.76,519.44 Z M444.28,522 L447.48,522 L447.48,506.64 L444.28,506.64 L444.28,514.96 C444.28,517.84 442.68,519.44 440.28,519.44 C438.2,519.44 436.6,517.84 436.6,515.6 L436.6,506.64 L433.4,506.64 L433.4,515.6 C433.4,519.76 435.96,522.32 439.64,522.32 C442.52,522.32 444.28,520.4 444.28,520.4 L444.28,522 Z M451.16,514.32 C451.16,518.64 454.84,522.32 459.16,522.32 C463.16,522.32 465.56,519.12 465.56,519.12 L463.48,517.04 C463.48,517.04 461.88,519.44 459.16,519.44 C456.6,519.44 454.36,517.2 454.36,514.32 C454.36,511.44 456.6,509.2 459.16,509.2 C461.88,509.2 463.32,511.44 463.32,511.44 L465.4,509.36 C465.4,509.36 463.16,506.32 459.16,506.32 C454.84,506.32 451.16,510 451.16,514.32 Z M483,515.44 L471,515.44 C471.32,517.52 473.24,519.44 475.8,519.44 C478.84,519.44 480.44,517.04 480.44,517.04 L482.52,519.12 C482.52,519.12 480.12,522.32 475.8,522.32 C471.48,522.32 467.8,518.64 467.8,514.16 C467.8,509.84 471.32,506.32 475.64,506.32 C479.96,506.32 483.16,509.52 483.16,513.84 C483.16,514.8 483,515.44 483,515.44 Z M475.64,509.04 C473.24,509.04 471.64,510.64 471.128,512.72 L480.024,512.72 C479.64,510.64 478.04,509.04 475.64,509.04 Z M495.32,509.36 L495.32,506.32 L494.52,506.32 C491.64,506.32 489.88,508.24 489.88,508.24 L489.88,506.64 L486.68,506.64 L486.68,522 L489.88,522 L489.88,513.68 C489.88,510.8 491.48,509.2 493.88,509.2 C494.68,509.2 495.32,509.36 495.32,509.36 Z M507.64,508.4 C507.64,508.4 506.04,506.32 502.68,506.32 C499.48,506.32 497.24,508.56 497.24,510.8 C497.24,516.24 505.08,514.64 505.08,517.52 C505.08,518.64 504.28,519.44 502.52,519.44 C500.12,519.44 498.68,517.52 498.68,517.52 L496.6,519.6 C496.6,519.6 498.52,522.32 502.52,522.32 C506.04,522.32 508.28,520.08 508.28,517.52 C508.28,512.08 500.44,513.68 500.44,510.8 C500.44,510 501.24,509.2 502.68,509.2 C504.44,509.2 505.56,510.48 505.56,510.48 L507.64,508.4 Z M511.32,520.24 C511.32,521.36 512.28,522.32 513.4,522.32 C514.52,522.32 515.48,521.36 515.48,520.24 C515.48,519.12 514.52,518.16 513.4,518.16 C512.28,518.16 511.32,519.12 511.32,520.24 Z M511.32,508.4 C511.32,509.52 512.28,510.48 513.4,510.48 C514.52,510.48 515.48,509.52 515.48,508.4 C515.48,507.28 514.52,506.32 513.4,506.32 C512.28,506.32 511.32,507.28 511.32,508.4 Z M524.12,522 L533.4,499.6 L536.92,499.6 L546.2,522 L542.52,522 L540.12,516.08 L530.2,516.08 L527.8,522 L524.12,522 Z M535.16,503.6 L531.48,512.88 L538.84,512.88 L535.16,503.6 Z M547.96,514.32 C547.96,518.64 551.64,522.32 555.96,522.32 C559.96,522.32 562.36,519.12 562.36,519.12 L560.28,517.04 C560.28,517.04 558.68,519.44 555.96,519.44 C553.4,519.44 551.16,517.2 551.16,514.32 C551.16,511.44 553.4,509.2 555.96,509.2 C558.68,509.2 560.12,511.44 560.12,511.44 L562.2,509.36 C562.2,509.36 559.96,506.32 555.96,506.32 C551.64,506.32 547.96,510 547.96,514.32 Z M567.48,504.72 C567.48,506 566.84,506.64 565.88,506.64 L564.28,506.64 L564.28,509.52 L567.16,509.52 L567.16,517.52 C567.16,520.72 568.76,522.32 571.64,522.32 C572.92,522.32 573.88,522 573.88,522 L573.88,519.12 C573.88,519.12 573.08,519.44 572.28,519.44 C571.16,519.44 570.36,518.64 570.36,517.488 L570.36,509.52 L573.56,509.52 L573.56,506.64 L570.36,506.64 L570.36,501.52 L567.48,501.52 L567.48,504.72 Z M581.08,506.64 L577.88,506.64 L577.88,522 L581.08,522 L581.08,506.64 Z M581.4,501.84 C581.4,500.72 580.6,499.92 579.48,499.92 C578.36,499.92 577.56,500.72 577.56,501.84 C577.56,502.96 578.36,503.76 579.48,503.76 C580.6,503.76 581.4,502.96 581.4,501.84 Z M597.56,514.32 C597.56,511.44 595.32,509.2 592.76,509.2 C590.2,509.2 587.96,511.44 587.96,514.32 C587.96,517.2 590.2,519.44 592.76,519.44 C595.32,519.44 597.56,517.2 597.56,514.32 Z M584.76,514.32 C584.76,510 588.44,506.32 592.76,506.32 C597.08,506.32 600.76,510 600.76,514.32 C600.76,518.64 597.08,522.32 592.76,522.32 C588.44,522.32 584.76,518.64 584.76,514.32 Z M607.48,506.64 L604.28,506.64 L604.28,522 L607.48,522 L607.48,513.68 C607.48,510.8 609.08,509.2 611.48,509.2 C613.56,509.2 615.16,510.8 615.16,513.04 L615.16,522 L618.36,522 L618.36,513.04 C618.36,508.88 615.8,506.32 612.12,506.32 C609.24,506.32 607.48,508.24 607.48,508.24 L607.48,506.64 Z M623.96,522 L623.96,499.6 L633.4,499.6 C637.56,499.6 640.6,502.64 640.6,506.48 C640.6,511.44 636.12,513.04 636.12,513.04 L641.24,522 L637.4,522 L632.6,513.36 L627.48,513.36 L627.48,522 L623.96,522 Z M637.08,506.48 C637.08,504.4 635.48,502.8 633.4,502.8 L627.48,502.8 L627.48,510.16 L633.4,510.16 C635.48,510.16 637.08,508.56 637.08,506.48 Z M659.48,515.44 L647.48,515.44 C647.8,517.52 649.72,519.44 652.28,519.44 C655.32,519.44 656.92,517.04 656.92,517.04 L659,519.12 C659,519.12 656.6,522.32 652.28,522.32 C647.96,522.32 644.28,518.64 644.28,514.16 C644.28,509.84 647.8,506.32 652.12,506.32 C656.44,506.32 659.64,509.52 659.64,513.84 C659.64,514.8 659.48,515.44 659.48,515.44 Z M652.12,509.04 C649.72,509.04 648.12,510.64 647.608,512.72 L656.504,512.72 C656.12,510.64 654.52,509.04 652.12,509.04 Z M669.72,506.32 C672.76,506.32 674.68,508.4 674.68,508.4 L674.68,499.6 L677.88,499.6 L677.88,522 L674.68,522 L674.68,520.24 C674.68,520.24 672.76,522.32 669.72,522.32 C665.72,522.32 662.2,518.8 662.2,514.32 C662.2,509.84 665.72,506.32 669.72,506.32 Z M670.04,519.44 C672.44,519.44 674.68,517.2 674.68,514.32 C674.68,511.44 672.44,509.2 670.04,509.2 C667.64,509.2 665.4,511.44 665.4,514.32 C665.4,517.2 667.64,519.44 670.04,519.44 Z M693.56,522 L696.76,522 L696.76,506.64 L693.56,506.64 L693.56,514.96 C693.56,517.84 691.96,519.44 689.56,519.44 C687.48,519.44 685.88,517.84 685.88,515.6 L685.88,506.64 L682.68,506.64 L682.68,515.6 C682.68,519.76 685.24,522.32 688.92,522.32 C691.8,522.32 693.56,520.4 693.56,520.4 L693.56,522 Z M700.44,514.32 C700.44,518.64 704.12,522.32 708.44,522.32 C712.44,522.32 714.84,519.12 714.84,519.12 L712.76,517.04 C712.76,517.04 711.16,519.44 708.44,519.44 C705.88,519.44 703.64,517.2 703.64,514.32 C703.64,511.44 705.88,509.2 708.44,509.2 C711.16,509.2 712.6,511.44 712.6,511.44 L714.68,509.36 C714.68,509.36 712.44,506.32 708.44,506.32 C704.12,506.32 700.44,510 700.44,514.32 Z M729.72,517.04 C729.72,517.04 729.719999,517.040001 729.719998,517.040002 L729.72,517.04 Z M729.72,517.04 L731.8,519.12 C731.8,519.12 729.4,522.32 725.08,522.32 C720.76,522.32 717.08,518.64 717.08,514.16 C717.08,509.84 720.6,506.32 724.92,506.32 C729.24,506.32 732.44,509.52 732.44,513.84 C732.44,514.8 732.28,515.44 732.28,515.44 L720.28,515.44 C720.6,517.52 722.52,519.44 725.08,519.44 C728.118287,519.44 729.718197,517.042704 729.719998,517.040002 L729.72,517.04 Z M724.92,509.04 C722.52,509.04 720.92,510.64 720.408,512.72 L729.304,512.72 C728.92,510.64 727.32,509.04 724.92,509.04 Z M744.6,509.36 L744.6,506.32 L743.8,506.32 C740.92,506.32 739.16,508.24 739.16,508.24 L739.16,506.64 L735.96,506.64 L735.96,522 L739.16,522 L739.16,513.68 C739.16,510.8 740.76,509.2 743.16,509.2 C743.96,509.2 744.6,509.36 744.6,509.36 Z M759.96,510.48 L751.32,499.6 L748.28,499.6 L748.28,522 L751.8,522 L751.8,505.68 L759.96,515.92 L768.12,505.68 L768.12,522 L771.64,522 L771.64,499.6 L768.6,499.6 L759.96,510.48 Z M789.24,522 L786.04,522 L786.04,520.4 C786.04,520.4 784.28,522.32 781.4,522.32 C778.2,522.32 775.96,520.08 775.96,517.84 C775.96,515.28 777.72,513.52 780.44,513.04 L786.04,512.08 C786.04,510.48 784.76,509.2 782.84,509.2 C780.12,509.2 778.84,511.28 778.84,511.28 L776.76,509.2 C776.76,509.2 778.84,506.32 782.84,506.32 C786.68,506.32 789.24,508.88 789.24,512.08 L789.24,522 Z M781.88,519.44 C784.44,519.44 786.04,517.84 786.04,514.96 L786.04,514.64 L781.08,515.44 C779.96,515.632 779.16,516.4 779.16,517.52 C779.16,518.48 780.12,519.44 781.88,519.44 Z M801.88,522.32 C798.84,522.32 796.92,520.24 796.92,520.24 L796.92,528.72 L793.72,528.72 L793.72,506.64 L796.92,506.64 L796.92,508.4 C796.92,508.4 798.84,506.32 801.88,506.32 C805.88,506.32 809.4,509.84 809.4,514.32 C809.4,518.8 805.88,522.32 801.88,522.32 Z M801.56,509.2 C799.16,509.2 796.92,511.44 796.92,514.32 C796.92,517.2 799.16,519.44 801.56,519.44 C803.96,519.44 806.2,517.2 806.2,514.32 C806.2,511.44 803.96,509.2 801.56,509.2 Z M812.12,514.96 L825.56,522 L825.56,518.8 L816.6,514.16 L825.56,509.52 L825.56,506.32 L812.12,513.36 L812.12,514.96 Z M830.04,499.6 L830.04,522 L833.56,522 L833.56,512.24 L843.16,512.24 L843.16,509.04 L833.56,509.04 L833.56,502.8 L845.72,502.8 L845.72,499.6 L830.04,499.6 Z M861.72,515.44 L849.72,515.44 C850.04,517.52 851.96,519.44 854.52,519.44 C857.56,519.44 859.16,517.04 859.16,517.04 L861.24,519.12 C861.24,519.12 858.84,522.32 854.52,522.32 C850.2,522.32 846.52,518.64 846.52,514.16 C846.52,509.84 850.04,506.32 854.36,506.32 C858.68,506.32 861.88,509.52 861.88,513.84 C861.88,514.8 861.72,515.44 861.72,515.44 Z M854.36,509.04 C851.96,509.04 850.36,510.64 849.848,512.72 L858.744,512.72 C858.36,510.64 856.76,509.04 854.36,509.04 Z M877.72,522 L874.52,522 L874.52,520.4 C874.52,520.4 872.76,522.32 869.88,522.32 C866.68,522.32 864.44,520.08 864.44,517.84 C864.44,515.28 866.2,513.52 868.92,513.04 L874.52,512.08 C874.52,510.48 873.24,509.2 871.32,509.2 C868.6,509.2 867.32,511.28 867.32,511.28 L865.24,509.2 C865.24,509.2 867.32,506.32 871.32,506.32 C875.16,506.32 877.72,508.88 877.72,512.08 L877.72,522 Z M870.36,519.44 C872.92,519.44 874.52,517.84 874.52,514.96 L874.52,514.64 L869.56,515.44 C868.44,515.632 867.64,516.4 867.64,517.52 C867.64,518.48 868.6,519.44 870.36,519.44 Z M884.12,504.72 C884.12,506 883.48,506.64 882.52,506.64 L880.92,506.64 L880.92,509.52 L883.8,509.52 L883.8,517.52 C883.8,520.72 885.4,522.32 888.28,522.32 C889.56,522.32 890.52,522 890.52,522 L890.52,519.12 C890.52,519.12 889.72,519.44 888.92,519.44 C887.8,519.44 887,518.64 887,517.488 L887,509.52 L890.2,509.52 L890.2,506.64 L887,506.64 L887,501.52 L884.12,501.52 L884.12,504.72 Z M905.24,522 L908.44,522 L908.44,506.64 L905.24,506.64 L905.24,514.96 C905.24,517.84 903.64,519.44 901.24,519.44 C899.16,519.44 897.56,517.84 897.56,515.6 L897.56,506.64 L894.36,506.64 L894.36,515.6 C894.36,519.76 896.92,522.32 900.6,522.32 C903.48,522.32 905.24,520.4 905.24,520.4 L905.24,522 Z M921.72,509.36 L921.72,506.32 L920.92,506.32 C918.04,506.32 916.28,508.24 916.28,508.24 L916.28,506.64 L913.08,506.64 L913.08,522 L916.28,522 L916.28,513.68 C916.28,510.8 917.88,509.2 920.28,509.2 C921.08,509.2 921.72,509.36 921.72,509.36 Z M935.96,517.04 C935.96,517.04 935.96,517.04 935.96,517.04 L935.96,517.04 Z M935.96,517.04 L938.04,519.12 C938.04,519.12 935.64,522.32 931.32,522.32 C927,522.32 923.32,518.64 923.32,514.16 C923.32,509.84 926.84,506.32 931.16,506.32 C935.48,506.32 938.68,509.52 938.68,513.84 C938.68,514.8 938.52,515.44 938.52,515.44 L926.52,515.44 C926.84,517.52 928.76,519.44 931.32,519.44 C934.359305,519.44 935.959268,517.041097 935.96,517.04 L935.96,517.04 Z M931.16,509.04 C928.76,509.04 927.16,510.64 926.648,512.72 L935.544,512.72 C935.16,510.64 933.56,509.04 931.16,509.04 Z M953.88,515.6 C953.88,517.52 952.28,519.12 949.4,519.12 C945.4,519.12 943.64,516.56 943.64,516.56 L941.4,518.8 C941.4,518.8 943.96,522.32 949.4,522.32 C954.52,522.32 957.4,519.44 957.4,515.6 C957.4,507.28 945.56,510.48 945.56,505.36 C945.56,503.92 947,502.48 949.4,502.48 C952.44,502.48 953.88,504.4 953.88,504.4 L956.12,502.16 C956.12,502.16 953.88,499.28 949.4,499.28 C944.76,499.28 942.04,502 942.04,505.36 C942.04,513.68 953.88,510.48 953.88,515.6 Z M963,504.72 C963,506 962.36,506.64 961.4,506.64 L959.8,506.64 L959.8,509.52 L962.68,509.52 L962.68,517.52 C962.68,520.72 964.28,522.32 967.16,522.32 C968.44,522.32 969.4,522 969.4,522 L969.4,519.12 C969.4,519.12 968.6,519.44 967.8,519.44 C966.68,519.44 965.88,518.64 965.88,517.488 L965.88,509.52 L969.08,509.52 L969.08,506.64 L965.88,506.64 L965.88,501.52 L963,501.52 L963,504.72 Z M984.92,522 L981.72,522 L981.72,520.4 C981.72,520.4 979.96,522.32 977.08,522.32 C973.88,522.32 971.64,520.08 971.64,517.84 C971.64,515.28 973.4,513.52 976.12,513.04 L981.72,512.08 C981.72,510.48 980.44,509.2 978.52,509.2 C975.8,509.2 974.52,511.28 974.52,511.28 L972.44,509.2 C972.44,509.2 974.52,506.32 978.52,506.32 C982.36,506.32 984.92,508.88 984.92,512.08 L984.92,522 Z M977.56,519.44 C980.12,519.44 981.72,517.84 981.72,514.96 L981.72,514.64 L976.76,515.44 C975.64,515.632 974.84,516.4 974.84,517.52 C974.84,518.48 975.8,519.44 977.56,519.44 Z M991.32,504.72 C991.32,506 990.68,506.64 989.72,506.64 L988.12,506.64 L988.12,509.52 L991,509.52 L991,517.52 C991,520.72 992.6,522.32 995.48,522.32 C996.76,522.32 997.72,522 997.72,522 L997.72,519.12 C997.72,519.12 996.92,519.44 996.12,519.44 C995,519.44 994.2,518.64 994.2,517.488 L994.2,509.52 L997.4,509.52 L997.4,506.64 L994.2,506.64 L994.2,501.52 L991.32,501.52 L991.32,504.72 Z M1015.16,515.44 L1003.16,515.44 C1003.48,517.52 1005.4,519.44 1007.96,519.44 C1011,519.44 1012.6,517.04 1012.6,517.04 L1014.68,519.12 C1014.68,519.12 1012.28,522.32 1007.96,522.32 C1003.64,522.32 999.96,518.64 999.96,514.16 C999.96,509.84 1003.48,506.32 1007.8,506.32 C1012.12,506.32 1015.32,509.52 1015.32,513.84 C1015.32,514.8 1015.16,515.44 1015.16,515.44 Z M1007.8,509.04 C1005.4,509.04 1003.8,510.64 1003.288,512.72 L1012.184,512.72 C1011.8,510.64 1010.2,509.04 1007.8,509.04 Z M1031.48,513.36 L1018.04,506.32 L1018.04,509.52 L1027,514.16 L1018.04,518.8 L1018.04,522 L1031.48,514.96 L1031.48,513.36 Z M1053.56,514 L1040.44,514 L1040.44,516.88 L1053.56,516.88 L1053.56,514 Z M1053.56,508.24 L1040.44,508.24 L1040.44,511.12 L1053.56,511.12 L1053.56,508.24 Z M1063.16,515.28 C1064.44,515.28 1065.08,515.92 1065.08,517.2 L1065.08,524.08 C1065.08,526.96 1066.84,528.72 1070.04,528.72 L1071.8,528.72 L1071.8,526.16 L1070.04,526.16 C1068.76,526.16 1067.96,525.36 1067.96,524.08 L1067.96,517.2 C1067.96,514.32 1066.2,514 1066.232,514 C1066.2,514 1067.96,513.68 1067.96,510.8 L1067.96,503.92 C1067.96,502.64 1068.76,501.84 1070.04,501.84 L1071.8,501.84 L1071.8,499.28 L1070.04,499.28 C1066.84,499.28 1065.08,501.04 1065.08,503.92 L1065.08,510.8 C1065.08,512.08 1064.44,512.72 1063.16,512.72 L1063.16,515.28 Z M211.8,546.72 C211.8,548 211.16,548.64 210.2,548.64 L208.6,548.64 L208.6,551.52 L211.48,551.52 L211.48,559.52 C211.48,562.72 213.08,564.32 215.96,564.32 C217.24,564.32 218.2,564 218.2,564 L218.2,561.12 C218.2,561.12 217.4,561.44 216.6,561.44 C215.48,561.44 214.68,560.64 214.68,559.488 L214.68,551.52 L217.88,551.52 L217.88,548.64 L214.68,548.64 L214.68,543.52 L211.8,543.52 L211.8,546.72 Z M233.24,556.32 C233.24,553.44 231,551.2 228.44,551.2 C225.88,551.2 223.64,553.44 223.64,556.32 C223.64,559.2 225.88,561.44 228.44,561.44 C231,561.44 233.24,559.2 233.24,556.32 Z M220.44,556.32 C220.44,552 224.12,548.32 228.44,548.32 C232.76,548.32 236.44,552 236.44,556.32 C236.44,560.64 232.76,564.32 228.44,564.32 C224.12,564.32 220.44,560.64 220.44,556.32 Z M246.52,548.32 C249.56,548.32 251.48,550.4 251.48,550.4 L251.48,541.6 L254.68,541.6 L254.68,564 L251.48,564 L251.48,562.24 C251.48,562.24 249.56,564.32 246.52,564.32 C242.52,564.32 239,560.8 239,556.32 C239,551.84 242.52,548.32 246.52,548.32 Z M246.84,561.44 C249.24,561.44 251.48,559.2 251.48,556.32 C251.48,553.44 249.24,551.2 246.84,551.2 C244.44,551.2 242.2,553.44 242.2,556.32 C242.2,559.2 244.44,561.44 246.84,561.44 Z M271.32,556.32 C271.32,553.44 269.08,551.2 266.52,551.2 C263.96,551.2 261.72,553.44 261.72,556.32 C261.72,559.2 263.96,561.44 266.52,561.44 C269.08,561.44 271.32,559.2 271.32,556.32 Z M258.52,556.32 C258.52,552 262.2,548.32 266.52,548.32 C270.84,548.32 274.52,552 274.52,556.32 C274.52,560.64 270.84,564.32 266.52,564.32 C262.2,564.32 258.52,560.64 258.52,556.32 Z M287.8,550.4 C287.8,550.4 286.2,548.32 282.84,548.32 C279.64,548.32 277.4,550.56 277.4,552.8 C277.4,558.24 285.24,556.64 285.24,559.52 C285.24,560.64 284.44,561.44 282.68,561.44 C280.28,561.44 278.84,559.52 278.84,559.52 L276.76,561.6 C276.76,561.6 278.68,564.32 282.68,564.32 C286.2,564.32 288.44,562.08 288.44,559.52 C288.44,554.08 280.6,555.68 280.6,552.8 C280.6,552 281.4,551.2 282.84,551.2 C284.6,551.2 285.72,552.48 285.72,552.48 L287.8,550.4 Z M291.48,562.24 C291.48,563.36 292.44,564.32 293.56,564.32 C294.68,564.32 295.64,563.36 295.64,562.24 C295.64,561.12 294.68,560.16 293.56,560.16 C292.44,560.16 291.48,561.12 291.48,562.24 Z M291.48,550.4 C291.48,551.52 292.44,552.48 293.56,552.48 C294.68,552.48 295.64,551.52 295.64,550.4 C295.64,549.28 294.68,548.32 293.56,548.32 C292.44,548.32 291.48,549.28 291.48,550.4 Z M313.4,548.64 L309.88,548.64 L309.88,546.112 C309.88,544.96 310.68,544.16 311.8,544.16 C312.6,544.16 313.4,544.48 313.4,544.48 L313.4,541.6 C313.4,541.6 312.44,541.28 311.16,541.28 C308.28,541.28 306.68,542.88 306.68,546.08 L306.68,548.64 L304.44,548.64 L304.44,551.52 L306.68,551.52 L306.68,564 L309.88,564 L309.88,551.52 L313.4,551.52 L313.4,548.64 Z M325.24,551.36 L325.24,548.32 L324.44,548.32 C321.56,548.32 319.8,550.24 319.8,550.24 L319.8,548.64 L316.6,548.64 L316.6,564 L319.8,564 L319.8,555.68 C319.8,552.8 321.4,551.2 323.8,551.2 C324.6,551.2 325.24,551.36 325.24,551.36 Z M339.64,556.32 C339.64,553.44 337.4,551.2 334.84,551.2 C332.28,551.2 330.04,553.44 330.04,556.32 C330.04,559.2 332.28,561.44 334.84,561.44 C337.4,561.44 339.64,559.2 339.64,556.32 Z M326.84,556.32 C326.84,552 330.52,548.32 334.84,548.32 C339.16,548.32 342.84,552 342.84,556.32 C342.84,560.64 339.16,564.32 334.84,564.32 C330.52,564.32 326.84,560.64 326.84,556.32 Z M366.2,564 L369.4,564 L369.4,555.04 C369.4,550.56 367.16,548.32 363.64,548.32 C360.12,548.32 358.36,550.88 358.36,550.88 C358.36,550.88 357.08,548.32 353.72,548.32 C351.16,548.32 349.56,550.24 349.56,550.24 L349.56,548.64 L346.36,548.64 L346.36,564 L349.56,564 L349.56,555.68 C349.56,552.8 351.16,551.2 353.08,551.2 C355,551.2 356.28,552.48 356.28,555.04 L356.28,564 L359.48,564 L359.48,555.68 C359.48,552.8 361.08,551.2 363,551.2 C364.92,551.2 366.2,552.48 366.2,555.04 L366.2,564 Z M372.44,541.6 L389.4,541.6 L389.4,544.8 L382.68,544.8 L382.68,564 L379.16,564 L379.16,544.8 L372.44,544.8 L372.44,541.6 Z M402.04,556.32 C402.04,553.44 399.8,551.2 397.24,551.2 C394.68,551.2 392.44,553.44 392.44,556.32 C392.44,559.2 394.68,561.44 397.24,561.44 C399.8,561.44 402.04,559.2 402.04,556.32 Z M389.24,556.32 C389.24,552 392.92,548.32 397.24,548.32 C401.56,548.32 405.24,552 405.24,556.32 C405.24,560.64 401.56,564.32 397.24,564.32 C392.92,564.32 389.24,560.64 389.24,556.32 Z M415.32,548.32 C418.36,548.32 420.28,550.4 420.28,550.4 L420.28,541.6 L423.48,541.6 L423.48,564 L420.28,564 L420.28,562.24 C420.28,562.24 418.36,564.32 415.32,564.32 C411.32,564.32 407.8,560.8 407.8,556.32 C407.8,551.84 411.32,548.32 415.32,548.32 Z M415.64,561.44 C418.04,561.44 420.28,559.2 420.28,556.32 C420.28,553.44 418.04,551.2 415.64,551.2 C413.24,551.2 411,553.44 411,556.32 C411,559.2 413.24,561.44 415.64,561.44 Z M440.12,556.32 C440.12,553.44 437.88,551.2 435.32,551.2 C432.76,551.2 430.52,553.44 430.52,556.32 C430.52,559.2 432.76,561.44 435.32,561.44 C437.88,561.44 440.12,559.2 440.12,556.32 Z M427.32,556.32 C427.32,552 431,548.32 435.32,548.32 C439.64,548.32 443.32,552 443.32,556.32 C443.32,560.64 439.64,564.32 435.32,564.32 C431,564.32 427.32,560.64 427.32,556.32 Z M456.6,550.4 C456.6,550.4 455,548.32 451.64,548.32 C448.44,548.32 446.2,550.56 446.2,552.8 C446.2,558.24 454.04,556.64 454.04,559.52 C454.04,560.64 453.24,561.44 451.48,561.44 C449.08,561.44 447.64,559.52 447.64,559.52 L445.56,561.6 C445.56,561.6 447.48,564.32 451.48,564.32 C455,564.32 457.24,562.08 457.24,559.52 C457.24,554.08 449.4,555.68 449.4,552.8 C449.4,552 450.2,551.2 451.64,551.2 C453.4,551.2 454.52,552.48 454.52,552.48 L456.6,550.4 Z M464.44,562.24 C464.44,561.12 463.48,560.16 462.36,560.16 C461.24,560.16 460.28,561.12 460.28,562.24 C460.28,563.36 461.24,564.32 462.36,564.32 C463.48,564.32 464.44,563.36 464.44,562.24 Z M476.76,551.36 L476.76,548.32 L475.96,548.32 C473.08,548.32 471.32,550.24 471.32,550.24 L471.32,548.64 L468.12,548.64 L468.12,564 L471.32,564 L471.32,555.68 C471.32,552.8 472.92,551.2 475.32,551.2 C476.12,551.2 476.76,551.36 476.76,551.36 Z M493.56,557.44 L481.56,557.44 C481.88,559.52 483.8,561.44 486.36,561.44 C489.4,561.44 491,559.04 491,559.04 L493.08,561.12 C493.08,561.12 490.68,564.32 486.36,564.32 C482.04,564.32 478.36,560.64 478.36,556.16 C478.36,551.84 481.88,548.32 486.2,548.32 C490.52,548.32 493.72,551.52 493.72,555.84 C493.72,556.8 493.56,557.44 493.56,557.44 Z M486.2,551.04 C483.8,551.04 482.2,552.64 481.688,554.72 L490.584,554.72 C490.2,552.64 488.6,551.04 486.2,551.04 Z M503.8,548.32 C506.84,548.32 508.76,550.4 508.76,550.4 L508.76,541.6 L511.96,541.6 L511.96,564 L508.76,564 L508.76,562.24 C508.76,562.24 506.84,564.32 503.8,564.32 C499.8,564.32 496.28,560.8 496.28,556.32 C496.28,551.84 499.8,548.32 503.8,548.32 Z M504.12,561.44 C506.52,561.44 508.76,559.2 508.76,556.32 C508.76,553.44 506.52,551.2 504.12,551.2 C501.72,551.2 499.48,553.44 499.48,556.32 C499.48,559.2 501.72,561.44 504.12,561.44 Z M527.64,564 L530.84,564 L530.84,548.64 L527.64,548.64 L527.64,556.96 C527.64,559.84 526.04,561.44 523.64,561.44 C521.56,561.44 519.96,559.84 519.96,557.6 L519.96,548.64 L516.76,548.64 L516.76,557.6 C516.76,561.76 519.32,564.32 523,564.32 C525.88,564.32 527.64,562.4 527.64,562.4 L527.64,564 Z M534.52,556.32 C534.52,560.64 538.2,564.32 542.52,564.32 C546.52,564.32 548.92,561.12 548.92,561.12 L546.84,559.04 C546.84,559.04 545.24,561.44 542.52,561.44 C539.96,561.44 537.72,559.2 537.72,556.32 C537.72,553.44 539.96,551.2 542.52,551.2 C545.24,551.2 546.68,553.44 546.68,553.44 L548.76,551.36 C548.76,551.36 546.52,548.32 542.52,548.32 C538.2,548.32 534.52,552 534.52,556.32 Z M566.36,557.44 L554.36,557.44 C554.68,559.52 556.6,561.44 559.16,561.44 C562.2,561.44 563.8,559.04 563.8,559.04 L565.88,561.12 C565.88,561.12 563.48,564.32 559.16,564.32 C554.84,564.32 551.16,560.64 551.16,556.16 C551.16,551.84 554.68,548.32 559,548.32 C563.32,548.32 566.52,551.52 566.52,555.84 C566.52,556.8 566.36,557.44 566.36,557.44 Z M559,551.04 C556.6,551.04 555,552.64 554.488,554.72 L563.384,554.72 C563,552.64 561.4,551.04 559,551.04 Z M578.68,551.36 L578.68,548.32 L577.88,548.32 C575,548.32 573.24,550.24 573.24,550.24 L573.24,548.64 L570.04,548.64 L570.04,564 L573.24,564 L573.24,555.68 C573.24,552.8 574.84,551.2 577.24,551.2 C578.04,551.2 578.68,551.36 578.68,551.36 Z M204.6,596.72 C203.32,596.72 202.68,596.08 202.68,594.8 L202.68,587.92 C202.68,585.04 200.92,583.28 197.72,583.28 L195.96,583.28 L195.96,585.84 L197.72,585.84 C199,585.84 199.8,586.64 199.8,587.92 L199.8,594.8 C199.8,597.68 201.56,598 201.528,598 C201.56,598 199.8,598.32 199.8,601.2 L199.8,608.08 C199.8,609.36 199,610.16 197.72,610.16 L195.96,610.16 L195.96,612.72 L197.72,612.72 C200.92,612.72 202.68,610.96 202.68,608.08 L202.68,601.2 C202.68,599.92 203.32,599.28 204.6,599.28 L204.6,596.72 Z M209.72,602.16 L206.52,609.04 L208.6,610.16 L212.6,603.76 L209.72,602.16 Z M208.6,592.4 C208.6,593.52 209.56,594.48 210.68,594.48 C211.8,594.48 212.76,593.52 212.76,592.4 C212.76,591.28 211.8,590.32 210.68,590.32 C209.56,590.32 208.6,591.28 208.6,592.4 Z" id="import-{-ActionReduc" fill="#545E6F"></path>
            <text id="REGISTERING-REDUCERS" font-family="TTNorms-Bold, TT Norms" font-size="24" font-weight="bold" fill="#FFFFFF">
                <tspan x="486.24" y="93">REGISTERING REDUCERS</tspan>
            </text>
        </g>
    </g>
</svg>