<?xml version="1.0" encoding="UTF-8"?>
<svg width="1280px" height="720px" viewBox="0 0 1280 720" version="1.1" xmlns="http://www.w3.org/2000/svg" xmlns:xlink="http://www.w3.org/1999/xlink" style="background: #FFFFFF;">
    <!-- Generator: Sketch 47.1 (45422) - http://www.bohemiancoding.com/sketch -->
    <title>initialstate</title>
    <desc>Created with Sketch.</desc>
    <defs></defs>
    <g id="Page-1" stroke="none" stroke-width="1" fill="none" fill-rule="evenodd">
        <g id="initialstate">
            <g id="Group" transform="translate(125.000000, 220.000000)">
                <rect id="Rectangle-7" fill="#F4F6F8" x="0" y="24" width="1030" height="256" rx="15"></rect>
                <path d="M15,0 L1015,0 L1015,1.77635684e-15 C1023.28427,5.91178485e-14 1030,6.71572875 1030,15 L1030,58 L0,58 L0,15 L-1.77635684e-15,15 C-2.79088747e-15,6.71572875 6.71572875,-2.54560899e-16 15,-1.77635684e-15 Z" id="Rectangle" fill="#4FB688"></path>
                <text id="IMPORTS" font-family="TTNorms-Bold, TT Norms" font-size="24" font-weight="bold" fill="#FFFFFF">
                    <tspan x="459" y="38">IMPORTS</tspan>
                </text>
            </g>
            <path d="M200.44,352.64 L197.24,352.64 L197.24,368 L200.44,368 L200.44,352.64 Z M200.76,347.84 C200.76,346.72 199.96,345.92 198.84,345.92 C197.72,345.92 196.92,346.72 196.92,347.84 C196.92,348.96 197.72,349.76 198.84,349.76 C199.96,349.76 200.76,348.96 200.76,347.84 Z M224.92,368 L228.12,368 L228.12,359.04 C228.12,354.56 225.88,352.32 222.36,352.32 C218.84,352.32 217.08,354.88 217.08,354.88 C217.08,354.88 215.8,352.32 212.44,352.32 C209.88,352.32 208.28,354.24 208.28,354.24 L208.28,352.64 L205.08,352.64 L205.08,368 L208.28,368 L208.28,359.68 C208.28,356.8 209.88,355.2 211.8,355.2 C213.72,355.2 215,356.48 215,359.04 L215,368 L218.2,368 L218.2,359.68 C218.2,356.8 219.8,355.2 221.72,355.2 C223.64,355.2 224.92,356.48 224.92,359.04 L224.92,368 Z M240.76,368.32 C237.72,368.32 235.8,366.24 235.8,366.24 L235.8,374.72 L232.6,374.72 L232.6,352.64 L235.8,352.64 L235.8,354.4 C235.8,354.4 237.72,352.32 240.76,352.32 C244.76,352.32 248.28,355.84 248.28,360.32 C248.28,364.8 244.76,368.32 240.76,368.32 Z M240.44,355.2 C238.04,355.2 235.8,357.44 235.8,360.32 C235.8,363.2 238.04,365.44 240.44,365.44 C242.84,365.44 245.08,363.2 245.08,360.32 C245.08,357.44 242.84,355.2 240.44,355.2 Z M263.64,360.32 C263.64,357.44 261.4,355.2 258.84,355.2 C256.28,355.2 254.04,357.44 254.04,360.32 C254.04,363.2 256.28,365.44 258.84,365.44 C261.4,365.44 263.64,363.2 263.64,360.32 Z M250.84,360.32 C250.84,356 254.52,352.32 258.84,352.32 C263.16,352.32 266.84,356 266.84,360.32 C266.84,364.64 263.16,368.32 258.84,368.32 C254.52,368.32 250.84,364.64 250.84,360.32 Z M279,355.36 L279,352.32 L278.2,352.32 C275.32,352.32 273.56,354.24 273.56,354.24 L273.56,352.64 L270.36,352.64 L270.36,368 L273.56,368 L273.56,359.68 C273.56,356.8 275.16,355.2 277.56,355.2 C278.36,355.2 279,355.36 279,355.36 Z M283.48,350.72 C283.48,352 282.84,352.64 281.88,352.64 L280.28,352.64 L280.28,355.52 L283.16,355.52 L283.16,363.52 C283.16,366.72 284.76,368.32 287.64,368.32 C288.92,368.32 289.88,368 289.88,368 L289.88,365.12 C289.88,365.12 289.08,365.44 288.28,365.44 C287.16,365.44 286.36,364.64 286.36,363.488 L286.36,355.52 L289.56,355.52 L289.56,352.64 L286.36,352.64 L286.36,347.52 L283.48,347.52 L283.48,350.72 Z M299.96,361.28 C301.24,361.28 301.88,361.92 301.88,363.2 L301.88,370.08 C301.88,372.96 303.64,374.72 306.84,374.72 L308.6,374.72 L308.6,372.16 L306.84,372.16 C305.56,372.16 304.76,371.36 304.76,370.08 L304.76,363.2 C304.76,360.32 303,360 303.032,360 C303,360 304.76,359.68 304.76,356.8 L304.76,349.92 C304.76,348.64 305.56,347.84 306.84,347.84 L308.6,347.84 L308.6,345.28 L306.84,345.28 C303.64,345.28 301.88,347.04 301.88,349.92 L301.88,356.8 C301.88,358.08 301.24,358.72 299.96,358.72 L299.96,361.28 Z M329.72,361.6 C329.72,363.52 328.12,365.12 325.24,365.12 C321.24,365.12 319.48,362.56 319.48,362.56 L317.24,364.8 C317.24,364.8 319.8,368.32 325.24,368.32 C330.36,368.32 333.24,365.44 333.24,361.6 C333.24,353.28 321.4,356.48 321.4,351.36 C321.4,349.92 322.84,348.48 325.24,348.48 C328.28,348.48 329.72,350.4 329.72,350.4 L331.96,348.16 C331.96,348.16 329.72,345.28 325.24,345.28 C320.6,345.28 317.88,348 317.88,351.36 C317.88,359.68 329.72,356.48 329.72,361.6 Z M338.84,350.72 C338.84,352 338.2,352.64 337.24,352.64 L335.64,352.64 L335.64,355.52 L338.52,355.52 L338.52,363.52 C338.52,366.72 340.12,368.32 343,368.32 C344.28,368.32 345.24,368 345.24,368 L345.24,365.12 C345.24,365.12 344.44,365.44 343.64,365.44 C342.52,365.44 341.72,364.64 341.72,363.488 L341.72,355.52 L344.92,355.52 L344.92,352.64 L341.72,352.64 L341.72,347.52 L338.84,347.52 L338.84,350.72 Z M360.28,360.32 C360.28,357.44 358.04,355.2 355.48,355.2 C352.92,355.2 350.68,357.44 350.68,360.32 C350.68,363.2 352.92,365.44 355.48,365.44 C358.04,365.44 360.28,363.2 360.28,360.32 Z M347.48,360.32 C347.48,356 351.16,352.32 355.48,352.32 C359.8,352.32 363.48,356 363.48,360.32 C363.48,364.64 359.8,368.32 355.48,368.32 C351.16,368.32 347.48,364.64 347.48,360.32 Z M375.64,355.36 L375.64,352.32 L374.84,352.32 C371.96,352.32 370.2,354.24 370.2,354.24 L370.2,352.64 L367,352.64 L367,368 L370.2,368 L370.2,359.68 C370.2,356.8 371.8,355.2 374.2,355.2 C375,355.2 375.64,355.36 375.64,355.36 Z M392.44,361.44 L380.44,361.44 C380.76,363.52 382.68,365.44 385.24,365.44 C388.28,365.44 389.88,363.04 389.88,363.04 L391.96,365.12 C391.96,365.12 389.56,368.32 385.24,368.32 C380.92,368.32 377.24,364.64 377.24,360.16 C377.24,355.84 380.76,352.32 385.08,352.32 C389.4,352.32 392.6,355.52 392.6,359.84 C392.6,360.8 392.44,361.44 392.44,361.44 Z M385.08,355.04 C382.68,355.04 381.08,356.64 380.568,358.72 L389.464,358.72 C389.08,356.64 387.48,355.04 385.08,355.04 Z M408.92,356.48 L400.28,345.6 L397.24,345.6 L397.24,368 L400.76,368 L400.76,351.68 L408.92,361.92 L417.08,351.68 L417.08,368 L420.6,368 L420.6,345.6 L417.56,345.6 L408.92,356.48 Z M437.72,360.32 C437.72,357.44 435.48,355.2 432.92,355.2 C430.36,355.2 428.12,357.44 428.12,360.32 C428.12,363.2 430.36,365.44 432.92,365.44 C435.48,365.44 437.72,363.2 437.72,360.32 Z M424.92,360.32 C424.92,356 428.6,352.32 432.92,352.32 C437.24,352.32 440.92,356 440.92,360.32 C440.92,364.64 437.24,368.32 432.92,368.32 C428.6,368.32 424.92,364.64 424.92,360.32 Z M451,352.32 C454.04,352.32 455.96,354.4 455.96,354.4 L455.96,345.6 L459.16,345.6 L459.16,368 L455.96,368 L455.96,366.24 C455.96,366.24 454.04,368.32 451,368.32 C447,368.32 443.48,364.8 443.48,360.32 C443.48,355.84 447,352.32 451,352.32 Z M451.32,365.44 C453.72,365.44 455.96,363.2 455.96,360.32 C455.96,357.44 453.72,355.2 451.32,355.2 C448.92,355.2 446.68,357.44 446.68,360.32 C446.68,363.2 448.92,365.44 451.32,365.44 Z M474.84,368 L478.04,368 L478.04,352.64 L474.84,352.64 L474.84,360.96 C474.84,363.84 473.24,365.44 470.84,365.44 C468.76,365.44 467.16,363.84 467.16,361.6 L467.16,352.64 L463.96,352.64 L463.96,361.6 C463.96,365.76 466.52,368.32 470.2,368.32 C473.08,368.32 474.84,366.4 474.84,366.4 L474.84,368 Z M486.2,345.6 L483,345.6 L483,368 L486.2,368 L486.2,345.6 Z M502.68,363.04 C502.68,363.04 502.679999,363.040001 502.679997,363.040004 L502.68,363.04 Z M502.68,363.04 L504.76,365.12 C504.76,365.12 502.36,368.32 498.04,368.32 C493.72,368.32 490.04,364.64 490.04,360.16 C490.04,355.84 493.56,352.32 497.88,352.32 C502.2,352.32 505.4,355.52 505.4,359.84 C505.4,360.8 505.24,361.44 505.24,361.44 L493.24,361.44 C493.56,363.52 495.48,365.44 498.04,365.44 C501.077796,365.44 502.677679,363.043479 502.679997,363.040004 L502.68,363.04 Z M497.88,355.04 C495.48,355.04 493.88,356.64 493.368,358.72 L502.264,358.72 C501.88,356.64 500.28,355.04 497.88,355.04 Z M522.84,358.72 C521.56,358.72 520.92,358.08 520.92,356.8 L520.92,349.92 C520.92,347.04 519.16,345.28 515.96,345.28 L514.2,345.28 L514.2,347.84 L515.96,347.84 C517.24,347.84 518.04,348.64 518.04,349.92 L518.04,356.8 C518.04,359.68 519.8,360 519.768,360 C519.8,360 518.04,360.32 518.04,363.2 L518.04,370.08 C518.04,371.36 517.24,372.16 515.96,372.16 L514.2,372.16 L514.2,374.72 L515.96,374.72 C519.16,374.72 520.92,372.96 520.92,370.08 L520.92,363.2 C520.92,361.92 521.56,361.28 522.84,361.28 L522.84,358.72 Z M540.92,352.64 L537.4,352.64 L537.4,350.112 C537.4,348.96 538.2,348.16 539.32,348.16 C540.12,348.16 540.92,348.48 540.92,348.48 L540.92,345.6 C540.92,345.6 539.96,345.28 538.68,345.28 C535.8,345.28 534.2,346.88 534.2,350.08 L534.2,352.64 L531.96,352.64 L531.96,355.52 L534.2,355.52 L534.2,368 L537.4,368 L537.4,355.52 L540.92,355.52 L540.92,352.64 Z M552.76,355.36 L552.76,352.32 L551.96,352.32 C549.08,352.32 547.32,354.24 547.32,354.24 L547.32,352.64 L544.12,352.64 L544.12,368 L547.32,368 L547.32,359.68 C547.32,356.8 548.92,355.2 551.32,355.2 C552.12,355.2 552.76,355.36 552.76,355.36 Z M567.16,360.32 C567.16,357.44 564.92,355.2 562.36,355.2 C559.8,355.2 557.56,357.44 557.56,360.32 C557.56,363.2 559.8,365.44 562.36,365.44 C564.92,365.44 567.16,363.2 567.16,360.32 Z M554.36,360.32 C554.36,356 558.04,352.32 562.36,352.32 C566.68,352.32 570.36,356 570.36,360.32 C570.36,364.64 566.68,368.32 562.36,368.32 C558.04,368.32 554.36,364.64 554.36,360.32 Z M593.72,368 L596.92,368 L596.92,359.04 C596.92,354.56 594.68,352.32 591.16,352.32 C587.64,352.32 585.88,354.88 585.88,354.88 C585.88,354.88 584.6,352.32 581.24,352.32 C578.68,352.32 577.08,354.24 577.08,354.24 L577.08,352.64 L573.88,352.64 L573.88,368 L577.08,368 L577.08,359.68 C577.08,356.8 578.68,355.2 580.6,355.2 C582.52,355.2 583.8,356.48 583.8,359.04 L583.8,368 L587,368 L587,359.68 C587,356.8 588.6,355.2 590.52,355.2 C592.44,355.2 593.72,356.48 593.72,359.04 L593.72,368 Z M610.52,345.6 L607.64,345.6 L607.64,352.32 L610.52,352.32 L610.52,345.6 Z M626.84,356.48 C624.92,356.48 623.32,358.08 623.32,360.16 C623.32,362.24 624.92,363.84 626.84,363.84 C628.6,363.84 630.04,362.4 630.04,360.16 C630.04,357.92 628.6,356.48 626.84,356.48 Z M626.52,354.24 C628.92,354.24 630.04,355.68 630.04,355.68 L630.04,354.4 L632.28,354.4 L632.28,361.92 C632.28,363.04 633.08,363.84 634.04,363.84 C635.48,363.84 636.76,362.56 636.76,359.36 C636.76,354.24 632.6,350.08 627,350.08 C621.72,350.08 617.24,354.56 617.24,360 C617.24,365.44 621.72,369.92 627,369.92 C630.68,369.92 632.76,367.84 632.76,367.84 L634.2,369.6 C634.2,369.6 631.64,372.16 627,372.16 C620.28,372.16 614.68,366.56 614.68,360 C614.68,353.44 620.28,347.84 627,347.84 C634.04,347.84 639.32,353.12 639.32,359.36 C639.32,363.84 637.08,366.08 634.04,366.08 C631.64,366.08 630.52,364.16 630.52,364.16 C630.52,364.16 629.4,366.08 626.52,366.08 C623.48,366.08 620.92,363.52 620.92,360.16 C620.92,356.8 623.48,354.24 626.52,354.24 Z M646.84,352.64 L643.64,352.64 L643.64,368 L646.84,368 L646.84,359.68 C646.84,356.8 648.44,355.2 650.84,355.2 C652.92,355.2 654.52,356.8 654.52,359.04 L654.52,368 L657.72,368 L657.72,359.04 C657.72,354.88 655.16,352.32 651.48,352.32 C648.6,352.32 646.84,354.24 646.84,354.24 L646.84,352.64 Z M673.08,367.072 L673.08,365.76 C673.08,365.76 671.32,367.68 668.44,367.68 C664.6,367.68 661.24,364.32 661.24,360 C661.24,355.68 664.6,352.32 668.44,352.32 C671.32,352.32 673.08,354.24 673.08,354.24 L673.08,352.64 L676.28,352.64 L676.28,367.04 C676.28,371.36 672.92,374.72 668.6,374.72 C663.96,374.72 661.72,371.52 661.72,371.52 L663.8,369.44 C663.8,369.44 665.56,371.84 668.6,371.84 C671.16,371.84 673.08,369.92 673.08,367.072 Z M664.44,360 C664.44,362.72 666.52,364.8 668.76,364.8 C671,364.8 673.08,362.72 673.08,360 C673.08,357.28 671,355.2 668.76,355.2 C666.52,355.2 664.44,357.28 664.44,360 Z M689.4,355.36 L689.4,352.32 L688.6,352.32 C685.72,352.32 683.96,354.24 683.96,354.24 L683.96,352.64 L680.76,352.64 L680.76,368 L683.96,368 L683.96,359.68 C683.96,356.8 685.56,355.2 687.96,355.2 C688.76,355.2 689.4,355.36 689.4,355.36 Z M699.64,360 L704.92,352.64 L701.24,352.64 L697.72,357.6 L694.2,352.64 L690.52,352.64 L695.8,360 L690.04,368 L693.72,368 L697.72,362.4 L701.72,368 L705.4,368 L699.64,360 Z M719.32,345.28 L716.44,345.28 L706.84,374.72 L709.72,374.72 L719.32,345.28 Z M732.12,354.4 C732.12,354.4 730.52,352.32 727.16,352.32 C723.96,352.32 721.72,354.56 721.72,356.8 C721.72,362.24 729.56,360.64 729.56,363.52 C729.56,364.64 728.76,365.44 727,365.44 C724.6,365.44 723.16,363.52 723.16,363.52 L721.08,365.6 C721.08,365.6 723,368.32 727,368.32 C730.52,368.32 732.76,366.08 732.76,363.52 C732.76,358.08 724.92,359.68 724.92,356.8 C724.92,356 725.72,355.2 727.16,355.2 C728.92,355.2 730.04,356.48 730.04,356.48 L732.12,354.4 Z M738.2,350.72 C738.2,352 737.56,352.64 736.6,352.64 L735,352.64 L735,355.52 L737.88,355.52 L737.88,363.52 C737.88,366.72 739.48,368.32 742.36,368.32 C743.64,368.32 744.6,368 744.6,368 L744.6,365.12 C744.6,365.12 743.8,365.44 743,365.44 C741.88,365.44 741.08,364.64 741.08,363.488 L741.08,355.52 L744.28,355.52 L744.28,352.64 L741.08,352.64 L741.08,347.52 L738.2,347.52 L738.2,350.72 Z M759.64,360.32 C759.64,357.44 757.4,355.2 754.84,355.2 C752.28,355.2 750.04,357.44 750.04,360.32 C750.04,363.2 752.28,365.44 754.84,365.44 C757.4,365.44 759.64,363.2 759.64,360.32 Z M746.84,360.32 C746.84,356 750.52,352.32 754.84,352.32 C759.16,352.32 762.84,356 762.84,360.32 C762.84,364.64 759.16,368.32 754.84,368.32 C750.52,368.32 746.84,364.64 746.84,360.32 Z M775,355.36 L775,352.32 L774.2,352.32 C771.32,352.32 769.56,354.24 769.56,354.24 L769.56,352.64 L766.36,352.64 L766.36,368 L769.56,368 L769.56,359.68 C769.56,356.8 771.16,355.2 773.56,355.2 C774.36,355.2 775,355.36 775,355.36 Z M791.8,361.44 L779.8,361.44 C780.12,363.52 782.04,365.44 784.6,365.44 C787.64,365.44 789.24,363.04 789.24,363.04 L791.32,365.12 C791.32,365.12 788.92,368.32 784.6,368.32 C780.28,368.32 776.6,364.64 776.6,360.16 C776.6,355.84 780.12,352.32 784.44,352.32 C788.76,352.32 791.96,355.52 791.96,359.84 C791.96,360.8 791.8,361.44 791.8,361.44 Z M784.44,355.04 C782.04,355.04 780.44,356.64 779.928,358.72 L788.824,358.72 C788.44,356.64 786.84,355.04 784.44,355.04 Z M798.2,345.6 L795.32,345.6 L795.32,352.32 L798.2,352.32 L798.2,345.6 Z M803.32,364.16 L800.12,371.04 L802.2,372.16 L806.2,365.76 L803.32,364.16 Z M802.2,354.4 C802.2,355.52 803.16,356.48 804.28,356.48 C805.4,356.48 806.36,355.52 806.36,354.4 C806.36,353.28 805.4,352.32 804.28,352.32 C803.16,352.32 802.2,353.28 802.2,354.4 Z M200.44,394.64 L197.24,394.64 L197.24,410 L200.44,410 L200.44,394.64 Z M200.76,389.84 C200.76,388.72 199.96,387.92 198.84,387.92 C197.72,387.92 196.92,388.72 196.92,389.84 C196.92,390.96 197.72,391.76 198.84,391.76 C199.96,391.76 200.76,390.96 200.76,389.84 Z M224.92,410 L228.12,410 L228.12,401.04 C228.12,396.56 225.88,394.32 222.36,394.32 C218.84,394.32 217.08,396.88 217.08,396.88 C217.08,396.88 215.8,394.32 212.44,394.32 C209.88,394.32 208.28,396.24 208.28,396.24 L208.28,394.64 L205.08,394.64 L205.08,410 L208.28,410 L208.28,401.68 C208.28,398.8 209.88,397.2 211.8,397.2 C213.72,397.2 215,398.48 215,401.04 L215,410 L218.2,410 L218.2,401.68 C218.2,398.8 219.8,397.2 221.72,397.2 C223.64,397.2 224.92,398.48 224.92,401.04 L224.92,410 Z M240.76,410.32 C237.72,410.32 235.8,408.24 235.8,408.24 L235.8,416.72 L232.6,416.72 L232.6,394.64 L235.8,394.64 L235.8,396.4 C235.8,396.4 237.72,394.32 240.76,394.32 C244.76,394.32 248.28,397.84 248.28,402.32 C248.28,406.8 244.76,410.32 240.76,410.32 Z M240.44,397.2 C238.04,397.2 235.8,399.44 235.8,402.32 C235.8,405.2 238.04,407.44 240.44,407.44 C242.84,407.44 245.08,405.2 245.08,402.32 C245.08,399.44 242.84,397.2 240.44,397.2 Z M263.64,402.32 C263.64,399.44 261.4,397.2 258.84,397.2 C256.28,397.2 254.04,399.44 254.04,402.32 C254.04,405.2 256.28,407.44 258.84,407.44 C261.4,407.44 263.64,405.2 263.64,402.32 Z M250.84,402.32 C250.84,398 254.52,394.32 258.84,394.32 C263.16,394.32 266.84,398 266.84,402.32 C266.84,406.64 263.16,410.32 258.84,410.32 C254.52,410.32 250.84,406.64 250.84,402.32 Z M279,397.36 L279,394.32 L278.2,394.32 C275.32,394.32 273.56,396.24 273.56,396.24 L273.56,394.64 L270.36,394.64 L270.36,410 L273.56,410 L273.56,401.68 C273.56,398.8 275.16,397.2 277.56,397.2 C278.36,397.2 279,397.36 279,397.36 Z M283.48,392.72 C283.48,394 282.84,394.64 281.88,394.64 L280.28,394.64 L280.28,397.52 L283.16,397.52 L283.16,405.52 C283.16,408.72 284.76,410.32 287.64,410.32 C288.92,410.32 289.88,410 289.88,410 L289.88,407.12 C289.88,407.12 289.08,407.44 288.28,407.44 C287.16,407.44 286.36,406.64 286.36,405.488 L286.36,397.52 L289.56,397.52 L289.56,394.64 L286.36,394.64 L286.36,389.52 L283.48,389.52 L283.48,392.72 Z M299.96,403.28 C301.24,403.28 301.88,403.92 301.88,405.2 L301.88,412.08 C301.88,414.96 303.64,416.72 306.84,416.72 L308.6,416.72 L308.6,414.16 L306.84,414.16 C305.56,414.16 304.76,413.36 304.76,412.08 L304.76,405.2 C304.76,402.32 303,402 303.032,402 C303,402 304.76,401.68 304.76,398.8 L304.76,391.92 C304.76,390.64 305.56,389.84 306.84,389.84 L308.6,389.84 L308.6,387.28 L306.84,387.28 C303.64,387.28 301.88,389.04 301.88,391.92 L301.88,398.8 C301.88,400.08 301.24,400.72 299.96,400.72 L299.96,403.28 Z M322.68,406.8 L322.68,399.92 L332.44,399.92 L332.44,396.72 L322.68,396.72 L322.68,390.8 L335,390.8 L335,387.6 L319.16,387.6 L319.16,410 L335.32,410 L335.32,406.8 L322.68,406.8 Z M346.68,394.64 L343.16,394.64 L343.16,392.112 C343.16,390.96 343.96,390.16 345.08,390.16 C345.88,390.16 346.68,390.48 346.68,390.48 L346.68,387.6 C346.68,387.6 345.72,387.28 344.44,387.28 C341.56,387.28 339.96,388.88 339.96,392.08 L339.96,394.64 L337.72,394.64 L337.72,397.52 L339.96,397.52 L339.96,410 L343.16,410 L343.16,397.52 L346.68,397.52 L346.68,394.64 Z M357.56,394.64 L354.04,394.64 L354.04,392.112 C354.04,390.96 354.84,390.16 355.96,390.16 C356.76,390.16 357.56,390.48 357.56,390.48 L357.56,387.6 C357.56,387.6 356.6,387.28 355.32,387.28 C352.44,387.28 350.84,388.88 350.84,392.08 L350.84,394.64 L348.6,394.64 L348.6,397.52 L350.84,397.52 L350.84,410 L354.04,410 L354.04,397.52 L357.56,397.52 L357.56,394.64 Z M375,403.44 L363,403.44 C363.32,405.52 365.24,407.44 367.8,407.44 C370.84,407.44 372.44,405.04 372.44,405.04 L374.52,407.12 C374.52,407.12 372.12,410.32 367.8,410.32 C363.48,410.32 359.8,406.64 359.8,402.16 C359.8,397.84 363.32,394.32 367.64,394.32 C371.96,394.32 375.16,397.52 375.16,401.84 C375.16,402.8 375,403.44 375,403.44 Z M367.64,397.04 C365.24,397.04 363.64,398.64 363.128,400.72 L372.024,400.72 C371.64,398.64 370.04,397.04 367.64,397.04 Z M377.72,402.32 C377.72,406.64 381.4,410.32 385.72,410.32 C389.72,410.32 392.12,407.12 392.12,407.12 L390.04,405.04 C390.04,405.04 388.44,407.44 385.72,407.44 C383.16,407.44 380.92,405.2 380.92,402.32 C380.92,399.44 383.16,397.2 385.72,397.2 C388.44,397.2 389.88,399.44 389.88,399.44 L391.96,397.36 C391.96,397.36 389.72,394.32 385.72,394.32 C381.4,394.32 377.72,398 377.72,402.32 Z M397.24,392.72 C397.24,394 396.6,394.64 395.64,394.64 L394.04,394.64 L394.04,397.52 L396.92,397.52 L396.92,405.52 C396.92,408.72 398.52,410.32 401.4,410.32 C402.68,410.32 403.64,410 403.64,410 L403.64,407.12 C403.64,407.12 402.84,407.44 402.04,407.44 C400.92,407.44 400.12,406.64 400.12,405.488 L400.12,397.52 L403.32,397.52 L403.32,394.64 L400.12,394.64 L400.12,389.52 L397.24,389.52 L397.24,392.72 Z M416.6,396.4 C416.6,396.4 415,394.32 411.64,394.32 C408.44,394.32 406.2,396.56 406.2,398.8 C406.2,404.24 414.04,402.64 414.04,405.52 C414.04,406.64 413.24,407.44 411.48,407.44 C409.08,407.44 407.64,405.52 407.64,405.52 L405.56,407.6 C405.56,407.6 407.48,410.32 411.48,410.32 C415,410.32 417.24,408.08 417.24,405.52 C417.24,400.08 409.4,401.68 409.4,398.8 C409.4,398 410.2,397.2 411.64,397.2 C413.4,397.2 414.52,398.48 414.52,398.48 L416.6,396.4 Z M433.56,398.48 L424.92,387.6 L421.88,387.6 L421.88,410 L425.4,410 L425.4,393.68 L433.56,403.92 L441.72,393.68 L441.72,410 L445.24,410 L445.24,387.6 L442.2,387.6 L433.56,398.48 Z M462.36,402.32 C462.36,399.44 460.12,397.2 457.56,397.2 C455,397.2 452.76,399.44 452.76,402.32 C452.76,405.2 455,407.44 457.56,407.44 C460.12,407.44 462.36,405.2 462.36,402.32 Z M449.56,402.32 C449.56,398 453.24,394.32 457.56,394.32 C461.88,394.32 465.56,398 465.56,402.32 C465.56,406.64 461.88,410.32 457.56,410.32 C453.24,410.32 449.56,406.64 449.56,402.32 Z M475.64,394.32 C478.68,394.32 480.6,396.4 480.6,396.4 L480.6,387.6 L483.8,387.6 L483.8,410 L480.6,410 L480.6,408.24 C480.6,408.24 478.68,410.32 475.64,410.32 C471.64,410.32 468.12,406.8 468.12,402.32 C468.12,397.84 471.64,394.32 475.64,394.32 Z M475.96,407.44 C478.36,407.44 480.6,405.2 480.6,402.32 C480.6,399.44 478.36,397.2 475.96,397.2 C473.56,397.2 471.32,399.44 471.32,402.32 C471.32,405.2 473.56,407.44 475.96,407.44 Z M499.48,410 L502.68,410 L502.68,394.64 L499.48,394.64 L499.48,402.96 C499.48,405.84 497.88,407.44 495.48,407.44 C493.4,407.44 491.8,405.84 491.8,403.6 L491.8,394.64 L488.6,394.64 L488.6,403.6 C488.6,407.76 491.16,410.32 494.84,410.32 C497.72,410.32 499.48,408.4 499.48,408.4 L499.48,410 Z M510.84,387.6 L507.64,387.6 L507.64,410 L510.84,410 L510.84,387.6 Z M529.88,403.44 L517.88,403.44 C518.2,405.52 520.12,407.44 522.68,407.44 C525.72,407.44 527.32,405.04 527.32,405.04 L529.4,407.12 C529.4,407.12 527,410.32 522.68,410.32 C518.36,410.32 514.68,406.64 514.68,402.16 C514.68,397.84 518.2,394.32 522.52,394.32 C526.84,394.32 530.04,397.52 530.04,401.84 C530.04,402.8 529.88,403.44 529.88,403.44 Z M522.52,397.04 C520.12,397.04 518.52,398.64 518.008,400.72 L526.904,400.72 C526.52,398.64 524.92,397.04 522.52,397.04 Z M547.48,400.72 C546.2,400.72 545.56,400.08 545.56,398.8 L545.56,391.92 C545.56,389.04 543.8,387.28 540.6,387.28 L538.84,387.28 L538.84,389.84 L540.6,389.84 C541.88,389.84 542.68,390.64 542.68,391.92 L542.68,398.8 C542.68,401.68 544.44,402 544.408,402 C544.44,402 542.68,402.32 542.68,405.2 L542.68,412.08 C542.68,413.36 541.88,414.16 540.6,414.16 L538.84,414.16 L538.84,416.72 L540.6,416.72 C543.8,416.72 545.56,414.96 545.56,412.08 L545.56,405.2 C545.56,403.92 546.2,403.28 547.48,403.28 L547.48,400.72 Z M565.56,394.64 L562.04,394.64 L562.04,392.112 C562.04,390.96 562.84,390.16 563.96,390.16 C564.76,390.16 565.56,390.48 565.56,390.48 L565.56,387.6 C565.56,387.6 564.6,387.28 563.32,387.28 C560.44,387.28 558.84,388.88 558.84,392.08 L558.84,394.64 L556.6,394.64 L556.6,397.52 L558.84,397.52 L558.84,410 L562.04,410 L562.04,397.52 L565.56,397.52 L565.56,394.64 Z M577.4,397.36 L577.4,394.32 L576.6,394.32 C573.72,394.32 571.96,396.24 571.96,396.24 L571.96,394.64 L568.76,394.64 L568.76,410 L571.96,410 L571.96,401.68 C571.96,398.8 573.56,397.2 575.96,397.2 C576.76,397.2 577.4,397.36 577.4,397.36 Z M591.8,402.32 C591.8,399.44 589.56,397.2 587,397.2 C584.44,397.2 582.2,399.44 582.2,402.32 C582.2,405.2 584.44,407.44 587,407.44 C589.56,407.44 591.8,405.2 591.8,402.32 Z M579,402.32 C579,398 582.68,394.32 587,394.32 C591.32,394.32 595,398 595,402.32 C595,406.64 591.32,410.32 587,410.32 C582.68,410.32 579,406.64 579,402.32 Z M618.36,410 L621.56,410 L621.56,401.04 C621.56,396.56 619.32,394.32 615.8,394.32 C612.28,394.32 610.52,396.88 610.52,396.88 C610.52,396.88 609.24,394.32 605.88,394.32 C603.32,394.32 601.72,396.24 601.72,396.24 L601.72,394.64 L598.52,394.64 L598.52,410 L601.72,410 L601.72,401.68 C601.72,398.8 603.32,397.2 605.24,397.2 C607.16,397.2 608.44,398.48 608.44,401.04 L608.44,410 L611.64,410 L611.64,401.68 C611.64,398.8 613.24,397.2 615.16,397.2 C617.08,397.2 618.36,398.48 618.36,401.04 L618.36,410 Z M635.16,387.6 L632.28,387.6 L632.28,394.32 L635.16,394.32 L635.16,387.6 Z M651.48,398.48 C649.56,398.48 647.96,400.08 647.96,402.16 C647.96,404.24 649.56,405.84 651.48,405.84 C653.24,405.84 654.68,404.4 654.68,402.16 C654.68,399.92 653.24,398.48 651.48,398.48 Z M651.16,396.24 C653.56,396.24 654.68,397.68 654.68,397.68 L654.68,396.4 L656.92,396.4 L656.92,403.92 C656.92,405.04 657.72,405.84 658.68,405.84 C660.12,405.84 661.4,404.56 661.4,401.36 C661.4,396.24 657.24,392.08 651.64,392.08 C646.36,392.08 641.88,396.56 641.88,402 C641.88,407.44 646.36,411.92 651.64,411.92 C655.32,411.92 657.4,409.84 657.4,409.84 L658.84,411.6 C658.84,411.6 656.28,414.16 651.64,414.16 C644.92,414.16 639.32,408.56 639.32,402 C639.32,395.44 644.92,389.84 651.64,389.84 C658.68,389.84 663.96,395.12 663.96,401.36 C663.96,405.84 661.72,408.08 658.68,408.08 C656.28,408.08 655.16,406.16 655.16,406.16 C655.16,406.16 654.04,408.08 651.16,408.08 C648.12,408.08 645.56,405.52 645.56,402.16 C645.56,398.8 648.12,396.24 651.16,396.24 Z M671.48,394.64 L668.28,394.64 L668.28,410 L671.48,410 L671.48,401.68 C671.48,398.8 673.08,397.2 675.48,397.2 C677.56,397.2 679.16,398.8 679.16,401.04 L679.16,410 L682.36,410 L682.36,401.04 C682.36,396.88 679.8,394.32 676.12,394.32 C673.24,394.32 671.48,396.24 671.48,396.24 L671.48,394.64 Z M697.72,409.072 L697.72,407.76 C697.72,407.76 695.96,409.68 693.08,409.68 C689.24,409.68 685.88,406.32 685.88,402 C685.88,397.68 689.24,394.32 693.08,394.32 C695.96,394.32 697.72,396.24 697.72,396.24 L697.72,394.64 L700.92,394.64 L700.92,409.04 C700.92,413.36 697.56,416.72 693.24,416.72 C688.6,416.72 686.36,413.52 686.36,413.52 L688.44,411.44 C688.44,411.44 690.2,413.84 693.24,413.84 C695.8,413.84 697.72,411.92 697.72,409.072 Z M689.08,402 C689.08,404.72 691.16,406.8 693.4,406.8 C695.64,406.8 697.72,404.72 697.72,402 C697.72,399.28 695.64,397.2 693.4,397.2 C691.16,397.2 689.08,399.28 689.08,402 Z M714.04,397.36 L714.04,394.32 L713.24,394.32 C710.36,394.32 708.6,396.24 708.6,396.24 L708.6,394.64 L705.4,394.64 L705.4,410 L708.6,410 L708.6,401.68 C708.6,398.8 710.2,397.2 712.6,397.2 C713.4,397.2 714.04,397.36 714.04,397.36 Z M724.28,402 L729.56,394.64 L725.88,394.64 L722.36,399.6 L718.84,394.64 L715.16,394.64 L720.44,402 L714.68,410 L718.36,410 L722.36,404.4 L726.36,410 L730.04,410 L724.28,402 Z M743.96,387.28 L741.08,387.28 L731.48,416.72 L734.36,416.72 L743.96,387.28 Z M761.24,403.44 L749.24,403.44 C749.56,405.52 751.48,407.44 754.04,407.44 C757.08,407.44 758.68,405.04 758.68,405.04 L760.76,407.12 C760.76,407.12 758.36,410.32 754.04,410.32 C749.72,410.32 746.04,406.64 746.04,402.16 C746.04,397.84 749.56,394.32 753.88,394.32 C758.2,394.32 761.4,397.52 761.4,401.84 C761.4,402.8 761.24,403.44 761.24,403.44 Z M753.88,397.04 C751.48,397.04 749.88,398.64 749.368,400.72 L758.264,400.72 C757.88,398.64 756.28,397.04 753.88,397.04 Z M772.6,394.64 L769.08,394.64 L769.08,392.112 C769.08,390.96 769.88,390.16 771,390.16 C771.8,390.16 772.6,390.48 772.6,390.48 L772.6,387.6 C772.6,387.6 771.64,387.28 770.36,387.28 C767.48,387.28 765.88,388.88 765.88,392.08 L765.88,394.64 L763.64,394.64 L763.64,397.52 L765.88,397.52 L765.88,410 L769.08,410 L769.08,397.52 L772.6,397.52 L772.6,394.64 Z M783.48,394.64 L779.96,394.64 L779.96,392.112 C779.96,390.96 780.76,390.16 781.88,390.16 C782.68,390.16 783.48,390.48 783.48,390.48 L783.48,387.6 C783.48,387.6 782.52,387.28 781.24,387.28 C778.36,387.28 776.76,388.88 776.76,392.08 L776.76,394.64 L774.52,394.64 L774.52,397.52 L776.76,397.52 L776.76,410 L779.96,410 L779.96,397.52 L783.48,397.52 L783.48,394.64 Z M800.92,403.44 L788.92,403.44 C789.24,405.52 791.16,407.44 793.72,407.44 C796.76,407.44 798.36,405.04 798.36,405.04 L800.44,407.12 C800.44,407.12 798.04,410.32 793.72,410.32 C789.4,410.32 785.72,406.64 785.72,402.16 C785.72,397.84 789.24,394.32 793.56,394.32 C797.88,394.32 801.08,397.52 801.08,401.84 C801.08,402.8 800.92,403.44 800.92,403.44 Z M793.56,397.04 C791.16,397.04 789.56,398.64 789.048,400.72 L797.944,400.72 C797.56,398.64 795.96,397.04 793.56,397.04 Z M803.64,402.32 C803.64,406.64 807.32,410.32 811.64,410.32 C815.64,410.32 818.04,407.12 818.04,407.12 L815.96,405.04 C815.96,405.04 814.36,407.44 811.64,407.44 C809.08,407.44 806.84,405.2 806.84,402.32 C806.84,399.44 809.08,397.2 811.64,397.2 C814.36,397.2 815.8,399.44 815.8,399.44 L817.88,397.36 C817.88,397.36 815.64,394.32 811.64,394.32 C807.32,394.32 803.64,398 803.64,402.32 Z M823.16,392.72 C823.16,394 822.52,394.64 821.56,394.64 L819.96,394.64 L819.96,397.52 L822.84,397.52 L822.84,405.52 C822.84,408.72 824.44,410.32 827.32,410.32 C828.6,410.32 829.56,410 829.56,410 L829.56,407.12 C829.56,407.12 828.76,407.44 827.96,407.44 C826.84,407.44 826.04,406.64 826.04,405.488 L826.04,397.52 L829.24,397.52 L829.24,394.64 L826.04,394.64 L826.04,389.52 L823.16,389.52 L823.16,392.72 Z M842.52,396.4 C842.52,396.4 840.92,394.32 837.56,394.32 C834.36,394.32 832.12,396.56 832.12,398.8 C832.12,404.24 839.96,402.64 839.96,405.52 C839.96,406.64 839.16,407.44 837.4,407.44 C835,407.44 833.56,405.52 833.56,405.52 L831.48,407.6 C831.48,407.6 833.4,410.32 837.4,410.32 C840.92,410.32 843.16,408.08 843.16,405.52 C843.16,400.08 835.32,401.68 835.32,398.8 C835.32,398 836.12,397.2 837.56,397.2 C839.32,397.2 840.44,398.48 840.44,398.48 L842.52,396.4 Z M849.4,387.6 L846.52,387.6 L846.52,394.32 L849.4,394.32 L849.4,387.6 Z M854.52,406.16 L851.32,413.04 L853.4,414.16 L857.4,407.76 L854.52,406.16 Z M853.4,396.4 C853.4,397.52 854.36,398.48 855.48,398.48 C856.6,398.48 857.56,397.52 857.56,396.4 C857.56,395.28 856.6,394.32 855.48,394.32 C854.36,394.32 853.4,395.28 853.4,396.4 Z" id="import-{-StoreModule" fill="#545E6F"></path>
        </g>
    </g>
</svg>