<?xml version="1.0" encoding="UTF-8"?>
<svg width="1280px" height="720px" viewBox="0 0 1280 720" version="1.1" xmlns="http://www.w3.org/2000/svg" xmlns:xlink="http://www.w3.org/1999/xlink" style="background: #FFFFFF;">
    <!-- Generator: Sketch 47.1 (45422) - http://www.bohemiancoding.com/sketch -->
    <title>rootmodule</title>
    <desc>Created with Sketch.</desc>
    <defs></defs>
    <g id="Page-1" stroke="none" stroke-width="1" fill="none" fill-rule="evenodd">
        <g id="rootmodule">
            <g id="Group" transform="translate(125.000000, 139.000000)">
                <rect id="Rectangle-7" fill="#F4F6F8" x="0" y="24" width="1030" height="418" rx="15"></rect>
                <path d="M15,0 L1015,0 L1015,1.77635684e-15 C1023.28427,5.91178485e-14 1030,6.71572875 1030,15 L1030,58 L0,58 L0,15 L-1.77635684e-15,15 C-2.79088747e-15,6.71572875 6.71572875,-2.54560899e-16 15,-1.77635684e-15 Z" id="Rectangle" fill="#4FB688"></path>
                <text id="ROOT-MODULE" font-family="TTNorms-Bold, TT Norms" font-size="24" font-weight="bold" fill="#FFFFFF">
                    <tspan x="422" y="38">ROOT MODULE</tspan>
                </text>
            </g>
            <path d="M209.4,258.48 C207.48,258.48 205.88,260.08 205.88,262.16 C205.88,264.24 207.48,265.84 209.4,265.84 C211.16,265.84 212.6,264.4 212.6,262.16 C212.6,259.92 211.16,258.48 209.4,258.48 Z M209.08,256.24 C211.48,256.24 212.6,257.68 212.6,257.68 L212.6,256.4 L214.84,256.4 L214.84,263.92 C214.84,265.04 215.64,265.84 216.6,265.84 C218.04,265.84 219.32,264.56 219.32,261.36 C219.32,256.24 215.16,252.08 209.56,252.08 C204.28,252.08 199.8,256.56 199.8,262 C199.8,267.44 204.28,271.92 209.56,271.92 C213.24,271.92 215.32,269.84 215.32,269.84 L216.76,271.6 C216.76,271.6 214.2,274.16 209.56,274.16 C202.84,274.16 197.24,268.56 197.24,262 C197.24,255.44 202.84,249.84 209.56,249.84 C216.6,249.84 221.88,255.12 221.88,261.36 C221.88,265.84 219.64,268.08 216.6,268.08 C214.2,268.08 213.08,266.16 213.08,266.16 C213.08,266.16 211.96,268.08 209.08,268.08 C206.04,268.08 203.48,265.52 203.48,262.16 C203.48,258.8 206.04,256.24 209.08,256.24 Z M242.84,247.6 L242.84,263.76 L230.36,247.6 L227.32,247.6 L227.32,270 L230.84,270 L230.84,253.84 L243.32,270 L246.36,270 L246.36,247.6 L242.84,247.6 Z M262.52,269.072 L262.52,267.76 C262.52,267.76 260.76,269.68 257.88,269.68 C254.04,269.68 250.68,266.32 250.68,262 C250.68,257.68 254.04,254.32 257.88,254.32 C260.76,254.32 262.52,256.24 262.52,256.24 L262.52,254.64 L265.72,254.64 L265.72,269.04 C265.72,273.36 262.36,276.72 258.04,276.72 C253.4,276.72 251.16,273.52 251.16,273.52 L253.24,271.44 C253.24,271.44 255,273.84 258.04,273.84 C260.6,273.84 262.52,271.92 262.52,269.072 Z M253.88,262 C253.88,264.72 255.96,266.8 258.2,266.8 C260.44,266.8 262.52,264.72 262.52,262 C262.52,259.28 260.44,257.2 258.2,257.2 C255.96,257.2 253.88,259.28 253.88,262 Z M283,258.48 L274.36,247.6 L271.32,247.6 L271.32,270 L274.84,270 L274.84,253.68 L283,263.92 L291.16,253.68 L291.16,270 L294.68,270 L294.68,247.6 L291.64,247.6 L283,258.48 Z M311.8,262.32 C311.8,259.44 309.56,257.2 307,257.2 C304.44,257.2 302.2,259.44 302.2,262.32 C302.2,265.2 304.44,267.44 307,267.44 C309.56,267.44 311.8,265.2 311.8,262.32 Z M299,262.32 C299,258 302.68,254.32 307,254.32 C311.32,254.32 315,258 315,262.32 C315,266.64 311.32,270.32 307,270.32 C302.68,270.32 299,266.64 299,262.32 Z M325.08,254.32 C328.12,254.32 330.04,256.4 330.04,256.4 L330.04,247.6 L333.24,247.6 L333.24,270 L330.04,270 L330.04,268.24 C330.04,268.24 328.12,270.32 325.08,270.32 C321.08,270.32 317.56,266.8 317.56,262.32 C317.56,257.84 321.08,254.32 325.08,254.32 Z M325.4,267.44 C327.8,267.44 330.04,265.2 330.04,262.32 C330.04,259.44 327.8,257.2 325.4,257.2 C323,257.2 320.76,259.44 320.76,262.32 C320.76,265.2 323,267.44 325.4,267.44 Z M348.92,270 L352.12,270 L352.12,254.64 L348.92,254.64 L348.92,262.96 C348.92,265.84 347.32,267.44 344.92,267.44 C342.84,267.44 341.24,265.84 341.24,263.6 L341.24,254.64 L338.04,254.64 L338.04,263.6 C338.04,267.76 340.6,270.32 344.28,270.32 C347.16,270.32 348.92,268.4 348.92,268.4 L348.92,270 Z M360.28,247.6 L357.08,247.6 L357.08,270 L360.28,270 L360.28,247.6 Z M379.32,263.44 L367.32,263.44 C367.64,265.52 369.56,267.44 372.12,267.44 C375.16,267.44 376.76,265.04 376.76,265.04 L378.84,267.12 C378.84,267.12 376.44,270.32 372.12,270.32 C367.8,270.32 364.12,266.64 364.12,262.16 C364.12,257.84 367.64,254.32 371.96,254.32 C376.28,254.32 379.48,257.52 379.48,261.84 C379.48,262.8 379.32,263.44 379.32,263.44 Z M371.96,257.04 C369.56,257.04 367.96,258.64 367.448,260.72 L376.344,260.72 C375.96,258.64 374.36,257.04 371.96,257.04 Z M386.36,262 C386.36,254 390.84,248.24 390.84,248.24 L388.44,246.8 C388.44,246.8 383.48,252.72 383.48,262 C383.48,271.28 388.44,277.2 388.44,277.2 L390.84,275.76 C390.84,275.76 386.36,270 386.36,262 Z M393.72,263.28 C395,263.28 395.64,263.92 395.64,265.2 L395.64,272.08 C395.64,274.96 397.4,276.72 400.6,276.72 L402.36,276.72 L402.36,274.16 L400.6,274.16 C399.32,274.16 398.52,273.36 398.52,272.08 L398.52,265.2 C398.52,262.32 396.76,262 396.792,262 C396.76,262 398.52,261.68 398.52,258.8 L398.52,251.92 C398.52,250.64 399.32,249.84 400.6,249.84 L402.36,249.84 L402.36,247.28 L400.6,247.28 C397.4,247.28 395.64,249.04 395.64,251.92 L395.64,258.8 C395.64,260.08 395,260.72 393.72,260.72 L393.72,263.28 Z M213.24,296.64 L210.04,296.64 L210.04,312 L213.24,312 L213.24,296.64 Z M213.56,291.84 C213.56,290.72 212.76,289.92 211.64,289.92 C210.52,289.92 209.72,290.72 209.72,291.84 C209.72,292.96 210.52,293.76 211.64,293.76 C212.76,293.76 213.56,292.96 213.56,291.84 Z M237.72,312 L240.92,312 L240.92,303.04 C240.92,298.56 238.68,296.32 235.16,296.32 C231.64,296.32 229.88,298.88 229.88,298.88 C229.88,298.88 228.6,296.32 225.24,296.32 C222.68,296.32 221.08,298.24 221.08,298.24 L221.08,296.64 L217.88,296.64 L217.88,312 L221.08,312 L221.08,303.68 C221.08,300.8 222.68,299.2 224.6,299.2 C226.52,299.2 227.8,300.48 227.8,303.04 L227.8,312 L231,312 L231,303.68 C231,300.8 232.6,299.2 234.52,299.2 C236.44,299.2 237.72,300.48 237.72,303.04 L237.72,312 Z M253.56,312.32 C250.52,312.32 248.6,310.24 248.6,310.24 L248.6,318.72 L245.4,318.72 L245.4,296.64 L248.6,296.64 L248.6,298.4 C248.6,298.4 250.52,296.32 253.56,296.32 C257.56,296.32 261.08,299.84 261.08,304.32 C261.08,308.8 257.56,312.32 253.56,312.32 Z M253.24,299.2 C250.84,299.2 248.6,301.44 248.6,304.32 C248.6,307.2 250.84,309.44 253.24,309.44 C255.64,309.44 257.88,307.2 257.88,304.32 C257.88,301.44 255.64,299.2 253.24,299.2 Z M276.44,304.32 C276.44,301.44 274.2,299.2 271.64,299.2 C269.08,299.2 266.84,301.44 266.84,304.32 C266.84,307.2 269.08,309.44 271.64,309.44 C274.2,309.44 276.44,307.2 276.44,304.32 Z M263.64,304.32 C263.64,300 267.32,296.32 271.64,296.32 C275.96,296.32 279.64,300 279.64,304.32 C279.64,308.64 275.96,312.32 271.64,312.32 C267.32,312.32 263.64,308.64 263.64,304.32 Z M291.8,299.36 L291.8,296.32 L291,296.32 C288.12,296.32 286.36,298.24 286.36,298.24 L286.36,296.64 L283.16,296.64 L283.16,312 L286.36,312 L286.36,303.68 C286.36,300.8 287.96,299.2 290.36,299.2 C291.16,299.2 291.8,299.36 291.8,299.36 Z M296.28,294.72 C296.28,296 295.64,296.64 294.68,296.64 L293.08,296.64 L293.08,299.52 L295.96,299.52 L295.96,307.52 C295.96,310.72 297.56,312.32 300.44,312.32 C301.72,312.32 302.68,312 302.68,312 L302.68,309.12 C302.68,309.12 301.88,309.44 301.08,309.44 C299.96,309.44 299.16,308.64 299.16,307.488 L299.16,299.52 L302.36,299.52 L302.36,296.64 L299.16,296.64 L299.16,291.52 L296.28,291.52 L296.28,294.72 Z M315.64,298.4 C315.64,298.4 314.04,296.32 310.68,296.32 C307.48,296.32 305.24,298.56 305.24,300.8 C305.24,306.24 313.08,304.64 313.08,307.52 C313.08,308.64 312.28,309.44 310.52,309.44 C308.12,309.44 306.68,307.52 306.68,307.52 L304.6,309.6 C304.6,309.6 306.52,312.32 310.52,312.32 C314.04,312.32 316.28,310.08 316.28,307.52 C316.28,302.08 308.44,303.68 308.44,300.8 C308.44,300 309.24,299.2 310.68,299.2 C312.44,299.2 313.56,300.48 313.56,300.48 L315.64,298.4 Z M319.32,310.24 C319.32,311.36 320.28,312.32 321.4,312.32 C322.52,312.32 323.48,311.36 323.48,310.24 C323.48,309.12 322.52,308.16 321.4,308.16 C320.28,308.16 319.32,309.12 319.32,310.24 Z M319.32,298.4 C319.32,299.52 320.28,300.48 321.4,300.48 C322.52,300.48 323.48,299.52 323.48,298.4 C323.48,297.28 322.52,296.32 321.4,296.32 C320.28,296.32 319.32,297.28 319.32,298.4 Z M336.92,291.84 L341.08,291.84 L341.08,289.28 L334.04,289.28 L334.04,318.72 L341.08,318.72 L341.08,316.16 L336.92,316.16 L336.92,291.84 Z M234.36,347.6 C234.36,349.52 232.76,351.12 229.88,351.12 C225.88,351.12 224.12,348.56 224.12,348.56 L221.88,350.8 C221.88,350.8 224.44,354.32 229.88,354.32 C235,354.32 237.88,351.44 237.88,347.6 C237.88,339.28 226.04,342.48 226.04,337.36 C226.04,335.92 227.48,334.48 229.88,334.48 C232.92,334.48 234.36,336.4 234.36,336.4 L236.6,334.16 C236.6,334.16 234.36,331.28 229.88,331.28 C225.24,331.28 222.52,334 222.52,337.36 C222.52,345.68 234.36,342.48 234.36,347.6 Z M243.48,336.72 C243.48,338 242.84,338.64 241.88,338.64 L240.28,338.64 L240.28,341.52 L243.16,341.52 L243.16,349.52 C243.16,352.72 244.76,354.32 247.64,354.32 C248.92,354.32 249.88,354 249.88,354 L249.88,351.12 C249.88,351.12 249.08,351.44 248.28,351.44 C247.16,351.44 246.36,350.64 246.36,349.488 L246.36,341.52 L249.56,341.52 L249.56,338.64 L246.36,338.64 L246.36,333.52 L243.48,333.52 L243.48,336.72 Z M264.92,346.32 C264.92,343.44 262.68,341.2 260.12,341.2 C257.56,341.2 255.32,343.44 255.32,346.32 C255.32,349.2 257.56,351.44 260.12,351.44 C262.68,351.44 264.92,349.2 264.92,346.32 Z M252.12,346.32 C252.12,342 255.8,338.32 260.12,338.32 C264.44,338.32 268.12,342 268.12,346.32 C268.12,350.64 264.44,354.32 260.12,354.32 C255.8,354.32 252.12,350.64 252.12,346.32 Z M280.28,341.36 L280.28,338.32 L279.48,338.32 C276.6,338.32 274.84,340.24 274.84,340.24 L274.84,338.64 L271.64,338.64 L271.64,354 L274.84,354 L274.84,345.68 C274.84,342.8 276.44,341.2 278.84,341.2 C279.64,341.2 280.28,341.36 280.28,341.36 Z M297.08,347.44 L285.08,347.44 C285.4,349.52 287.32,351.44 289.88,351.44 C292.92,351.44 294.52,349.04 294.52,349.04 L296.6,351.12 C296.6,351.12 294.2,354.32 289.88,354.32 C285.56,354.32 281.88,350.64 281.88,346.16 C281.88,341.84 285.4,338.32 289.72,338.32 C294.04,338.32 297.24,341.52 297.24,345.84 C297.24,346.8 297.08,347.44 297.08,347.44 Z M289.72,341.04 C287.32,341.04 285.72,342.64 285.208,344.72 L294.104,344.72 C293.72,342.64 292.12,341.04 289.72,341.04 Z M313.56,342.48 L304.92,331.6 L301.88,331.6 L301.88,354 L305.4,354 L305.4,337.68 L313.56,347.92 L321.72,337.68 L321.72,354 L325.24,354 L325.24,331.6 L322.2,331.6 L313.56,342.48 Z M342.36,346.32 C342.36,343.44 340.12,341.2 337.56,341.2 C335,341.2 332.76,343.44 332.76,346.32 C332.76,349.2 335,351.44 337.56,351.44 C340.12,351.44 342.36,349.2 342.36,346.32 Z M329.56,346.32 C329.56,342 333.24,338.32 337.56,338.32 C341.88,338.32 345.56,342 345.56,346.32 C345.56,350.64 341.88,354.32 337.56,354.32 C333.24,354.32 329.56,350.64 329.56,346.32 Z M355.64,338.32 C358.68,338.32 360.6,340.4 360.6,340.4 L360.6,331.6 L363.8,331.6 L363.8,354 L360.6,354 L360.6,352.24 C360.6,352.24 358.68,354.32 355.64,354.32 C351.64,354.32 348.12,350.8 348.12,346.32 C348.12,341.84 351.64,338.32 355.64,338.32 Z M355.96,351.44 C358.36,351.44 360.6,349.2 360.6,346.32 C360.6,343.44 358.36,341.2 355.96,341.2 C353.56,341.2 351.32,343.44 351.32,346.32 C351.32,349.2 353.56,351.44 355.96,351.44 Z M379.48,354 L382.68,354 L382.68,338.64 L379.48,338.64 L379.48,346.96 C379.48,349.84 377.88,351.44 375.48,351.44 C373.4,351.44 371.8,349.84 371.8,347.6 L371.8,338.64 L368.6,338.64 L368.6,347.6 C368.6,351.76 371.16,354.32 374.84,354.32 C377.72,354.32 379.48,352.4 379.48,352.4 L379.48,354 Z M390.84,331.6 L387.64,331.6 L387.64,354 L390.84,354 L390.84,331.6 Z M409.88,347.44 L397.88,347.44 C398.2,349.52 400.12,351.44 402.68,351.44 C405.72,351.44 407.32,349.04 407.32,349.04 L409.4,351.12 C409.4,351.12 407,354.32 402.68,354.32 C398.36,354.32 394.68,350.64 394.68,346.16 C394.68,341.84 398.2,338.32 402.52,338.32 C406.84,338.32 410.04,341.52 410.04,345.84 C410.04,346.8 409.88,347.44 409.88,347.44 Z M402.52,341.04 C400.12,341.04 398.52,342.64 398.008,344.72 L406.904,344.72 C406.52,342.64 404.92,341.04 402.52,341.04 Z M417.24,352.24 C417.24,351.12 416.28,350.16 415.16,350.16 C414.04,350.16 413.08,351.12 413.08,352.24 C413.08,353.36 414.04,354.32 415.16,354.32 C416.28,354.32 417.24,353.36 417.24,352.24 Z M428.6,338.64 L425.08,338.64 L425.08,336.112 C425.08,334.96 425.88,334.16 427,334.16 C427.8,334.16 428.6,334.48 428.6,334.48 L428.6,331.6 C428.6,331.6 427.64,331.28 426.36,331.28 C423.48,331.28 421.88,332.88 421.88,336.08 L421.88,338.64 L419.64,338.64 L419.64,341.52 L421.88,341.52 L421.88,354 L425.08,354 L425.08,341.52 L428.6,341.52 L428.6,338.64 Z M443.64,346.32 C443.64,343.44 441.4,341.2 438.84,341.2 C436.28,341.2 434.04,343.44 434.04,346.32 C434.04,349.2 436.28,351.44 438.84,351.44 C441.4,351.44 443.64,349.2 443.64,346.32 Z M430.84,346.32 C430.84,342 434.52,338.32 438.84,338.32 C443.16,338.32 446.84,342 446.84,346.32 C446.84,350.64 443.16,354.32 438.84,354.32 C434.52,354.32 430.84,350.64 430.84,346.32 Z M459,341.36 L459,338.32 L458.2,338.32 C455.32,338.32 453.56,340.24 453.56,340.24 L453.56,338.64 L450.36,338.64 L450.36,354 L453.56,354 L453.56,345.68 C453.56,342.8 455.16,341.2 457.56,341.2 C458.36,341.2 459,341.36 459,341.36 Z M462.68,354 L462.68,331.6 L472.12,331.6 C476.28,331.6 479.32,334.64 479.32,338.48 C479.32,343.44 474.84,345.04 474.84,345.04 L479.96,354 L476.12,354 L471.32,345.36 L466.2,345.36 L466.2,354 L462.68,354 Z M475.8,338.48 C475.8,336.4 474.2,334.8 472.12,334.8 L466.2,334.8 L466.2,342.16 L472.12,342.16 C474.2,342.16 475.8,340.56 475.8,338.48 Z M495.8,346.32 C495.8,343.44 493.56,341.2 491,341.2 C488.44,341.2 486.2,343.44 486.2,346.32 C486.2,349.2 488.44,351.44 491,351.44 C493.56,351.44 495.8,349.2 495.8,346.32 Z M483,346.32 C483,342 486.68,338.32 491,338.32 C495.32,338.32 499,342 499,346.32 C499,350.64 495.32,354.32 491,354.32 C486.68,354.32 483,350.64 483,346.32 Z M514.36,346.32 C514.36,343.44 512.12,341.2 509.56,341.2 C507,341.2 504.76,343.44 504.76,346.32 C504.76,349.2 507,351.44 509.56,351.44 C512.12,351.44 514.36,349.2 514.36,346.32 Z M501.56,346.32 C501.56,342 505.24,338.32 509.56,338.32 C513.88,338.32 517.56,342 517.56,346.32 C517.56,350.64 513.88,354.32 509.56,354.32 C505.24,354.32 501.56,350.64 501.56,346.32 Z M523,336.72 C523,338 522.36,338.64 521.4,338.64 L519.8,338.64 L519.8,341.52 L522.68,341.52 L522.68,349.52 C522.68,352.72 524.28,354.32 527.16,354.32 C528.44,354.32 529.4,354 529.4,354 L529.4,351.12 C529.4,351.12 528.6,351.44 527.8,351.44 C526.68,351.44 525.88,350.64 525.88,349.488 L525.88,341.52 L529.08,341.52 L529.08,338.64 L525.88,338.64 L525.88,333.52 L523,333.52 L523,336.72 Z M536.6,346 C536.6,338 541.08,332.24 541.08,332.24 L538.68,330.8 C538.68,330.8 533.72,336.72 533.72,346 C533.72,355.28 538.68,361.2 538.68,361.2 L541.08,359.76 C541.08,359.76 536.6,354 536.6,346 Z M552.76,341.36 L552.76,338.32 L551.96,338.32 C549.08,338.32 547.32,340.24 547.32,340.24 L547.32,338.64 L544.12,338.64 L544.12,354 L547.32,354 L547.32,345.68 C547.32,342.8 548.92,341.2 551.32,341.2 C552.12,341.2 552.76,341.36 552.76,341.36 Z M569.56,347.44 L557.56,347.44 C557.88,349.52 559.8,351.44 562.36,351.44 C565.4,351.44 567,349.04 567,349.04 L569.08,351.12 C569.08,351.12 566.68,354.32 562.36,354.32 C558.04,354.32 554.36,350.64 554.36,346.16 C554.36,341.84 557.88,338.32 562.2,338.32 C566.52,338.32 569.72,341.52 569.72,345.84 C569.72,346.8 569.56,347.44 569.56,347.44 Z M562.2,341.04 C559.8,341.04 558.2,342.64 557.688,344.72 L566.584,344.72 C566.2,342.64 564.6,341.04 562.2,341.04 Z M579.8,338.32 C582.84,338.32 584.76,340.4 584.76,340.4 L584.76,331.6 L587.96,331.6 L587.96,354 L584.76,354 L584.76,352.24 C584.76,352.24 582.84,354.32 579.8,354.32 C575.8,354.32 572.28,350.8 572.28,346.32 C572.28,341.84 575.8,338.32 579.8,338.32 Z M580.12,351.44 C582.52,351.44 584.76,349.2 584.76,346.32 C584.76,343.44 582.52,341.2 580.12,341.2 C577.72,341.2 575.48,343.44 575.48,346.32 C575.48,349.2 577.72,351.44 580.12,351.44 Z M603.64,354 L606.84,354 L606.84,338.64 L603.64,338.64 L603.64,346.96 C603.64,349.84 602.04,351.44 599.64,351.44 C597.56,351.44 595.96,349.84 595.96,347.6 L595.96,338.64 L592.76,338.64 L592.76,347.6 C592.76,351.76 595.32,354.32 599,354.32 C601.88,354.32 603.64,352.4 603.64,352.4 L603.64,354 Z M610.52,346.32 C610.52,350.64 614.2,354.32 618.52,354.32 C622.52,354.32 624.92,351.12 624.92,351.12 L622.84,349.04 C622.84,349.04 621.24,351.44 618.52,351.44 C615.96,351.44 613.72,349.2 613.72,346.32 C613.72,343.44 615.96,341.2 618.52,341.2 C621.24,341.2 622.68,343.44 622.68,343.44 L624.76,341.36 C624.76,341.36 622.52,338.32 618.52,338.32 C614.2,338.32 610.52,342 610.52,346.32 Z M642.36,347.44 L630.36,347.44 C630.68,349.52 632.6,351.44 635.16,351.44 C638.2,351.44 639.8,349.04 639.8,349.04 L641.88,351.12 C641.88,351.12 639.48,354.32 635.16,354.32 C630.84,354.32 627.16,350.64 627.16,346.16 C627.16,341.84 630.68,338.32 635,338.32 C639.32,338.32 642.52,341.52 642.52,345.84 C642.52,346.8 642.36,347.44 642.36,347.44 Z M635,341.04 C632.6,341.04 631,342.64 630.488,344.72 L639.384,344.72 C639,342.64 637.4,341.04 635,341.04 Z M654.68,341.36 L654.68,338.32 L653.88,338.32 C651,338.32 649.24,340.24 649.24,340.24 L649.24,338.64 L646.04,338.64 L646.04,354 L649.24,354 L649.24,345.68 C649.24,342.8 650.84,341.2 653.24,341.2 C654.04,341.2 654.68,341.36 654.68,341.36 Z M667,340.4 C667,340.4 665.4,338.32 662.04,338.32 C658.84,338.32 656.6,340.56 656.6,342.8 C656.6,348.24 664.44,346.64 664.44,349.52 C664.44,350.64 663.64,351.44 661.88,351.44 C659.48,351.44 658.04,349.52 658.04,349.52 L655.96,351.6 C655.96,351.6 657.88,354.32 661.88,354.32 C665.4,354.32 667.64,352.08 667.64,349.52 C667.64,344.08 659.8,345.68 659.8,342.8 C659.8,342 660.6,341.2 662.04,341.2 C663.8,341.2 664.92,342.48 664.92,342.48 L667,340.4 Z M674.52,346 C674.52,354 670.04,359.76 670.04,359.76 L672.44,361.2 C672.44,361.2 677.4,355.28 677.4,346 C677.4,336.72 672.44,330.8 672.44,330.8 L670.04,332.24 C670.04,332.24 674.52,338 674.52,346 Z M683.16,350.16 L679.96,357.04 L682.04,358.16 L686.04,351.76 L683.16,350.16 Z M227.32,392.8 L227.32,385.92 L237.08,385.92 L237.08,382.72 L227.32,382.72 L227.32,376.8 L239.64,376.8 L239.64,373.6 L223.8,373.6 L223.8,396 L239.96,396 L239.96,392.8 L227.32,392.8 Z M251.32,380.64 L247.8,380.64 L247.8,378.112 C247.8,376.96 248.6,376.16 249.72,376.16 C250.52,376.16 251.32,376.48 251.32,376.48 L251.32,373.6 C251.32,373.6 250.36,373.28 249.08,373.28 C246.2,373.28 244.6,374.88 244.6,378.08 L244.6,380.64 L242.36,380.64 L242.36,383.52 L244.6,383.52 L244.6,396 L247.8,396 L247.8,383.52 L251.32,383.52 L251.32,380.64 Z M262.2,380.64 L258.68,380.64 L258.68,378.112 C258.68,376.96 259.48,376.16 260.6,376.16 C261.4,376.16 262.2,376.48 262.2,376.48 L262.2,373.6 C262.2,373.6 261.24,373.28 259.96,373.28 C257.08,373.28 255.48,374.88 255.48,378.08 L255.48,380.64 L253.24,380.64 L253.24,383.52 L255.48,383.52 L255.48,396 L258.68,396 L258.68,383.52 L262.2,383.52 L262.2,380.64 Z M279.64,389.44 L267.64,389.44 C267.96,391.52 269.88,393.44 272.44,393.44 C275.48,393.44 277.08,391.04 277.08,391.04 L279.16,393.12 C279.16,393.12 276.76,396.32 272.44,396.32 C268.12,396.32 264.44,392.64 264.44,388.16 C264.44,383.84 267.96,380.32 272.28,380.32 C276.6,380.32 279.8,383.52 279.8,387.84 C279.8,388.8 279.64,389.44 279.64,389.44 Z M272.28,383.04 C269.88,383.04 268.28,384.64 267.768,386.72 L276.664,386.72 C276.28,384.64 274.68,383.04 272.28,383.04 Z M282.36,388.32 C282.36,392.64 286.04,396.32 290.36,396.32 C294.36,396.32 296.76,393.12 296.76,393.12 L294.68,391.04 C294.68,391.04 293.08,393.44 290.36,393.44 C287.8,393.44 285.56,391.2 285.56,388.32 C285.56,385.44 287.8,383.2 290.36,383.2 C293.08,383.2 294.52,385.44 294.52,385.44 L296.6,383.36 C296.6,383.36 294.36,380.32 290.36,380.32 C286.04,380.32 282.36,384 282.36,388.32 Z M301.88,378.72 C301.88,380 301.24,380.64 300.28,380.64 L298.68,380.64 L298.68,383.52 L301.56,383.52 L301.56,391.52 C301.56,394.72 303.16,396.32 306.04,396.32 C307.32,396.32 308.28,396 308.28,396 L308.28,393.12 C308.28,393.12 307.48,393.44 306.68,393.44 C305.56,393.44 304.76,392.64 304.76,391.488 L304.76,383.52 L307.96,383.52 L307.96,380.64 L304.76,380.64 L304.76,375.52 L301.88,375.52 L301.88,378.72 Z M321.24,382.4 C321.24,382.4 319.64,380.32 316.28,380.32 C313.08,380.32 310.84,382.56 310.84,384.8 C310.84,390.24 318.68,388.64 318.68,391.52 C318.68,392.64 317.88,393.44 316.12,393.44 C313.72,393.44 312.28,391.52 312.28,391.52 L310.2,393.6 C310.2,393.6 312.12,396.32 316.12,396.32 C319.64,396.32 321.88,394.08 321.88,391.52 C321.88,386.08 314.04,387.68 314.04,384.8 C314.04,384 314.84,383.2 316.28,383.2 C318.04,383.2 319.16,384.48 319.16,384.48 L321.24,382.4 Z M338.2,384.48 L329.56,373.6 L326.52,373.6 L326.52,396 L330.04,396 L330.04,379.68 L338.2,389.92 L346.36,379.68 L346.36,396 L349.88,396 L349.88,373.6 L346.84,373.6 L338.2,384.48 Z M367,388.32 C367,385.44 364.76,383.2 362.2,383.2 C359.64,383.2 357.4,385.44 357.4,388.32 C357.4,391.2 359.64,393.44 362.2,393.44 C364.76,393.44 367,391.2 367,388.32 Z M354.2,388.32 C354.2,384 357.88,380.32 362.2,380.32 C366.52,380.32 370.2,384 370.2,388.32 C370.2,392.64 366.52,396.32 362.2,396.32 C357.88,396.32 354.2,392.64 354.2,388.32 Z M380.28,380.32 C383.32,380.32 385.24,382.4 385.24,382.4 L385.24,373.6 L388.44,373.6 L388.44,396 L385.24,396 L385.24,394.24 C385.24,394.24 383.32,396.32 380.28,396.32 C376.28,396.32 372.76,392.8 372.76,388.32 C372.76,383.84 376.28,380.32 380.28,380.32 Z M380.6,393.44 C383,393.44 385.24,391.2 385.24,388.32 C385.24,385.44 383,383.2 380.6,383.2 C378.2,383.2 375.96,385.44 375.96,388.32 C375.96,391.2 378.2,393.44 380.6,393.44 Z M404.12,396 L407.32,396 L407.32,380.64 L404.12,380.64 L404.12,388.96 C404.12,391.84 402.52,393.44 400.12,393.44 C398.04,393.44 396.44,391.84 396.44,389.6 L396.44,380.64 L393.24,380.64 L393.24,389.6 C393.24,393.76 395.8,396.32 399.48,396.32 C402.36,396.32 404.12,394.4 404.12,394.4 L404.12,396 Z M415.48,373.6 L412.28,373.6 L412.28,396 L415.48,396 L415.48,373.6 Z M434.52,389.44 L422.52,389.44 C422.84,391.52 424.76,393.44 427.32,393.44 C430.36,393.44 431.96,391.04 431.96,391.04 L434.04,393.12 C434.04,393.12 431.64,396.32 427.32,396.32 C423,396.32 419.32,392.64 419.32,388.16 C419.32,383.84 422.84,380.32 427.16,380.32 C431.48,380.32 434.68,383.52 434.68,387.84 C434.68,388.8 434.52,389.44 434.52,389.44 Z M427.16,383.04 C424.76,383.04 423.16,384.64 422.648,386.72 L431.544,386.72 C431.16,384.64 429.56,383.04 427.16,383.04 Z M441.88,394.24 C441.88,393.12 440.92,392.16 439.8,392.16 C438.68,392.16 437.72,393.12 437.72,394.24 C437.72,395.36 438.68,396.32 439.8,396.32 C440.92,396.32 441.88,395.36 441.88,394.24 Z M453.24,380.64 L449.72,380.64 L449.72,378.112 C449.72,376.96 450.52,376.16 451.64,376.16 C452.44,376.16 453.24,376.48 453.24,376.48 L453.24,373.6 C453.24,373.6 452.28,373.28 451,373.28 C448.12,373.28 446.52,374.88 446.52,378.08 L446.52,380.64 L444.28,380.64 L444.28,383.52 L446.52,383.52 L446.52,396 L449.72,396 L449.72,383.52 L453.24,383.52 L453.24,380.64 Z M468.28,388.32 C468.28,385.44 466.04,383.2 463.48,383.2 C460.92,383.2 458.68,385.44 458.68,388.32 C458.68,391.2 460.92,393.44 463.48,393.44 C466.04,393.44 468.28,391.2 468.28,388.32 Z M455.48,388.32 C455.48,384 459.16,380.32 463.48,380.32 C467.8,380.32 471.48,384 471.48,388.32 C471.48,392.64 467.8,396.32 463.48,396.32 C459.16,396.32 455.48,392.64 455.48,388.32 Z M483.64,383.36 L483.64,380.32 L482.84,380.32 C479.96,380.32 478.2,382.24 478.2,382.24 L478.2,380.64 L475,380.64 L475,396 L478.2,396 L478.2,387.68 C478.2,384.8 479.8,383.2 482.2,383.2 C483,383.2 483.64,383.36 483.64,383.36 Z M487.32,396 L487.32,373.6 L496.76,373.6 C500.92,373.6 503.96,376.64 503.96,380.48 C503.96,385.44 499.48,387.04 499.48,387.04 L504.6,396 L500.76,396 L495.96,387.36 L490.84,387.36 L490.84,396 L487.32,396 Z M500.44,380.48 C500.44,378.4 498.84,376.8 496.76,376.8 L490.84,376.8 L490.84,384.16 L496.76,384.16 C498.84,384.16 500.44,382.56 500.44,380.48 Z M520.44,388.32 C520.44,385.44 518.2,383.2 515.64,383.2 C513.08,383.2 510.84,385.44 510.84,388.32 C510.84,391.2 513.08,393.44 515.64,393.44 C518.2,393.44 520.44,391.2 520.44,388.32 Z M507.64,388.32 C507.64,384 511.32,380.32 515.64,380.32 C519.96,380.32 523.64,384 523.64,388.32 C523.64,392.64 519.96,396.32 515.64,396.32 C511.32,396.32 507.64,392.64 507.64,388.32 Z M539,388.32 C539,385.44 536.76,383.2 534.2,383.2 C531.64,383.2 529.4,385.44 529.4,388.32 C529.4,391.2 531.64,393.44 534.2,393.44 C536.76,393.44 539,391.2 539,388.32 Z M526.2,388.32 C526.2,384 529.88,380.32 534.2,380.32 C538.52,380.32 542.2,384 542.2,388.32 C542.2,392.64 538.52,396.32 534.2,396.32 C529.88,396.32 526.2,392.64 526.2,388.32 Z M547.64,378.72 C547.64,380 547,380.64 546.04,380.64 L544.44,380.64 L544.44,383.52 L547.32,383.52 L547.32,391.52 C547.32,394.72 548.92,396.32 551.8,396.32 C553.08,396.32 554.04,396 554.04,396 L554.04,393.12 C554.04,393.12 553.24,393.44 552.44,393.44 C551.32,393.44 550.52,392.64 550.52,391.488 L550.52,383.52 L553.72,383.52 L553.72,380.64 L550.52,380.64 L550.52,375.52 L547.64,375.52 L547.64,378.72 Z M561.24,388 C561.24,380 565.72,374.24 565.72,374.24 L563.32,372.8 C563.32,372.8 558.36,378.72 558.36,388 C558.36,397.28 563.32,403.2 563.32,403.2 L565.72,401.76 C565.72,401.76 561.24,396 561.24,388 Z M583,389.44 L571,389.44 C571.32,391.52 573.24,393.44 575.8,393.44 C578.84,393.44 580.44,391.04 580.44,391.04 L582.52,393.12 C582.52,393.12 580.12,396.32 575.8,396.32 C571.48,396.32 567.8,392.64 567.8,388.16 C567.8,383.84 571.32,380.32 575.64,380.32 C579.96,380.32 583.16,383.52 583.16,387.84 C583.16,388.8 583,389.44 583,389.44 Z M575.64,383.04 C573.24,383.04 571.64,384.64 571.128,386.72 L580.024,386.72 C579.64,384.64 578.04,383.04 575.64,383.04 Z M594.36,380.64 L590.84,380.64 L590.84,378.112 C590.84,376.96 591.64,376.16 592.76,376.16 C593.56,376.16 594.36,376.48 594.36,376.48 L594.36,373.6 C594.36,373.6 593.4,373.28 592.12,373.28 C589.24,373.28 587.64,374.88 587.64,378.08 L587.64,380.64 L585.4,380.64 L585.4,383.52 L587.64,383.52 L587.64,396 L590.84,396 L590.84,383.52 L594.36,383.52 L594.36,380.64 Z M605.24,380.64 L601.72,380.64 L601.72,378.112 C601.72,376.96 602.52,376.16 603.64,376.16 C604.44,376.16 605.24,376.48 605.24,376.48 L605.24,373.6 C605.24,373.6 604.28,373.28 603,373.28 C600.12,373.28 598.52,374.88 598.52,378.08 L598.52,380.64 L596.28,380.64 L596.28,383.52 L598.52,383.52 L598.52,396 L601.72,396 L601.72,383.52 L605.24,383.52 L605.24,380.64 Z M622.68,389.44 L610.68,389.44 C611,391.52 612.92,393.44 615.48,393.44 C618.52,393.44 620.12,391.04 620.12,391.04 L622.2,393.12 C622.2,393.12 619.8,396.32 615.48,396.32 C611.16,396.32 607.48,392.64 607.48,388.16 C607.48,383.84 611,380.32 615.32,380.32 C619.64,380.32 622.84,383.52 622.84,387.84 C622.84,388.8 622.68,389.44 622.68,389.44 Z M615.32,383.04 C612.92,383.04 611.32,384.64 610.808,386.72 L619.704,386.72 C619.32,384.64 617.72,383.04 615.32,383.04 Z M625.4,388.32 C625.4,392.64 629.08,396.32 633.4,396.32 C637.4,396.32 639.8,393.12 639.8,393.12 L637.72,391.04 C637.72,391.04 636.12,393.44 633.4,393.44 C630.84,393.44 628.6,391.2 628.6,388.32 C628.6,385.44 630.84,383.2 633.4,383.2 C636.12,383.2 637.56,385.44 637.56,385.44 L639.64,383.36 C639.64,383.36 637.4,380.32 633.4,380.32 C629.08,380.32 625.4,384 625.4,388.32 Z M644.92,378.72 C644.92,380 644.28,380.64 643.32,380.64 L641.72,380.64 L641.72,383.52 L644.6,383.52 L644.6,391.52 C644.6,394.72 646.2,396.32 649.08,396.32 C650.36,396.32 651.32,396 651.32,396 L651.32,393.12 C651.32,393.12 650.52,393.44 649.72,393.44 C648.6,393.44 647.8,392.64 647.8,391.488 L647.8,383.52 L651,383.52 L651,380.64 L647.8,380.64 L647.8,375.52 L644.92,375.52 L644.92,378.72 Z M664.28,382.4 C664.28,382.4 662.68,380.32 659.32,380.32 C656.12,380.32 653.88,382.56 653.88,384.8 C653.88,390.24 661.72,388.64 661.72,391.52 C661.72,392.64 660.92,393.44 659.16,393.44 C656.76,393.44 655.32,391.52 655.32,391.52 L653.24,393.6 C653.24,393.6 655.16,396.32 659.16,396.32 C662.68,396.32 664.92,394.08 664.92,391.52 C664.92,386.08 657.08,387.68 657.08,384.8 C657.08,384 657.88,383.2 659.32,383.2 C661.08,383.2 662.2,384.48 662.2,384.48 L664.28,382.4 Z M671.8,388 C671.8,396 667.32,401.76 667.32,401.76 L669.72,403.2 C669.72,403.2 674.68,397.28 674.68,388 C674.68,378.72 669.72,372.8 669.72,372.8 L667.32,374.24 C667.32,374.24 671.8,380 671.8,388 Z M680.44,392.16 L677.24,399.04 L679.32,400.16 L683.32,393.76 L680.44,392.16 Z M212.92,442.16 L208.76,442.16 L208.76,444.72 L215.8,444.72 L215.8,415.28 L208.76,415.28 L208.76,417.84 L212.92,417.84 L212.92,442.16 Z M221.56,434.16 L218.36,441.04 L220.44,442.16 L224.44,435.76 L221.56,434.16 Z M204.6,470.72 C203.32,470.72 202.68,470.08 202.68,468.8 L202.68,461.92 C202.68,459.04 200.92,457.28 197.72,457.28 L195.96,457.28 L195.96,459.84 L197.72,459.84 C199,459.84 199.8,460.64 199.8,461.92 L199.8,468.8 C199.8,471.68 201.56,472 201.528,472 C201.56,472 199.8,472.32 199.8,475.2 L199.8,482.08 C199.8,483.36 199,484.16 197.72,484.16 L195.96,484.16 L195.96,486.72 L197.72,486.72 C200.92,486.72 202.68,484.96 202.68,482.08 L202.68,475.2 C202.68,473.92 203.32,473.28 204.6,473.28 L204.6,470.72 Z M211.96,472 C211.96,480 207.48,485.76 207.48,485.76 L209.88,487.2 C209.88,487.2 214.84,481.28 214.84,472 C214.84,462.72 209.88,456.8 209.88,456.8 L207.48,458.24 C207.48,458.24 211.96,464 211.96,472 Z M211.32,515.44 L199.32,515.44 C199.64,517.52 201.56,519.44 204.12,519.44 C207.16,519.44 208.76,517.04 208.76,517.04 L210.84,519.12 C210.84,519.12 208.44,522.32 204.12,522.32 C199.8,522.32 196.12,518.64 196.12,514.16 C196.12,509.84 199.64,506.32 203.96,506.32 C208.28,506.32 211.48,509.52 211.48,513.84 C211.48,514.8 211.32,515.44 211.32,515.44 Z M203.96,509.04 C201.56,509.04 199.96,510.64 199.448,512.72 L208.344,512.72 C207.96,510.64 206.36,509.04 203.96,509.04 Z M222.68,514 L227.96,506.64 L224.28,506.64 L220.76,511.6 L217.24,506.64 L213.56,506.64 L218.84,514 L213.08,522 L216.76,522 L220.76,516.4 L224.76,522 L228.44,522 L222.68,514 Z M239.16,522.32 C236.12,522.32 234.2,520.24 234.2,520.24 L234.2,528.72 L231,528.72 L231,506.64 L234.2,506.64 L234.2,508.4 C234.2,508.4 236.12,506.32 239.16,506.32 C243.16,506.32 246.68,509.84 246.68,514.32 C246.68,518.8 243.16,522.32 239.16,522.32 Z M238.84,509.2 C236.44,509.2 234.2,511.44 234.2,514.32 C234.2,517.2 236.44,519.44 238.84,519.44 C241.24,519.44 243.48,517.2 243.48,514.32 C243.48,511.44 241.24,509.2 238.84,509.2 Z M262.04,514.32 C262.04,511.44 259.8,509.2 257.24,509.2 C254.68,509.2 252.44,511.44 252.44,514.32 C252.44,517.2 254.68,519.44 257.24,519.44 C259.8,519.44 262.04,517.2 262.04,514.32 Z M249.24,514.32 C249.24,510 252.92,506.32 257.24,506.32 C261.56,506.32 265.24,510 265.24,514.32 C265.24,518.64 261.56,522.32 257.24,522.32 C252.92,522.32 249.24,518.64 249.24,514.32 Z M277.4,509.36 L277.4,506.32 L276.6,506.32 C273.72,506.32 271.96,508.24 271.96,508.24 L271.96,506.64 L268.76,506.64 L268.76,522 L271.96,522 L271.96,513.68 C271.96,510.8 273.56,509.2 275.96,509.2 C276.76,509.2 277.4,509.36 277.4,509.36 Z M281.88,504.72 C281.88,506 281.24,506.64 280.28,506.64 L278.68,506.64 L278.68,509.52 L281.56,509.52 L281.56,517.52 C281.56,520.72 283.16,522.32 286.04,522.32 C287.32,522.32 288.28,522 288.28,522 L288.28,519.12 C288.28,519.12 287.48,519.44 286.68,519.44 C285.56,519.44 284.76,518.64 284.76,517.488 L284.76,509.52 L287.96,509.52 L287.96,506.64 L284.76,506.64 L284.76,501.52 L281.88,501.52 L281.88,504.72 Z M297.56,514.32 C297.56,518.64 301.24,522.32 305.56,522.32 C309.56,522.32 311.96,519.12 311.96,519.12 L309.88,517.04 C309.88,517.04 308.28,519.44 305.56,519.44 C303,519.44 300.76,517.2 300.76,514.32 C300.76,511.44 303,509.2 305.56,509.2 C308.28,509.2 309.72,511.44 309.72,511.44 L311.8,509.36 C311.8,509.36 309.56,506.32 305.56,506.32 C301.24,506.32 297.56,510 297.56,514.32 Z M318.68,499.6 L315.48,499.6 L315.48,522 L318.68,522 L318.68,499.6 Z M335.8,522 L332.6,522 L332.6,520.4 C332.6,520.4 330.84,522.32 327.96,522.32 C324.76,522.32 322.52,520.08 322.52,517.84 C322.52,515.28 324.28,513.52 327,513.04 L332.6,512.08 C332.6,510.48 331.32,509.2 329.4,509.2 C326.68,509.2 325.4,511.28 325.4,511.28 L323.32,509.2 C323.32,509.2 325.4,506.32 329.4,506.32 C333.24,506.32 335.8,508.88 335.8,512.08 L335.8,522 Z M328.44,519.44 C331,519.44 332.6,517.84 332.6,514.96 L332.6,514.64 L327.64,515.44 C326.52,515.632 325.72,516.4 325.72,517.52 C325.72,518.48 326.68,519.44 328.44,519.44 Z M350.04,508.4 C350.04,508.4 348.44,506.32 345.08,506.32 C341.88,506.32 339.64,508.56 339.64,510.8 C339.64,516.24 347.48,514.64 347.48,517.52 C347.48,518.64 346.68,519.44 344.92,519.44 C342.52,519.44 341.08,517.52 341.08,517.52 L339,519.6 C339,519.6 340.92,522.32 344.92,522.32 C348.44,522.32 350.68,520.08 350.68,517.52 C350.68,512.08 342.84,513.68 342.84,510.8 C342.84,510 343.64,509.2 345.08,509.2 C346.84,509.2 347.96,510.48 347.96,510.48 L350.04,508.4 Z M363.96,508.4 C363.96,508.4 362.36,506.32 359,506.32 C355.8,506.32 353.56,508.56 353.56,510.8 C353.56,516.24 361.4,514.64 361.4,517.52 C361.4,518.64 360.6,519.44 358.84,519.44 C356.44,519.44 355,517.52 355,517.52 L352.92,519.6 C352.92,519.6 354.84,522.32 358.84,522.32 C362.36,522.32 364.6,520.08 364.6,517.52 C364.6,512.08 356.76,513.68 356.76,510.8 C356.76,510 357.56,509.2 359,509.2 C360.76,509.2 361.88,510.48 361.88,510.48 L363.96,508.4 Z M375.64,522 L375.64,499.6 L385.08,499.6 C389.24,499.6 392.28,502.64 392.28,506.48 C392.28,511.44 387.8,513.04 387.8,513.04 L392.92,522 L389.08,522 L384.28,513.36 L379.16,513.36 L379.16,522 L375.64,522 Z M388.76,506.48 C388.76,504.4 387.16,502.8 385.08,502.8 L379.16,502.8 L379.16,510.16 L385.08,510.16 C387.16,510.16 388.76,508.56 388.76,506.48 Z M408.76,514.32 C408.76,511.44 406.52,509.2 403.96,509.2 C401.4,509.2 399.16,511.44 399.16,514.32 C399.16,517.2 401.4,519.44 403.96,519.44 C406.52,519.44 408.76,517.2 408.76,514.32 Z M395.96,514.32 C395.96,510 399.64,506.32 403.96,506.32 C408.28,506.32 411.96,510 411.96,514.32 C411.96,518.64 408.28,522.32 403.96,522.32 C399.64,522.32 395.96,518.64 395.96,514.32 Z M427.32,514.32 C427.32,511.44 425.08,509.2 422.52,509.2 C419.96,509.2 417.72,511.44 417.72,514.32 C417.72,517.2 419.96,519.44 422.52,519.44 C425.08,519.44 427.32,517.2 427.32,514.32 Z M414.52,514.32 C414.52,510 418.2,506.32 422.52,506.32 C426.84,506.32 430.52,510 430.52,514.32 C430.52,518.64 426.84,522.32 422.52,522.32 C418.2,522.32 414.52,518.64 414.52,514.32 Z M435.96,504.72 C435.96,506 435.32,506.64 434.36,506.64 L432.76,506.64 L432.76,509.52 L435.64,509.52 L435.64,517.52 C435.64,520.72 437.24,522.32 440.12,522.32 C441.4,522.32 442.36,522 442.36,522 L442.36,519.12 C442.36,519.12 441.56,519.44 440.76,519.44 C439.64,519.44 438.84,518.64 438.84,517.488 L438.84,509.52 L442.04,509.52 L442.04,506.64 L438.84,506.64 L438.84,501.52 L435.96,501.52 L435.96,504.72 Z M459,510.48 L450.36,499.6 L447.32,499.6 L447.32,522 L450.84,522 L450.84,505.68 L459,515.92 L467.16,505.68 L467.16,522 L470.68,522 L470.68,499.6 L467.64,499.6 L459,510.48 Z M487.8,514.32 C487.8,511.44 485.56,509.2 483,509.2 C480.44,509.2 478.2,511.44 478.2,514.32 C478.2,517.2 480.44,519.44 483,519.44 C485.56,519.44 487.8,517.2 487.8,514.32 Z M475,514.32 C475,510 478.68,506.32 483,506.32 C487.32,506.32 491,510 491,514.32 C491,518.64 487.32,522.32 483,522.32 C478.68,522.32 475,518.64 475,514.32 Z M501.08,506.32 C504.12,506.32 506.04,508.4 506.04,508.4 L506.04,499.6 L509.24,499.6 L509.24,522 L506.04,522 L506.04,520.24 C506.04,520.24 504.12,522.32 501.08,522.32 C497.08,522.32 493.56,518.8 493.56,514.32 C493.56,509.84 497.08,506.32 501.08,506.32 Z M501.4,519.44 C503.8,519.44 506.04,517.2 506.04,514.32 C506.04,511.44 503.8,509.2 501.4,509.2 C499,509.2 496.76,511.44 496.76,514.32 C496.76,517.2 499,519.44 501.4,519.44 Z M524.92,522 L528.12,522 L528.12,506.64 L524.92,506.64 L524.92,514.96 C524.92,517.84 523.32,519.44 520.92,519.44 C518.84,519.44 517.24,517.84 517.24,515.6 L517.24,506.64 L514.04,506.64 L514.04,515.6 C514.04,519.76 516.6,522.32 520.28,522.32 C523.16,522.32 524.92,520.4 524.92,520.4 L524.92,522 Z M536.28,499.6 L533.08,499.6 L533.08,522 L536.28,522 L536.28,499.6 Z M555.32,515.44 L543.32,515.44 C543.64,517.52 545.56,519.44 548.12,519.44 C551.16,519.44 552.76,517.04 552.76,517.04 L554.84,519.12 C554.84,519.12 552.44,522.32 548.12,522.32 C543.8,522.32 540.12,518.64 540.12,514.16 C540.12,509.84 543.64,506.32 547.96,506.32 C552.28,506.32 555.48,509.52 555.48,513.84 C555.48,514.8 555.32,515.44 555.32,515.44 Z M547.96,509.04 C545.56,509.04 543.96,510.64 543.448,512.72 L552.344,512.72 C551.96,510.64 550.36,509.04 547.96,509.04 Z M565.24,515.28 C566.52,515.28 567.16,515.92 567.16,517.2 L567.16,524.08 C567.16,526.96 568.92,528.72 572.12,528.72 L573.88,528.72 L573.88,526.16 L572.12,526.16 C570.84,526.16 570.04,525.36 570.04,524.08 L570.04,517.2 C570.04,514.32 568.28,514 568.312,514 C568.28,514 570.04,513.68 570.04,510.8 L570.04,503.92 C570.04,502.64 570.84,501.84 572.12,501.84 L573.88,501.84 L573.88,499.28 L572.12,499.28 C568.92,499.28 567.16,501.04 567.16,503.92 L567.16,510.8 C567.16,512.08 566.52,512.72 565.24,512.72 L565.24,515.28 Z M584.44,512.72 C583.16,512.72 582.52,512.08 582.52,510.8 L582.52,503.92 C582.52,501.04 580.76,499.28 577.56,499.28 L575.8,499.28 L575.8,501.84 L577.56,501.84 C578.84,501.84 579.64,502.64 579.64,503.92 L579.64,510.8 C579.64,513.68 581.4,514 581.368,514 C581.4,514 579.64,514.32 579.64,517.2 L579.64,524.08 C579.64,525.36 578.84,526.16 577.56,526.16 L575.8,526.16 L575.8,528.72 L577.56,528.72 C580.76,528.72 582.52,526.96 582.52,524.08 L582.52,517.2 C582.52,515.92 583.16,515.28 584.44,515.28 L584.44,512.72 Z" id="@NgModule({-imports:" fill="#545E6F"></path>
        </g>
    </g>
</svg>