<?xml version="1.0" encoding="UTF-8"?>
<svg width="1280px" height="720px" viewBox="0 0 1280 720" version="1.1" xmlns="http://www.w3.org/2000/svg" xmlns:xlink="http://www.w3.org/1999/xlink" style="background: #FFFFFF;">
    <!-- Generator: Sketch 47.1 (45422) - http://www.bohemiancoding.com/sketch -->
    <title>featuremodule</title>
    <desc>Created with Sketch.</desc>
    <defs></defs>
    <g id="Page-1" stroke="none" stroke-width="1" fill="none" fill-rule="evenodd">
        <g id="featuremodule">
            <g id="Group" transform="translate(125.000000, 139.000000)">
                <rect id="Rectangle-7" fill="#F4F6F8" x="0" y="24" width="1030" height="418" rx="15"></rect>
                <path d="M15,0 L1015,0 L1015,1.77635684e-15 C1023.28427,5.91178485e-14 1030,6.71572875 1030,15 L1030,58 L0,58 L0,15 L-1.77635684e-15,15 C-2.79088747e-15,6.71572875 6.71572875,-2.54560899e-16 15,-1.77635684e-15 Z" id="Rectangle" fill="#4FB688"></path>
                <text id="FEATURE-MODULE" font-family="TTNorms-Bold, TT Norms" font-size="24" font-weight="bold" fill="#FFFFFF">
                    <tspan x="401" y="38">FEATURE MODULE</tspan>
                </text>
            </g>
            <path d="M209.4,258.48 C207.48,258.48 205.88,260.08 205.88,262.16 C205.88,264.24 207.48,265.84 209.4,265.84 C211.16,265.84 212.6,264.4 212.6,262.16 C212.6,259.92 211.16,258.48 209.4,258.48 Z M209.08,256.24 C211.48,256.24 212.6,257.68 212.6,257.68 L212.6,256.4 L214.84,256.4 L214.84,263.92 C214.84,265.04 215.64,265.84 216.6,265.84 C218.04,265.84 219.32,264.56 219.32,261.36 C219.32,256.24 215.16,252.08 209.56,252.08 C204.28,252.08 199.8,256.56 199.8,262 C199.8,267.44 204.28,271.92 209.56,271.92 C213.24,271.92 215.32,269.84 215.32,269.84 L216.76,271.6 C216.76,271.6 214.2,274.16 209.56,274.16 C202.84,274.16 197.24,268.56 197.24,262 C197.24,255.44 202.84,249.84 209.56,249.84 C216.6,249.84 221.88,255.12 221.88,261.36 C221.88,265.84 219.64,268.08 216.6,268.08 C214.2,268.08 213.08,266.16 213.08,266.16 C213.08,266.16 211.96,268.08 209.08,268.08 C206.04,268.08 203.48,265.52 203.48,262.16 C203.48,258.8 206.04,256.24 209.08,256.24 Z M242.84,247.6 L242.84,263.76 L230.36,247.6 L227.32,247.6 L227.32,270 L230.84,270 L230.84,253.84 L243.32,270 L246.36,270 L246.36,247.6 L242.84,247.6 Z M262.52,269.072 L262.52,267.76 C262.52,267.76 260.76,269.68 257.88,269.68 C254.04,269.68 250.68,266.32 250.68,262 C250.68,257.68 254.04,254.32 257.88,254.32 C260.76,254.32 262.52,256.24 262.52,256.24 L262.52,254.64 L265.72,254.64 L265.72,269.04 C265.72,273.36 262.36,276.72 258.04,276.72 C253.4,276.72 251.16,273.52 251.16,273.52 L253.24,271.44 C253.24,271.44 255,273.84 258.04,273.84 C260.6,273.84 262.52,271.92 262.52,269.072 Z M253.88,262 C253.88,264.72 255.96,266.8 258.2,266.8 C260.44,266.8 262.52,264.72 262.52,262 C262.52,259.28 260.44,257.2 258.2,257.2 C255.96,257.2 253.88,259.28 253.88,262 Z M283,258.48 L274.36,247.6 L271.32,247.6 L271.32,270 L274.84,270 L274.84,253.68 L283,263.92 L291.16,253.68 L291.16,270 L294.68,270 L294.68,247.6 L291.64,247.6 L283,258.48 Z M311.8,262.32 C311.8,259.44 309.56,257.2 307,257.2 C304.44,257.2 302.2,259.44 302.2,262.32 C302.2,265.2 304.44,267.44 307,267.44 C309.56,267.44 311.8,265.2 311.8,262.32 Z M299,262.32 C299,258 302.68,254.32 307,254.32 C311.32,254.32 315,258 315,262.32 C315,266.64 311.32,270.32 307,270.32 C302.68,270.32 299,266.64 299,262.32 Z M325.08,254.32 C328.12,254.32 330.04,256.4 330.04,256.4 L330.04,247.6 L333.24,247.6 L333.24,270 L330.04,270 L330.04,268.24 C330.04,268.24 328.12,270.32 325.08,270.32 C321.08,270.32 317.56,266.8 317.56,262.32 C317.56,257.84 321.08,254.32 325.08,254.32 Z M325.4,267.44 C327.8,267.44 330.04,265.2 330.04,262.32 C330.04,259.44 327.8,257.2 325.4,257.2 C323,257.2 320.76,259.44 320.76,262.32 C320.76,265.2 323,267.44 325.4,267.44 Z M348.92,270 L352.12,270 L352.12,254.64 L348.92,254.64 L348.92,262.96 C348.92,265.84 347.32,267.44 344.92,267.44 C342.84,267.44 341.24,265.84 341.24,263.6 L341.24,254.64 L338.04,254.64 L338.04,263.6 C338.04,267.76 340.6,270.32 344.28,270.32 C347.16,270.32 348.92,268.4 348.92,268.4 L348.92,270 Z M360.28,247.6 L357.08,247.6 L357.08,270 L360.28,270 L360.28,247.6 Z M379.32,263.44 L367.32,263.44 C367.64,265.52 369.56,267.44 372.12,267.44 C375.16,267.44 376.76,265.04 376.76,265.04 L378.84,267.12 C378.84,267.12 376.44,270.32 372.12,270.32 C367.8,270.32 364.12,266.64 364.12,262.16 C364.12,257.84 367.64,254.32 371.96,254.32 C376.28,254.32 379.48,257.52 379.48,261.84 C379.48,262.8 379.32,263.44 379.32,263.44 Z M371.96,257.04 C369.56,257.04 367.96,258.64 367.448,260.72 L376.344,260.72 C375.96,258.64 374.36,257.04 371.96,257.04 Z M386.36,262 C386.36,254 390.84,248.24 390.84,248.24 L388.44,246.8 C388.44,246.8 383.48,252.72 383.48,262 C383.48,271.28 388.44,277.2 388.44,277.2 L390.84,275.76 C390.84,275.76 386.36,270 386.36,262 Z M393.72,263.28 C395,263.28 395.64,263.92 395.64,265.2 L395.64,272.08 C395.64,274.96 397.4,276.72 400.6,276.72 L402.36,276.72 L402.36,274.16 L400.6,274.16 C399.32,274.16 398.52,273.36 398.52,272.08 L398.52,265.2 C398.52,262.32 396.76,262 396.792,262 C396.76,262 398.52,261.68 398.52,258.8 L398.52,251.92 C398.52,250.64 399.32,249.84 400.6,249.84 L402.36,249.84 L402.36,247.28 L400.6,247.28 C397.4,247.28 395.64,249.04 395.64,251.92 L395.64,258.8 C395.64,260.08 395,260.72 393.72,260.72 L393.72,263.28 Z M213.24,296.64 L210.04,296.64 L210.04,312 L213.24,312 L213.24,296.64 Z M213.56,291.84 C213.56,290.72 212.76,289.92 211.64,289.92 C210.52,289.92 209.72,290.72 209.72,291.84 C209.72,292.96 210.52,293.76 211.64,293.76 C212.76,293.76 213.56,292.96 213.56,291.84 Z M237.72,312 L240.92,312 L240.92,303.04 C240.92,298.56 238.68,296.32 235.16,296.32 C231.64,296.32 229.88,298.88 229.88,298.88 C229.88,298.88 228.6,296.32 225.24,296.32 C222.68,296.32 221.08,298.24 221.08,298.24 L221.08,296.64 L217.88,296.64 L217.88,312 L221.08,312 L221.08,303.68 C221.08,300.8 222.68,299.2 224.6,299.2 C226.52,299.2 227.8,300.48 227.8,303.04 L227.8,312 L231,312 L231,303.68 C231,300.8 232.6,299.2 234.52,299.2 C236.44,299.2 237.72,300.48 237.72,303.04 L237.72,312 Z M253.56,312.32 C250.52,312.32 248.6,310.24 248.6,310.24 L248.6,318.72 L245.4,318.72 L245.4,296.64 L248.6,296.64 L248.6,298.4 C248.6,298.4 250.52,296.32 253.56,296.32 C257.56,296.32 261.08,299.84 261.08,304.32 C261.08,308.8 257.56,312.32 253.56,312.32 Z M253.24,299.2 C250.84,299.2 248.6,301.44 248.6,304.32 C248.6,307.2 250.84,309.44 253.24,309.44 C255.64,309.44 257.88,307.2 257.88,304.32 C257.88,301.44 255.64,299.2 253.24,299.2 Z M276.44,304.32 C276.44,301.44 274.2,299.2 271.64,299.2 C269.08,299.2 266.84,301.44 266.84,304.32 C266.84,307.2 269.08,309.44 271.64,309.44 C274.2,309.44 276.44,307.2 276.44,304.32 Z M263.64,304.32 C263.64,300 267.32,296.32 271.64,296.32 C275.96,296.32 279.64,300 279.64,304.32 C279.64,308.64 275.96,312.32 271.64,312.32 C267.32,312.32 263.64,308.64 263.64,304.32 Z M291.8,299.36 L291.8,296.32 L291,296.32 C288.12,296.32 286.36,298.24 286.36,298.24 L286.36,296.64 L283.16,296.64 L283.16,312 L286.36,312 L286.36,303.68 C286.36,300.8 287.96,299.2 290.36,299.2 C291.16,299.2 291.8,299.36 291.8,299.36 Z M296.28,294.72 C296.28,296 295.64,296.64 294.68,296.64 L293.08,296.64 L293.08,299.52 L295.96,299.52 L295.96,307.52 C295.96,310.72 297.56,312.32 300.44,312.32 C301.72,312.32 302.68,312 302.68,312 L302.68,309.12 C302.68,309.12 301.88,309.44 301.08,309.44 C299.96,309.44 299.16,308.64 299.16,307.488 L299.16,299.52 L302.36,299.52 L302.36,296.64 L299.16,296.64 L299.16,291.52 L296.28,291.52 L296.28,294.72 Z M315.64,298.4 C315.64,298.4 314.04,296.32 310.68,296.32 C307.48,296.32 305.24,298.56 305.24,300.8 C305.24,306.24 313.08,304.64 313.08,307.52 C313.08,308.64 312.28,309.44 310.52,309.44 C308.12,309.44 306.68,307.52 306.68,307.52 L304.6,309.6 C304.6,309.6 306.52,312.32 310.52,312.32 C314.04,312.32 316.28,310.08 316.28,307.52 C316.28,302.08 308.44,303.68 308.44,300.8 C308.44,300 309.24,299.2 310.68,299.2 C312.44,299.2 313.56,300.48 313.56,300.48 L315.64,298.4 Z M319.32,310.24 C319.32,311.36 320.28,312.32 321.4,312.32 C322.52,312.32 323.48,311.36 323.48,310.24 C323.48,309.12 322.52,308.16 321.4,308.16 C320.28,308.16 319.32,309.12 319.32,310.24 Z M319.32,298.4 C319.32,299.52 320.28,300.48 321.4,300.48 C322.52,300.48 323.48,299.52 323.48,298.4 C323.48,297.28 322.52,296.32 321.4,296.32 C320.28,296.32 319.32,297.28 319.32,298.4 Z M336.92,291.84 L341.08,291.84 L341.08,289.28 L334.04,289.28 L334.04,318.72 L341.08,318.72 L341.08,316.16 L336.92,316.16 L336.92,291.84 Z M234.36,347.6 C234.36,349.52 232.76,351.12 229.88,351.12 C225.88,351.12 224.12,348.56 224.12,348.56 L221.88,350.8 C221.88,350.8 224.44,354.32 229.88,354.32 C235,354.32 237.88,351.44 237.88,347.6 C237.88,339.28 226.04,342.48 226.04,337.36 C226.04,335.92 227.48,334.48 229.88,334.48 C232.92,334.48 234.36,336.4 234.36,336.4 L236.6,334.16 C236.6,334.16 234.36,331.28 229.88,331.28 C225.24,331.28 222.52,334 222.52,337.36 C222.52,345.68 234.36,342.48 234.36,347.6 Z M243.48,336.72 C243.48,338 242.84,338.64 241.88,338.64 L240.28,338.64 L240.28,341.52 L243.16,341.52 L243.16,349.52 C243.16,352.72 244.76,354.32 247.64,354.32 C248.92,354.32 249.88,354 249.88,354 L249.88,351.12 C249.88,351.12 249.08,351.44 248.28,351.44 C247.16,351.44 246.36,350.64 246.36,349.488 L246.36,341.52 L249.56,341.52 L249.56,338.64 L246.36,338.64 L246.36,333.52 L243.48,333.52 L243.48,336.72 Z M264.92,346.32 C264.92,343.44 262.68,341.2 260.12,341.2 C257.56,341.2 255.32,343.44 255.32,346.32 C255.32,349.2 257.56,351.44 260.12,351.44 C262.68,351.44 264.92,349.2 264.92,346.32 Z M252.12,346.32 C252.12,342 255.8,338.32 260.12,338.32 C264.44,338.32 268.12,342 268.12,346.32 C268.12,350.64 264.44,354.32 260.12,354.32 C255.8,354.32 252.12,350.64 252.12,346.32 Z M280.28,341.36 L280.28,338.32 L279.48,338.32 C276.6,338.32 274.84,340.24 274.84,340.24 L274.84,338.64 L271.64,338.64 L271.64,354 L274.84,354 L274.84,345.68 C274.84,342.8 276.44,341.2 278.84,341.2 C279.64,341.2 280.28,341.36 280.28,341.36 Z M297.08,347.44 L285.08,347.44 C285.4,349.52 287.32,351.44 289.88,351.44 C292.92,351.44 294.52,349.04 294.52,349.04 L296.6,351.12 C296.6,351.12 294.2,354.32 289.88,354.32 C285.56,354.32 281.88,350.64 281.88,346.16 C281.88,341.84 285.4,338.32 289.72,338.32 C294.04,338.32 297.24,341.52 297.24,345.84 C297.24,346.8 297.08,347.44 297.08,347.44 Z M289.72,341.04 C287.32,341.04 285.72,342.64 285.208,344.72 L294.104,344.72 C293.72,342.64 292.12,341.04 289.72,341.04 Z M313.56,342.48 L304.92,331.6 L301.88,331.6 L301.88,354 L305.4,354 L305.4,337.68 L313.56,347.92 L321.72,337.68 L321.72,354 L325.24,354 L325.24,331.6 L322.2,331.6 L313.56,342.48 Z M342.36,346.32 C342.36,343.44 340.12,341.2 337.56,341.2 C335,341.2 332.76,343.44 332.76,346.32 C332.76,349.2 335,351.44 337.56,351.44 C340.12,351.44 342.36,349.2 342.36,346.32 Z M329.56,346.32 C329.56,342 333.24,338.32 337.56,338.32 C341.88,338.32 345.56,342 345.56,346.32 C345.56,350.64 341.88,354.32 337.56,354.32 C333.24,354.32 329.56,350.64 329.56,346.32 Z M355.64,338.32 C358.68,338.32 360.6,340.4 360.6,340.4 L360.6,331.6 L363.8,331.6 L363.8,354 L360.6,354 L360.6,352.24 C360.6,352.24 358.68,354.32 355.64,354.32 C351.64,354.32 348.12,350.8 348.12,346.32 C348.12,341.84 351.64,338.32 355.64,338.32 Z M355.96,351.44 C358.36,351.44 360.6,349.2 360.6,346.32 C360.6,343.44 358.36,341.2 355.96,341.2 C353.56,341.2 351.32,343.44 351.32,346.32 C351.32,349.2 353.56,351.44 355.96,351.44 Z M379.48,354 L382.68,354 L382.68,338.64 L379.48,338.64 L379.48,346.96 C379.48,349.84 377.88,351.44 375.48,351.44 C373.4,351.44 371.8,349.84 371.8,347.6 L371.8,338.64 L368.6,338.64 L368.6,347.6 C368.6,351.76 371.16,354.32 374.84,354.32 C377.72,354.32 379.48,352.4 379.48,352.4 L379.48,354 Z M390.84,331.6 L387.64,331.6 L387.64,354 L390.84,354 L390.84,331.6 Z M409.88,347.44 L397.88,347.44 C398.2,349.52 400.12,351.44 402.68,351.44 C405.72,351.44 407.32,349.04 407.32,349.04 L409.4,351.12 C409.4,351.12 407,354.32 402.68,354.32 C398.36,354.32 394.68,350.64 394.68,346.16 C394.68,341.84 398.2,338.32 402.52,338.32 C406.84,338.32 410.04,341.52 410.04,345.84 C410.04,346.8 409.88,347.44 409.88,347.44 Z M402.52,341.04 C400.12,341.04 398.52,342.64 398.008,344.72 L406.904,344.72 C406.52,342.64 404.92,341.04 402.52,341.04 Z M417.24,352.24 C417.24,351.12 416.28,350.16 415.16,350.16 C414.04,350.16 413.08,351.12 413.08,352.24 C413.08,353.36 414.04,354.32 415.16,354.32 C416.28,354.32 417.24,353.36 417.24,352.24 Z M428.6,338.64 L425.08,338.64 L425.08,336.112 C425.08,334.96 425.88,334.16 427,334.16 C427.8,334.16 428.6,334.48 428.6,334.48 L428.6,331.6 C428.6,331.6 427.64,331.28 426.36,331.28 C423.48,331.28 421.88,332.88 421.88,336.08 L421.88,338.64 L419.64,338.64 L419.64,341.52 L421.88,341.52 L421.88,354 L425.08,354 L425.08,341.52 L428.6,341.52 L428.6,338.64 Z M443.64,346.32 C443.64,343.44 441.4,341.2 438.84,341.2 C436.28,341.2 434.04,343.44 434.04,346.32 C434.04,349.2 436.28,351.44 438.84,351.44 C441.4,351.44 443.64,349.2 443.64,346.32 Z M430.84,346.32 C430.84,342 434.52,338.32 438.84,338.32 C443.16,338.32 446.84,342 446.84,346.32 C446.84,350.64 443.16,354.32 438.84,354.32 C434.52,354.32 430.84,350.64 430.84,346.32 Z M459,341.36 L459,338.32 L458.2,338.32 C455.32,338.32 453.56,340.24 453.56,340.24 L453.56,338.64 L450.36,338.64 L450.36,354 L453.56,354 L453.56,345.68 C453.56,342.8 455.16,341.2 457.56,341.2 C458.36,341.2 459,341.36 459,341.36 Z M462.68,331.6 L462.68,354 L466.2,354 L466.2,344.24 L475.8,344.24 L475.8,341.04 L466.2,341.04 L466.2,334.8 L478.36,334.8 L478.36,331.6 L462.68,331.6 Z M494.36,347.44 L482.36,347.44 C482.68,349.52 484.6,351.44 487.16,351.44 C490.2,351.44 491.8,349.04 491.8,349.04 L493.88,351.12 C493.88,351.12 491.48,354.32 487.16,354.32 C482.84,354.32 479.16,350.64 479.16,346.16 C479.16,341.84 482.68,338.32 487,338.32 C491.32,338.32 494.52,341.52 494.52,345.84 C494.52,346.8 494.36,347.44 494.36,347.44 Z M487,341.04 C484.6,341.04 483,342.64 482.488,344.72 L491.384,344.72 C491,342.64 489.4,341.04 487,341.04 Z M510.36,354 L507.16,354 L507.16,352.4 C507.16,352.4 505.4,354.32 502.52,354.32 C499.32,354.32 497.08,352.08 497.08,349.84 C497.08,347.28 498.84,345.52 501.56,345.04 L507.16,344.08 C507.16,342.48 505.88,341.2 503.96,341.2 C501.24,341.2 499.96,343.28 499.96,343.28 L497.88,341.2 C497.88,341.2 499.96,338.32 503.96,338.32 C507.8,338.32 510.36,340.88 510.36,344.08 L510.36,354 Z M503,351.44 C505.56,351.44 507.16,349.84 507.16,346.96 L507.16,346.64 L502.2,347.44 C501.08,347.632 500.28,348.4 500.28,349.52 C500.28,350.48 501.24,351.44 503,351.44 Z M516.76,336.72 C516.76,338 516.12,338.64 515.16,338.64 L513.56,338.64 L513.56,341.52 L516.44,341.52 L516.44,349.52 C516.44,352.72 518.04,354.32 520.92,354.32 C522.2,354.32 523.16,354 523.16,354 L523.16,351.12 C523.16,351.12 522.36,351.44 521.56,351.44 C520.44,351.44 519.64,350.64 519.64,349.488 L519.64,341.52 L522.84,341.52 L522.84,338.64 L519.64,338.64 L519.64,333.52 L516.76,333.52 L516.76,336.72 Z M537.88,354 L541.08,354 L541.08,338.64 L537.88,338.64 L537.88,346.96 C537.88,349.84 536.28,351.44 533.88,351.44 C531.8,351.44 530.2,349.84 530.2,347.6 L530.2,338.64 L527,338.64 L527,347.6 C527,351.76 529.56,354.32 533.24,354.32 C536.12,354.32 537.88,352.4 537.88,352.4 L537.88,354 Z M554.36,341.36 L554.36,338.32 L553.56,338.32 C550.68,338.32 548.92,340.24 548.92,340.24 L548.92,338.64 L545.72,338.64 L545.72,354 L548.92,354 L548.92,345.68 C548.92,342.8 550.52,341.2 552.92,341.2 C553.72,341.2 554.36,341.36 554.36,341.36 Z M571.16,347.44 L559.16,347.44 C559.48,349.52 561.4,351.44 563.96,351.44 C567,351.44 568.6,349.04 568.6,349.04 L570.68,351.12 C570.68,351.12 568.28,354.32 563.96,354.32 C559.64,354.32 555.96,350.64 555.96,346.16 C555.96,341.84 559.48,338.32 563.8,338.32 C568.12,338.32 571.32,341.52 571.32,345.84 C571.32,346.8 571.16,347.44 571.16,347.44 Z M563.8,341.04 C561.4,341.04 559.8,342.64 559.288,344.72 L568.184,344.72 C567.8,342.64 566.2,341.04 563.8,341.04 Z M578.2,346 C578.2,338 582.68,332.24 582.68,332.24 L580.28,330.8 C580.28,330.8 575.32,336.72 575.32,346 C575.32,355.28 580.28,361.2 580.28,361.2 L582.68,359.76 C582.68,359.76 578.2,354 578.2,346 Z M588.44,331.6 L585.56,331.6 L585.56,338.32 L588.44,338.32 L588.44,331.6 Z M595.64,336.72 C595.64,338 595,338.64 594.04,338.64 L592.44,338.64 L592.44,341.52 L595.32,341.52 L595.32,349.52 C595.32,352.72 596.92,354.32 599.8,354.32 C601.08,354.32 602.04,354 602.04,354 L602.04,351.12 C602.04,351.12 601.24,351.44 600.44,351.44 C599.32,351.44 598.52,350.64 598.52,349.488 L598.52,341.52 L601.72,341.52 L601.72,338.64 L598.52,338.64 L598.52,333.52 L595.64,333.52 L595.64,336.72 Z M617.08,346.32 C617.08,343.44 614.84,341.2 612.28,341.2 C609.72,341.2 607.48,343.44 607.48,346.32 C607.48,349.2 609.72,351.44 612.28,351.44 C614.84,351.44 617.08,349.2 617.08,346.32 Z M604.28,346.32 C604.28,342 607.96,338.32 612.28,338.32 C616.6,338.32 620.28,342 620.28,346.32 C620.28,350.64 616.6,354.32 612.28,354.32 C607.96,354.32 604.28,350.64 604.28,346.32 Z M630.36,338.32 C633.4,338.32 635.32,340.4 635.32,340.4 L635.32,331.6 L638.52,331.6 L638.52,354 L635.32,354 L635.32,352.24 C635.32,352.24 633.4,354.32 630.36,354.32 C626.36,354.32 622.84,350.8 622.84,346.32 C622.84,341.84 626.36,338.32 630.36,338.32 Z M630.68,351.44 C633.08,351.44 635.32,349.2 635.32,346.32 C635.32,343.44 633.08,341.2 630.68,341.2 C628.28,341.2 626.04,343.44 626.04,346.32 C626.04,349.2 628.28,351.44 630.68,351.44 Z M655.16,346.32 C655.16,343.44 652.92,341.2 650.36,341.2 C647.8,341.2 645.56,343.44 645.56,346.32 C645.56,349.2 647.8,351.44 650.36,351.44 C652.92,351.44 655.16,349.2 655.16,346.32 Z M642.36,346.32 C642.36,342 646.04,338.32 650.36,338.32 C654.68,338.32 658.36,342 658.36,346.32 C658.36,350.64 654.68,354.32 650.36,354.32 C646.04,354.32 642.36,350.64 642.36,346.32 Z M671.64,340.4 C671.64,340.4 670.04,338.32 666.68,338.32 C663.48,338.32 661.24,340.56 661.24,342.8 C661.24,348.24 669.08,346.64 669.08,349.52 C669.08,350.64 668.28,351.44 666.52,351.44 C664.12,351.44 662.68,349.52 662.68,349.52 L660.6,351.6 C660.6,351.6 662.52,354.32 666.52,354.32 C670.04,354.32 672.28,352.08 672.28,349.52 C672.28,344.08 664.44,345.68 664.44,342.8 C664.44,342 665.24,341.2 666.68,341.2 C668.44,341.2 669.56,342.48 669.56,342.48 L671.64,340.4 Z M678.52,331.6 L675.64,331.6 L675.64,338.32 L678.52,338.32 L678.52,331.6 Z M683.64,350.16 L680.44,357.04 L682.52,358.16 L686.52,351.76 L683.64,350.16 Z M705.24,341.36 L705.24,338.32 L704.44,338.32 C701.56,338.32 699.8,340.24 699.8,340.24 L699.8,338.64 L696.6,338.64 L696.6,354 L699.8,354 L699.8,345.68 C699.8,342.8 701.4,341.2 703.8,341.2 C704.6,341.2 705.24,341.36 705.24,341.36 Z M722.04,347.44 L710.04,347.44 C710.36,349.52 712.28,351.44 714.84,351.44 C717.88,351.44 719.48,349.04 719.48,349.04 L721.56,351.12 C721.56,351.12 719.16,354.32 714.84,354.32 C710.52,354.32 706.84,350.64 706.84,346.16 C706.84,341.84 710.36,338.32 714.68,338.32 C719,338.32 722.2,341.52 722.2,345.84 C722.2,346.8 722.04,347.44 722.04,347.44 Z M714.68,341.04 C712.28,341.04 710.68,342.64 710.168,344.72 L719.064,344.72 C718.68,342.64 717.08,341.04 714.68,341.04 Z M732.28,338.32 C735.32,338.32 737.24,340.4 737.24,340.4 L737.24,331.6 L740.44,331.6 L740.44,354 L737.24,354 L737.24,352.24 C737.24,352.24 735.32,354.32 732.28,354.32 C728.28,354.32 724.76,350.8 724.76,346.32 C724.76,341.84 728.28,338.32 732.28,338.32 Z M732.6,351.44 C735,351.44 737.24,349.2 737.24,346.32 C737.24,343.44 735,341.2 732.6,341.2 C730.2,341.2 727.96,343.44 727.96,346.32 C727.96,349.2 730.2,351.44 732.6,351.44 Z M756.12,354 L759.32,354 L759.32,338.64 L756.12,338.64 L756.12,346.96 C756.12,349.84 754.52,351.44 752.12,351.44 C750.04,351.44 748.44,349.84 748.44,347.6 L748.44,338.64 L745.24,338.64 L745.24,347.6 C745.24,351.76 747.8,354.32 751.48,354.32 C754.36,354.32 756.12,352.4 756.12,352.4 L756.12,354 Z M763,346.32 C763,350.64 766.68,354.32 771,354.32 C775,354.32 777.4,351.12 777.4,351.12 L775.32,349.04 C775.32,349.04 773.72,351.44 771,351.44 C768.44,351.44 766.2,349.2 766.2,346.32 C766.2,343.44 768.44,341.2 771,341.2 C773.72,341.2 775.16,343.44 775.16,343.44 L777.24,341.36 C777.24,341.36 775,338.32 771,338.32 C766.68,338.32 763,342 763,346.32 Z M792.28,349.04 C792.28,349.04 792.28,349.04 792.279999,349.040001 L792.28,349.04 Z M792.28,349.04 L794.36,351.12 C794.36,351.12 791.96,354.32 787.64,354.32 C783.32,354.32 779.64,350.64 779.64,346.16 C779.64,341.84 783.16,338.32 787.48,338.32 C791.8,338.32 795,341.52 795,345.84 C795,346.8 794.84,347.44 794.84,347.44 L782.84,347.44 C783.16,349.52 785.08,351.44 787.64,351.44 C790.678908,351.44 792.27885,349.041724 792.279999,349.040001 L792.28,349.04 Z M787.48,341.04 C785.08,341.04 783.48,342.64 782.968,344.72 L791.864,344.72 C791.48,342.64 789.88,341.04 787.48,341.04 Z M807.16,341.36 L807.16,338.32 L806.36,338.32 C803.48,338.32 801.72,340.24 801.72,340.24 L801.72,338.64 L798.52,338.64 L798.52,354 L801.72,354 L801.72,345.68 C801.72,342.8 803.32,341.2 805.72,341.2 C806.52,341.2 807.16,341.36 807.16,341.36 Z M819.48,340.4 C819.48,340.4 817.88,338.32 814.52,338.32 C811.32,338.32 809.08,340.56 809.08,342.8 C809.08,348.24 816.92,346.64 816.92,349.52 C816.92,350.64 816.12,351.44 814.36,351.44 C811.96,351.44 810.52,349.52 810.52,349.52 L808.44,351.6 C808.44,351.6 810.36,354.32 814.36,354.32 C817.88,354.32 820.12,352.08 820.12,349.52 C820.12,344.08 812.28,345.68 812.28,342.8 C812.28,342 813.08,341.2 814.52,341.2 C816.28,341.2 817.4,342.48 817.4,342.48 L819.48,340.4 Z M827,346 C827,354 822.52,359.76 822.52,359.76 L824.92,361.2 C824.92,361.2 829.88,355.28 829.88,346 C829.88,336.72 824.92,330.8 824.92,330.8 L822.52,332.24 C822.52,332.24 827,338 827,346 Z M835.64,350.16 L832.44,357.04 L834.52,358.16 L838.52,351.76 L835.64,350.16 Z M227.32,392.8 L227.32,385.92 L237.08,385.92 L237.08,382.72 L227.32,382.72 L227.32,376.8 L239.64,376.8 L239.64,373.6 L223.8,373.6 L223.8,396 L239.96,396 L239.96,392.8 L227.32,392.8 Z M251.32,380.64 L247.8,380.64 L247.8,378.112 C247.8,376.96 248.6,376.16 249.72,376.16 C250.52,376.16 251.32,376.48 251.32,376.48 L251.32,373.6 C251.32,373.6 250.36,373.28 249.08,373.28 C246.2,373.28 244.6,374.88 244.6,378.08 L244.6,380.64 L242.36,380.64 L242.36,383.52 L244.6,383.52 L244.6,396 L247.8,396 L247.8,383.52 L251.32,383.52 L251.32,380.64 Z M262.2,380.64 L258.68,380.64 L258.68,378.112 C258.68,376.96 259.48,376.16 260.6,376.16 C261.4,376.16 262.2,376.48 262.2,376.48 L262.2,373.6 C262.2,373.6 261.24,373.28 259.96,373.28 C257.08,373.28 255.48,374.88 255.48,378.08 L255.48,380.64 L253.24,380.64 L253.24,383.52 L255.48,383.52 L255.48,396 L258.68,396 L258.68,383.52 L262.2,383.52 L262.2,380.64 Z M279.64,389.44 L267.64,389.44 C267.96,391.52 269.88,393.44 272.44,393.44 C275.48,393.44 277.08,391.04 277.08,391.04 L279.16,393.12 C279.16,393.12 276.76,396.32 272.44,396.32 C268.12,396.32 264.44,392.64 264.44,388.16 C264.44,383.84 267.96,380.32 272.28,380.32 C276.6,380.32 279.8,383.52 279.8,387.84 C279.8,388.8 279.64,389.44 279.64,389.44 Z M272.28,383.04 C269.88,383.04 268.28,384.64 267.768,386.72 L276.664,386.72 C276.28,384.64 274.68,383.04 272.28,383.04 Z M282.36,388.32 C282.36,392.64 286.04,396.32 290.36,396.32 C294.36,396.32 296.76,393.12 296.76,393.12 L294.68,391.04 C294.68,391.04 293.08,393.44 290.36,393.44 C287.8,393.44 285.56,391.2 285.56,388.32 C285.56,385.44 287.8,383.2 290.36,383.2 C293.08,383.2 294.52,385.44 294.52,385.44 L296.6,383.36 C296.6,383.36 294.36,380.32 290.36,380.32 C286.04,380.32 282.36,384 282.36,388.32 Z M301.88,378.72 C301.88,380 301.24,380.64 300.28,380.64 L298.68,380.64 L298.68,383.52 L301.56,383.52 L301.56,391.52 C301.56,394.72 303.16,396.32 306.04,396.32 C307.32,396.32 308.28,396 308.28,396 L308.28,393.12 C308.28,393.12 307.48,393.44 306.68,393.44 C305.56,393.44 304.76,392.64 304.76,391.488 L304.76,383.52 L307.96,383.52 L307.96,380.64 L304.76,380.64 L304.76,375.52 L301.88,375.52 L301.88,378.72 Z M321.24,382.4 C321.24,382.4 319.64,380.32 316.28,380.32 C313.08,380.32 310.84,382.56 310.84,384.8 C310.84,390.24 318.68,388.64 318.68,391.52 C318.68,392.64 317.88,393.44 316.12,393.44 C313.72,393.44 312.28,391.52 312.28,391.52 L310.2,393.6 C310.2,393.6 312.12,396.32 316.12,396.32 C319.64,396.32 321.88,394.08 321.88,391.52 C321.88,386.08 314.04,387.68 314.04,384.8 C314.04,384 314.84,383.2 316.28,383.2 C318.04,383.2 319.16,384.48 319.16,384.48 L321.24,382.4 Z M338.2,384.48 L329.56,373.6 L326.52,373.6 L326.52,396 L330.04,396 L330.04,379.68 L338.2,389.92 L346.36,379.68 L346.36,396 L349.88,396 L349.88,373.6 L346.84,373.6 L338.2,384.48 Z M367,388.32 C367,385.44 364.76,383.2 362.2,383.2 C359.64,383.2 357.4,385.44 357.4,388.32 C357.4,391.2 359.64,393.44 362.2,393.44 C364.76,393.44 367,391.2 367,388.32 Z M354.2,388.32 C354.2,384 357.88,380.32 362.2,380.32 C366.52,380.32 370.2,384 370.2,388.32 C370.2,392.64 366.52,396.32 362.2,396.32 C357.88,396.32 354.2,392.64 354.2,388.32 Z M380.28,380.32 C383.32,380.32 385.24,382.4 385.24,382.4 L385.24,373.6 L388.44,373.6 L388.44,396 L385.24,396 L385.24,394.24 C385.24,394.24 383.32,396.32 380.28,396.32 C376.28,396.32 372.76,392.8 372.76,388.32 C372.76,383.84 376.28,380.32 380.28,380.32 Z M380.6,393.44 C383,393.44 385.24,391.2 385.24,388.32 C385.24,385.44 383,383.2 380.6,383.2 C378.2,383.2 375.96,385.44 375.96,388.32 C375.96,391.2 378.2,393.44 380.6,393.44 Z M404.12,396 L407.32,396 L407.32,380.64 L404.12,380.64 L404.12,388.96 C404.12,391.84 402.52,393.44 400.12,393.44 C398.04,393.44 396.44,391.84 396.44,389.6 L396.44,380.64 L393.24,380.64 L393.24,389.6 C393.24,393.76 395.8,396.32 399.48,396.32 C402.36,396.32 404.12,394.4 404.12,394.4 L404.12,396 Z M415.48,373.6 L412.28,373.6 L412.28,396 L415.48,396 L415.48,373.6 Z M434.52,389.44 L422.52,389.44 C422.84,391.52 424.76,393.44 427.32,393.44 C430.36,393.44 431.96,391.04 431.96,391.04 L434.04,393.12 C434.04,393.12 431.64,396.32 427.32,396.32 C423,396.32 419.32,392.64 419.32,388.16 C419.32,383.84 422.84,380.32 427.16,380.32 C431.48,380.32 434.68,383.52 434.68,387.84 C434.68,388.8 434.52,389.44 434.52,389.44 Z M427.16,383.04 C424.76,383.04 423.16,384.64 422.648,386.72 L431.544,386.72 C431.16,384.64 429.56,383.04 427.16,383.04 Z M441.88,394.24 C441.88,393.12 440.92,392.16 439.8,392.16 C438.68,392.16 437.72,393.12 437.72,394.24 C437.72,395.36 438.68,396.32 439.8,396.32 C440.92,396.32 441.88,395.36 441.88,394.24 Z M453.24,380.64 L449.72,380.64 L449.72,378.112 C449.72,376.96 450.52,376.16 451.64,376.16 C452.44,376.16 453.24,376.48 453.24,376.48 L453.24,373.6 C453.24,373.6 452.28,373.28 451,373.28 C448.12,373.28 446.52,374.88 446.52,378.08 L446.52,380.64 L444.28,380.64 L444.28,383.52 L446.52,383.52 L446.52,396 L449.72,396 L449.72,383.52 L453.24,383.52 L453.24,380.64 Z M468.28,388.32 C468.28,385.44 466.04,383.2 463.48,383.2 C460.92,383.2 458.68,385.44 458.68,388.32 C458.68,391.2 460.92,393.44 463.48,393.44 C466.04,393.44 468.28,391.2 468.28,388.32 Z M455.48,388.32 C455.48,384 459.16,380.32 463.48,380.32 C467.8,380.32 471.48,384 471.48,388.32 C471.48,392.64 467.8,396.32 463.48,396.32 C459.16,396.32 455.48,392.64 455.48,388.32 Z M483.64,383.36 L483.64,380.32 L482.84,380.32 C479.96,380.32 478.2,382.24 478.2,382.24 L478.2,380.64 L475,380.64 L475,396 L478.2,396 L478.2,387.68 C478.2,384.8 479.8,383.2 482.2,383.2 C483,383.2 483.64,383.36 483.64,383.36 Z M487.32,373.6 L487.32,396 L490.84,396 L490.84,386.24 L500.44,386.24 L500.44,383.04 L490.84,383.04 L490.84,376.8 L503,376.8 L503,373.6 L487.32,373.6 Z M519,389.44 L507,389.44 C507.32,391.52 509.24,393.44 511.8,393.44 C514.84,393.44 516.44,391.04 516.44,391.04 L518.52,393.12 C518.52,393.12 516.12,396.32 511.8,396.32 C507.48,396.32 503.8,392.64 503.8,388.16 C503.8,383.84 507.32,380.32 511.64,380.32 C515.96,380.32 519.16,383.52 519.16,387.84 C519.16,388.8 519,389.44 519,389.44 Z M511.64,383.04 C509.24,383.04 507.64,384.64 507.128,386.72 L516.024,386.72 C515.64,384.64 514.04,383.04 511.64,383.04 Z M535,396 L531.8,396 L531.8,394.4 C531.8,394.4 530.04,396.32 527.16,396.32 C523.96,396.32 521.72,394.08 521.72,391.84 C521.72,389.28 523.48,387.52 526.2,387.04 L531.8,386.08 C531.8,384.48 530.52,383.2 528.6,383.2 C525.88,383.2 524.6,385.28 524.6,385.28 L522.52,383.2 C522.52,383.2 524.6,380.32 528.6,380.32 C532.44,380.32 535,382.88 535,386.08 L535,396 Z M527.64,393.44 C530.2,393.44 531.8,391.84 531.8,388.96 L531.8,388.64 L526.84,389.44 C525.72,389.632 524.92,390.4 524.92,391.52 C524.92,392.48 525.88,393.44 527.64,393.44 Z M541.4,378.72 C541.4,380 540.76,380.64 539.8,380.64 L538.2,380.64 L538.2,383.52 L541.08,383.52 L541.08,391.52 C541.08,394.72 542.68,396.32 545.56,396.32 C546.84,396.32 547.8,396 547.8,396 L547.8,393.12 C547.8,393.12 547,393.44 546.2,393.44 C545.08,393.44 544.28,392.64 544.28,391.488 L544.28,383.52 L547.48,383.52 L547.48,380.64 L544.28,380.64 L544.28,375.52 L541.4,375.52 L541.4,378.72 Z M562.52,396 L565.72,396 L565.72,380.64 L562.52,380.64 L562.52,388.96 C562.52,391.84 560.92,393.44 558.52,393.44 C556.44,393.44 554.84,391.84 554.84,389.6 L554.84,380.64 L551.64,380.64 L551.64,389.6 C551.64,393.76 554.2,396.32 557.88,396.32 C560.76,396.32 562.52,394.4 562.52,394.4 L562.52,396 Z M579,383.36 L579,380.32 L578.2,380.32 C575.32,380.32 573.56,382.24 573.56,382.24 L573.56,380.64 L570.36,380.64 L570.36,396 L573.56,396 L573.56,387.68 C573.56,384.8 575.16,383.2 577.56,383.2 C578.36,383.2 579,383.36 579,383.36 Z M595.8,389.44 L583.8,389.44 C584.12,391.52 586.04,393.44 588.6,393.44 C591.64,393.44 593.24,391.04 593.24,391.04 L595.32,393.12 C595.32,393.12 592.92,396.32 588.6,396.32 C584.28,396.32 580.6,392.64 580.6,388.16 C580.6,383.84 584.12,380.32 588.44,380.32 C592.76,380.32 595.96,383.52 595.96,387.84 C595.96,388.8 595.8,389.44 595.8,389.44 Z M588.44,383.04 C586.04,383.04 584.44,384.64 583.928,386.72 L592.824,386.72 C592.44,384.64 590.84,383.04 588.44,383.04 Z M602.84,388 C602.84,380 607.32,374.24 607.32,374.24 L604.92,372.8 C604.92,372.8 599.96,378.72 599.96,388 C599.96,397.28 604.92,403.2 604.92,403.2 L607.32,401.76 C607.32,401.76 602.84,396 602.84,388 Z M624.6,389.44 L612.6,389.44 C612.92,391.52 614.84,393.44 617.4,393.44 C620.44,393.44 622.04,391.04 622.04,391.04 L624.12,393.12 C624.12,393.12 621.72,396.32 617.4,396.32 C613.08,396.32 609.4,392.64 609.4,388.16 C609.4,383.84 612.92,380.32 617.24,380.32 C621.56,380.32 624.76,383.52 624.76,387.84 C624.76,388.8 624.6,389.44 624.6,389.44 Z M617.24,383.04 C614.84,383.04 613.24,384.64 612.728,386.72 L621.624,386.72 C621.24,384.64 619.64,383.04 617.24,383.04 Z M635.96,380.64 L632.44,380.64 L632.44,378.112 C632.44,376.96 633.24,376.16 634.36,376.16 C635.16,376.16 635.96,376.48 635.96,376.48 L635.96,373.6 C635.96,373.6 635,373.28 633.72,373.28 C630.84,373.28 629.24,374.88 629.24,378.08 L629.24,380.64 L627,380.64 L627,383.52 L629.24,383.52 L629.24,396 L632.44,396 L632.44,383.52 L635.96,383.52 L635.96,380.64 Z M646.84,380.64 L643.32,380.64 L643.32,378.112 C643.32,376.96 644.12,376.16 645.24,376.16 C646.04,376.16 646.84,376.48 646.84,376.48 L646.84,373.6 C646.84,373.6 645.88,373.28 644.6,373.28 C641.72,373.28 640.12,374.88 640.12,378.08 L640.12,380.64 L637.88,380.64 L637.88,383.52 L640.12,383.52 L640.12,396 L643.32,396 L643.32,383.52 L646.84,383.52 L646.84,380.64 Z M664.28,389.44 L652.28,389.44 C652.6,391.52 654.52,393.44 657.08,393.44 C660.12,393.44 661.72,391.04 661.72,391.04 L663.8,393.12 C663.8,393.12 661.4,396.32 657.08,396.32 C652.76,396.32 649.08,392.64 649.08,388.16 C649.08,383.84 652.6,380.32 656.92,380.32 C661.24,380.32 664.44,383.52 664.44,387.84 C664.44,388.8 664.28,389.44 664.28,389.44 Z M656.92,383.04 C654.52,383.04 652.92,384.64 652.408,386.72 L661.304,386.72 C660.92,384.64 659.32,383.04 656.92,383.04 Z M667,388.32 C667,392.64 670.68,396.32 675,396.32 C679,396.32 681.4,393.12 681.4,393.12 L679.32,391.04 C679.32,391.04 677.72,393.44 675,393.44 C672.44,393.44 670.2,391.2 670.2,388.32 C670.2,385.44 672.44,383.2 675,383.2 C677.72,383.2 679.16,385.44 679.16,385.44 L681.24,383.36 C681.24,383.36 679,380.32 675,380.32 C670.68,380.32 667,384 667,388.32 Z M686.52,378.72 C686.52,380 685.88,380.64 684.92,380.64 L683.32,380.64 L683.32,383.52 L686.2,383.52 L686.2,391.52 C686.2,394.72 687.8,396.32 690.68,396.32 C691.96,396.32 692.92,396 692.92,396 L692.92,393.12 C692.92,393.12 692.12,393.44 691.32,393.44 C690.2,393.44 689.4,392.64 689.4,391.488 L689.4,383.52 L692.6,383.52 L692.6,380.64 L689.4,380.64 L689.4,375.52 L686.52,375.52 L686.52,378.72 Z M705.88,382.4 C705.88,382.4 704.28,380.32 700.92,380.32 C697.72,380.32 695.48,382.56 695.48,384.8 C695.48,390.24 703.32,388.64 703.32,391.52 C703.32,392.64 702.52,393.44 700.76,393.44 C698.36,393.44 696.92,391.52 696.92,391.52 L694.84,393.6 C694.84,393.6 696.76,396.32 700.76,396.32 C704.28,396.32 706.52,394.08 706.52,391.52 C706.52,386.08 698.68,387.68 698.68,384.8 C698.68,384 699.48,383.2 700.92,383.2 C702.68,383.2 703.8,384.48 703.8,384.48 L705.88,382.4 Z M713.4,388 C713.4,396 708.92,401.76 708.92,401.76 L711.32,403.2 C711.32,403.2 716.28,397.28 716.28,388 C716.28,378.72 711.32,372.8 711.32,372.8 L708.92,374.24 C708.92,374.24 713.4,380 713.4,388 Z M722.04,392.16 L718.84,399.04 L720.92,400.16 L724.92,393.76 L722.04,392.16 Z M212.92,442.16 L208.76,442.16 L208.76,444.72 L215.8,444.72 L215.8,415.28 L208.76,415.28 L208.76,417.84 L212.92,417.84 L212.92,442.16 Z M221.56,434.16 L218.36,441.04 L220.44,442.16 L224.44,435.76 L221.56,434.16 Z M204.6,470.72 C203.32,470.72 202.68,470.08 202.68,468.8 L202.68,461.92 C202.68,459.04 200.92,457.28 197.72,457.28 L195.96,457.28 L195.96,459.84 L197.72,459.84 C199,459.84 199.8,460.64 199.8,461.92 L199.8,468.8 C199.8,471.68 201.56,472 201.528,472 C201.56,472 199.8,472.32 199.8,475.2 L199.8,482.08 C199.8,483.36 199,484.16 197.72,484.16 L195.96,484.16 L195.96,486.72 L197.72,486.72 C200.92,486.72 202.68,484.96 202.68,482.08 L202.68,475.2 C202.68,473.92 203.32,473.28 204.6,473.28 L204.6,470.72 Z M211.96,472 C211.96,480 207.48,485.76 207.48,485.76 L209.88,487.2 C209.88,487.2 214.84,481.28 214.84,472 C214.84,462.72 209.88,456.8 209.88,456.8 L207.48,458.24 C207.48,458.24 211.96,464 211.96,472 Z M211.32,515.44 L199.32,515.44 C199.64,517.52 201.56,519.44 204.12,519.44 C207.16,519.44 208.76,517.04 208.76,517.04 L210.84,519.12 C210.84,519.12 208.44,522.32 204.12,522.32 C199.8,522.32 196.12,518.64 196.12,514.16 C196.12,509.84 199.64,506.32 203.96,506.32 C208.28,506.32 211.48,509.52 211.48,513.84 C211.48,514.8 211.32,515.44 211.32,515.44 Z M203.96,509.04 C201.56,509.04 199.96,510.64 199.448,512.72 L208.344,512.72 C207.96,510.64 206.36,509.04 203.96,509.04 Z M222.68,514 L227.96,506.64 L224.28,506.64 L220.76,511.6 L217.24,506.64 L213.56,506.64 L218.84,514 L213.08,522 L216.76,522 L220.76,516.4 L224.76,522 L228.44,522 L222.68,514 Z M239.16,522.32 C236.12,522.32 234.2,520.24 234.2,520.24 L234.2,528.72 L231,528.72 L231,506.64 L234.2,506.64 L234.2,508.4 C234.2,508.4 236.12,506.32 239.16,506.32 C243.16,506.32 246.68,509.84 246.68,514.32 C246.68,518.8 243.16,522.32 239.16,522.32 Z M238.84,509.2 C236.44,509.2 234.2,511.44 234.2,514.32 C234.2,517.2 236.44,519.44 238.84,519.44 C241.24,519.44 243.48,517.2 243.48,514.32 C243.48,511.44 241.24,509.2 238.84,509.2 Z M262.04,514.32 C262.04,511.44 259.8,509.2 257.24,509.2 C254.68,509.2 252.44,511.44 252.44,514.32 C252.44,517.2 254.68,519.44 257.24,519.44 C259.8,519.44 262.04,517.2 262.04,514.32 Z M249.24,514.32 C249.24,510 252.92,506.32 257.24,506.32 C261.56,506.32 265.24,510 265.24,514.32 C265.24,518.64 261.56,522.32 257.24,522.32 C252.92,522.32 249.24,518.64 249.24,514.32 Z M277.4,509.36 L277.4,506.32 L276.6,506.32 C273.72,506.32 271.96,508.24 271.96,508.24 L271.96,506.64 L268.76,506.64 L268.76,522 L271.96,522 L271.96,513.68 C271.96,510.8 273.56,509.2 275.96,509.2 C276.76,509.2 277.4,509.36 277.4,509.36 Z M281.88,504.72 C281.88,506 281.24,506.64 280.28,506.64 L278.68,506.64 L278.68,509.52 L281.56,509.52 L281.56,517.52 C281.56,520.72 283.16,522.32 286.04,522.32 C287.32,522.32 288.28,522 288.28,522 L288.28,519.12 C288.28,519.12 287.48,519.44 286.68,519.44 C285.56,519.44 284.76,518.64 284.76,517.488 L284.76,509.52 L287.96,509.52 L287.96,506.64 L284.76,506.64 L284.76,501.52 L281.88,501.52 L281.88,504.72 Z M297.56,514.32 C297.56,518.64 301.24,522.32 305.56,522.32 C309.56,522.32 311.96,519.12 311.96,519.12 L309.88,517.04 C309.88,517.04 308.28,519.44 305.56,519.44 C303,519.44 300.76,517.2 300.76,514.32 C300.76,511.44 303,509.2 305.56,509.2 C308.28,509.2 309.72,511.44 309.72,511.44 L311.8,509.36 C311.8,509.36 309.56,506.32 305.56,506.32 C301.24,506.32 297.56,510 297.56,514.32 Z M318.68,499.6 L315.48,499.6 L315.48,522 L318.68,522 L318.68,499.6 Z M335.8,522 L332.6,522 L332.6,520.4 C332.6,520.4 330.84,522.32 327.96,522.32 C324.76,522.32 322.52,520.08 322.52,517.84 C322.52,515.28 324.28,513.52 327,513.04 L332.6,512.08 C332.6,510.48 331.32,509.2 329.4,509.2 C326.68,509.2 325.4,511.28 325.4,511.28 L323.32,509.2 C323.32,509.2 325.4,506.32 329.4,506.32 C333.24,506.32 335.8,508.88 335.8,512.08 L335.8,522 Z M328.44,519.44 C331,519.44 332.6,517.84 332.6,514.96 L332.6,514.64 L327.64,515.44 C326.52,515.632 325.72,516.4 325.72,517.52 C325.72,518.48 326.68,519.44 328.44,519.44 Z M350.04,508.4 C350.04,508.4 348.44,506.32 345.08,506.32 C341.88,506.32 339.64,508.56 339.64,510.8 C339.64,516.24 347.48,514.64 347.48,517.52 C347.48,518.64 346.68,519.44 344.92,519.44 C342.52,519.44 341.08,517.52 341.08,517.52 L339,519.6 C339,519.6 340.92,522.32 344.92,522.32 C348.44,522.32 350.68,520.08 350.68,517.52 C350.68,512.08 342.84,513.68 342.84,510.8 C342.84,510 343.64,509.2 345.08,509.2 C346.84,509.2 347.96,510.48 347.96,510.48 L350.04,508.4 Z M363.96,508.4 C363.96,508.4 362.36,506.32 359,506.32 C355.8,506.32 353.56,508.56 353.56,510.8 C353.56,516.24 361.4,514.64 361.4,517.52 C361.4,518.64 360.6,519.44 358.84,519.44 C356.44,519.44 355,517.52 355,517.52 L352.92,519.6 C352.92,519.6 354.84,522.32 358.84,522.32 C362.36,522.32 364.6,520.08 364.6,517.52 C364.6,512.08 356.76,513.68 356.76,510.8 C356.76,510 357.56,509.2 359,509.2 C360.76,509.2 361.88,510.48 361.88,510.48 L363.96,508.4 Z M375.64,499.6 L375.64,522 L379.16,522 L379.16,512.24 L388.76,512.24 L388.76,509.04 L379.16,509.04 L379.16,502.8 L391.32,502.8 L391.32,499.6 L375.64,499.6 Z M407.32,515.44 L395.32,515.44 C395.64,517.52 397.56,519.44 400.12,519.44 C403.16,519.44 404.76,517.04 404.76,517.04 L406.84,519.12 C406.84,519.12 404.44,522.32 400.12,522.32 C395.8,522.32 392.12,518.64 392.12,514.16 C392.12,509.84 395.64,506.32 399.96,506.32 C404.28,506.32 407.48,509.52 407.48,513.84 C407.48,514.8 407.32,515.44 407.32,515.44 Z M399.96,509.04 C397.56,509.04 395.96,510.64 395.448,512.72 L404.344,512.72 C403.96,510.64 402.36,509.04 399.96,509.04 Z M423.32,522 L420.12,522 L420.12,520.4 C420.12,520.4 418.36,522.32 415.48,522.32 C412.28,522.32 410.04,520.08 410.04,517.84 C410.04,515.28 411.8,513.52 414.52,513.04 L420.12,512.08 C420.12,510.48 418.84,509.2 416.92,509.2 C414.2,509.2 412.92,511.28 412.92,511.28 L410.84,509.2 C410.84,509.2 412.92,506.32 416.92,506.32 C420.76,506.32 423.32,508.88 423.32,512.08 L423.32,522 Z M415.96,519.44 C418.52,519.44 420.12,517.84 420.12,514.96 L420.12,514.64 L415.16,515.44 C414.04,515.632 413.24,516.4 413.24,517.52 C413.24,518.48 414.2,519.44 415.96,519.44 Z M429.72,504.72 C429.72,506 429.08,506.64 428.12,506.64 L426.52,506.64 L426.52,509.52 L429.4,509.52 L429.4,517.52 C429.4,520.72 431,522.32 433.88,522.32 C435.16,522.32 436.12,522 436.12,522 L436.12,519.12 C436.12,519.12 435.32,519.44 434.52,519.44 C433.4,519.44 432.6,518.64 432.6,517.488 L432.6,509.52 L435.8,509.52 L435.8,506.64 L432.6,506.64 L432.6,501.52 L429.72,501.52 L429.72,504.72 Z M450.84,522 L454.04,522 L454.04,506.64 L450.84,506.64 L450.84,514.96 C450.84,517.84 449.24,519.44 446.84,519.44 C444.76,519.44 443.16,517.84 443.16,515.6 L443.16,506.64 L439.96,506.64 L439.96,515.6 C439.96,519.76 442.52,522.32 446.2,522.32 C449.08,522.32 450.84,520.4 450.84,520.4 L450.84,522 Z M467.32,509.36 L467.32,506.32 L466.52,506.32 C463.64,506.32 461.88,508.24 461.88,508.24 L461.88,506.64 L458.68,506.64 L458.68,522 L461.88,522 L461.88,513.68 C461.88,510.8 463.48,509.2 465.88,509.2 C466.68,509.2 467.32,509.36 467.32,509.36 Z M484.12,515.44 L472.12,515.44 C472.44,517.52 474.36,519.44 476.92,519.44 C479.96,519.44 481.56,517.04 481.56,517.04 L483.64,519.12 C483.64,519.12 481.24,522.32 476.92,522.32 C472.6,522.32 468.92,518.64 468.92,514.16 C468.92,509.84 472.44,506.32 476.76,506.32 C481.08,506.32 484.28,509.52 484.28,513.84 C484.28,514.8 484.12,515.44 484.12,515.44 Z M476.76,509.04 C474.36,509.04 472.76,510.64 472.248,512.72 L481.144,512.72 C480.76,510.64 479.16,509.04 476.76,509.04 Z M500.6,510.48 L491.96,499.6 L488.92,499.6 L488.92,522 L492.44,522 L492.44,505.68 L500.6,515.92 L508.76,505.68 L508.76,522 L512.28,522 L512.28,499.6 L509.24,499.6 L500.6,510.48 Z M529.4,514.32 C529.4,511.44 527.16,509.2 524.6,509.2 C522.04,509.2 519.8,511.44 519.8,514.32 C519.8,517.2 522.04,519.44 524.6,519.44 C527.16,519.44 529.4,517.2 529.4,514.32 Z M516.6,514.32 C516.6,510 520.28,506.32 524.6,506.32 C528.92,506.32 532.6,510 532.6,514.32 C532.6,518.64 528.92,522.32 524.6,522.32 C520.28,522.32 516.6,518.64 516.6,514.32 Z M542.68,506.32 C545.72,506.32 547.64,508.4 547.64,508.4 L547.64,499.6 L550.84,499.6 L550.84,522 L547.64,522 L547.64,520.24 C547.64,520.24 545.72,522.32 542.68,522.32 C538.68,522.32 535.16,518.8 535.16,514.32 C535.16,509.84 538.68,506.32 542.68,506.32 Z M543,519.44 C545.4,519.44 547.64,517.2 547.64,514.32 C547.64,511.44 545.4,509.2 543,509.2 C540.6,509.2 538.36,511.44 538.36,514.32 C538.36,517.2 540.6,519.44 543,519.44 Z M566.52,522 L569.72,522 L569.72,506.64 L566.52,506.64 L566.52,514.96 C566.52,517.84 564.92,519.44 562.52,519.44 C560.44,519.44 558.84,517.84 558.84,515.6 L558.84,506.64 L555.64,506.64 L555.64,515.6 C555.64,519.76 558.2,522.32 561.88,522.32 C564.76,522.32 566.52,520.4 566.52,520.4 L566.52,522 Z M577.88,499.6 L574.68,499.6 L574.68,522 L577.88,522 L577.88,499.6 Z M596.92,515.44 L584.92,515.44 C585.24,517.52 587.16,519.44 589.72,519.44 C592.76,519.44 594.36,517.04 594.36,517.04 L596.44,519.12 C596.44,519.12 594.04,522.32 589.72,522.32 C585.4,522.32 581.72,518.64 581.72,514.16 C581.72,509.84 585.24,506.32 589.56,506.32 C593.88,506.32 597.08,509.52 597.08,513.84 C597.08,514.8 596.92,515.44 596.92,515.44 Z M589.56,509.04 C587.16,509.04 585.56,510.64 585.048,512.72 L593.944,512.72 C593.56,510.64 591.96,509.04 589.56,509.04 Z M606.84,515.28 C608.12,515.28 608.76,515.92 608.76,517.2 L608.76,524.08 C608.76,526.96 610.52,528.72 613.72,528.72 L615.48,528.72 L615.48,526.16 L613.72,526.16 C612.44,526.16 611.64,525.36 611.64,524.08 L611.64,517.2 C611.64,514.32 609.88,514 609.912,514 C609.88,514 611.64,513.68 611.64,510.8 L611.64,503.92 C611.64,502.64 612.44,501.84 613.72,501.84 L615.48,501.84 L615.48,499.28 L613.72,499.28 C610.52,499.28 608.76,501.04 608.76,503.92 L608.76,510.8 C608.76,512.08 608.12,512.72 606.84,512.72 L606.84,515.28 Z M626.04,512.72 C624.76,512.72 624.12,512.08 624.12,510.8 L624.12,503.92 C624.12,501.04 622.36,499.28 619.16,499.28 L617.4,499.28 L617.4,501.84 L619.16,501.84 C620.44,501.84 621.24,502.64 621.24,503.92 L621.24,510.8 C621.24,513.68 623,514 622.968,514 C623,514 621.24,514.32 621.24,517.2 L621.24,524.08 C621.24,525.36 620.44,526.16 619.16,526.16 L617.4,526.16 L617.4,528.72 L619.16,528.72 C622.36,528.72 624.12,526.96 624.12,524.08 L624.12,517.2 C624.12,515.92 624.76,515.28 626.04,515.28 L626.04,512.72 Z" id="@NgModule({-imports:" fill="#545E6F"></path>
        </g>
    </g>
</svg>