<?xml version="1.0" encoding="UTF-8"?>
<svg width="1280px" height="720px" viewBox="0 0 1280 720" version="1.1" xmlns="http://www.w3.org/2000/svg" xmlns:xlink="http://www.w3.org/1999/xlink" style="background: #FFFFFF;">
    <!-- Generator: Sketch 47.1 (45422) - http://www.bohemiancoding.com/sketch -->
    <title>effects-without-dispatch</title>
    <desc>Created with Sketch.</desc>
    <defs></defs>
    <g id="Page-1" stroke="none" stroke-width="1" fill="none" fill-rule="evenodd">
        <g id="effects-without-dispatch">
            <g id="Group" transform="translate(125.000000, 145.000000)">
                <rect id="Rectangle-7" fill="#F4F6F8" x="0" y="31" width="1030" height="392" rx="15"></rect>
                <path d="M15,0 L1015,0 L1015,1.77635684e-15 C1023.28427,5.91178485e-14 1030,6.71572875 1030,15 L1030,58 L0,58 L0,15 L-1.77635684e-15,15 C-2.79088747e-15,6.71572875 6.71572875,-2.54560899e-16 15,-1.77635684e-15 Z" id="Rectangle" fill="#6DB0DC"></path>
            </g>
            <path d="M196.05,285.8 C196.05,289.85 199.5,293.3 203.55,293.3 C207.3,293.3 209.55,290.3 209.55,290.3 L207.6,288.35 C207.6,288.35 206.1,290.6 203.55,290.6 C201.15,290.6 199.05,288.5 199.05,285.8 C199.05,283.1 201.15,281 203.55,281 C206.1,281 207.45,283.1 207.45,283.1 L209.4,281.15 C209.4,281.15 207.3,278.3 203.55,278.3 C199.5,278.3 196.05,281.75 196.05,285.8 Z M223.65,285.8 C223.65,283.1 221.55,281 219.15,281 C216.75,281 214.65,283.1 214.65,285.8 C214.65,288.5 216.75,290.6 219.15,290.6 C221.55,290.6 223.65,288.5 223.65,285.8 Z M211.65,285.8 C211.65,281.75 215.1,278.3 219.15,278.3 C223.2,278.3 226.65,281.75 226.65,285.8 C226.65,289.85 223.2,293.3 219.15,293.3 C215.1,293.3 211.65,289.85 211.65,285.8 Z M232.95,278.6 L229.95,278.6 L229.95,293 L232.95,293 L232.95,285.2 C232.95,282.5 234.45,281 236.7,281 C238.65,281 240.15,282.5 240.15,284.6 L240.15,293 L243.15,293 L243.15,284.6 C243.15,280.7 240.75,278.3 237.3,278.3 C234.6,278.3 232.95,280.1 232.95,280.1 L232.95,278.6 Z M256.5,280.25 C256.5,280.25 255,278.3 251.85,278.3 C248.85,278.3 246.75,280.4 246.75,282.5 C246.75,287.6 254.1,286.1 254.1,288.8 C254.1,289.85 253.35,290.6 251.7,290.6 C249.45,290.6 248.1,288.8 248.1,288.8 L246.15,290.75 C246.15,290.75 247.95,293.3 251.7,293.3 C255,293.3 257.1,291.2 257.1,288.8 C257.1,283.7 249.75,285.2 249.75,282.5 C249.75,281.75 250.5,281 251.85,281 C253.5,281 254.55,282.2 254.55,282.2 L256.5,280.25 Z M262.2,276.8 C262.2,278 261.6,278.6 260.7,278.6 L259.2,278.6 L259.2,281.3 L261.9,281.3 L261.9,288.8 C261.9,291.8 263.4,293.3 266.1,293.3 C267.3,293.3 268.2,293 268.2,293 L268.2,290.3 C268.2,290.3 267.45,290.6 266.7,290.6 C265.65,290.6 264.9,289.85 264.9,288.77 L264.9,281.3 L267.9,281.3 L267.9,278.6 L264.9,278.6 L264.9,273.8 L262.2,273.8 L262.2,276.8 Z M280.8,278.6 L277.8,278.6 L277.8,293 L280.8,293 L280.8,285.2 C280.8,282.5 282.3,281 284.55,281 C286.5,281 288,282.5 288,284.6 L288,293 L291,293 L291,284.6 C291,280.7 288.6,278.3 285.15,278.3 C282.45,278.3 280.8,280.1 280.8,280.1 L280.8,278.6 Z M306.75,293 L303.75,293 L303.75,291.5 C303.75,291.5 302.1,293.3 299.4,293.3 C296.4,293.3 294.3,291.2 294.3,289.1 C294.3,286.7 295.95,285.05 298.5,284.6 L303.75,283.7 C303.75,282.2 302.55,281 300.75,281 C298.2,281 297,282.95 297,282.95 L295.05,281 C295.05,281 297,278.3 300.75,278.3 C304.35,278.3 306.75,280.7 306.75,283.7 L306.75,293 Z M299.85,290.6 C302.25,290.6 303.75,289.1 303.75,286.4 L303.75,286.1 L299.1,286.85 C298.05,287.03 297.3,287.75 297.3,288.8 C297.3,289.7 298.2,290.6 299.85,290.6 Z M329.55,293 L332.55,293 L332.55,284.6 C332.55,280.4 330.45,278.3 327.15,278.3 C323.85,278.3 322.2,280.7 322.2,280.7 C322.2,280.7 321,278.3 317.85,278.3 C315.45,278.3 313.95,280.1 313.95,280.1 L313.95,278.6 L310.95,278.6 L310.95,293 L313.95,293 L313.95,285.2 C313.95,282.5 315.45,281 317.25,281 C319.05,281 320.25,282.2 320.25,284.6 L320.25,293 L323.25,293 L323.25,285.2 C323.25,282.5 324.75,281 326.55,281 C328.35,281 329.55,282.2 329.55,284.6 L329.55,293 Z M350.1,286.85 L338.85,286.85 C339.15,288.8 340.95,290.6 343.35,290.6 C346.2,290.6 347.7,288.35 347.7,288.35 L349.65,290.3 C349.65,290.3 347.4,293.3 343.35,293.3 C339.3,293.3 335.85,289.85 335.85,285.65 C335.85,281.6 339.15,278.3 343.2,278.3 C347.25,278.3 350.25,281.3 350.25,285.35 C350.25,286.25 350.1,286.85 350.1,286.85 Z M343.2,280.85 C340.95,280.85 339.45,282.35 338.97,284.3 L347.31,284.3 C346.95,282.35 345.45,280.85 343.2,280.85 Z M371.1,285.5 L358.8,285.5 L358.8,288.2 L371.1,288.2 L371.1,285.5 Z M371.1,280.1 L358.8,280.1 L358.8,282.8 L371.1,282.8 L371.1,280.1 Z M381.6,278.9 L384.6,272.45 L382.65,271.4 L378.9,277.4 L381.6,278.9 Z M405.15,272 L401.85,272 L401.85,280.85 L391.5,280.85 L391.5,272 L388.2,272 L388.2,293 L391.5,293 L391.5,283.85 L401.85,283.85 L401.85,293 L405.15,293 L405.15,272 Z M421.65,293 L418.65,293 L418.65,291.5 C418.65,291.5 417,293.3 414.3,293.3 C411.3,293.3 409.2,291.2 409.2,289.1 C409.2,286.7 410.85,285.05 413.4,284.6 L418.65,283.7 C418.65,282.2 417.45,281 415.65,281 C413.1,281 411.9,282.95 411.9,282.95 L409.95,281 C409.95,281 411.9,278.3 415.65,278.3 C419.25,278.3 421.65,280.7 421.65,283.7 L421.65,293 Z M414.75,290.6 C417.15,290.6 418.65,289.1 418.65,286.4 L418.65,286.1 L414,286.85 C412.95,287.03 412.2,287.75 412.2,288.8 C412.2,289.7 413.1,290.6 414.75,290.6 Z M428.85,278.6 L425.85,278.6 L425.85,293 L428.85,293 L428.85,285.2 C428.85,282.5 430.35,281 432.6,281 C434.55,281 436.05,282.5 436.05,284.6 L436.05,293 L439.05,293 L439.05,284.6 C439.05,280.7 436.65,278.3 433.2,278.3 C430.5,278.3 428.85,280.1 428.85,280.1 L428.85,278.6 Z M460.2,287 C460.2,288.8 458.7,290.3 456,290.3 C452.25,290.3 450.6,287.9 450.6,287.9 L448.5,290 C448.5,290 450.9,293.3 456,293.3 C460.8,293.3 463.5,290.6 463.5,287 C463.5,279.2 452.4,282.2 452.4,277.4 C452.4,276.05 453.75,274.7 456,274.7 C458.85,274.7 460.2,276.5 460.2,276.5 L462.3,274.4 C462.3,274.4 460.2,271.7 456,271.7 C451.65,271.7 449.1,274.25 449.1,277.4 C449.1,285.2 460.2,282.2 460.2,287 Z M478.05,285.8 C478.05,283.1 475.95,281 473.55,281 C471.15,281 469.05,283.1 469.05,285.8 C469.05,288.5 471.15,290.6 473.55,290.6 C475.95,290.6 478.05,288.5 478.05,285.8 Z M466.05,285.8 C466.05,281.75 469.5,278.3 473.55,278.3 C477.6,278.3 481.05,281.75 481.05,285.8 C481.05,289.85 477.6,293.3 473.55,293.3 C469.5,293.3 466.05,289.85 466.05,285.8 Z M487.65,272 L484.65,272 L484.65,293 L487.65,293 L487.65,272 Z M503.25,285.8 C503.25,283.1 501.15,281 498.75,281 C496.35,281 494.25,283.1 494.25,285.8 C494.25,288.5 496.35,290.6 498.75,290.6 C501.15,290.6 503.25,288.5 503.25,285.8 Z M491.25,285.8 C491.25,281.75 494.7,278.3 498.75,278.3 C502.8,278.3 506.25,281.75 506.25,285.8 C506.25,289.85 502.8,293.3 498.75,293.3 C494.7,293.3 491.25,289.85 491.25,285.8 Z M511.2,271.4 L508.2,277.85 L510.15,278.9 L513.9,272.9 L511.2,271.4 Z M517.5,289.4 L514.5,295.85 L516.45,296.9 L520.2,290.9 L517.5,289.4 Z M516.45,280.25 C516.45,281.3 517.35,282.2 518.4,282.2 C519.45,282.2 520.35,281.3 520.35,280.25 C520.35,279.2 519.45,278.3 518.4,278.3 C517.35,278.3 516.45,279.2 516.45,280.25 Z M196.05,357.8 C196.05,361.85 199.5,365.3 203.55,365.3 C207.3,365.3 209.55,362.3 209.55,362.3 L207.6,360.35 C207.6,360.35 206.1,362.6 203.55,362.6 C201.15,362.6 199.05,360.5 199.05,357.8 C199.05,355.1 201.15,353 203.55,353 C206.1,353 207.45,355.1 207.45,355.1 L209.4,353.15 C209.4,353.15 207.3,350.3 203.55,350.3 C199.5,350.3 196.05,353.75 196.05,357.8 Z M223.65,357.8 C223.65,355.1 221.55,353 219.15,353 C216.75,353 214.65,355.1 214.65,357.8 C214.65,360.5 216.75,362.6 219.15,362.6 C221.55,362.6 223.65,360.5 223.65,357.8 Z M211.65,357.8 C211.65,353.75 215.1,350.3 219.15,350.3 C223.2,350.3 226.65,353.75 226.65,357.8 C226.65,361.85 223.2,365.3 219.15,365.3 C215.1,365.3 211.65,361.85 211.65,357.8 Z M232.95,350.6 L229.95,350.6 L229.95,365 L232.95,365 L232.95,357.2 C232.95,354.5 234.45,353 236.7,353 C238.65,353 240.15,354.5 240.15,356.6 L240.15,365 L243.15,365 L243.15,356.6 C243.15,352.7 240.75,350.3 237.3,350.3 C234.6,350.3 232.95,352.1 232.95,352.1 L232.95,350.6 Z M256.5,352.25 C256.5,352.25 255,350.3 251.85,350.3 C248.85,350.3 246.75,352.4 246.75,354.5 C246.75,359.6 254.1,358.1 254.1,360.8 C254.1,361.85 253.35,362.6 251.7,362.6 C249.45,362.6 248.1,360.8 248.1,360.8 L246.15,362.75 C246.15,362.75 247.95,365.3 251.7,365.3 C255,365.3 257.1,363.2 257.1,360.8 C257.1,355.7 249.75,357.2 249.75,354.5 C249.75,353.75 250.5,353 251.85,353 C253.5,353 254.55,354.2 254.55,354.2 L256.5,352.25 Z M262.2,348.8 C262.2,350 261.6,350.6 260.7,350.6 L259.2,350.6 L259.2,353.3 L261.9,353.3 L261.9,360.8 C261.9,363.8 263.4,365.3 266.1,365.3 C267.3,365.3 268.2,365 268.2,365 L268.2,362.3 C268.2,362.3 267.45,362.6 266.7,362.6 C265.65,362.6 264.9,361.85 264.9,360.77 L264.9,353.3 L267.9,353.3 L267.9,350.6 L264.9,350.6 L264.9,345.8 L262.2,345.8 L262.2,348.8 Z M288,365 L291,365 L291,350.6 L288,350.6 L288,358.4 C288,361.1 286.5,362.6 284.25,362.6 C282.3,362.6 280.8,361.1 280.8,359 L280.8,350.6 L277.8,350.6 L277.8,359 C277.8,362.9 280.2,365.3 283.65,365.3 C286.35,365.3 288,363.5 288,363.5 L288,365 Z M303,365.3 C300.15,365.3 298.35,363.35 298.35,363.35 L298.35,371.3 L295.35,371.3 L295.35,350.6 L298.35,350.6 L298.35,352.25 C298.35,352.25 300.15,350.3 303,350.3 C306.75,350.3 310.05,353.6 310.05,357.8 C310.05,362 306.75,365.3 303,365.3 Z M302.7,353 C300.45,353 298.35,355.1 298.35,357.8 C298.35,360.5 300.45,362.6 302.7,362.6 C304.95,362.6 307.05,360.5 307.05,357.8 C307.05,355.1 304.95,353 302.7,353 Z M321,365.3 C318.15,365.3 316.35,363.35 316.35,363.35 L316.35,371.3 L313.35,371.3 L313.35,350.6 L316.35,350.6 L316.35,352.25 C316.35,352.25 318.15,350.3 321,350.3 C324.75,350.3 328.05,353.6 328.05,357.8 C328.05,362 324.75,365.3 321,365.3 Z M320.7,353 C318.45,353 316.35,355.1 316.35,357.8 C316.35,360.5 318.45,362.6 320.7,362.6 C322.95,362.6 325.05,360.5 325.05,357.8 C325.05,355.1 322.95,353 320.7,353 Z M344.7,358.85 L333.45,358.85 C333.75,360.8 335.55,362.6 337.95,362.6 C340.8,362.6 342.3,360.35 342.3,360.35 L344.25,362.3 C344.25,362.3 342,365.3 337.95,365.3 C333.9,365.3 330.45,361.85 330.45,357.65 C330.45,353.6 333.75,350.3 337.8,350.3 C341.85,350.3 344.85,353.3 344.85,357.35 C344.85,358.25 344.7,358.85 344.7,358.85 Z M337.8,352.85 C335.55,352.85 334.05,354.35 333.57,356.3 L341.91,356.3 C341.55,354.35 340.05,352.85 337.8,352.85 Z M356.25,353.15 L356.25,350.3 L355.5,350.3 C352.8,350.3 351.15,352.1 351.15,352.1 L351.15,350.6 L348.15,350.6 L348.15,365 L351.15,365 L351.15,357.2 C351.15,354.5 352.65,353 354.9,353 C355.65,353 356.25,353.15 356.25,353.15 Z M357.75,357.8 C357.75,361.85 361.2,365.3 365.25,365.3 C369,365.3 371.25,362.3 371.25,362.3 L369.3,360.35 C369.3,360.35 367.8,362.6 365.25,362.6 C362.85,362.6 360.75,360.5 360.75,357.8 C360.75,355.1 362.85,353 365.25,353 C367.8,353 369.15,355.1 369.15,355.1 L371.1,353.15 C371.1,353.15 369,350.3 365.25,350.3 C361.2,350.3 357.75,353.75 357.75,357.8 Z M385.8,365 L382.8,365 L382.8,363.5 C382.8,363.5 381.15,365.3 378.45,365.3 C375.45,365.3 373.35,363.2 373.35,361.1 C373.35,358.7 375,357.05 377.55,356.6 L382.8,355.7 C382.8,354.2 381.6,353 379.8,353 C377.25,353 376.05,354.95 376.05,354.95 L374.1,353 C374.1,353 376.05,350.3 379.8,350.3 C383.4,350.3 385.8,352.7 385.8,355.7 L385.8,365 Z M378.9,362.6 C381.3,362.6 382.8,361.1 382.8,358.4 L382.8,358.1 L378.15,358.85 C377.1,359.03 376.35,359.75 376.35,360.8 C376.35,361.7 377.25,362.6 378.9,362.6 Z M399.15,352.25 C399.15,352.25 397.65,350.3 394.5,350.3 C391.5,350.3 389.4,352.4 389.4,354.5 C389.4,359.6 396.75,358.1 396.75,360.8 C396.75,361.85 396,362.6 394.35,362.6 C392.1,362.6 390.75,360.8 390.75,360.8 L388.8,362.75 C388.8,362.75 390.6,365.3 394.35,365.3 C397.65,365.3 399.75,363.2 399.75,360.8 C399.75,355.7 392.4,357.2 392.4,354.5 C392.4,353.75 393.15,353 394.5,353 C396.15,353 397.2,354.2 397.2,354.2 L399.15,352.25 Z M416.4,358.85 L405.15,358.85 C405.45,360.8 407.25,362.6 409.65,362.6 C412.5,362.6 414,360.35 414,360.35 L415.95,362.3 C415.95,362.3 413.7,365.3 409.65,365.3 C405.6,365.3 402.15,361.85 402.15,357.65 C402.15,353.6 405.45,350.3 409.5,350.3 C413.55,350.3 416.55,353.3 416.55,357.35 C416.55,358.25 416.4,358.85 416.4,358.85 Z M409.5,352.85 C407.25,352.85 405.75,354.35 405.27,356.3 L413.61,356.3 C413.25,354.35 411.75,352.85 409.5,352.85 Z M435.45,344 L435.45,359.15 L423.75,344 L420.9,344 L420.9,365 L424.2,365 L424.2,349.85 L435.9,365 L438.75,365 L438.75,344 L435.45,344 Z M455.25,365 L452.25,365 L452.25,363.5 C452.25,363.5 450.6,365.3 447.9,365.3 C444.9,365.3 442.8,363.2 442.8,361.1 C442.8,358.7 444.45,357.05 447,356.6 L452.25,355.7 C452.25,354.2 451.05,353 449.25,353 C446.7,353 445.5,354.95 445.5,354.95 L443.55,353 C443.55,353 445.5,350.3 449.25,350.3 C452.85,350.3 455.25,352.7 455.25,355.7 L455.25,365 Z M448.35,362.6 C450.75,362.6 452.25,361.1 452.25,358.4 L452.25,358.1 L447.6,358.85 C446.55,359.03 445.8,359.75 445.8,360.8 C445.8,361.7 446.7,362.6 448.35,362.6 Z M478.05,365 L481.05,365 L481.05,356.6 C481.05,352.4 478.95,350.3 475.65,350.3 C472.35,350.3 470.7,352.7 470.7,352.7 C470.7,352.7 469.5,350.3 466.35,350.3 C463.95,350.3 462.45,352.1 462.45,352.1 L462.45,350.6 L459.45,350.6 L459.45,365 L462.45,365 L462.45,357.2 C462.45,354.5 463.95,353 465.75,353 C467.55,353 468.75,354.2 468.75,356.6 L468.75,365 L471.75,365 L471.75,357.2 C471.75,354.5 473.25,353 475.05,353 C476.85,353 478.05,354.2 478.05,356.6 L478.05,365 Z M498.6,358.85 L487.35,358.85 C487.65,360.8 489.45,362.6 491.85,362.6 C494.7,362.6 496.2,360.35 496.2,360.35 L498.15,362.3 C498.15,362.3 495.9,365.3 491.85,365.3 C487.8,365.3 484.35,361.85 484.35,357.65 C484.35,353.6 487.65,350.3 491.7,350.3 C495.75,350.3 498.75,353.3 498.75,357.35 C498.75,358.25 498.6,358.85 498.6,358.85 Z M491.7,352.85 C489.45,352.85 487.95,354.35 487.47,356.3 L495.81,356.3 C495.45,354.35 493.95,352.85 491.7,352.85 Z M519.6,357.5 L507.3,357.5 L507.3,360.2 L519.6,360.2 L519.6,357.5 Z M519.6,352.1 L507.3,352.1 L507.3,354.8 L519.6,354.8 L519.6,352.1 Z M531.75,350.6 L528.75,350.6 L528.75,365 L531.75,365 L531.75,357.2 C531.75,354.5 533.25,353 535.5,353 C537.45,353 538.95,354.5 538.95,356.6 L538.95,365 L541.95,365 L541.95,356.6 C541.95,352.7 539.55,350.3 536.1,350.3 C533.4,350.3 531.75,352.1 531.75,352.1 L531.75,350.6 Z M557.7,365 L554.7,365 L554.7,363.5 C554.7,363.5 553.05,365.3 550.35,365.3 C547.35,365.3 545.25,363.2 545.25,361.1 C545.25,358.7 546.9,357.05 549.45,356.6 L554.7,355.7 C554.7,354.2 553.5,353 551.7,353 C549.15,353 547.95,354.95 547.95,354.95 L546,353 C546,353 547.95,350.3 551.7,350.3 C555.3,350.3 557.7,352.7 557.7,355.7 L557.7,365 Z M550.8,362.6 C553.2,362.6 554.7,361.1 554.7,358.4 L554.7,358.1 L550.05,358.85 C549,359.03 548.25,359.75 548.25,360.8 C548.25,361.7 549.15,362.6 550.8,362.6 Z M580.5,365 L583.5,365 L583.5,356.6 C583.5,352.4 581.4,350.3 578.1,350.3 C574.8,350.3 573.15,352.7 573.15,352.7 C573.15,352.7 571.95,350.3 568.8,350.3 C566.4,350.3 564.9,352.1 564.9,352.1 L564.9,350.6 L561.9,350.6 L561.9,365 L564.9,365 L564.9,357.2 C564.9,354.5 566.4,353 568.2,353 C570,353 571.2,354.2 571.2,356.6 L571.2,365 L574.2,365 L574.2,357.2 C574.2,354.5 575.7,353 577.5,353 C579.3,353 580.5,354.2 580.5,356.6 L580.5,365 Z M601.05,358.85 L589.8,358.85 C590.1,360.8 591.9,362.6 594.3,362.6 C597.15,362.6 598.65,360.35 598.65,360.35 L600.6,362.3 C600.6,362.3 598.35,365.3 594.3,365.3 C590.25,365.3 586.8,361.85 586.8,357.65 C586.8,353.6 590.1,350.3 594.15,350.3 C598.2,350.3 601.2,353.3 601.2,357.35 C601.2,358.25 601.05,358.85 601.05,358.85 Z M594.15,352.85 C591.9,352.85 590.4,354.35 589.92,356.3 L598.26,356.3 C597.9,354.35 596.4,352.85 594.15,352.85 Z M607.95,363.35 C607.95,362.3 607.05,361.4 606,361.4 C604.95,361.4 604.05,362.3 604.05,363.35 C604.05,364.4 604.95,365.3 606,365.3 C607.05,365.3 607.95,364.4 607.95,363.35 Z M613.2,348.8 C613.2,350 612.6,350.6 611.7,350.6 L610.2,350.6 L610.2,353.3 L612.9,353.3 L612.9,360.8 C612.9,363.8 614.4,365.3 617.1,365.3 C618.3,365.3 619.2,365 619.2,365 L619.2,362.3 C619.2,362.3 618.45,362.6 617.7,362.6 C616.65,362.6 615.9,361.85 615.9,360.77 L615.9,353.3 L618.9,353.3 L618.9,350.6 L615.9,350.6 L615.9,345.8 L613.2,345.8 L613.2,348.8 Z M633.3,357.8 C633.3,355.1 631.2,353 628.8,353 C626.4,353 624.3,355.1 624.3,357.8 C624.3,360.5 626.4,362.6 628.8,362.6 C631.2,362.6 633.3,360.5 633.3,357.8 Z M621.3,357.8 C621.3,353.75 624.75,350.3 628.8,350.3 C632.85,350.3 636.3,353.75 636.3,357.8 C636.3,361.85 632.85,365.3 628.8,365.3 C624.75,365.3 621.3,361.85 621.3,357.8 Z M649.2,362.3 C646.2,362.3 643.65,359.75 643.65,356.6 L643.65,344 L640.35,344 L640.35,356.6 C640.35,361.4 644.25,365.3 649.2,365.3 C654.15,365.3 658.05,361.4 658.05,356.6 L658.05,344 L654.75,344 L654.75,356.6 C654.75,359.75 652.2,362.3 649.2,362.3 Z M670.35,365.3 C667.5,365.3 665.7,363.35 665.7,363.35 L665.7,371.3 L662.7,371.3 L662.7,350.6 L665.7,350.6 L665.7,352.25 C665.7,352.25 667.5,350.3 670.35,350.3 C674.1,350.3 677.4,353.6 677.4,357.8 C677.4,362 674.1,365.3 670.35,365.3 Z M670.05,353 C667.8,353 665.7,355.1 665.7,357.8 C665.7,360.5 667.8,362.6 670.05,362.6 C672.3,362.6 674.4,360.5 674.4,357.8 C674.4,355.1 672.3,353 670.05,353 Z M688.35,365.3 C685.5,365.3 683.7,363.35 683.7,363.35 L683.7,371.3 L680.7,371.3 L680.7,350.6 L683.7,350.6 L683.7,352.25 C683.7,352.25 685.5,350.3 688.35,350.3 C692.1,350.3 695.4,353.6 695.4,357.8 C695.4,362 692.1,365.3 688.35,365.3 Z M688.05,353 C685.8,353 683.7,355.1 683.7,357.8 C683.7,360.5 685.8,362.6 688.05,362.6 C690.3,362.6 692.4,360.5 692.4,357.8 C692.4,355.1 690.3,353 688.05,353 Z M712.05,358.85 L700.8,358.85 C701.1,360.8 702.9,362.6 705.3,362.6 C708.15,362.6 709.65,360.35 709.65,360.35 L711.6,362.3 C711.6,362.3 709.35,365.3 705.3,365.3 C701.25,365.3 697.8,361.85 697.8,357.65 C697.8,353.6 701.1,350.3 705.15,350.3 C709.2,350.3 712.2,353.3 712.2,357.35 C712.2,358.25 712.05,358.85 712.05,358.85 Z M705.15,352.85 C702.9,352.85 701.4,354.35 700.92,356.3 L709.26,356.3 C708.9,354.35 707.4,352.85 705.15,352.85 Z M723.6,353.15 L723.6,350.3 L722.85,350.3 C720.15,350.3 718.5,352.1 718.5,352.1 L718.5,350.6 L715.5,350.6 L715.5,365 L718.5,365 L718.5,357.2 C718.5,354.5 720,353 722.25,353 C723,353 723.6,353.15 723.6,353.15 Z M736.95,343.7 C730.65,343.7 725.85,348.5 725.85,354.5 C725.85,360.5 730.65,365.3 736.95,365.3 C742.65,365.3 745.65,361.1 745.65,361.1 L743.55,359 C743.55,359 741.3,362.3 736.95,362.3 C732.6,362.3 729.15,358.85 729.15,354.5 C729.15,350.15 732.6,346.7 736.95,346.7 C741.3,346.7 743.4,349.85 743.4,349.85 L745.5,347.75 C745.5,347.75 742.65,343.7 736.95,343.7 Z M760.35,365 L757.35,365 L757.35,363.5 C757.35,363.5 755.7,365.3 753,365.3 C750,365.3 747.9,363.2 747.9,361.1 C747.9,358.7 749.55,357.05 752.1,356.6 L757.35,355.7 C757.35,354.2 756.15,353 754.35,353 C751.8,353 750.6,354.95 750.6,354.95 L748.65,353 C748.65,353 750.6,350.3 754.35,350.3 C757.95,350.3 760.35,352.7 760.35,355.7 L760.35,365 Z M753.45,362.6 C755.85,362.6 757.35,361.1 757.35,358.4 L757.35,358.1 L752.7,358.85 C751.65,359.03 750.9,359.75 750.9,360.8 C750.9,361.7 751.8,362.6 753.45,362.6 Z M773.7,352.25 C773.7,352.25 772.2,350.3 769.05,350.3 C766.05,350.3 763.95,352.4 763.95,354.5 C763.95,359.6 771.3,358.1 771.3,360.8 C771.3,361.85 770.55,362.6 768.9,362.6 C766.65,362.6 765.3,360.8 765.3,360.8 L763.35,362.75 C763.35,362.75 765.15,365.3 768.9,365.3 C772.2,365.3 774.3,363.2 774.3,360.8 C774.3,355.7 766.95,357.2 766.95,354.5 C766.95,353.75 767.7,353 769.05,353 C770.7,353 771.75,354.2 771.75,354.2 L773.7,352.25 Z M790.95,358.85 L779.7,358.85 C780,360.8 781.8,362.6 784.2,362.6 C787.05,362.6 788.55,360.35 788.55,360.35 L790.5,362.3 C790.5,362.3 788.25,365.3 784.2,365.3 C780.15,365.3 776.7,361.85 776.7,357.65 C776.7,353.6 780,350.3 784.05,350.3 C788.1,350.3 791.1,353.3 791.1,357.35 C791.1,358.25 790.95,358.85 790.95,358.85 Z M784.05,352.85 C781.8,352.85 780.3,354.35 779.82,356.3 L788.16,356.3 C787.8,354.35 786.3,352.85 784.05,352.85 Z M797.55,357.5 C797.55,350 801.75,344.6 801.75,344.6 L799.5,343.25 C799.5,343.25 794.85,348.8 794.85,357.5 C794.85,366.2 799.5,371.75 799.5,371.75 L801.75,370.4 C801.75,370.4 797.55,365 797.55,357.5 Z M807.75,357.5 C807.75,365 803.55,370.4 803.55,370.4 L805.8,371.75 C805.8,371.75 810.45,366.2 810.45,357.5 C810.45,348.8 805.8,343.25 805.8,343.25 L803.55,344.6 C803.55,344.6 807.75,350 807.75,357.5 Z M815.85,361.4 L812.85,367.85 L814.8,368.9 L818.55,362.9 L815.85,361.4 Z M814.8,352.25 C814.8,353.3 815.7,354.2 816.75,354.2 C817.8,354.2 818.7,353.3 818.7,352.25 C818.7,351.2 817.8,350.3 816.75,350.3 C815.7,350.3 814.8,351.2 814.8,352.25 Z M208.65,415.7 L199.65,443.3 L195.9,443.3 L204.9,415.7 L208.65,415.7 Z M217.2,415.7 L208.2,443.3 L204.45,443.3 L213.45,415.7 L217.2,415.7 Z M228.3,423.8 L231.45,416.9 L228.9,415.4 L224.85,421.85 L228.3,423.8 Z M252.75,416 L248.25,416 L248.25,424.4 L239.25,424.4 L239.25,416 L234.75,416 L234.75,437 L239.25,437 L239.25,428.45 L248.25,428.45 L248.25,437 L252.75,437 L252.75,416 Z M265.35,437 L265.35,435.5 C265.35,435.5 263.85,437.3 261.3,437.3 C258.3,437.3 256.35,435.35 256.35,433.1 C256.35,430.7 258,429.02 260.7,428.54 L265.35,427.7 C265.35,426.5 264.45,425.6 262.8,425.6 C260.55,425.6 259.5,427.1 259.5,427.1 L257.25,424.85 C257.25,424.85 259.2,422 263.1,422 C266.85,422 269.4,424.55 269.4,427.85 L269.4,437 L265.35,437 Z M262.35,434 C264.15,434 265.35,432.8 265.35,430.7 L265.35,430.25 L262.05,430.85 C261,431.03 260.4,431.6 260.4,432.5 C260.4,433.4 261,434 262.35,434 Z M277.35,422.3 L273.3,422.3 L273.3,437 L277.35,437 L277.35,429.35 C277.35,427.1 278.55,425.9 280.35,425.9 C282,425.9 283.2,427.1 283.2,428.9 L283.2,437 L287.25,437 L287.25,428.45 C287.25,424.4 284.85,422 281.55,422 C278.85,422 277.35,424.1 277.35,424.1 L277.35,422.3 Z M307.35,430.85 C307.35,432.35 306.15,433.55 303.9,433.55 C300.75,433.55 298.95,431.3 298.95,431.3 L296.25,434 C296.25,434 298.95,437.45 304.2,437.45 C309.3,437.45 312.15,434.6 312.15,430.85 C312.15,423.35 301.8,425.6 301.8,421.7 C301.8,420.5 302.85,419.45 304.65,419.45 C307.05,419.45 308.55,421.25 308.55,421.25 L311.25,418.4 C311.25,418.4 309,415.55 304.35,415.55 C299.85,415.55 297,418.4 297,421.7 C297,429.2 307.35,426.95 307.35,430.85 Z M318.6,429.65 C318.6,431.9 320.25,433.55 322.2,433.55 C324.15,433.55 325.8,431.9 325.8,429.65 C325.8,427.4 324.15,425.75 322.2,425.75 C320.25,425.75 318.6,427.4 318.6,429.65 Z M330,429.65 C330,433.7 326.4,437.3 322.2,437.3 C318,437.3 314.4,433.7 314.4,429.65 C314.4,425.6 318,422 322.2,422 C326.4,422 330,425.6 330,429.65 Z M337.2,416 L333.15,416 L333.15,437 L337.2,437 L337.2,416 Z M344.55,429.65 C344.55,431.9 346.2,433.55 348.15,433.55 C350.1,433.55 351.75,431.9 351.75,429.65 C351.75,427.4 350.1,425.75 348.15,425.75 C346.2,425.75 344.55,427.4 344.55,429.65 Z M355.95,429.65 C355.95,433.7 352.35,437.3 348.15,437.3 C343.95,437.3 340.35,433.7 340.35,429.65 C340.35,425.6 343.95,422 348.15,422 C352.35,422 355.95,425.6 355.95,429.65 Z M360.9,415.4 L357.75,422.3 L360.3,423.8 L364.35,417.35 L360.9,415.4 Z M368.1,432.65 L364.8,439.55 L367.5,440.9 L371.4,434.6 L368.1,432.65 Z M382.95,423.8 L386.1,416.9 L383.55,415.4 L379.5,421.85 L382.95,423.8 Z M407.4,416 L402.9,416 L402.9,424.4 L393.9,424.4 L393.9,416 L389.4,416 L389.4,437 L393.9,437 L393.9,428.45 L402.9,428.45 L402.9,437 L407.4,437 L407.4,416 Z M423.6,428.15 L421.05,421.25 L418.5,428.15 L423.6,428.15 Z M425.1,432.05 L417,432.05 L415.2,437 L410.4,437 L418.65,416 L423.45,416 L431.7,437 L426.9,437 L425.1,432.05 Z M448.95,416 L448.95,429.35 L438.6,416 L434.7,416 L434.7,437 L439.2,437 L439.2,423.65 L449.55,437 L453.45,437 L453.45,416 L448.95,416 Z M474.15,430.85 C474.15,432.35 472.95,433.55 470.7,433.55 C467.55,433.55 465.75,431.3 465.75,431.3 L463.05,434 C463.05,434 465.75,437.45 471,437.45 C476.1,437.45 478.95,434.6 478.95,430.85 C478.95,423.35 468.6,425.6 468.6,421.7 C468.6,420.5 469.65,419.45 471.45,419.45 C473.85,419.45 475.35,421.25 475.35,421.25 L478.05,418.4 C478.05,418.4 475.8,415.55 471.15,415.55 C466.65,415.55 463.8,418.4 463.8,421.7 C463.8,429.2 474.15,426.95 474.15,430.85 Z M486.45,426.5 C486.45,430.4 489.45,433.4 493.2,433.4 C496.95,433.4 499.95,430.4 499.95,426.5 C499.95,422.6 496.95,419.6 493.2,419.6 C489.45,419.6 486.45,422.6 486.45,426.5 Z M481.8,426.5 C481.8,420.5 486.75,415.55 493.2,415.55 C499.65,415.55 504.6,420.5 504.6,426.5 C504.6,432.5 499.65,437.45 493.2,437.45 C486.75,437.45 481.8,432.5 481.8,426.5 Z M523.05,437 L523.05,432.95 L513.3,432.95 L513.3,416 L508.8,416 L508.8,437 L523.05,437 Z M528.75,426.5 C528.75,430.4 531.75,433.4 535.5,433.4 C539.25,433.4 542.25,430.4 542.25,426.5 C542.25,422.6 539.25,419.6 535.5,419.6 C531.75,419.6 528.75,422.6 528.75,426.5 Z M524.1,426.5 C524.1,420.5 529.05,415.55 535.5,415.55 C541.95,415.55 546.9,420.5 546.9,426.5 C546.9,432.5 541.95,437.45 535.5,437.45 C529.05,437.45 524.1,432.5 524.1,426.5 Z M552.15,415.4 L549,422.3 L551.55,423.8 L555.6,417.35 L552.15,415.4 Z M196.05,466.88 C196.05,470.24 198.93,473.3 202.47,473.3 C206.22,473.3 208.77,470.3 208.77,470.3 L207.18,468.35 C207.18,468.35 205.41,470.6 202.86,470.6 C200.79,470.6 199.11,468.89 199.11,466.73 C199.11,463.55 201.81,461 204.51,461 C207.06,461 208.32,462.98 208.32,462.98 L210.54,461.15 C210.54,461.15 208.56,458.3 204.81,458.3 C200.1,458.3 196.05,462.47 196.05,466.88 Z M218.7,470.6 C221.4,470.6 223.95,467.9 223.95,465.14 C223.95,462.77 222.24,461 219.93,461 C217.35,461 214.71,463.49 214.71,466.49 C214.71,468.86 216.45,470.6 218.7,470.6 Z M211.65,466.58 C211.65,462.38 215.7,458.3 220.2,458.3 C224.1,458.3 227.01,461.39 227.01,465.05 C227.01,469.46 222.69,473.3 218.43,473.3 C214.5,473.3 211.65,470.21 211.65,466.58 Z M234.66,458.6 L231.66,458.6 L228.6,473 L231.6,473 L233.22,465.32 C233.79,462.62 235.53,461 237.78,461 C239.46,461 240.66,462.11 240.66,463.79 C240.66,464.06 240.63,464.33 240.57,464.6 L238.8,473 L241.8,473 L243.57,464.6 C243.69,464.06 243.75,463.55 243.75,463.07 C243.75,460.07 241.62,458.3 238.65,458.3 C235.95,458.3 234.33,460.1 234.33,460.1 L234.66,458.6 Z M257.85,460.25 C257.85,460.25 256.32,458.3 253.17,458.3 C249.6,458.3 247.5,460.7 247.5,463.07 C247.5,466.91 253.65,466.55 253.65,468.71 C253.65,469.91 252.63,470.6 250.92,470.6 C248.67,470.6 247.53,468.86 247.53,468.86 L245.25,470.75 C245.25,470.75 246.96,473.3 250.71,473.3 C254.43,473.3 256.71,470.99 256.71,468.23 C256.71,464.39 250.59,464.78 250.59,462.59 C250.59,461.78 251.43,461 252.99,461 C254.64,461 255.57,462.14 255.57,462.14 L257.85,460.25 Z M266.55,470.6 C269.25,470.6 271.8,467.9 271.8,465.14 C271.8,462.77 270.09,461 267.78,461 C265.2,461 262.56,463.49 262.56,466.49 C262.56,468.86 264.3,470.6 266.55,470.6 Z M259.5,466.58 C259.5,462.38 263.55,458.3 268.05,458.3 C271.95,458.3 274.86,461.39 274.86,465.05 C274.86,469.46 270.54,473.3 266.28,473.3 C262.35,473.3 259.5,470.21 259.5,466.58 Z M284.19,452 L281.19,452 L276.75,473 L279.75,473 L284.19,452 Z M298.89,466.85 L287.61,466.85 C287.7,468.86 289.2,470.6 291.45,470.6 C294.3,470.6 296.13,468.29 296.13,468.29 L297.72,470.3 C297.72,470.3 295.26,473.3 291.21,473.3 C287.67,473.3 284.73,470.3 284.73,466.85 C284.73,462.11 288.78,458.3 293.37,458.3 C296.85,458.3 299.55,460.55 299.55,463.76 C299.55,465.11 298.92,466.94 298.89,466.85 Z M293.19,460.85 C291.06,460.85 289.05,462.32 288.15,464.3 L296.64,464.3 C296.73,462.35 295.47,460.85 293.19,460.85 Z M304.89,471.17 C304.89,470.21 304.14,469.4 303.12,469.4 C302.04,469.4 300.9,470.39 300.9,471.5 C300.9,472.46 301.62,473.3 302.67,473.3 C303.84,473.3 304.89,472.25 304.89,471.17 Z M315.69,452 L312.69,452 L308.25,473 L311.25,473 L315.69,452 Z M323.25,470.6 C325.95,470.6 328.5,467.9 328.5,465.14 C328.5,462.77 326.79,461 324.48,461 C321.9,461 319.26,463.49 319.26,466.49 C319.26,468.86 321,470.6 323.25,470.6 Z M316.2,466.58 C316.2,462.38 320.25,458.3 324.75,458.3 C328.65,458.3 331.56,461.39 331.56,465.05 C331.56,469.46 327.24,473.3 322.98,473.3 C319.05,473.3 316.2,470.21 316.2,466.58 Z M343.53,472.13 L343.74,471.02 C343.74,471.02 342.06,472.7 339.36,472.7 C336.24,472.7 333.66,469.91 333.66,466.64 C333.66,461.87 337.71,458.3 341.76,458.3 C344.46,458.3 346.05,460.22 346.05,460.22 L346.41,458.6 L349.41,458.6 L346.53,472.1 C345.66,476.15 342.45,479.3 338.4,479.3 C334.05,479.3 331.98,476.3 331.98,476.3 L334.26,474.41 C334.26,474.41 335.73,476.6 338.58,476.6 C340.95,476.6 342.99,474.8 343.53,472.13 Z M341.7,461 C339.03,461 336.72,463.64 336.72,466.37 C336.72,468.41 338.22,470 340.05,470 C342.39,470 345.06,467.51 345.06,464.48 C345.06,462.47 343.5,461 341.7,461 Z M355.29,465.5 C354.96,467.06 354.81,468.53 354.81,469.88 C354.81,475.01 356.73,478.4 356.73,478.4 L354.21,479.75 C354.21,479.75 352.05,476 352.05,470.27 C352.05,458.84 360.3,451.19 360.27,451.25 L362.25,452.63 C362.25,452.63 356.88,458 355.29,465.5 Z M366.81,458.6 L366.48,460.1 C366.48,460.1 368.1,458.3 370.8,458.3 C373.77,458.3 375.9,460.07 375.9,463.07 C375.9,463.55 375.84,464.06 375.72,464.6 L373.95,473 L370.95,473 L372.72,464.6 C372.78,464.33 372.81,464.06 372.81,463.79 C372.81,462.11 371.61,461 369.93,461 C367.68,461 365.94,462.62 365.37,465.32 L363.75,473 L360.75,473 L363.81,458.6 L366.81,458.6 Z M385.2,470.6 C387.69,470.6 390.6,467.9 390.6,464.72 C390.6,462.53 388.92,461 386.97,461 C384.42,461 381.66,463.64 381.66,466.82 C381.66,468.98 383.25,470.6 385.2,470.6 Z M387.09,458.3 C389.94,458.3 391.62,460.4 391.62,460.4 L392.01,458.6 L395.01,458.6 L391.95,473 L388.95,473 L389.25,471.47 C389.25,471.47 387.45,473.3 384.6,473.3 C381.36,473.3 378.6,470.51 378.6,467.12 C378.6,462.17 382.86,458.3 387.09,458.3 Z M410.1,460.7 C410.1,460.7 410.1,460.7 410.1,460.7 L410.1,460.7 Z M410.1,460.7 C410.100385,460.699503 411.960342,458.3 415.26,458.3 C418.02,458.3 419.88,459.77 419.88,462.74 C419.88,463.31 419.82,463.91 419.67,464.6 L417.9,473 L414.9,473 L416.67,464.6 C416.76,464.18 416.79,463.79 416.79,463.43 C416.79,461.81 415.86,461 414.39,461 C412.59,461 410.82,462.5 410.25,465.2 L408.6,473 L405.6,473 L407.37,464.6 C407.46,464.18 407.49,463.79 407.49,463.43 C407.49,461.81 406.56,461 405.09,461 C403.29,461 401.52,462.5 400.95,465.2 L399.3,473 L396.3,473 L399.36,458.6 L402.36,458.6 L402.03,460.1 C402.03,460.1 403.56,458.3 405.96,458.3 C409.109733,458.3 410.099832,460.699593 410.1,460.7 L410.1,460.7 Z M436.74,466.85 L425.46,466.85 C425.55,468.86 427.05,470.6 429.3,470.6 C432.15,470.6 433.98,468.29 433.98,468.29 L435.57,470.3 C435.57,470.3 433.11,473.3 429.06,473.3 C425.52,473.3 422.58,470.3 422.58,466.85 C422.58,462.11 426.63,458.3 431.22,458.3 C434.7,458.3 437.4,460.55 437.4,463.76 C437.4,465.11 436.77,466.94 436.74,466.85 Z M431.04,460.85 C428.91,460.85 426.9,462.32 426,464.3 L434.49,464.3 C434.58,462.35 433.32,460.85 431.04,460.85 Z M440.58,469.34 L443.07,470.9 L438.06,476.9 L436.29,475.82 L440.58,469.34 Z M462.3,473 L462.57,471.65 C462.57,471.65 460.86,473.3 458.16,473.3 C455.22,473.3 453.18,471.56 453.18,468.59 C453.18,468.11 453.24,467.57 453.36,467 L455.16,458.6 L458.16,458.6 L456.36,467 C456.3,467.3 456.27,467.57 456.27,467.84 C456.27,469.49 457.44,470.6 459.12,470.6 C461.37,470.6 463.11,468.95 463.71,466.25 L465.36,458.6 L468.36,458.6 L465.3,473 L462.3,473 Z M477.42,473.3 C474.57,473.3 472.86,471.2 472.86,471.2 L471.15,479.3 L468.15,479.3 L472.56,458.6 L475.56,458.6 L475.23,460.13 C475.23,460.13 477.06,458.3 479.91,458.3 C483.15,458.3 485.91,461.09 485.91,464.48 C485.91,469.43 481.65,473.3 477.42,473.3 Z M479.31,461 C476.82,461 473.91,463.7 473.91,466.88 C473.91,469.07 475.59,470.6 477.54,470.6 C480.09,470.6 482.85,467.96 482.85,464.78 C482.85,462.62 481.26,461 479.31,461 Z M495.42,473.3 C492.57,473.3 490.86,471.2 490.86,471.2 L489.15,479.3 L486.15,479.3 L490.56,458.6 L493.56,458.6 L493.23,460.13 C493.23,460.13 495.06,458.3 497.91,458.3 C501.15,458.3 503.91,461.09 503.91,464.48 C503.91,469.43 499.65,473.3 495.42,473.3 Z M497.31,461 C494.82,461 491.91,463.7 491.91,466.88 C491.91,469.07 493.59,470.6 495.54,470.6 C498.09,470.6 500.85,467.96 500.85,464.78 C500.85,462.62 499.26,461 497.31,461 Z M520.14,466.85 L508.86,466.85 C508.95,468.86 510.45,470.6 512.7,470.6 C515.55,470.6 517.38,468.29 517.38,468.29 L518.97,470.3 C518.97,470.3 516.51,473.3 512.46,473.3 C508.92,473.3 505.98,470.3 505.98,466.85 C505.98,462.11 510.03,458.3 514.62,458.3 C518.1,458.3 520.8,460.55 520.8,463.76 C520.8,465.11 520.17,466.94 520.14,466.85 Z M514.44,460.85 C512.31,460.85 510.3,462.32 509.4,464.3 L517.89,464.3 C517.98,462.35 516.72,460.85 514.44,460.85 Z M532.89,461.15 C532.89,461.15 532.35,461 531.6,461 C529.35,461 527.49,462.62 526.92,465.32 L525.3,473 L522.3,473 L525.36,458.6 L528.36,458.6 L528.03,460.07 C528.03,460.07 530.07,458.3 532.77,458.3 L533.52,458.3 L532.89,461.15 Z M533.25,466.88 C533.25,462.47 537.3,458.3 542.01,458.3 C545.76,458.3 547.74,461.15 547.74,461.15 L545.52,462.98 C545.52,462.98 544.26,461 541.71,461 C539.01,461 536.31,463.55 536.31,466.73 C536.31,468.89 537.99,470.6 540.06,470.6 C542.61,470.6 544.38,468.35 544.38,468.35 L545.97,470.3 C545.97,470.3 543.42,473.3 539.67,473.3 C536.13,473.3 533.25,470.24 533.25,466.88 Z M555.45,470.6 C557.94,470.6 560.85,467.9 560.85,464.72 C560.85,462.53 559.17,461 557.22,461 C554.67,461 551.91,463.64 551.91,466.82 C551.91,468.98 553.5,470.6 555.45,470.6 Z M557.34,458.3 C560.19,458.3 561.87,460.4 561.87,460.4 L562.26,458.6 L565.26,458.6 L562.2,473 L559.2,473 L559.5,471.47 C559.5,471.47 557.7,473.3 554.85,473.3 C551.61,473.3 548.85,470.51 548.85,467.12 C548.85,462.17 553.11,458.3 557.34,458.3 Z M578.4,460.25 C578.4,460.25 576.87,458.3 573.72,458.3 C570.15,458.3 568.05,460.7 568.05,463.07 C568.05,466.91 574.2,466.55 574.2,468.71 C574.2,469.91 573.18,470.6 571.47,470.6 C569.22,470.6 568.08,468.86 568.08,468.86 L565.8,470.75 C565.8,470.75 567.51,473.3 571.26,473.3 C574.98,473.3 577.26,470.99 577.26,468.23 C577.26,464.39 571.14,464.78 571.14,462.59 C571.14,461.78 571.98,461 573.54,461 C575.19,461 576.12,462.14 576.12,462.14 L578.4,460.25 Z M594.24,466.85 L582.96,466.85 C583.05,468.86 584.55,470.6 586.8,470.6 C589.65,470.6 591.48,468.29 591.48,468.29 L593.07,470.3 C593.07,470.3 590.61,473.3 586.56,473.3 C583.02,473.3 580.08,470.3 580.08,466.85 C580.08,462.11 584.13,458.3 588.72,458.3 C592.2,458.3 594.9,460.55 594.9,463.76 C594.9,465.11 594.27,466.94 594.24,466.85 Z M588.54,460.85 C586.41,460.85 584.4,462.32 583.5,464.3 L591.99,464.3 C592.08,462.35 590.82,460.85 588.54,460.85 Z M616.44,452 L613.2,467.27 L604.5,452 L601.89,452 L597.45,473 L600.75,473 L603.99,457.73 L612.69,473 L615.3,473 L619.74,452 L616.44,452 Z M627.3,470.6 C629.79,470.6 632.7,467.9 632.7,464.72 C632.7,462.53 631.02,461 629.07,461 C626.52,461 623.76,463.64 623.76,466.82 C623.76,468.98 625.35,470.6 627.3,470.6 Z M629.19,458.3 C632.04,458.3 633.72,460.4 633.72,460.4 L634.11,458.6 L637.11,458.6 L634.05,473 L631.05,473 L631.35,471.47 C631.35,471.47 629.55,473.3 626.7,473.3 C623.46,473.3 620.7,470.51 620.7,467.12 C620.7,462.17 624.96,458.3 629.19,458.3 Z M657,473 L660,473 L661.77,464.6 C661.92,463.91 661.98,463.31 661.98,462.74 C661.98,459.77 660.12,458.3 657.36,458.3 C654.06,458.3 652.2,460.7 652.2,460.7 C652.2,460.7 651.21,458.3 648.06,458.3 C645.66,458.3 644.13,460.1 644.13,460.1 L644.46,458.6 L641.46,458.6 L638.4,473 L641.4,473 L643.05,465.2 C643.62,462.5 645.39,461 647.19,461 C648.66,461 649.59,461.81 649.59,463.43 C649.59,463.79 649.56,464.18 649.47,464.6 L647.7,473 L650.7,473 L652.35,465.2 C652.92,462.5 654.69,461 656.49,461 C657.96,461 658.89,461.81 658.89,463.43 C658.89,463.79 658.86,464.18 658.77,464.6 L657,473 Z M678.84,466.85 L667.56,466.85 C667.65,468.86 669.15,470.6 671.4,470.6 C674.25,470.6 676.08,468.29 676.08,468.29 L677.67,470.3 C677.67,470.3 675.21,473.3 671.16,473.3 C667.62,473.3 664.68,470.3 664.68,466.85 C664.68,462.11 668.73,458.3 673.32,458.3 C676.8,458.3 679.5,460.55 679.5,463.76 C679.5,465.11 678.87,466.94 678.84,466.85 Z M673.14,460.85 C671.01,460.85 669,462.32 668.1,464.3 L676.59,464.3 C676.68,462.35 675.42,460.85 673.14,460.85 Z M685.74,465.5 C686.07,463.97 686.19,462.5 686.19,461.15 C686.19,456.02 684.27,452.6 684.27,452.6 L686.82,451.25 C686.82,451.25 688.98,455.03 688.98,460.76 C688.98,472.19 680.7,479.81 680.76,479.75 L678.78,478.37 C678.78,478.37 684.15,473 685.74,465.5 Z M697.83,460.07 C697.83,459.11 697.08,458.3 696.06,458.3 C694.98,458.3 693.84,459.29 693.84,460.4 C693.84,461.36 694.56,462.2 695.61,462.2 C696.78,462.2 697.83,461.15 697.83,460.07 Z M692.88,469.34 L695.37,470.9 L690.36,476.9 L688.59,475.82 L692.88,469.34 Z" id="const-name-=-‘Han-So" fill="#545E6F"></path>
            <text id="IMMUTABLE-BY-DESIGN" font-family="TTNorms-Bold, TT Norms" font-size="24" font-weight="bold" fill="#FFFFFF">
                <tspan x="498.38" y="183">IMMUTABLE BY DESIGN</tspan>
            </text>
        </g>
    </g>
</svg>