<?xml version="1.0" encoding="UTF-8"?>
<svg width="1280px" height="720px" viewBox="0 0 1280 720" version="1.1" xmlns="http://www.w3.org/2000/svg" xmlns:xlink="http://www.w3.org/1999/xlink" style="background: #FFFFFF;">
    <!-- Generator: Sketch 47.1 (45422) - http://www.bohemiancoding.com/sketch -->
    <title>effects-without-dispatch copy</title>
    <desc>Created with Sketch.</desc>
    <defs></defs>
    <g id="Page-1" stroke="none" stroke-width="1" fill="none" fill-rule="evenodd">
        <g id="effects-without-dispatch-copy">
            <g id="Group" transform="translate(125.000000, 145.000000)">
                <rect id="Rectangle-7" fill="#F4F6F8" x="0" y="31" width="1030" height="392" rx="15"></rect>
                <path d="M15,0 L1015,0 L1015,1.77635684e-15 C1023.28427,5.91178485e-14 1030,6.71572875 1030,15 L1030,58 L0,58 L0,15 L-1.77635684e-15,15 C-2.79088747e-15,6.71572875 6.71572875,-2.54560899e-16 15,-1.77635684e-15 Z" id="Rectangle" fill="#6DB0DC"></path>
            </g>
            <path d="M207.6,302.35 C207.6,302.35 207.6,302.35 207.6,302.35 L207.6,302.35 Z M207.6,302.35 L209.55,304.3 C209.55,304.3 207.3,307.3 203.55,307.3 C199.5,307.3 196.05,303.85 196.05,299.8 C196.05,295.75 199.5,292.3 203.55,292.3 C207.3,292.3 209.4,295.15 209.4,295.15 L207.45,297.1 C207.45,297.1 206.1,295 203.55,295 C201.15,295 199.05,297.1 199.05,299.8 C199.05,302.5 201.15,304.6 203.55,304.6 C206.099633,304.6 207.599568,302.350648 207.6,302.35 L207.6,302.35 Z M223.65,299.8 C223.65,297.1 221.55,295 219.15,295 C216.75,295 214.65,297.1 214.65,299.8 C214.65,302.5 216.75,304.6 219.15,304.6 C221.55,304.6 223.65,302.5 223.65,299.8 Z M211.65,299.8 C211.65,295.75 215.1,292.3 219.15,292.3 C223.2,292.3 226.65,295.75 226.65,299.8 C226.65,303.85 223.2,307.3 219.15,307.3 C215.1,307.3 211.65,303.85 211.65,299.8 Z M232.95,292.6 L229.95,292.6 L229.95,307 L232.95,307 L232.95,299.2 C232.95,296.5 234.45,295 236.7,295 C238.65,295 240.15,296.5 240.15,298.6 L240.15,307 L243.15,307 L243.15,298.6 C243.15,294.7 240.75,292.3 237.3,292.3 C234.6,292.3 232.95,294.1 232.95,294.1 L232.95,292.6 Z M256.5,294.25 C256.5,294.25 255,292.3 251.85,292.3 C248.85,292.3 246.75,294.4 246.75,296.5 C246.75,301.6 254.1,300.1 254.1,302.8 C254.1,303.85 253.35,304.6 251.7,304.6 C249.45,304.6 248.1,302.8 248.1,302.8 L246.15,304.75 C246.15,304.75 247.95,307.3 251.7,307.3 C255,307.3 257.1,305.2 257.1,302.8 C257.1,297.7 249.75,299.2 249.75,296.5 C249.75,295.75 250.5,295 251.85,295 C253.5,295 254.55,296.2 254.55,296.2 L256.5,294.25 Z M262.2,290.8 C262.2,292 261.6,292.6 260.7,292.6 L259.2,292.6 L259.2,295.3 L261.9,295.3 L261.9,302.8 C261.9,305.8 263.4,307.3 266.1,307.3 C267.3,307.3 268.2,307 268.2,307 L268.2,304.3 C268.2,304.3 267.45,304.6 266.7,304.6 C265.65,304.6 264.9,303.85 264.9,302.77 L264.9,295.3 L267.9,295.3 L267.9,292.6 L264.9,292.6 L264.9,287.8 L262.2,287.8 L262.2,290.8 Z M280.8,292.6 L277.8,292.6 L277.8,307 L280.8,307 L280.8,299.2 C280.8,296.5 282.3,295 284.55,295 C286.5,295 288,296.5 288,298.6 L288,307 L291,307 L291,298.6 C291,294.7 288.6,292.3 285.15,292.3 C282.45,292.3 280.8,294.1 280.8,294.1 L280.8,292.6 Z M306.75,307 L303.75,307 L303.75,305.5 C303.75,305.5 302.1,307.3 299.4,307.3 C296.4,307.3 294.3,305.2 294.3,303.1 C294.3,300.7 295.95,299.05 298.5,298.6 L303.75,297.7 C303.75,296.2 302.55,295 300.75,295 C298.2,295 297,296.95 297,296.95 L295.05,295 C295.05,295 297,292.3 300.75,292.3 C304.35,292.3 306.75,294.7 306.75,297.7 L306.75,307 Z M299.85,304.6 C302.25,304.6 303.75,303.1 303.75,300.4 L303.75,300.1 L299.1,300.85 C298.05,301.03 297.3,301.75 297.3,302.8 C297.3,303.7 298.2,304.6 299.85,304.6 Z M329.55,307 L332.55,307 L332.55,298.6 C332.55,294.4 330.45,292.3 327.15,292.3 C323.85,292.3 322.2,294.7 322.2,294.7 C322.2,294.7 321,292.3 317.85,292.3 C315.45,292.3 313.95,294.1 313.95,294.1 L313.95,292.6 L310.95,292.6 L310.95,307 L313.95,307 L313.95,299.2 C313.95,296.5 315.45,295 317.25,295 C319.05,295 320.25,296.2 320.25,298.6 L320.25,307 L323.25,307 L323.25,299.2 C323.25,296.5 324.75,295 326.55,295 C328.35,295 329.55,296.2 329.55,298.6 L329.55,307 Z M350.1,300.85 L338.85,300.85 C339.15,302.8 340.95,304.6 343.35,304.6 C346.2,304.6 347.7,302.35 347.7,302.35 L349.65,304.3 C349.65,304.3 347.4,307.3 343.35,307.3 C339.3,307.3 335.85,303.85 335.85,299.65 C335.85,295.6 339.15,292.3 343.2,292.3 C347.25,292.3 350.25,295.3 350.25,299.35 C350.25,300.25 350.1,300.85 350.1,300.85 Z M343.2,294.85 C340.95,294.85 339.45,296.35 338.97,298.3 L347.31,298.3 C346.95,296.35 345.45,294.85 343.2,294.85 Z M362.7,294.25 C362.7,294.25 361.2,292.3 358.05,292.3 C355.05,292.3 352.95,294.4 352.95,296.5 C352.95,301.6 360.3,300.1 360.3,302.8 C360.3,303.85 359.55,304.6 357.9,304.6 C355.65,304.6 354.3,302.8 354.3,302.8 L352.35,304.75 C352.35,304.75 354.15,307.3 357.9,307.3 C361.2,307.3 363.3,305.2 363.3,302.8 C363.3,297.7 355.95,299.2 355.95,296.5 C355.95,295.75 356.7,295 358.05,295 C359.7,295 360.75,296.2 360.75,296.2 L362.7,294.25 Z M384.15,299.5 L371.85,299.5 L371.85,302.2 L384.15,302.2 L384.15,299.5 Z M384.15,294.1 L371.85,294.1 L371.85,296.8 L384.15,296.8 L384.15,294.1 Z M396.45,288.1 L400.35,288.1 L400.35,285.7 L393.75,285.7 L393.75,313.3 L400.35,313.3 L400.35,310.9 L396.45,310.9 L396.45,288.1 Z M404.55,292.9 L407.55,286.45 L405.6,285.4 L401.85,291.4 L404.55,292.9 Z M428.1,286 L424.8,286 L424.8,294.85 L414.45,294.85 L414.45,286 L411.15,286 L411.15,307 L414.45,307 L414.45,297.85 L424.8,297.85 L424.8,307 L428.1,307 L428.1,286 Z M444.6,307 L441.6,307 L441.6,305.5 C441.6,305.5 439.95,307.3 437.25,307.3 C434.25,307.3 432.15,305.2 432.15,303.1 C432.15,300.7 433.8,299.05 436.35,298.6 L441.6,297.7 C441.6,296.2 440.4,295 438.6,295 C436.05,295 434.85,296.95 434.85,296.95 L432.9,295 C432.9,295 434.85,292.3 438.6,292.3 C442.2,292.3 444.6,294.7 444.6,297.7 L444.6,307 Z M437.7,304.6 C440.1,304.6 441.6,303.1 441.6,300.4 L441.6,300.1 L436.95,300.85 C435.9,301.03 435.15,301.75 435.15,302.8 C435.15,303.7 436.05,304.6 437.7,304.6 Z M451.8,292.6 L448.8,292.6 L448.8,307 L451.8,307 L451.8,299.2 C451.8,296.5 453.3,295 455.55,295 C457.5,295 459,296.5 459,298.6 L459,307 L462,307 L462,298.6 C462,294.7 459.6,292.3 456.15,292.3 C453.45,292.3 451.8,294.1 451.8,294.1 L451.8,292.6 Z M483.15,301 C483.15,302.8 481.65,304.3 478.95,304.3 C475.2,304.3 473.55,301.9 473.55,301.9 L471.45,304 C471.45,304 473.85,307.3 478.95,307.3 C483.75,307.3 486.45,304.6 486.45,301 C486.45,293.2 475.35,296.2 475.35,291.4 C475.35,290.05 476.7,288.7 478.95,288.7 C481.8,288.7 483.15,290.5 483.15,290.5 L485.25,288.4 C485.25,288.4 483.15,285.7 478.95,285.7 C474.6,285.7 472.05,288.25 472.05,291.4 C472.05,299.2 483.15,296.2 483.15,301 Z M501,299.8 C501,297.1 498.9,295 496.5,295 C494.1,295 492,297.1 492,299.8 C492,302.5 494.1,304.6 496.5,304.6 C498.9,304.6 501,302.5 501,299.8 Z M489,299.8 C489,295.75 492.45,292.3 496.5,292.3 C500.55,292.3 504,295.75 504,299.8 C504,303.85 500.55,307.3 496.5,307.3 C492.45,307.3 489,303.85 489,299.8 Z M510.6,286 L507.6,286 L507.6,307 L510.6,307 L510.6,286 Z M526.2,299.8 C526.2,297.1 524.1,295 521.7,295 C519.3,295 517.2,297.1 517.2,299.8 C517.2,302.5 519.3,304.6 521.7,304.6 C524.1,304.6 526.2,302.5 526.2,299.8 Z M514.2,299.8 C514.2,295.75 517.65,292.3 521.7,292.3 C525.75,292.3 529.2,295.75 529.2,299.8 C529.2,303.85 525.75,307.3 521.7,307.3 C517.65,307.3 514.2,303.85 514.2,299.8 Z M534.15,285.4 L531.15,291.85 L533.1,292.9 L536.85,286.9 L534.15,285.4 Z M540.45,303.4 L537.45,309.85 L539.4,310.9 L543.15,304.9 L540.45,303.4 Z M553.95,292.9 L556.95,286.45 L555,285.4 L551.25,291.4 L553.95,292.9 Z M560.55,286 L567.9,286 C573.75,286 578.55,290.8 578.55,296.5 C578.55,302.2 573.75,307 567.9,307 L560.55,307 L560.55,286 Z M567.9,289 L563.85,289 L563.85,304 L567.9,304 C571.95,304 575.25,300.7 575.25,296.5 C575.25,292.3 571.95,289 567.9,289 Z M593.85,307 L590.85,307 L590.85,305.5 C590.85,305.5 589.2,307.3 586.5,307.3 C583.5,307.3 581.4,305.2 581.4,303.1 C581.4,300.7 583.05,299.05 585.6,298.6 L590.85,297.7 C590.85,296.2 589.65,295 587.85,295 C585.3,295 584.1,296.95 584.1,296.95 L582.15,295 C582.15,295 584.1,292.3 587.85,292.3 C591.45,292.3 593.85,294.7 593.85,297.7 L593.85,307 Z M586.95,304.6 C589.35,304.6 590.85,303.1 590.85,300.4 L590.85,300.1 L586.2,300.85 C585.15,301.03 584.4,301.75 584.4,302.8 C584.4,303.7 585.3,304.6 586.95,304.6 Z M606.15,295.15 L606.15,292.3 L605.4,292.3 C602.7,292.3 601.05,294.1 601.05,294.1 L601.05,292.6 L598.05,292.6 L598.05,307 L601.05,307 L601.05,299.2 C601.05,296.5 602.55,295 604.8,295 C605.55,295 606.15,295.15 606.15,295.15 Z M610.35,290.8 C610.35,292 609.75,292.6 608.85,292.6 L607.35,292.6 L607.35,295.3 L610.05,295.3 L610.05,302.8 C610.05,305.8 611.55,307.3 614.25,307.3 C615.45,307.3 616.35,307 616.35,307 L616.35,304.3 C616.35,304.3 615.6,304.6 614.85,304.6 C613.8,304.6 613.05,303.85 613.05,302.77 L613.05,295.3 L616.05,295.3 L616.05,292.6 L613.05,292.6 L613.05,287.8 L610.35,287.8 L610.35,290.8 Z M623.25,286 L620.25,286 L620.25,307 L623.25,307 L623.25,299.2 C623.25,296.5 624.75,295 627,295 C628.95,295 630.45,296.5 630.45,298.6 L630.45,307 L633.45,307 L633.45,298.6 C633.45,294.7 631.05,292.3 627.6,292.3 C624.9,292.3 623.25,294.1 623.25,294.1 L623.25,286 Z M650.85,307 L654.15,307 L662.4,286 L658.95,286 L652.5,302.8 L646.05,286 L642.6,286 L650.85,307 Z M675,307 L672,307 L672,305.5 C672,305.5 670.35,307.3 667.65,307.3 C664.65,307.3 662.55,305.2 662.55,303.1 C662.55,300.7 664.2,299.05 666.75,298.6 L672,297.7 C672,296.2 670.8,295 669,295 C666.45,295 665.25,296.95 665.25,296.95 L663.3,295 C663.3,295 665.25,292.3 669,292.3 C672.6,292.3 675,294.7 675,297.7 L675,307 Z M668.1,304.6 C670.5,304.6 672,303.1 672,300.4 L672,300.1 L667.35,300.85 C666.3,301.03 665.55,301.75 665.55,302.8 C665.55,303.7 666.45,304.6 668.1,304.6 Z M685.35,292.3 C688.2,292.3 690,294.25 690,294.25 L690,286 L693,286 L693,307 L690,307 L690,305.35 C690,305.35 688.2,307.3 685.35,307.3 C681.6,307.3 678.3,304 678.3,299.8 C678.3,295.6 681.6,292.3 685.35,292.3 Z M685.65,304.6 C687.9,304.6 690,302.5 690,299.8 C690,297.1 687.9,295 685.65,295 C683.4,295 681.3,297.1 681.3,299.8 C681.3,302.5 683.4,304.6 685.65,304.6 Z M710.85,300.85 L699.6,300.85 C699.9,302.8 701.7,304.6 704.1,304.6 C706.95,304.6 708.45,302.35 708.45,302.35 L710.4,304.3 C710.4,304.3 708.15,307.3 704.1,307.3 C700.05,307.3 696.6,303.85 696.6,299.65 C696.6,295.6 699.9,292.3 703.95,292.3 C708,292.3 711,295.3 711,299.35 C711,300.25 710.85,300.85 710.85,300.85 Z M703.95,294.85 C701.7,294.85 700.2,296.35 699.72,298.3 L708.06,298.3 C707.7,296.35 706.2,294.85 703.95,294.85 Z M722.4,295.15 L722.4,292.3 L721.65,292.3 C718.95,292.3 717.3,294.1 717.3,294.1 L717.3,292.6 L714.3,292.6 L714.3,307 L717.3,307 L717.3,299.2 C717.3,296.5 718.8,295 721.05,295 C721.8,295 722.4,295.15 722.4,295.15 Z M727.65,285.4 L724.65,291.85 L726.6,292.9 L730.35,286.9 L727.65,285.4 Z M735.75,310.9 L731.85,310.9 L731.85,313.3 L738.45,313.3 L738.45,285.7 L731.85,285.7 L731.85,288.1 L735.75,288.1 L735.75,310.9 Z M743.85,303.4 L740.85,309.85 L742.8,310.9 L746.55,304.9 L743.85,303.4 Z M742.8,294.25 C742.8,295.3 743.7,296.2 744.75,296.2 C745.8,296.2 746.7,295.3 746.7,294.25 C746.7,293.2 745.8,292.3 744.75,292.3 C743.7,292.3 742.8,293.2 742.8,294.25 Z M196.05,363.8 C196.05,367.85 199.5,371.3 203.55,371.3 C207.3,371.3 209.55,368.3 209.55,368.3 L207.6,366.35 C207.6,366.35 206.1,368.6 203.55,368.6 C201.15,368.6 199.05,366.5 199.05,363.8 C199.05,361.1 201.15,359 203.55,359 C206.1,359 207.45,361.1 207.45,361.1 L209.4,359.15 C209.4,359.15 207.3,356.3 203.55,356.3 C199.5,356.3 196.05,359.75 196.05,363.8 Z M223.65,363.8 C223.65,361.1 221.55,359 219.15,359 C216.75,359 214.65,361.1 214.65,363.8 C214.65,366.5 216.75,368.6 219.15,368.6 C221.55,368.6 223.65,366.5 223.65,363.8 Z M211.65,363.8 C211.65,359.75 215.1,356.3 219.15,356.3 C223.2,356.3 226.65,359.75 226.65,363.8 C226.65,367.85 223.2,371.3 219.15,371.3 C215.1,371.3 211.65,367.85 211.65,363.8 Z M232.95,356.6 L229.95,356.6 L229.95,371 L232.95,371 L232.95,363.2 C232.95,360.5 234.45,359 236.7,359 C238.65,359 240.15,360.5 240.15,362.6 L240.15,371 L243.15,371 L243.15,362.6 C243.15,358.7 240.75,356.3 237.3,356.3 C234.6,356.3 232.95,358.1 232.95,358.1 L232.95,356.6 Z M256.5,358.25 C256.5,358.25 255,356.3 251.85,356.3 C248.85,356.3 246.75,358.4 246.75,360.5 C246.75,365.6 254.1,364.1 254.1,366.8 C254.1,367.85 253.35,368.6 251.7,368.6 C249.45,368.6 248.1,366.8 248.1,366.8 L246.15,368.75 C246.15,368.75 247.95,371.3 251.7,371.3 C255,371.3 257.1,369.2 257.1,366.8 C257.1,361.7 249.75,363.2 249.75,360.5 C249.75,359.75 250.5,359 251.85,359 C253.5,359 254.55,360.2 254.55,360.2 L256.5,358.25 Z M262.2,354.8 C262.2,356 261.6,356.6 260.7,356.6 L259.2,356.6 L259.2,359.3 L261.9,359.3 L261.9,366.8 C261.9,369.8 263.4,371.3 266.1,371.3 C267.3,371.3 268.2,371 268.2,371 L268.2,368.3 C268.2,368.3 267.45,368.6 266.7,368.6 C265.65,368.6 264.9,367.85 264.9,366.77 L264.9,359.3 L267.9,359.3 L267.9,356.6 L264.9,356.6 L264.9,351.8 L262.2,351.8 L262.2,354.8 Z M296.4,371 L299.4,371 L299.4,362.6 C299.4,358.4 297.3,356.3 294,356.3 C290.7,356.3 289.05,358.7 289.05,358.7 C289.05,358.7 287.85,356.3 284.7,356.3 C282.3,356.3 280.8,358.1 280.8,358.1 L280.8,356.6 L277.8,356.6 L277.8,371 L280.8,371 L280.8,363.2 C280.8,360.5 282.3,359 284.1,359 C285.9,359 287.1,360.2 287.1,362.6 L287.1,371 L290.1,371 L290.1,363.2 C290.1,360.5 291.6,359 293.4,359 C295.2,359 296.4,360.2 296.4,362.6 L296.4,371 Z M314.7,363.8 C314.7,361.1 312.6,359 310.2,359 C307.8,359 305.7,361.1 305.7,363.8 C305.7,366.5 307.8,368.6 310.2,368.6 C312.6,368.6 314.7,366.5 314.7,363.8 Z M302.7,363.8 C302.7,359.75 306.15,356.3 310.2,356.3 C314.25,356.3 317.7,359.75 317.7,363.8 C317.7,367.85 314.25,371.3 310.2,371.3 C306.15,371.3 302.7,367.85 302.7,363.8 Z M329.1,359.15 L329.1,356.3 L328.35,356.3 C325.65,356.3 324,358.1 324,358.1 L324,356.6 L321,356.6 L321,371 L324,371 L324,363.2 C324,360.5 325.5,359 327.75,359 C328.5,359 329.1,359.15 329.1,359.15 Z M344.85,364.85 L333.6,364.85 C333.9,366.8 335.7,368.6 338.1,368.6 C340.95,368.6 342.45,366.35 342.45,366.35 L344.4,368.3 C344.4,368.3 342.15,371.3 338.1,371.3 C334.05,371.3 330.6,367.85 330.6,363.65 C330.6,359.6 333.9,356.3 337.95,356.3 C342,356.3 345,359.3 345,363.35 C345,364.25 344.85,364.85 344.85,364.85 Z M337.95,358.85 C335.7,358.85 334.2,360.35 333.72,362.3 L342.06,362.3 C341.7,360.35 340.2,358.85 337.95,358.85 Z M363.9,350 L363.9,365.15 L352.2,350 L349.35,350 L349.35,371 L352.65,371 L352.65,355.85 L364.35,371 L367.2,371 L367.2,350 L363.9,350 Z M383.7,371 L380.7,371 L380.7,369.5 C380.7,369.5 379.05,371.3 376.35,371.3 C373.35,371.3 371.25,369.2 371.25,367.1 C371.25,364.7 372.9,363.05 375.45,362.6 L380.7,361.7 C380.7,360.2 379.5,359 377.7,359 C375.15,359 373.95,360.95 373.95,360.95 L372,359 C372,359 373.95,356.3 377.7,356.3 C381.3,356.3 383.7,358.7 383.7,361.7 L383.7,371 Z M376.8,368.6 C379.2,368.6 380.7,367.1 380.7,364.4 L380.7,364.1 L376.05,364.85 C375,365.03 374.25,365.75 374.25,366.8 C374.25,367.7 375.15,368.6 376.8,368.6 Z M406.5,371 L409.5,371 L409.5,362.6 C409.5,358.4 407.4,356.3 404.1,356.3 C400.8,356.3 399.15,358.7 399.15,358.7 C399.15,358.7 397.95,356.3 394.8,356.3 C392.4,356.3 390.9,358.1 390.9,358.1 L390.9,356.6 L387.9,356.6 L387.9,371 L390.9,371 L390.9,363.2 C390.9,360.5 392.4,359 394.2,359 C396,359 397.2,360.2 397.2,362.6 L397.2,371 L400.2,371 L400.2,363.2 C400.2,360.5 401.7,359 403.5,359 C405.3,359 406.5,360.2 406.5,362.6 L406.5,371 Z M427.05,364.85 L415.8,364.85 C416.1,366.8 417.9,368.6 420.3,368.6 C423.15,368.6 424.65,366.35 424.65,366.35 L426.6,368.3 C426.6,368.3 424.35,371.3 420.3,371.3 C416.25,371.3 412.8,367.85 412.8,363.65 C412.8,359.6 416.1,356.3 420.15,356.3 C424.2,356.3 427.2,359.3 427.2,363.35 C427.2,364.25 427.05,364.85 427.05,364.85 Z M420.15,358.85 C417.9,358.85 416.4,360.35 415.92,362.3 L424.26,362.3 C423.9,360.35 422.4,358.85 420.15,358.85 Z M439.65,358.25 C439.65,358.25 438.15,356.3 435,356.3 C432,356.3 429.9,358.4 429.9,360.5 C429.9,365.6 437.25,364.1 437.25,366.8 C437.25,367.85 436.5,368.6 434.85,368.6 C432.6,368.6 431.25,366.8 431.25,366.8 L429.3,368.75 C429.3,368.75 431.1,371.3 434.85,371.3 C438.15,371.3 440.25,369.2 440.25,366.8 C440.25,361.7 432.9,363.2 432.9,360.5 C432.9,359.75 433.65,359 435,359 C436.65,359 437.7,360.2 437.7,360.2 L439.65,358.25 Z M461.1,363.5 L448.8,363.5 L448.8,366.2 L461.1,366.2 L461.1,363.5 Z M461.1,358.1 L448.8,358.1 L448.8,360.8 L461.1,360.8 L461.1,358.1 Z M473.25,356.6 L470.25,356.6 L470.25,371 L473.25,371 L473.25,363.2 C473.25,360.5 474.75,359 477,359 C478.95,359 480.45,360.5 480.45,362.6 L480.45,371 L483.45,371 L483.45,362.6 C483.45,358.7 481.05,356.3 477.6,356.3 C474.9,356.3 473.25,358.1 473.25,358.1 L473.25,356.6 Z M499.2,371 L496.2,371 L496.2,369.5 C496.2,369.5 494.55,371.3 491.85,371.3 C488.85,371.3 486.75,369.2 486.75,367.1 C486.75,364.7 488.4,363.05 490.95,362.6 L496.2,361.7 C496.2,360.2 495,359 493.2,359 C490.65,359 489.45,360.95 489.45,360.95 L487.5,359 C487.5,359 489.45,356.3 493.2,356.3 C496.8,356.3 499.2,358.7 499.2,361.7 L499.2,371 Z M492.3,368.6 C494.7,368.6 496.2,367.1 496.2,364.4 L496.2,364.1 L491.55,364.85 C490.5,365.03 489.75,365.75 489.75,366.8 C489.75,367.7 490.65,368.6 492.3,368.6 Z M522,371 L525,371 L525,362.6 C525,358.4 522.9,356.3 519.6,356.3 C516.3,356.3 514.65,358.7 514.65,358.7 C514.65,358.7 513.45,356.3 510.3,356.3 C507.9,356.3 506.4,358.1 506.4,358.1 L506.4,356.6 L503.4,356.6 L503.4,371 L506.4,371 L506.4,363.2 C506.4,360.5 507.9,359 509.7,359 C511.5,359 512.7,360.2 512.7,362.6 L512.7,371 L515.7,371 L515.7,363.2 C515.7,360.5 517.2,359 519,359 C520.8,359 522,360.2 522,362.6 L522,371 Z M542.55,364.85 L531.3,364.85 C531.6,366.8 533.4,368.6 535.8,368.6 C538.65,368.6 540.15,366.35 540.15,366.35 L542.1,368.3 C542.1,368.3 539.85,371.3 535.8,371.3 C531.75,371.3 528.3,367.85 528.3,363.65 C528.3,359.6 531.6,356.3 535.65,356.3 C539.7,356.3 542.7,359.3 542.7,363.35 C542.7,364.25 542.55,364.85 542.55,364.85 Z M535.65,358.85 C533.4,358.85 531.9,360.35 531.42,362.3 L539.76,362.3 C539.4,360.35 537.9,358.85 535.65,358.85 Z M555.15,358.25 C555.15,358.25 553.65,356.3 550.5,356.3 C547.5,356.3 545.4,358.4 545.4,360.5 C545.4,365.6 552.75,364.1 552.75,366.8 C552.75,367.85 552,368.6 550.35,368.6 C548.1,368.6 546.75,366.8 546.75,366.8 L544.8,368.75 C544.8,368.75 546.6,371.3 550.35,371.3 C553.65,371.3 555.75,369.2 555.75,366.8 C555.75,361.7 548.4,363.2 548.4,360.5 C548.4,359.75 549.15,359 550.5,359 C552.15,359 553.2,360.2 553.2,360.2 L555.15,358.25 Z M562.5,369.35 C562.5,368.3 561.6,367.4 560.55,367.4 C559.5,367.4 558.6,368.3 558.6,369.35 C558.6,370.4 559.5,371.3 560.55,371.3 C561.6,371.3 562.5,370.4 562.5,369.35 Z M573.6,371.3 C570.75,371.3 568.95,369.35 568.95,369.35 L568.95,377.3 L565.95,377.3 L565.95,356.6 L568.95,356.6 L568.95,358.25 C568.95,358.25 570.75,356.3 573.6,356.3 C577.35,356.3 580.65,359.6 580.65,363.8 C580.65,368 577.35,371.3 573.6,371.3 Z M573.3,359 C571.05,359 568.95,361.1 568.95,363.8 C568.95,366.5 571.05,368.6 573.3,368.6 C575.55,368.6 577.65,366.5 577.65,363.8 C577.65,361.1 575.55,359 573.3,359 Z M594.15,371 L597.15,371 L597.15,356.6 L594.15,356.6 L594.15,364.4 C594.15,367.1 592.65,368.6 590.4,368.6 C588.45,368.6 586.95,367.1 586.95,365 L586.95,356.6 L583.95,356.6 L583.95,365 C583.95,368.9 586.35,371.3 589.8,371.3 C592.5,371.3 594.15,369.5 594.15,369.5 L594.15,371 Z M610.65,358.25 C610.65,358.25 609.15,356.3 606,356.3 C603,356.3 600.9,358.4 600.9,360.5 C600.9,365.6 608.25,364.1 608.25,366.8 C608.25,367.85 607.5,368.6 605.85,368.6 C603.6,368.6 602.25,366.8 602.25,366.8 L600.3,368.75 C600.3,368.75 602.1,371.3 605.85,371.3 C609.15,371.3 611.25,369.2 611.25,366.8 C611.25,361.7 603.9,363.2 603.9,360.5 C603.9,359.75 604.65,359 606,359 C607.65,359 608.7,360.2 608.7,360.2 L610.65,358.25 Z M617.85,350 L614.85,350 L614.85,371 L617.85,371 L617.85,363.2 C617.85,360.5 619.35,359 621.6,359 C623.55,359 625.05,360.5 625.05,362.6 L625.05,371 L628.05,371 L628.05,362.6 C628.05,358.7 625.65,356.3 622.2,356.3 C619.5,356.3 617.85,358.1 617.85,358.1 L617.85,350 Z M635.4,363.5 C635.4,356 639.6,350.6 639.6,350.6 L637.35,349.25 C637.35,349.25 632.7,354.8 632.7,363.5 C632.7,372.2 637.35,377.75 637.35,377.75 L639.6,376.4 C639.6,376.4 635.4,371 635.4,363.5 Z M643.8,356.9 L646.8,350.45 L644.85,349.4 L641.1,355.4 L643.8,356.9 Z M650.4,371 L650.4,350 L659.25,350 C663.15,350 666,352.85 666,356.45 C666,361.1 661.8,362.6 661.8,362.6 L666.6,371 L663,371 L658.5,362.9 L653.7,362.9 L653.7,371 L650.4,371 Z M662.7,356.45 C662.7,354.5 661.2,353 659.25,353 L653.7,353 L653.7,359.9 L659.25,359.9 C661.2,359.9 662.7,358.4 662.7,356.45 Z M683.55,371 L683.55,368 L673.35,368 C675.9,363.2 683.55,362.3 683.55,356.15 C683.55,352.55 680.7,349.7 676.5,349.7 C670.95,349.7 669.75,354.5 669.75,354.5 L672.45,355.7 C672.45,355.7 673.35,352.7 676.5,352.7 C678.9,352.7 680.25,354.05 680.25,356.15 C680.25,361.7 669.6,361.4 669.6,371 L683.55,371 Z M697.05,360.8 L686.55,360.8 L686.55,363.5 L697.05,363.5 L697.05,360.8 Z M701.25,350 L708.6,350 C714.45,350 719.25,354.8 719.25,360.5 C719.25,366.2 714.45,371 708.6,371 L701.25,371 L701.25,350 Z M708.6,353 L704.55,353 L704.55,368 L708.6,368 C712.65,368 715.95,364.7 715.95,360.5 C715.95,356.3 712.65,353 708.6,353 Z M736.2,371 L736.2,368 L726,368 C728.55,363.2 736.2,362.3 736.2,356.15 C736.2,352.55 733.35,349.7 729.15,349.7 C723.6,349.7 722.4,354.5 722.4,354.5 L725.1,355.7 C725.1,355.7 726,352.7 729.15,352.7 C731.55,352.7 732.9,354.05 732.9,356.15 C732.9,361.7 722.25,361.4 722.25,371 L736.2,371 Z M741.6,349.4 L738.6,355.85 L740.55,356.9 L744.3,350.9 L741.6,349.4 Z M750,363.5 C750,371 745.8,376.4 745.8,376.4 L748.05,377.75 C748.05,377.75 752.7,372.2 752.7,363.5 C752.7,354.8 748.05,349.25 748.05,349.25 L745.8,350.6 C745.8,350.6 750,356 750,363.5 Z M758.1,367.4 L755.1,373.85 L757.05,374.9 L760.8,368.9 L758.1,367.4 Z M757.05,358.25 C757.05,359.3 757.95,360.2 759,360.2 C760.05,360.2 760.95,359.3 760.95,358.25 C760.95,357.2 760.05,356.3 759,356.3 C757.95,356.3 757.05,357.2 757.05,358.25 Z M208.65,413.7 L199.65,441.3 L195.9,441.3 L204.9,413.7 L208.65,413.7 Z M217.2,413.7 L208.2,441.3 L204.45,441.3 L213.45,413.7 L217.2,413.7 Z M230.55,417.15 L234.15,417.15 L234.15,413.7 L226.65,413.7 L226.65,441.3 L234.15,441.3 L234.15,437.85 L230.55,437.85 L230.55,417.15 Z M239.1,421.8 L242.25,414.9 L239.7,413.4 L235.65,419.85 L239.1,421.8 Z M263.55,414 L259.05,414 L259.05,422.4 L250.05,422.4 L250.05,414 L245.55,414 L245.55,435 L250.05,435 L250.05,426.45 L259.05,426.45 L259.05,435 L263.55,435 L263.55,414 Z M276.15,435 L276.15,433.5 C276.15,433.5 274.65,435.3 272.1,435.3 C269.1,435.3 267.15,433.35 267.15,431.1 C267.15,428.7 268.8,427.02 271.5,426.54 L276.15,425.7 C276.15,424.5 275.25,423.6 273.6,423.6 C271.35,423.6 270.3,425.1 270.3,425.1 L268.05,422.85 C268.05,422.85 270,420 273.9,420 C277.65,420 280.2,422.55 280.2,425.85 L280.2,435 L276.15,435 Z M273.15,432 C274.95,432 276.15,430.8 276.15,428.7 L276.15,428.25 L272.85,428.85 C271.8,429.03 271.2,429.6 271.2,430.5 C271.2,431.4 271.8,432 273.15,432 Z M288.15,420.3 L284.1,420.3 L284.1,435 L288.15,435 L288.15,427.35 C288.15,425.1 289.35,423.9 291.15,423.9 C292.8,423.9 294,425.1 294,426.9 L294,435 L298.05,435 L298.05,426.45 C298.05,422.4 295.65,420 292.35,420 C289.65,420 288.15,422.1 288.15,422.1 L288.15,420.3 Z M318.15,428.85 C318.15,430.35 316.95,431.55 314.7,431.55 C311.55,431.55 309.75,429.3 309.75,429.3 L307.05,432 C307.05,432 309.75,435.45 315,435.45 C320.1,435.45 322.95,432.6 322.95,428.85 C322.95,421.35 312.6,423.6 312.6,419.7 C312.6,418.5 313.65,417.45 315.45,417.45 C317.85,417.45 319.35,419.25 319.35,419.25 L322.05,416.4 C322.05,416.4 319.8,413.55 315.15,413.55 C310.65,413.55 307.8,416.4 307.8,419.7 C307.8,427.2 318.15,424.95 318.15,428.85 Z M329.4,427.65 C329.4,429.9 331.05,431.55 333,431.55 C334.95,431.55 336.6,429.9 336.6,427.65 C336.6,425.4 334.95,423.75 333,423.75 C331.05,423.75 329.4,425.4 329.4,427.65 Z M340.8,427.65 C340.8,431.7 337.2,435.3 333,435.3 C328.8,435.3 325.2,431.7 325.2,427.65 C325.2,423.6 328.8,420 333,420 C337.2,420 340.8,423.6 340.8,427.65 Z M348,414 L343.95,414 L343.95,435 L348,435 L348,414 Z M355.35,427.65 C355.35,429.9 357,431.55 358.95,431.55 C360.9,431.55 362.55,429.9 362.55,427.65 C362.55,425.4 360.9,423.75 358.95,423.75 C357,423.75 355.35,425.4 355.35,427.65 Z M366.75,427.65 C366.75,431.7 363.15,435.3 358.95,435.3 C354.75,435.3 351.15,431.7 351.15,427.65 C351.15,423.6 354.75,420 358.95,420 C363.15,420 366.75,423.6 366.75,427.65 Z M371.7,413.4 L368.55,420.3 L371.1,421.8 L375.15,415.35 L371.7,413.4 Z M378.9,430.65 L375.6,437.55 L378.3,438.9 L382.2,432.6 L378.9,430.65 Z M393.75,421.8 L396.9,414.9 L394.35,413.4 L390.3,419.85 L393.75,421.8 Z M400.2,414 L408,414 C414.15,414 418.8,418.65 418.8,424.5 C418.8,430.35 414.15,435 408,435 L400.2,435 L400.2,414 Z M408,418.05 L404.7,418.05 L404.7,430.95 L408,430.95 C411.45,430.95 414.3,428.1 414.3,424.5 C414.3,420.9 411.6,418.05 408,418.05 Z M430.2,435 L430.2,433.5 C430.2,433.5 428.7,435.3 426.15,435.3 C423.15,435.3 421.2,433.35 421.2,431.1 C421.2,428.7 422.85,427.02 425.55,426.54 L430.2,425.7 C430.2,424.5 429.3,423.6 427.65,423.6 C425.4,423.6 424.35,425.1 424.35,425.1 L422.1,422.85 C422.1,422.85 424.05,420 427.95,420 C431.7,420 434.25,422.55 434.25,425.85 L434.25,435 L430.2,435 Z M427.2,432 C429,432 430.2,430.8 430.2,428.7 L430.2,428.25 L426.9,428.85 C425.85,429.03 425.25,429.6 425.25,430.5 C425.25,431.4 425.85,432 427.2,432 Z M447,420.15 L446.4,420.15 C443.7,420.15 442.2,422.1 442.2,422.1 L442.2,420.3 L438.15,420.3 L438.15,435 L442.2,435 L442.2,427.95 C442.2,425.4 443.55,424.05 445.65,424.05 C446.55,424.05 447,424.2 447,424.2 L447,420.15 Z M451.05,418.65 C451.05,419.85 450.3,420.6 449.4,420.6 L448.05,420.6 L448.05,424.2 L450.6,424.2 L450.6,430.2 C450.6,433.65 452.25,435.3 455.25,435.3 C456.75,435.3 457.95,434.85 457.95,434.85 L457.95,431.4 C457.95,431.4 457.35,431.7 456.45,431.7 C455.4,431.7 454.65,430.95 454.65,430.05 L454.65,424.2 L457.65,424.2 L457.65,420.6 L454.65,420.6 L454.65,415.95 L451.05,415.95 L451.05,418.65 Z M465.6,414 L461.55,414 L461.55,435 L465.6,435 L465.6,427.35 C465.6,425.1 466.8,423.9 468.6,423.9 C470.25,423.9 471.45,425.1 471.45,426.9 L471.45,435 L475.5,435 L475.5,426.45 C475.5,422.4 473.1,420 469.8,420 C467.1,420 465.6,422.1 465.6,422.1 L465.6,414 Z M492.15,435 L484.35,414 L489.15,414 L494.55,429.6 L499.95,414 L504.75,414 L496.95,435 L492.15,435 Z M513.45,435 L513.45,433.5 C513.45,433.5 511.95,435.3 509.4,435.3 C506.4,435.3 504.45,433.35 504.45,431.1 C504.45,428.7 506.1,427.02 508.8,426.54 L513.45,425.7 C513.45,424.5 512.55,423.6 510.9,423.6 C508.65,423.6 507.6,425.1 507.6,425.1 L505.35,422.85 C505.35,422.85 507.3,420 511.2,420 C514.95,420 517.5,422.55 517.5,425.85 L517.5,435 L513.45,435 Z M510.45,432 C512.25,432 513.45,430.8 513.45,428.7 L513.45,428.25 L510.15,428.85 C509.1,429.03 508.5,429.6 508.5,430.5 C508.5,431.4 509.1,432 510.45,432 Z M527.55,420 C530.4,420 531.9,422.1 531.9,422.1 L531.9,414 L535.95,414 L535.95,435 L531.9,435 L531.9,433.2 C531.9,433.2 530.4,435.3 527.55,435.3 C523.8,435.3 520.5,432 520.5,427.65 C520.5,423.3 523.8,420 527.55,420 Z M528.3,431.7 C530.25,431.7 531.9,430.05 531.9,427.65 C531.9,425.25 530.25,423.6 528.3,423.6 C526.35,423.6 524.7,425.25 524.7,427.65 C524.7,430.05 526.35,431.7 528.3,431.7 Z M553.95,429 L543.3,429 C543.6,430.5 544.95,431.85 547.2,431.85 C549.75,431.85 551.1,430.05 551.1,430.05 L553.2,432.75 C553.2,432.75 550.95,435.3 546.9,435.3 C542.55,435.3 539.1,431.85 539.1,427.65 C539.1,423.45 542.55,420 546.75,420 C550.95,420 554.1,423.15 554.1,427.35 C554.1,428.4 553.95,429 553.95,429 Z M546.75,423.45 C544.95,423.45 543.75,424.65 543.3,426.15 L550.05,426.15 C549.75,424.65 548.55,423.45 546.75,423.45 Z M565.95,420.15 L565.35,420.15 C562.65,420.15 561.15,422.1 561.15,422.1 L561.15,420.3 L557.1,420.3 L557.1,435 L561.15,435 L561.15,427.95 C561.15,425.4 562.5,424.05 564.6,424.05 C565.5,424.05 565.95,424.2 565.95,424.2 L565.95,420.15 Z M571.35,413.4 L568.2,420.3 L570.75,421.8 L574.8,415.35 L571.35,413.4 Z M578.55,430.65 L575.25,437.55 L577.95,438.9 L581.85,432.6 L578.55,430.65 Z M593.4,421.8 L596.55,414.9 L594,413.4 L589.95,419.85 L593.4,421.8 Z M599.85,435 L599.85,414 L609.15,414 C613.35,414 616.35,417.06 616.35,420.9 C616.35,425.4 612.6,427.05 612.6,427.05 L617.1,435 L612.3,435 L608.25,427.65 L604.35,427.65 L604.35,435 L599.85,435 Z M611.85,420.9 C611.85,419.25 610.65,418.05 609,418.05 L604.35,418.05 L604.35,423.6 L609,423.6 C610.65,423.6 611.85,422.4 611.85,420.9 Z M634.2,435 L634.2,430.8 L625.2,430.8 C627.6,427.05 634.2,426 634.2,420.3 C634.2,416.55 631.2,413.55 626.85,413.55 C621,413.55 619.5,418.5 619.5,418.5 L623.25,420.3 C623.25,420.3 624,417.75 626.55,417.75 C628.5,417.75 629.55,418.8 629.55,420.45 C629.55,425.1 619.5,425.1 619.5,435 L634.2,435 Z M647.7,424.35 L636.9,424.35 L636.9,427.95 L647.7,427.95 L647.7,424.35 Z M651.45,414 L659.25,414 C665.4,414 670.05,418.65 670.05,424.5 C670.05,430.35 665.4,435 659.25,435 L651.45,435 L651.45,414 Z M659.25,418.05 L655.95,418.05 L655.95,430.95 L659.25,430.95 C662.7,430.95 665.55,428.1 665.55,424.5 C665.55,420.9 662.85,418.05 659.25,418.05 Z M687.3,435 L687.3,430.8 L678.3,430.8 C680.7,427.05 687.3,426 687.3,420.3 C687.3,416.55 684.3,413.55 679.95,413.55 C674.1,413.55 672.6,418.5 672.6,418.5 L676.35,420.3 C676.35,420.3 677.1,417.75 679.65,417.75 C681.6,417.75 682.65,418.8 682.65,420.45 C682.65,425.1 672.6,425.1 672.6,435 L687.3,435 Z M692.7,413.4 L689.55,420.3 L692.1,421.8 L696.15,415.35 L692.7,413.4 Z M701.25,437.85 L697.65,437.85 L697.65,441.3 L705.15,441.3 L705.15,413.7 L697.65,413.7 L697.65,417.15 L701.25,417.15 L701.25,437.85 Z M196.05,460.88 C196.05,464.24 198.93,467.3 202.47,467.3 C206.22,467.3 208.77,464.3 208.77,464.3 L207.18,462.35 C207.18,462.35 205.41,464.6 202.86,464.6 C200.79,464.6 199.11,462.89 199.11,460.73 C199.11,457.55 201.81,455 204.51,455 C207.06,455 208.32,456.98 208.32,456.98 L210.54,455.15 C210.54,455.15 208.56,452.3 204.81,452.3 C200.1,452.3 196.05,456.47 196.05,460.88 Z M218.7,464.6 C221.4,464.6 223.95,461.9 223.95,459.14 C223.95,456.77 222.24,455 219.93,455 C217.35,455 214.71,457.49 214.71,460.49 C214.71,462.86 216.45,464.6 218.7,464.6 Z M211.65,460.58 C211.65,456.38 215.7,452.3 220.2,452.3 C224.1,452.3 227.01,455.39 227.01,459.05 C227.01,463.46 222.69,467.3 218.43,467.3 C214.5,467.3 211.65,464.21 211.65,460.58 Z M234.66,452.6 L231.66,452.6 L228.6,467 L231.6,467 L233.22,459.32 C233.79,456.62 235.53,455 237.78,455 C239.46,455 240.66,456.11 240.66,457.79 C240.66,458.06 240.63,458.33 240.57,458.6 L238.8,467 L241.8,467 L243.57,458.6 C243.69,458.06 243.75,457.55 243.75,457.07 C243.75,454.07 241.62,452.3 238.65,452.3 C235.95,452.3 234.33,454.1 234.33,454.1 L234.66,452.6 Z M257.85,454.25 C257.85,454.25 256.32,452.3 253.17,452.3 C249.6,452.3 247.5,454.7 247.5,457.07 C247.5,460.91 253.65,460.55 253.65,462.71 C253.65,463.91 252.63,464.6 250.92,464.6 C248.67,464.6 247.53,462.86 247.53,462.86 L245.25,464.75 C245.25,464.75 246.96,467.3 250.71,467.3 C254.43,467.3 256.71,464.99 256.71,462.23 C256.71,458.39 250.59,458.78 250.59,456.59 C250.59,455.78 251.43,455 252.99,455 C254.64,455 255.57,456.14 255.57,456.14 L257.85,454.25 Z M266.55,464.6 C269.25,464.6 271.8,461.9 271.8,459.14 C271.8,456.77 270.09,455 267.78,455 C265.2,455 262.56,457.49 262.56,460.49 C262.56,462.86 264.3,464.6 266.55,464.6 Z M259.5,460.58 C259.5,456.38 263.55,452.3 268.05,452.3 C271.95,452.3 274.86,455.39 274.86,459.05 C274.86,463.46 270.54,467.3 266.28,467.3 C262.35,467.3 259.5,464.21 259.5,460.58 Z M284.19,446 L281.19,446 L276.75,467 L279.75,467 L284.19,446 Z M298.89,460.85 L287.61,460.85 C287.7,462.86 289.2,464.6 291.45,464.6 C294.3,464.6 296.13,462.29 296.13,462.29 L297.72,464.3 C297.72,464.3 295.26,467.3 291.21,467.3 C287.67,467.3 284.73,464.3 284.73,460.85 C284.73,456.11 288.78,452.3 293.37,452.3 C296.85,452.3 299.55,454.55 299.55,457.76 C299.55,459.11 298.92,460.94 298.89,460.85 Z M293.19,454.85 C291.06,454.85 289.05,456.32 288.15,458.3 L296.64,458.3 C296.73,456.35 295.47,454.85 293.19,454.85 Z M304.89,465.17 C304.89,464.21 304.14,463.4 303.12,463.4 C302.04,463.4 300.9,464.39 300.9,465.5 C300.9,466.46 301.62,467.3 302.67,467.3 C303.84,467.3 304.89,466.25 304.89,465.17 Z M315.69,446 L312.69,446 L308.25,467 L311.25,467 L315.69,446 Z M323.25,464.6 C325.95,464.6 328.5,461.9 328.5,459.14 C328.5,456.77 326.79,455 324.48,455 C321.9,455 319.26,457.49 319.26,460.49 C319.26,462.86 321,464.6 323.25,464.6 Z M316.2,460.58 C316.2,456.38 320.25,452.3 324.75,452.3 C328.65,452.3 331.56,455.39 331.56,459.05 C331.56,463.46 327.24,467.3 322.98,467.3 C319.05,467.3 316.2,464.21 316.2,460.58 Z M343.53,466.13 L343.74,465.02 C343.74,465.02 342.06,466.7 339.36,466.7 C336.24,466.7 333.66,463.91 333.66,460.64 C333.66,455.87 337.71,452.3 341.76,452.3 C344.46,452.3 346.05,454.22 346.05,454.22 L346.41,452.6 L349.41,452.6 L346.53,466.1 C345.66,470.15 342.45,473.3 338.4,473.3 C334.05,473.3 331.98,470.3 331.98,470.3 L334.26,468.41 C334.26,468.41 335.73,470.6 338.58,470.6 C340.95,470.6 342.99,468.8 343.53,466.13 Z M341.7,455 C339.03,455 336.72,457.64 336.72,460.37 C336.72,462.41 338.22,464 340.05,464 C342.39,464 345.06,461.51 345.06,458.48 C345.06,456.47 343.5,455 341.7,455 Z M355.29,459.5 C354.96,461.06 354.81,462.53 354.81,463.88 C354.81,469.01 356.73,472.4 356.73,472.4 L354.21,473.75 C354.21,473.75 352.05,470 352.05,464.27 C352.05,452.84 360.3,445.19 360.27,445.25 L362.25,446.63 C362.25,446.63 356.88,452 355.29,459.5 Z M366.81,452.6 L366.48,454.1 C366.48,454.1 368.1,452.3 370.8,452.3 C373.77,452.3 375.9,454.07 375.9,457.07 C375.9,457.55 375.84,458.06 375.72,458.6 L373.95,467 L370.95,467 L372.72,458.6 C372.78,458.33 372.81,458.06 372.81,457.79 C372.81,456.11 371.61,455 369.93,455 C367.68,455 365.94,456.62 365.37,459.32 L363.75,467 L360.75,467 L363.81,452.6 L366.81,452.6 Z M385.2,464.6 C387.69,464.6 390.6,461.9 390.6,458.72 C390.6,456.53 388.92,455 386.97,455 C384.42,455 381.66,457.64 381.66,460.82 C381.66,462.98 383.25,464.6 385.2,464.6 Z M387.09,452.3 C389.94,452.3 391.62,454.4 391.62,454.4 L392.01,452.6 L395.01,452.6 L391.95,467 L388.95,467 L389.25,465.47 C389.25,465.47 387.45,467.3 384.6,467.3 C381.36,467.3 378.6,464.51 378.6,461.12 C378.6,456.17 382.86,452.3 387.09,452.3 Z M410.1,454.7 C410.1,454.7 410.1,454.7 410.1,454.7 L410.1,454.7 Z M410.1,454.7 C410.100672,454.699133 411.960596,452.3 415.26,452.3 C418.02,452.3 419.88,453.77 419.88,456.74 C419.88,457.31 419.82,457.91 419.67,458.6 L417.9,467 L414.9,467 L416.67,458.6 C416.76,458.18 416.79,457.79 416.79,457.43 C416.79,455.81 415.86,455 414.39,455 C412.59,455 410.82,456.5 410.25,459.2 L408.6,467 L405.6,467 L407.37,458.6 C407.46,458.18 407.49,457.79 407.49,457.43 C407.49,455.81 406.56,455 405.09,455 C403.29,455 401.52,456.5 400.95,459.2 L399.3,467 L396.3,467 L399.36,452.6 L402.36,452.6 L402.03,454.1 C402.03,454.1 403.56,452.3 405.96,452.3 C409.10983,452.3 410.099893,454.699742 410.1,454.7 L410.1,454.7 Z M436.74,460.85 L425.46,460.85 C425.55,462.86 427.05,464.6 429.3,464.6 C432.15,464.6 433.98,462.29 433.98,462.29 L435.57,464.3 C435.57,464.3 433.11,467.3 429.06,467.3 C425.52,467.3 422.58,464.3 422.58,460.85 C422.58,456.11 426.63,452.3 431.22,452.3 C434.7,452.3 437.4,454.55 437.4,457.76 C437.4,459.11 436.77,460.94 436.74,460.85 Z M431.04,454.85 C428.91,454.85 426.9,456.32 426,458.3 L434.49,458.3 C434.58,456.35 433.32,454.85 431.04,454.85 Z M450.75,454.25 L448.47,456.14 C448.47,456.14 447.54,455 445.89,455 C444.33,455 443.49,455.78 443.49,456.59 C443.49,458.78 449.61,458.39 449.61,462.23 C449.61,464.99 447.33,467.3 443.61,467.3 C439.86,467.3 438.15,464.75 438.15,464.75 L440.43,462.86 C440.43,462.86 441.57,464.6 443.82,464.6 C445.53,464.6 446.55,463.91 446.55,462.71 C446.55,460.55 440.4,460.91 440.4,457.07 C440.4,454.7 442.5,452.3 446.07,452.3 C449.22,452.3 450.75,454.25 450.75,454.25 Z M456.69,459.5 C457.02,457.97 457.14,456.5 457.14,455.15 C457.14,450.02 455.22,446.6 455.22,446.6 L457.77,445.25 C457.77,445.25 459.93,449.03 459.93,454.76 C459.93,466.19 451.65,473.81 451.71,473.75 L449.73,472.37 C449.73,472.37 455.1,467 456.69,459.5 Z M468.78,454.07 C468.78,453.11 468.03,452.3 467.01,452.3 C465.93,452.3 464.79,453.29 464.79,454.4 C464.79,455.36 465.51,456.2 466.56,456.2 C467.73,456.2 468.78,455.15 468.78,454.07 Z M463.83,463.34 L466.32,464.9 L461.31,470.9 L459.54,469.82 L463.83,463.34 Z" id="const-names-=-[‘Han" fill="#545E6F"></path>
            <text id="MUTABLE-BY-DESIGN" font-family="TTNorms-Bold, TT Norms" font-size="24" font-weight="bold" fill="#FFFFFF">
                <tspan x="513.5" y="183">MUTABLE BY DESIGN</tspan>
            </text>
        </g>
    </g>
</svg>