<?xml version="1.0" encoding="UTF-8"?>
<svg width="1280px" height="720px" viewBox="0 0 1280 720" version="1.1" xmlns="http://www.w3.org/2000/svg" xmlns:xlink="http://www.w3.org/1999/xlink" style="background: #FFFFFF;">
    <!-- Generator: Sketch 47.1 (45422) - http://www.bohemiancoding.com/sketch -->
    <title>effects-without-dispatch copy 2</title>
    <desc>Created with Sketch.</desc>
    <defs></defs>
    <g id="Page-1" stroke="none" stroke-width="1" fill="none" fill-rule="evenodd">
        <g id="effects-without-dispatch-copy-2">
            <g id="Group" transform="translate(125.000000, 145.000000)">
                <rect id="Rectangle-7" fill="#F4F6F8" x="0" y="31" width="1030" height="392" rx="15"></rect>
                <path d="M15,0 L1015,0 L1015,1.77635684e-15 C1023.28427,5.91178485e-14 1030,6.71572875 1030,15 L1030,58 L0,58 L0,15 L-1.77635684e-15,15 C-2.79088747e-15,6.71572875 6.71572875,-2.54560899e-16 15,-1.77635684e-15 Z" id="Rectangle" fill="#6DB0DC"></path>
            </g>
            <path d="M196.05,301.8 C196.05,305.85 199.5,309.3 203.55,309.3 C207.3,309.3 209.55,306.3 209.55,306.3 L207.6,304.35 C207.6,304.35 206.1,306.6 203.55,306.6 C201.15,306.6 199.05,304.5 199.05,301.8 C199.05,299.1 201.15,297 203.55,297 C206.1,297 207.45,299.1 207.45,299.1 L209.4,297.15 C209.4,297.15 207.3,294.3 203.55,294.3 C199.5,294.3 196.05,297.75 196.05,301.8 Z M223.65,301.8 C223.65,299.1 221.55,297 219.15,297 C216.75,297 214.65,299.1 214.65,301.8 C214.65,304.5 216.75,306.6 219.15,306.6 C221.55,306.6 223.65,304.5 223.65,301.8 Z M211.65,301.8 C211.65,297.75 215.1,294.3 219.15,294.3 C223.2,294.3 226.65,297.75 226.65,301.8 C226.65,305.85 223.2,309.3 219.15,309.3 C215.1,309.3 211.65,305.85 211.65,301.8 Z M232.95,294.6 L229.95,294.6 L229.95,309 L232.95,309 L232.95,301.2 C232.95,298.5 234.45,297 236.7,297 C238.65,297 240.15,298.5 240.15,300.6 L240.15,309 L243.15,309 L243.15,300.6 C243.15,296.7 240.75,294.3 237.3,294.3 C234.6,294.3 232.95,296.1 232.95,296.1 L232.95,294.6 Z M256.5,296.25 C256.5,296.25 255,294.3 251.85,294.3 C248.85,294.3 246.75,296.4 246.75,298.5 C246.75,303.6 254.1,302.1 254.1,304.8 C254.1,305.85 253.35,306.6 251.7,306.6 C249.45,306.6 248.1,304.8 248.1,304.8 L246.15,306.75 C246.15,306.75 247.95,309.3 251.7,309.3 C255,309.3 257.1,307.2 257.1,304.8 C257.1,299.7 249.75,301.2 249.75,298.5 C249.75,297.75 250.5,297 251.85,297 C253.5,297 254.55,298.2 254.55,298.2 L256.5,296.25 Z M262.2,292.8 C262.2,294 261.6,294.6 260.7,294.6 L259.2,294.6 L259.2,297.3 L261.9,297.3 L261.9,304.8 C261.9,307.8 263.4,309.3 266.1,309.3 C267.3,309.3 268.2,309 268.2,309 L268.2,306.3 C268.2,306.3 267.45,306.6 266.7,306.6 C265.65,306.6 264.9,305.85 264.9,304.77 L264.9,297.3 L267.9,297.3 L267.9,294.6 L264.9,294.6 L264.9,289.8 L262.2,289.8 L262.2,292.8 Z M276.9,301.8 C276.9,305.85 280.35,309.3 284.4,309.3 C288.15,309.3 290.4,306.3 290.4,306.3 L288.45,304.35 C288.45,304.35 286.95,306.6 284.4,306.6 C282,306.6 279.9,304.5 279.9,301.8 C279.9,299.1 282,297 284.4,297 C286.95,297 288.3,299.1 288.3,299.1 L290.25,297.15 C290.25,297.15 288.15,294.3 284.4,294.3 C280.35,294.3 276.9,297.75 276.9,301.8 Z M296.7,288 L293.7,288 L293.7,309 L296.7,309 L296.7,301.2 C296.7,298.5 298.2,297 300.45,297 C302.4,297 303.9,298.5 303.9,300.6 L303.9,309 L306.9,309 L306.9,300.6 C306.9,296.7 304.5,294.3 301.05,294.3 C298.35,294.3 296.7,296.1 296.7,296.1 L296.7,288 Z M322.65,309 L319.65,309 L319.65,307.5 C319.65,307.5 318,309.3 315.3,309.3 C312.3,309.3 310.2,307.2 310.2,305.1 C310.2,302.7 311.85,301.05 314.4,300.6 L319.65,299.7 C319.65,298.2 318.45,297 316.65,297 C314.1,297 312.9,298.95 312.9,298.95 L310.95,297 C310.95,297 312.9,294.3 316.65,294.3 C320.25,294.3 322.65,296.7 322.65,299.7 L322.65,309 Z M315.75,306.6 C318.15,306.6 319.65,305.1 319.65,302.4 L319.65,302.1 L315,302.85 C313.95,303.03 313.2,303.75 313.2,304.8 C313.2,305.7 314.1,306.6 315.75,306.6 Z M334.95,297.15 L334.95,294.3 L334.2,294.3 C331.5,294.3 329.85,296.1 329.85,296.1 L329.85,294.6 L326.85,294.6 L326.85,309 L329.85,309 L329.85,301.2 C329.85,298.5 331.35,297 333.6,297 C334.35,297 334.95,297.15 334.95,297.15 Z M348.9,309 L345.9,309 L345.9,307.5 C345.9,307.5 344.25,309.3 341.55,309.3 C338.55,309.3 336.45,307.2 336.45,305.1 C336.45,302.7 338.1,301.05 340.65,300.6 L345.9,299.7 C345.9,298.2 344.7,297 342.9,297 C340.35,297 339.15,298.95 339.15,298.95 L337.2,297 C337.2,297 339.15,294.3 342.9,294.3 C346.5,294.3 348.9,296.7 348.9,299.7 L348.9,309 Z M342,306.6 C344.4,306.6 345.9,305.1 345.9,302.4 L345.9,302.1 L341.25,302.85 C340.2,303.03 339.45,303.75 339.45,304.8 C339.45,305.7 340.35,306.6 342,306.6 Z M363.75,304.35 C363.75,304.35 363.75,304.35 363.749999,304.350001 L363.75,304.35 Z M363.75,304.35 L365.7,306.3 C365.7,306.3 363.45,309.3 359.7,309.3 C355.65,309.3 352.2,305.85 352.2,301.8 C352.2,297.75 355.65,294.3 359.7,294.3 C363.45,294.3 365.55,297.15 365.55,297.15 L363.6,299.1 C363.6,299.1 362.25,297 359.7,297 C357.3,297 355.2,299.1 355.2,301.8 C355.2,304.5 357.3,306.6 359.7,306.6 C362.248829,306.6 363.748623,304.352065 363.749999,304.350001 L363.75,304.35 Z M370.5,292.8 C370.5,294 369.9,294.6 369,294.6 L367.5,294.6 L367.5,297.3 L370.2,297.3 L370.2,304.8 C370.2,307.8 371.7,309.3 374.4,309.3 C375.6,309.3 376.5,309 376.5,309 L376.5,306.3 C376.5,306.3 375.75,306.6 375,306.6 C373.95,306.6 373.2,305.85 373.2,304.77 L373.2,297.3 L376.2,297.3 L376.2,294.6 L373.2,294.6 L373.2,289.8 L370.5,289.8 L370.5,292.8 Z M392.85,302.85 L381.6,302.85 C381.9,304.8 383.7,306.6 386.1,306.6 C388.95,306.6 390.45,304.35 390.45,304.35 L392.4,306.3 C392.4,306.3 390.15,309.3 386.1,309.3 C382.05,309.3 378.6,305.85 378.6,301.65 C378.6,297.6 381.9,294.3 385.95,294.3 C390,294.3 393,297.3 393,301.35 C393,302.25 392.85,302.85 392.85,302.85 Z M385.95,296.85 C383.7,296.85 382.2,298.35 381.72,300.3 L390.06,300.3 C389.7,298.35 388.2,296.85 385.95,296.85 Z M404.4,297.15 L404.4,294.3 L403.65,294.3 C400.95,294.3 399.3,296.1 399.3,296.1 L399.3,294.6 L396.3,294.6 L396.3,309 L399.3,309 L399.3,301.2 C399.3,298.5 400.8,297 403.05,297 C403.8,297 404.4,297.15 404.4,297.15 Z M424.35,301.5 L412.05,301.5 L412.05,304.2 L424.35,304.2 L424.35,301.5 Z M424.35,296.1 L412.05,296.1 L412.05,298.8 L424.35,298.8 L424.35,296.1 Z M433.35,302.7 C434.55,302.7 435.15,303.3 435.15,304.5 L435.15,310.95 C435.15,313.65 436.8,315.3 439.8,315.3 L441.45,315.3 L441.45,312.9 L439.8,312.9 C438.6,312.9 437.85,312.15 437.85,310.95 L437.85,304.5 C437.85,301.8 436.2,301.5 436.23,301.5 C436.2,301.5 437.85,301.2 437.85,298.5 L437.85,292.05 C437.85,290.85 438.6,290.1 439.8,290.1 L441.45,290.1 L441.45,287.7 L439.8,287.7 C436.8,287.7 435.15,289.35 435.15,292.05 L435.15,298.5 C435.15,299.7 434.55,300.3 433.35,300.3 L433.35,302.7 Z M453.3,294.6 L450.3,294.6 L450.3,309 L453.3,309 L453.3,301.2 C453.3,298.5 454.8,297 457.05,297 C459,297 460.5,298.5 460.5,300.6 L460.5,309 L463.5,309 L463.5,300.6 C463.5,296.7 461.1,294.3 457.65,294.3 C454.95,294.3 453.3,296.1 453.3,296.1 L453.3,294.6 Z M479.25,309 L476.25,309 L476.25,307.5 C476.25,307.5 474.6,309.3 471.9,309.3 C468.9,309.3 466.8,307.2 466.8,305.1 C466.8,302.7 468.45,301.05 471,300.6 L476.25,299.7 C476.25,298.2 475.05,297 473.25,297 C470.7,297 469.5,298.95 469.5,298.95 L467.55,297 C467.55,297 469.5,294.3 473.25,294.3 C476.85,294.3 479.25,296.7 479.25,299.7 L479.25,309 Z M472.35,306.6 C474.75,306.6 476.25,305.1 476.25,302.4 L476.25,302.1 L471.6,302.85 C470.55,303.03 469.8,303.75 469.8,304.8 C469.8,305.7 470.7,306.6 472.35,306.6 Z M502.05,309 L505.05,309 L505.05,300.6 C505.05,296.4 502.95,294.3 499.65,294.3 C496.35,294.3 494.7,296.7 494.7,296.7 C494.7,296.7 493.5,294.3 490.35,294.3 C487.95,294.3 486.45,296.1 486.45,296.1 L486.45,294.6 L483.45,294.6 L483.45,309 L486.45,309 L486.45,301.2 C486.45,298.5 487.95,297 489.75,297 C491.55,297 492.75,298.2 492.75,300.6 L492.75,309 L495.75,309 L495.75,301.2 C495.75,298.5 497.25,297 499.05,297 C500.85,297 502.05,298.2 502.05,300.6 L502.05,309 Z M522.6,302.85 L511.35,302.85 C511.65,304.8 513.45,306.6 515.85,306.6 C518.7,306.6 520.2,304.35 520.2,304.35 L522.15,306.3 C522.15,306.3 519.9,309.3 515.85,309.3 C511.8,309.3 508.35,305.85 508.35,301.65 C508.35,297.6 511.65,294.3 515.7,294.3 C519.75,294.3 522.75,297.3 522.75,301.35 C522.75,302.25 522.6,302.85 522.6,302.85 Z M515.7,296.85 C513.45,296.85 511.95,298.35 511.47,300.3 L519.81,300.3 C519.45,298.35 517.95,296.85 515.7,296.85 Z M525.6,307.35 C525.6,308.4 526.5,309.3 527.55,309.3 C528.6,309.3 529.5,308.4 529.5,307.35 C529.5,306.3 528.6,305.4 527.55,305.4 C526.5,305.4 525.6,306.3 525.6,307.35 Z M525.6,296.25 C525.6,297.3 526.5,298.2 527.55,298.2 C528.6,298.2 529.5,297.3 529.5,296.25 C529.5,295.2 528.6,294.3 527.55,294.3 C526.5,294.3 525.6,295.2 525.6,296.25 Z M540.3,294.9 L543.3,288.45 L541.35,287.4 L537.6,293.4 L540.3,294.9 Z M563.85,288 L560.55,288 L560.55,296.85 L550.2,296.85 L550.2,288 L546.9,288 L546.9,309 L550.2,309 L550.2,299.85 L560.55,299.85 L560.55,309 L563.85,309 L563.85,288 Z M580.35,309 L577.35,309 L577.35,307.5 C577.35,307.5 575.7,309.3 573,309.3 C570,309.3 567.9,307.2 567.9,305.1 C567.9,302.7 569.55,301.05 572.1,300.6 L577.35,299.7 C577.35,298.2 576.15,297 574.35,297 C571.8,297 570.6,298.95 570.6,298.95 L568.65,297 C568.65,297 570.6,294.3 574.35,294.3 C577.95,294.3 580.35,296.7 580.35,299.7 L580.35,309 Z M573.45,306.6 C575.85,306.6 577.35,305.1 577.35,302.4 L577.35,302.1 L572.7,302.85 C571.65,303.03 570.9,303.75 570.9,304.8 C570.9,305.7 571.8,306.6 573.45,306.6 Z M587.55,294.6 L584.55,294.6 L584.55,309 L587.55,309 L587.55,301.2 C587.55,298.5 589.05,297 591.3,297 C593.25,297 594.75,298.5 594.75,300.6 L594.75,309 L597.75,309 L597.75,300.6 C597.75,296.7 595.35,294.3 591.9,294.3 C589.2,294.3 587.55,296.1 587.55,296.1 L587.55,294.6 Z M618.9,303 C618.9,304.8 617.4,306.3 614.7,306.3 C610.95,306.3 609.3,303.9 609.3,303.9 L607.2,306 C607.2,306 609.6,309.3 614.7,309.3 C619.5,309.3 622.2,306.6 622.2,303 C622.2,295.2 611.1,298.2 611.1,293.4 C611.1,292.05 612.45,290.7 614.7,290.7 C617.55,290.7 618.9,292.5 618.9,292.5 L621,290.4 C621,290.4 618.9,287.7 614.7,287.7 C610.35,287.7 607.8,290.25 607.8,293.4 C607.8,301.2 618.9,298.2 618.9,303 Z M636.75,301.8 C636.75,299.1 634.65,297 632.25,297 C629.85,297 627.75,299.1 627.75,301.8 C627.75,304.5 629.85,306.6 632.25,306.6 C634.65,306.6 636.75,304.5 636.75,301.8 Z M624.75,301.8 C624.75,297.75 628.2,294.3 632.25,294.3 C636.3,294.3 639.75,297.75 639.75,301.8 C639.75,305.85 636.3,309.3 632.25,309.3 C628.2,309.3 624.75,305.85 624.75,301.8 Z M646.35,288 L643.35,288 L643.35,309 L646.35,309 L646.35,288 Z M661.95,301.8 C661.95,299.1 659.85,297 657.45,297 C655.05,297 652.95,299.1 652.95,301.8 C652.95,304.5 655.05,306.6 657.45,306.6 C659.85,306.6 661.95,304.5 661.95,301.8 Z M649.95,301.8 C649.95,297.75 653.4,294.3 657.45,294.3 C661.5,294.3 664.95,297.75 664.95,301.8 C664.95,305.85 661.5,309.3 657.45,309.3 C653.4,309.3 649.95,305.85 649.95,301.8 Z M669.9,287.4 L666.9,293.85 L668.85,294.9 L672.6,288.9 L669.9,287.4 Z M688.2,300.3 C687,300.3 686.4,299.7 686.4,298.5 L686.4,292.05 C686.4,289.35 684.75,287.7 681.75,287.7 L680.1,287.7 L680.1,290.1 L681.75,290.1 C682.95,290.1 683.7,290.85 683.7,292.05 L683.7,298.5 C683.7,301.2 685.35,301.5 685.32,301.5 C685.35,301.5 683.7,301.8 683.7,304.5 L683.7,310.95 C683.7,312.15 682.95,312.9 681.75,312.9 L680.1,312.9 L680.1,315.3 L681.75,315.3 C684.75,315.3 686.4,313.65 686.4,310.95 L686.4,304.5 C686.4,303.3 687,302.7 688.2,302.7 L688.2,300.3 Z M693,305.4 L690,311.85 L691.95,312.9 L695.7,306.9 L693,305.4 Z M691.95,296.25 C691.95,297.3 692.85,298.2 693.9,298.2 C694.95,298.2 695.85,297.3 695.85,296.25 C695.85,295.2 694.95,294.3 693.9,294.3 C692.85,294.3 691.95,295.2 691.95,296.25 Z M196.05,365.8 C196.05,369.85 199.5,373.3 203.55,373.3 C207.3,373.3 209.55,370.3 209.55,370.3 L207.6,368.35 C207.6,368.35 206.1,370.6 203.55,370.6 C201.15,370.6 199.05,368.5 199.05,365.8 C199.05,363.1 201.15,361 203.55,361 C206.1,361 207.45,363.1 207.45,363.1 L209.4,361.15 C209.4,361.15 207.3,358.3 203.55,358.3 C199.5,358.3 196.05,361.75 196.05,365.8 Z M215.85,352 L212.85,352 L212.85,373 L215.85,373 L215.85,365.2 C215.85,362.5 217.35,361 219.6,361 C221.55,361 223.05,362.5 223.05,364.6 L223.05,373 L226.05,373 L226.05,364.6 C226.05,360.7 223.65,358.3 220.2,358.3 C217.5,358.3 215.85,360.1 215.85,360.1 L215.85,352 Z M241.8,373 L238.8,373 L238.8,371.5 C238.8,371.5 237.15,373.3 234.45,373.3 C231.45,373.3 229.35,371.2 229.35,369.1 C229.35,366.7 231,365.05 233.55,364.6 L238.8,363.7 C238.8,362.2 237.6,361 235.8,361 C233.25,361 232.05,362.95 232.05,362.95 L230.1,361 C230.1,361 232.05,358.3 235.8,358.3 C239.4,358.3 241.8,360.7 241.8,363.7 L241.8,373 Z M234.9,370.6 C237.3,370.6 238.8,369.1 238.8,366.4 L238.8,366.1 L234.15,366.85 C233.1,367.03 232.35,367.75 232.35,368.8 C232.35,369.7 233.25,370.6 234.9,370.6 Z M254.1,361.15 L254.1,358.3 L253.35,358.3 C250.65,358.3 249,360.1 249,360.1 L249,358.6 L246,358.6 L246,373 L249,373 L249,365.2 C249,362.5 250.5,361 252.75,361 C253.5,361 254.1,361.15 254.1,361.15 Z M268.05,373 L265.05,373 L265.05,371.5 C265.05,371.5 263.4,373.3 260.7,373.3 C257.7,373.3 255.6,371.2 255.6,369.1 C255.6,366.7 257.25,365.05 259.8,364.6 L265.05,363.7 C265.05,362.2 263.85,361 262.05,361 C259.5,361 258.3,362.95 258.3,362.95 L256.35,361 C256.35,361 258.3,358.3 262.05,358.3 C265.65,358.3 268.05,360.7 268.05,363.7 L268.05,373 Z M261.15,370.6 C263.55,370.6 265.05,369.1 265.05,366.4 L265.05,366.1 L260.4,366.85 C259.35,367.03 258.6,367.75 258.6,368.8 C258.6,369.7 259.5,370.6 261.15,370.6 Z M271.35,365.8 C271.35,369.85 274.8,373.3 278.85,373.3 C282.6,373.3 284.85,370.3 284.85,370.3 L282.9,368.35 C282.9,368.35 281.4,370.6 278.85,370.6 C276.45,370.6 274.35,368.5 274.35,365.8 C274.35,363.1 276.45,361 278.85,361 C281.4,361 282.75,363.1 282.75,363.1 L284.7,361.15 C284.7,361.15 282.6,358.3 278.85,358.3 C274.8,358.3 271.35,361.75 271.35,365.8 Z M289.65,356.8 C289.65,358 289.05,358.6 288.15,358.6 L286.65,358.6 L286.65,361.3 L289.35,361.3 L289.35,368.8 C289.35,371.8 290.85,373.3 293.55,373.3 C294.75,373.3 295.65,373 295.65,373 L295.65,370.3 C295.65,370.3 294.9,370.6 294.15,370.6 C293.1,370.6 292.35,369.85 292.35,368.77 L292.35,361.3 L295.35,361.3 L295.35,358.6 L292.35,358.6 L292.35,353.8 L289.65,353.8 L289.65,356.8 Z M312,366.85 L300.75,366.85 C301.05,368.8 302.85,370.6 305.25,370.6 C308.1,370.6 309.6,368.35 309.6,368.35 L311.55,370.3 C311.55,370.3 309.3,373.3 305.25,373.3 C301.2,373.3 297.75,369.85 297.75,365.65 C297.75,361.6 301.05,358.3 305.1,358.3 C309.15,358.3 312.15,361.3 312.15,365.35 C312.15,366.25 312,366.85 312,366.85 Z M305.1,360.85 C302.85,360.85 301.35,362.35 300.87,364.3 L309.21,364.3 C308.85,362.35 307.35,360.85 305.1,360.85 Z M323.55,361.15 L323.55,358.3 L322.8,358.3 C320.1,358.3 318.45,360.1 318.45,360.1 L318.45,358.6 L315.45,358.6 L315.45,373 L318.45,373 L318.45,365.2 C318.45,362.5 319.95,361 322.2,361 C322.95,361 323.55,361.15 323.55,361.15 Z M327.6,371.35 C327.6,370.3 326.7,369.4 325.65,369.4 C324.6,369.4 323.7,370.3 323.7,371.35 C323.7,372.4 324.6,373.3 325.65,373.3 C326.7,373.3 327.6,372.4 327.6,371.35 Z M339.15,361.15 L339.15,358.3 L338.4,358.3 C335.7,358.3 334.05,360.1 334.05,360.1 L334.05,358.6 L331.05,358.6 L331.05,373 L334.05,373 L334.05,365.2 C334.05,362.5 335.55,361 337.8,361 C338.55,361 339.15,361.15 339.15,361.15 Z M352.65,365.8 C352.65,363.1 350.55,361 348.15,361 C345.75,361 343.65,363.1 343.65,365.8 C343.65,368.5 345.75,370.6 348.15,370.6 C350.55,370.6 352.65,368.5 352.65,365.8 Z M340.65,365.8 C340.65,361.75 344.1,358.3 348.15,358.3 C352.2,358.3 355.65,361.75 355.65,365.8 C355.65,369.85 352.2,373.3 348.15,373.3 C344.1,373.3 340.65,369.85 340.65,365.8 Z M362.25,352 L359.25,352 L359.25,373 L362.25,373 L362.25,352 Z M380.1,366.85 L368.85,366.85 C369.15,368.8 370.95,370.6 373.35,370.6 C376.2,370.6 377.7,368.35 377.7,368.35 L379.65,370.3 C379.65,370.3 377.4,373.3 373.35,373.3 C369.3,373.3 365.85,369.85 365.85,365.65 C365.85,361.6 369.15,358.3 373.2,358.3 C377.25,358.3 380.25,361.3 380.25,365.35 C380.25,366.25 380.1,366.85 380.1,366.85 Z M373.2,360.85 C370.95,360.85 369.45,362.35 368.97,364.3 L377.31,364.3 C376.95,362.35 375.45,360.85 373.2,360.85 Z M401.1,365.5 L388.8,365.5 L388.8,368.2 L401.1,368.2 L401.1,365.5 Z M401.1,360.1 L388.8,360.1 L388.8,362.8 L401.1,362.8 L401.1,360.1 Z M411.6,358.9 L414.6,352.45 L412.65,351.4 L408.9,357.4 L411.6,358.9 Z M428.1,351.7 C421.8,351.7 417,356.5 417,362.5 C417,368.5 421.8,373.3 428.1,373.3 C433.8,373.3 436.8,369.1 436.8,369.1 L434.7,367 C434.7,367 432.45,370.3 428.1,370.3 C423.75,370.3 420.3,366.85 420.3,362.5 C420.3,358.15 423.75,354.7 428.1,354.7 C432.45,354.7 434.55,357.85 434.55,357.85 L436.65,355.75 C436.65,355.75 433.8,351.7 428.1,351.7 Z M451.5,373 L448.5,373 L448.5,371.5 C448.5,371.5 446.85,373.3 444.15,373.3 C441.15,373.3 439.05,371.2 439.05,369.1 C439.05,366.7 440.7,365.05 443.25,364.6 L448.5,363.7 C448.5,362.2 447.3,361 445.5,361 C442.95,361 441.75,362.95 441.75,362.95 L439.8,361 C439.8,361 441.75,358.3 445.5,358.3 C449.1,358.3 451.5,360.7 451.5,363.7 L451.5,373 Z M444.6,370.6 C447,370.6 448.5,369.1 448.5,366.4 L448.5,366.1 L443.85,366.85 C442.8,367.03 442.05,367.75 442.05,368.8 C442.05,369.7 442.95,370.6 444.6,370.6 Z M463.35,373.3 C460.5,373.3 458.7,371.35 458.7,371.35 L458.7,379.3 L455.7,379.3 L455.7,358.6 L458.7,358.6 L458.7,360.25 C458.7,360.25 460.5,358.3 463.35,358.3 C467.1,358.3 470.4,361.6 470.4,365.8 C470.4,370 467.1,373.3 463.35,373.3 Z M463.05,361 C460.8,361 458.7,363.1 458.7,365.8 C458.7,368.5 460.8,370.6 463.05,370.6 C465.3,370.6 467.4,368.5 467.4,365.8 C467.4,363.1 465.3,361 463.05,361 Z M475.5,356.8 C475.5,358 474.9,358.6 474,358.6 L472.5,358.6 L472.5,361.3 L475.2,361.3 L475.2,368.8 C475.2,371.8 476.7,373.3 479.4,373.3 C480.6,373.3 481.5,373 481.5,373 L481.5,370.3 C481.5,370.3 480.75,370.6 480,370.6 C478.95,370.6 478.2,369.85 478.2,368.77 L478.2,361.3 L481.2,361.3 L481.2,358.6 L478.2,358.6 L478.2,353.8 L475.5,353.8 L475.5,356.8 Z M496.05,373 L493.05,373 L493.05,371.5 C493.05,371.5 491.4,373.3 488.7,373.3 C485.7,373.3 483.6,371.2 483.6,369.1 C483.6,366.7 485.25,365.05 487.8,364.6 L493.05,363.7 C493.05,362.2 491.85,361 490.05,361 C487.5,361 486.3,362.95 486.3,362.95 L484.35,361 C484.35,361 486.3,358.3 490.05,358.3 C493.65,358.3 496.05,360.7 496.05,363.7 L496.05,373 Z M489.15,370.6 C491.55,370.6 493.05,369.1 493.05,366.4 L493.05,366.1 L488.4,366.85 C487.35,367.03 486.6,367.75 486.6,368.8 C486.6,369.7 487.5,370.6 489.15,370.6 Z M503.4,358.6 L500.4,358.6 L500.4,373 L503.4,373 L503.4,358.6 Z M503.7,354.1 C503.7,353.05 502.95,352.3 501.9,352.3 C500.85,352.3 500.1,353.05 500.1,354.1 C500.1,355.15 500.85,355.9 501.9,355.9 C502.95,355.9 503.7,355.15 503.7,354.1 Z M510.75,358.6 L507.75,358.6 L507.75,373 L510.75,373 L510.75,365.2 C510.75,362.5 512.25,361 514.5,361 C516.45,361 517.95,362.5 517.95,364.6 L517.95,373 L520.95,373 L520.95,364.6 C520.95,360.7 518.55,358.3 515.1,358.3 C512.4,358.3 510.75,360.1 510.75,360.1 L510.75,358.6 Z M526.8,351.4 L523.8,357.85 L525.75,358.9 L529.5,352.9 L526.8,351.4 Z M533.1,369.4 L530.1,375.85 L532.05,376.9 L535.8,370.9 L533.1,369.4 Z M532.05,360.25 C532.05,361.3 532.95,362.2 534,362.2 C535.05,362.2 535.95,361.3 535.95,360.25 C535.95,359.2 535.05,358.3 534,358.3 C532.95,358.3 532.05,359.2 532.05,360.25 Z M208.65,415.7 L199.65,443.3 L195.9,443.3 L204.9,415.7 L208.65,415.7 Z M217.2,415.7 L208.2,443.3 L204.45,443.3 L213.45,415.7 L217.2,415.7 Z M225.9,431.15 C227.1,431.15 227.85,431.9 227.85,433.1 L227.85,438.2 C227.85,441.5 229.65,443.3 232.8,443.3 L235.05,443.3 L235.05,439.7 L233.55,439.7 C232.5,439.7 231.75,438.95 231.75,437.84 L231.75,432.95 C231.75,429.95 229.8,429.5 229.8,429.5 C229.8,429.5 231.75,429.05 231.75,426.05 L231.75,421.19 C231.75,420.05 232.5,419.3 233.55,419.3 L235.05,419.3 L235.05,415.7 L232.8,415.7 C229.65,415.7 227.85,417.5 227.85,420.8 L227.85,425.9 C227.85,427.1 227.1,427.85 225.9,427.85 L225.9,431.15 Z M248.1,422.3 L244.05,422.3 L244.05,437 L248.1,437 L248.1,429.35 C248.1,427.1 249.3,425.9 251.1,425.9 C252.75,425.9 253.95,427.1 253.95,428.9 L253.95,437 L258,437 L258,428.45 C258,424.4 255.6,422 252.3,422 C249.6,422 248.1,424.1 248.1,424.1 L248.1,422.3 Z M270,437 L270,435.5 C270,435.5 268.5,437.3 265.95,437.3 C262.95,437.3 261,435.35 261,433.1 C261,430.7 262.65,429.02 265.35,428.54 L270,427.7 C270,426.5 269.1,425.6 267.45,425.6 C265.2,425.6 264.15,427.1 264.15,427.1 L261.9,424.85 C261.9,424.85 263.85,422 267.75,422 C271.5,422 274.05,424.55 274.05,427.85 L274.05,437 L270,437 Z M267,434 C268.8,434 270,432.8 270,430.7 L270,430.25 L266.7,430.85 C265.65,431.03 265.05,431.6 265.05,432.5 C265.05,433.4 265.65,434 267,434 Z M290.100001,424.549999 L290.1,424.549999 C290.1,424.55 290.1,424.55 290.1,424.55 C290.1,424.55 290.1,424.55 290.100001,424.549999 Z M290.100001,424.549999 C290.101227,424.548105 291.751227,422 295.05,422 C298.2,422 300.3,424.1 300.3,428.45 L300.3,437 L296.25,437 L296.25,428.9 C296.25,426.95 295.2,425.9 293.85,425.9 C292.35,425.9 291.15,427.1 291.15,429.35 L291.15,437 L287.1,437 L287.1,428.9 C287.1,426.95 286.05,425.9 284.7,425.9 C283.2,425.9 282,427.1 282,429.35 L282,437 L277.95,437 L277.95,422.3 L282,422.3 L282,424.1 C282,424.1 283.35,422 285.9,422 C289.048846,422 290.099231,424.548133 290.1,424.549999 L290.100001,424.549999 Z M315.3,432.05 C315.3,432.05 315.299999,432.050001 315.299997,432.050004 L315.3,432.05 Z M315.3,432.05 L317.4,434.75 C317.4,434.75 315.15,437.3 311.1,437.3 C306.75,437.3 303.3,433.85 303.3,429.65 C303.3,425.45 306.75,422 310.95,422 C315.15,422 318.3,425.15 318.3,429.35 C318.3,430.4 318.15,431 318.15,431 L307.5,431 C307.8,432.5 309.15,433.85 311.4,433.85 C313.947943,433.85 315.297821,432.052903 315.299997,432.050004 L315.3,432.05 Z M310.95,425.45 C309.15,425.45 307.95,426.65 307.5,428.15 L314.25,428.15 C313.95,426.65 312.75,425.45 310.95,425.45 Z M320.85,435.05 C320.85,436.25 321.9,437.3 323.25,437.3 C324.6,437.3 325.65,436.25 325.65,435.05 C325.65,433.85 324.6,432.8 323.25,432.8 C321.9,432.8 320.85,433.85 320.85,435.05 Z M320.85,424.25 C320.85,425.45 321.9,426.5 323.25,426.5 C324.6,426.5 325.65,425.45 325.65,424.25 C325.65,423.05 324.6,422 323.25,422 C321.9,422 320.85,423.05 320.85,424.25 Z M337.2,423.8 L340.35,416.9 L337.8,415.4 L333.75,421.85 L337.2,423.8 Z M361.65,416 L357.15,416 L357.15,424.4 L348.15,424.4 L348.15,416 L343.65,416 L343.65,437 L348.15,437 L348.15,428.45 L357.15,428.45 L357.15,437 L361.65,437 L361.65,416 Z M374.25,437 L374.25,435.5 C374.25,435.5 372.75,437.3 370.2,437.3 C367.2,437.3 365.25,435.35 365.25,433.1 C365.25,430.7 366.9,429.02 369.6,428.54 L374.25,427.7 C374.25,426.5 373.35,425.6 371.7,425.6 C369.45,425.6 368.4,427.1 368.4,427.1 L366.15,424.85 C366.15,424.85 368.1,422 372,422 C375.75,422 378.3,424.55 378.3,427.85 L378.3,437 L374.25,437 Z M371.25,434 C373.05,434 374.25,432.8 374.25,430.7 L374.25,430.25 L370.95,430.85 C369.9,431.03 369.3,431.6 369.3,432.5 C369.3,433.4 369.9,434 371.25,434 Z M386.25,422.3 L382.2,422.3 L382.2,437 L386.25,437 L386.25,429.35 C386.25,427.1 387.45,425.9 389.25,425.9 C390.9,425.9 392.1,427.1 392.1,428.9 L392.1,437 L396.15,437 L396.15,428.45 C396.15,424.4 393.75,422 390.45,422 C387.75,422 386.25,424.1 386.25,424.1 L386.25,422.3 Z M416.25,430.85 C416.25,432.35 415.05,433.55 412.8,433.55 C409.65,433.55 407.85,431.3 407.85,431.3 L405.15,434 C405.15,434 407.85,437.45 413.1,437.45 C418.2,437.45 421.05,434.6 421.05,430.85 C421.05,423.35 410.7,425.6 410.7,421.7 C410.7,420.5 411.75,419.45 413.55,419.45 C415.95,419.45 417.45,421.25 417.45,421.25 L420.15,418.4 C420.15,418.4 417.9,415.55 413.25,415.55 C408.75,415.55 405.9,418.4 405.9,421.7 C405.9,429.2 416.25,426.95 416.25,430.85 Z M427.5,429.65 C427.5,431.9 429.15,433.55 431.1,433.55 C433.05,433.55 434.7,431.9 434.7,429.65 C434.7,427.4 433.05,425.75 431.1,425.75 C429.15,425.75 427.5,427.4 427.5,429.65 Z M438.9,429.65 C438.9,433.7 435.3,437.3 431.1,437.3 C426.9,437.3 423.3,433.7 423.3,429.65 C423.3,425.6 426.9,422 431.1,422 C435.3,422 438.9,425.6 438.9,429.65 Z M446.1,416 L442.05,416 L442.05,437 L446.1,437 L446.1,416 Z M453.45,429.65 C453.45,431.9 455.1,433.55 457.05,433.55 C459,433.55 460.65,431.9 460.65,429.65 C460.65,427.4 459,425.75 457.05,425.75 C455.1,425.75 453.45,427.4 453.45,429.65 Z M464.85,429.65 C464.85,433.7 461.25,437.3 457.05,437.3 C452.85,437.3 449.25,433.7 449.25,429.65 C449.25,425.6 452.85,422 457.05,422 C461.25,422 464.85,425.6 464.85,429.65 Z M469.8,415.4 L466.65,422.3 L469.2,423.8 L473.25,417.35 L469.8,415.4 Z M477,432.65 L473.7,439.55 L476.4,440.9 L480.3,434.6 L477,432.65 Z M498.45,422.15 L497.85,422.15 C495.15,422.15 493.65,424.1 493.65,424.1 L493.65,422.3 L489.6,422.3 L489.6,437 L493.65,437 L493.65,429.95 C493.65,427.4 495,426.05 497.1,426.05 C498,426.05 498.45,426.2 498.45,426.2 L498.45,422.15 Z M504,429.65 C504,431.9 505.65,433.55 507.6,433.55 C509.55,433.55 511.2,431.9 511.2,429.65 C511.2,427.4 509.55,425.75 507.6,425.75 C505.65,425.75 504,427.4 504,429.65 Z M515.4,429.65 C515.4,433.7 511.8,437.3 507.6,437.3 C503.4,437.3 499.8,433.7 499.8,429.65 C499.8,425.6 503.4,422 507.6,422 C511.8,422 515.4,425.6 515.4,429.65 Z M522.6,416 L518.55,416 L518.55,437 L522.6,437 L522.6,416 Z M540.6,431 L529.95,431 C530.25,432.5 531.6,433.85 533.85,433.85 C536.4,433.85 537.75,432.05 537.75,432.05 L539.85,434.75 C539.85,434.75 537.6,437.3 533.55,437.3 C529.2,437.3 525.75,433.85 525.75,429.65 C525.75,425.45 529.2,422 533.4,422 C537.6,422 540.75,425.15 540.75,429.35 C540.75,430.4 540.6,431 540.6,431 Z M533.4,425.45 C531.6,425.45 530.4,426.65 529.95,428.15 L536.7,428.15 C536.4,426.65 535.2,425.45 533.4,425.45 Z M543.3,435.05 C543.3,436.25 544.35,437.3 545.7,437.3 C547.05,437.3 548.1,436.25 548.1,435.05 C548.1,433.85 547.05,432.8 545.7,432.8 C544.35,432.8 543.3,433.85 543.3,435.05 Z M543.3,424.25 C543.3,425.45 544.35,426.5 545.7,426.5 C547.05,426.5 548.1,425.45 548.1,424.25 C548.1,423.05 547.05,422 545.7,422 C544.35,422 543.3,423.05 543.3,424.25 Z M559.65,423.8 L562.8,416.9 L560.25,415.4 L556.2,421.85 L559.65,423.8 Z M576.3,415.55 C569.85,415.55 564.9,420.5 564.9,426.5 C564.9,432.5 569.85,437.45 576.3,437.45 C582.15,437.45 585.15,433.25 585.15,433.25 L582.45,430.4 C582.45,430.4 580.35,433.4 576.3,433.4 C572.4,433.4 569.4,430.4 569.4,426.5 C569.4,422.6 572.4,419.6 576.3,419.6 C580.2,419.6 582.15,422.6 582.15,422.6 L585,419.75 C585,419.75 582.15,415.55 576.3,415.55 Z M595.95,437 L595.95,435.5 C595.95,435.5 594.45,437.3 591.9,437.3 C588.9,437.3 586.95,435.35 586.95,433.1 C586.95,430.7 588.6,429.02 591.3,428.54 L595.95,427.7 C595.95,426.5 595.05,425.6 593.4,425.6 C591.15,425.6 590.1,427.1 590.1,427.1 L587.85,424.85 C587.85,424.85 589.8,422 593.7,422 C597.45,422 600,424.55 600,427.85 L600,437 L595.95,437 Z M592.95,434 C594.75,434 595.95,432.8 595.95,430.7 L595.95,430.25 L592.65,430.85 C591.6,431.03 591,431.6 591,432.5 C591,433.4 591.6,434 592.95,434 Z M612.3,437.3 C609.45,437.3 607.95,435.2 607.95,435.2 L607.95,443.3 L603.9,443.3 L603.9,422.3 L607.95,422.3 L607.95,424.1 C607.95,424.1 609.45,422 612.3,422 C616.05,422 619.35,425.3 619.35,429.65 C619.35,434 616.05,437.3 612.3,437.3 Z M611.55,425.6 C609.6,425.6 607.95,427.25 607.95,429.65 C607.95,432.05 609.6,433.7 611.55,433.7 C613.5,433.7 615.15,432.05 615.15,429.65 C615.15,427.25 613.5,425.6 611.55,425.6 Z M624.15,420.65 C624.15,421.85 623.4,422.6 622.5,422.6 L621.15,422.6 L621.15,426.2 L623.7,426.2 L623.7,432.2 C623.7,435.65 625.35,437.3 628.35,437.3 C629.85,437.3 631.05,436.85 631.05,436.85 L631.05,433.4 C631.05,433.4 630.45,433.7 629.55,433.7 C628.5,433.7 627.75,432.95 627.75,432.05 L627.75,426.2 L630.75,426.2 L630.75,422.6 L627.75,422.6 L627.75,417.95 L624.15,417.95 L624.15,420.65 Z M642,437 L642,435.5 C642,435.5 640.5,437.3 637.95,437.3 C634.95,437.3 633,435.35 633,433.1 C633,430.7 634.65,429.02 637.35,428.54 L642,427.7 C642,426.5 641.1,425.6 639.45,425.6 C637.2,425.6 636.15,427.1 636.15,427.1 L633.9,424.85 C633.9,424.85 635.85,422 639.75,422 C643.5,422 646.05,424.55 646.05,427.85 L646.05,437 L642,437 Z M639,434 C640.8,434 642,432.8 642,430.7 L642,430.25 L638.7,430.85 C637.65,431.03 637.05,431.6 637.05,432.5 C637.05,433.4 637.65,434 639,434 Z M654.15,422.3 L650.1,422.3 L650.1,437 L654.15,437 L654.15,422.3 Z M654.45,418.1 C654.45,416.75 653.55,415.85 652.05,415.85 C650.7,415.85 649.8,416.75 649.8,418.1 C649.8,419.45 650.7,420.35 652.05,420.35 C653.55,420.35 654.45,419.45 654.45,418.1 Z M662.25,422.3 L658.2,422.3 L658.2,437 L662.25,437 L662.25,429.35 C662.25,427.1 663.45,425.9 665.25,425.9 C666.9,425.9 668.1,427.1 668.1,428.9 L668.1,437 L672.15,437 L672.15,428.45 C672.15,424.4 669.75,422 666.45,422 C663.75,422 662.25,424.1 662.25,424.1 L662.25,422.3 Z M678,415.4 L674.85,422.3 L677.4,423.8 L681.45,417.35 L678,415.4 Z M698.4,427.85 C697.2,427.85 696.45,427.1 696.45,425.9 L696.45,420.8 C696.45,417.5 694.65,415.7 691.5,415.7 L689.25,415.7 L689.25,419.3 L690.75,419.3 C691.8,419.3 692.55,420.05 692.55,421.19 L692.55,426.05 C692.55,429.05 694.5,429.5 694.5,429.5 C694.5,429.5 692.55,429.95 692.55,432.95 L692.55,437.84 C692.55,438.95 691.8,439.7 690.75,439.7 L689.25,439.7 L689.25,443.3 L691.5,443.3 C694.65,443.3 696.45,441.5 696.45,438.2 L696.45,433.1 C696.45,431.9 697.2,431.15 698.4,431.15 L698.4,427.85 Z M702,424.25 C702,425.45 703.05,426.5 704.4,426.5 C705.75,426.5 706.8,425.45 706.8,424.25 C706.8,423.05 705.75,422 704.4,422 C703.05,422 702,423.05 702,424.25 Z M703.2,432.65 L699.9,439.55 L702.6,440.9 L706.5,434.6 L703.2,432.65 Z M196.05,462.88 C196.05,466.24 198.93,469.3 202.47,469.3 C206.22,469.3 208.77,466.3 208.77,466.3 L207.18,464.35 C207.18,464.35 205.41,466.6 202.86,466.6 C200.79,466.6 199.11,464.89 199.11,462.73 C199.11,459.55 201.81,457 204.51,457 C207.06,457 208.32,458.98 208.32,458.98 L210.54,457.15 C210.54,457.15 208.56,454.3 204.81,454.3 C200.1,454.3 196.05,458.47 196.05,462.88 Z M218.7,466.6 C221.4,466.6 223.95,463.9 223.95,461.14 C223.95,458.77 222.24,457 219.93,457 C217.35,457 214.71,459.49 214.71,462.49 C214.71,464.86 216.45,466.6 218.7,466.6 Z M211.65,462.58 C211.65,458.38 215.7,454.3 220.2,454.3 C224.1,454.3 227.01,457.39 227.01,461.05 C227.01,465.46 222.69,469.3 218.43,469.3 C214.5,469.3 211.65,466.21 211.65,462.58 Z M234.66,454.6 L231.66,454.6 L228.6,469 L231.6,469 L233.22,461.32 C233.79,458.62 235.53,457 237.78,457 C239.46,457 240.66,458.11 240.66,459.79 C240.66,460.06 240.63,460.33 240.57,460.6 L238.8,469 L241.8,469 L243.57,460.6 C243.69,460.06 243.75,459.55 243.75,459.07 C243.75,456.07 241.62,454.3 238.65,454.3 C235.95,454.3 234.33,456.1 234.33,456.1 L234.66,454.6 Z M257.85,456.25 C257.85,456.25 256.32,454.3 253.17,454.3 C249.6,454.3 247.5,456.7 247.5,459.07 C247.5,462.91 253.65,462.55 253.65,464.71 C253.65,465.91 252.63,466.6 250.92,466.6 C248.67,466.6 247.53,464.86 247.53,464.86 L245.25,466.75 C245.25,466.75 246.96,469.3 250.71,469.3 C254.43,469.3 256.71,466.99 256.71,464.23 C256.71,460.39 250.59,460.78 250.59,458.59 C250.59,457.78 251.43,457 252.99,457 C254.64,457 255.57,458.14 255.57,458.14 L257.85,456.25 Z M266.55,466.6 C269.25,466.6 271.8,463.9 271.8,461.14 C271.8,458.77 270.09,457 267.78,457 C265.2,457 262.56,459.49 262.56,462.49 C262.56,464.86 264.3,466.6 266.55,466.6 Z M259.5,462.58 C259.5,458.38 263.55,454.3 268.05,454.3 C271.95,454.3 274.86,457.39 274.86,461.05 C274.86,465.46 270.54,469.3 266.28,469.3 C262.35,469.3 259.5,466.21 259.5,462.58 Z M284.19,448 L281.19,448 L276.75,469 L279.75,469 L284.19,448 Z M298.89,462.85 L287.61,462.85 C287.7,464.86 289.2,466.6 291.45,466.6 C294.3,466.6 296.13,464.29 296.13,464.29 L297.72,466.3 C297.72,466.3 295.26,469.3 291.21,469.3 C287.67,469.3 284.73,466.3 284.73,462.85 C284.73,458.11 288.78,454.3 293.37,454.3 C296.85,454.3 299.55,456.55 299.55,459.76 C299.55,461.11 298.92,462.94 298.89,462.85 Z M293.19,456.85 C291.06,456.85 289.05,458.32 288.15,460.3 L296.64,460.3 C296.73,458.35 295.47,456.85 293.19,456.85 Z M304.89,467.17 C304.89,466.21 304.14,465.4 303.12,465.4 C302.04,465.4 300.9,466.39 300.9,467.5 C300.9,468.46 301.62,469.3 302.67,469.3 C303.84,469.3 304.89,468.25 304.89,467.17 Z M315.69,448 L312.69,448 L308.25,469 L311.25,469 L315.69,448 Z M323.25,466.6 C325.95,466.6 328.5,463.9 328.5,461.14 C328.5,458.77 326.79,457 324.48,457 C321.9,457 319.26,459.49 319.26,462.49 C319.26,464.86 321,466.6 323.25,466.6 Z M316.2,462.58 C316.2,458.38 320.25,454.3 324.75,454.3 C328.65,454.3 331.56,457.39 331.56,461.05 C331.56,465.46 327.24,469.3 322.98,469.3 C319.05,469.3 316.2,466.21 316.2,462.58 Z M343.53,468.13 L343.74,467.02 C343.74,467.02 342.06,468.7 339.36,468.7 C336.24,468.7 333.66,465.91 333.66,462.64 C333.66,457.87 337.71,454.3 341.76,454.3 C344.46,454.3 346.05,456.22 346.05,456.22 L346.41,454.6 L349.41,454.6 L346.53,468.1 C345.66,472.15 342.45,475.3 338.4,475.3 C334.05,475.3 331.98,472.3 331.98,472.3 L334.26,470.41 C334.26,470.41 335.73,472.6 338.58,472.6 C340.95,472.6 342.99,470.8 343.53,468.13 Z M341.7,457 C339.03,457 336.72,459.64 336.72,462.37 C336.72,464.41 338.22,466 340.05,466 C342.39,466 345.06,463.51 345.06,460.48 C345.06,458.47 343.5,457 341.7,457 Z M355.29,461.5 C354.96,463.06 354.81,464.53 354.81,465.88 C354.81,471.01 356.73,474.4 356.73,474.4 L354.21,475.75 C354.21,475.75 352.05,472 352.05,466.27 C352.05,454.84 360.3,447.19 360.27,447.25 L362.25,448.63 C362.25,448.63 356.88,454 355.29,461.5 Z M361.2,462.88 C361.2,458.47 365.25,454.3 369.96,454.3 C373.71,454.3 375.69,457.15 375.69,457.15 L373.47,458.98 C373.47,458.98 372.21,457 369.66,457 C366.96,457 364.26,459.55 364.26,462.73 C364.26,464.89 365.94,466.6 368.01,466.6 C370.56,466.6 372.33,464.35 372.33,464.35 L373.92,466.3 C373.92,466.3 371.37,469.3 367.62,469.3 C364.08,469.3 361.2,466.24 361.2,462.88 Z M384.09,448 L381.09,448 L376.65,469 L379.65,469 L381.27,461.32 C381.84,458.62 383.58,457 385.83,457 C387.51,457 388.71,458.11 388.71,459.79 C388.71,460.06 388.68,460.33 388.62,460.6 L386.85,469 L389.85,469 L391.62,460.6 C391.74,460.06 391.8,459.55 391.8,459.07 C391.8,456.07 389.67,454.3 386.7,454.3 C384,454.3 382.38,456.1 382.38,456.1 L384.09,448 Z M401.1,466.6 C403.59,466.6 406.5,463.9 406.5,460.72 C406.5,458.53 404.82,457 402.87,457 C400.32,457 397.56,459.64 397.56,462.82 C397.56,464.98 399.15,466.6 401.1,466.6 Z M402.99,454.3 C405.84,454.3 407.52,456.4 407.52,456.4 L407.91,454.6 L410.91,454.6 L407.85,469 L404.85,469 L405.15,467.47 C405.15,467.47 403.35,469.3 400.5,469.3 C397.26,469.3 394.5,466.51 394.5,463.12 C394.5,458.17 398.76,454.3 402.99,454.3 Z M422.79,457.15 C422.79,457.15 422.25,457 421.5,457 C419.25,457 417.39,458.62 416.82,461.32 L415.2,469 L412.2,469 L415.26,454.6 L418.26,454.6 L417.93,456.07 C417.93,456.07 419.97,454.3 422.67,454.3 L423.42,454.3 L422.79,457.15 Z M429.75,466.6 C432.24,466.6 435.15,463.9 435.15,460.72 C435.15,458.53 433.47,457 431.52,457 C428.97,457 426.21,459.64 426.21,462.82 C426.21,464.98 427.8,466.6 429.75,466.6 Z M431.64,454.3 C434.49,454.3 436.17,456.4 436.17,456.4 L436.56,454.6 L439.56,454.6 L436.5,469 L433.5,469 L433.8,467.47 C433.8,467.47 432,469.3 429.15,469.3 C425.91,469.3 423.15,466.51 423.15,463.12 C423.15,458.17 427.41,454.3 431.64,454.3 Z M441.3,462.88 C441.3,466.24 444.18,469.3 447.72,469.3 C451.47,469.3 454.02,466.3 454.02,466.3 L452.43,464.35 C452.43,464.35 450.66,466.6 448.11,466.6 C446.04,466.6 444.36,464.89 444.36,462.73 C444.36,459.55 447.06,457 449.76,457 C452.31,457 453.57,458.98 453.57,458.98 L455.79,457.15 C455.79,457.15 453.81,454.3 450.06,454.3 C445.35,454.3 441.3,458.47 441.3,462.88 Z M461.67,452.8 C461.43,454 460.71,454.6 459.81,454.6 L458.31,454.6 L457.71,457.3 L460.41,457.3 L458.82,464.8 C458.19,467.8 459.45,469.3 462.15,469.3 C463.35,469.3 464.25,469 464.25,469 L464.82,466.3 C464.82,466.3 463.92,466.6 463.17,466.6 C462.12,466.6 461.61,465.85 461.82,464.77 L463.41,457.3 L466.41,457.3 L467.01,454.6 L464.01,454.6 L465.03,449.8 L462.33,449.8 L461.67,452.8 Z M481.89,462.85 L470.61,462.85 C470.7,464.86 472.2,466.6 474.45,466.6 C477.3,466.6 479.13,464.29 479.13,464.29 L480.72,466.3 C480.72,466.3 478.26,469.3 474.21,469.3 C470.67,469.3 467.73,466.3 467.73,462.85 C467.73,458.11 471.78,454.3 476.37,454.3 C479.85,454.3 482.55,456.55 482.55,459.76 C482.55,461.11 481.92,462.94 481.89,462.85 Z M476.19,456.85 C474.06,456.85 472.05,458.32 471.15,460.3 L479.64,460.3 C479.73,458.35 478.47,456.85 476.19,456.85 Z M494.64,457.15 C494.64,457.15 494.1,457 493.35,457 C491.1,457 489.24,458.62 488.67,461.32 L487.05,469 L484.05,469 L487.11,454.6 L490.11,454.6 L489.78,456.07 C489.78,456.07 491.82,454.3 494.52,454.3 L495.27,454.3 L494.64,457.15 Z M499.29,461.5 C499.62,459.97 499.74,458.5 499.74,457.15 C499.74,452.02 497.82,448.6 497.82,448.6 L500.37,447.25 C500.37,447.25 502.53,451.03 502.53,456.76 C502.53,468.19 494.25,475.81 494.31,475.75 L492.33,474.37 C492.33,474.37 497.7,469 499.29,461.5 Z M511.38,456.07 C511.38,455.11 510.63,454.3 509.61,454.3 C508.53,454.3 507.39,455.29 507.39,456.4 C507.39,457.36 508.11,458.2 509.16,458.2 C510.33,458.2 511.38,457.15 511.38,456.07 Z M506.43,465.34 L508.92,466.9 L503.91,472.9 L502.14,471.82 L506.43,465.34 Z" id="const-character-=-{" fill="#545E6F"></path>
            <text id="MUTABLE-BY-DESIGN" font-family="TTNorms-Bold, TT Norms" font-size="24" font-weight="bold" fill="#FFFFFF">
                <tspan x="513.5" y="183">MUTABLE BY DESIGN</tspan>
            </text>
        </g>
    </g>
</svg>