<?xml version="1.0" encoding="UTF-8"?>
<svg width="1280px" height="720px" viewBox="0 0 1280 720" version="1.1" xmlns="http://www.w3.org/2000/svg" xmlns:xlink="http://www.w3.org/1999/xlink" style="background: #FFFFFF;">
    <!-- Generator: Sketch 47.1 (45422) - http://www.bohemiancoding.com/sketch -->
    <title>effects-without-dispatch copy 3</title>
    <desc>Created with Sketch.</desc>
    <defs></defs>
    <g id="Page-1" stroke="none" stroke-width="1" fill="none" fill-rule="evenodd">
        <g id="effects-without-dispatch-copy-3">
            <g id="Group" transform="translate(125.000000, 145.000000)">
                <rect id="Rectangle-7" fill="#F4F6F8" x="0" y="31" width="1030" height="392" rx="15"></rect>
                <path d="M15,0 L1015,0 L1015,1.77635684e-15 C1023.28427,5.91178485e-14 1030,6.71572875 1030,15 L1030,58 L0,58 L0,15 L-1.77635684e-15,15 C-2.79088747e-15,6.71572875 6.71572875,-2.54560899e-16 15,-1.77635684e-15 Z" id="Rectangle" fill="#6DB0DC"></path>
            </g>
            <text id="IMMUTABLE-OPERATIONS" font-family="TTNorms-Bold, TT Norms" font-size="24" font-weight="bold" fill="#FFFFFF">
                <tspan x="483.14" y="183">IMMUTABLE OPERATIONS</tspan>
            </text>
            <path d="M196.05,258.8 C196.05,262.85 199.5,266.3 203.55,266.3 C207.3,266.3 209.55,263.3 209.55,263.3 L207.6,261.35 C207.6,261.35 206.1,263.6 203.55,263.6 C201.15,263.6 199.05,261.5 199.05,258.8 C199.05,256.1 201.15,254 203.55,254 C206.1,254 207.45,256.1 207.45,256.1 L209.4,254.15 C209.4,254.15 207.3,251.3 203.55,251.3 C199.5,251.3 196.05,254.75 196.05,258.8 Z M223.65,258.8 C223.65,256.1 221.55,254 219.15,254 C216.75,254 214.65,256.1 214.65,258.8 C214.65,261.5 216.75,263.6 219.15,263.6 C221.55,263.6 223.65,261.5 223.65,258.8 Z M211.65,258.8 C211.65,254.75 215.1,251.3 219.15,251.3 C223.2,251.3 226.65,254.75 226.65,258.8 C226.65,262.85 223.2,266.3 219.15,266.3 C215.1,266.3 211.65,262.85 211.65,258.8 Z M232.95,251.6 L229.95,251.6 L229.95,266 L232.95,266 L232.95,258.2 C232.95,255.5 234.45,254 236.7,254 C238.65,254 240.15,255.5 240.15,257.6 L240.15,266 L243.15,266 L243.15,257.6 C243.15,253.7 240.75,251.3 237.3,251.3 C234.6,251.3 232.95,253.1 232.95,253.1 L232.95,251.6 Z M256.5,253.25 C256.5,253.25 255,251.3 251.85,251.3 C248.85,251.3 246.75,253.4 246.75,255.5 C246.75,260.6 254.1,259.1 254.1,261.8 C254.1,262.85 253.35,263.6 251.7,263.6 C249.45,263.6 248.1,261.8 248.1,261.8 L246.15,263.75 C246.15,263.75 247.95,266.3 251.7,266.3 C255,266.3 257.1,264.2 257.1,261.8 C257.1,256.7 249.75,258.2 249.75,255.5 C249.75,254.75 250.5,254 251.85,254 C253.5,254 254.55,255.2 254.55,255.2 L256.5,253.25 Z M262.2,249.8 C262.2,251 261.6,251.6 260.7,251.6 L259.2,251.6 L259.2,254.3 L261.9,254.3 L261.9,261.8 C261.9,264.8 263.4,266.3 266.1,266.3 C267.3,266.3 268.2,266 268.2,266 L268.2,263.3 C268.2,263.3 267.45,263.6 266.7,263.6 C265.65,263.6 264.9,262.85 264.9,261.77 L264.9,254.3 L267.9,254.3 L267.9,251.6 L264.9,251.6 L264.9,246.8 L262.2,246.8 L262.2,249.8 Z M280.8,251.6 L277.8,251.6 L277.8,266 L280.8,266 L280.8,258.2 C280.8,255.5 282.3,254 284.55,254 C286.5,254 288,255.5 288,257.6 L288,266 L291,266 L291,257.6 C291,253.7 288.6,251.3 285.15,251.3 C282.45,251.3 280.8,253.1 280.8,253.1 L280.8,251.6 Z M306.75,266 L303.75,266 L303.75,264.5 C303.75,264.5 302.1,266.3 299.4,266.3 C296.4,266.3 294.3,264.2 294.3,262.1 C294.3,259.7 295.95,258.05 298.5,257.6 L303.75,256.7 C303.75,255.2 302.55,254 300.75,254 C298.2,254 297,255.95 297,255.95 L295.05,254 C295.05,254 297,251.3 300.75,251.3 C304.35,251.3 306.75,253.7 306.75,256.7 L306.75,266 Z M299.85,263.6 C302.25,263.6 303.75,262.1 303.75,259.4 L303.75,259.1 L299.1,259.85 C298.05,260.03 297.3,260.75 297.3,261.8 C297.3,262.7 298.2,263.6 299.85,263.6 Z M329.55,266 L332.55,266 L332.55,257.6 C332.55,253.4 330.45,251.3 327.15,251.3 C323.85,251.3 322.2,253.7 322.2,253.7 C322.2,253.7 321,251.3 317.85,251.3 C315.45,251.3 313.95,253.1 313.95,253.1 L313.95,251.6 L310.95,251.6 L310.95,266 L313.95,266 L313.95,258.2 C313.95,255.5 315.45,254 317.25,254 C319.05,254 320.25,255.2 320.25,257.6 L320.25,266 L323.25,266 L323.25,258.2 C323.25,255.5 324.75,254 326.55,254 C328.35,254 329.55,255.2 329.55,257.6 L329.55,266 Z M350.1,259.85 L338.85,259.85 C339.15,261.8 340.95,263.6 343.35,263.6 C346.2,263.6 347.7,261.35 347.7,261.35 L349.65,263.3 C349.65,263.3 347.4,266.3 343.35,266.3 C339.3,266.3 335.85,262.85 335.85,258.65 C335.85,254.6 339.15,251.3 343.2,251.3 C347.25,251.3 350.25,254.3 350.25,258.35 C350.25,259.25 350.1,259.85 350.1,259.85 Z M343.2,253.85 C340.95,253.85 339.45,255.35 338.97,257.3 L347.31,257.3 C346.95,255.35 345.45,253.85 343.2,253.85 Z M362.7,253.25 C362.7,253.25 361.2,251.3 358.05,251.3 C355.05,251.3 352.95,253.4 352.95,255.5 C352.95,260.6 360.3,259.1 360.3,261.8 C360.3,262.85 359.55,263.6 357.9,263.6 C355.65,263.6 354.3,261.8 354.3,261.8 L352.35,263.75 C352.35,263.75 354.15,266.3 357.9,266.3 C361.2,266.3 363.3,264.2 363.3,261.8 C363.3,256.7 355.95,258.2 355.95,255.5 C355.95,254.75 356.7,254 358.05,254 C359.7,254 360.75,255.2 360.75,255.2 L362.7,253.25 Z M384.15,258.5 L371.85,258.5 L371.85,261.2 L384.15,261.2 L384.15,258.5 Z M384.15,253.1 L371.85,253.1 L371.85,255.8 L384.15,255.8 L384.15,253.1 Z M396.45,247.1 L400.35,247.1 L400.35,244.7 L393.75,244.7 L393.75,272.3 L400.35,272.3 L400.35,269.9 L396.45,269.9 L396.45,247.1 Z M404.55,251.9 L407.55,245.45 L405.6,244.4 L401.85,250.4 L404.55,251.9 Z M428.1,245 L424.8,245 L424.8,253.85 L414.45,253.85 L414.45,245 L411.15,245 L411.15,266 L414.45,266 L414.45,256.85 L424.8,256.85 L424.8,266 L428.1,266 L428.1,245 Z M444.6,266 L441.6,266 L441.6,264.5 C441.6,264.5 439.95,266.3 437.25,266.3 C434.25,266.3 432.15,264.2 432.15,262.1 C432.15,259.7 433.8,258.05 436.35,257.6 L441.6,256.7 C441.6,255.2 440.4,254 438.6,254 C436.05,254 434.85,255.95 434.85,255.95 L432.9,254 C432.9,254 434.85,251.3 438.6,251.3 C442.2,251.3 444.6,253.7 444.6,256.7 L444.6,266 Z M437.7,263.6 C440.1,263.6 441.6,262.1 441.6,259.4 L441.6,259.1 L436.95,259.85 C435.9,260.03 435.15,260.75 435.15,261.8 C435.15,262.7 436.05,263.6 437.7,263.6 Z M451.8,251.6 L448.8,251.6 L448.8,266 L451.8,266 L451.8,258.2 C451.8,255.5 453.3,254 455.55,254 C457.5,254 459,255.5 459,257.6 L459,266 L462,266 L462,257.6 C462,253.7 459.6,251.3 456.15,251.3 C453.45,251.3 451.8,253.1 451.8,253.1 L451.8,251.6 Z M483.15,260 C483.15,261.8 481.65,263.3 478.95,263.3 C475.2,263.3 473.55,260.9 473.55,260.9 L471.45,263 C471.45,263 473.85,266.3 478.95,266.3 C483.75,266.3 486.45,263.6 486.45,260 C486.45,252.2 475.35,255.2 475.35,250.4 C475.35,249.05 476.7,247.7 478.95,247.7 C481.8,247.7 483.15,249.5 483.15,249.5 L485.25,247.4 C485.25,247.4 483.15,244.7 478.95,244.7 C474.6,244.7 472.05,247.25 472.05,250.4 C472.05,258.2 483.15,255.2 483.15,260 Z M501,258.8 C501,256.1 498.9,254 496.5,254 C494.1,254 492,256.1 492,258.8 C492,261.5 494.1,263.6 496.5,263.6 C498.9,263.6 501,261.5 501,258.8 Z M489,258.8 C489,254.75 492.45,251.3 496.5,251.3 C500.55,251.3 504,254.75 504,258.8 C504,262.85 500.55,266.3 496.5,266.3 C492.45,266.3 489,262.85 489,258.8 Z M510.6,245 L507.6,245 L507.6,266 L510.6,266 L510.6,245 Z M526.2,258.8 C526.2,256.1 524.1,254 521.7,254 C519.3,254 517.2,256.1 517.2,258.8 C517.2,261.5 519.3,263.6 521.7,263.6 C524.1,263.6 526.2,261.5 526.2,258.8 Z M514.2,258.8 C514.2,254.75 517.65,251.3 521.7,251.3 C525.75,251.3 529.2,254.75 529.2,258.8 C529.2,262.85 525.75,266.3 521.7,266.3 C517.65,266.3 514.2,262.85 514.2,258.8 Z M534.15,244.4 L531.15,250.85 L533.1,251.9 L536.85,245.9 L534.15,244.4 Z M540.45,262.4 L537.45,268.85 L539.4,269.9 L543.15,263.9 L540.45,262.4 Z M553.95,251.9 L556.95,245.45 L555,244.4 L551.25,250.4 L553.95,251.9 Z M560.55,245 L567.9,245 C573.75,245 578.55,249.8 578.55,255.5 C578.55,261.2 573.75,266 567.9,266 L560.55,266 L560.55,245 Z M567.9,248 L563.85,248 L563.85,263 L567.9,263 C571.95,263 575.25,259.7 575.25,255.5 C575.25,251.3 571.95,248 567.9,248 Z M593.85,266 L590.85,266 L590.85,264.5 C590.85,264.5 589.2,266.3 586.5,266.3 C583.5,266.3 581.4,264.2 581.4,262.1 C581.4,259.7 583.05,258.05 585.6,257.6 L590.85,256.7 C590.85,255.2 589.65,254 587.85,254 C585.3,254 584.1,255.95 584.1,255.95 L582.15,254 C582.15,254 584.1,251.3 587.85,251.3 C591.45,251.3 593.85,253.7 593.85,256.7 L593.85,266 Z M586.95,263.6 C589.35,263.6 590.85,262.1 590.85,259.4 L590.85,259.1 L586.2,259.85 C585.15,260.03 584.4,260.75 584.4,261.8 C584.4,262.7 585.3,263.6 586.95,263.6 Z M606.15,254.15 L606.15,251.3 L605.4,251.3 C602.7,251.3 601.05,253.1 601.05,253.1 L601.05,251.6 L598.05,251.6 L598.05,266 L601.05,266 L601.05,258.2 C601.05,255.5 602.55,254 604.8,254 C605.55,254 606.15,254.15 606.15,254.15 Z M610.35,249.8 C610.35,251 609.75,251.6 608.85,251.6 L607.35,251.6 L607.35,254.3 L610.05,254.3 L610.05,261.8 C610.05,264.8 611.55,266.3 614.25,266.3 C615.45,266.3 616.35,266 616.35,266 L616.35,263.3 C616.35,263.3 615.6,263.6 614.85,263.6 C613.8,263.6 613.05,262.85 613.05,261.77 L613.05,254.3 L616.05,254.3 L616.05,251.6 L613.05,251.6 L613.05,246.8 L610.35,246.8 L610.35,249.8 Z M623.25,245 L620.25,245 L620.25,266 L623.25,266 L623.25,258.2 C623.25,255.5 624.75,254 627,254 C628.95,254 630.45,255.5 630.45,257.6 L630.45,266 L633.45,266 L633.45,257.6 C633.45,253.7 631.05,251.3 627.6,251.3 C624.9,251.3 623.25,253.1 623.25,253.1 L623.25,245 Z M650.85,266 L654.15,266 L662.4,245 L658.95,245 L652.5,261.8 L646.05,245 L642.6,245 L650.85,266 Z M675,266 L672,266 L672,264.5 C672,264.5 670.35,266.3 667.65,266.3 C664.65,266.3 662.55,264.2 662.55,262.1 C662.55,259.7 664.2,258.05 666.75,257.6 L672,256.7 C672,255.2 670.8,254 669,254 C666.45,254 665.25,255.95 665.25,255.95 L663.3,254 C663.3,254 665.25,251.3 669,251.3 C672.6,251.3 675,253.7 675,256.7 L675,266 Z M668.1,263.6 C670.5,263.6 672,262.1 672,259.4 L672,259.1 L667.35,259.85 C666.3,260.03 665.55,260.75 665.55,261.8 C665.55,262.7 666.45,263.6 668.1,263.6 Z M685.35,251.3 C688.2,251.3 690,253.25 690,253.25 L690,245 L693,245 L693,266 L690,266 L690,264.35 C690,264.35 688.2,266.3 685.35,266.3 C681.6,266.3 678.3,263 678.3,258.8 C678.3,254.6 681.6,251.3 685.35,251.3 Z M685.65,263.6 C687.9,263.6 690,261.5 690,258.8 C690,256.1 687.9,254 685.65,254 C683.4,254 681.3,256.1 681.3,258.8 C681.3,261.5 683.4,263.6 685.65,263.6 Z M710.85,259.85 L699.6,259.85 C699.9,261.8 701.7,263.6 704.1,263.6 C706.95,263.6 708.45,261.35 708.45,261.35 L710.4,263.3 C710.4,263.3 708.15,266.3 704.1,266.3 C700.05,266.3 696.6,262.85 696.6,258.65 C696.6,254.6 699.9,251.3 703.95,251.3 C708,251.3 711,254.3 711,258.35 C711,259.25 710.85,259.85 710.85,259.85 Z M703.95,253.85 C701.7,253.85 700.2,255.35 699.72,257.3 L708.06,257.3 C707.7,255.35 706.2,253.85 703.95,253.85 Z M722.4,254.15 L722.4,251.3 L721.65,251.3 C718.95,251.3 717.3,253.1 717.3,253.1 L717.3,251.6 L714.3,251.6 L714.3,266 L717.3,266 L717.3,258.2 C717.3,255.5 718.8,254 721.05,254 C721.8,254 722.4,254.15 722.4,254.15 Z M727.65,244.4 L724.65,250.85 L726.6,251.9 L730.35,245.9 L727.65,244.4 Z M735.75,269.9 L731.85,269.9 L731.85,272.3 L738.45,272.3 L738.45,244.7 L731.85,244.7 L731.85,247.1 L735.75,247.1 L735.75,269.9 Z M743.85,262.4 L740.85,268.85 L742.8,269.9 L746.55,263.9 L743.85,262.4 Z M742.8,253.25 C742.8,254.3 743.7,255.2 744.75,255.2 C745.8,255.2 746.7,254.3 746.7,253.25 C746.7,252.2 745.8,251.3 744.75,251.3 C743.7,251.3 742.8,252.2 742.8,253.25 Z M196.05,322.8 C196.05,326.85 199.5,330.3 203.55,330.3 C207.3,330.3 209.55,327.3 209.55,327.3 L207.6,325.35 C207.6,325.35 206.1,327.6 203.55,327.6 C201.15,327.6 199.05,325.5 199.05,322.8 C199.05,320.1 201.15,318 203.55,318 C206.1,318 207.45,320.1 207.45,320.1 L209.4,318.15 C209.4,318.15 207.3,315.3 203.55,315.3 C199.5,315.3 196.05,318.75 196.05,322.8 Z M223.65,322.8 C223.65,320.1 221.55,318 219.15,318 C216.75,318 214.65,320.1 214.65,322.8 C214.65,325.5 216.75,327.6 219.15,327.6 C221.55,327.6 223.65,325.5 223.65,322.8 Z M211.65,322.8 C211.65,318.75 215.1,315.3 219.15,315.3 C223.2,315.3 226.65,318.75 226.65,322.8 C226.65,326.85 223.2,330.3 219.15,330.3 C215.1,330.3 211.65,326.85 211.65,322.8 Z M232.95,315.6 L229.95,315.6 L229.95,330 L232.95,330 L232.95,322.2 C232.95,319.5 234.45,318 236.7,318 C238.65,318 240.15,319.5 240.15,321.6 L240.15,330 L243.15,330 L243.15,321.6 C243.15,317.7 240.75,315.3 237.3,315.3 C234.6,315.3 232.95,317.1 232.95,317.1 L232.95,315.6 Z M256.5,317.25 C256.5,317.25 255,315.3 251.85,315.3 C248.85,315.3 246.75,317.4 246.75,319.5 C246.75,324.6 254.1,323.1 254.1,325.8 C254.1,326.85 253.35,327.6 251.7,327.6 C249.45,327.6 248.1,325.8 248.1,325.8 L246.15,327.75 C246.15,327.75 247.95,330.3 251.7,330.3 C255,330.3 257.1,328.2 257.1,325.8 C257.1,320.7 249.75,322.2 249.75,319.5 C249.75,318.75 250.5,318 251.85,318 C253.5,318 254.55,319.2 254.55,319.2 L256.5,317.25 Z M262.2,313.8 C262.2,315 261.6,315.6 260.7,315.6 L259.2,315.6 L259.2,318.3 L261.9,318.3 L261.9,325.8 C261.9,328.8 263.4,330.3 266.1,330.3 C267.3,330.3 268.2,330 268.2,330 L268.2,327.3 C268.2,327.3 267.45,327.6 266.7,327.6 C265.65,327.6 264.9,326.85 264.9,325.77 L264.9,318.3 L267.9,318.3 L267.9,315.6 L264.9,315.6 L264.9,310.8 L262.2,310.8 L262.2,313.8 Z M280.8,315.6 L277.8,315.6 L277.8,330 L280.8,330 L280.8,322.2 C280.8,319.5 282.3,318 284.55,318 C286.5,318 288,319.5 288,321.6 L288,330 L291,330 L291,321.6 C291,317.7 288.6,315.3 285.15,315.3 C282.45,315.3 280.8,317.1 280.8,317.1 L280.8,315.6 Z M308.55,323.85 L297.3,323.85 C297.6,325.8 299.4,327.6 301.8,327.6 C304.65,327.6 306.15,325.35 306.15,325.35 L308.1,327.3 C308.1,327.3 305.85,330.3 301.8,330.3 C297.75,330.3 294.3,326.85 294.3,322.65 C294.3,318.6 297.6,315.3 301.65,315.3 C305.7,315.3 308.7,318.3 308.7,322.35 C308.7,323.25 308.55,323.85 308.55,323.85 Z M301.65,317.85 C299.4,317.85 297.9,319.35 297.42,321.3 L305.76,321.3 C305.4,319.35 303.9,317.85 301.65,317.85 Z M319.95,315.6 L316.65,325.5 L313.35,315.6 L310.2,315.6 L315.15,330 L318,330 L321.3,320.4 L324.6,330 L327.45,330 L332.4,315.6 L329.25,315.6 L325.95,325.5 L322.65,315.6 L319.95,315.6 Z M350.4,309 L350.4,324.15 L338.7,309 L335.85,309 L335.85,330 L339.15,330 L339.15,314.85 L350.85,330 L353.7,330 L353.7,309 L350.4,309 Z M360.45,319.95 C360.45,319.95 360.450001,319.949999 360.450002,319.949997 L360.45,319.95 Z M360.45,319.95 L358.5,318 C358.5,318 360.45,315.3 364.2,315.3 C367.8,315.3 370.2,317.7 370.2,320.7 L370.2,330 L367.2,330 L367.2,328.5 C367.2,328.5 365.55,330.3 362.85,330.3 C359.85,330.3 357.75,328.2 357.75,326.1 C357.75,323.7 359.4,322.05 361.95,321.6 L367.2,320.7 C367.2,319.2 366,318 364.2,318 C361.651749,318 360.451647,319.947326 360.450002,319.949997 L360.45,319.95 Z M363.3,327.6 C365.7,327.6 367.2,326.1 367.2,323.4 L367.2,323.1 L362.55,323.85 C361.5,324.03 360.75,324.75 360.75,325.8 C360.75,326.7 361.65,327.6 363.3,327.6 Z M393,330 L396,330 L396,321.6 C396,317.4 393.9,315.3 390.6,315.3 C387.3,315.3 385.65,317.7 385.65,317.7 C385.65,317.7 384.45,315.3 381.3,315.3 C378.9,315.3 377.4,317.1 377.4,317.1 L377.4,315.6 L374.4,315.6 L374.4,330 L377.4,330 L377.4,322.2 C377.4,319.5 378.9,318 380.7,318 C382.5,318 383.7,319.2 383.7,321.6 L383.7,330 L386.7,330 L386.7,322.2 C386.7,319.5 388.2,318 390,318 C391.8,318 393,319.2 393,321.6 L393,330 Z M413.55,323.85 L402.3,323.85 C402.6,325.8 404.4,327.6 406.8,327.6 C409.65,327.6 411.15,325.35 411.15,325.35 L413.1,327.3 C413.1,327.3 410.85,330.3 406.8,330.3 C402.75,330.3 399.3,326.85 399.3,322.65 C399.3,318.6 402.6,315.3 406.65,315.3 C410.7,315.3 413.7,318.3 413.7,322.35 C413.7,323.25 413.55,323.85 413.55,323.85 Z M406.65,317.85 C404.4,317.85 402.9,319.35 402.42,321.3 L410.76,321.3 C410.4,319.35 408.9,317.85 406.65,317.85 Z M426.15,317.25 C426.15,317.25 424.65,315.3 421.5,315.3 C418.5,315.3 416.4,317.4 416.4,319.5 C416.4,324.6 423.75,323.1 423.75,325.8 C423.75,326.85 423,327.6 421.35,327.6 C419.1,327.6 417.75,325.8 417.75,325.8 L415.8,327.75 C415.8,327.75 417.6,330.3 421.35,330.3 C424.65,330.3 426.75,328.2 426.75,325.8 C426.75,320.7 419.4,322.2 419.4,319.5 C419.4,318.75 420.15,318 421.5,318 C423.15,318 424.2,319.2 424.2,319.2 L426.15,317.25 Z M447.6,322.5 L435.3,322.5 L435.3,325.2 L447.6,325.2 L447.6,322.5 Z M447.6,317.1 L435.3,317.1 L435.3,319.8 L447.6,319.8 L447.6,317.1 Z M459.9,311.1 L463.8,311.1 L463.8,308.7 L457.2,308.7 L457.2,336.3 L463.8,336.3 L463.8,333.9 L459.9,333.9 L459.9,311.1 Z M470.1,328.35 C470.1,327.3 469.2,326.4 468.15,326.4 C467.1,326.4 466.2,327.3 466.2,328.35 C466.2,329.4 467.1,330.3 468.15,330.3 C469.2,330.3 470.1,329.4 470.1,328.35 Z M477.9,328.35 C477.9,327.3 477,326.4 475.95,326.4 C474.9,326.4 474,327.3 474,328.35 C474,329.4 474.9,330.3 475.95,330.3 C477,330.3 477.9,329.4 477.9,328.35 Z M485.7,328.35 C485.7,327.3 484.8,326.4 483.75,326.4 C482.7,326.4 481.8,327.3 481.8,328.35 C481.8,329.4 482.7,330.3 483.75,330.3 C484.8,330.3 485.7,329.4 485.7,328.35 Z M492.15,315.6 L489.15,315.6 L489.15,330 L492.15,330 L492.15,322.2 C492.15,319.5 493.65,318 495.9,318 C497.85,318 499.35,319.5 499.35,321.6 L499.35,330 L502.35,330 L502.35,321.6 C502.35,317.7 499.95,315.3 496.5,315.3 C493.8,315.3 492.15,317.1 492.15,317.1 L492.15,315.6 Z M518.1,330 L515.1,330 L515.1,328.5 C515.1,328.5 513.45,330.3 510.75,330.3 C507.75,330.3 505.65,328.2 505.65,326.1 C505.65,323.7 507.3,322.05 509.85,321.6 L515.1,320.7 C515.1,319.2 513.9,318 512.1,318 C509.55,318 508.35,319.95 508.35,319.95 L506.4,318 C506.4,318 508.35,315.3 512.1,315.3 C515.7,315.3 518.1,317.7 518.1,320.7 L518.1,330 Z M511.2,327.6 C513.6,327.6 515.1,326.1 515.1,323.4 L515.1,323.1 L510.45,323.85 C509.4,324.03 508.65,324.75 508.65,325.8 C508.65,326.7 509.55,327.6 511.2,327.6 Z M540.9,330 L543.9,330 L543.9,321.6 C543.9,317.4 541.8,315.3 538.5,315.3 C535.2,315.3 533.55,317.7 533.55,317.7 C533.55,317.7 532.35,315.3 529.2,315.3 C526.8,315.3 525.3,317.1 525.3,317.1 L525.3,315.6 L522.3,315.6 L522.3,330 L525.3,330 L525.3,322.2 C525.3,319.5 526.8,318 528.6,318 C530.4,318 531.6,319.2 531.6,321.6 L531.6,330 L534.6,330 L534.6,322.2 C534.6,319.5 536.1,318 537.9,318 C539.7,318 540.9,319.2 540.9,321.6 L540.9,330 Z M561.45,323.85 L550.2,323.85 C550.5,325.8 552.3,327.6 554.7,327.6 C557.55,327.6 559.05,325.35 559.05,325.35 L561,327.3 C561,327.3 558.75,330.3 554.7,330.3 C550.65,330.3 547.2,326.85 547.2,322.65 C547.2,318.6 550.5,315.3 554.55,315.3 C558.6,315.3 561.6,318.3 561.6,322.35 C561.6,323.25 561.45,323.85 561.45,323.85 Z M554.55,317.85 C552.3,317.85 550.8,319.35 550.32,321.3 L558.66,321.3 C558.3,319.35 556.8,317.85 554.55,317.85 Z M574.05,317.25 C574.05,317.25 572.55,315.3 569.4,315.3 C566.4,315.3 564.3,317.4 564.3,319.5 C564.3,324.6 571.65,323.1 571.65,325.8 C571.65,326.85 570.9,327.6 569.25,327.6 C567,327.6 565.65,325.8 565.65,325.8 L563.7,327.75 C563.7,327.75 565.5,330.3 569.25,330.3 C572.55,330.3 574.65,328.2 574.65,325.8 C574.65,320.7 567.3,322.2 567.3,319.5 C567.3,318.75 568.05,318 569.4,318 C571.05,318 572.1,319.2 572.1,319.2 L574.05,317.25 Z M579,326.4 L576,332.85 L577.95,333.9 L581.7,327.9 L579,326.4 Z M592.5,315.9 L595.5,309.45 L593.55,308.4 L589.8,314.4 L592.5,315.9 Z M599.1,330 L599.1,309 L607.95,309 C611.85,309 614.7,311.85 614.7,315.45 C614.7,320.1 610.5,321.6 610.5,321.6 L615.3,330 L611.7,330 L607.2,321.9 L602.4,321.9 L602.4,330 L599.1,330 Z M611.4,315.45 C611.4,313.5 609.9,312 607.95,312 L602.4,312 L602.4,318.9 L607.95,318.9 C609.9,318.9 611.4,317.4 611.4,315.45 Z M632.25,330 L632.25,327 L622.05,327 C624.6,322.2 632.25,321.3 632.25,315.15 C632.25,311.55 629.4,308.7 625.2,308.7 C619.65,308.7 618.45,313.5 618.45,313.5 L621.15,314.7 C621.15,314.7 622.05,311.7 625.2,311.7 C627.6,311.7 628.95,313.05 628.95,315.15 C628.95,320.7 618.3,320.4 618.3,330 L632.25,330 Z M645.75,319.8 L635.25,319.8 L635.25,322.5 L645.75,322.5 L645.75,319.8 Z M649.95,309 L657.3,309 C663.15,309 667.95,313.8 667.95,319.5 C667.95,325.2 663.15,330 657.3,330 L649.95,330 L649.95,309 Z M657.3,312 L653.25,312 L653.25,327 L657.3,327 C661.35,327 664.65,323.7 664.65,319.5 C664.65,315.3 661.35,312 657.3,312 Z M684.9,330 L684.9,327 L674.7,327 C677.25,322.2 684.9,321.3 684.9,315.15 C684.9,311.55 682.05,308.7 677.85,308.7 C672.3,308.7 671.1,313.5 671.1,313.5 L673.8,314.7 C673.8,314.7 674.7,311.7 677.85,311.7 C680.25,311.7 681.6,313.05 681.6,315.15 C681.6,320.7 670.95,320.4 670.95,330 L684.9,330 Z M690.3,308.4 L687.3,314.85 L689.25,315.9 L693,309.9 L690.3,308.4 Z M698.4,333.9 L694.5,333.9 L694.5,336.3 L701.1,336.3 L701.1,308.7 L694.5,308.7 L694.5,311.1 L698.4,311.1 L698.4,333.9 Z M706.5,326.4 L703.5,332.85 L705.45,333.9 L709.2,327.9 L706.5,326.4 Z M705.45,317.25 C705.45,318.3 706.35,319.2 707.4,319.2 C708.45,319.2 709.35,318.3 709.35,317.25 C709.35,316.2 708.45,315.3 707.4,315.3 C706.35,315.3 705.45,316.2 705.45,317.25 Z M208.65,372.7 L199.65,400.3 L195.9,400.3 L204.9,372.7 L208.65,372.7 Z M217.2,372.7 L208.2,400.3 L204.45,400.3 L213.45,372.7 L217.2,372.7 Z M230.55,376.15 L234.15,376.15 L234.15,372.7 L226.65,372.7 L226.65,400.3 L234.15,400.3 L234.15,396.85 L230.55,396.85 L230.55,376.15 Z M239.1,380.8 L242.25,373.9 L239.7,372.4 L235.65,378.85 L239.1,380.8 Z M263.55,373 L259.05,373 L259.05,381.4 L250.05,381.4 L250.05,373 L245.55,373 L245.55,394 L250.05,394 L250.05,385.45 L259.05,385.45 L259.05,394 L263.55,394 L263.55,373 Z M276.15,394 L276.15,392.5 C276.15,392.5 274.65,394.3 272.1,394.3 C269.1,394.3 267.15,392.35 267.15,390.1 C267.15,387.7 268.8,386.02 271.5,385.54 L276.15,384.7 C276.15,383.5 275.25,382.6 273.6,382.6 C271.35,382.6 270.3,384.1 270.3,384.1 L268.05,381.85 C268.05,381.85 270,379 273.9,379 C277.65,379 280.2,381.55 280.2,384.85 L280.2,394 L276.15,394 Z M273.15,391 C274.95,391 276.15,389.8 276.15,387.7 L276.15,387.25 L272.85,387.85 C271.8,388.03 271.2,388.6 271.2,389.5 C271.2,390.4 271.8,391 273.15,391 Z M288.15,379.3 L284.1,379.3 L284.1,394 L288.15,394 L288.15,386.35 C288.15,384.1 289.35,382.9 291.15,382.9 C292.8,382.9 294,384.1 294,385.9 L294,394 L298.05,394 L298.05,385.45 C298.05,381.4 295.65,379 292.35,379 C289.65,379 288.15,381.1 288.15,381.1 L288.15,379.3 Z M318.15,387.85 C318.15,389.35 316.95,390.55 314.7,390.55 C311.55,390.55 309.75,388.3 309.75,388.3 L307.05,391 C307.05,391 309.75,394.45 315,394.45 C320.1,394.45 322.95,391.6 322.95,387.85 C322.95,380.35 312.6,382.6 312.6,378.7 C312.6,377.5 313.65,376.45 315.45,376.45 C317.85,376.45 319.35,378.25 319.35,378.25 L322.05,375.4 C322.05,375.4 319.8,372.55 315.15,372.55 C310.65,372.55 307.8,375.4 307.8,378.7 C307.8,386.2 318.15,383.95 318.15,387.85 Z M329.4,386.65 C329.4,388.9 331.05,390.55 333,390.55 C334.95,390.55 336.6,388.9 336.6,386.65 C336.6,384.4 334.95,382.75 333,382.75 C331.05,382.75 329.4,384.4 329.4,386.65 Z M340.8,386.65 C340.8,390.7 337.2,394.3 333,394.3 C328.8,394.3 325.2,390.7 325.2,386.65 C325.2,382.6 328.8,379 333,379 C337.2,379 340.8,382.6 340.8,386.65 Z M348,373 L343.95,373 L343.95,394 L348,394 L348,373 Z M355.35,386.65 C355.35,388.9 357,390.55 358.95,390.55 C360.9,390.55 362.55,388.9 362.55,386.65 C362.55,384.4 360.9,382.75 358.95,382.75 C357,382.75 355.35,384.4 355.35,386.65 Z M366.75,386.65 C366.75,390.7 363.15,394.3 358.95,394.3 C354.75,394.3 351.15,390.7 351.15,386.65 C351.15,382.6 354.75,379 358.95,379 C363.15,379 366.75,382.6 366.75,386.65 Z M371.7,372.4 L368.55,379.3 L371.1,380.8 L375.15,374.35 L371.7,372.4 Z M378.9,389.65 L375.6,396.55 L378.3,397.9 L382.2,391.6 L378.9,389.65 Z M393.75,380.8 L396.9,373.9 L394.35,372.4 L390.3,378.85 L393.75,380.8 Z M400.2,373 L408,373 C414.15,373 418.8,377.65 418.8,383.5 C418.8,389.35 414.15,394 408,394 L400.2,394 L400.2,373 Z M408,377.05 L404.7,377.05 L404.7,389.95 L408,389.95 C411.45,389.95 414.3,387.1 414.3,383.5 C414.3,379.9 411.6,377.05 408,377.05 Z M430.2,394 L430.2,392.5 C430.2,392.5 428.7,394.3 426.15,394.3 C423.15,394.3 421.2,392.35 421.2,390.1 C421.2,387.7 422.85,386.02 425.55,385.54 L430.2,384.7 C430.2,383.5 429.3,382.6 427.65,382.6 C425.4,382.6 424.35,384.1 424.35,384.1 L422.1,381.85 C422.1,381.85 424.05,379 427.95,379 C431.7,379 434.25,381.55 434.25,384.85 L434.25,394 L430.2,394 Z M427.2,391 C429,391 430.2,389.8 430.2,387.7 L430.2,387.25 L426.9,387.85 C425.85,388.03 425.25,388.6 425.25,389.5 C425.25,390.4 425.85,391 427.2,391 Z M447,379.15 L446.4,379.15 C443.7,379.15 442.2,381.1 442.2,381.1 L442.2,379.3 L438.15,379.3 L438.15,394 L442.2,394 L442.2,386.95 C442.2,384.4 443.55,383.05 445.65,383.05 C446.55,383.05 447,383.2 447,383.2 L447,379.15 Z M451.05,377.65 C451.05,378.85 450.3,379.6 449.4,379.6 L448.05,379.6 L448.05,383.2 L450.6,383.2 L450.6,389.2 C450.6,392.65 452.25,394.3 455.25,394.3 C456.75,394.3 457.95,393.85 457.95,393.85 L457.95,390.4 C457.95,390.4 457.35,390.7 456.45,390.7 C455.4,390.7 454.65,389.95 454.65,389.05 L454.65,383.2 L457.65,383.2 L457.65,379.6 L454.65,379.6 L454.65,374.95 L451.05,374.95 L451.05,377.65 Z M465.6,373 L461.55,373 L461.55,394 L465.6,394 L465.6,386.35 C465.6,384.1 466.8,382.9 468.6,382.9 C470.25,382.9 471.45,384.1 471.45,385.9 L471.45,394 L475.5,394 L475.5,385.45 C475.5,381.4 473.1,379 469.8,379 C467.1,379 465.6,381.1 465.6,381.1 L465.6,373 Z M492.15,394 L484.35,373 L489.15,373 L494.55,388.6 L499.95,373 L504.75,373 L496.95,394 L492.15,394 Z M513.45,394 L513.45,392.5 C513.45,392.5 511.95,394.3 509.4,394.3 C506.4,394.3 504.45,392.35 504.45,390.1 C504.45,387.7 506.1,386.02 508.8,385.54 L513.45,384.7 C513.45,383.5 512.55,382.6 510.9,382.6 C508.65,382.6 507.6,384.1 507.6,384.1 L505.35,381.85 C505.35,381.85 507.3,379 511.2,379 C514.95,379 517.5,381.55 517.5,384.85 L517.5,394 L513.45,394 Z M510.45,391 C512.25,391 513.45,389.8 513.45,387.7 L513.45,387.25 L510.15,387.85 C509.1,388.03 508.5,388.6 508.5,389.5 C508.5,390.4 509.1,391 510.45,391 Z M527.55,379 C530.4,379 531.9,381.1 531.9,381.1 L531.9,373 L535.95,373 L535.95,394 L531.9,394 L531.9,392.2 C531.9,392.2 530.4,394.3 527.55,394.3 C523.8,394.3 520.5,391 520.5,386.65 C520.5,382.3 523.8,379 527.55,379 Z M528.3,390.7 C530.25,390.7 531.9,389.05 531.9,386.65 C531.9,384.25 530.25,382.6 528.3,382.6 C526.35,382.6 524.7,384.25 524.7,386.65 C524.7,389.05 526.35,390.7 528.3,390.7 Z M553.95,388 L543.3,388 C543.6,389.5 544.95,390.85 547.2,390.85 C549.75,390.85 551.1,389.05 551.1,389.05 L553.2,391.75 C553.2,391.75 550.95,394.3 546.9,394.3 C542.55,394.3 539.1,390.85 539.1,386.65 C539.1,382.45 542.55,379 546.75,379 C550.95,379 554.1,382.15 554.1,386.35 C554.1,387.4 553.95,388 553.95,388 Z M546.75,382.45 C544.95,382.45 543.75,383.65 543.3,385.15 L550.05,385.15 C549.75,383.65 548.55,382.45 546.75,382.45 Z M565.95,379.15 L565.35,379.15 C562.65,379.15 561.15,381.1 561.15,381.1 L561.15,379.3 L557.1,379.3 L557.1,394 L561.15,394 L561.15,386.95 C561.15,384.4 562.5,383.05 564.6,383.05 C565.5,383.05 565.95,383.2 565.95,383.2 L565.95,379.15 Z M571.35,372.4 L568.2,379.3 L570.75,380.8 L574.8,374.35 L571.35,372.4 Z M579.9,396.85 L576.3,396.85 L576.3,400.3 L583.8,400.3 L583.8,372.7 L576.3,372.7 L576.3,376.15 L579.9,376.15 L579.9,396.85 Z M207.18,421.35 C207.18,421.35 207.17613,421.35492 207.16849,421.3643 L207.18,421.35 Z M207.16849,421.3643 L207.18,421.35 L208.77,423.3 C208.77,423.3 206.22,426.3 202.47,426.3 C198.93,426.3 196.05,423.24 196.05,419.88 C196.05,415.47 200.1,411.3 204.81,411.3 C208.56,411.3 210.54,414.15 210.54,414.15 L208.32,415.98 C208.32,415.98 207.06,414 204.51,414 C201.81,414 199.11,416.55 199.11,419.73 C199.11,421.89 200.79,423.6 202.86,423.6 C205.290757,423.6 207.012758,421.555508 207.16849,421.3643 Z M218.7,423.6 C221.4,423.6 223.95,420.9 223.95,418.14 C223.95,415.77 222.24,414 219.93,414 C217.35,414 214.71,416.49 214.71,419.49 C214.71,421.86 216.45,423.6 218.7,423.6 Z M211.65,419.58 C211.65,415.38 215.7,411.3 220.2,411.3 C224.1,411.3 227.01,414.39 227.01,418.05 C227.01,422.46 222.69,426.3 218.43,426.3 C214.5,426.3 211.65,423.21 211.65,419.58 Z M234.66,411.6 L231.66,411.6 L228.6,426 L231.6,426 L233.22,418.32 C233.79,415.62 235.53,414 237.78,414 C239.46,414 240.66,415.11 240.66,416.79 C240.66,417.06 240.63,417.33 240.57,417.6 L238.8,426 L241.8,426 L243.57,417.6 C243.69,417.06 243.75,416.55 243.75,416.07 C243.75,413.07 241.62,411.3 238.65,411.3 C235.95,411.3 234.33,413.1 234.33,413.1 L234.66,411.6 Z M257.85,413.25 C257.85,413.25 256.32,411.3 253.17,411.3 C249.6,411.3 247.5,413.7 247.5,416.07 C247.5,419.91 253.65,419.55 253.65,421.71 C253.65,422.91 252.63,423.6 250.92,423.6 C248.67,423.6 247.53,421.86 247.53,421.86 L245.25,423.75 C245.25,423.75 246.96,426.3 250.71,426.3 C254.43,426.3 256.71,423.99 256.71,421.23 C256.71,417.39 250.59,417.78 250.59,415.59 C250.59,414.78 251.43,414 252.99,414 C254.64,414 255.57,415.14 255.57,415.14 L257.85,413.25 Z M266.55,423.6 C269.25,423.6 271.8,420.9 271.8,418.14 C271.8,415.77 270.09,414 267.78,414 C265.2,414 262.56,416.49 262.56,419.49 C262.56,421.86 264.3,423.6 266.55,423.6 Z M259.5,419.58 C259.5,415.38 263.55,411.3 268.05,411.3 C271.95,411.3 274.86,414.39 274.86,418.05 C274.86,422.46 270.54,426.3 266.28,426.3 C262.35,426.3 259.5,423.21 259.5,419.58 Z M284.19,405 L281.19,405 L276.75,426 L279.75,426 L284.19,405 Z M298.89,419.85 L287.61,419.85 C287.7,421.86 289.2,423.6 291.45,423.6 C294.3,423.6 296.13,421.29 296.13,421.29 L297.72,423.3 C297.72,423.3 295.26,426.3 291.21,426.3 C287.67,426.3 284.73,423.3 284.73,419.85 C284.73,415.11 288.78,411.3 293.37,411.3 C296.85,411.3 299.55,413.55 299.55,416.76 C299.55,418.11 298.92,419.94 298.89,419.85 Z M293.19,413.85 C291.06,413.85 289.05,415.32 288.15,417.3 L296.64,417.3 C296.73,415.35 295.47,413.85 293.19,413.85 Z M304.89,424.17 C304.89,423.21 304.14,422.4 303.12,422.4 C302.04,422.4 300.9,423.39 300.9,424.5 C300.9,425.46 301.62,426.3 302.67,426.3 C303.84,426.3 304.89,425.25 304.89,424.17 Z M315.69,405 L312.69,405 L308.25,426 L311.25,426 L315.69,405 Z M323.25,423.6 C325.95,423.6 328.5,420.9 328.5,418.14 C328.5,415.77 326.79,414 324.48,414 C321.9,414 319.26,416.49 319.26,419.49 C319.26,421.86 321,423.6 323.25,423.6 Z M316.2,419.58 C316.2,415.38 320.25,411.3 324.75,411.3 C328.65,411.3 331.56,414.39 331.56,418.05 C331.56,422.46 327.24,426.3 322.98,426.3 C319.05,426.3 316.2,423.21 316.2,419.58 Z M343.53,425.13 L343.74,424.02 C343.74,424.02 342.06,425.7 339.36,425.7 C336.24,425.7 333.66,422.91 333.66,419.64 C333.66,414.87 337.71,411.3 341.76,411.3 C344.46,411.3 346.05,413.22 346.05,413.22 L346.41,411.6 L349.41,411.6 L346.53,425.1 C345.66,429.15 342.45,432.3 338.4,432.3 C334.05,432.3 331.98,429.3 331.98,429.3 L334.26,427.41 C334.26,427.41 335.73,429.6 338.58,429.6 C340.95,429.6 342.99,427.8 343.53,425.13 Z M341.7,414 C339.03,414 336.72,416.64 336.72,419.37 C336.72,421.41 338.22,423 340.05,423 C342.39,423 345.06,420.51 345.06,417.48 C345.06,415.47 343.5,414 341.7,414 Z M355.29,418.5 C354.96,420.06 354.81,421.53 354.81,422.88 C354.81,428.01 356.73,431.4 356.73,431.4 L354.21,432.75 C354.21,432.75 352.05,429 352.05,423.27 C352.05,411.84 360.3,404.19 360.27,404.25 L362.25,405.63 C362.25,405.63 356.88,411 355.29,418.5 Z M366.81,411.6 L366.48,413.1 C366.48,413.1 368.1,411.3 370.8,411.3 C373.77,411.3 375.9,413.07 375.9,416.07 C375.9,416.55 375.84,417.06 375.72,417.6 L373.95,426 L370.95,426 L372.72,417.6 C372.78,417.33 372.81,417.06 372.81,416.79 C372.81,415.11 371.61,414 369.93,414 C367.68,414 365.94,415.62 365.37,418.32 L363.75,426 L360.75,426 L363.81,411.6 L366.81,411.6 Z M385.2,423.6 C387.69,423.6 390.6,420.9 390.6,417.72 C390.6,415.53 388.92,414 386.97,414 C384.42,414 381.66,416.64 381.66,419.82 C381.66,421.98 383.25,423.6 385.2,423.6 Z M387.09,411.3 C389.94,411.3 391.62,413.4 391.62,413.4 L392.01,411.6 L395.01,411.6 L391.95,426 L388.95,426 L389.25,424.47 C389.25,424.47 387.45,426.3 384.6,426.3 C381.36,426.3 378.6,423.51 378.6,420.12 C378.6,415.17 382.86,411.3 387.09,411.3 Z M414.9,426 L417.9,426 L419.67,417.6 C419.82,416.91 419.88,416.31 419.88,415.74 C419.88,412.77 418.02,411.3 415.26,411.3 C411.96,411.3 410.1,413.7 410.1,413.7 C410.1,413.7 409.11,411.3 405.96,411.3 C403.56,411.3 402.03,413.1 402.03,413.1 L402.36,411.6 L399.36,411.6 L396.3,426 L399.3,426 L400.95,418.2 C401.52,415.5 403.29,414 405.09,414 C406.56,414 407.49,414.81 407.49,416.43 C407.49,416.79 407.46,417.18 407.37,417.6 L405.6,426 L408.6,426 L410.25,418.2 C410.82,415.5 412.59,414 414.39,414 C415.86,414 416.79,414.81 416.79,416.43 C416.79,416.79 416.76,417.18 416.67,417.6 L414.9,426 Z M436.74,419.85 L425.46,419.85 C425.55,421.86 427.05,423.6 429.3,423.6 C432.15,423.6 433.98,421.29 433.98,421.29 L435.57,423.3 C435.57,423.3 433.11,426.3 429.06,426.3 C425.52,426.3 422.58,423.3 422.58,419.85 C422.58,415.11 426.63,411.3 431.22,411.3 C434.7,411.3 437.4,413.55 437.4,416.76 C437.4,418.11 436.77,419.94 436.74,419.85 Z M431.04,413.85 C428.91,413.85 426.9,415.32 426,417.3 L434.49,417.3 C434.58,415.35 433.32,413.85 431.04,413.85 Z M450.75,413.25 L448.47,415.14 C448.47,415.14 447.54,414 445.89,414 C444.33,414 443.49,414.78 443.49,415.59 C443.49,417.78 449.61,417.39 449.61,421.23 C449.61,423.99 447.33,426.3 443.61,426.3 C439.86,426.3 438.15,423.75 438.15,423.75 L440.43,421.86 C440.43,421.86 441.57,423.6 443.82,423.6 C445.53,423.6 446.55,422.91 446.55,421.71 C446.55,419.55 440.4,419.91 440.4,416.07 C440.4,413.7 442.5,411.3 446.07,411.3 C449.22,411.3 450.75,413.25 450.75,413.25 Z M456.69,418.5 C457.02,416.97 457.14,415.5 457.14,414.15 C457.14,409.02 455.22,405.6 455.22,405.6 L457.77,404.25 C457.77,404.25 459.93,408.03 459.93,413.76 C459.93,425.19 451.65,432.81 451.71,432.75 L449.73,431.37 C449.73,431.37 455.1,426 456.69,418.5 Z M468.78,413.07 C468.78,412.11 468.03,411.3 467.01,411.3 C465.93,411.3 464.79,412.29 464.79,413.4 C464.79,414.36 465.51,415.2 466.56,415.2 C467.73,415.2 468.78,414.15 468.78,413.07 Z M463.83,422.34 L466.32,423.9 L461.31,429.9 L459.54,428.82 L463.83,422.34 Z M208.65,468.7 L199.65,496.3 L195.9,496.3 L204.9,468.7 L208.65,468.7 Z M217.2,468.7 L208.2,496.3 L204.45,496.3 L213.45,468.7 L217.2,468.7 Z M230.55,472.15 L234.15,472.15 L234.15,468.7 L226.65,468.7 L226.65,496.3 L234.15,496.3 L234.15,492.85 L230.55,492.85 L230.55,472.15 Z M239.1,476.8 L242.25,469.9 L239.7,468.4 L235.65,474.85 L239.1,476.8 Z M263.55,469 L259.05,469 L259.05,477.4 L250.05,477.4 L250.05,469 L245.55,469 L245.55,490 L250.05,490 L250.05,481.45 L259.05,481.45 L259.05,490 L263.55,490 L263.55,469 Z M276.15,490 L276.15,488.5 C276.15,488.5 274.65,490.3 272.1,490.3 C269.1,490.3 267.15,488.35 267.15,486.1 C267.15,483.7 268.8,482.02 271.5,481.54 L276.15,480.7 C276.15,479.5 275.25,478.6 273.6,478.6 C271.35,478.6 270.3,480.1 270.3,480.1 L268.05,477.85 C268.05,477.85 270,475 273.9,475 C277.65,475 280.2,477.55 280.2,480.85 L280.2,490 L276.15,490 Z M273.15,487 C274.95,487 276.15,485.8 276.15,483.7 L276.15,483.25 L272.85,483.85 C271.8,484.03 271.2,484.6 271.2,485.5 C271.2,486.4 271.8,487 273.15,487 Z M288.15,475.3 L284.1,475.3 L284.1,490 L288.15,490 L288.15,482.35 C288.15,480.1 289.35,478.9 291.15,478.9 C292.8,478.9 294,480.1 294,481.9 L294,490 L298.05,490 L298.05,481.45 C298.05,477.4 295.65,475 292.35,475 C289.65,475 288.15,477.1 288.15,477.1 L288.15,475.3 Z M318.15,483.85 C318.15,485.35 316.95,486.55 314.7,486.55 C311.55,486.55 309.75,484.3 309.75,484.3 L307.05,487 C307.05,487 309.75,490.45 315,490.45 C320.1,490.45 322.95,487.6 322.95,483.85 C322.95,476.35 312.6,478.6 312.6,474.7 C312.6,473.5 313.65,472.45 315.45,472.45 C317.85,472.45 319.35,474.25 319.35,474.25 L322.05,471.4 C322.05,471.4 319.8,468.55 315.15,468.55 C310.65,468.55 307.8,471.4 307.8,474.7 C307.8,482.2 318.15,479.95 318.15,483.85 Z M329.4,482.65 C329.4,484.9 331.05,486.55 333,486.55 C334.95,486.55 336.6,484.9 336.6,482.65 C336.6,480.4 334.95,478.75 333,478.75 C331.05,478.75 329.4,480.4 329.4,482.65 Z M340.8,482.65 C340.8,486.7 337.2,490.3 333,490.3 C328.8,490.3 325.2,486.7 325.2,482.65 C325.2,478.6 328.8,475 333,475 C337.2,475 340.8,478.6 340.8,482.65 Z M348,469 L343.95,469 L343.95,490 L348,490 L348,469 Z M355.35,482.65 C355.35,484.9 357,486.55 358.95,486.55 C360.9,486.55 362.55,484.9 362.55,482.65 C362.55,480.4 360.9,478.75 358.95,478.75 C357,478.75 355.35,480.4 355.35,482.65 Z M366.75,482.65 C366.75,486.7 363.15,490.3 358.95,490.3 C354.75,490.3 351.15,486.7 351.15,482.65 C351.15,478.6 354.75,475 358.95,475 C363.15,475 366.75,478.6 366.75,482.65 Z M371.7,468.4 L368.55,475.3 L371.1,476.8 L375.15,470.35 L371.7,468.4 Z M378.9,485.65 L375.6,492.55 L378.3,493.9 L382.2,487.6 L378.9,485.65 Z M393.75,476.8 L396.9,469.9 L394.35,468.4 L390.3,474.85 L393.75,476.8 Z M400.2,469 L408,469 C414.15,469 418.8,473.65 418.8,479.5 C418.8,485.35 414.15,490 408,490 L400.2,490 L400.2,469 Z M408,473.05 L404.7,473.05 L404.7,485.95 L408,485.95 C411.45,485.95 414.3,483.1 414.3,479.5 C414.3,475.9 411.6,473.05 408,473.05 Z M430.2,490 L430.2,488.5 C430.2,488.5 428.7,490.3 426.15,490.3 C423.15,490.3 421.2,488.35 421.2,486.1 C421.2,483.7 422.85,482.02 425.55,481.54 L430.2,480.7 C430.2,479.5 429.3,478.6 427.65,478.6 C425.4,478.6 424.35,480.1 424.35,480.1 L422.1,477.85 C422.1,477.85 424.05,475 427.95,475 C431.7,475 434.25,477.55 434.25,480.85 L434.25,490 L430.2,490 Z M427.2,487 C429,487 430.2,485.8 430.2,483.7 L430.2,483.25 L426.9,483.85 C425.85,484.03 425.25,484.6 425.25,485.5 C425.25,486.4 425.85,487 427.2,487 Z M447,475.15 L446.4,475.15 C443.7,475.15 442.2,477.1 442.2,477.1 L442.2,475.3 L438.15,475.3 L438.15,490 L442.2,490 L442.2,482.95 C442.2,480.4 443.55,479.05 445.65,479.05 C446.55,479.05 447,479.2 447,479.2 L447,475.15 Z M451.05,473.65 C451.05,474.85 450.3,475.6 449.4,475.6 L448.05,475.6 L448.05,479.2 L450.6,479.2 L450.6,485.2 C450.6,488.65 452.25,490.3 455.25,490.3 C456.75,490.3 457.95,489.85 457.95,489.85 L457.95,486.4 C457.95,486.4 457.35,486.7 456.45,486.7 C455.4,486.7 454.65,485.95 454.65,485.05 L454.65,479.2 L457.65,479.2 L457.65,475.6 L454.65,475.6 L454.65,470.95 L451.05,470.95 L451.05,473.65 Z M465.6,469 L461.55,469 L461.55,490 L465.6,490 L465.6,482.35 C465.6,480.1 466.8,478.9 468.6,478.9 C470.25,478.9 471.45,480.1 471.45,481.9 L471.45,490 L475.5,490 L475.5,481.45 C475.5,477.4 473.1,475 469.8,475 C467.1,475 465.6,477.1 465.6,477.1 L465.6,469 Z M492.15,490 L484.35,469 L489.15,469 L494.55,484.6 L499.95,469 L504.75,469 L496.95,490 L492.15,490 Z M513.45,490 L513.45,488.5 C513.45,488.5 511.95,490.3 509.4,490.3 C506.4,490.3 504.45,488.35 504.45,486.1 C504.45,483.7 506.1,482.02 508.8,481.54 L513.45,480.7 C513.45,479.5 512.55,478.6 510.9,478.6 C508.65,478.6 507.6,480.1 507.6,480.1 L505.35,477.85 C505.35,477.85 507.3,475 511.2,475 C514.95,475 517.5,477.55 517.5,480.85 L517.5,490 L513.45,490 Z M510.45,487 C512.25,487 513.45,485.8 513.45,483.7 L513.45,483.25 L510.15,483.85 C509.1,484.03 508.5,484.6 508.5,485.5 C508.5,486.4 509.1,487 510.45,487 Z M527.55,475 C530.4,475 531.9,477.1 531.9,477.1 L531.9,469 L535.95,469 L535.95,490 L531.9,490 L531.9,488.2 C531.9,488.2 530.4,490.3 527.55,490.3 C523.8,490.3 520.5,487 520.5,482.65 C520.5,478.3 523.8,475 527.55,475 Z M528.3,486.7 C530.25,486.7 531.9,485.05 531.9,482.65 C531.9,480.25 530.25,478.6 528.3,478.6 C526.35,478.6 524.7,480.25 524.7,482.65 C524.7,485.05 526.35,486.7 528.3,486.7 Z M553.95,484 L543.3,484 C543.6,485.5 544.95,486.85 547.2,486.85 C549.75,486.85 551.1,485.05 551.1,485.05 L553.2,487.75 C553.2,487.75 550.95,490.3 546.9,490.3 C542.55,490.3 539.1,486.85 539.1,482.65 C539.1,478.45 542.55,475 546.75,475 C550.95,475 554.1,478.15 554.1,482.35 C554.1,483.4 553.95,484 553.95,484 Z M546.75,478.45 C544.95,478.45 543.75,479.65 543.3,481.15 L550.05,481.15 C549.75,479.65 548.55,478.45 546.75,478.45 Z M565.95,475.15 L565.35,475.15 C562.65,475.15 561.15,477.1 561.15,477.1 L561.15,475.3 L557.1,475.3 L557.1,490 L561.15,490 L561.15,482.95 C561.15,480.4 562.5,479.05 564.6,479.05 C565.5,479.05 565.95,479.2 565.95,479.2 L565.95,475.15 Z M571.35,468.4 L568.2,475.3 L570.75,476.8 L574.8,470.35 L571.35,468.4 Z M578.55,485.65 L575.25,492.55 L577.95,493.9 L581.85,487.6 L578.55,485.65 Z M593.4,476.8 L596.55,469.9 L594,468.4 L589.95,474.85 L593.4,476.8 Z M599.85,490 L599.85,469 L609.15,469 C613.35,469 616.35,472.06 616.35,475.9 C616.35,480.4 612.6,482.05 612.6,482.05 L617.1,490 L612.3,490 L608.25,482.65 L604.35,482.65 L604.35,490 L599.85,490 Z M611.85,475.9 C611.85,474.25 610.65,473.05 609,473.05 L604.35,473.05 L604.35,478.6 L609,478.6 C610.65,478.6 611.85,477.4 611.85,475.9 Z M634.2,490 L634.2,485.8 L625.2,485.8 C627.6,482.05 634.2,481 634.2,475.3 C634.2,471.55 631.2,468.55 626.85,468.55 C621,468.55 619.5,473.5 619.5,473.5 L623.25,475.3 C623.25,475.3 624,472.75 626.55,472.75 C628.5,472.75 629.55,473.8 629.55,475.45 C629.55,480.1 619.5,480.1 619.5,490 L634.2,490 Z M647.7,479.35 L636.9,479.35 L636.9,482.95 L647.7,482.95 L647.7,479.35 Z M651.45,469 L659.25,469 C665.4,469 670.05,473.65 670.05,479.5 C670.05,485.35 665.4,490 659.25,490 L651.45,490 L651.45,469 Z M659.25,473.05 L655.95,473.05 L655.95,485.95 L659.25,485.95 C662.7,485.95 665.55,483.1 665.55,479.5 C665.55,475.9 662.85,473.05 659.25,473.05 Z M687.3,490 L687.3,485.8 L678.3,485.8 C680.7,482.05 687.3,481 687.3,475.3 C687.3,471.55 684.3,468.55 679.95,468.55 C674.1,468.55 672.6,473.5 672.6,473.5 L676.35,475.3 C676.35,475.3 677.1,472.75 679.65,472.75 C681.6,472.75 682.65,473.8 682.65,475.45 C682.65,480.1 672.6,480.1 672.6,490 L687.3,490 Z M692.7,468.4 L689.55,475.3 L692.1,476.8 L696.15,470.35 L692.7,468.4 Z M701.25,492.85 L697.65,492.85 L697.65,496.3 L705.15,496.3 L705.15,468.7 L697.65,468.7 L697.65,472.15 L701.25,472.15 L701.25,492.85 Z M196.05,515.88 C196.05,519.24 198.93,522.3 202.47,522.3 C206.22,522.3 208.77,519.3 208.77,519.3 L207.18,517.35 C207.18,517.35 205.41,519.6 202.86,519.6 C200.79,519.6 199.11,517.89 199.11,515.73 C199.11,512.55 201.81,510 204.51,510 C207.06,510 208.32,511.98 208.32,511.98 L210.54,510.15 C210.54,510.15 208.56,507.3 204.81,507.3 C200.1,507.3 196.05,511.47 196.05,515.88 Z M218.7,519.6 C221.4,519.6 223.95,516.9 223.95,514.14 C223.95,511.77 222.24,510 219.93,510 C217.35,510 214.71,512.49 214.71,515.49 C214.71,517.86 216.45,519.6 218.7,519.6 Z M211.65,515.58 C211.65,511.38 215.7,507.3 220.2,507.3 C224.1,507.3 227.01,510.39 227.01,514.05 C227.01,518.46 222.69,522.3 218.43,522.3 C214.5,522.3 211.65,519.21 211.65,515.58 Z M234.66,507.6 L231.66,507.6 L228.6,522 L231.6,522 L233.22,514.32 C233.79,511.62 235.53,510 237.78,510 C239.46,510 240.66,511.11 240.66,512.79 C240.66,513.06 240.63,513.33 240.57,513.6 L238.8,522 L241.8,522 L243.57,513.6 C243.69,513.06 243.75,512.55 243.75,512.07 C243.75,509.07 241.62,507.3 238.65,507.3 C235.95,507.3 234.33,509.1 234.33,509.1 L234.66,507.6 Z M257.85,509.25 C257.85,509.25 256.32,507.3 253.17,507.3 C249.6,507.3 247.5,509.7 247.5,512.07 C247.5,515.91 253.65,515.55 253.65,517.71 C253.65,518.91 252.63,519.6 250.92,519.6 C248.67,519.6 247.53,517.86 247.53,517.86 L245.25,519.75 C245.25,519.75 246.96,522.3 250.71,522.3 C254.43,522.3 256.71,519.99 256.71,517.23 C256.71,513.39 250.59,513.78 250.59,511.59 C250.59,510.78 251.43,510 252.99,510 C254.64,510 255.57,511.14 255.57,511.14 L257.85,509.25 Z M266.55,519.6 C269.25,519.6 271.8,516.9 271.8,514.14 C271.8,511.77 270.09,510 267.78,510 C265.2,510 262.56,512.49 262.56,515.49 C262.56,517.86 264.3,519.6 266.55,519.6 Z M259.5,515.58 C259.5,511.38 263.55,507.3 268.05,507.3 C271.95,507.3 274.86,510.39 274.86,514.05 C274.86,518.46 270.54,522.3 266.28,522.3 C262.35,522.3 259.5,519.21 259.5,515.58 Z M284.19,501 L281.19,501 L276.75,522 L279.75,522 L284.19,501 Z M298.89,515.85 L287.61,515.85 C287.7,517.86 289.2,519.6 291.45,519.6 C294.3,519.6 296.13,517.29 296.13,517.29 L297.72,519.3 C297.72,519.3 295.26,522.3 291.21,522.3 C287.67,522.3 284.73,519.3 284.73,515.85 C284.73,511.11 288.78,507.3 293.37,507.3 C296.85,507.3 299.55,509.55 299.55,512.76 C299.55,514.11 298.92,515.94 298.89,515.85 Z M293.19,509.85 C291.06,509.85 289.05,511.32 288.15,513.3 L296.64,513.3 C296.73,511.35 295.47,509.85 293.19,509.85 Z M304.89,520.17 C304.89,519.21 304.14,518.4 303.12,518.4 C302.04,518.4 300.9,519.39 300.9,520.5 C300.9,521.46 301.62,522.3 302.67,522.3 C303.84,522.3 304.89,521.25 304.89,520.17 Z M315.69,501 L312.69,501 L308.25,522 L311.25,522 L315.69,501 Z M323.25,519.6 C325.95,519.6 328.5,516.9 328.5,514.14 C328.5,511.77 326.79,510 324.48,510 C321.9,510 319.26,512.49 319.26,515.49 C319.26,517.86 321,519.6 323.25,519.6 Z M316.2,515.58 C316.2,511.38 320.25,507.3 324.75,507.3 C328.65,507.3 331.56,510.39 331.56,514.05 C331.56,518.46 327.24,522.3 322.98,522.3 C319.05,522.3 316.2,519.21 316.2,515.58 Z M343.53,521.13 L343.74,520.02 C343.74,520.02 342.06,521.7 339.36,521.7 C336.24,521.7 333.66,518.91 333.66,515.64 C333.66,510.87 337.71,507.3 341.76,507.3 C344.46,507.3 346.05,509.22 346.05,509.22 L346.41,507.6 L349.41,507.6 L346.53,521.1 C345.66,525.15 342.45,528.3 338.4,528.3 C334.05,528.3 331.98,525.3 331.98,525.3 L334.26,523.41 C334.26,523.41 335.73,525.6 338.58,525.6 C340.95,525.6 342.99,523.8 343.53,521.13 Z M341.7,510 C339.03,510 336.72,512.64 336.72,515.37 C336.72,517.41 338.22,519 340.05,519 C342.39,519 345.06,516.51 345.06,513.48 C345.06,511.47 343.5,510 341.7,510 Z M355.29,514.5 C354.96,516.06 354.81,517.53 354.81,518.88 C354.81,524.01 356.73,527.4 356.73,527.4 L354.21,528.75 C354.21,528.75 352.05,525 352.05,519.27 C352.05,507.84 360.3,500.19 360.27,500.25 L362.25,501.63 C362.25,501.63 356.88,507 355.29,514.5 Z M366.81,507.6 L366.48,509.1 C366.48,509.1 368.1,507.3 370.8,507.3 C373.77,507.3 375.9,509.07 375.9,512.07 C375.9,512.55 375.84,513.06 375.72,513.6 L373.95,522 L370.95,522 L372.72,513.6 C372.78,513.33 372.81,513.06 372.81,512.79 C372.81,511.11 371.61,510 369.93,510 C367.68,510 365.94,511.62 365.37,514.32 L363.75,522 L360.75,522 L363.81,507.6 L366.81,507.6 Z M392.79,515.85 L381.51,515.85 C381.6,517.86 383.1,519.6 385.35,519.6 C388.2,519.6 390.03,517.29 390.03,517.29 L391.62,519.3 C391.62,519.3 389.16,522.3 385.11,522.3 C381.57,522.3 378.63,519.3 378.63,515.85 C378.63,511.11 382.68,507.3 387.27,507.3 C390.75,507.3 393.45,509.55 393.45,512.76 C393.45,514.11 392.82,515.94 392.79,515.85 Z M387.09,509.85 C384.96,509.85 382.95,511.32 382.05,513.3 L390.54,513.3 C390.63,511.35 389.37,509.85 387.09,509.85 Z M405.87,507.6 L400.44,517.5 L399.27,507.6 L396.21,507.6 L398.1,522 L401.01,522 L406.35,512.4 L407.61,522 L410.4,522 L418.41,507.6 L415.2,507.6 L409.74,517.5 L408.57,507.6 L405.87,507.6 Z M437.79,501 L434.55,516.27 L425.85,501 L423.24,501 L418.8,522 L422.1,522 L425.34,506.73 L434.04,522 L436.65,522 L441.09,501 L437.79,501 Z M448.65,519.6 C451.14,519.6 454.05,516.9 454.05,513.72 C454.05,511.53 452.37,510 450.42,510 C447.87,510 445.11,512.64 445.11,515.82 C445.11,517.98 446.7,519.6 448.65,519.6 Z M450.54,507.3 C453.39,507.3 455.07,509.4 455.07,509.4 L455.46,507.6 L458.46,507.6 L455.4,522 L452.4,522 L452.7,520.47 C452.7,520.47 450.9,522.3 448.05,522.3 C444.81,522.3 442.05,519.51 442.05,516.12 C442.05,511.17 446.31,507.3 450.54,507.3 Z M465.480298,509.099651 L465.48,509.1 C465.48,509.1 465.480099,509.099883 465.480298,509.099651 Z M465.480001,509.099997 L465.480298,509.099651 C465.504708,509.071115 467.029334,507.3 469.41,507.3 C472.56,507.3 473.55,509.7 473.55,509.7 C473.55,509.7 475.41,507.3 478.71,507.3 C481.47,507.3 483.33,508.77 483.33,511.74 C483.33,512.31 483.27,512.91 483.12,513.6 L481.35,522 L478.35,522 L480.12,513.6 C480.21,513.18 480.24,512.79 480.24,512.43 C480.24,510.81 479.31,510 477.84,510 C476.04,510 474.27,511.5 473.7,514.2 L472.05,522 L469.05,522 L470.82,513.6 C470.91,513.18 470.94,512.79 470.94,512.43 C470.94,510.81 470.01,510 468.54,510 C466.74,510 464.97,511.5 464.4,514.2 L462.75,522 L459.75,522 L462.81,507.6 L465.81,507.6 L465.480001,509.099997 Z M500.19,515.85 L488.91,515.85 C489,517.86 490.5,519.6 492.75,519.6 C495.6,519.6 497.43,517.29 497.43,517.29 L499.02,519.3 C499.02,519.3 496.56,522.3 492.51,522.3 C488.97,522.3 486.03,519.3 486.03,515.85 C486.03,511.11 490.08,507.3 494.67,507.3 C498.15,507.3 500.85,509.55 500.85,512.76 C500.85,514.11 500.22,515.94 500.19,515.85 Z M494.49,509.85 C492.36,509.85 490.35,511.32 489.45,513.3 L497.94,513.3 C498.03,511.35 496.77,509.85 494.49,509.85 Z M514.2,509.25 L511.92,511.14 C511.92,511.14 510.99,510 509.34,510 C507.78,510 506.94,510.78 506.94,511.59 C506.94,513.78 513.06,513.39 513.06,517.23 C513.06,519.99 510.78,522.3 507.06,522.3 C503.31,522.3 501.6,519.75 501.6,519.75 L503.88,517.86 C503.88,517.86 505.02,519.6 507.27,519.6 C508.98,519.6 510,518.91 510,517.71 C510,515.55 503.85,515.91 503.85,512.07 C503.85,509.7 505.95,507.3 509.52,507.3 C512.67,507.3 514.2,509.25 514.2,509.25 Z M520.14,514.5 C520.47,512.97 520.59,511.5 520.59,510.15 C520.59,505.02 518.67,501.6 518.67,501.6 L521.22,500.25 C521.22,500.25 523.38,504.03 523.38,509.76 C523.38,521.19 515.1,528.81 515.16,528.75 L513.18,527.37 C513.18,527.37 518.55,522 520.14,514.5 Z M532.23,509.07 C532.23,508.11 531.48,507.3 530.46,507.3 C529.38,507.3 528.24,508.29 528.24,509.4 C528.24,510.36 528.96,511.2 530.01,511.2 C531.18,511.2 532.23,510.15 532.23,509.07 Z M527.28,518.34 L529.77,519.9 L524.76,525.9 L522.99,524.82 L527.28,518.34 Z" id="const-names-=-[‘Han" fill="#545E6F"></path>
        </g>
    </g>
</svg>