<?xml version="1.0" encoding="UTF-8"?>
<svg width="1280px" height="720px" viewBox="0 0 1280 720" version="1.1" xmlns="http://www.w3.org/2000/svg" xmlns:xlink="http://www.w3.org/1999/xlink" style="background: #FFFFFF;">
    <!-- Generator: Sketch 47.1 (45422) - http://www.bohemiancoding.com/sketch -->
    <title>effects-without-dispatch copy 4</title>
    <desc>Created with Sketch.</desc>
    <defs></defs>
    <g id="Page-1" stroke="none" stroke-width="1" fill="none" fill-rule="evenodd">
        <g id="effects-without-dispatch-copy-4">
            <g id="Group" transform="translate(125.000000, 145.000000)">
                <rect id="Rectangle-7" fill="#F4F6F8" x="0" y="31" width="1030" height="392" rx="15"></rect>
                <path d="M15,0 L1015,0 L1015,1.77635684e-15 C1023.28427,5.91178485e-14 1030,6.71572875 1030,15 L1030,58 L0,58 L0,15 L-1.77635684e-15,15 C-2.79088747e-15,6.71572875 6.71572875,-2.54560899e-16 15,-1.77635684e-15 Z" id="Rectangle" fill="#6DB0DC"></path>
            </g>
            <text id="IMMUTABLE-OPERATIONS" font-family="TTNorms-Bold, TT Norms" font-size="24" font-weight="bold" fill="#FFFFFF">
                <tspan x="483.14" y="183">IMMUTABLE OPERATIONS</tspan>
            </text>
            <path d="M196.05,245.8 C196.05,249.85 199.5,253.3 203.55,253.3 C207.3,253.3 209.55,250.3 209.55,250.3 L207.6,248.35 C207.6,248.35 206.1,250.6 203.55,250.6 C201.15,250.6 199.05,248.5 199.05,245.8 C199.05,243.1 201.15,241 203.55,241 C206.1,241 207.45,243.1 207.45,243.1 L209.4,241.15 C209.4,241.15 207.3,238.3 203.55,238.3 C199.5,238.3 196.05,241.75 196.05,245.8 Z M223.65,245.8 C223.65,243.1 221.55,241 219.15,241 C216.75,241 214.65,243.1 214.65,245.8 C214.65,248.5 216.75,250.6 219.15,250.6 C221.55,250.6 223.65,248.5 223.65,245.8 Z M211.65,245.8 C211.65,241.75 215.1,238.3 219.15,238.3 C223.2,238.3 226.65,241.75 226.65,245.8 C226.65,249.85 223.2,253.3 219.15,253.3 C215.1,253.3 211.65,249.85 211.65,245.8 Z M232.95,238.6 L229.95,238.6 L229.95,253 L232.95,253 L232.95,245.2 C232.95,242.5 234.45,241 236.7,241 C238.65,241 240.15,242.5 240.15,244.6 L240.15,253 L243.15,253 L243.15,244.6 C243.15,240.7 240.75,238.3 237.3,238.3 C234.6,238.3 232.95,240.1 232.95,240.1 L232.95,238.6 Z M256.5,240.25 C256.5,240.25 255,238.3 251.85,238.3 C248.85,238.3 246.75,240.4 246.75,242.5 C246.75,247.6 254.1,246.1 254.1,248.8 C254.1,249.85 253.35,250.6 251.7,250.6 C249.45,250.6 248.1,248.8 248.1,248.8 L246.15,250.75 C246.15,250.75 247.95,253.3 251.7,253.3 C255,253.3 257.1,251.2 257.1,248.8 C257.1,243.7 249.75,245.2 249.75,242.5 C249.75,241.75 250.5,241 251.85,241 C253.5,241 254.55,242.2 254.55,242.2 L256.5,240.25 Z M262.2,236.8 C262.2,238 261.6,238.6 260.7,238.6 L259.2,238.6 L259.2,241.3 L261.9,241.3 L261.9,248.8 C261.9,251.8 263.4,253.3 266.1,253.3 C267.3,253.3 268.2,253 268.2,253 L268.2,250.3 C268.2,250.3 267.45,250.6 266.7,250.6 C265.65,250.6 264.9,249.85 264.9,248.77 L264.9,241.3 L267.9,241.3 L267.9,238.6 L264.9,238.6 L264.9,233.8 L262.2,233.8 L262.2,236.8 Z M276.9,245.8 C276.9,249.85 280.35,253.3 284.4,253.3 C288.15,253.3 290.4,250.3 290.4,250.3 L288.45,248.35 C288.45,248.35 286.95,250.6 284.4,250.6 C282,250.6 279.9,248.5 279.9,245.8 C279.9,243.1 282,241 284.4,241 C286.95,241 288.3,243.1 288.3,243.1 L290.25,241.15 C290.25,241.15 288.15,238.3 284.4,238.3 C280.35,238.3 276.9,241.75 276.9,245.8 Z M296.7,232 L293.7,232 L293.7,253 L296.7,253 L296.7,245.2 C296.7,242.5 298.2,241 300.45,241 C302.4,241 303.9,242.5 303.9,244.6 L303.9,253 L306.9,253 L306.9,244.6 C306.9,240.7 304.5,238.3 301.05,238.3 C298.35,238.3 296.7,240.1 296.7,240.1 L296.7,232 Z M322.65,253 L319.65,253 L319.65,251.5 C319.65,251.5 318,253.3 315.3,253.3 C312.3,253.3 310.2,251.2 310.2,249.1 C310.2,246.7 311.85,245.05 314.4,244.6 L319.65,243.7 C319.65,242.2 318.45,241 316.65,241 C314.1,241 312.9,242.95 312.9,242.95 L310.95,241 C310.95,241 312.9,238.3 316.65,238.3 C320.25,238.3 322.65,240.7 322.65,243.7 L322.65,253 Z M315.75,250.6 C318.15,250.6 319.65,249.1 319.65,246.4 L319.65,246.1 L315,246.85 C313.95,247.03 313.2,247.75 313.2,248.8 C313.2,249.7 314.1,250.6 315.75,250.6 Z M334.95,241.15 L334.95,238.3 L334.2,238.3 C331.5,238.3 329.85,240.1 329.85,240.1 L329.85,238.6 L326.85,238.6 L326.85,253 L329.85,253 L329.85,245.2 C329.85,242.5 331.35,241 333.6,241 C334.35,241 334.95,241.15 334.95,241.15 Z M348.9,253 L345.9,253 L345.9,251.5 C345.9,251.5 344.25,253.3 341.55,253.3 C338.55,253.3 336.45,251.2 336.45,249.1 C336.45,246.7 338.1,245.05 340.65,244.6 L345.9,243.7 C345.9,242.2 344.7,241 342.9,241 C340.35,241 339.15,242.95 339.15,242.95 L337.2,241 C337.2,241 339.15,238.3 342.9,238.3 C346.5,238.3 348.9,240.7 348.9,243.7 L348.9,253 Z M342,250.6 C344.4,250.6 345.9,249.1 345.9,246.4 L345.9,246.1 L341.25,246.85 C340.2,247.03 339.45,247.75 339.45,248.8 C339.45,249.7 340.35,250.6 342,250.6 Z M352.2,245.8 C352.2,249.85 355.65,253.3 359.7,253.3 C363.45,253.3 365.7,250.3 365.7,250.3 L363.75,248.35 C363.75,248.35 362.25,250.6 359.7,250.6 C357.3,250.6 355.2,248.5 355.2,245.8 C355.2,243.1 357.3,241 359.7,241 C362.25,241 363.6,243.1 363.6,243.1 L365.55,241.15 C365.55,241.15 363.45,238.3 359.7,238.3 C355.65,238.3 352.2,241.75 352.2,245.8 Z M370.5,236.8 C370.5,238 369.9,238.6 369,238.6 L367.5,238.6 L367.5,241.3 L370.2,241.3 L370.2,248.8 C370.2,251.8 371.7,253.3 374.4,253.3 C375.6,253.3 376.5,253 376.5,253 L376.5,250.3 C376.5,250.3 375.75,250.6 375,250.6 C373.95,250.6 373.2,249.85 373.2,248.77 L373.2,241.3 L376.2,241.3 L376.2,238.6 L373.2,238.6 L373.2,233.8 L370.5,233.8 L370.5,236.8 Z M392.85,246.85 L381.6,246.85 C381.9,248.8 383.7,250.6 386.1,250.6 C388.95,250.6 390.45,248.35 390.45,248.35 L392.4,250.3 C392.4,250.3 390.15,253.3 386.1,253.3 C382.05,253.3 378.6,249.85 378.6,245.65 C378.6,241.6 381.9,238.3 385.95,238.3 C390,238.3 393,241.3 393,245.35 C393,246.25 392.85,246.85 392.85,246.85 Z M385.95,240.85 C383.7,240.85 382.2,242.35 381.72,244.3 L390.06,244.3 C389.7,242.35 388.2,240.85 385.95,240.85 Z M404.4,241.15 L404.4,238.3 L403.65,238.3 C400.95,238.3 399.3,240.1 399.3,240.1 L399.3,238.6 L396.3,238.6 L396.3,253 L399.3,253 L399.3,245.2 C399.3,242.5 400.8,241 403.05,241 C403.8,241 404.4,241.15 404.4,241.15 Z M424.35,245.5 L412.05,245.5 L412.05,248.2 L424.35,248.2 L424.35,245.5 Z M424.35,240.1 L412.05,240.1 L412.05,242.8 L424.35,242.8 L424.35,240.1 Z M433.35,246.7 C434.55,246.7 435.15,247.3 435.15,248.5 L435.15,254.95 C435.15,257.65 436.8,259.3 439.8,259.3 L441.45,259.3 L441.45,256.9 L439.8,256.9 C438.6,256.9 437.85,256.15 437.85,254.95 L437.85,248.5 C437.85,245.8 436.2,245.5 436.23,245.5 C436.2,245.5 437.85,245.2 437.85,242.5 L437.85,236.05 C437.85,234.85 438.6,234.1 439.8,234.1 L441.45,234.1 L441.45,231.7 L439.8,231.7 C436.8,231.7 435.15,233.35 435.15,236.05 L435.15,242.5 C435.15,243.7 434.55,244.3 433.35,244.3 L433.35,246.7 Z M453.3,238.6 L450.3,238.6 L450.3,253 L453.3,253 L453.3,245.2 C453.3,242.5 454.8,241 457.05,241 C459,241 460.5,242.5 460.5,244.6 L460.5,253 L463.5,253 L463.5,244.6 C463.5,240.7 461.1,238.3 457.65,238.3 C454.95,238.3 453.3,240.1 453.3,240.1 L453.3,238.6 Z M479.25,253 L476.25,253 L476.25,251.5 C476.25,251.5 474.6,253.3 471.9,253.3 C468.9,253.3 466.8,251.2 466.8,249.1 C466.8,246.7 468.45,245.05 471,244.6 L476.25,243.7 C476.25,242.2 475.05,241 473.25,241 C470.7,241 469.5,242.95 469.5,242.95 L467.55,241 C467.55,241 469.5,238.3 473.25,238.3 C476.85,238.3 479.25,240.7 479.25,243.7 L479.25,253 Z M472.35,250.6 C474.75,250.6 476.25,249.1 476.25,246.4 L476.25,246.1 L471.6,246.85 C470.55,247.03 469.8,247.75 469.8,248.8 C469.8,249.7 470.7,250.6 472.35,250.6 Z M502.05,253 L505.05,253 L505.05,244.6 C505.05,240.4 502.95,238.3 499.65,238.3 C496.35,238.3 494.7,240.7 494.7,240.7 C494.7,240.7 493.5,238.3 490.35,238.3 C487.95,238.3 486.45,240.1 486.45,240.1 L486.45,238.6 L483.45,238.6 L483.45,253 L486.45,253 L486.45,245.2 C486.45,242.5 487.95,241 489.75,241 C491.55,241 492.75,242.2 492.75,244.6 L492.75,253 L495.75,253 L495.75,245.2 C495.75,242.5 497.25,241 499.05,241 C500.85,241 502.05,242.2 502.05,244.6 L502.05,253 Z M522.6,246.85 L511.35,246.85 C511.65,248.8 513.45,250.6 515.85,250.6 C518.7,250.6 520.2,248.35 520.2,248.35 L522.15,250.3 C522.15,250.3 519.9,253.3 515.85,253.3 C511.8,253.3 508.35,249.85 508.35,245.65 C508.35,241.6 511.65,238.3 515.7,238.3 C519.75,238.3 522.75,241.3 522.75,245.35 C522.75,246.25 522.6,246.85 522.6,246.85 Z M515.7,240.85 C513.45,240.85 511.95,242.35 511.47,244.3 L519.81,244.3 C519.45,242.35 517.95,240.85 515.7,240.85 Z M525.6,251.35 C525.6,252.4 526.5,253.3 527.55,253.3 C528.6,253.3 529.5,252.4 529.5,251.35 C529.5,250.3 528.6,249.4 527.55,249.4 C526.5,249.4 525.6,250.3 525.6,251.35 Z M525.6,240.25 C525.6,241.3 526.5,242.2 527.55,242.2 C528.6,242.2 529.5,241.3 529.5,240.25 C529.5,239.2 528.6,238.3 527.55,238.3 C526.5,238.3 525.6,239.2 525.6,240.25 Z M540.3,238.9 L543.3,232.45 L541.35,231.4 L537.6,237.4 L540.3,238.9 Z M563.85,232 L560.55,232 L560.55,240.85 L550.2,240.85 L550.2,232 L546.9,232 L546.9,253 L550.2,253 L550.2,243.85 L560.55,243.85 L560.55,253 L563.85,253 L563.85,232 Z M580.35,253 L577.35,253 L577.35,251.5 C577.35,251.5 575.7,253.3 573,253.3 C570,253.3 567.9,251.2 567.9,249.1 C567.9,246.7 569.55,245.05 572.1,244.6 L577.35,243.7 C577.35,242.2 576.15,241 574.35,241 C571.8,241 570.6,242.95 570.6,242.95 L568.65,241 C568.65,241 570.6,238.3 574.35,238.3 C577.95,238.3 580.35,240.7 580.35,243.7 L580.35,253 Z M573.45,250.6 C575.85,250.6 577.35,249.1 577.35,246.4 L577.35,246.1 L572.7,246.85 C571.65,247.03 570.9,247.75 570.9,248.8 C570.9,249.7 571.8,250.6 573.45,250.6 Z M587.55,238.6 L584.55,238.6 L584.55,253 L587.55,253 L587.55,245.2 C587.55,242.5 589.05,241 591.3,241 C593.25,241 594.75,242.5 594.75,244.6 L594.75,253 L597.75,253 L597.75,244.6 C597.75,240.7 595.35,238.3 591.9,238.3 C589.2,238.3 587.55,240.1 587.55,240.1 L587.55,238.6 Z M618.9,247 C618.9,248.8 617.4,250.3 614.7,250.3 C610.95,250.3 609.3,247.9 609.3,247.9 L607.2,250 C607.2,250 609.6,253.3 614.7,253.3 C619.5,253.3 622.2,250.6 622.2,247 C622.2,239.2 611.1,242.2 611.1,237.4 C611.1,236.05 612.45,234.7 614.7,234.7 C617.55,234.7 618.9,236.5 618.9,236.5 L621,234.4 C621,234.4 618.9,231.7 614.7,231.7 C610.35,231.7 607.8,234.25 607.8,237.4 C607.8,245.2 618.9,242.2 618.9,247 Z M636.75,245.8 C636.75,243.1 634.65,241 632.25,241 C629.85,241 627.75,243.1 627.75,245.8 C627.75,248.5 629.85,250.6 632.25,250.6 C634.65,250.6 636.75,248.5 636.75,245.8 Z M624.75,245.8 C624.75,241.75 628.2,238.3 632.25,238.3 C636.3,238.3 639.75,241.75 639.75,245.8 C639.75,249.85 636.3,253.3 632.25,253.3 C628.2,253.3 624.75,249.85 624.75,245.8 Z M646.35,232 L643.35,232 L643.35,253 L646.35,253 L646.35,232 Z M661.95,245.8 C661.95,243.1 659.85,241 657.45,241 C655.05,241 652.95,243.1 652.95,245.8 C652.95,248.5 655.05,250.6 657.45,250.6 C659.85,250.6 661.95,248.5 661.95,245.8 Z M649.95,245.8 C649.95,241.75 653.4,238.3 657.45,238.3 C661.5,238.3 664.95,241.75 664.95,245.8 C664.95,249.85 661.5,253.3 657.45,253.3 C653.4,253.3 649.95,249.85 649.95,245.8 Z M669.9,231.4 L666.9,237.85 L668.85,238.9 L672.6,232.9 L669.9,231.4 Z M688.2,244.3 C687,244.3 686.4,243.7 686.4,242.5 L686.4,236.05 C686.4,233.35 684.75,231.7 681.75,231.7 L680.1,231.7 L680.1,234.1 L681.75,234.1 C682.95,234.1 683.7,234.85 683.7,236.05 L683.7,242.5 C683.7,245.2 685.35,245.5 685.32,245.5 C685.35,245.5 683.7,245.8 683.7,248.5 L683.7,254.95 C683.7,256.15 682.95,256.9 681.75,256.9 L680.1,256.9 L680.1,259.3 L681.75,259.3 C684.75,259.3 686.4,257.65 686.4,254.95 L686.4,248.5 C686.4,247.3 687,246.7 688.2,246.7 L688.2,244.3 Z M693,249.4 L690,255.85 L691.95,256.9 L695.7,250.9 L693,249.4 Z M691.95,240.25 C691.95,241.3 692.85,242.2 693.9,242.2 C694.95,242.2 695.85,241.3 695.85,240.25 C695.85,239.2 694.95,238.3 693.9,238.3 C692.85,238.3 691.95,239.2 691.95,240.25 Z M208.65,295.7 L199.65,323.3 L195.9,323.3 L204.9,295.7 L208.65,295.7 Z M217.2,295.7 L208.2,323.3 L204.45,323.3 L213.45,295.7 L217.2,295.7 Z M230.4,306.5 C230.4,310.4 233.4,313.4 237.15,313.4 C240.9,313.4 243.9,310.4 243.9,306.5 C243.9,302.6 240.9,299.6 237.15,299.6 C233.4,299.6 230.4,302.6 230.4,306.5 Z M225.75,306.5 C225.75,300.5 230.7,295.55 237.15,295.55 C243.6,295.55 248.55,300.5 248.55,306.5 C248.55,312.5 243.6,317.45 237.15,317.45 C230.7,317.45 225.75,312.5 225.75,306.5 Z M260.4,302 C264.15,302 267.45,305.3 267.45,309.65 C267.45,314 264.15,317.3 260.4,317.3 C257.55,317.3 256.05,315.2 256.05,315.2 L256.05,317 L252,317 L252,296 L256.05,296 L256.05,304.1 C256.05,304.1 257.55,302 260.4,302 Z M259.65,313.7 C261.6,313.7 263.25,312.05 263.25,309.65 C263.25,307.25 261.6,305.6 259.65,305.6 C257.7,305.6 256.05,307.25 256.05,309.65 C256.05,312.05 257.7,313.7 259.65,313.7 Z M270.6,317.9 L270.6,302.3 L274.65,302.3 L274.65,318.2 C274.65,321.5 272.85,323.3 269.85,323.3 C268.35,323.3 267.3,322.85 267.3,322.85 L267.3,319.25 C267.3,319.25 268.05,319.55 268.8,319.55 C269.85,319.55 270.6,318.8 270.6,317.9 Z M274.95,298.1 C274.95,296.75 274.05,295.85 272.55,295.85 C271.2,295.85 270.3,296.75 270.3,298.1 C270.3,299.45 271.2,300.35 272.55,300.35 C274.05,300.35 274.95,299.45 274.95,298.1 Z M292.65,311 L282,311 C282.3,312.5 283.65,313.85 285.9,313.85 C288.45,313.85 289.8,312.05 289.8,312.05 L291.9,314.75 C291.9,314.75 289.65,317.3 285.6,317.3 C281.25,317.3 277.8,313.85 277.8,309.65 C277.8,305.45 281.25,302 285.45,302 C289.65,302 292.8,305.15 292.8,309.35 C292.8,310.4 292.65,311 292.65,311 Z M285.45,305.45 C283.65,305.45 282.45,306.65 282,308.15 L288.75,308.15 C288.45,306.65 287.25,305.45 285.45,305.45 Z M294.9,309.65 C294.9,313.7 298.5,317.3 302.85,317.3 C306.9,317.3 308.85,314.3 308.85,314.3 L306.45,311.75 C306.45,311.75 305.1,313.7 302.85,313.7 C300.75,313.7 298.95,311.9 298.95,309.65 C298.95,307.4 300.75,305.6 302.85,305.6 C305.1,305.6 306.3,307.55 306.3,307.55 L308.85,305 C308.85,305 306.9,302 302.85,302 C298.5,302 294.9,305.6 294.9,309.65 Z M313.35,300.65 C313.35,301.85 312.6,302.6 311.7,302.6 L310.35,302.6 L310.35,306.2 L312.9,306.2 L312.9,312.2 C312.9,315.65 314.55,317.3 317.55,317.3 C319.05,317.3 320.25,316.85 320.25,316.85 L320.25,313.4 C320.25,313.4 319.65,313.7 318.75,313.7 C317.7,313.7 316.95,312.95 316.95,312.05 L316.95,306.2 L319.95,306.2 L319.95,302.6 L316.95,302.6 L316.95,297.95 L313.35,297.95 L313.35,300.65 Z M323.25,315.05 C323.25,316.25 324.3,317.3 325.65,317.3 C327,317.3 328.05,316.25 328.05,315.05 C328.05,313.85 327,312.8 325.65,312.8 C324.3,312.8 323.25,313.85 323.25,315.05 Z M339.3,317 L339.3,315.5 C339.3,315.5 337.8,317.3 335.25,317.3 C332.25,317.3 330.3,315.35 330.3,313.1 C330.3,310.7 331.95,309.02 334.65,308.54 L339.3,307.7 C339.3,306.5 338.4,305.6 336.75,305.6 C334.5,305.6 333.45,307.1 333.45,307.1 L331.2,304.85 C331.2,304.85 333.15,302 337.05,302 C340.8,302 343.35,304.55 343.35,307.85 L343.35,317 L339.3,317 Z M336.3,314 C338.1,314 339.3,312.8 339.3,310.7 L339.3,310.25 L336,310.85 C334.95,311.03 334.35,311.6 334.35,312.5 C334.35,313.4 334.95,314 336.3,314 Z M357.45,304.25 C357.45,304.25 355.8,302 352.35,302 C349.05,302 346.65,304.4 346.65,306.65 C346.65,311.51 353.4,310.4 353.4,312.65 C353.4,313.4 352.8,314 351.45,314 C349.5,314 348.3,312.35 348.3,312.35 L346.05,314.6 C346.05,314.6 347.85,317.3 352.05,317.3 C355.8,317.3 357.9,315.2 357.9,312.65 C357.9,307.7 351.15,308.75 351.15,306.65 C351.15,306.05 351.75,305.45 352.95,305.45 C354.45,305.45 355.35,306.65 355.35,306.65 L357.45,304.25 Z M371.1,304.25 C371.1,304.25 369.45,302 366,302 C362.7,302 360.3,304.4 360.3,306.65 C360.3,311.51 367.05,310.4 367.05,312.65 C367.05,313.4 366.45,314 365.1,314 C363.15,314 361.95,312.35 361.95,312.35 L359.7,314.6 C359.7,314.6 361.5,317.3 365.7,317.3 C369.45,317.3 371.55,315.2 371.55,312.65 C371.55,307.7 364.8,308.75 364.8,306.65 C364.8,306.05 365.4,305.45 366.6,305.45 C368.1,305.45 369,306.65 369,306.65 L371.1,304.25 Z M378.75,302.3 L374.7,302.3 L374.7,317 L378.75,317 L378.75,302.3 Z M379.05,298.1 C379.05,296.75 378.15,295.85 376.65,295.85 C375.3,295.85 374.4,296.75 374.4,298.1 C374.4,299.45 375.3,300.35 376.65,300.35 C378.15,300.35 379.05,299.45 379.05,298.1 Z M392.85,315.8 L392.85,314.6 C392.85,314.6 391.35,316.7 388.5,316.7 C385.2,316.7 381.9,313.4 381.9,309.35 C381.9,305.3 385.2,302 388.5,302 C391.35,302 392.85,304.1 392.85,304.1 L392.85,302.3 L396.9,302.3 L396.9,315.8 C396.9,320 393.6,323.3 389.1,323.3 C384.6,323.3 382.35,320.15 382.35,320.15 L384.9,317.75 C384.9,317.75 386.25,319.7 388.95,319.7 C391.35,319.7 392.85,318.2 392.85,315.8 Z M386.1,309.35 C386.1,311.45 387.6,312.95 389.4,312.95 C391.2,312.95 392.85,311.39 392.85,309.35 C392.85,307.31 391.2,305.75 389.4,305.75 C387.6,305.75 386.1,307.25 386.1,309.35 Z M404.85,302.3 L400.8,302.3 L400.8,317 L404.85,317 L404.85,309.35 C404.85,307.1 406.05,305.9 407.85,305.9 C409.5,305.9 410.7,307.1 410.7,308.9 L410.7,317 L414.75,317 L414.75,308.45 C414.75,304.4 412.35,302 409.05,302 C406.35,302 404.85,304.1 404.85,304.1 L404.85,302.3 Z M423,309.5 C423,302.3 427.05,297.05 427.05,297.05 L423.9,295.1 C423.9,295.1 418.95,300.8 418.95,309.5 C418.95,318.2 423.9,323.9 423.9,323.9 L427.05,322.1 C427.05,322.1 423,316.7 423,309.5 Z M429.45,311.15 C430.65,311.15 431.4,311.9 431.4,313.1 L431.4,318.2 C431.4,321.5 433.2,323.3 436.35,323.3 L438.6,323.3 L438.6,319.7 L437.1,319.7 C436.05,319.7 435.3,318.95 435.3,317.84 L435.3,312.95 C435.3,309.95 433.35,309.5 433.35,309.5 C433.35,309.5 435.3,309.05 435.3,306.05 L435.3,301.19 C435.3,300.05 436.05,299.3 437.1,299.3 L438.6,299.3 L438.6,295.7 L436.35,295.7 C433.2,295.7 431.4,297.5 431.4,300.8 L431.4,305.9 C431.4,307.1 430.65,307.85 429.45,307.85 L429.45,311.15 Z M449.85,307.85 C448.65,307.85 447.9,307.1 447.9,305.9 L447.9,300.8 C447.9,297.5 446.1,295.7 442.95,295.7 L440.7,295.7 L440.7,299.3 L442.2,299.3 C443.25,299.3 444,300.05 444,301.19 L444,306.05 C444,309.05 445.95,309.5 445.95,309.5 C445.95,309.5 444,309.95 444,312.95 L444,317.84 C444,318.95 443.25,319.7 442.2,319.7 L440.7,319.7 L440.7,323.3 L442.95,323.3 C446.1,323.3 447.9,321.5 447.9,318.2 L447.9,313.1 C447.9,311.9 448.65,311.15 449.85,311.15 L449.85,307.85 Z M454.65,312.65 L451.35,319.55 L454.05,320.9 L457.95,314.6 L454.65,312.65 Z M466.35,309.65 C466.35,313.7 469.95,317.3 474.3,317.3 C478.35,317.3 480.3,314.3 480.3,314.3 L477.9,311.75 C477.9,311.75 476.55,313.7 474.3,313.7 C472.2,313.7 470.4,311.9 470.4,309.65 C470.4,307.4 472.2,305.6 474.3,305.6 C476.55,305.6 477.75,307.55 477.75,307.55 L480.3,305 C480.3,305 478.35,302 474.3,302 C469.95,302 466.35,305.6 466.35,309.65 Z M487.2,296 L483.15,296 L483.15,317 L487.2,317 L487.2,309.35 C487.2,307.1 488.4,305.9 490.2,305.9 C491.85,305.9 493.05,307.1 493.05,308.9 L493.05,317 L497.1,317 L497.1,308.45 C497.1,304.4 494.7,302 491.4,302 C488.7,302 487.2,304.1 487.2,304.1 L487.2,296 Z M509.1,317 L509.1,315.5 C509.1,315.5 507.6,317.3 505.05,317.3 C502.05,317.3 500.1,315.35 500.1,313.1 C500.1,310.7 501.75,309.02 504.45,308.54 L509.1,307.7 C509.1,306.5 508.2,305.6 506.55,305.6 C504.3,305.6 503.25,307.1 503.25,307.1 L501,304.85 C501,304.85 502.95,302 506.85,302 C510.6,302 513.15,304.55 513.15,307.85 L513.15,317 L509.1,317 Z M506.1,314 C507.9,314 509.1,312.8 509.1,310.7 L509.1,310.25 L505.8,310.85 C504.75,311.03 504.15,311.6 504.15,312.5 C504.15,313.4 504.75,314 506.1,314 Z M525.9,302.15 L525.3,302.15 C522.6,302.15 521.1,304.1 521.1,304.1 L521.1,302.3 L517.05,302.3 L517.05,317 L521.1,317 L521.1,309.95 C521.1,307.4 522.45,306.05 524.55,306.05 C525.45,306.05 525.9,306.2 525.9,306.2 L525.9,302.15 Z M536.25,317 L536.25,315.5 C536.25,315.5 534.75,317.3 532.2,317.3 C529.2,317.3 527.25,315.35 527.25,313.1 C527.25,310.7 528.9,309.02 531.6,308.54 L536.25,307.7 C536.25,306.5 535.35,305.6 533.7,305.6 C531.45,305.6 530.4,307.1 530.4,307.1 L528.15,304.85 C528.15,304.85 530.1,302 534,302 C537.75,302 540.3,304.55 540.3,307.85 L540.3,317 L536.25,317 Z M533.25,314 C535.05,314 536.25,312.8 536.25,310.7 L536.25,310.25 L532.95,310.85 C531.9,311.03 531.3,311.6 531.3,312.5 C531.3,313.4 531.9,314 533.25,314 Z M543.3,309.65 C543.3,313.7 546.9,317.3 551.25,317.3 C555.3,317.3 557.25,314.3 557.25,314.3 L554.85,311.75 C554.85,311.75 553.5,313.7 551.25,313.7 C549.15,313.7 547.35,311.9 547.35,309.65 C547.35,307.4 549.15,305.6 551.25,305.6 C553.5,305.6 554.7,307.55 554.7,307.55 L557.25,305 C557.25,305 555.3,302 551.25,302 C546.9,302 543.3,305.6 543.3,309.65 Z M561.75,300.65 C561.75,301.85 561,302.6 560.1,302.6 L558.75,302.6 L558.75,306.2 L561.3,306.2 L561.3,312.2 C561.3,315.65 562.95,317.3 565.95,317.3 C567.45,317.3 568.65,316.85 568.65,316.85 L568.65,313.4 C568.65,313.4 568.05,313.7 567.15,313.7 C566.1,313.7 565.35,312.95 565.35,312.05 L565.35,306.2 L568.35,306.2 L568.35,302.6 L565.35,302.6 L565.35,297.95 L561.75,297.95 L561.75,300.65 Z M585.45,311 L574.8,311 C575.1,312.5 576.45,313.85 578.7,313.85 C581.25,313.85 582.6,312.05 582.6,312.05 L584.7,314.75 C584.7,314.75 582.45,317.3 578.4,317.3 C574.05,317.3 570.6,313.85 570.6,309.65 C570.6,305.45 574.05,302 578.25,302 C582.45,302 585.6,305.15 585.6,309.35 C585.6,310.4 585.45,311 585.45,311 Z M578.25,305.45 C576.45,305.45 575.25,306.65 574.8,308.15 L581.55,308.15 C581.25,306.65 580.05,305.45 578.25,305.45 Z M597.45,302.15 L597.45,306.2 C597.45,306.2 597,306.05 596.1,306.05 C594,306.05 592.65,307.4 592.65,309.95 L592.65,317 L588.6,317 L588.6,302.3 L592.65,302.3 L592.65,304.1 C592.65,304.1 594.15,302.15 596.85,302.15 L597.45,302.15 Z M599.25,312.65 L602.55,314.6 L598.65,320.9 L595.95,319.55 L599.25,312.65 Z M611.7,311.15 C612.9,311.15 613.65,311.9 613.65,313.1 L613.65,318.2 C613.65,321.5 615.45,323.3 618.6,323.3 L620.85,323.3 L620.85,319.7 L619.35,319.7 C618.3,319.7 617.55,318.95 617.55,317.84 L617.55,312.95 C617.55,309.95 615.6,309.5 615.6,309.5 C615.6,309.5 617.55,309.05 617.55,306.05 L617.55,301.19 C617.55,300.05 618.3,299.3 619.35,299.3 L620.85,299.3 L620.85,295.7 L618.6,295.7 C615.45,295.7 613.65,297.5 613.65,300.8 L613.65,305.9 C613.65,307.1 612.9,307.85 611.7,307.85 L611.7,311.15 Z M638.7,302.15 L638.1,302.15 C635.4,302.15 633.9,304.1 633.9,304.1 L633.9,302.3 L629.85,302.3 L629.85,317 L633.9,317 L633.9,309.95 C633.9,307.4 635.25,306.05 637.35,306.05 C638.25,306.05 638.7,306.2 638.7,306.2 L638.7,302.15 Z M644.25,309.65 C644.25,311.9 645.9,313.55 647.85,313.55 C649.8,313.55 651.45,311.9 651.45,309.65 C651.45,307.4 649.8,305.75 647.85,305.75 C645.9,305.75 644.25,307.4 644.25,309.65 Z M655.65,309.65 C655.65,313.7 652.05,317.3 647.85,317.3 C643.65,317.3 640.05,313.7 640.05,309.65 C640.05,305.6 643.65,302 647.85,302 C652.05,302 655.65,305.6 655.65,309.65 Z M662.85,296 L658.8,296 L658.8,317 L662.85,317 L662.85,296 Z M680.85,311 L670.2,311 C670.5,312.5 671.85,313.85 674.1,313.85 C676.65,313.85 678,312.05 678,312.05 L680.1,314.75 C680.1,314.75 677.85,317.3 673.8,317.3 C669.45,317.3 666,313.85 666,309.65 C666,305.45 669.45,302 673.65,302 C677.85,302 681,305.15 681,309.35 C681,310.4 680.85,311 680.85,311 Z M673.65,305.45 C671.85,305.45 670.65,306.65 670.2,308.15 L676.95,308.15 C676.65,306.65 675.45,305.45 673.65,305.45 Z M683.55,315.05 C683.55,316.25 684.6,317.3 685.95,317.3 C687.3,317.3 688.35,316.25 688.35,315.05 C688.35,313.85 687.3,312.8 685.95,312.8 C684.6,312.8 683.55,313.85 683.55,315.05 Z M683.55,304.25 C683.55,305.45 684.6,306.5 685.95,306.5 C687.3,306.5 688.35,305.45 688.35,304.25 C688.35,303.05 687.3,302 685.95,302 C684.6,302 683.55,303.05 683.55,304.25 Z M706.05,303.8 L709.2,296.9 L706.65,295.4 L702.6,301.85 L706.05,303.8 Z M722.7,295.55 C716.25,295.55 711.3,300.5 711.3,306.5 C711.3,312.5 716.25,317.45 722.7,317.45 C728.55,317.45 731.55,313.25 731.55,313.25 L728.85,310.4 C728.85,310.4 726.75,313.4 722.7,313.4 C718.8,313.4 715.8,310.4 715.8,306.5 C715.8,302.6 718.8,299.6 722.7,299.6 C726.6,299.6 728.55,302.6 728.55,302.6 L731.4,299.75 C731.4,299.75 728.55,295.55 722.7,295.55 Z M742.35,317 L742.35,315.5 C742.35,315.5 740.85,317.3 738.3,317.3 C735.3,317.3 733.35,315.35 733.35,313.1 C733.35,310.7 735,309.02 737.7,308.54 L742.35,307.7 C742.35,306.5 741.45,305.6 739.8,305.6 C737.55,305.6 736.5,307.1 736.5,307.1 L734.25,304.85 C734.25,304.85 736.2,302 740.1,302 C743.85,302 746.4,304.55 746.4,307.85 L746.4,317 L742.35,317 Z M739.35,314 C741.15,314 742.35,312.8 742.35,310.7 L742.35,310.25 L739.05,310.85 C738,311.03 737.4,311.6 737.4,312.5 C737.4,313.4 738,314 739.35,314 Z M758.7,317.3 C755.85,317.3 754.35,315.2 754.35,315.2 L754.35,323.3 L750.3,323.3 L750.3,302.3 L754.35,302.3 L754.35,304.1 C754.35,304.1 755.85,302 758.7,302 C762.45,302 765.75,305.3 765.75,309.65 C765.75,314 762.45,317.3 758.7,317.3 Z M757.95,305.6 C756,305.6 754.35,307.25 754.35,309.65 C754.35,312.05 756,313.7 757.95,313.7 C759.9,313.7 761.55,312.05 761.55,309.65 C761.55,307.25 759.9,305.6 757.95,305.6 Z M770.55,300.65 C770.55,301.85 769.8,302.6 768.9,302.6 L767.55,302.6 L767.55,306.2 L770.1,306.2 L770.1,312.2 C770.1,315.65 771.75,317.3 774.75,317.3 C776.25,317.3 777.45,316.85 777.45,316.85 L777.45,313.4 C777.45,313.4 776.85,313.7 775.95,313.7 C774.9,313.7 774.15,312.95 774.15,312.05 L774.15,306.2 L777.15,306.2 L777.15,302.6 L774.15,302.6 L774.15,297.95 L770.55,297.95 L770.55,300.65 Z M788.4,317 L788.4,315.5 C788.4,315.5 786.9,317.3 784.35,317.3 C781.35,317.3 779.4,315.35 779.4,313.1 C779.4,310.7 781.05,309.02 783.75,308.54 L788.4,307.7 C788.4,306.5 787.5,305.6 785.85,305.6 C783.6,305.6 782.55,307.1 782.55,307.1 L780.3,304.85 C780.3,304.85 782.25,302 786.15,302 C789.9,302 792.45,304.55 792.45,307.85 L792.45,317 L788.4,317 Z M785.4,314 C787.2,314 788.4,312.8 788.4,310.7 L788.4,310.25 L785.1,310.85 C784.05,311.03 783.45,311.6 783.45,312.5 C783.45,313.4 784.05,314 785.4,314 Z M800.55,302.3 L796.5,302.3 L796.5,317 L800.55,317 L800.55,302.3 Z M800.85,298.1 C800.85,296.75 799.95,295.85 798.45,295.85 C797.1,295.85 796.2,296.75 796.2,298.1 C796.2,299.45 797.1,300.35 798.45,300.35 C799.95,300.35 800.85,299.45 800.85,298.1 Z M808.65,302.3 L804.6,302.3 L804.6,317 L808.65,317 L808.65,309.35 C808.65,307.1 809.85,305.9 811.65,305.9 C813.3,305.9 814.5,307.1 814.5,308.9 L814.5,317 L818.55,317 L818.55,308.45 C818.55,304.4 816.15,302 812.85,302 C810.15,302 808.65,304.1 808.65,304.1 L808.65,302.3 Z M824.4,295.4 L821.25,302.3 L823.8,303.8 L827.85,297.35 L824.4,295.4 Z M844.8,307.85 C843.6,307.85 842.85,307.1 842.85,305.9 L842.85,300.8 C842.85,297.5 841.05,295.7 837.9,295.7 L835.65,295.7 L835.65,299.3 L837.15,299.3 C838.2,299.3 838.95,300.05 838.95,301.19 L838.95,306.05 C838.95,309.05 840.9,309.5 840.9,309.5 C840.9,309.5 838.95,309.95 838.95,312.95 L838.95,317.84 C838.95,318.95 838.2,319.7 837.15,319.7 L835.65,319.7 L835.65,323.3 L837.9,323.3 C841.05,323.3 842.85,321.5 842.85,318.2 L842.85,313.1 C842.85,311.9 843.6,311.15 844.8,311.15 L844.8,307.85 Z M851.25,309.5 C851.25,316.7 847.2,322.1 847.2,322.1 L850.35,323.9 C850.35,323.9 855.3,318.2 855.3,309.5 C855.3,300.8 850.35,295.1 850.35,295.1 L847.2,297.05 C847.2,297.05 851.25,302.3 851.25,309.5 Z M859.35,304.25 C859.35,305.45 860.4,306.5 861.75,306.5 C863.1,306.5 864.15,305.45 864.15,304.25 C864.15,303.05 863.1,302 861.75,302 C860.4,302 859.35,303.05 859.35,304.25 Z M860.55,312.65 L857.25,319.55 L859.95,320.9 L863.85,314.6 L860.55,312.65 Z M207.6,344.35 C207.6,344.35 207.599977,344.350034 207.599932,344.350102 L207.6,344.35 Z M207.599932,344.350102 L207.6,344.35 L209.55,346.3 C209.55,346.3 207.3,349.3 203.55,349.3 C199.5,349.3 196.05,345.85 196.05,341.8 C196.05,337.75 199.5,334.3 203.55,334.3 C207.3,334.3 209.4,337.15 209.4,337.15 L207.45,339.1 C207.45,339.1 206.1,337 203.55,337 C201.15,337 199.05,339.1 199.05,341.8 C199.05,344.5 201.15,346.6 203.55,346.6 C206.090091,346.6 207.588327,344.367452 207.599932,344.350102 Z M223.65,341.8 C223.65,339.1 221.55,337 219.15,337 C216.75,337 214.65,339.1 214.65,341.8 C214.65,344.5 216.75,346.6 219.15,346.6 C221.55,346.6 223.65,344.5 223.65,341.8 Z M211.65,341.8 C211.65,337.75 215.1,334.3 219.15,334.3 C223.2,334.3 226.65,337.75 226.65,341.8 C226.65,345.85 223.2,349.3 219.15,349.3 C215.1,349.3 211.65,345.85 211.65,341.8 Z M232.95,334.6 L229.95,334.6 L229.95,349 L232.95,349 L232.95,341.2 C232.95,338.5 234.45,337 236.7,337 C238.65,337 240.15,338.5 240.15,340.6 L240.15,349 L243.15,349 L243.15,340.6 C243.15,336.7 240.75,334.3 237.3,334.3 C234.6,334.3 232.95,336.1 232.95,336.1 L232.95,334.6 Z M256.5,336.25 C256.5,336.25 255,334.3 251.85,334.3 C248.85,334.3 246.75,336.4 246.75,338.5 C246.75,343.6 254.1,342.1 254.1,344.8 C254.1,345.85 253.35,346.6 251.7,346.6 C249.45,346.6 248.1,344.8 248.1,344.8 L246.15,346.75 C246.15,346.75 247.95,349.3 251.7,349.3 C255,349.3 257.1,347.2 257.1,344.8 C257.1,339.7 249.75,341.2 249.75,338.5 C249.75,337.75 250.5,337 251.85,337 C253.5,337 254.55,338.2 254.55,338.2 L256.5,336.25 Z M262.2,332.8 C262.2,334 261.6,334.6 260.7,334.6 L259.2,334.6 L259.2,337.3 L261.9,337.3 L261.9,344.8 C261.9,347.8 263.4,349.3 266.1,349.3 C267.3,349.3 268.2,349 268.2,349 L268.2,346.3 C268.2,346.3 267.45,346.6 266.7,346.6 C265.65,346.6 264.9,345.85 264.9,344.77 L264.9,337.3 L267.9,337.3 L267.9,334.6 L264.9,334.6 L264.9,329.8 L262.2,329.8 L262.2,332.8 Z M288,349 L291,349 L291,334.6 L288,334.6 L288,342.4 C288,345.1 286.5,346.6 284.25,346.6 C282.3,346.6 280.8,345.1 280.8,343 L280.8,334.6 L277.8,334.6 L277.8,343 C277.8,346.9 280.2,349.3 283.65,349.3 C286.35,349.3 288,347.5 288,347.5 L288,349 Z M303,349.3 C300.15,349.3 298.35,347.35 298.35,347.35 L298.35,355.3 L295.35,355.3 L295.35,334.6 L298.35,334.6 L298.35,336.25 C298.35,336.25 300.15,334.3 303,334.3 C306.75,334.3 310.05,337.6 310.05,341.8 C310.05,346 306.75,349.3 303,349.3 Z M302.7,337 C300.45,337 298.35,339.1 298.35,341.8 C298.35,344.5 300.45,346.6 302.7,346.6 C304.95,346.6 307.05,344.5 307.05,341.8 C307.05,339.1 304.95,337 302.7,337 Z M319.5,334.3 C322.35,334.3 324.15,336.25 324.15,336.25 L324.15,328 L327.15,328 L327.15,349 L324.15,349 L324.15,347.35 C324.15,347.35 322.35,349.3 319.5,349.3 C315.75,349.3 312.45,346 312.45,341.8 C312.45,337.6 315.75,334.3 319.5,334.3 Z M319.8,346.6 C322.05,346.6 324.15,344.5 324.15,341.8 C324.15,339.1 322.05,337 319.8,337 C317.55,337 315.45,339.1 315.45,341.8 C315.45,344.5 317.55,346.6 319.8,346.6 Z M343.2,349 L340.2,349 L340.2,347.5 C340.2,347.5 338.55,349.3 335.85,349.3 C332.85,349.3 330.75,347.2 330.75,345.1 C330.75,342.7 332.4,341.05 334.95,340.6 L340.2,339.7 C340.2,338.2 339,337 337.2,337 C334.65,337 333.45,338.95 333.45,338.95 L331.5,337 C331.5,337 333.45,334.3 337.2,334.3 C340.8,334.3 343.2,336.7 343.2,339.7 L343.2,349 Z M336.3,346.6 C338.7,346.6 340.2,345.1 340.2,342.4 L340.2,342.1 L335.55,342.85 C334.5,343.03 333.75,343.75 333.75,344.8 C333.75,345.7 334.65,346.6 336.3,346.6 Z M349.2,332.8 C349.2,334 348.6,334.6 347.7,334.6 L346.2,334.6 L346.2,337.3 L348.9,337.3 L348.9,344.8 C348.9,347.8 350.4,349.3 353.1,349.3 C354.3,349.3 355.2,349 355.2,349 L355.2,346.3 C355.2,346.3 354.45,346.6 353.7,346.6 C352.65,346.6 351.9,345.85 351.9,344.77 L351.9,337.3 L354.9,337.3 L354.9,334.6 L351.9,334.6 L351.9,329.8 L349.2,329.8 L349.2,332.8 Z M369.15,344.35 C369.15,344.35 369.15,344.35 369.15,344.35 L369.15,344.35 Z M369.15,344.35 L371.1,346.3 C371.1,346.3 368.85,349.3 364.8,349.3 C360.75,349.3 357.3,345.85 357.3,341.65 C357.3,337.6 360.6,334.3 364.65,334.3 C368.7,334.3 371.7,337.3 371.7,341.35 C371.7,342.25 371.55,342.85 371.55,342.85 L360.3,342.85 C360.6,344.8 362.4,346.6 364.8,346.6 C367.649465,346.6 369.149437,344.350845 369.15,344.35 L369.15,344.35 Z M364.65,336.85 C362.4,336.85 360.9,338.35 360.42,340.3 L368.76,340.3 C368.4,338.35 366.9,336.85 364.65,336.85 Z M381.15,334.3 C384,334.3 385.8,336.25 385.8,336.25 L385.8,328 L388.8,328 L388.8,349 L385.8,349 L385.8,347.35 C385.8,347.35 384,349.3 381.15,349.3 C377.4,349.3 374.1,346 374.1,341.8 C374.1,337.6 377.4,334.3 381.15,334.3 Z M381.45,346.6 C383.7,346.6 385.8,344.5 385.8,341.8 C385.8,339.1 383.7,337 381.45,337 C379.2,337 377.1,339.1 377.1,341.8 C377.1,344.5 379.2,346.6 381.45,346.6 Z M404.25,327.7 C397.95,327.7 393.15,332.5 393.15,338.5 C393.15,344.5 397.95,349.3 404.25,349.3 C409.95,349.3 412.95,345.1 412.95,345.1 L410.85,343 C410.85,343 408.6,346.3 404.25,346.3 C399.9,346.3 396.45,342.85 396.45,338.5 C396.45,334.15 399.9,330.7 404.25,330.7 C408.6,330.7 410.7,333.85 410.7,333.85 L412.8,331.75 C412.8,331.75 409.95,327.7 404.25,327.7 Z M419.4,328 L416.4,328 L416.4,349 L419.4,349 L419.4,341.2 C419.4,338.5 420.9,337 423.15,337 C425.1,337 426.6,338.5 426.6,340.6 L426.6,349 L429.6,349 L429.6,340.6 C429.6,336.7 427.2,334.3 423.75,334.3 C421.05,334.3 419.4,336.1 419.4,336.1 L419.4,328 Z M445.35,349 L442.35,349 L442.35,347.5 C442.35,347.5 440.7,349.3 438,349.3 C435,349.3 432.9,347.2 432.9,345.1 C432.9,342.7 434.55,341.05 437.1,340.6 L442.35,339.7 C442.35,338.2 441.15,337 439.35,337 C436.8,337 435.6,338.95 435.6,338.95 L433.65,337 C433.65,337 435.6,334.3 439.35,334.3 C442.95,334.3 445.35,336.7 445.35,339.7 L445.35,349 Z M438.45,346.6 C440.85,346.6 442.35,345.1 442.35,342.4 L442.35,342.1 L437.7,342.85 C436.65,343.03 435.9,343.75 435.9,344.8 C435.9,345.7 436.8,346.6 438.45,346.6 Z M457.65,337.15 L457.65,334.3 L456.9,334.3 C454.2,334.3 452.55,336.1 452.55,336.1 L452.55,334.6 L449.55,334.6 L449.55,349 L452.55,349 L452.55,341.2 C452.55,338.5 454.05,337 456.3,337 C457.05,337 457.65,337.15 457.65,337.15 Z M461.85,338.95 C461.85,338.95 461.869493,338.918325 461.908788,338.863048 L461.85,338.95 Z M461.908788,338.863048 L461.85,338.95 L459.9,337 C459.9,337 461.85,334.3 465.6,334.3 C469.2,334.3 471.6,336.7 471.6,339.7 L471.6,349 L468.6,349 L468.6,347.5 C468.6,347.5 466.95,349.3 464.25,349.3 C461.25,349.3 459.15,347.2 459.15,345.1 C459.15,342.7 460.8,341.05 463.35,340.6 L468.6,339.7 C468.6,338.2 467.4,337 465.6,337 C463.375,337 462.177811,338.484616 461.908788,338.863048 Z M464.7,346.6 C467.1,346.6 468.6,345.1 468.6,342.4 L468.6,342.1 L463.95,342.85 C462.9,343.03 462.15,343.75 462.15,344.8 C462.15,345.7 463.05,346.6 464.7,346.6 Z M474.9,341.8 C474.9,345.85 478.35,349.3 482.4,349.3 C486.15,349.3 488.4,346.3 488.4,346.3 L486.45,344.35 C486.45,344.35 484.95,346.6 482.4,346.6 C480,346.6 477.9,344.5 477.9,341.8 C477.9,339.1 480,337 482.4,337 C484.95,337 486.3,339.1 486.3,339.1 L488.25,337.15 C488.25,337.15 486.15,334.3 482.4,334.3 C478.35,334.3 474.9,337.75 474.9,341.8 Z M493.2,332.8 C493.2,334 492.6,334.6 491.7,334.6 L490.2,334.6 L490.2,337.3 L492.9,337.3 L492.9,344.8 C492.9,347.8 494.4,349.3 497.1,349.3 C498.3,349.3 499.2,349 499.2,349 L499.2,346.3 C499.2,346.3 498.45,346.6 497.7,346.6 C496.65,346.6 495.9,345.85 495.9,344.77 L495.9,337.3 L498.9,337.3 L498.9,334.6 L495.9,334.6 L495.9,329.8 L493.2,329.8 L493.2,332.8 Z M515.55,342.85 L504.3,342.85 C504.6,344.8 506.4,346.6 508.8,346.6 C511.65,346.6 513.15,344.35 513.15,344.35 L515.1,346.3 C515.1,346.3 512.85,349.3 508.8,349.3 C504.75,349.3 501.3,345.85 501.3,341.65 C501.3,337.6 504.6,334.3 508.65,334.3 C512.7,334.3 515.7,337.3 515.7,341.35 C515.7,342.25 515.55,342.85 515.55,342.85 Z M508.65,336.85 C506.4,336.85 504.9,338.35 504.42,340.3 L512.76,340.3 C512.4,338.35 510.9,336.85 508.65,336.85 Z M527.1,337.15 L527.1,334.3 L526.35,334.3 C523.65,334.3 522,336.1 522,336.1 L522,334.6 L519,334.6 L519,349 L522,349 L522,341.2 C522,338.5 523.5,337 525.75,337 C526.5,337 527.1,337.15 527.1,337.15 Z M547.05,341.5 L534.75,341.5 L534.75,344.2 L547.05,344.2 L547.05,341.5 Z M547.05,336.1 L534.75,336.1 L534.75,338.8 L547.05,338.8 L547.05,336.1 Z M556.05,342.7 C557.25,342.7 557.85,343.3 557.85,344.5 L557.85,350.95 C557.85,353.65 559.5,355.3 562.5,355.3 L564.15,355.3 L564.15,352.9 L562.5,352.9 C561.3,352.9 560.55,352.15 560.55,350.95 L560.55,344.5 C560.55,341.8 558.9,341.5 558.93,341.5 C558.9,341.5 560.55,341.2 560.55,338.5 L560.55,332.05 C560.55,330.85 561.3,330.1 562.5,330.1 L564.15,330.1 L564.15,327.7 L562.5,327.7 C559.5,327.7 557.85,329.35 557.85,332.05 L557.85,338.5 C557.85,339.7 557.25,340.3 556.05,340.3 L556.05,342.7 Z M576.45,347.35 C576.45,346.3 575.55,345.4 574.5,345.4 C573.45,345.4 572.55,346.3 572.55,347.35 C572.55,348.4 573.45,349.3 574.5,349.3 C575.55,349.3 576.45,348.4 576.45,347.35 Z M584.25,347.35 C584.25,346.3 583.35,345.4 582.3,345.4 C581.25,345.4 580.35,346.3 580.35,347.35 C580.35,348.4 581.25,349.3 582.3,349.3 C583.35,349.3 584.25,348.4 584.25,347.35 Z M592.05,347.35 C592.05,346.3 591.15,345.4 590.1,345.4 C589.05,345.4 588.15,346.3 588.15,347.35 C588.15,348.4 589.05,349.3 590.1,349.3 C591.15,349.3 592.05,348.4 592.05,347.35 Z M594.6,341.8 C594.6,345.85 598.05,349.3 602.1,349.3 C605.85,349.3 608.1,346.3 608.1,346.3 L606.15,344.35 C606.15,344.35 604.65,346.6 602.1,346.6 C599.7,346.6 597.6,344.5 597.6,341.8 C597.6,339.1 599.7,337 602.1,337 C604.65,337 606,339.1 606,339.1 L607.95,337.15 C607.95,337.15 605.85,334.3 602.1,334.3 C598.05,334.3 594.6,337.75 594.6,341.8 Z M614.4,328 L611.4,328 L611.4,349 L614.4,349 L614.4,341.2 C614.4,338.5 615.9,337 618.15,337 C620.1,337 621.6,338.5 621.6,340.6 L621.6,349 L624.6,349 L624.6,340.6 C624.6,336.7 622.2,334.3 618.75,334.3 C616.05,334.3 614.4,336.1 614.4,336.1 L614.4,328 Z M640.35,349 L637.35,349 L637.35,347.5 C637.35,347.5 635.7,349.3 633,349.3 C630,349.3 627.9,347.2 627.9,345.1 C627.9,342.7 629.55,341.05 632.1,340.6 L637.35,339.7 C637.35,338.2 636.15,337 634.35,337 C631.8,337 630.6,338.95 630.6,338.95 L628.65,337 C628.65,337 630.6,334.3 634.35,334.3 C637.95,334.3 640.35,336.7 640.35,339.7 L640.35,349 Z M633.45,346.6 C635.85,346.6 637.35,345.1 637.35,342.4 L637.35,342.1 L632.7,342.85 C631.65,343.03 630.9,343.75 630.9,344.8 C630.9,345.7 631.8,346.6 633.45,346.6 Z M652.65,337.15 L652.65,334.3 L651.9,334.3 C649.2,334.3 647.55,336.1 647.55,336.1 L647.55,334.6 L644.55,334.6 L644.55,349 L647.55,349 L647.55,341.2 C647.55,338.5 649.05,337 651.3,337 C652.05,337 652.65,337.15 652.65,337.15 Z M656.85,338.95 C656.85,338.95 656.869493,338.918325 656.908788,338.863048 L656.85,338.95 Z M656.908788,338.863048 L656.85,338.95 L654.9,337 C654.9,337 656.85,334.3 660.6,334.3 C664.2,334.3 666.6,336.7 666.6,339.7 L666.6,349 L663.6,349 L663.6,347.5 C663.6,347.5 661.95,349.3 659.25,349.3 C656.25,349.3 654.15,347.2 654.15,345.1 C654.15,342.7 655.8,341.05 658.35,340.6 L663.6,339.7 C663.6,338.2 662.4,337 660.6,337 C658.375,337 657.177811,338.484616 656.908788,338.863048 Z M659.7,346.6 C662.1,346.6 663.6,345.1 663.6,342.4 L663.6,342.1 L658.95,342.85 C657.9,343.03 657.15,343.75 657.15,344.8 C657.15,345.7 658.05,346.6 659.7,346.6 Z M669.9,341.8 C669.9,345.85 673.35,349.3 677.4,349.3 C681.15,349.3 683.4,346.3 683.4,346.3 L681.45,344.35 C681.45,344.35 679.95,346.6 677.4,346.6 C675,346.6 672.9,344.5 672.9,341.8 C672.9,339.1 675,337 677.4,337 C679.95,337 681.3,339.1 681.3,339.1 L683.25,337.15 C683.25,337.15 681.15,334.3 677.4,334.3 C673.35,334.3 669.9,337.75 669.9,341.8 Z M688.2,332.8 C688.2,334 687.6,334.6 686.7,334.6 L685.2,334.6 L685.2,337.3 L687.9,337.3 L687.9,344.8 C687.9,347.8 689.4,349.3 692.1,349.3 C693.3,349.3 694.2,349 694.2,349 L694.2,346.3 C694.2,346.3 693.45,346.6 692.7,346.6 C691.65,346.6 690.9,345.85 690.9,344.77 L690.9,337.3 L693.9,337.3 L693.9,334.6 L690.9,334.6 L690.9,329.8 L688.2,329.8 L688.2,332.8 Z M710.55,342.85 L699.3,342.85 C699.6,344.8 701.4,346.6 703.8,346.6 C706.65,346.6 708.15,344.35 708.15,344.35 L710.1,346.3 C710.1,346.3 707.85,349.3 703.8,349.3 C699.75,349.3 696.3,345.85 696.3,341.65 C696.3,337.6 699.6,334.3 703.65,334.3 C707.7,334.3 710.7,337.3 710.7,341.35 C710.7,342.25 710.55,342.85 710.55,342.85 Z M703.65,336.85 C701.4,336.85 699.9,338.35 699.42,340.3 L707.76,340.3 C707.4,338.35 705.9,336.85 703.65,336.85 Z M722.1,337.15 C722.1,337.15 721.5,337 720.75,337 C718.5,337 717,338.5 717,341.2 L717,349 L714,349 L714,334.6 L717,334.6 L717,336.1 C717,336.1 718.65,334.3 721.35,334.3 L722.1,334.3 L722.1,337.15 Z M723.75,345.4 L726.45,346.9 L722.7,352.9 L720.75,351.85 L723.75,345.4 Z M744,337.15 L744,334.3 L743.25,334.3 C740.55,334.3 738.9,336.1 738.9,336.1 L738.9,334.6 L735.9,334.6 L735.9,349 L738.9,349 L738.9,341.2 C738.9,338.5 740.4,337 742.65,337 C743.4,337 744,337.15 744,337.15 Z M757.5,341.8 C757.5,339.1 755.4,337 753,337 C750.6,337 748.5,339.1 748.5,341.8 C748.5,344.5 750.6,346.6 753,346.6 C755.4,346.6 757.5,344.5 757.5,341.8 Z M745.5,341.8 C745.5,337.75 748.95,334.3 753,334.3 C757.05,334.3 760.5,337.75 760.5,341.8 C760.5,345.85 757.05,349.3 753,349.3 C748.95,349.3 745.5,345.85 745.5,341.8 Z M767.1,328 L764.1,328 L764.1,349 L767.1,349 L767.1,328 Z M784.95,342.85 L773.7,342.85 C774,344.8 775.8,346.6 778.2,346.6 C781.05,346.6 782.55,344.35 782.55,344.35 L784.5,346.3 C784.5,346.3 782.25,349.3 778.2,349.3 C774.15,349.3 770.7,345.85 770.7,341.65 C770.7,337.6 774,334.3 778.05,334.3 C782.1,334.3 785.1,337.3 785.1,341.35 C785.1,342.25 784.95,342.85 784.95,342.85 Z M778.05,336.85 C775.8,336.85 774.3,338.35 773.82,340.3 L782.16,340.3 C781.8,338.35 780.3,336.85 778.05,336.85 Z M787.95,347.35 C787.95,348.4 788.85,349.3 789.9,349.3 C790.95,349.3 791.85,348.4 791.85,347.35 C791.85,346.3 790.95,345.4 789.9,345.4 C788.85,345.4 787.95,346.3 787.95,347.35 Z M787.95,336.25 C787.95,337.3 788.85,338.2 789.9,338.2 C790.95,338.2 791.85,337.3 791.85,336.25 C791.85,335.2 790.95,334.3 789.9,334.3 C788.85,334.3 787.95,335.2 787.95,336.25 Z M808.65,334.9 L811.65,328.45 L809.7,327.4 L805.95,333.4 L808.65,334.9 Z M825.15,327.7 C818.85,327.7 814.05,332.5 814.05,338.5 C814.05,344.5 818.85,349.3 825.15,349.3 C830.85,349.3 833.85,345.1 833.85,345.1 L831.75,343 C831.75,343 829.5,346.3 825.15,346.3 C820.8,346.3 817.35,342.85 817.35,338.5 C817.35,334.15 820.8,330.7 825.15,330.7 C829.5,330.7 831.6,333.85 831.6,333.85 L833.7,331.75 C833.7,331.75 830.85,327.7 825.15,327.7 Z M848.55,349 L845.55,349 L845.55,347.5 C845.55,347.5 843.9,349.3 841.2,349.3 C838.2,349.3 836.1,347.2 836.1,345.1 C836.1,342.7 837.75,341.05 840.3,340.6 L845.55,339.7 C845.55,338.2 844.35,337 842.55,337 C840,337 838.8,338.95 838.8,338.95 L836.85,337 C836.85,337 838.8,334.3 842.55,334.3 C846.15,334.3 848.55,336.7 848.55,339.7 L848.55,349 Z M841.65,346.6 C844.05,346.6 845.55,345.1 845.55,342.4 L845.55,342.1 L840.9,342.85 C839.85,343.03 839.1,343.75 839.1,344.8 C839.1,345.7 840,346.6 841.65,346.6 Z M860.4,349.3 C857.55,349.3 855.75,347.35 855.75,347.35 L855.75,355.3 L852.75,355.3 L852.75,334.6 L855.75,334.6 L855.75,336.25 C855.75,336.25 857.55,334.3 860.4,334.3 C864.15,334.3 867.45,337.6 867.45,341.8 C867.45,346 864.15,349.3 860.4,349.3 Z M860.1,337 C857.85,337 855.75,339.1 855.75,341.8 C855.75,344.5 857.85,346.6 860.1,346.6 C862.35,346.6 864.45,344.5 864.45,341.8 C864.45,339.1 862.35,337 860.1,337 Z M872.55,332.8 C872.55,334 871.95,334.6 871.05,334.6 L869.55,334.6 L869.55,337.3 L872.25,337.3 L872.25,344.8 C872.25,347.8 873.75,349.3 876.45,349.3 C877.65,349.3 878.55,349 878.55,349 L878.55,346.3 C878.55,346.3 877.8,346.6 877.05,346.6 C876,346.6 875.25,345.85 875.25,344.77 L875.25,337.3 L878.25,337.3 L878.25,334.6 L875.25,334.6 L875.25,329.8 L872.55,329.8 L872.55,332.8 Z M893.1,349 L890.1,349 L890.1,347.5 C890.1,347.5 888.45,349.3 885.75,349.3 C882.75,349.3 880.65,347.2 880.65,345.1 C880.65,342.7 882.3,341.05 884.85,340.6 L890.1,339.7 C890.1,338.2 888.9,337 887.1,337 C884.55,337 883.35,338.95 883.35,338.95 L881.4,337 C881.4,337 883.35,334.3 887.1,334.3 C890.7,334.3 893.1,336.7 893.1,339.7 L893.1,349 Z M886.2,346.6 C888.6,346.6 890.1,345.1 890.1,342.4 L890.1,342.1 L885.45,342.85 C884.4,343.03 883.65,343.75 883.65,344.8 C883.65,345.7 884.55,346.6 886.2,346.6 Z M900.45,334.6 L897.45,334.6 L897.45,349 L900.45,349 L900.45,334.6 Z M900.75,330.1 C900.75,329.05 900,328.3 898.95,328.3 C897.9,328.3 897.15,329.05 897.15,330.1 C897.15,331.15 897.9,331.9 898.95,331.9 C900,331.9 900.75,331.15 900.75,330.1 Z M907.8,334.6 L904.8,334.6 L904.8,349 L907.8,349 L907.8,341.2 C907.8,338.5 909.3,337 911.55,337 C913.5,337 915,338.5 915,340.6 L915,349 L918,349 L918,340.6 C918,336.7 915.6,334.3 912.15,334.3 C909.45,334.3 907.8,336.1 907.8,336.1 L907.8,334.6 Z M923.85,327.4 L920.85,333.85 L922.8,334.9 L926.55,328.9 L923.85,327.4 Z M942.15,340.3 C940.95,340.3 940.35,339.7 940.35,338.5 L940.35,332.05 C940.35,329.35 938.7,327.7 935.7,327.7 L934.05,327.7 L934.05,330.1 L935.7,330.1 C936.9,330.1 937.65,330.85 937.65,332.05 L937.65,338.5 C937.65,341.2 939.3,341.5 939.27,341.5 C939.3,341.5 937.65,341.8 937.65,344.5 L937.65,350.95 C937.65,352.15 936.9,352.9 935.7,352.9 L934.05,352.9 L934.05,355.3 L935.7,355.3 C938.7,355.3 940.35,353.65 940.35,350.95 L940.35,344.5 C940.35,343.3 940.95,342.7 942.15,342.7 L942.15,340.3 Z M946.95,345.4 L943.95,351.85 L945.9,352.9 L949.65,346.9 L946.95,345.4 Z M945.9,336.25 C945.9,337.3 946.8,338.2 947.85,338.2 C948.9,338.2 949.8,337.3 949.8,336.25 C949.8,335.2 948.9,334.3 947.85,334.3 C946.8,334.3 945.9,335.2 945.9,336.25 Z M208.65,391.7 L199.65,419.3 L195.9,419.3 L204.9,391.7 L208.65,391.7 Z M217.2,391.7 L208.2,419.3 L204.45,419.3 L213.45,391.7 L217.2,391.7 Z M225.9,407.15 C227.1,407.15 227.85,407.9 227.85,409.1 L227.85,414.2 C227.85,417.5 229.65,419.3 232.8,419.3 L235.05,419.3 L235.05,415.7 L233.55,415.7 C232.5,415.7 231.75,414.95 231.75,413.84 L231.75,408.95 C231.75,405.95 229.8,405.5 229.8,405.5 C229.8,405.5 231.75,405.05 231.75,402.05 L231.75,397.19 C231.75,396.05 232.5,395.3 233.55,395.3 L235.05,395.3 L235.05,391.7 L232.8,391.7 C229.65,391.7 227.85,393.5 227.85,396.8 L227.85,401.9 C227.85,403.1 227.1,403.85 225.9,403.85 L225.9,407.15 Z M248.1,398.3 L244.05,398.3 L244.05,413 L248.1,413 L248.1,405.35 C248.1,403.1 249.3,401.9 251.1,401.9 C252.75,401.9 253.95,403.1 253.95,404.9 L253.95,413 L258,413 L258,404.45 C258,400.4 255.6,398 252.3,398 C249.6,398 248.1,400.1 248.1,400.1 L248.1,398.3 Z M270,413 L270,411.5 C270,411.5 268.5,413.3 265.95,413.3 C262.95,413.3 261,411.35 261,409.1 C261,406.7 262.65,405.02 265.35,404.54 L270,403.7 C270,402.5 269.1,401.6 267.45,401.6 C265.2,401.6 264.15,403.1 264.15,403.1 L261.9,400.85 C261.9,400.85 263.85,398 267.75,398 C271.5,398 274.05,400.55 274.05,403.85 L274.05,413 L270,413 Z M267,410 C268.8,410 270,408.8 270,406.7 L270,406.25 L266.7,406.85 C265.65,407.03 265.05,407.6 265.05,408.5 C265.05,409.4 265.65,410 267,410 Z M296.25,413 L300.3,413 L300.3,404.45 C300.3,400.1 298.2,398 295.05,398 C291.75,398 290.1,400.55 290.1,400.55 C290.1,400.55 289.05,398 285.9,398 C283.35,398 282,400.1 282,400.1 L282,398.3 L277.95,398.3 L277.95,413 L282,413 L282,405.35 C282,403.1 283.2,401.9 284.7,401.9 C286.05,401.9 287.1,402.95 287.1,404.9 L287.1,413 L291.15,413 L291.15,405.35 C291.15,403.1 292.35,401.9 293.85,401.9 C295.2,401.9 296.25,402.95 296.25,404.9 L296.25,413 Z M318.15,407 L307.5,407 C307.8,408.5 309.15,409.85 311.4,409.85 C313.95,409.85 315.3,408.05 315.3,408.05 L317.4,410.75 C317.4,410.75 315.15,413.3 311.1,413.3 C306.75,413.3 303.3,409.85 303.3,405.65 C303.3,401.45 306.75,398 310.95,398 C315.15,398 318.3,401.15 318.3,405.35 C318.3,406.4 318.15,407 318.15,407 Z M310.95,401.45 C309.15,401.45 307.95,402.65 307.5,404.15 L314.25,404.15 C313.95,402.65 312.75,401.45 310.95,401.45 Z M320.85,411.05 C320.85,412.25 321.9,413.3 323.25,413.3 C324.6,413.3 325.65,412.25 325.65,411.05 C325.65,409.85 324.6,408.8 323.25,408.8 C321.9,408.8 320.85,409.85 320.85,411.05 Z M320.85,400.25 C320.85,401.45 321.9,402.5 323.25,402.5 C324.6,402.5 325.65,401.45 325.65,400.25 C325.65,399.05 324.6,398 323.25,398 C321.9,398 320.85,399.05 320.85,400.25 Z M337.2,399.8 L340.35,392.9 L337.8,391.4 L333.75,397.85 L337.2,399.8 Z M361.65,392 L357.15,392 L357.15,400.4 L348.15,400.4 L348.15,392 L343.65,392 L343.65,413 L348.15,413 L348.15,404.45 L357.15,404.45 L357.15,413 L361.65,413 L361.65,392 Z M374.25,413 L374.25,411.5 C374.25,411.5 372.75,413.3 370.2,413.3 C367.2,413.3 365.25,411.35 365.25,409.1 C365.25,406.7 366.9,405.02 369.6,404.54 L374.25,403.7 C374.25,402.5 373.35,401.6 371.7,401.6 C369.45,401.6 368.4,403.1 368.4,403.1 L366.15,400.85 C366.15,400.85 368.1,398 372,398 C375.75,398 378.3,400.55 378.3,403.85 L378.3,413 L374.25,413 Z M371.25,410 C373.05,410 374.25,408.8 374.25,406.7 L374.25,406.25 L370.95,406.85 C369.9,407.03 369.3,407.6 369.3,408.5 C369.3,409.4 369.9,410 371.25,410 Z M386.25,398.3 L382.2,398.3 L382.2,413 L386.25,413 L386.25,405.35 C386.25,403.1 387.45,401.9 389.25,401.9 C390.9,401.9 392.1,403.1 392.1,404.9 L392.1,413 L396.15,413 L396.15,404.45 C396.15,400.4 393.75,398 390.45,398 C387.75,398 386.25,400.1 386.25,400.1 L386.25,398.3 Z M416.25,406.85 C416.25,408.35 415.05,409.55 412.8,409.55 C409.65,409.55 407.85,407.3 407.85,407.3 L405.15,410 C405.15,410 407.85,413.45 413.1,413.45 C418.2,413.45 421.05,410.6 421.05,406.85 C421.05,399.35 410.7,401.6 410.7,397.7 C410.7,396.5 411.75,395.45 413.55,395.45 C415.95,395.45 417.45,397.25 417.45,397.25 L420.15,394.4 C420.15,394.4 417.9,391.55 413.25,391.55 C408.75,391.55 405.9,394.4 405.9,397.7 C405.9,405.2 416.25,402.95 416.25,406.85 Z M427.5,405.65 C427.5,407.9 429.15,409.55 431.1,409.55 C433.05,409.55 434.7,407.9 434.7,405.65 C434.7,403.4 433.05,401.75 431.1,401.75 C429.15,401.75 427.5,403.4 427.5,405.65 Z M438.9,405.65 C438.9,409.7 435.3,413.3 431.1,413.3 C426.9,413.3 423.3,409.7 423.3,405.65 C423.3,401.6 426.9,398 431.1,398 C435.3,398 438.9,401.6 438.9,405.65 Z M446.1,392 L442.05,392 L442.05,413 L446.1,413 L446.1,392 Z M453.45,405.65 C453.45,407.9 455.1,409.55 457.05,409.55 C459,409.55 460.65,407.9 460.65,405.65 C460.65,403.4 459,401.75 457.05,401.75 C455.1,401.75 453.45,403.4 453.45,405.65 Z M464.85,405.65 C464.85,409.7 461.25,413.3 457.05,413.3 C452.85,413.3 449.25,409.7 449.25,405.65 C449.25,401.6 452.85,398 457.05,398 C461.25,398 464.85,401.6 464.85,405.65 Z M469.8,391.4 L466.65,398.3 L469.2,399.8 L473.25,393.35 L469.8,391.4 Z M490.2,403.85 C489,403.85 488.25,403.1 488.25,401.9 L488.25,396.8 C488.25,393.5 486.45,391.7 483.3,391.7 L481.05,391.7 L481.05,395.3 L482.55,395.3 C483.6,395.3 484.35,396.05 484.35,397.19 L484.35,402.05 C484.35,405.05 486.3,405.5 486.3,405.5 C486.3,405.5 484.35,405.95 484.35,408.95 L484.35,413.84 C484.35,414.95 483.6,415.7 482.55,415.7 L481.05,415.7 L481.05,419.3 L483.3,419.3 C486.45,419.3 488.25,417.5 488.25,414.2 L488.25,409.1 C488.25,407.9 489,407.15 490.2,407.15 L490.2,403.85 Z M493.8,400.25 C493.8,401.45 494.85,402.5 496.2,402.5 C497.55,402.5 498.6,401.45 498.6,400.25 C498.6,399.05 497.55,398 496.2,398 C494.85,398 493.8,399.05 493.8,400.25 Z M495,408.65 L491.7,415.55 L494.4,416.9 L498.3,410.6 L495,408.65 Z M196.05,438.88 C196.05,442.24 198.93,445.3 202.47,445.3 C206.22,445.3 208.77,442.3 208.77,442.3 L207.18,440.35 C207.18,440.35 205.41,442.6 202.86,442.6 C200.79,442.6 199.11,440.89 199.11,438.73 C199.11,435.55 201.81,433 204.51,433 C207.06,433 208.32,434.98 208.32,434.98 L210.54,433.15 C210.54,433.15 208.56,430.3 204.81,430.3 C200.1,430.3 196.05,434.47 196.05,438.88 Z M218.7,442.6 C221.4,442.6 223.95,439.9 223.95,437.14 C223.95,434.77 222.24,433 219.93,433 C217.35,433 214.71,435.49 214.71,438.49 C214.71,440.86 216.45,442.6 218.7,442.6 Z M211.65,438.58 C211.65,434.38 215.7,430.3 220.2,430.3 C224.1,430.3 227.01,433.39 227.01,437.05 C227.01,441.46 222.69,445.3 218.43,445.3 C214.5,445.3 211.65,442.21 211.65,438.58 Z M234.66,430.6 L231.66,430.6 L228.6,445 L231.6,445 L233.22,437.32 C233.79,434.62 235.53,433 237.78,433 C239.46,433 240.66,434.11 240.66,435.79 C240.66,436.06 240.63,436.33 240.57,436.6 L238.8,445 L241.8,445 L243.57,436.6 C243.69,436.06 243.75,435.55 243.75,435.07 C243.75,432.07 241.62,430.3 238.65,430.3 C235.95,430.3 234.33,432.1 234.33,432.1 L234.66,430.6 Z M257.85,432.25 C257.85,432.25 256.32,430.3 253.17,430.3 C249.6,430.3 247.5,432.7 247.5,435.07 C247.5,438.91 253.65,438.55 253.65,440.71 C253.65,441.91 252.63,442.6 250.92,442.6 C248.67,442.6 247.53,440.86 247.53,440.86 L245.25,442.75 C245.25,442.75 246.96,445.3 250.71,445.3 C254.43,445.3 256.71,442.99 256.71,440.23 C256.71,436.39 250.59,436.78 250.59,434.59 C250.59,433.78 251.43,433 252.99,433 C254.64,433 255.57,434.14 255.57,434.14 L257.85,432.25 Z M266.55,442.6 C269.25,442.6 271.8,439.9 271.8,437.14 C271.8,434.77 270.09,433 267.78,433 C265.2,433 262.56,435.49 262.56,438.49 C262.56,440.86 264.3,442.6 266.55,442.6 Z M259.5,438.58 C259.5,434.38 263.55,430.3 268.05,430.3 C271.95,430.3 274.86,433.39 274.86,437.05 C274.86,441.46 270.54,445.3 266.28,445.3 C262.35,445.3 259.5,442.21 259.5,438.58 Z M284.19,424 L281.19,424 L276.75,445 L279.75,445 L284.19,424 Z M298.89,438.85 L287.61,438.85 C287.7,440.86 289.2,442.6 291.45,442.6 C294.3,442.6 296.13,440.29 296.13,440.29 L297.72,442.3 C297.72,442.3 295.26,445.3 291.21,445.3 C287.67,445.3 284.73,442.3 284.73,438.85 C284.73,434.11 288.78,430.3 293.37,430.3 C296.85,430.3 299.55,432.55 299.55,435.76 C299.55,437.11 298.92,438.94 298.89,438.85 Z M293.19,432.85 C291.06,432.85 289.05,434.32 288.15,436.3 L296.64,436.3 C296.73,434.35 295.47,432.85 293.19,432.85 Z M304.89,443.17 C304.89,442.21 304.14,441.4 303.12,441.4 C302.04,441.4 300.9,442.39 300.9,443.5 C300.9,444.46 301.62,445.3 302.67,445.3 C303.84,445.3 304.89,444.25 304.89,443.17 Z M315.69,424 L312.69,424 L308.25,445 L311.25,445 L315.69,424 Z M323.25,442.6 C325.95,442.6 328.5,439.9 328.5,437.14 C328.5,434.77 326.79,433 324.48,433 C321.9,433 319.26,435.49 319.26,438.49 C319.26,440.86 321,442.6 323.25,442.6 Z M316.2,438.58 C316.2,434.38 320.25,430.3 324.75,430.3 C328.65,430.3 331.56,433.39 331.56,437.05 C331.56,441.46 327.24,445.3 322.98,445.3 C319.05,445.3 316.2,442.21 316.2,438.58 Z M343.53,444.13 L343.74,443.02 C343.74,443.02 342.06,444.7 339.36,444.7 C336.24,444.7 333.66,441.91 333.66,438.64 C333.66,433.87 337.71,430.3 341.76,430.3 C344.46,430.3 346.05,432.22 346.05,432.22 L346.41,430.6 L349.41,430.6 L346.53,444.1 C345.66,448.15 342.45,451.3 338.4,451.3 C334.05,451.3 331.98,448.3 331.98,448.3 L334.26,446.41 C334.26,446.41 335.73,448.6 338.58,448.6 C340.95,448.6 342.99,446.8 343.53,444.13 Z M341.7,433 C339.03,433 336.72,435.64 336.72,438.37 C336.72,440.41 338.22,442 340.05,442 C342.39,442 345.06,439.51 345.06,436.48 C345.06,434.47 343.5,433 341.7,433 Z M355.29,437.5 C354.96,439.06 354.81,440.53 354.81,441.88 C354.81,447.01 356.73,450.4 356.73,450.4 L354.21,451.75 C354.21,451.75 352.05,448 352.05,442.27 C352.05,430.84 360.3,423.19 360.27,423.25 L362.25,424.63 C362.25,424.63 356.88,430 355.29,437.5 Z M361.2,438.88 C361.2,434.47 365.25,430.3 369.96,430.3 C373.71,430.3 375.69,433.15 375.69,433.15 L373.47,434.98 C373.47,434.98 372.21,433 369.66,433 C366.96,433 364.26,435.55 364.26,438.73 C364.26,440.89 365.94,442.6 368.01,442.6 C370.56,442.6 372.33,440.35 372.33,440.35 L373.92,442.3 C373.92,442.3 371.37,445.3 367.62,445.3 C364.08,445.3 361.2,442.24 361.2,438.88 Z M384.09,424 L381.09,424 L376.65,445 L379.65,445 L381.27,437.32 C381.84,434.62 383.58,433 385.83,433 C387.51,433 388.71,434.11 388.71,435.79 C388.71,436.06 388.68,436.33 388.62,436.6 L386.85,445 L389.85,445 L391.62,436.6 C391.74,436.06 391.8,435.55 391.8,435.07 C391.8,432.07 389.67,430.3 386.7,430.3 C384,430.3 382.38,432.1 382.38,432.1 L384.09,424 Z M401.1,442.6 C403.59,442.6 406.5,439.9 406.5,436.72 C406.5,434.53 404.82,433 402.87,433 C400.32,433 397.56,435.64 397.56,438.82 C397.56,440.98 399.15,442.6 401.1,442.6 Z M402.99,430.3 C405.84,430.3 407.52,432.4 407.52,432.4 L407.91,430.6 L410.91,430.6 L407.85,445 L404.85,445 L405.15,443.47 C405.15,443.47 403.35,445.3 400.5,445.3 C397.26,445.3 394.5,442.51 394.5,439.12 C394.5,434.17 398.76,430.3 402.99,430.3 Z M422.79,433.15 C422.79,433.15 422.25,433 421.5,433 C419.25,433 417.39,434.62 416.82,437.32 L415.2,445 L412.2,445 L415.26,430.6 L418.26,430.6 L417.93,432.07 C417.93,432.07 419.97,430.3 422.67,430.3 L423.42,430.3 L422.79,433.15 Z M429.75,442.6 C432.24,442.6 435.15,439.9 435.15,436.72 C435.15,434.53 433.47,433 431.52,433 C428.97,433 426.21,435.64 426.21,438.82 C426.21,440.98 427.8,442.6 429.75,442.6 Z M431.64,430.3 C434.49,430.3 436.17,432.4 436.17,432.4 L436.56,430.6 L439.56,430.6 L436.5,445 L433.5,445 L433.8,443.47 C433.8,443.47 432,445.3 429.15,445.3 C425.91,445.3 423.15,442.51 423.15,439.12 C423.15,434.17 427.41,430.3 431.64,430.3 Z M441.3,438.88 C441.3,442.24 444.18,445.3 447.72,445.3 C451.47,445.3 454.02,442.3 454.02,442.3 L452.43,440.35 C452.43,440.35 450.66,442.6 448.11,442.6 C446.04,442.6 444.36,440.89 444.36,438.73 C444.36,435.55 447.06,433 449.76,433 C452.31,433 453.57,434.98 453.57,434.98 L455.79,433.15 C455.79,433.15 453.81,430.3 450.06,430.3 C445.35,430.3 441.3,434.47 441.3,438.88 Z M461.67,428.8 C461.43,430 460.71,430.6 459.81,430.6 L458.31,430.6 L457.71,433.3 L460.41,433.3 L458.82,440.8 C458.19,443.8 459.45,445.3 462.15,445.3 C463.35,445.3 464.25,445 464.25,445 L464.82,442.3 C464.82,442.3 463.92,442.6 463.17,442.6 C462.12,442.6 461.61,441.85 461.82,440.77 L463.41,433.3 L466.41,433.3 L467.01,430.6 L464.01,430.6 L465.03,425.8 L462.33,425.8 L461.67,428.8 Z M481.89,438.85 L470.61,438.85 C470.7,440.86 472.2,442.6 474.45,442.6 C477.3,442.6 479.13,440.29 479.13,440.29 L480.72,442.3 C480.72,442.3 478.26,445.3 474.21,445.3 C470.67,445.3 467.73,442.3 467.73,438.85 C467.73,434.11 471.78,430.3 476.37,430.3 C479.85,430.3 482.55,432.55 482.55,435.76 C482.55,437.11 481.92,438.94 481.89,438.85 Z M476.19,432.85 C474.06,432.85 472.05,434.32 471.15,436.3 L479.64,436.3 C479.73,434.35 478.47,432.85 476.19,432.85 Z M494.64,433.15 C494.64,433.15 494.1,433 493.35,433 C491.1,433 489.24,434.62 488.67,437.32 L487.05,445 L484.05,445 L487.11,430.6 L490.11,430.6 L489.78,432.07 C489.78,432.07 491.82,430.3 494.52,430.3 L495.27,430.3 L494.64,433.15 Z M499.29,437.5 C499.62,435.97 499.74,434.5 499.74,433.15 C499.74,428.02 497.82,424.6 497.82,424.6 L500.37,423.25 C500.37,423.25 502.53,427.03 502.53,432.76 C502.53,444.19 494.25,451.81 494.31,451.75 L492.33,450.37 C492.33,450.37 497.7,445 499.29,437.5 Z M511.38,432.07 C511.38,431.11 510.63,430.3 509.61,430.3 C508.53,430.3 507.39,431.29 507.39,432.4 C507.39,433.36 508.11,434.2 509.16,434.2 C510.33,434.2 511.38,433.15 511.38,432.07 Z M506.43,441.34 L508.92,442.9 L503.91,448.9 L502.14,447.82 L506.43,441.34 Z M208.65,487.7 L199.65,515.3 L195.9,515.3 L204.9,487.7 L208.65,487.7 Z M217.2,487.7 L208.2,515.3 L204.45,515.3 L213.45,487.7 L217.2,487.7 Z M225.9,503.15 C227.1,503.15 227.85,503.9 227.85,505.1 L227.85,510.2 C227.85,513.5 229.65,515.3 232.8,515.3 L235.05,515.3 L235.05,511.7 L233.55,511.7 C232.5,511.7 231.75,510.95 231.75,509.84 L231.75,504.95 C231.75,501.95 229.8,501.5 229.8,501.5 C229.8,501.5 231.75,501.05 231.75,498.05 L231.75,493.19 C231.75,492.05 232.5,491.3 233.55,491.3 L235.05,491.3 L235.05,487.7 L232.8,487.7 C229.65,487.7 227.85,489.5 227.85,492.8 L227.85,497.9 C227.85,499.1 227.1,499.85 225.9,499.85 L225.9,503.15 Z M248.1,494.3 L244.05,494.3 L244.05,509 L248.1,509 L248.1,501.35 C248.1,499.1 249.3,497.9 251.1,497.9 C252.75,497.9 253.95,499.1 253.95,500.9 L253.95,509 L258,509 L258,500.45 C258,496.4 255.6,494 252.3,494 C249.6,494 248.1,496.1 248.1,496.1 L248.1,494.3 Z M270,509 L270,507.5 C270,507.5 268.5,509.3 265.95,509.3 C262.95,509.3 261,507.35 261,505.1 C261,502.7 262.65,501.02 265.35,500.54 L270,499.7 C270,498.5 269.1,497.6 267.45,497.6 C265.2,497.6 264.15,499.1 264.15,499.1 L261.9,496.85 C261.9,496.85 263.85,494 267.75,494 C271.5,494 274.05,496.55 274.05,499.85 L274.05,509 L270,509 Z M267,506 C268.8,506 270,504.8 270,502.7 L270,502.25 L266.7,502.85 C265.65,503.03 265.05,503.6 265.05,504.5 C265.05,505.4 265.65,506 267,506 Z M296.25,509 L300.3,509 L300.3,500.45 C300.3,496.1 298.2,494 295.05,494 C291.75,494 290.1,496.55 290.1,496.55 C290.1,496.55 289.05,494 285.9,494 C283.35,494 282,496.1 282,496.1 L282,494.3 L277.95,494.3 L277.95,509 L282,509 L282,501.35 C282,499.1 283.2,497.9 284.7,497.9 C286.05,497.9 287.1,498.95 287.1,500.9 L287.1,509 L291.15,509 L291.15,501.35 C291.15,499.1 292.35,497.9 293.85,497.9 C295.2,497.9 296.25,498.95 296.25,500.9 L296.25,509 Z M318.15,503 L307.5,503 C307.8,504.5 309.15,505.85 311.4,505.85 C313.95,505.85 315.3,504.05 315.3,504.05 L317.4,506.75 C317.4,506.75 315.15,509.3 311.1,509.3 C306.75,509.3 303.3,505.85 303.3,501.65 C303.3,497.45 306.75,494 310.95,494 C315.15,494 318.3,497.15 318.3,501.35 C318.3,502.4 318.15,503 318.15,503 Z M310.95,497.45 C309.15,497.45 307.95,498.65 307.5,500.15 L314.25,500.15 C313.95,498.65 312.75,497.45 310.95,497.45 Z M320.85,507.05 C320.85,508.25 321.9,509.3 323.25,509.3 C324.6,509.3 325.65,508.25 325.65,507.05 C325.65,505.85 324.6,504.8 323.25,504.8 C321.9,504.8 320.85,505.85 320.85,507.05 Z M320.85,496.25 C320.85,497.45 321.9,498.5 323.25,498.5 C324.6,498.5 325.65,497.45 325.65,496.25 C325.65,495.05 324.6,494 323.25,494 C321.9,494 320.85,495.05 320.85,496.25 Z M337.2,495.8 L340.35,488.9 L337.8,487.4 L333.75,493.85 L337.2,495.8 Z M361.65,488 L357.15,488 L357.15,496.4 L348.15,496.4 L348.15,488 L343.65,488 L343.65,509 L348.15,509 L348.15,500.45 L357.15,500.45 L357.15,509 L361.65,509 L361.65,488 Z M374.25,509 L374.25,507.5 C374.25,507.5 372.75,509.3 370.2,509.3 C367.2,509.3 365.25,507.35 365.25,505.1 C365.25,502.7 366.9,501.02 369.6,500.54 L374.25,499.7 C374.25,498.5 373.35,497.6 371.7,497.6 C369.45,497.6 368.4,499.1 368.4,499.1 L366.15,496.85 C366.15,496.85 368.1,494 372,494 C375.75,494 378.3,496.55 378.3,499.85 L378.3,509 L374.25,509 Z M371.25,506 C373.05,506 374.25,504.8 374.25,502.7 L374.25,502.25 L370.95,502.85 C369.9,503.03 369.3,503.6 369.3,504.5 C369.3,505.4 369.9,506 371.25,506 Z M386.25,494.3 L382.2,494.3 L382.2,509 L386.25,509 L386.25,501.35 C386.25,499.1 387.45,497.9 389.25,497.9 C390.9,497.9 392.1,499.1 392.1,500.9 L392.1,509 L396.15,509 L396.15,500.45 C396.15,496.4 393.75,494 390.45,494 C387.75,494 386.25,496.1 386.25,496.1 L386.25,494.3 Z M416.25,502.85 C416.25,504.35 415.05,505.55 412.8,505.55 C409.65,505.55 407.85,503.3 407.85,503.3 L405.15,506 C405.15,506 407.85,509.45 413.1,509.45 C418.2,509.45 421.05,506.6 421.05,502.85 C421.05,495.35 410.7,497.6 410.7,493.7 C410.7,492.5 411.75,491.45 413.55,491.45 C415.95,491.45 417.45,493.25 417.45,493.25 L420.15,490.4 C420.15,490.4 417.9,487.55 413.25,487.55 C408.75,487.55 405.9,490.4 405.9,493.7 C405.9,501.2 416.25,498.95 416.25,502.85 Z M427.5,501.65 C427.5,503.9 429.15,505.55 431.1,505.55 C433.05,505.55 434.7,503.9 434.7,501.65 C434.7,499.4 433.05,497.75 431.1,497.75 C429.15,497.75 427.5,499.4 427.5,501.65 Z M438.9,501.65 C438.9,505.7 435.3,509.3 431.1,509.3 C426.9,509.3 423.3,505.7 423.3,501.65 C423.3,497.6 426.9,494 431.1,494 C435.3,494 438.9,497.6 438.9,501.65 Z M446.1,488 L442.05,488 L442.05,509 L446.1,509 L446.1,488 Z M453.45,501.65 C453.45,503.9 455.1,505.55 457.05,505.55 C459,505.55 460.65,503.9 460.65,501.65 C460.65,499.4 459,497.75 457.05,497.75 C455.1,497.75 453.45,499.4 453.45,501.65 Z M464.85,501.65 C464.85,505.7 461.25,509.3 457.05,509.3 C452.85,509.3 449.25,505.7 449.25,501.65 C449.25,497.6 452.85,494 457.05,494 C461.25,494 464.85,497.6 464.85,501.65 Z M469.8,487.4 L466.65,494.3 L469.2,495.8 L473.25,489.35 L469.8,487.4 Z M477,504.65 L473.7,511.55 L476.4,512.9 L480.3,506.6 L477,504.65 Z M498.45,494.15 L497.85,494.15 C495.15,494.15 493.65,496.1 493.65,496.1 L493.65,494.3 L489.6,494.3 L489.6,509 L493.65,509 L493.65,501.95 C493.65,499.4 495,498.05 497.1,498.05 C498,498.05 498.45,498.2 498.45,498.2 L498.45,494.15 Z M504,501.65 C504,503.9 505.65,505.55 507.6,505.55 C509.55,505.55 511.2,503.9 511.2,501.65 C511.2,499.4 509.55,497.75 507.6,497.75 C505.65,497.75 504,499.4 504,501.65 Z M515.4,501.65 C515.4,505.7 511.8,509.3 507.6,509.3 C503.4,509.3 499.8,505.7 499.8,501.65 C499.8,497.6 503.4,494 507.6,494 C511.8,494 515.4,497.6 515.4,501.65 Z M522.6,488 L518.55,488 L518.55,509 L522.6,509 L522.6,488 Z M540.6,503 L529.95,503 C530.25,504.5 531.6,505.85 533.85,505.85 C536.4,505.85 537.75,504.05 537.75,504.05 L539.85,506.75 C539.85,506.75 537.6,509.3 533.55,509.3 C529.2,509.3 525.75,505.85 525.75,501.65 C525.75,497.45 529.2,494 533.4,494 C537.6,494 540.75,497.15 540.75,501.35 C540.75,502.4 540.6,503 540.6,503 Z M533.4,497.45 C531.6,497.45 530.4,498.65 529.95,500.15 L536.7,500.15 C536.4,498.65 535.2,497.45 533.4,497.45 Z M543.3,507.05 C543.3,508.25 544.35,509.3 545.7,509.3 C547.05,509.3 548.1,508.25 548.1,507.05 C548.1,505.85 547.05,504.8 545.7,504.8 C544.35,504.8 543.3,505.85 543.3,507.05 Z M543.3,496.25 C543.3,497.45 544.35,498.5 545.7,498.5 C547.05,498.5 548.1,497.45 548.1,496.25 C548.1,495.05 547.05,494 545.7,494 C544.35,494 543.3,495.05 543.3,496.25 Z M559.65,495.8 L562.8,488.9 L560.25,487.4 L556.2,493.85 L559.65,495.8 Z M576.3,487.55 C569.85,487.55 564.9,492.5 564.9,498.5 C564.9,504.5 569.85,509.45 576.3,509.45 C582.15,509.45 585.15,505.25 585.15,505.25 L582.45,502.4 C582.45,502.4 580.35,505.4 576.3,505.4 C572.4,505.4 569.4,502.4 569.4,498.5 C569.4,494.6 572.4,491.6 576.3,491.6 C580.2,491.6 582.15,494.6 582.15,494.6 L585,491.75 C585,491.75 582.15,487.55 576.3,487.55 Z M595.95,509 L595.95,507.5 C595.95,507.5 594.45,509.3 591.9,509.3 C588.9,509.3 586.95,507.35 586.95,505.1 C586.95,502.7 588.6,501.02 591.3,500.54 L595.95,499.7 C595.95,498.5 595.05,497.6 593.4,497.6 C591.15,497.6 590.1,499.1 590.1,499.1 L587.85,496.85 C587.85,496.85 589.8,494 593.7,494 C597.45,494 600,496.55 600,499.85 L600,509 L595.95,509 Z M592.95,506 C594.75,506 595.95,504.8 595.95,502.7 L595.95,502.25 L592.65,502.85 C591.6,503.03 591,503.6 591,504.5 C591,505.4 591.6,506 592.95,506 Z M612.3,509.3 C609.45,509.3 607.95,507.2 607.95,507.2 L607.95,515.3 L603.9,515.3 L603.9,494.3 L607.95,494.3 L607.95,496.1 C607.95,496.1 609.45,494 612.3,494 C616.05,494 619.35,497.3 619.35,501.65 C619.35,506 616.05,509.3 612.3,509.3 Z M611.55,497.6 C609.6,497.6 607.95,499.25 607.95,501.65 C607.95,504.05 609.6,505.7 611.55,505.7 C613.5,505.7 615.15,504.05 615.15,501.65 C615.15,499.25 613.5,497.6 611.55,497.6 Z M624.15,492.65 C624.15,493.85 623.4,494.6 622.5,494.6 L621.15,494.6 L621.15,498.2 L623.7,498.2 L623.7,504.2 C623.7,507.65 625.35,509.3 628.35,509.3 C629.85,509.3 631.05,508.85 631.05,508.85 L631.05,505.4 C631.05,505.4 630.45,505.7 629.55,505.7 C628.5,505.7 627.75,504.95 627.75,504.05 L627.75,498.2 L630.75,498.2 L630.75,494.6 L627.75,494.6 L627.75,489.95 L624.15,489.95 L624.15,492.65 Z M642,509 L642,507.5 C642,507.5 640.5,509.3 637.95,509.3 C634.95,509.3 633,507.35 633,505.1 C633,502.7 634.65,501.02 637.35,500.54 L642,499.7 C642,498.5 641.1,497.6 639.45,497.6 C637.2,497.6 636.15,499.1 636.15,499.1 L633.9,496.85 C633.9,496.85 635.85,494 639.75,494 C643.5,494 646.05,496.55 646.05,499.85 L646.05,509 L642,509 Z M639,506 C640.8,506 642,504.8 642,502.7 L642,502.25 L638.7,502.85 C637.65,503.03 637.05,503.6 637.05,504.5 C637.05,505.4 637.65,506 639,506 Z M654.15,494.3 L650.1,494.3 L650.1,509 L654.15,509 L654.15,494.3 Z M654.45,490.1 C654.45,488.75 653.55,487.85 652.05,487.85 C650.7,487.85 649.8,488.75 649.8,490.1 C649.8,491.45 650.7,492.35 652.05,492.35 C653.55,492.35 654.45,491.45 654.45,490.1 Z M662.25,494.3 L658.2,494.3 L658.2,509 L662.25,509 L662.25,501.35 C662.25,499.1 663.45,497.9 665.25,497.9 C666.9,497.9 668.1,499.1 668.1,500.9 L668.1,509 L672.15,509 L672.15,500.45 C672.15,496.4 669.75,494 666.45,494 C663.75,494 662.25,496.1 662.25,496.1 L662.25,494.3 Z M678,487.4 L674.85,494.3 L677.4,495.8 L681.45,489.35 L678,487.4 Z M698.4,499.85 C697.2,499.85 696.45,499.1 696.45,497.9 L696.45,492.8 C696.45,489.5 694.65,487.7 691.5,487.7 L689.25,487.7 L689.25,491.3 L690.75,491.3 C691.8,491.3 692.55,492.05 692.55,493.19 L692.55,498.05 C692.55,501.05 694.5,501.5 694.5,501.5 C694.5,501.5 692.55,501.95 692.55,504.95 L692.55,509.84 C692.55,510.95 691.8,511.7 690.75,511.7 L689.25,511.7 L689.25,515.3 L691.5,515.3 C694.65,515.3 696.45,513.5 696.45,510.2 L696.45,505.1 C696.45,503.9 697.2,503.15 698.4,503.15 L698.4,499.85 Z M702,496.25 C702,497.45 703.05,498.5 704.4,498.5 C705.75,498.5 706.8,497.45 706.8,496.25 C706.8,495.05 705.75,494 704.4,494 C703.05,494 702,495.05 702,496.25 Z M703.2,504.65 L699.9,511.55 L702.6,512.9 L706.5,506.6 L703.2,504.65 Z M196.05,534.88 C196.05,538.24 198.93,541.3 202.47,541.3 C206.22,541.3 208.77,538.3 208.77,538.3 L207.18,536.35 C207.18,536.35 205.41,538.6 202.86,538.6 C200.79,538.6 199.11,536.89 199.11,534.73 C199.11,531.55 201.81,529 204.51,529 C207.06,529 208.32,530.98 208.32,530.98 L210.54,529.15 C210.54,529.15 208.56,526.3 204.81,526.3 C200.1,526.3 196.05,530.47 196.05,534.88 Z M218.7,538.6 C221.4,538.6 223.95,535.9 223.95,533.14 C223.95,530.77 222.24,529 219.93,529 C217.35,529 214.71,531.49 214.71,534.49 C214.71,536.86 216.45,538.6 218.7,538.6 Z M211.65,534.58 C211.65,530.38 215.7,526.3 220.2,526.3 C224.1,526.3 227.01,529.39 227.01,533.05 C227.01,537.46 222.69,541.3 218.43,541.3 C214.5,541.3 211.65,538.21 211.65,534.58 Z M234.66,526.6 L231.66,526.6 L228.6,541 L231.6,541 L233.22,533.32 C233.79,530.62 235.53,529 237.78,529 C239.46,529 240.66,530.11 240.66,531.79 C240.66,532.06 240.63,532.33 240.57,532.6 L238.8,541 L241.8,541 L243.57,532.6 C243.69,532.06 243.75,531.55 243.75,531.07 C243.75,528.07 241.62,526.3 238.65,526.3 C235.95,526.3 234.33,528.1 234.33,528.1 L234.66,526.6 Z M257.85,528.25 C257.85,528.25 256.32,526.3 253.17,526.3 C249.6,526.3 247.5,528.7 247.5,531.07 C247.5,534.91 253.65,534.55 253.65,536.71 C253.65,537.91 252.63,538.6 250.92,538.6 C248.67,538.6 247.53,536.86 247.53,536.86 L245.25,538.75 C245.25,538.75 246.96,541.3 250.71,541.3 C254.43,541.3 256.71,538.99 256.71,536.23 C256.71,532.39 250.59,532.78 250.59,530.59 C250.59,529.78 251.43,529 252.99,529 C254.64,529 255.57,530.14 255.57,530.14 L257.85,528.25 Z M266.55,538.6 C269.25,538.6 271.8,535.9 271.8,533.14 C271.8,530.77 270.09,529 267.78,529 C265.2,529 262.56,531.49 262.56,534.49 C262.56,536.86 264.3,538.6 266.55,538.6 Z M259.5,534.58 C259.5,530.38 263.55,526.3 268.05,526.3 C271.95,526.3 274.86,529.39 274.86,533.05 C274.86,537.46 270.54,541.3 266.28,541.3 C262.35,541.3 259.5,538.21 259.5,534.58 Z M284.19,520 L281.19,520 L276.75,541 L279.75,541 L284.19,520 Z M298.89,534.85 L287.61,534.85 C287.7,536.86 289.2,538.6 291.45,538.6 C294.3,538.6 296.13,536.29 296.13,536.29 L297.72,538.3 C297.72,538.3 295.26,541.3 291.21,541.3 C287.67,541.3 284.73,538.3 284.73,534.85 C284.73,530.11 288.78,526.3 293.37,526.3 C296.85,526.3 299.55,528.55 299.55,531.76 C299.55,533.11 298.92,534.94 298.89,534.85 Z M293.19,528.85 C291.06,528.85 289.05,530.32 288.15,532.3 L296.64,532.3 C296.73,530.35 295.47,528.85 293.19,528.85 Z M304.89,539.17 C304.89,538.21 304.14,537.4 303.12,537.4 C302.04,537.4 300.9,538.39 300.9,539.5 C300.9,540.46 301.62,541.3 302.67,541.3 C303.84,541.3 304.89,540.25 304.89,539.17 Z M315.69,520 L312.69,520 L308.25,541 L311.25,541 L315.69,520 Z M323.25,538.6 C325.95,538.6 328.5,535.9 328.5,533.14 C328.5,530.77 326.79,529 324.48,529 C321.9,529 319.26,531.49 319.26,534.49 C319.26,536.86 321,538.6 323.25,538.6 Z M316.2,534.58 C316.2,530.38 320.25,526.3 324.75,526.3 C328.65,526.3 331.56,529.39 331.56,533.05 C331.56,537.46 327.24,541.3 322.98,541.3 C319.05,541.3 316.2,538.21 316.2,534.58 Z M343.53,540.13 L343.74,539.02 C343.74,539.02 342.06,540.7 339.36,540.7 C336.24,540.7 333.66,537.91 333.66,534.64 C333.66,529.87 337.71,526.3 341.76,526.3 C344.46,526.3 346.05,528.22 346.05,528.22 L346.41,526.6 L349.41,526.6 L346.53,540.1 C345.66,544.15 342.45,547.3 338.4,547.3 C334.05,547.3 331.98,544.3 331.98,544.3 L334.26,542.41 C334.26,542.41 335.73,544.6 338.58,544.6 C340.95,544.6 342.99,542.8 343.53,540.13 Z M341.7,529 C339.03,529 336.72,531.64 336.72,534.37 C336.72,536.41 338.22,538 340.05,538 C342.39,538 345.06,535.51 345.06,532.48 C345.06,530.47 343.5,529 341.7,529 Z M355.29,533.5 C354.96,535.06 354.81,536.53 354.81,537.88 C354.81,543.01 356.73,546.4 356.73,546.4 L354.21,547.75 C354.21,547.75 352.05,544 352.05,538.27 C352.05,526.84 360.3,519.19 360.27,519.25 L362.25,520.63 C362.25,520.63 356.88,526 355.29,533.5 Z M370.95,541 L371.22,539.65 C371.22,539.65 369.51,541.3 366.81,541.3 C363.87,541.3 361.83,539.56 361.83,536.59 C361.83,536.11 361.89,535.57 362.01,535 L363.81,526.6 L366.81,526.6 L365.01,535 C364.95,535.3 364.92,535.57 364.92,535.84 C364.92,537.49 366.09,538.6 367.77,538.6 C370.02,538.6 371.76,536.95 372.36,534.25 L374.01,526.6 L377.01,526.6 L373.95,541 L370.95,541 Z M386.07,541.3 C383.22,541.3 381.51,539.2 381.51,539.2 L379.8,547.3 L376.8,547.3 L381.21,526.6 L384.21,526.6 L383.88,528.13 C383.88,528.13 385.71,526.3 388.56,526.3 C391.8,526.3 394.56,529.09 394.56,532.48 C394.56,537.43 390.3,541.3 386.07,541.3 Z M387.96,529 C385.47,529 382.56,531.7 382.56,534.88 C382.56,537.07 384.24,538.6 386.19,538.6 C388.74,538.6 391.5,535.96 391.5,532.78 C391.5,530.62 389.91,529 387.96,529 Z M405.09,526.3 C407.94,526.3 409.62,528.4 409.62,528.4 L411.39,520 L414.39,520 L409.95,541 L406.95,541 L407.25,539.47 C407.25,539.47 405.45,541.3 402.6,541.3 C399.36,541.3 396.6,538.51 396.6,535.12 C396.6,530.17 400.86,526.3 405.09,526.3 Z M403.2,538.6 C405.69,538.6 408.6,535.9 408.6,532.72 C408.6,530.53 406.92,529 404.97,529 C402.42,529 399.66,531.64 399.66,534.82 C399.66,536.98 401.25,538.6 403.2,538.6 Z M421.5,538.6 C423.99,538.6 426.9,535.9 426.9,532.72 C426.9,530.53 425.22,529 423.27,529 C420.72,529 417.96,531.64 417.96,534.82 C417.96,536.98 419.55,538.6 421.5,538.6 Z M423.39,526.3 C426.24,526.3 427.92,528.4 427.92,528.4 L428.31,526.6 L431.31,526.6 L428.25,541 L425.25,541 L425.55,539.47 C425.55,539.47 423.75,541.3 420.9,541.3 C417.66,541.3 414.9,538.51 414.9,535.12 C414.9,530.17 419.16,526.3 423.39,526.3 Z M437.82,524.8 C437.58,526 436.86,526.6 435.96,526.6 L434.46,526.6 L433.86,529.3 L436.56,529.3 L434.97,536.8 C434.34,539.8 435.6,541.3 438.3,541.3 C439.5,541.3 440.4,541 440.4,541 L440.97,538.3 C440.97,538.3 440.07,538.6 439.32,538.6 C438.27,538.6 437.76,537.85 437.97,536.77 L439.56,529.3 L442.56,529.3 L443.16,526.6 L440.16,526.6 L441.18,521.8 L438.48,521.8 L437.82,524.8 Z M458.04,534.85 L446.76,534.85 C446.85,536.86 448.35,538.6 450.6,538.6 C453.45,538.6 455.28,536.29 455.28,536.29 L456.87,538.3 C456.87,538.3 454.41,541.3 450.36,541.3 C446.82,541.3 443.88,538.3 443.88,534.85 C443.88,530.11 447.93,526.3 452.52,526.3 C456,526.3 458.7,528.55 458.7,531.76 C458.7,533.11 458.07,534.94 458.04,534.85 Z M452.34,528.85 C450.21,528.85 448.2,530.32 447.3,532.3 L455.79,532.3 C455.88,530.35 454.62,528.85 452.34,528.85 Z M469.14,526.3 C471.99,526.3 473.67,528.4 473.67,528.4 L475.44,520 L478.44,520 L474,541 L471,541 L471.3,539.47 C471.3,539.47 469.5,541.3 466.65,541.3 C463.41,541.3 460.65,538.51 460.65,535.12 C460.65,530.17 464.91,526.3 469.14,526.3 Z M467.25,538.6 C469.74,538.6 472.65,535.9 472.65,532.72 C472.65,530.53 470.97,529 469.02,529 C466.47,529 463.71,531.64 463.71,534.82 C463.71,536.98 465.3,538.6 467.25,538.6 Z M493.35,519.7 C499.05,519.7 501.66,523.75 501.66,523.75 L499.23,525.76 C499.23,525.76 497.34,522.7 492.99,522.7 C488.13,522.7 483.69,526.87 483.69,531.97 C483.69,535.48 486.45,538.3 490.23,538.3 C494.58,538.3 497.25,534.94 497.25,534.94 L498.96,537.1 C498.96,537.1 495.72,541.3 490.02,541.3 C484.56,541.3 480.3,537.07 480.3,532.21 C480.3,525.19 486.3,519.7 493.35,519.7 Z M509.04,520 L507.33,528.1 C507.33,528.1 508.95,526.3 511.65,526.3 C514.62,526.3 516.75,528.07 516.75,531.07 C516.75,531.55 516.69,532.06 516.57,532.6 L514.8,541 L511.8,541 L513.57,532.6 C513.63,532.33 513.66,532.06 513.66,531.79 C513.66,530.11 512.46,529 510.78,529 C508.53,529 506.79,530.62 506.22,533.32 L504.6,541 L501.6,541 L506.04,520 L509.04,520 Z M526.05,538.6 C528.54,538.6 531.45,535.9 531.45,532.72 C531.45,530.53 529.77,529 527.82,529 C525.27,529 522.51,531.64 522.51,534.82 C522.51,536.98 524.1,538.6 526.05,538.6 Z M527.94,526.3 C530.79,526.3 532.47,528.4 532.47,528.4 L532.86,526.6 L535.86,526.6 L532.8,541 L529.8,541 L530.1,539.47 C530.1,539.47 528.3,541.3 525.45,541.3 C522.21,541.3 519.45,538.51 519.45,535.12 C519.45,530.17 523.71,526.3 527.94,526.3 Z M547.74,529.15 C547.74,529.15 547.2,529 546.45,529 C544.2,529 542.34,530.62 541.77,533.32 L540.15,541 L537.15,541 L540.21,526.6 L543.21,526.6 L542.88,528.07 C542.88,528.07 544.92,526.3 547.62,526.3 L548.37,526.3 L547.74,529.15 Z M554.7,538.6 C557.19,538.6 560.1,535.9 560.1,532.72 C560.1,530.53 558.42,529 556.47,529 C553.92,529 551.16,531.64 551.16,534.82 C551.16,536.98 552.75,538.6 554.7,538.6 Z M556.59,526.3 C559.44,526.3 561.12,528.4 561.12,528.4 L561.51,526.6 L564.51,526.6 L561.45,541 L558.45,541 L558.75,539.47 C558.75,539.47 556.95,541.3 554.1,541.3 C550.86,541.3 548.1,538.51 548.1,535.12 C548.1,530.17 552.36,526.3 556.59,526.3 Z M566.25,534.88 C566.25,538.24 569.13,541.3 572.67,541.3 C576.42,541.3 578.97,538.3 578.97,538.3 L577.38,536.35 C577.38,536.35 575.61,538.6 573.06,538.6 C570.99,538.6 569.31,536.89 569.31,534.73 C569.31,531.55 572.01,529 574.71,529 C577.26,529 578.52,530.98 578.52,530.98 L580.74,529.15 C580.74,529.15 578.76,526.3 575.01,526.3 C570.3,526.3 566.25,530.47 566.25,534.88 Z M586.62,524.8 C586.38,526 585.66,526.6 584.76,526.6 L583.26,526.6 L582.66,529.3 L585.36,529.3 L583.77,536.8 C583.14,539.8 584.4,541.3 587.1,541.3 C588.3,541.3 589.2,541 589.2,541 L589.77,538.3 C589.77,538.3 588.87,538.6 588.12,538.6 C587.07,538.6 586.56,537.85 586.77,536.77 L588.36,529.3 L591.36,529.3 L591.96,526.6 L588.96,526.6 L589.98,521.8 L587.28,521.8 L586.62,524.8 Z M606.84,534.85 L595.56,534.85 C595.65,536.86 597.15,538.6 599.4,538.6 C602.25,538.6 604.08,536.29 604.08,536.29 L605.67,538.3 C605.67,538.3 603.21,541.3 599.16,541.3 C595.62,541.3 592.68,538.3 592.68,534.85 C592.68,530.11 596.73,526.3 601.32,526.3 C604.8,526.3 607.5,528.55 607.5,531.76 C607.5,533.11 606.87,534.94 606.84,534.85 Z M601.14,528.85 C599.01,528.85 597,530.32 596.1,532.3 L604.59,532.3 C604.68,530.35 603.42,528.85 601.14,528.85 Z M619.59,529.15 C619.59,529.15 619.05,529 618.3,529 C616.05,529 614.19,530.62 613.62,533.32 L612,541 L609,541 L612.06,526.6 L615.06,526.6 L614.73,528.07 C614.73,528.07 616.77,526.3 619.47,526.3 L620.22,526.3 L619.59,529.15 Z M624.24,533.5 C624.57,531.97 624.69,530.5 624.69,529.15 C624.69,524.02 622.77,520.6 622.77,520.6 L625.32,519.25 C625.32,519.25 627.48,523.03 627.48,528.76 C627.48,540.19 619.2,547.81 619.26,547.75 L617.28,546.37 C617.28,546.37 622.65,541 624.24,533.5 Z M636.33,528.07 C636.33,527.11 635.58,526.3 634.56,526.3 C633.48,526.3 632.34,527.29 632.34,528.4 C632.34,529.36 633.06,530.2 634.11,530.2 C635.28,530.2 636.33,529.15 636.33,528.07 Z M631.38,537.34 L633.87,538.9 L628.86,544.9 L627.09,543.82 L631.38,537.34 Z" id="const-character-=-{" fill="#545E6F"></path>
        </g>
    </g>
</svg>