<?xml version="1.0" encoding="UTF-8"?>
<svg width="1280px" height="720px" viewBox="0 0 1280 720" version="1.1" xmlns="http://www.w3.org/2000/svg" xmlns:xlink="http://www.w3.org/1999/xlink" style="background: #FFFFFF;">
    <!-- Generator: Sketch 47.1 (45422) - http://www.bohemiancoding.com/sketch -->
    <title>5</title>
    <desc>Created with Sketch.</desc>
    <defs>
        <circle id="path-1" cx="60" cy="60" r="60"></circle>
        <rect id="path-2" x="0" y="0" width="180" height="50" rx="5"></rect>
        <circle id="path-3" cx="60" cy="60" r="60"></circle>
        <circle id="path-4" cx="60" cy="60" r="60"></circle>
        <rect id="path-5" x="0" y="0" width="160" height="50" rx="5"></rect>
        <circle id="path-6" cx="60" cy="60" r="60"></circle>
    </defs>
    <g id="Page-1" stroke="none" stroke-width="1" fill="none" fill-rule="evenodd">
        <g id="5">
            <g id="diagram" transform="translate(7.000000, 66.000000)">
                <rect id="Rectangle-3" stroke="#545E6F" stroke-width="4" stroke-linecap="round" x="489" y="88" width="578" height="204" rx="20"></rect>
                <rect id="Rectangle-8" stroke="#545E6F" stroke-width="4" stroke-linecap="round" x="1035" y="313" width="60" height="92"></rect>
                <rect id="Rectangle-2" fill="#FFFFFF" x="431" y="51" width="101" height="474"></rect>
                <rect id="Rectangle-3" stroke="#545E6F" stroke-width="4" stroke-linecap="round" x="115" y="88" width="437" height="410" rx="20"></rect>
                <rect id="Rectangle-6" fill="#FFFFFF" transform="translate(31.000000, 445.000000) scale(-1, 1) translate(-31.000000, -445.000000) " x="0" y="327" width="62" height="236"></rect>
                <g id="Group" transform="translate(278.000000, 438.000000)">
                    <g id="Oval">
                        <use fill="#8E7CB9" fill-rule="evenodd" xlink:href="#path-1"></use>
                        <circle stroke="#FFFFFF" stroke-width="18" cx="60" cy="60" r="69"></circle>
                    </g>
                    <text id="STATE" font-family="TTNorms-Bold, TT Norms" font-size="18" font-weight="bold" letter-spacing="0.600000024" fill="#FFFFFF">
                        <tspan x="31" y="66">STATE</tspan>
                    </text>
                </g>
                <rect id="Rectangle-8" stroke="#545E6F" stroke-width="4" stroke-linecap="round" x="1035" y="420" width="60" height="92"></rect>
                <g id="Group" transform="translate(975.000000, 411.000000)">
                    <g id="Rectangle-4">
                        <use fill="#4FBFAA" fill-rule="evenodd" xlink:href="#path-2"></use>
                        <rect stroke="#FFFFFF" stroke-width="10" x="-5" y="-5" width="190" height="60" rx="5"></rect>
                    </g>
                    <text id="SERVICE" font-family="TTNorms-Bold, TT Norms" font-size="18" font-weight="bold" letter-spacing="0.600000024" fill="#FFFFFF">
                        <tspan x="48.0749999" y="31">SERVICE</tspan>
                    </text>
                </g>
                <text id="Render" font-family="TTNorms-Bold, TT Norms" font-size="18" font-weight="bold" fill="#545E6F">
                    <tspan x="155" y="454">Render</tspan>
                </text>
                <text id="New-State" font-family="TTNorms-Bold, TT Norms" font-size="18" font-weight="bold" fill="#545E6F">
                    <tspan x="424.79" y="454">New State</tspan>
                </text>
                <text id="Sent-to" font-family="TTNorms-Bold, TT Norms" font-size="18" font-weight="bold" fill="#545E6F">
                    <tspan x="451.7" y="145">Sent to</tspan>
                </text>
                <g id="Group-2" transform="translate(492.000000, 233.000000)">
                    <g id="Oval">
                        <use fill="#F9BE65" fill-rule="evenodd" xlink:href="#path-3"></use>
                        <circle stroke="#FFFFFF" stroke-width="18" cx="60" cy="60" r="69"></circle>
                    </g>
                    <rect id="Rectangle-7" fill="#FFFFFF" x="122" y="35" width="382" height="46"></rect>
                    <text id="REDUCER" font-family="TTNorms-Bold, TT Norms" font-size="18" font-weight="bold" letter-spacing="0.600000024" fill="#FFFFFF">
                        <tspan x="13" y="65">REDUCE</tspan>
                        <tspan x="94.6300001" y="65">R</tspan>
                    </text>
                </g>
                <g id="Group-2" transform="translate(1005.000000, 232.000000)">
                    <g id="Oval">
                        <use fill="#545E6F" fill-rule="evenodd" xlink:href="#path-4"></use>
                        <circle stroke="#FFFFFF" stroke-width="18" cx="60" cy="60" r="69"></circle>
                    </g>
                    <text id="EFFECT" font-family="TTNorms-Bold, TT Norms" font-size="18" font-weight="bold" letter-spacing="0.600000024" fill="#FFFFFF">
                        <tspan x="23.0149999" y="65">EFFECT</tspan>
                    </text>
                </g>
                <path d="M424.894584,489.914504 L435.053273,504.426917 L435.053273,504.426917 C435.686702,505.331816 435.466633,506.578877 434.561734,507.212306 C434.225567,507.447622 433.825154,507.573842 433.414809,507.573842 L413.097432,507.573842 L413.097432,507.573842 C411.992862,507.573842 411.097432,506.678411 411.097432,505.573842 C411.097432,505.163497 411.223651,504.763084 411.458968,504.426917 L421.617657,489.914504 L421.617657,489.914504 C422.251086,489.009606 423.498147,488.789536 424.403045,489.422965 C424.594328,489.556863 424.760686,489.723222 424.894584,489.914504 Z" id="arrow-head" fill="#545E6F" transform="translate(423.256292, 498.317549) rotate(-90.000000) translate(-423.256292, -498.317549) "></path>
                <path d="M554.955842,199.853247 L565.11453,214.36566 L565.11453,214.36566 C565.747959,215.270558 565.52789,216.517619 564.622991,217.151048 C564.286824,217.386365 563.886411,217.512584 563.476067,217.512584 L543.158689,217.512584 L543.158689,217.512584 C542.054119,217.512584 541.158689,216.617154 541.158689,215.512584 C541.158689,215.10224 541.284908,214.701827 541.520225,214.36566 L551.678914,199.853247 L551.678914,199.853247 C552.312343,198.948348 553.559404,198.728279 554.464302,199.361708 C554.655585,199.495606 554.821944,199.661964 554.955842,199.853247 Z" id="arrow-head" fill="#545E6F" transform="translate(553.317549, 208.256292) rotate(-180.000000) translate(-553.317549, -208.256292) "></path>
                <path d="M1068.95584,199.853247 L1079.11453,214.36566 L1079.11453,214.36566 C1079.74796,215.270558 1079.52789,216.517619 1078.62299,217.151048 C1078.28682,217.386365 1077.88641,217.512584 1077.47607,217.512584 L1057.15869,217.512584 L1057.15869,217.512584 C1056.05412,217.512584 1055.15869,216.617154 1055.15869,215.512584 C1055.15869,215.10224 1055.28491,214.701827 1055.52023,214.36566 L1065.67891,199.853247 L1065.67891,199.853247 C1066.31234,198.948348 1067.5594,198.728279 1068.4643,199.361708 C1068.65559,199.495606 1068.82194,199.661964 1068.95584,199.853247 Z" id="arrow-head" fill="#545E6F" transform="translate(1067.317549, 208.256292) rotate(-180.000000) translate(-1067.317549, -208.256292) "></path>
                <path d="M1096.95584,385.853247 L1107.11453,400.36566 L1107.11453,400.36566 C1107.74796,401.270558 1107.52789,402.517619 1106.62299,403.151048 C1106.28682,403.386365 1105.88641,403.512584 1105.47607,403.512584 L1085.15869,403.512584 L1085.15869,403.512584 C1084.05412,403.512584 1083.15869,402.617154 1083.15869,401.512584 C1083.15869,401.10224 1083.28491,400.701827 1083.52023,400.36566 L1093.67891,385.853247 L1093.67891,385.853247 C1094.31234,384.948348 1095.5594,384.728279 1096.4643,385.361708 C1096.65559,385.495606 1096.82194,385.661964 1096.95584,385.853247 Z" id="arrow-head" fill="#545E6F" transform="translate(1095.317549, 394.256292) rotate(-180.000000) translate(-1095.317549, -394.256292) "></path>
                <rect id="Rectangle-5" stroke="#4FB688" stroke-width="4" stroke-linecap="round" stroke-dasharray="10,14" x="231" y="0" width="680" height="588" rx="15"></rect>
                <rect id="Rectangle-5" stroke="#A2B2CC" stroke-width="4" stroke-linecap="round" stroke-dasharray="10,14" x="942" y="0" width="247" height="588" rx="15"></rect>
                <text id="EFFECTS" font-family="TTNorms-Bold, TT Norms" font-size="26" font-weight="bold" fill="#A2B2CC">
                    <tspan x="1006.155" y="52">EFFECTS</tspan>
                </text>
                <path d="M156.62,132.4 L161.3,132.4 C164.99,132.4 167.78,135.19 167.78,138.7 C167.78,142.21 164.99,145 161.3,145 L156.62,145 L156.62,132.4 Z M161.3,134.83 L159.32,134.83 L159.32,142.57 L161.3,142.57 C163.37,142.57 165.08,140.86 165.08,138.7 C165.08,136.54 163.46,134.83 161.3,134.83 Z M172.28,136.18 L169.85,136.18 L169.85,145 L172.28,145 L172.28,136.18 Z M172.46,133.66 C172.46,132.85 171.92,132.31 171.02,132.31 C170.21,132.31 169.67,132.85 169.67,133.66 C169.67,134.47 170.21,135.01 171.02,135.01 C171.92,135.01 172.46,134.47 172.46,133.66 Z M180.83,137.35 C180.83,137.35 179.84,136 177.77,136 C175.79,136 174.35,137.44 174.35,138.79 C174.35,141.706 178.4,141.04 178.4,142.39 C178.4,142.84 178.04,143.2 177.23,143.2 C176.06,143.2 175.34,142.21 175.34,142.21 L173.99,143.56 C173.99,143.56 175.07,145.18 177.59,145.18 C179.84,145.18 181.1,143.92 181.1,142.39 C181.1,139.42 177.05,140.05 177.05,138.79 C177.05,138.43 177.41,138.07 178.13,138.07 C179.03,138.07 179.57,138.79 179.57,138.79 L180.83,137.35 Z M187.94,145.18 C186.23,145.18 185.33,143.92 185.33,143.92 L185.33,148.78 L182.9,148.78 L182.9,136.18 L185.33,136.18 L185.33,137.26 C185.33,137.26 186.23,136 187.94,136 C190.19,136 192.17,137.98 192.17,140.59 C192.17,143.2 190.19,145.18 187.94,145.18 Z M187.49,138.16 C186.32,138.16 185.33,139.15 185.33,140.59 C185.33,142.03 186.32,143.02 187.49,143.02 C188.66,143.02 189.65,142.03 189.65,140.59 C189.65,139.15 188.66,138.16 187.49,138.16 Z M198.83,145 L198.83,144.1 C198.83,144.1 197.93,145.18 196.4,145.18 C194.6,145.18 193.43,144.01 193.43,142.66 C193.43,141.22 194.42,140.212 196.04,139.924 L198.83,139.42 C198.83,138.7 198.29,138.16 197.3,138.16 C195.95,138.16 195.32,139.06 195.32,139.06 L193.97,137.71 C193.97,137.71 195.14,136 197.48,136 C199.73,136 201.26,137.53 201.26,139.51 L201.26,145 L198.83,145 Z M197.03,143.2 C198.11,143.2 198.83,142.48 198.83,141.22 L198.83,140.95 L196.85,141.31 C196.22,141.418 195.86,141.76 195.86,142.3 C195.86,142.84 196.22,143.2 197.03,143.2 Z M204.68,135.19 C204.68,135.91 204.23,136.36 203.69,136.36 L202.88,136.36 L202.88,138.52 L204.41,138.52 L204.41,142.12 C204.41,144.19 205.4,145.18 207.2,145.18 C208.1,145.18 208.82,144.91 208.82,144.91 L208.82,142.84 C208.82,142.84 208.46,143.02 207.92,143.02 C207.29,143.02 206.84,142.57 206.84,142.03 L206.84,138.52 L208.64,138.52 L208.64,136.36 L206.84,136.36 L206.84,133.57 L204.68,133.57 L204.68,135.19 Z M209.99,140.59 C209.99,143.02 212.15,145.18 214.76,145.18 C217.19,145.18 218.36,143.38 218.36,143.38 L216.92,141.85 C216.92,141.85 216.11,143.02 214.76,143.02 C213.5,143.02 212.42,141.94 212.42,140.59 C212.42,139.24 213.5,138.16 214.76,138.16 C216.11,138.16 216.83,139.33 216.83,139.33 L218.36,137.8 C218.36,137.8 217.19,136 214.76,136 C212.15,136 209.99,138.16 209.99,140.59 Z M222.5,132.4 L220.07,132.4 L220.07,145 L222.5,145 L222.5,140.41 C222.5,139.06 223.22,138.34 224.3,138.34 C225.29,138.34 226.01,139.06 226.01,140.14 L226.01,145 L228.44,145 L228.44,139.87 C228.44,137.44 227,136 225.02,136 C223.4,136 222.5,137.26 222.5,137.26 L222.5,132.4 Z" id="Dispatch" fill="#545E6F"></path>
                <g id="Group-3" transform="translate(28.000000, 261.000000)">
                    <g id="Rectangle">
                        <use fill="#6DB0DC" fill-rule="evenodd" xlink:href="#path-5"></use>
                        <rect stroke="#FFFFFF" stroke-width="18" x="-9" y="-9" width="178" height="68" rx="5"></rect>
                    </g>
                    <text id="COMPONENT" font-family="TTNorms-Bold, TT Norms" font-size="18" font-weight="bold" letter-spacing="0.600000024" fill="#FFFFFF">
                        <tspan x="15" y="31">COMPONENT</tspan>
                    </text>
                </g>
                <g id="Group-2" transform="translate(278.000000, 30.000000)">
                    <g id="Oval">
                        <use fill="#DF7575" fill-rule="evenodd" xlink:href="#path-6"></use>
                        <circle stroke="#FFFFFF" stroke-width="18" cx="60" cy="60" r="69"></circle>
                    </g>
                    <text id="ACTION" font-family="TTNorms-Bold, TT Norms" font-size="18" font-weight="bold" letter-spacing="0.600000024" fill="#FFFFFF">
                        <tspan x="22" y="65">ACTIO</tspan>
                        <tspan x="83.0500001" y="65">N</tspan>
                    </text>
                </g>
                <path d="M254.894584,79.9145043 L265.053273,94.426917 L265.053273,94.426917 C265.686702,95.3318156 265.466633,96.5788765 264.561734,97.2123055 C264.225567,97.4476225 263.825154,97.5738417 263.414809,97.5738417 L243.097432,97.5738417 L243.097432,97.5738417 C241.992862,97.5738417 241.097432,96.6784112 241.097432,95.5738417 C241.097432,95.1634975 241.223651,94.7630841 241.458968,94.426917 L251.617657,79.9145043 L251.617657,79.9145043 C252.251086,79.0096057 253.498147,78.7895361 254.403045,79.4229652 C254.594328,79.556863 254.760686,79.7232217 254.894584,79.9145043 Z" id="arrow-head" fill="#545E6F" transform="translate(253.256292, 88.317549) rotate(-270.000000) translate(-253.256292, -88.317549) "></path>
                <path d="M116.955842,328.853247 L127.11453,343.36566 L127.11453,343.36566 C127.747959,344.270558 127.52789,345.517619 126.622991,346.151048 C126.286824,346.386365 125.886411,346.512584 125.476067,346.512584 L105.158689,346.512584 L105.158689,346.512584 C104.054119,346.512584 103.158689,345.617154 103.158689,344.512584 C103.158689,344.10224 103.284908,343.701827 103.520225,343.36566 L113.678914,328.853247 L113.678914,328.853247 C114.312343,327.948348 115.559404,327.728279 116.464302,328.361708 C116.655585,328.495606 116.821944,328.661964 116.955842,328.853247 Z" id="arrow-head" fill="#545E6F"></path>
            </g>
            <text id="STORE" font-family="TTNorms-Bold, TT Norms" font-size="26" font-weight="bold" fill="#4FB688">
                <tspan x="282" y="364">STORE</tspan>
            </text>
            <rect id="Rectangle-9" fill="#FFFFFF" x="1020" y="428" width="39" height="40"></rect>
            <rect id="Rectangle-9" fill="#FFFFFF" x="1010" y="535" width="100" height="52"></rect>
            <rect id="Rectangle-9" fill="#FFFFFF" x="1030" y="575" width="90" height="52"></rect>
        </g>
    </g>
</svg>