<?xml version="1.0" encoding="UTF-8"?>
<svg width="1280px" height="720px" viewBox="0 0 1280 720" version="1.1" xmlns="http://www.w3.org/2000/svg" xmlns:xlink="http://www.w3.org/1999/xlink" style="background: #FFFFFF;">
    <!-- Generator: Sketch 47.1 (45422) - http://www.bohemiancoding.com/sketch -->
    <title>imports-for-effects</title>
    <desc>Created with Sketch.</desc>
    <defs></defs>
    <g id="Page-1" stroke="none" stroke-width="1" fill="none" fill-rule="evenodd">
        <g id="imports-for-effects">
            <g id="Group" transform="translate(125.000000, 247.000000)">
                <rect id="Rectangle-7" fill="#F4F6F8" x="0" y="24" width="1030" height="202" rx="15"></rect>
                <path d="M15,0 L1015,0 L1015,1.77635684e-15 C1023.28427,5.91178485e-14 1030,6.71572875 1030,15 L1030,58 L0,58 L0,15 L-1.77635684e-15,15 C-2.79088747e-15,6.71572875 6.71572875,-2.54560899e-16 15,-1.77635684e-15 Z" id="Rectangle" fill="#6DB0DC"></path>
            </g>
            <path d="M200.44,373.64 L197.24,373.64 L197.24,389 L200.44,389 L200.44,373.64 Z M200.76,368.84 C200.76,367.72 199.96,366.92 198.84,366.92 C197.72,366.92 196.92,367.72 196.92,368.84 C196.92,369.96 197.72,370.76 198.84,370.76 C199.96,370.76 200.76,369.96 200.76,368.84 Z M224.92,389 L228.12,389 L228.12,380.04 C228.12,375.56 225.88,373.32 222.36,373.32 C218.84,373.32 217.08,375.88 217.08,375.88 C217.08,375.88 215.8,373.32 212.44,373.32 C209.88,373.32 208.28,375.24 208.28,375.24 L208.28,373.64 L205.08,373.64 L205.08,389 L208.28,389 L208.28,380.68 C208.28,377.8 209.88,376.2 211.8,376.2 C213.72,376.2 215,377.48 215,380.04 L215,389 L218.2,389 L218.2,380.68 C218.2,377.8 219.8,376.2 221.72,376.2 C223.64,376.2 224.92,377.48 224.92,380.04 L224.92,389 Z M240.76,389.32 C237.72,389.32 235.8,387.24 235.8,387.24 L235.8,395.72 L232.6,395.72 L232.6,373.64 L235.8,373.64 L235.8,375.4 C235.8,375.4 237.72,373.32 240.76,373.32 C244.76,373.32 248.28,376.84 248.28,381.32 C248.28,385.8 244.76,389.32 240.76,389.32 Z M240.44,376.2 C238.04,376.2 235.8,378.44 235.8,381.32 C235.8,384.2 238.04,386.44 240.44,386.44 C242.84,386.44 245.08,384.2 245.08,381.32 C245.08,378.44 242.84,376.2 240.44,376.2 Z M263.64,381.32 C263.64,378.44 261.4,376.2 258.84,376.2 C256.28,376.2 254.04,378.44 254.04,381.32 C254.04,384.2 256.28,386.44 258.84,386.44 C261.4,386.44 263.64,384.2 263.64,381.32 Z M250.84,381.32 C250.84,377 254.52,373.32 258.84,373.32 C263.16,373.32 266.84,377 266.84,381.32 C266.84,385.64 263.16,389.32 258.84,389.32 C254.52,389.32 250.84,385.64 250.84,381.32 Z M279,376.36 L279,373.32 L278.2,373.32 C275.32,373.32 273.56,375.24 273.56,375.24 L273.56,373.64 L270.36,373.64 L270.36,389 L273.56,389 L273.56,380.68 C273.56,377.8 275.16,376.2 277.56,376.2 C278.36,376.2 279,376.36 279,376.36 Z M283.48,371.72 C283.48,373 282.84,373.64 281.88,373.64 L280.28,373.64 L280.28,376.52 L283.16,376.52 L283.16,384.52 C283.16,387.72 284.76,389.32 287.64,389.32 C288.92,389.32 289.88,389 289.88,389 L289.88,386.12 C289.88,386.12 289.08,386.44 288.28,386.44 C287.16,386.44 286.36,385.64 286.36,384.488 L286.36,376.52 L289.56,376.52 L289.56,373.64 L286.36,373.64 L286.36,368.52 L283.48,368.52 L283.48,371.72 Z M299.96,382.28 C301.24,382.28 301.88,382.92 301.88,384.2 L301.88,391.08 C301.88,393.96 303.64,395.72 306.84,395.72 L308.6,395.72 L308.6,393.16 L306.84,393.16 C305.56,393.16 304.76,392.36 304.76,391.08 L304.76,384.2 C304.76,381.32 303,381 303.032,381 C303,381 304.76,380.68 304.76,377.8 L304.76,370.92 C304.76,369.64 305.56,368.84 306.84,368.84 L308.6,368.84 L308.6,366.28 L306.84,366.28 C303.64,366.28 301.88,368.04 301.88,370.92 L301.88,377.8 C301.88,379.08 301.24,379.72 299.96,379.72 L299.96,382.28 Z M322.68,385.8 L322.68,378.92 L332.44,378.92 L332.44,375.72 L322.68,375.72 L322.68,369.8 L335,369.8 L335,366.6 L319.16,366.6 L319.16,389 L335.32,389 L335.32,385.8 L322.68,385.8 Z M346.68,373.64 L343.16,373.64 L343.16,371.112 C343.16,369.96 343.96,369.16 345.08,369.16 C345.88,369.16 346.68,369.48 346.68,369.48 L346.68,366.6 C346.68,366.6 345.72,366.28 344.44,366.28 C341.56,366.28 339.96,367.88 339.96,371.08 L339.96,373.64 L337.72,373.64 L337.72,376.52 L339.96,376.52 L339.96,389 L343.16,389 L343.16,376.52 L346.68,376.52 L346.68,373.64 Z M357.56,373.64 L354.04,373.64 L354.04,371.112 C354.04,369.96 354.84,369.16 355.96,369.16 C356.76,369.16 357.56,369.48 357.56,369.48 L357.56,366.6 C357.56,366.6 356.6,366.28 355.32,366.28 C352.44,366.28 350.84,367.88 350.84,371.08 L350.84,373.64 L348.6,373.64 L348.6,376.52 L350.84,376.52 L350.84,389 L354.04,389 L354.04,376.52 L357.56,376.52 L357.56,373.64 Z M375,382.44 L363,382.44 C363.32,384.52 365.24,386.44 367.8,386.44 C370.84,386.44 372.44,384.04 372.44,384.04 L374.52,386.12 C374.52,386.12 372.12,389.32 367.8,389.32 C363.48,389.32 359.8,385.64 359.8,381.16 C359.8,376.84 363.32,373.32 367.64,373.32 C371.96,373.32 375.16,376.52 375.16,380.84 C375.16,381.8 375,382.44 375,382.44 Z M367.64,376.04 C365.24,376.04 363.64,377.64 363.128,379.72 L372.024,379.72 C371.64,377.64 370.04,376.04 367.64,376.04 Z M377.72,381.32 C377.72,385.64 381.4,389.32 385.72,389.32 C389.72,389.32 392.12,386.12 392.12,386.12 L390.04,384.04 C390.04,384.04 388.44,386.44 385.72,386.44 C383.16,386.44 380.92,384.2 380.92,381.32 C380.92,378.44 383.16,376.2 385.72,376.2 C388.44,376.2 389.88,378.44 389.88,378.44 L391.96,376.36 C391.96,376.36 389.72,373.32 385.72,373.32 C381.4,373.32 377.72,377 377.72,381.32 Z M397.24,371.72 C397.24,373 396.6,373.64 395.64,373.64 L394.04,373.64 L394.04,376.52 L396.92,376.52 L396.92,384.52 C396.92,387.72 398.52,389.32 401.4,389.32 C402.68,389.32 403.64,389 403.64,389 L403.64,386.12 C403.64,386.12 402.84,386.44 402.04,386.44 C400.92,386.44 400.12,385.64 400.12,384.488 L400.12,376.52 L403.32,376.52 L403.32,373.64 L400.12,373.64 L400.12,368.52 L397.24,368.52 L397.24,371.72 Z M408.6,385.16 L405.4,392.04 L407.48,393.16 L411.48,386.76 L408.6,385.16 Z M420.12,389 L429.4,366.6 L432.92,366.6 L442.2,389 L438.52,389 L436.12,383.08 L426.2,383.08 L423.8,389 L420.12,389 Z M431.16,370.6 L427.48,379.88 L434.84,379.88 L431.16,370.6 Z M443.96,381.32 C443.96,385.64 447.64,389.32 451.96,389.32 C455.96,389.32 458.36,386.12 458.36,386.12 L456.28,384.04 C456.28,384.04 454.68,386.44 451.96,386.44 C449.4,386.44 447.16,384.2 447.16,381.32 C447.16,378.44 449.4,376.2 451.96,376.2 C454.68,376.2 456.12,378.44 456.12,378.44 L458.2,376.36 C458.2,376.36 455.96,373.32 451.96,373.32 C447.64,373.32 443.96,377 443.96,381.32 Z M463.48,371.72 C463.48,373 462.84,373.64 461.88,373.64 L460.28,373.64 L460.28,376.52 L463.16,376.52 L463.16,384.52 C463.16,387.72 464.76,389.32 467.64,389.32 C468.92,389.32 469.88,389 469.88,389 L469.88,386.12 C469.88,386.12 469.08,386.44 468.28,386.44 C467.16,386.44 466.36,385.64 466.36,384.488 L466.36,376.52 L469.56,376.52 L469.56,373.64 L466.36,373.64 L466.36,368.52 L463.48,368.52 L463.48,371.72 Z M477.08,373.64 L473.88,373.64 L473.88,389 L477.08,389 L477.08,373.64 Z M477.4,368.84 C477.4,367.72 476.6,366.92 475.48,366.92 C474.36,366.92 473.56,367.72 473.56,368.84 C473.56,369.96 474.36,370.76 475.48,370.76 C476.6,370.76 477.4,369.96 477.4,368.84 Z M493.56,381.32 C493.56,378.44 491.32,376.2 488.76,376.2 C486.2,376.2 483.96,378.44 483.96,381.32 C483.96,384.2 486.2,386.44 488.76,386.44 C491.32,386.44 493.56,384.2 493.56,381.32 Z M480.76,381.32 C480.76,377 484.44,373.32 488.76,373.32 C493.08,373.32 496.76,377 496.76,381.32 C496.76,385.64 493.08,389.32 488.76,389.32 C484.44,389.32 480.76,385.64 480.76,381.32 Z M503.48,373.64 L500.28,373.64 L500.28,389 L503.48,389 L503.48,380.68 C503.48,377.8 505.08,376.2 507.48,376.2 C509.56,376.2 511.16,377.8 511.16,380.04 L511.16,389 L514.36,389 L514.36,380.04 C514.36,375.88 511.8,373.32 508.12,373.32 C505.24,373.32 503.48,375.24 503.48,375.24 L503.48,373.64 Z M528.6,375.4 C528.6,375.4 527,373.32 523.64,373.32 C520.44,373.32 518.2,375.56 518.2,377.8 C518.2,383.24 526.04,381.64 526.04,384.52 C526.04,385.64 525.24,386.44 523.48,386.44 C521.08,386.44 519.64,384.52 519.64,384.52 L517.56,386.6 C517.56,386.6 519.48,389.32 523.48,389.32 C527,389.32 529.24,387.08 529.24,384.52 C529.24,379.08 521.4,380.68 521.4,377.8 C521.4,377 522.2,376.2 523.64,376.2 C525.4,376.2 526.52,377.48 526.52,377.48 L528.6,375.4 Z M546.68,379.72 C545.4,379.72 544.76,379.08 544.76,377.8 L544.76,370.92 C544.76,368.04 543,366.28 539.8,366.28 L538.04,366.28 L538.04,368.84 L539.8,368.84 C541.08,368.84 541.88,369.64 541.88,370.92 L541.88,377.8 C541.88,380.68 543.64,381 543.608,381 C543.64,381 541.88,381.32 541.88,384.2 L541.88,391.08 C541.88,392.36 541.08,393.16 539.8,393.16 L538.04,393.16 L538.04,395.72 L539.8,395.72 C543,395.72 544.76,393.96 544.76,391.08 L544.76,384.2 C544.76,382.92 545.4,382.28 546.68,382.28 L546.68,379.72 Z M564.76,373.64 L561.24,373.64 L561.24,371.112 C561.24,369.96 562.04,369.16 563.16,369.16 C563.96,369.16 564.76,369.48 564.76,369.48 L564.76,366.6 C564.76,366.6 563.8,366.28 562.52,366.28 C559.64,366.28 558.04,367.88 558.04,371.08 L558.04,373.64 L555.8,373.64 L555.8,376.52 L558.04,376.52 L558.04,389 L561.24,389 L561.24,376.52 L564.76,376.52 L564.76,373.64 Z M576.6,376.36 L576.6,373.32 L575.8,373.32 C572.92,373.32 571.16,375.24 571.16,375.24 L571.16,373.64 L567.96,373.64 L567.96,389 L571.16,389 L571.16,380.68 C571.16,377.8 572.76,376.2 575.16,376.2 C575.96,376.2 576.6,376.36 576.6,376.36 Z M591,381.32 C591,378.44 588.76,376.2 586.2,376.2 C583.64,376.2 581.4,378.44 581.4,381.32 C581.4,384.2 583.64,386.44 586.2,386.44 C588.76,386.44 591,384.2 591,381.32 Z M578.2,381.32 C578.2,377 581.88,373.32 586.2,373.32 C590.52,373.32 594.2,377 594.2,381.32 C594.2,385.64 590.52,389.32 586.2,389.32 C581.88,389.32 578.2,385.64 578.2,381.32 Z M617.56,389 L620.76,389 L620.76,380.04 C620.76,375.56 618.52,373.32 615,373.32 C611.48,373.32 609.72,375.88 609.72,375.88 C609.72,375.88 608.44,373.32 605.08,373.32 C602.52,373.32 600.92,375.24 600.92,375.24 L600.92,373.64 L597.72,373.64 L597.72,389 L600.92,389 L600.92,380.68 C600.92,377.8 602.52,376.2 604.44,376.2 C606.36,376.2 607.64,377.48 607.64,380.04 L607.64,389 L610.84,389 L610.84,380.68 C610.84,377.8 612.44,376.2 614.36,376.2 C616.28,376.2 617.56,377.48 617.56,380.04 L617.56,389 Z M634.36,366.6 L631.48,366.6 L631.48,373.32 L634.36,373.32 L634.36,366.6 Z M650.68,377.48 C648.76,377.48 647.16,379.08 647.16,381.16 C647.16,383.24 648.76,384.84 650.68,384.84 C652.44,384.84 653.88,383.4 653.88,381.16 C653.88,378.92 652.44,377.48 650.68,377.48 Z M650.36,375.24 C652.76,375.24 653.88,376.68 653.88,376.68 L653.88,375.4 L656.12,375.4 L656.12,382.92 C656.12,384.04 656.92,384.84 657.88,384.84 C659.32,384.84 660.6,383.56 660.6,380.36 C660.6,375.24 656.44,371.08 650.84,371.08 C645.56,371.08 641.08,375.56 641.08,381 C641.08,386.44 645.56,390.92 650.84,390.92 C654.52,390.92 656.6,388.84 656.6,388.84 L658.04,390.6 C658.04,390.6 655.48,393.16 650.84,393.16 C644.12,393.16 638.52,387.56 638.52,381 C638.52,374.44 644.12,368.84 650.84,368.84 C657.88,368.84 663.16,374.12 663.16,380.36 C663.16,384.84 660.92,387.08 657.88,387.08 C655.48,387.08 654.36,385.16 654.36,385.16 C654.36,385.16 653.24,387.08 650.36,387.08 C647.32,387.08 644.76,384.52 644.76,381.16 C644.76,377.8 647.32,375.24 650.36,375.24 Z M670.68,373.64 L667.48,373.64 L667.48,389 L670.68,389 L670.68,380.68 C670.68,377.8 672.28,376.2 674.68,376.2 C676.76,376.2 678.36,377.8 678.36,380.04 L678.36,389 L681.56,389 L681.56,380.04 C681.56,375.88 679,373.32 675.32,373.32 C672.44,373.32 670.68,375.24 670.68,375.24 L670.68,373.64 Z M696.92,388.072 L696.92,386.76 C696.92,386.76 695.16,388.68 692.28,388.68 C688.44,388.68 685.08,385.32 685.08,381 C685.08,376.68 688.44,373.32 692.28,373.32 C695.16,373.32 696.92,375.24 696.92,375.24 L696.92,373.64 L700.12,373.64 L700.12,388.04 C700.12,392.36 696.76,395.72 692.44,395.72 C687.8,395.72 685.56,392.52 685.56,392.52 L687.64,390.44 C687.64,390.44 689.4,392.84 692.44,392.84 C695,392.84 696.92,390.92 696.92,388.072 Z M688.28,381 C688.28,383.72 690.36,385.8 692.6,385.8 C694.84,385.8 696.92,383.72 696.92,381 C696.92,378.28 694.84,376.2 692.6,376.2 C690.36,376.2 688.28,378.28 688.28,381 Z M713.24,376.36 L713.24,373.32 L712.44,373.32 C709.56,373.32 707.8,375.24 707.8,375.24 L707.8,373.64 L704.6,373.64 L704.6,389 L707.8,389 L707.8,380.68 C707.8,377.8 709.4,376.2 711.8,376.2 C712.6,376.2 713.24,376.36 713.24,376.36 Z M723.48,381 L728.76,373.64 L725.08,373.64 L721.56,378.6 L718.04,373.64 L714.36,373.64 L719.64,381 L713.88,389 L717.56,389 L721.56,383.4 L725.56,389 L729.24,389 L723.48,381 Z M743.16,366.28 L740.28,366.28 L730.68,395.72 L733.56,395.72 L743.16,366.28 Z M760.44,382.44 L748.44,382.44 C748.76,384.52 750.68,386.44 753.24,386.44 C756.28,386.44 757.88,384.04 757.88,384.04 L759.96,386.12 C759.96,386.12 757.56,389.32 753.24,389.32 C748.92,389.32 745.24,385.64 745.24,381.16 C745.24,376.84 748.76,373.32 753.08,373.32 C757.4,373.32 760.6,376.52 760.6,380.84 C760.6,381.8 760.44,382.44 760.44,382.44 Z M753.08,376.04 C750.68,376.04 749.08,377.64 748.568,379.72 L757.464,379.72 C757.08,377.64 755.48,376.04 753.08,376.04 Z M771.8,373.64 L768.28,373.64 L768.28,371.112 C768.28,369.96 769.08,369.16 770.2,369.16 C771,369.16 771.8,369.48 771.8,369.48 L771.8,366.6 C771.8,366.6 770.84,366.28 769.56,366.28 C766.68,366.28 765.08,367.88 765.08,371.08 L765.08,373.64 L762.84,373.64 L762.84,376.52 L765.08,376.52 L765.08,389 L768.28,389 L768.28,376.52 L771.8,376.52 L771.8,373.64 Z M782.68,373.64 L779.16,373.64 L779.16,371.112 C779.16,369.96 779.96,369.16 781.08,369.16 C781.88,369.16 782.68,369.48 782.68,369.48 L782.68,366.6 C782.68,366.6 781.72,366.28 780.44,366.28 C777.56,366.28 775.96,367.88 775.96,371.08 L775.96,373.64 L773.72,373.64 L773.72,376.52 L775.96,376.52 L775.96,389 L779.16,389 L779.16,376.52 L782.68,376.52 L782.68,373.64 Z M800.12,382.44 L788.12,382.44 C788.44,384.52 790.36,386.44 792.92,386.44 C795.96,386.44 797.56,384.04 797.56,384.04 L799.64,386.12 C799.64,386.12 797.24,389.32 792.92,389.32 C788.6,389.32 784.92,385.64 784.92,381.16 C784.92,376.84 788.44,373.32 792.76,373.32 C797.08,373.32 800.28,376.52 800.28,380.84 C800.28,381.8 800.12,382.44 800.12,382.44 Z M792.76,376.04 C790.36,376.04 788.76,377.64 788.248,379.72 L797.144,379.72 C796.76,377.64 795.16,376.04 792.76,376.04 Z M802.84,381.32 C802.84,385.64 806.52,389.32 810.84,389.32 C814.84,389.32 817.24,386.12 817.24,386.12 L815.16,384.04 C815.16,384.04 813.56,386.44 810.84,386.44 C808.28,386.44 806.04,384.2 806.04,381.32 C806.04,378.44 808.28,376.2 810.84,376.2 C813.56,376.2 815,378.44 815,378.44 L817.08,376.36 C817.08,376.36 814.84,373.32 810.84,373.32 C806.52,373.32 802.84,377 802.84,381.32 Z M822.36,371.72 C822.36,373 821.72,373.64 820.76,373.64 L819.16,373.64 L819.16,376.52 L822.04,376.52 L822.04,384.52 C822.04,387.72 823.64,389.32 826.52,389.32 C827.8,389.32 828.76,389 828.76,389 L828.76,386.12 C828.76,386.12 827.96,386.44 827.16,386.44 C826.04,386.44 825.24,385.64 825.24,384.488 L825.24,376.52 L828.44,376.52 L828.44,373.64 L825.24,373.64 L825.24,368.52 L822.36,368.52 L822.36,371.72 Z M841.72,375.4 C841.72,375.4 840.12,373.32 836.76,373.32 C833.56,373.32 831.32,375.56 831.32,377.8 C831.32,383.24 839.16,381.64 839.16,384.52 C839.16,385.64 838.36,386.44 836.6,386.44 C834.2,386.44 832.76,384.52 832.76,384.52 L830.68,386.6 C830.68,386.6 832.6,389.32 836.6,389.32 C840.12,389.32 842.36,387.08 842.36,384.52 C842.36,379.08 834.52,380.68 834.52,377.8 C834.52,377 835.32,376.2 836.76,376.2 C838.52,376.2 839.64,377.48 839.64,377.48 L841.72,375.4 Z M848.6,366.6 L845.72,366.6 L845.72,373.32 L848.6,373.32 L848.6,366.6 Z M853.72,385.16 L850.52,392.04 L852.6,393.16 L856.6,386.76 L853.72,385.16 Z M852.6,375.4 C852.6,376.52 853.56,377.48 854.68,377.48 C855.8,377.48 856.76,376.52 856.76,375.4 C856.76,374.28 855.8,373.32 854.68,373.32 C853.56,373.32 852.6,374.28 852.6,375.4 Z" id="import-{-Effect,-Act" fill="#545E6F"></path>
            <text id="API" font-family="TTNorms-Bold, TT Norms" font-size="24" font-weight="bold" fill="#FFFFFF">
                <tspan x="619.62" y="285">API</tspan>
            </text>
        </g>
    </g>
</svg>