<?xml version="1.0" encoding="UTF-8"?>
<svg width="1280px" height="720px" viewBox="0 0 1280 720" version="1.1" xmlns="http://www.w3.org/2000/svg" xmlns:xlink="http://www.w3.org/1999/xlink" style="background: #FFFFFF;">
    <!-- Generator: Sketch 47.1 (45422) - http://www.bohemiancoding.com/sketch -->
    <title>effects-without-dispatch</title>
    <desc>Created with Sketch.</desc>
    <defs></defs>
    <g id="Page-1" stroke="none" stroke-width="1" fill="none" fill-rule="evenodd">
        <g id="effects-without-dispatch">
            <g id="Group" transform="translate(125.000000, 145.000000)">
                <rect id="Rectangle-7" fill="#F4F6F8" x="0" y="31" width="1030" height="392" rx="15"></rect>
                <path d="M15,0 L1015,0 L1015,1.77635684e-15 C1023.28427,5.91178485e-14 1030,6.71572875 1030,15 L1030,58 L0,58 L0,15 L-1.77635684e-15,15 C-2.79088747e-15,6.71572875 6.71572875,-2.54560899e-16 15,-1.77635684e-15 Z" id="Rectangle" fill="#6DB0DC"></path>
            </g>
            <path d="M208.5,256.2 C206.7,256.2 205.2,257.7 205.2,259.65 C205.2,261.6 206.7,263.1 208.5,263.1 C210.15,263.1 211.5,261.75 211.5,259.65 C211.5,257.55 210.15,256.2 208.5,256.2 Z M208.2,254.1 C210.45,254.1 211.5,255.45 211.5,255.45 L211.5,254.25 L213.6,254.25 L213.6,261.3 C213.6,262.35 214.35,263.1 215.25,263.1 C216.6,263.1 217.8,261.9 217.8,258.9 C217.8,254.1 213.9,250.2 208.65,250.2 C203.7,250.2 199.5,254.4 199.5,259.5 C199.5,264.6 203.7,268.8 208.65,268.8 C212.1,268.8 214.05,266.85 214.05,266.85 L215.4,268.5 C215.4,268.5 213,270.9 208.65,270.9 C202.35,270.9 197.1,265.65 197.1,259.5 C197.1,253.35 202.35,248.1 208.65,248.1 C215.25,248.1 220.2,253.05 220.2,258.9 C220.2,263.1 218.1,265.2 215.25,265.2 C213,265.2 211.95,263.4 211.95,263.4 C211.95,263.4 210.9,265.2 208.2,265.2 C205.35,265.2 202.95,262.8 202.95,259.65 C202.95,256.5 205.35,254.1 208.2,254.1 Z M228.6,264 L228.6,257.55 L237.75,257.55 L237.75,254.55 L228.6,254.55 L228.6,249 L240.15,249 L240.15,246 L225.3,246 L225.3,267 L240.45,267 L240.45,264 L228.6,264 Z M251.1,252.6 L247.8,252.6 L247.8,250.23 C247.8,249.15 248.55,248.4 249.6,248.4 C250.35,248.4 251.1,248.7 251.1,248.7 L251.1,246 C251.1,246 250.2,245.7 249,245.7 C246.3,245.7 244.8,247.2 244.8,250.2 L244.8,252.6 L242.7,252.6 L242.7,255.3 L244.8,255.3 L244.8,267 L247.8,267 L247.8,255.3 L251.1,255.3 L251.1,252.6 Z M261.3,252.6 L258,252.6 L258,250.23 C258,249.15 258.75,248.4 259.8,248.4 C260.55,248.4 261.3,248.7 261.3,248.7 L261.3,246 C261.3,246 260.4,245.7 259.2,245.7 C256.5,245.7 255,247.2 255,250.2 L255,252.6 L252.9,252.6 L252.9,255.3 L255,255.3 L255,267 L258,267 L258,255.3 L261.3,255.3 L261.3,252.6 Z M277.65,260.85 L266.4,260.85 C266.7,262.8 268.5,264.6 270.9,264.6 C273.75,264.6 275.25,262.35 275.25,262.35 L277.2,264.3 C277.2,264.3 274.95,267.3 270.9,267.3 C266.85,267.3 263.4,263.85 263.4,259.65 C263.4,255.6 266.7,252.3 270.75,252.3 C274.8,252.3 277.8,255.3 277.8,259.35 C277.8,260.25 277.65,260.85 277.65,260.85 Z M270.75,254.85 C268.5,254.85 267,256.35 266.52,258.3 L274.86,258.3 C274.5,256.35 273,254.85 270.75,254.85 Z M280.2,259.8 C280.2,263.85 283.65,267.3 287.7,267.3 C291.45,267.3 293.7,264.3 293.7,264.3 L291.75,262.35 C291.75,262.35 290.25,264.6 287.7,264.6 C285.3,264.6 283.2,262.5 283.2,259.8 C283.2,257.1 285.3,255 287.7,255 C290.25,255 291.6,257.1 291.6,257.1 L293.55,255.15 C293.55,255.15 291.45,252.3 287.7,252.3 C283.65,252.3 280.2,255.75 280.2,259.8 Z M298.5,250.8 C298.5,252 297.9,252.6 297,252.6 L295.5,252.6 L295.5,255.3 L298.2,255.3 L298.2,262.8 C298.2,265.8 299.7,267.3 302.4,267.3 C303.6,267.3 304.5,267 304.5,267 L304.5,264.3 C304.5,264.3 303.75,264.6 303,264.6 C301.95,264.6 301.2,263.85 301.2,262.77 L301.2,255.3 L304.2,255.3 L304.2,252.6 L301.2,252.6 L301.2,247.8 L298.5,247.8 L298.5,250.8 Z M311.25,259.5 C311.25,252 315.45,246.6 315.45,246.6 L313.2,245.25 C313.2,245.25 308.55,250.8 308.55,259.5 C308.55,268.2 313.2,273.75 313.2,273.75 L315.45,272.4 C315.45,272.4 311.25,267 311.25,259.5 Z M318.15,260.7 C319.35,260.7 319.95,261.3 319.95,262.5 L319.95,268.95 C319.95,271.65 321.6,273.3 324.6,273.3 L326.25,273.3 L326.25,270.9 L324.6,270.9 C323.4,270.9 322.65,270.15 322.65,268.95 L322.65,262.5 C322.65,259.8 321,259.5 321.03,259.5 C321,259.5 322.65,259.2 322.65,256.5 L322.65,250.05 C322.65,248.85 323.4,248.1 324.6,248.1 L326.25,248.1 L326.25,245.7 L324.6,245.7 C321.6,245.7 319.95,247.35 319.95,250.05 L319.95,256.5 C319.95,257.7 319.35,258.3 318.15,258.3 L318.15,260.7 Z M341.1,252 C343.95,252 345.45,254.1 345.45,254.1 L345.45,246 L349.5,246 L349.5,267 L345.45,267 L345.45,265.2 C345.45,265.2 343.95,267.3 341.1,267.3 C337.35,267.3 334.05,264 334.05,259.65 C334.05,255.3 337.35,252 341.1,252 Z M341.85,263.7 C343.8,263.7 345.45,262.05 345.45,259.65 C345.45,257.25 343.8,255.6 341.85,255.6 C339.9,255.6 338.25,257.25 338.25,259.65 C338.25,262.05 339.9,263.7 341.85,263.7 Z M357.75,252.3 L353.7,252.3 L353.7,267 L357.75,267 L357.75,252.3 Z M358.05,248.1 C358.05,246.75 357.15,245.85 355.65,245.85 C354.3,245.85 353.4,246.75 353.4,248.1 C353.4,249.45 354.3,250.35 355.65,250.35 C357.15,250.35 358.05,249.45 358.05,248.1 Z M372,254.25 C372,254.25 370.35,252 366.9,252 C363.6,252 361.2,254.4 361.2,256.65 C361.2,261.51 367.95,260.4 367.95,262.65 C367.95,263.4 367.35,264 366,264 C364.05,264 362.85,262.35 362.85,262.35 L360.6,264.6 C360.6,264.6 362.4,267.3 366.6,267.3 C370.35,267.3 372.45,265.2 372.45,262.65 C372.45,257.7 365.7,258.75 365.7,256.65 C365.7,256.05 366.3,255.45 367.5,255.45 C369,255.45 369.9,256.65 369.9,256.65 L372,254.25 Z M383.85,267.3 C381,267.3 379.5,265.2 379.5,265.2 L379.5,273.3 L375.45,273.3 L375.45,252.3 L379.5,252.3 L379.5,254.1 C379.5,254.1 381,252 383.85,252 C387.6,252 390.9,255.3 390.9,259.65 C390.9,264 387.6,267.3 383.85,267.3 Z M383.1,255.6 C381.15,255.6 379.5,257.25 379.5,259.65 C379.5,262.05 381.15,263.7 383.1,263.7 C385.05,263.7 386.7,262.05 386.7,259.65 C386.7,257.25 385.05,255.6 383.1,255.6 Z M402,267 L402,265.5 C402,265.5 400.5,267.3 397.95,267.3 C394.95,267.3 393,265.35 393,263.1 C393,260.7 394.65,259.02 397.35,258.54 L402,257.7 C402,256.5 401.1,255.6 399.45,255.6 C397.2,255.6 396.15,257.1 396.15,257.1 L393.9,254.85 C393.9,254.85 395.85,252 399.75,252 C403.5,252 406.05,254.55 406.05,257.85 L406.05,267 L402,267 Z M399,264 C400.8,264 402,262.8 402,260.7 L402,260.25 L398.7,260.85 C397.65,261.03 397.05,261.6 397.05,262.5 C397.05,263.4 397.65,264 399,264 Z M411.75,250.65 C411.75,251.85 411,252.6 410.1,252.6 L408.75,252.6 L408.75,256.2 L411.3,256.2 L411.3,262.2 C411.3,265.65 412.95,267.3 415.95,267.3 C417.45,267.3 418.65,266.85 418.65,266.85 L418.65,263.4 C418.65,263.4 418.05,263.7 417.15,263.7 C416.1,263.7 415.35,262.95 415.35,262.05 L415.35,256.2 L418.35,256.2 L418.35,252.6 L415.35,252.6 L415.35,247.95 L411.75,247.95 L411.75,250.65 Z M420.6,259.65 C420.6,263.7 424.2,267.3 428.55,267.3 C432.6,267.3 434.55,264.3 434.55,264.3 L432.15,261.75 C432.15,261.75 430.8,263.7 428.55,263.7 C426.45,263.7 424.65,261.9 424.65,259.65 C424.65,257.4 426.45,255.6 428.55,255.6 C430.8,255.6 432,257.55 432,257.55 L434.55,255 C434.55,255 432.6,252 428.55,252 C424.2,252 420.6,255.6 420.6,259.65 Z M441.45,246 L437.4,246 L437.4,267 L441.45,267 L441.45,259.35 C441.45,257.1 442.65,255.9 444.45,255.9 C446.1,255.9 447.3,257.1 447.3,258.9 L447.3,267 L451.35,267 L451.35,258.45 C451.35,254.4 448.95,252 445.65,252 C442.95,252 441.45,254.1 441.45,254.1 L441.45,246 Z M454.8,265.05 C454.8,266.25 455.85,267.3 457.2,267.3 C458.55,267.3 459.6,266.25 459.6,265.05 C459.6,263.85 458.55,262.8 457.2,262.8 C455.85,262.8 454.8,263.85 454.8,265.05 Z M454.8,254.25 C454.8,255.45 455.85,256.5 457.2,256.5 C458.55,256.5 459.6,255.45 459.6,254.25 C459.6,253.05 458.55,252 457.2,252 C455.85,252 454.8,253.05 454.8,254.25 Z M477.15,252.75 L473.85,252.75 L473.85,250.95 C473.85,250.05 474.6,249.3 475.65,249.3 C476.55,249.3 477.15,249.6 477.15,249.6 L477.15,246.15 C477.15,246.15 475.95,245.7 474.45,245.7 C471.45,245.7 469.8,247.35 469.8,250.8 L469.8,252.75 L467.7,252.75 L467.7,256.35 L469.8,256.35 L469.8,267 L473.85,267 L473.85,256.35 L477.15,256.35 L477.15,252.75 Z M487.95,267 L487.95,265.5 C487.95,265.5 486.45,267.3 483.9,267.3 C480.9,267.3 478.95,265.35 478.95,263.1 C478.95,260.7 480.6,259.02 483.3,258.54 L487.95,257.7 C487.95,256.5 487.05,255.6 485.4,255.6 C483.15,255.6 482.1,257.1 482.1,257.1 L479.85,254.85 C479.85,254.85 481.8,252 485.7,252 C489.45,252 492,254.55 492,257.85 L492,267 L487.95,267 Z M484.95,264 C486.75,264 487.95,262.8 487.95,260.7 L487.95,260.25 L484.65,260.85 C483.6,261.03 483,261.6 483,262.5 C483,263.4 483.6,264 484.95,264 Z M500.1,246 L496.05,246 L496.05,267 L500.1,267 L500.1,246 Z M514.35,254.25 C514.35,254.25 512.7,252 509.25,252 C505.95,252 503.55,254.4 503.55,256.65 C503.55,261.51 510.3,260.4 510.3,262.65 C510.3,263.4 509.7,264 508.35,264 C506.4,264 505.2,262.35 505.2,262.35 L502.95,264.6 C502.95,264.6 504.75,267.3 508.95,267.3 C512.7,267.3 514.8,265.2 514.8,262.65 C514.8,257.7 508.05,258.75 508.05,256.65 C508.05,256.05 508.65,255.45 509.85,255.45 C511.35,255.45 512.25,256.65 512.25,256.65 L514.35,254.25 Z M531.75,261 L521.1,261 C521.4,262.5 522.75,263.85 525,263.85 C527.55,263.85 528.9,262.05 528.9,262.05 L531,264.75 C531,264.75 528.75,267.3 524.7,267.3 C520.35,267.3 516.9,263.85 516.9,259.65 C516.9,255.45 520.35,252 524.55,252 C528.75,252 531.9,255.15 531.9,259.35 C531.9,260.4 531.75,261 531.75,261 Z M524.55,255.45 C522.75,255.45 521.55,256.65 521.1,258.15 L527.85,258.15 C527.55,256.65 526.35,255.45 524.55,255.45 Z M548.1,258.3 C546.9,258.3 546.3,257.7 546.3,256.5 L546.3,250.05 C546.3,247.35 544.65,245.7 541.65,245.7 L540,245.7 L540,248.1 L541.65,248.1 C542.85,248.1 543.6,248.85 543.6,250.05 L543.6,256.5 C543.6,259.2 545.25,259.5 545.22,259.5 C545.25,259.5 543.6,259.8 543.6,262.5 L543.6,268.95 C543.6,270.15 542.85,270.9 541.65,270.9 L540,270.9 L540,273.3 L541.65,273.3 C544.65,273.3 546.3,271.65 546.3,268.95 L546.3,262.5 C546.3,261.3 546.9,260.7 548.1,260.7 L548.1,258.3 Z M555,259.5 C555,267 550.8,272.4 550.8,272.4 L553.05,273.75 C553.05,273.75 557.7,268.2 557.7,259.5 C557.7,250.8 553.05,245.25 553.05,245.25 L550.8,246.6 C550.8,246.6 555,252 555,259.5 Z M207.6,298.35 C207.6,298.35 207.6,298.35 207.6,298.35 L207.6,298.35 Z M207.6,298.35 L209.55,300.3 C209.55,300.3 207.3,303.3 203.55,303.3 C199.5,303.3 196.05,299.85 196.05,295.8 C196.05,291.75 199.5,288.3 203.55,288.3 C207.3,288.3 209.4,291.15 209.4,291.15 L207.45,293.1 C207.45,293.1 206.1,291 203.55,291 C201.15,291 199.05,293.1 199.05,295.8 C199.05,298.5 201.15,300.6 203.55,300.6 C206.099652,300.6 207.599591,298.350614 207.6,298.35 L207.6,298.35 Z M220.65,291.15 L220.65,288.3 L219.9,288.3 C217.2,288.3 215.55,290.1 215.55,290.1 L215.55,288.6 L212.55,288.6 L212.55,303 L215.55,303 L215.55,295.2 C215.55,292.5 217.05,291 219.3,291 C220.05,291 220.65,291.15 220.65,291.15 Z M236.4,296.85 L225.15,296.85 C225.45,298.8 227.25,300.6 229.65,300.6 C232.5,300.6 234,298.35 234,298.35 L235.95,300.3 C235.95,300.3 233.7,303.3 229.65,303.3 C225.6,303.3 222.15,299.85 222.15,295.65 C222.15,291.6 225.45,288.3 229.5,288.3 C233.55,288.3 236.55,291.3 236.55,295.35 C236.55,296.25 236.4,296.85 236.4,296.85 Z M229.5,290.85 C227.25,290.85 225.75,292.35 225.27,294.3 L233.61,294.3 C233.25,292.35 231.75,290.85 229.5,290.85 Z M251.4,303 L248.4,303 L248.4,301.5 C248.4,301.5 246.75,303.3 244.05,303.3 C241.05,303.3 238.95,301.2 238.95,299.1 C238.95,296.7 240.6,295.05 243.15,294.6 L248.4,293.7 C248.4,292.2 247.2,291 245.4,291 C242.85,291 241.65,292.95 241.65,292.95 L239.7,291 C239.7,291 241.65,288.3 245.4,288.3 C249,288.3 251.4,290.7 251.4,293.7 L251.4,303 Z M244.5,300.6 C246.9,300.6 248.4,299.1 248.4,296.4 L248.4,296.1 L243.75,296.85 C242.7,297.03 241.95,297.75 241.95,298.8 C241.95,299.7 242.85,300.6 244.5,300.6 Z M257.4,286.8 C257.4,288 256.8,288.6 255.9,288.6 L254.4,288.6 L254.4,291.3 L257.1,291.3 L257.1,298.8 C257.1,301.8 258.6,303.3 261.3,303.3 C262.5,303.3 263.4,303 263.4,303 L263.4,300.3 C263.4,300.3 262.65,300.6 261.9,300.6 C260.85,300.6 260.1,299.85 260.1,298.77 L260.1,291.3 L263.1,291.3 L263.1,288.6 L260.1,288.6 L260.1,283.8 L257.4,283.8 L257.4,286.8 Z M279.75,296.85 L268.5,296.85 C268.8,298.8 270.6,300.6 273,300.6 C275.85,300.6 277.35,298.35 277.35,298.35 L279.3,300.3 C279.3,300.3 277.05,303.3 273,303.3 C268.95,303.3 265.5,299.85 265.5,295.65 C265.5,291.6 268.8,288.3 272.85,288.3 C276.9,288.3 279.9,291.3 279.9,295.35 C279.9,296.25 279.75,296.85 279.75,296.85 Z M272.85,290.85 C270.6,290.85 269.1,292.35 268.62,294.3 L276.96,294.3 C276.6,292.35 275.1,290.85 272.85,290.85 Z M281.85,282 L297.75,282 L297.75,285 L291.45,285 L291.45,303 L288.15,303 L288.15,285 L281.85,285 L281.85,282 Z M309.6,295.8 C309.6,293.1 307.5,291 305.1,291 C302.7,291 300.6,293.1 300.6,295.8 C300.6,298.5 302.7,300.6 305.1,300.6 C307.5,300.6 309.6,298.5 309.6,295.8 Z M297.6,295.8 C297.6,291.75 301.05,288.3 305.1,288.3 C309.15,288.3 312.6,291.75 312.6,295.8 C312.6,299.85 309.15,303.3 305.1,303.3 C301.05,303.3 297.6,299.85 297.6,295.8 Z M322.05,288.3 C324.9,288.3 326.7,290.25 326.7,290.25 L326.7,282 L329.7,282 L329.7,303 L326.7,303 L326.7,301.35 C326.7,301.35 324.9,303.3 322.05,303.3 C318.3,303.3 315,300 315,295.8 C315,291.6 318.3,288.3 322.05,288.3 Z M322.35,300.6 C324.6,300.6 326.7,298.5 326.7,295.8 C326.7,293.1 324.6,291 322.35,291 C320.1,291 318,293.1 318,295.8 C318,298.5 320.1,300.6 322.35,300.6 Z M345.3,295.8 C345.3,293.1 343.2,291 340.8,291 C338.4,291 336.3,293.1 336.3,295.8 C336.3,298.5 338.4,300.6 340.8,300.6 C343.2,300.6 345.3,298.5 345.3,295.8 Z M333.3,295.8 C333.3,291.75 336.75,288.3 340.8,288.3 C344.85,288.3 348.3,291.75 348.3,295.8 C348.3,299.85 344.85,303.3 340.8,303.3 C336.75,303.3 333.3,299.85 333.3,295.8 Z M362.55,297 C362.55,298.8 361.05,300.3 358.35,300.3 C354.6,300.3 352.95,297.9 352.95,297.9 L350.85,300 C350.85,300 353.25,303.3 358.35,303.3 C363.15,303.3 365.85,300.6 365.85,297 C365.85,289.2 354.75,292.2 354.75,287.4 C354.75,286.05 356.1,284.7 358.35,284.7 C361.2,284.7 362.55,286.5 362.55,286.5 L364.65,284.4 C364.65,284.4 362.55,281.7 358.35,281.7 C354,281.7 351.45,284.25 351.45,287.4 C351.45,295.2 362.55,292.2 362.55,297 Z M379.5,303 L382.5,303 L382.5,288.6 L379.5,288.6 L379.5,296.4 C379.5,299.1 378,300.6 375.75,300.6 C373.8,300.6 372.3,299.1 372.3,297 L372.3,288.6 L369.3,288.6 L369.3,297 C369.3,300.9 371.7,303.3 375.15,303.3 C377.85,303.3 379.5,301.5 379.5,301.5 L379.5,303 Z M385.95,295.8 C385.95,299.85 389.4,303.3 393.45,303.3 C397.2,303.3 399.45,300.3 399.45,300.3 L397.5,298.35 C397.5,298.35 396,300.6 393.45,300.6 C391.05,300.6 388.95,298.5 388.95,295.8 C388.95,293.1 391.05,291 393.45,291 C396,291 397.35,293.1 397.35,293.1 L399.3,291.15 C399.3,291.15 397.2,288.3 393.45,288.3 C389.4,288.3 385.95,291.75 385.95,295.8 Z M401.55,295.8 C401.55,299.85 405,303.3 409.05,303.3 C412.8,303.3 415.05,300.3 415.05,300.3 L413.1,298.35 C413.1,298.35 411.6,300.6 409.05,300.6 C406.65,300.6 404.55,298.5 404.55,295.8 C404.55,293.1 406.65,291 409.05,291 C411.6,291 412.95,293.1 412.95,293.1 L414.9,291.15 C414.9,291.15 412.8,288.3 409.05,288.3 C405,288.3 401.55,291.75 401.55,295.8 Z M431.4,296.85 L420.15,296.85 C420.45,298.8 422.25,300.6 424.65,300.6 C427.5,300.6 429,298.35 429,298.35 L430.95,300.3 C430.95,300.3 428.7,303.3 424.65,303.3 C420.6,303.3 417.15,299.85 417.15,295.65 C417.15,291.6 420.45,288.3 424.5,288.3 C428.55,288.3 431.55,291.3 431.55,295.35 C431.55,296.25 431.4,296.85 431.4,296.85 Z M424.5,290.85 C422.25,290.85 420.75,292.35 420.27,294.3 L428.61,294.3 C428.25,292.35 426.75,290.85 424.5,290.85 Z M444,290.25 C444,290.25 442.5,288.3 439.35,288.3 C436.35,288.3 434.25,290.4 434.25,292.5 C434.25,297.6 441.6,296.1 441.6,298.8 C441.6,299.85 440.85,300.6 439.2,300.6 C436.95,300.6 435.6,298.8 435.6,298.8 L433.65,300.75 C433.65,300.75 435.45,303.3 439.2,303.3 C442.5,303.3 444.6,301.2 444.6,298.8 C444.6,293.7 437.25,295.2 437.25,292.5 C437.25,291.75 438,291 439.35,291 C441,291 442.05,292.2 442.05,292.2 L444,290.25 Z M457.05,290.25 C457.05,290.25 455.55,288.3 452.4,288.3 C449.4,288.3 447.3,290.4 447.3,292.5 C447.3,297.6 454.65,296.1 454.65,298.8 C454.65,299.85 453.9,300.6 452.25,300.6 C450,300.6 448.65,298.8 448.65,298.8 L446.7,300.75 C446.7,300.75 448.5,303.3 452.25,303.3 C455.55,303.3 457.65,301.2 457.65,298.8 C457.65,293.7 450.3,295.2 450.3,292.5 C450.3,291.75 451.05,291 452.4,291 C454.05,291 455.1,292.2 455.1,292.2 L457.05,290.25 Z M466.2,278.7 L466.2,281.85 C466.2,281.85 460.8,282.45 460.8,287.4 C460.8,295.2 471.9,292.2 471.9,297 C471.9,298.8 470.4,300.3 467.7,300.3 C463.95,300.3 462.3,297.9 462.3,297.9 L460.2,300 C460.2,300 462.3,302.7 466.2,303.15 L466.2,306.3 L469.2,306.3 L469.2,303.15 C469.2,303.15 475.2,302.7 475.2,297 C475.2,289.2 464.1,292.2 464.1,287.4 C464.1,286.05 465.45,284.7 467.7,284.7 C470.55,284.7 471.9,286.5 471.9,286.5 L474,284.4 C474,284.4 472.2,282.3 469.2,281.85 L469.2,278.7 L466.2,278.7 Z M496.2,295.5 L483.9,295.5 L483.9,298.2 L496.2,298.2 L496.2,295.5 Z M496.2,290.1 L483.9,290.1 L483.9,292.8 L496.2,292.8 L496.2,290.1 Z M507.15,286.8 C507.15,288 506.55,288.6 505.65,288.6 L504.15,288.6 L504.15,291.3 L506.85,291.3 L506.85,298.8 C506.85,301.8 508.35,303.3 511.05,303.3 C512.25,303.3 513.15,303 513.15,303 L513.15,300.3 C513.15,300.3 512.4,300.6 511.65,300.6 C510.6,300.6 509.85,299.85 509.85,298.77 L509.85,291.3 L512.85,291.3 L512.85,288.6 L509.85,288.6 L509.85,283.8 L507.15,283.8 L507.15,286.8 Z M520.05,282 L517.05,282 L517.05,303 L520.05,303 L520.05,295.2 C520.05,292.5 521.55,291 523.8,291 C525.75,291 527.25,292.5 527.25,294.6 L527.25,303 L530.25,303 L530.25,294.6 C530.25,290.7 527.85,288.3 524.4,288.3 C521.7,288.3 520.05,290.1 520.05,290.1 L520.05,282 Z M537.6,288.6 L534.6,288.6 L534.6,303 L537.6,303 L537.6,288.6 Z M537.9,284.1 C537.9,283.05 537.15,282.3 536.1,282.3 C535.05,282.3 534.3,283.05 534.3,284.1 C534.3,285.15 535.05,285.9 536.1,285.9 C537.15,285.9 537.9,285.15 537.9,284.1 Z M551.1,290.25 C551.1,290.25 549.6,288.3 546.45,288.3 C543.45,288.3 541.35,290.4 541.35,292.5 C541.35,297.6 548.7,296.1 548.7,298.8 C548.7,299.85 547.95,300.6 546.3,300.6 C544.05,300.6 542.7,298.8 542.7,298.8 L540.75,300.75 C540.75,300.75 542.55,303.3 546.3,303.3 C549.6,303.3 551.7,301.2 551.7,298.8 C551.7,293.7 544.35,295.2 544.35,292.5 C544.35,291.75 545.1,291 546.45,291 C548.1,291 549.15,292.2 549.15,292.2 L551.1,290.25 Z M558.45,301.35 C558.45,300.3 557.55,299.4 556.5,299.4 C555.45,299.4 554.55,300.3 554.55,301.35 C554.55,302.4 555.45,303.3 556.5,303.3 C557.55,303.3 558.45,302.4 558.45,301.35 Z M573.45,303 L570.45,303 L570.45,301.5 C570.45,301.5 568.8,303.3 566.1,303.3 C563.1,303.3 561,301.2 561,299.1 C561,296.7 562.65,295.05 565.2,294.6 L570.45,293.7 C570.45,292.2 569.25,291 567.45,291 C564.9,291 563.7,292.95 563.7,292.95 L561.75,291 C561.75,291 563.7,288.3 567.45,288.3 C571.05,288.3 573.45,290.7 573.45,293.7 L573.45,303 Z M566.55,300.6 C568.95,300.6 570.45,299.1 570.45,296.4 L570.45,296.1 L565.8,296.85 C564.75,297.03 564,297.75 564,298.8 C564,299.7 564.9,300.6 566.55,300.6 Z M576.75,295.8 C576.75,299.85 580.2,303.3 584.25,303.3 C588,303.3 590.25,300.3 590.25,300.3 L588.3,298.35 C588.3,298.35 586.8,300.6 584.25,300.6 C581.85,300.6 579.75,298.5 579.75,295.8 C579.75,293.1 581.85,291 584.25,291 C586.8,291 588.15,293.1 588.15,293.1 L590.1,291.15 C590.1,291.15 588,288.3 584.25,288.3 C580.2,288.3 576.75,291.75 576.75,295.8 Z M595.05,286.8 C595.05,288 594.45,288.6 593.55,288.6 L592.05,288.6 L592.05,291.3 L594.75,291.3 L594.75,298.8 C594.75,301.8 596.25,303.3 598.95,303.3 C600.15,303.3 601.05,303 601.05,303 L601.05,300.3 C601.05,300.3 600.3,300.6 599.55,300.6 C598.5,300.6 597.75,299.85 597.75,298.77 L597.75,291.3 L600.75,291.3 L600.75,288.6 L597.75,288.6 L597.75,283.8 L595.05,283.8 L595.05,286.8 Z M607.8,288.6 L604.8,288.6 L604.8,303 L607.8,303 L607.8,288.6 Z M608.1,284.1 C608.1,283.05 607.35,282.3 606.3,282.3 C605.25,282.3 604.5,283.05 604.5,284.1 C604.5,285.15 605.25,285.9 606.3,285.9 C607.35,285.9 608.1,285.15 608.1,284.1 Z M623.25,295.8 C623.25,293.1 621.15,291 618.75,291 C616.35,291 614.25,293.1 614.25,295.8 C614.25,298.5 616.35,300.6 618.75,300.6 C621.15,300.6 623.25,298.5 623.25,295.8 Z M611.25,295.8 C611.25,291.75 614.7,288.3 618.75,288.3 C622.8,288.3 626.25,291.75 626.25,295.8 C626.25,299.85 622.8,303.3 618.75,303.3 C614.7,303.3 611.25,299.85 611.25,295.8 Z M632.55,288.6 L629.55,288.6 L629.55,303 L632.55,303 L632.55,295.2 C632.55,292.5 634.05,291 636.3,291 C638.25,291 639.75,292.5 639.75,294.6 L639.75,303 L642.75,303 L642.75,294.6 C642.75,290.7 640.35,288.3 636.9,288.3 C634.2,288.3 632.55,290.1 632.55,290.1 L632.55,288.6 Z M656.1,290.25 C656.1,290.25 654.6,288.3 651.45,288.3 C648.45,288.3 646.35,290.4 646.35,292.5 C646.35,297.6 653.7,296.1 653.7,298.8 C653.7,299.85 652.95,300.6 651.3,300.6 C649.05,300.6 647.7,298.8 647.7,298.8 L645.75,300.75 C645.75,300.75 647.55,303.3 651.3,303.3 C654.6,303.3 656.7,301.2 656.7,298.8 C656.7,293.7 649.35,295.2 649.35,292.5 C649.35,291.75 650.1,291 651.45,291 C653.1,291 654.15,292.2 654.15,292.2 L656.1,290.25 Z M665.25,278.7 L665.25,281.85 C665.25,281.85 659.85,282.45 659.85,287.4 C659.85,295.2 670.95,292.2 670.95,297 C670.95,298.8 669.45,300.3 666.75,300.3 C663,300.3 661.35,297.9 661.35,297.9 L659.25,300 C659.25,300 661.35,302.7 665.25,303.15 L665.25,306.3 L668.25,306.3 L668.25,303.15 C668.25,303.15 674.25,302.7 674.25,297 C674.25,289.2 663.15,292.2 663.15,287.4 C663.15,286.05 664.5,284.7 666.75,284.7 C669.6,284.7 670.95,286.5 670.95,286.5 L673.05,284.4 C673.05,284.4 671.25,282.3 668.25,281.85 L668.25,278.7 L665.25,278.7 Z M224.4,337.35 C224.4,336.3 223.5,335.4 222.45,335.4 C221.4,335.4 220.5,336.3 220.5,337.35 C220.5,338.4 221.4,339.3 222.45,339.3 C223.5,339.3 224.4,338.4 224.4,337.35 Z M238.95,331.8 C238.95,329.1 236.85,327 234.45,327 C232.05,327 229.95,329.1 229.95,331.8 C229.95,334.5 232.05,336.6 234.45,336.6 C236.85,336.6 238.95,334.5 238.95,331.8 Z M226.95,331.8 C226.95,327.75 230.4,324.3 234.45,324.3 C238.5,324.3 241.95,327.75 241.95,331.8 C241.95,335.85 238.5,339.3 234.45,339.3 C230.4,339.3 226.95,335.85 226.95,331.8 Z M252.45,324.6 L249.15,324.6 L249.15,322.23 C249.15,321.15 249.9,320.4 250.95,320.4 C251.7,320.4 252.45,320.7 252.45,320.7 L252.45,318 C252.45,318 251.55,317.7 250.35,317.7 C247.65,317.7 246.15,319.2 246.15,322.2 L246.15,324.6 L244.05,324.6 L244.05,327.3 L246.15,327.3 L246.15,339 L249.15,339 L249.15,327.3 L252.45,327.3 L252.45,324.6 Z M254.1,318 L270,318 L270,321 L263.7,321 L263.7,339 L260.4,339 L260.4,321 L254.1,321 L254.1,318 Z M274.8,340.5 L275.4,339 L269.55,324.6 L272.7,324.6 L276.9,335.1 L281.1,324.6 L284.25,324.6 L277.8,340.5 C276.33,344.1 275.04,345.3 272.85,345.3 C271.5,345.3 270.75,345 270.75,345 L270.75,342.3 C270.75,342.3 271.5,342.6 272.25,342.6 C273.45,342.6 274.26,341.85 274.8,340.5 Z M294.3,339.3 C291.45,339.3 289.65,337.35 289.65,337.35 L289.65,345.3 L286.65,345.3 L286.65,324.6 L289.65,324.6 L289.65,326.25 C289.65,326.25 291.45,324.3 294.3,324.3 C298.05,324.3 301.35,327.6 301.35,331.8 C301.35,336 298.05,339.3 294.3,339.3 Z M294,327 C291.75,327 289.65,329.1 289.65,331.8 C289.65,334.5 291.75,336.6 294,336.6 C296.25,336.6 298.35,334.5 298.35,331.8 C298.35,329.1 296.25,327 294,327 Z M318,332.85 L306.75,332.85 C307.05,334.8 308.85,336.6 311.25,336.6 C314.1,336.6 315.6,334.35 315.6,334.35 L317.55,336.3 C317.55,336.3 315.3,339.3 311.25,339.3 C307.2,339.3 303.75,335.85 303.75,331.65 C303.75,327.6 307.05,324.3 311.1,324.3 C315.15,324.3 318.15,327.3 318.15,331.35 C318.15,332.25 318,332.85 318,332.85 Z M311.1,326.85 C308.85,326.85 307.35,328.35 306.87,330.3 L315.21,330.3 C314.85,328.35 313.35,326.85 311.1,326.85 Z M324.6,331.5 C324.6,324 328.8,318.6 328.8,318.6 L326.55,317.25 C326.55,317.25 321.9,322.8 321.9,331.5 C321.9,340.2 326.55,345.75 326.55,345.75 L328.8,344.4 C328.8,344.4 324.6,339 324.6,331.5 Z M333.45,322.8 C333.45,324 332.85,324.6 331.95,324.6 L330.45,324.6 L330.45,327.3 L333.15,327.3 L333.15,334.8 C333.15,337.8 334.65,339.3 337.35,339.3 C338.55,339.3 339.45,339 339.45,339 L339.45,336.3 C339.45,336.3 338.7,336.6 337.95,336.6 C336.9,336.6 336.15,335.85 336.15,334.77 L336.15,327.3 L339.15,327.3 L339.15,324.6 L336.15,324.6 L336.15,319.8 L333.45,319.8 L333.45,322.8 Z M353.55,331.8 C353.55,329.1 351.45,327 349.05,327 C346.65,327 344.55,329.1 344.55,331.8 C344.55,334.5 346.65,336.6 349.05,336.6 C351.45,336.6 353.55,334.5 353.55,331.8 Z M341.55,331.8 C341.55,327.75 345,324.3 349.05,324.3 C353.1,324.3 356.55,327.75 356.55,331.8 C356.55,335.85 353.1,339.3 349.05,339.3 C345,339.3 341.55,335.85 341.55,331.8 Z M366,324.3 C368.85,324.3 370.65,326.25 370.65,326.25 L370.65,318 L373.65,318 L373.65,339 L370.65,339 L370.65,337.35 C370.65,337.35 368.85,339.3 366,339.3 C362.25,339.3 358.95,336 358.95,331.8 C358.95,327.6 362.25,324.3 366,324.3 Z M366.3,336.6 C368.55,336.6 370.65,334.5 370.65,331.8 C370.65,329.1 368.55,327 366.3,327 C364.05,327 361.95,329.1 361.95,331.8 C361.95,334.5 364.05,336.6 366.3,336.6 Z M389.25,331.8 C389.25,329.1 387.15,327 384.75,327 C382.35,327 380.25,329.1 380.25,331.8 C380.25,334.5 382.35,336.6 384.75,336.6 C387.15,336.6 389.25,334.5 389.25,331.8 Z M377.25,331.8 C377.25,327.75 380.7,324.3 384.75,324.3 C388.8,324.3 392.25,327.75 392.25,331.8 C392.25,335.85 388.8,339.3 384.75,339.3 C380.7,339.3 377.25,335.85 377.25,331.8 Z M394.2,339 L402.9,318 L406.2,318 L414.9,339 L411.45,339 L409.2,333.45 L399.9,333.45 L397.65,339 L394.2,339 Z M404.55,321.75 L401.1,330.45 L408,330.45 L404.55,321.75 Z M416.55,331.8 C416.55,335.85 420,339.3 424.05,339.3 C427.8,339.3 430.05,336.3 430.05,336.3 L428.1,334.35 C428.1,334.35 426.6,336.6 424.05,336.6 C421.65,336.6 419.55,334.5 419.55,331.8 C419.55,329.1 421.65,327 424.05,327 C426.6,327 427.95,329.1 427.95,329.1 L429.9,327.15 C429.9,327.15 427.8,324.3 424.05,324.3 C420,324.3 416.55,327.75 416.55,331.8 Z M434.85,322.8 C434.85,324 434.25,324.6 433.35,324.6 L431.85,324.6 L431.85,327.3 L434.55,327.3 L434.55,334.8 C434.55,337.8 436.05,339.3 438.75,339.3 C439.95,339.3 440.85,339 440.85,339 L440.85,336.3 C440.85,336.3 440.1,336.6 439.35,336.6 C438.3,336.6 437.55,335.85 437.55,334.77 L437.55,327.3 L440.55,327.3 L440.55,324.6 L437.55,324.6 L437.55,319.8 L434.85,319.8 L434.85,322.8 Z M447.6,324.6 L444.6,324.6 L444.6,339 L447.6,339 L447.6,324.6 Z M447.9,320.1 C447.9,319.05 447.15,318.3 446.1,318.3 C445.05,318.3 444.3,319.05 444.3,320.1 C444.3,321.15 445.05,321.9 446.1,321.9 C447.15,321.9 447.9,321.15 447.9,320.1 Z M463.05,331.8 C463.05,329.1 460.95,327 458.55,327 C456.15,327 454.05,329.1 454.05,331.8 C454.05,334.5 456.15,336.6 458.55,336.6 C460.95,336.6 463.05,334.5 463.05,331.8 Z M451.05,331.8 C451.05,327.75 454.5,324.3 458.55,324.3 C462.6,324.3 466.05,327.75 466.05,331.8 C466.05,335.85 462.6,339.3 458.55,339.3 C454.5,339.3 451.05,335.85 451.05,331.8 Z M472.35,324.6 L469.35,324.6 L469.35,339 L472.35,339 L472.35,331.2 C472.35,328.5 473.85,327 476.1,327 C478.05,327 479.55,328.5 479.55,330.6 L479.55,339 L482.55,339 L482.55,330.6 C482.55,326.7 480.15,324.3 476.7,324.3 C474,324.3 472.35,326.1 472.35,326.1 L472.35,324.6 Z M495.9,326.25 C495.9,326.25 494.4,324.3 491.25,324.3 C488.25,324.3 486.15,326.4 486.15,328.5 C486.15,333.6 493.5,332.1 493.5,334.8 C493.5,335.85 492.75,336.6 491.1,336.6 C488.85,336.6 487.5,334.8 487.5,334.8 L485.55,336.75 C485.55,336.75 487.35,339.3 491.1,339.3 C494.4,339.3 496.5,337.2 496.5,334.8 C496.5,329.7 489.15,331.2 489.15,328.5 C489.15,327.75 489.9,327 491.25,327 C492.9,327 493.95,328.2 493.95,328.2 L495.9,326.25 Z M503.25,337.35 C503.25,336.3 502.35,335.4 501.3,335.4 C500.25,335.4 499.35,336.3 499.35,337.35 C499.35,338.4 500.25,339.3 501.3,339.3 C502.35,339.3 503.25,338.4 503.25,337.35 Z M517.65,317.7 C511.35,317.7 506.55,322.5 506.55,328.5 C506.55,334.5 511.35,339.3 517.65,339.3 C523.35,339.3 526.35,335.1 526.35,335.1 L524.25,333 C524.25,333 522,336.3 517.65,336.3 C513.3,336.3 509.85,332.85 509.85,328.5 C509.85,324.15 513.3,320.7 517.65,320.7 C522,320.7 524.1,323.85 524.1,323.85 L526.2,321.75 C526.2,321.75 523.35,317.7 517.65,317.7 Z M530.55,339 L530.55,318 L539.4,318 C543.3,318 546.15,320.85 546.15,324.45 C546.15,329.1 541.95,330.6 541.95,330.6 L546.75,339 L543.15,339 L538.65,330.9 L533.85,330.9 L533.85,339 L530.55,339 Z M542.85,324.45 C542.85,322.5 541.35,321 539.4,321 L533.85,321 L533.85,327.9 L539.4,327.9 C541.35,327.9 542.85,326.4 542.85,324.45 Z M554.85,336 L554.85,329.55 L564,329.55 L564,326.55 L554.85,326.55 L554.85,321 L566.4,321 L566.4,318 L551.55,318 L551.55,339 L566.7,339 L566.7,336 L554.85,336 Z M568.8,339 L577.5,318 L580.8,318 L589.5,339 L586.05,339 L583.8,333.45 L574.5,333.45 L572.25,339 L568.8,339 Z M579.15,321.75 L575.7,330.45 L582.6,330.45 L579.15,321.75 Z M588.9,318 L604.8,318 L604.8,321 L598.5,321 L598.5,339 L595.2,339 L595.2,321 L588.9,321 L588.9,318 Z M611.7,336 L611.7,329.55 L620.85,329.55 L620.85,326.55 L611.7,326.55 L611.7,321 L623.25,321 L623.25,318 L608.4,318 L608.4,339 L623.55,339 L623.55,336 L611.7,336 Z M635.55,341.7 L624.75,341.7 L624.75,344.4 L635.55,344.4 L635.55,341.7 Z M635.85,318 L635.85,321 L642.15,321 L642.15,339 L645.45,339 L645.45,321 L651.75,321 L651.75,318 L635.85,318 Z M656.25,328.5 C656.25,332.85 659.7,336.3 664.05,336.3 C668.4,336.3 671.85,332.85 671.85,328.5 C671.85,324.15 668.4,320.7 664.05,320.7 C659.7,320.7 656.25,324.15 656.25,328.5 Z M652.95,328.5 C652.95,322.5 657.75,317.7 664.05,317.7 C670.35,317.7 675.15,322.5 675.15,328.5 C675.15,334.5 670.35,339.3 664.05,339.3 C657.75,339.3 652.95,334.5 652.95,328.5 Z M679.95,318 L687.3,318 C693.15,318 697.95,322.8 697.95,328.5 C697.95,334.2 693.15,339 687.3,339 L679.95,339 L679.95,318 Z M687.3,321 L683.25,321 L683.25,336 L687.3,336 C691.35,336 694.65,332.7 694.65,328.5 C694.65,324.3 691.35,321 687.3,321 Z M704.85,328.5 C704.85,332.85 708.3,336.3 712.65,336.3 C717,336.3 720.45,332.85 720.45,328.5 C720.45,324.15 717,320.7 712.65,320.7 C708.3,320.7 704.85,324.15 704.85,328.5 Z M701.55,328.5 C701.55,322.5 706.35,317.7 712.65,317.7 C718.95,317.7 723.75,322.5 723.75,328.5 C723.75,334.5 718.95,339.3 712.65,339.3 C706.35,339.3 701.55,334.5 701.55,328.5 Z M736.05,341.7 L725.25,341.7 L725.25,344.4 L736.05,344.4 L736.05,341.7 Z M748.65,333 C748.65,334.8 747.15,336.3 744.45,336.3 C740.7,336.3 739.05,333.9 739.05,333.9 L736.95,336 C736.95,336 739.35,339.3 744.45,339.3 C749.25,339.3 751.95,336.6 751.95,333 C751.95,325.2 740.85,328.2 740.85,323.4 C740.85,322.05 742.2,320.7 744.45,320.7 C747.3,320.7 748.65,322.5 748.65,322.5 L750.75,320.4 C750.75,320.4 748.65,317.7 744.45,317.7 C740.1,317.7 737.55,320.25 737.55,323.4 C737.55,331.2 748.65,328.2 748.65,333 Z M765,336.3 C762,336.3 759.45,333.75 759.45,330.6 L759.45,318 L756.15,318 L756.15,330.6 C756.15,335.4 760.05,339.3 765,339.3 C769.95,339.3 773.85,335.4 773.85,330.6 L773.85,318 L770.55,318 L770.55,330.6 C770.55,333.75 768,336.3 765,336.3 Z M789.45,317.7 C783.15,317.7 778.35,322.5 778.35,328.5 C778.35,334.5 783.15,339.3 789.45,339.3 C795.15,339.3 798.15,335.1 798.15,335.1 L796.05,333 C796.05,333 793.8,336.3 789.45,336.3 C785.1,336.3 781.65,332.85 781.65,328.5 C781.65,324.15 785.1,320.7 789.45,320.7 C793.8,320.7 795.9,323.85 795.9,323.85 L798,321.75 C798,321.75 795.15,317.7 789.45,317.7 Z M811.65,317.7 C805.35,317.7 800.55,322.5 800.55,328.5 C800.55,334.5 805.35,339.3 811.65,339.3 C817.35,339.3 820.35,335.1 820.35,335.1 L818.25,333 C818.25,333 816,336.3 811.65,336.3 C807.3,336.3 803.85,332.85 803.85,328.5 C803.85,324.15 807.3,320.7 811.65,320.7 C816,320.7 818.1,323.85 818.1,323.85 L820.2,321.75 C820.2,321.75 817.35,317.7 811.65,317.7 Z M827.85,336 L827.85,329.55 L837,329.55 L837,326.55 L827.85,326.55 L827.85,321 L839.4,321 L839.4,318 L824.55,318 L824.55,339 L839.7,339 L839.7,336 L827.85,336 Z M854.1,333 C854.1,334.8 852.6,336.3 849.9,336.3 C846.15,336.3 844.5,333.9 844.5,333.9 L842.4,336 C842.4,336 844.8,339.3 849.9,339.3 C854.7,339.3 857.4,336.6 857.4,333 C857.4,325.2 846.3,328.2 846.3,323.4 C846.3,322.05 847.65,320.7 849.9,320.7 C852.75,320.7 854.1,322.5 854.1,322.5 L856.2,320.4 C856.2,320.4 854.1,317.7 849.9,317.7 C845.55,317.7 843,320.25 843,323.4 C843,331.2 854.1,328.2 854.1,333 Z M871.8,333 C871.8,334.8 870.3,336.3 867.6,336.3 C863.85,336.3 862.2,333.9 862.2,333.9 L860.1,336 C860.1,336 862.5,339.3 867.6,339.3 C872.4,339.3 875.1,336.6 875.1,333 C875.1,325.2 864,328.2 864,323.4 C864,322.05 865.35,320.7 867.6,320.7 C870.45,320.7 871.8,322.5 871.8,322.5 L873.9,320.4 C873.9,320.4 871.8,317.7 867.6,317.7 C863.25,317.7 860.7,320.25 860.7,323.4 C860.7,331.2 871.8,328.2 871.8,333 Z M881.7,331.5 C881.7,339 877.5,344.4 877.5,344.4 L879.75,345.75 C879.75,345.75 884.4,340.2 884.4,331.5 C884.4,322.8 879.75,317.25 879.75,317.25 L877.5,318.6 C877.5,318.6 881.7,324 881.7,331.5 Z M224.4,373.35 C224.4,372.3 223.5,371.4 222.45,371.4 C221.4,371.4 220.5,372.3 220.5,373.35 C220.5,374.4 221.4,375.3 222.45,375.3 C223.5,375.3 224.4,374.4 224.4,373.35 Z M235.5,375.3 C232.65,375.3 230.85,373.35 230.85,373.35 L230.85,381.3 L227.85,381.3 L227.85,360.6 L230.85,360.6 L230.85,362.25 C230.85,362.25 232.65,360.3 235.5,360.3 C239.25,360.3 242.55,363.6 242.55,367.8 C242.55,372 239.25,375.3 235.5,375.3 Z M235.2,363 C232.95,363 230.85,365.1 230.85,367.8 C230.85,370.5 232.95,372.6 235.2,372.6 C237.45,372.6 239.55,370.5 239.55,367.8 C239.55,365.1 237.45,363 235.2,363 Z M249,360.6 L246,360.6 L246,375 L249,375 L249,360.6 Z M249.3,356.1 C249.3,355.05 248.55,354.3 247.5,354.3 C246.45,354.3 245.7,355.05 245.7,356.1 C245.7,357.15 246.45,357.9 247.5,357.9 C248.55,357.9 249.3,357.15 249.3,356.1 Z M261,375.3 C258.15,375.3 256.35,373.35 256.35,373.35 L256.35,381.3 L253.35,381.3 L253.35,360.6 L256.35,360.6 L256.35,362.25 C256.35,362.25 258.15,360.3 261,360.3 C264.75,360.3 268.05,363.6 268.05,367.8 C268.05,372 264.75,375.3 261,375.3 Z M260.7,363 C258.45,363 256.35,365.1 256.35,367.8 C256.35,370.5 258.45,372.6 260.7,372.6 C262.95,372.6 265.05,370.5 265.05,367.8 C265.05,365.1 262.95,363 260.7,363 Z M284.7,368.85 L273.45,368.85 C273.75,370.8 275.55,372.6 277.95,372.6 C280.8,372.6 282.3,370.35 282.3,370.35 L284.25,372.3 C284.25,372.3 282,375.3 277.95,375.3 C273.9,375.3 270.45,371.85 270.45,367.65 C270.45,363.6 273.75,360.3 277.8,360.3 C281.85,360.3 284.85,363.3 284.85,367.35 C284.85,368.25 284.7,368.85 284.7,368.85 Z M277.8,362.85 C275.55,362.85 274.05,364.35 273.57,366.3 L281.91,366.3 C281.55,364.35 280.05,362.85 277.8,362.85 Z M291.3,367.5 C291.3,360 295.5,354.6 295.5,354.6 L293.25,353.25 C293.25,353.25 288.6,358.8 288.6,367.5 C288.6,376.2 293.25,381.75 293.25,381.75 L295.5,380.4 C295.5,380.4 291.3,375 291.3,367.5 Z M257.55,411 L260.55,411 L260.55,402.6 C260.55,398.4 258.45,396.3 255.15,396.3 C251.85,396.3 250.2,398.7 250.2,398.7 C250.2,398.7 249,396.3 245.85,396.3 C243.45,396.3 241.95,398.1 241.95,398.1 L241.95,396.6 L238.95,396.6 L238.95,411 L241.95,411 L241.95,403.2 C241.95,400.5 243.45,399 245.25,399 C247.05,399 248.25,400.2 248.25,402.6 L248.25,411 L251.25,411 L251.25,403.2 C251.25,400.5 252.75,399 254.55,399 C256.35,399 257.55,400.2 257.55,402.6 L257.55,411 Z M276.3,411 L273.3,411 L273.3,409.5 C273.3,409.5 271.65,411.3 268.95,411.3 C265.95,411.3 263.85,409.2 263.85,407.1 C263.85,404.7 265.5,403.05 268.05,402.6 L273.3,401.7 C273.3,400.2 272.1,399 270.3,399 C267.75,399 266.55,400.95 266.55,400.95 L264.6,399 C264.6,399 266.55,396.3 270.3,396.3 C273.9,396.3 276.3,398.7 276.3,401.7 L276.3,411 Z M269.4,408.6 C271.8,408.6 273.3,407.1 273.3,404.4 L273.3,404.1 L268.65,404.85 C267.6,405.03 266.85,405.75 266.85,406.8 C266.85,407.7 267.75,408.6 269.4,408.6 Z M288.15,411.3 C285.3,411.3 283.5,409.35 283.5,409.35 L283.5,417.3 L280.5,417.3 L280.5,396.6 L283.5,396.6 L283.5,398.25 C283.5,398.25 285.3,396.3 288.15,396.3 C291.9,396.3 295.2,399.6 295.2,403.8 C295.2,408 291.9,411.3 288.15,411.3 Z M287.85,399 C285.6,399 283.5,401.1 283.5,403.8 C283.5,406.5 285.6,408.6 287.85,408.6 C290.1,408.6 292.2,406.5 292.2,403.8 C292.2,401.1 290.1,399 287.85,399 Z M301.65,403.5 C301.65,396 305.85,390.6 305.85,390.6 L303.6,389.25 C303.6,389.25 298.95,394.8 298.95,403.5 C298.95,412.2 303.6,417.75 303.6,417.75 L305.85,416.4 C305.85,416.4 301.65,411 301.65,403.5 Z M311.85,403.5 C311.85,396 316.05,390.6 316.05,390.6 L313.8,389.25 C313.8,389.25 309.15,394.8 309.15,403.5 C309.15,412.2 313.8,417.75 313.8,417.75 L316.05,416.4 C316.05,416.4 311.85,411 311.85,403.5 Z M330.45,411 L327.45,411 L327.45,409.5 C327.45,409.5 325.8,411.3 323.1,411.3 C320.1,411.3 318,409.2 318,407.1 C318,404.7 319.65,403.05 322.2,402.6 L327.45,401.7 C327.45,400.2 326.25,399 324.45,399 C321.9,399 320.7,400.95 320.7,400.95 L318.75,399 C318.75,399 320.7,396.3 324.45,396.3 C328.05,396.3 330.45,398.7 330.45,401.7 L330.45,411 Z M323.55,408.6 C325.95,408.6 327.45,407.1 327.45,404.4 L327.45,404.1 L322.8,404.85 C321.75,405.03 321,405.75 321,406.8 C321,407.7 321.9,408.6 323.55,408.6 Z M333.75,403.8 C333.75,407.85 337.2,411.3 341.25,411.3 C345,411.3 347.25,408.3 347.25,408.3 L345.3,406.35 C345.3,406.35 343.8,408.6 341.25,408.6 C338.85,408.6 336.75,406.5 336.75,403.8 C336.75,401.1 338.85,399 341.25,399 C343.8,399 345.15,401.1 345.15,401.1 L347.1,399.15 C347.1,399.15 345,396.3 341.25,396.3 C337.2,396.3 333.75,399.75 333.75,403.8 Z M352.05,394.8 C352.05,396 351.45,396.6 350.55,396.6 L349.05,396.6 L349.05,399.3 L351.75,399.3 L351.75,406.8 C351.75,409.8 353.25,411.3 355.95,411.3 C357.15,411.3 358.05,411 358.05,411 L358.05,408.3 C358.05,408.3 357.3,408.6 356.55,408.6 C355.5,408.6 354.75,407.85 354.75,406.77 L354.75,399.3 L357.75,399.3 L357.75,396.6 L354.75,396.6 L354.75,391.8 L352.05,391.8 L352.05,394.8 Z M364.8,396.6 L361.8,396.6 L361.8,411 L364.8,411 L364.8,396.6 Z M365.1,392.1 C365.1,391.05 364.35,390.3 363.3,390.3 C362.25,390.3 361.5,391.05 361.5,392.1 C361.5,393.15 362.25,393.9 363.3,393.9 C364.35,393.9 365.1,393.15 365.1,392.1 Z M380.25,403.8 C380.25,401.1 378.15,399 375.75,399 C373.35,399 371.25,401.1 371.25,403.8 C371.25,406.5 373.35,408.6 375.75,408.6 C378.15,408.6 380.25,406.5 380.25,403.8 Z M368.25,403.8 C368.25,399.75 371.7,396.3 375.75,396.3 C379.8,396.3 383.25,399.75 383.25,403.8 C383.25,407.85 379.8,411.3 375.75,411.3 C371.7,411.3 368.25,407.85 368.25,403.8 Z M389.55,396.6 L386.55,396.6 L386.55,411 L389.55,411 L389.55,403.2 C389.55,400.5 391.05,399 393.3,399 C395.25,399 396.75,400.5 396.75,402.6 L396.75,411 L399.75,411 L399.75,402.6 C399.75,398.7 397.35,396.3 393.9,396.3 C391.2,396.3 389.55,398.1 389.55,398.1 L389.55,396.6 Z M403.5,409.35 C403.5,410.4 404.4,411.3 405.45,411.3 C406.5,411.3 407.4,410.4 407.4,409.35 C407.4,408.3 406.5,407.4 405.45,407.4 C404.4,407.4 403.5,408.3 403.5,409.35 Z M403.5,398.25 C403.5,399.3 404.4,400.2 405.45,400.2 C406.5,400.2 407.4,399.3 407.4,398.25 C407.4,397.2 406.5,396.3 405.45,396.3 C404.4,396.3 403.5,397.2 403.5,398.25 Z M418.65,394.8 C418.65,396 418.05,396.6 417.15,396.6 L415.65,396.6 L415.65,399.3 L418.35,399.3 L418.35,406.8 C418.35,409.8 419.85,411.3 422.55,411.3 C423.75,411.3 424.65,411 424.65,411 L424.65,408.3 C424.65,408.3 423.9,408.6 423.15,408.6 C422.1,408.6 421.35,407.85 421.35,406.77 L421.35,399.3 L424.35,399.3 L424.35,396.6 L421.35,396.6 L421.35,391.8 L418.65,391.8 L418.65,394.8 Z M438.75,403.8 C438.75,401.1 436.65,399 434.25,399 C431.85,399 429.75,401.1 429.75,403.8 C429.75,406.5 431.85,408.6 434.25,408.6 C436.65,408.6 438.75,406.5 438.75,403.8 Z M426.75,403.8 C426.75,399.75 430.2,396.3 434.25,396.3 C438.3,396.3 441.75,399.75 441.75,403.8 C441.75,407.85 438.3,411.3 434.25,411.3 C430.2,411.3 426.75,407.85 426.75,403.8 Z M451.2,396.3 C454.05,396.3 455.85,398.25 455.85,398.25 L455.85,390 L458.85,390 L458.85,411 L455.85,411 L455.85,409.35 C455.85,409.35 454.05,411.3 451.2,411.3 C447.45,411.3 444.15,408 444.15,403.8 C444.15,399.6 447.45,396.3 451.2,396.3 Z M451.5,408.6 C453.75,408.6 455.85,406.5 455.85,403.8 C455.85,401.1 453.75,399 451.5,399 C449.25,399 447.15,401.1 447.15,403.8 C447.15,406.5 449.25,408.6 451.5,408.6 Z M474.45,403.8 C474.45,401.1 472.35,399 469.95,399 C467.55,399 465.45,401.1 465.45,403.8 C465.45,406.5 467.55,408.6 469.95,408.6 C472.35,408.6 474.45,406.5 474.45,403.8 Z M462.45,403.8 C462.45,399.75 465.9,396.3 469.95,396.3 C474,396.3 477.45,399.75 477.45,403.8 C477.45,407.85 474,411.3 469.95,411.3 C465.9,411.3 462.45,407.85 462.45,403.8 Z M479.4,411 L488.1,390 L491.4,390 L500.1,411 L496.65,411 L494.4,405.45 L485.1,405.45 L482.85,411 L479.4,411 Z M489.75,393.75 L486.3,402.45 L493.2,402.45 L489.75,393.75 Z M501.75,403.8 C501.75,407.85 505.2,411.3 509.25,411.3 C513,411.3 515.25,408.3 515.25,408.3 L513.3,406.35 C513.3,406.35 511.8,408.6 509.25,408.6 C506.85,408.6 504.75,406.5 504.75,403.8 C504.75,401.1 506.85,399 509.25,399 C511.8,399 513.15,401.1 513.15,401.1 L515.1,399.15 C515.1,399.15 513,396.3 509.25,396.3 C505.2,396.3 501.75,399.75 501.75,403.8 Z M520.05,394.8 C520.05,396 519.45,396.6 518.55,396.6 L517.05,396.6 L517.05,399.3 L519.75,399.3 L519.75,406.8 C519.75,409.8 521.25,411.3 523.95,411.3 C525.15,411.3 526.05,411 526.05,411 L526.05,408.3 C526.05,408.3 525.3,408.6 524.55,408.6 C523.5,408.6 522.75,407.85 522.75,406.77 L522.75,399.3 L525.75,399.3 L525.75,396.6 L522.75,396.6 L522.75,391.8 L520.05,391.8 L520.05,394.8 Z M532.8,396.6 L529.8,396.6 L529.8,411 L532.8,411 L532.8,396.6 Z M533.1,392.1 C533.1,391.05 532.35,390.3 531.3,390.3 C530.25,390.3 529.5,391.05 529.5,392.1 C529.5,393.15 530.25,393.9 531.3,393.9 C532.35,393.9 533.1,393.15 533.1,392.1 Z M548.25,403.8 C548.25,401.1 546.15,399 543.75,399 C541.35,399 539.25,401.1 539.25,403.8 C539.25,406.5 541.35,408.6 543.75,408.6 C546.15,408.6 548.25,406.5 548.25,403.8 Z M536.25,403.8 C536.25,399.75 539.7,396.3 543.75,396.3 C547.8,396.3 551.25,399.75 551.25,403.8 C551.25,407.85 547.8,411.3 543.75,411.3 C539.7,411.3 536.25,407.85 536.25,403.8 Z M557.55,396.6 L554.55,396.6 L554.55,411 L557.55,411 L557.55,403.2 C557.55,400.5 559.05,399 561.3,399 C563.25,399 564.75,400.5 564.75,402.6 L564.75,411 L567.75,411 L567.75,402.6 C567.75,398.7 565.35,396.3 561.9,396.3 C559.2,396.3 557.55,398.1 557.55,398.1 L557.55,396.6 Z M581.1,398.25 C581.1,398.25 579.6,396.3 576.45,396.3 C573.45,396.3 571.35,398.4 571.35,400.5 C571.35,405.6 578.7,404.1 578.7,406.8 C578.7,407.85 577.95,408.6 576.3,408.6 C574.05,408.6 572.7,406.8 572.7,406.8 L570.75,408.75 C570.75,408.75 572.55,411.3 576.3,411.3 C579.6,411.3 581.7,409.2 581.7,406.8 C581.7,401.7 574.35,403.2 574.35,400.5 C574.35,399.75 575.1,399 576.45,399 C578.1,399 579.15,400.2 579.15,400.2 L581.1,398.25 Z M588.45,409.35 C588.45,408.3 587.55,407.4 586.5,407.4 C585.45,407.4 584.55,408.3 584.55,409.35 C584.55,410.4 585.45,411.3 586.5,411.3 C587.55,411.3 588.45,410.4 588.45,409.35 Z M602.85,389.7 C596.55,389.7 591.75,394.5 591.75,400.5 C591.75,406.5 596.55,411.3 602.85,411.3 C608.55,411.3 611.55,407.1 611.55,407.1 L609.45,405 C609.45,405 607.2,408.3 602.85,408.3 C598.5,408.3 595.05,404.85 595.05,400.5 C595.05,396.15 598.5,392.7 602.85,392.7 C607.2,392.7 609.3,395.85 609.3,395.85 L611.4,393.75 C611.4,393.75 608.55,389.7 602.85,389.7 Z M622.8,399.15 L622.8,396.3 L622.05,396.3 C619.35,396.3 617.7,398.1 617.7,398.1 L617.7,396.6 L614.7,396.6 L614.7,411 L617.7,411 L617.7,403.2 C617.7,400.5 619.2,399 621.45,399 C622.2,399 622.8,399.15 622.8,399.15 Z M638.55,404.85 L627.3,404.85 C627.6,406.8 629.4,408.6 631.8,408.6 C634.65,408.6 636.15,406.35 636.15,406.35 L638.1,408.3 C638.1,408.3 635.85,411.3 631.8,411.3 C627.75,411.3 624.3,407.85 624.3,403.65 C624.3,399.6 627.6,396.3 631.65,396.3 C635.7,396.3 638.7,399.3 638.7,403.35 C638.7,404.25 638.55,404.85 638.55,404.85 Z M631.65,398.85 C629.4,398.85 627.9,400.35 627.42,402.3 L635.76,402.3 C635.4,400.35 633.9,398.85 631.65,398.85 Z M653.55,411 L650.55,411 L650.55,409.5 C650.55,409.5 648.9,411.3 646.2,411.3 C643.2,411.3 641.1,409.2 641.1,407.1 C641.1,404.7 642.75,403.05 645.3,402.6 L650.55,401.7 C650.55,400.2 649.35,399 647.55,399 C645,399 643.8,400.95 643.8,400.95 L641.85,399 C641.85,399 643.8,396.3 647.55,396.3 C651.15,396.3 653.55,398.7 653.55,401.7 L653.55,411 Z M646.65,408.6 C649.05,408.6 650.55,407.1 650.55,404.4 L650.55,404.1 L645.9,404.85 C644.85,405.03 644.1,405.75 644.1,406.8 C644.1,407.7 645,408.6 646.65,408.6 Z M659.55,394.8 C659.55,396 658.95,396.6 658.05,396.6 L656.55,396.6 L656.55,399.3 L659.25,399.3 L659.25,406.8 C659.25,409.8 660.75,411.3 663.45,411.3 C664.65,411.3 665.55,411 665.55,411 L665.55,408.3 C665.55,408.3 664.8,408.6 664.05,408.6 C663,408.6 662.25,407.85 662.25,406.77 L662.25,399.3 L665.25,399.3 L665.25,396.6 L662.25,396.6 L662.25,391.8 L659.55,391.8 L659.55,394.8 Z M681.9,404.85 L670.65,404.85 C670.95,406.8 672.75,408.6 675.15,408.6 C678,408.6 679.5,406.35 679.5,406.35 L681.45,408.3 C681.45,408.3 679.2,411.3 675.15,411.3 C671.1,411.3 667.65,407.85 667.65,403.65 C667.65,399.6 670.95,396.3 675,396.3 C679.05,396.3 682.05,399.3 682.05,403.35 C682.05,404.25 681.9,404.85 681.9,404.85 Z M675,398.85 C672.75,398.85 671.25,400.35 670.77,402.3 L679.11,402.3 C678.75,400.35 677.25,398.85 675,398.85 Z M684,390 L699.9,390 L699.9,393 L693.6,393 L693.6,411 L690.3,411 L690.3,393 L684,393 L684,390 Z M711.75,403.8 C711.75,401.1 709.65,399 707.25,399 C704.85,399 702.75,401.1 702.75,403.8 C702.75,406.5 704.85,408.6 707.25,408.6 C709.65,408.6 711.75,406.5 711.75,403.8 Z M699.75,403.8 C699.75,399.75 703.2,396.3 707.25,396.3 C711.3,396.3 714.75,399.75 714.75,403.8 C714.75,407.85 711.3,411.3 707.25,411.3 C703.2,411.3 699.75,407.85 699.75,403.8 Z M724.2,396.3 C727.05,396.3 728.85,398.25 728.85,398.25 L728.85,390 L731.85,390 L731.85,411 L728.85,411 L728.85,409.35 C728.85,409.35 727.05,411.3 724.2,411.3 C720.45,411.3 717.15,408 717.15,403.8 C717.15,399.6 720.45,396.3 724.2,396.3 Z M724.5,408.6 C726.75,408.6 728.85,406.5 728.85,403.8 C728.85,401.1 726.75,399 724.5,399 C722.25,399 720.15,401.1 720.15,403.8 C720.15,406.5 722.25,408.6 724.5,408.6 Z M747.45,403.8 C747.45,401.1 745.35,399 742.95,399 C740.55,399 738.45,401.1 738.45,403.8 C738.45,406.5 740.55,408.6 742.95,408.6 C745.35,408.6 747.45,406.5 747.45,403.8 Z M735.45,403.8 C735.45,399.75 738.9,396.3 742.95,396.3 C747,396.3 750.45,399.75 750.45,403.8 C750.45,407.85 747,411.3 742.95,411.3 C738.9,411.3 735.45,407.85 735.45,403.8 Z M764.7,405 C764.7,406.8 763.2,408.3 760.5,408.3 C756.75,408.3 755.1,405.9 755.1,405.9 L753,408 C753,408 755.4,411.3 760.5,411.3 C765.3,411.3 768,408.6 768,405 C768,397.2 756.9,400.2 756.9,395.4 C756.9,394.05 758.25,392.7 760.5,392.7 C763.35,392.7 764.7,394.5 764.7,394.5 L766.8,392.4 C766.8,392.4 764.7,389.7 760.5,389.7 C756.15,389.7 753.6,392.25 753.6,395.4 C753.6,403.2 764.7,400.2 764.7,405 Z M781.65,411 L784.65,411 L784.65,396.6 L781.65,396.6 L781.65,404.4 C781.65,407.1 780.15,408.6 777.9,408.6 C775.95,408.6 774.45,407.1 774.45,405 L774.45,396.6 L771.45,396.6 L771.45,405 C771.45,408.9 773.85,411.3 777.3,411.3 C780,411.3 781.65,409.5 781.65,409.5 L781.65,411 Z M788.1,403.8 C788.1,407.85 791.55,411.3 795.6,411.3 C799.35,411.3 801.6,408.3 801.6,408.3 L799.65,406.35 C799.65,406.35 798.15,408.6 795.6,408.6 C793.2,408.6 791.1,406.5 791.1,403.8 C791.1,401.1 793.2,399 795.6,399 C798.15,399 799.5,401.1 799.5,401.1 L801.45,399.15 C801.45,399.15 799.35,396.3 795.6,396.3 C791.55,396.3 788.1,399.75 788.1,403.8 Z M803.7,403.8 C803.7,407.85 807.15,411.3 811.2,411.3 C814.95,411.3 817.2,408.3 817.2,408.3 L815.25,406.35 C815.25,406.35 813.75,408.6 811.2,408.6 C808.8,408.6 806.7,406.5 806.7,403.8 C806.7,401.1 808.8,399 811.2,399 C813.75,399 815.1,401.1 815.1,401.1 L817.05,399.15 C817.05,399.15 814.95,396.3 811.2,396.3 C807.15,396.3 803.7,399.75 803.7,403.8 Z M833.55,404.85 L822.3,404.85 C822.6,406.8 824.4,408.6 826.8,408.6 C829.65,408.6 831.15,406.35 831.15,406.35 L833.1,408.3 C833.1,408.3 830.85,411.3 826.8,411.3 C822.75,411.3 819.3,407.85 819.3,403.65 C819.3,399.6 822.6,396.3 826.65,396.3 C830.7,396.3 833.7,399.3 833.7,403.35 C833.7,404.25 833.55,404.85 833.55,404.85 Z M826.65,398.85 C824.4,398.85 822.9,400.35 822.42,402.3 L830.76,402.3 C830.4,400.35 828.9,398.85 826.65,398.85 Z M846.15,398.25 C846.15,398.25 844.65,396.3 841.5,396.3 C838.5,396.3 836.4,398.4 836.4,400.5 C836.4,405.6 843.75,404.1 843.75,406.8 C843.75,407.85 843,408.6 841.35,408.6 C839.1,408.6 837.75,406.8 837.75,406.8 L835.8,408.75 C835.8,408.75 837.6,411.3 841.35,411.3 C844.65,411.3 846.75,409.2 846.75,406.8 C846.75,401.7 839.4,403.2 839.4,400.5 C839.4,399.75 840.15,399 841.5,399 C843.15,399 844.2,400.2 844.2,400.2 L846.15,398.25 Z M859.2,398.25 C859.2,398.25 857.7,396.3 854.55,396.3 C851.55,396.3 849.45,398.4 849.45,400.5 C849.45,405.6 856.8,404.1 856.8,406.8 C856.8,407.85 856.05,408.6 854.4,408.6 C852.15,408.6 850.8,406.8 850.8,406.8 L848.85,408.75 C848.85,408.75 850.65,411.3 854.4,411.3 C857.7,411.3 859.8,409.2 859.8,406.8 C859.8,401.7 852.45,403.2 852.45,400.5 C852.45,399.75 853.2,399 854.55,399 C856.2,399 857.25,400.2 857.25,400.2 L859.2,398.25 Z M866.25,403.5 C866.25,411 862.05,416.4 862.05,416.4 L864.3,417.75 C864.3,417.75 868.95,412.2 868.95,403.5 C868.95,394.8 864.3,389.25 864.3,389.25 L862.05,390.6 C862.05,390.6 866.25,396 866.25,403.5 Z M891.15,408.3 L878.55,408.3 L878.55,411 L891.15,411 L891.15,408.3 Z M878.55,396.9 L886.65,400.5 L878.55,404.1 L878.55,406.95 L891.15,401.1 L891.15,399.9 L878.55,394.05 L878.55,396.9 Z M911.85,411 L908.85,411 L908.85,409.5 C908.85,409.5 907.2,411.3 904.5,411.3 C901.5,411.3 899.4,409.2 899.4,407.1 C899.4,404.7 901.05,403.05 903.6,402.6 L908.85,401.7 C908.85,400.2 907.65,399 905.85,399 C903.3,399 902.1,400.95 902.1,400.95 L900.15,399 C900.15,399 902.1,396.3 905.85,396.3 C909.45,396.3 911.85,398.7 911.85,401.7 L911.85,411 Z M904.95,408.6 C907.35,408.6 908.85,407.1 908.85,404.4 L908.85,404.1 L904.2,404.85 C903.15,405.03 902.4,405.75 902.4,406.8 C902.4,407.7 903.3,408.6 904.95,408.6 Z M915.15,403.8 C915.15,407.85 918.6,411.3 922.65,411.3 C926.4,411.3 928.65,408.3 928.65,408.3 L926.7,406.35 C926.7,406.35 925.2,408.6 922.65,408.6 C920.25,408.6 918.15,406.5 918.15,403.8 C918.15,401.1 920.25,399 922.65,399 C925.2,399 926.55,401.1 926.55,401.1 L928.5,399.15 C928.5,399.15 926.4,396.3 922.65,396.3 C918.6,396.3 915.15,399.75 915.15,403.8 Z M933.45,394.8 C933.45,396 932.85,396.6 931.95,396.6 L930.45,396.6 L930.45,399.3 L933.15,399.3 L933.15,406.8 C933.15,409.8 934.65,411.3 937.35,411.3 C938.55,411.3 939.45,411 939.45,411 L939.45,408.3 C939.45,408.3 938.7,408.6 937.95,408.6 C936.9,408.6 936.15,407.85 936.15,406.77 L936.15,399.3 L939.15,399.3 L939.15,396.6 L936.15,396.6 L936.15,391.8 L933.45,391.8 L933.45,394.8 Z M946.2,396.6 L943.2,396.6 L943.2,411 L946.2,411 L946.2,396.6 Z M946.5,392.1 C946.5,391.05 945.75,390.3 944.7,390.3 C943.65,390.3 942.9,391.05 942.9,392.1 C942.9,393.15 943.65,393.9 944.7,393.9 C945.75,393.9 946.5,393.15 946.5,392.1 Z M961.65,403.8 C961.65,401.1 959.55,399 957.15,399 C954.75,399 952.65,401.1 952.65,403.8 C952.65,406.5 954.75,408.6 957.15,408.6 C959.55,408.6 961.65,406.5 961.65,403.8 Z M949.65,403.8 C949.65,399.75 953.1,396.3 957.15,396.3 C961.2,396.3 964.65,399.75 964.65,403.8 C964.65,407.85 961.2,411.3 957.15,411.3 C953.1,411.3 949.65,407.85 949.65,403.8 Z M970.95,396.6 L967.95,396.6 L967.95,411 L970.95,411 L970.95,403.2 C970.95,400.5 972.45,399 974.7,399 C976.65,399 978.15,400.5 978.15,402.6 L978.15,411 L981.15,411 L981.15,402.6 C981.15,398.7 978.75,396.3 975.3,396.3 C972.6,396.3 970.95,398.1 970.95,398.1 L970.95,396.6 Z M988.8,409.35 C988.8,408.3 987.9,407.4 986.85,407.4 C985.8,407.4 984.9,408.3 984.9,409.35 C984.9,410.4 985.8,411.3 986.85,411.3 C987.9,411.3 988.8,410.4 988.8,409.35 Z M999.9,411.3 C997.05,411.3 995.25,409.35 995.25,409.35 L995.25,417.3 L992.25,417.3 L992.25,396.6 L995.25,396.6 L995.25,398.25 C995.25,398.25 997.05,396.3 999.9,396.3 C1003.65,396.3 1006.95,399.6 1006.95,403.8 C1006.95,408 1003.65,411.3 999.9,411.3 Z M999.6,399 C997.35,399 995.25,401.1 995.25,403.8 C995.25,406.5 997.35,408.6 999.6,408.6 C1001.85,408.6 1003.95,406.5 1003.95,403.8 C1003.95,401.1 1001.85,399 999.6,399 Z M1021.8,411 L1018.8,411 L1018.8,409.5 C1018.8,409.5 1017.15,411.3 1014.45,411.3 C1011.45,411.3 1009.35,409.2 1009.35,407.1 C1009.35,404.7 1011,403.05 1013.55,402.6 L1018.8,401.7 C1018.8,400.2 1017.6,399 1015.8,399 C1013.25,399 1012.05,400.95 1012.05,400.95 L1010.1,399 C1010.1,399 1012.05,396.3 1015.8,396.3 C1019.4,396.3 1021.8,398.7 1021.8,401.7 L1021.8,411 Z M1014.9,408.6 C1017.3,408.6 1018.8,407.1 1018.8,404.4 L1018.8,404.1 L1014.15,404.85 C1013.1,405.03 1012.35,405.75 1012.35,406.8 C1012.35,407.7 1013.25,408.6 1014.9,408.6 Z M1029.45,412.5 C1028.91,413.85 1028.1,414.6 1026.9,414.6 C1026.15,414.6 1025.4,414.3 1025.4,414.3 L1025.4,417 C1025.4,417 1026.15,417.3 1027.5,417.3 C1029.69,417.3 1030.98,416.1 1032.45,412.5 L1038.9,396.6 L1035.75,396.6 L1031.55,407.1 L1027.35,396.6 L1024.2,396.6 L1030.05,411 L1029.45,412.5 Z M1044.6,390 L1041.6,390 L1041.6,411 L1044.6,411 L1044.6,390 Z M1060.2,403.8 C1060.2,401.1 1058.1,399 1055.7,399 C1053.3,399 1051.2,401.1 1051.2,403.8 C1051.2,406.5 1053.3,408.6 1055.7,408.6 C1058.1,408.6 1060.2,406.5 1060.2,403.8 Z M1048.2,403.8 C1048.2,399.75 1051.65,396.3 1055.7,396.3 C1059.75,396.3 1063.2,399.75 1063.2,403.8 C1063.2,407.85 1059.75,411.3 1055.7,411.3 C1051.65,411.3 1048.2,407.85 1048.2,403.8 Z M1078.05,411 L1075.05,411 L1075.05,409.5 C1075.05,409.5 1073.4,411.3 1070.7,411.3 C1067.7,411.3 1065.6,409.2 1065.6,407.1 C1065.6,404.7 1067.25,403.05 1069.8,402.6 L1075.05,401.7 C1075.05,400.2 1073.85,399 1072.05,399 C1069.5,399 1068.3,400.95 1068.3,400.95 L1066.35,399 C1066.35,399 1068.3,396.3 1072.05,396.3 C1075.65,396.3 1078.05,398.7 1078.05,401.7 L1078.05,411 Z M1071.15,408.6 C1073.55,408.6 1075.05,407.1 1075.05,404.4 L1075.05,404.1 L1070.4,404.85 C1069.35,405.03 1068.6,405.75 1068.6,406.8 C1068.6,407.7 1069.5,408.6 1071.15,408.6 Z M1088.4,396.3 C1091.25,396.3 1093.05,398.25 1093.05,398.25 L1093.05,390 L1096.05,390 L1096.05,411 L1093.05,411 L1093.05,409.35 C1093.05,409.35 1091.25,411.3 1088.4,411.3 C1084.65,411.3 1081.35,408 1081.35,403.8 C1081.35,399.6 1084.65,396.3 1088.4,396.3 Z M1088.7,408.6 C1090.95,408.6 1093.05,406.5 1093.05,403.8 C1093.05,401.1 1090.95,399 1088.7,399 C1086.45,399 1084.35,401.1 1084.35,403.8 C1084.35,406.5 1086.45,408.6 1088.7,408.6 Z M1103.7,403.5 C1103.7,411 1099.5,416.4 1099.5,416.4 L1101.75,417.75 C1101.75,417.75 1106.4,412.2 1106.4,403.5 C1106.4,394.8 1101.75,389.25 1101.75,389.25 L1099.5,390.6 C1099.5,390.6 1103.7,396 1103.7,403.5 Z M1111.8,407.4 L1108.8,413.85 L1110.75,414.9 L1114.5,408.9 L1111.8,407.4 Z M240.75,430.8 C240.75,432 240.15,432.6 239.25,432.6 L237.75,432.6 L237.75,435.3 L240.45,435.3 L240.45,442.8 C240.45,445.8 241.95,447.3 244.65,447.3 C245.85,447.3 246.75,447 246.75,447 L246.75,444.3 C246.75,444.3 246,444.6 245.25,444.6 C244.2,444.6 243.45,443.85 243.45,442.77 L243.45,435.3 L246.45,435.3 L246.45,432.6 L243.45,432.6 L243.45,427.8 L240.75,427.8 L240.75,430.8 Z M251.55,436.95 C251.55,436.95 251.550001,436.949999 251.550002,436.949997 L251.55,436.95 Z M251.55,436.95 L249.6,435 C249.6,435 251.55,432.3 255.3,432.3 C258.9,432.3 261.3,434.7 261.3,437.7 L261.3,447 L258.3,447 L258.3,445.5 C258.3,445.5 256.65,447.3 253.95,447.3 C250.95,447.3 248.85,445.2 248.85,443.1 C248.85,440.7 250.5,439.05 253.05,438.6 L258.3,437.7 C258.3,436.2 257.1,435 255.3,435 C252.751784,435 251.551679,436.947273 251.550002,436.949997 L251.55,436.95 Z M254.4,444.6 C256.8,444.6 258.3,443.1 258.3,440.4 L258.3,440.1 L253.65,440.85 C252.6,441.03 251.85,441.75 251.85,442.8 C251.85,443.7 252.75,444.6 254.4,444.6 Z M273.15,447.3 C270.3,447.3 268.5,445.35 268.5,445.35 L268.5,453.3 L265.5,453.3 L265.5,432.6 L268.5,432.6 L268.5,434.25 C268.5,434.25 270.3,432.3 273.15,432.3 C276.9,432.3 280.2,435.6 280.2,439.8 C280.2,444 276.9,447.3 273.15,447.3 Z M272.85,435 C270.6,435 268.5,437.1 268.5,439.8 C268.5,442.5 270.6,444.6 272.85,444.6 C275.1,444.6 277.2,442.5 277.2,439.8 C277.2,437.1 275.1,435 272.85,435 Z M286.65,439.5 C286.65,432 290.85,426.6 290.85,426.6 L288.6,425.25 C288.6,425.25 283.95,430.8 283.95,439.5 C283.95,448.2 288.6,453.75 288.6,453.75 L290.85,452.4 C290.85,452.4 286.65,447 286.65,439.5 Z M295.5,430.8 C295.5,432 294.9,432.6 294,432.6 L292.5,432.6 L292.5,435.3 L295.2,435.3 L295.2,442.8 C295.2,445.8 296.7,447.3 299.4,447.3 C300.6,447.3 301.5,447 301.5,447 L301.5,444.3 C301.5,444.3 300.75,444.6 300,444.6 C298.95,444.6 298.2,443.85 298.2,442.77 L298.2,435.3 L301.2,435.3 L301.2,432.6 L298.2,432.6 L298.2,427.8 L295.5,427.8 L295.5,430.8 Z M315.6,439.8 C315.6,437.1 313.5,435 311.1,435 C308.7,435 306.6,437.1 306.6,439.8 C306.6,442.5 308.7,444.6 311.1,444.6 C313.5,444.6 315.6,442.5 315.6,439.8 Z M303.6,439.8 C303.6,435.75 307.05,432.3 311.1,432.3 C315.15,432.3 318.6,435.75 318.6,439.8 C318.6,443.85 315.15,447.3 311.1,447.3 C307.05,447.3 303.6,443.85 303.6,439.8 Z M328.05,432.3 C330.9,432.3 332.7,434.25 332.7,434.25 L332.7,426 L335.7,426 L335.7,447 L332.7,447 L332.7,445.35 C332.7,445.35 330.9,447.3 328.05,447.3 C324.3,447.3 321,444 321,439.8 C321,435.6 324.3,432.3 328.05,432.3 Z M328.35,444.6 C330.6,444.6 332.7,442.5 332.7,439.8 C332.7,437.1 330.6,435 328.35,435 C326.1,435 324,437.1 324,439.8 C324,442.5 326.1,444.6 328.35,444.6 Z M351.3,439.8 C351.3,437.1 349.2,435 346.8,435 C344.4,435 342.3,437.1 342.3,439.8 C342.3,442.5 344.4,444.6 346.8,444.6 C349.2,444.6 351.3,442.5 351.3,439.8 Z M339.3,439.8 C339.3,435.75 342.75,432.3 346.8,432.3 C350.85,432.3 354.3,435.75 354.3,439.8 C354.3,443.85 350.85,447.3 346.8,447.3 C342.75,447.3 339.3,443.85 339.3,439.8 Z M375.45,444.3 L362.85,444.3 L362.85,447 L375.45,447 L375.45,444.3 Z M362.85,432.9 L370.95,436.5 L362.85,440.1 L362.85,442.95 L375.45,437.1 L375.45,435.9 L362.85,430.05 L362.85,432.9 Z M386.4,430.8 C386.4,432 385.8,432.6 384.9,432.6 L383.4,432.6 L383.4,435.3 L386.1,435.3 L386.1,442.8 C386.1,445.8 387.6,447.3 390.3,447.3 C391.5,447.3 392.4,447 392.4,447 L392.4,444.3 C392.4,444.3 391.65,444.6 390.9,444.6 C389.85,444.6 389.1,443.85 389.1,442.77 L389.1,435.3 L392.1,435.3 L392.1,432.6 L389.1,432.6 L389.1,427.8 L386.4,427.8 L386.4,430.8 Z M399.3,426 L396.3,426 L396.3,447 L399.3,447 L399.3,439.2 C399.3,436.5 400.8,435 403.05,435 C405,435 406.5,436.5 406.5,438.6 L406.5,447 L409.5,447 L409.5,438.6 C409.5,434.7 407.1,432.3 403.65,432.3 C400.95,432.3 399.3,434.1 399.3,434.1 L399.3,426 Z M416.85,432.6 L413.85,432.6 L413.85,447 L416.85,447 L416.85,432.6 Z M417.15,428.1 C417.15,427.05 416.4,426.3 415.35,426.3 C414.3,426.3 413.55,427.05 413.55,428.1 C413.55,429.15 414.3,429.9 415.35,429.9 C416.4,429.9 417.15,429.15 417.15,428.1 Z M430.35,434.25 C430.35,434.25 428.85,432.3 425.7,432.3 C422.7,432.3 420.6,434.4 420.6,436.5 C420.6,441.6 427.95,440.1 427.95,442.8 C427.95,443.85 427.2,444.6 425.55,444.6 C423.3,444.6 421.95,442.8 421.95,442.8 L420,444.75 C420,444.75 421.8,447.3 425.55,447.3 C428.85,447.3 430.95,445.2 430.95,442.8 C430.95,437.7 423.6,439.2 423.6,436.5 C423.6,435.75 424.35,435 425.7,435 C427.35,435 428.4,436.2 428.4,436.2 L430.35,434.25 Z M437.7,445.35 C437.7,444.3 436.8,443.4 435.75,443.4 C434.7,443.4 433.8,444.3 433.8,445.35 C433.8,446.4 434.7,447.3 435.75,447.3 C436.8,447.3 437.7,446.4 437.7,445.35 Z M449.25,435.15 L449.25,432.3 L448.5,432.3 C445.8,432.3 444.15,434.1 444.15,434.1 L444.15,432.6 L441.15,432.6 L441.15,447 L444.15,447 L444.15,439.2 C444.15,436.5 445.65,435 447.9,435 C448.65,435 449.25,435.15 449.25,435.15 Z M462.75,439.8 C462.75,437.1 460.65,435 458.25,435 C455.85,435 453.75,437.1 453.75,439.8 C453.75,442.5 455.85,444.6 458.25,444.6 C460.65,444.6 462.75,442.5 462.75,439.8 Z M450.75,439.8 C450.75,435.75 454.2,432.3 458.25,432.3 C462.3,432.3 465.75,435.75 465.75,439.8 C465.75,443.85 462.3,447.3 458.25,447.3 C454.2,447.3 450.75,443.85 450.75,439.8 Z M479.25,447 L482.25,447 L482.25,432.6 L479.25,432.6 L479.25,440.4 C479.25,443.1 477.75,444.6 475.5,444.6 C473.55,444.6 472.05,443.1 472.05,441 L472.05,432.6 L469.05,432.6 L469.05,441 C469.05,444.9 471.45,447.3 474.9,447.3 C477.6,447.3 479.25,445.5 479.25,445.5 L479.25,447 Z M488.4,430.8 C488.4,432 487.8,432.6 486.9,432.6 L485.4,432.6 L485.4,435.3 L488.1,435.3 L488.1,442.8 C488.1,445.8 489.6,447.3 492.3,447.3 C493.5,447.3 494.4,447 494.4,447 L494.4,444.3 C494.4,444.3 493.65,444.6 492.9,444.6 C491.85,444.6 491.1,443.85 491.1,442.77 L491.1,435.3 L494.1,435.3 L494.1,432.6 L491.1,432.6 L491.1,427.8 L488.4,427.8 L488.4,430.8 Z M510.75,440.85 L499.5,440.85 C499.8,442.8 501.6,444.6 504,444.6 C506.85,444.6 508.35,442.35 508.35,442.35 L510.3,444.3 C510.3,444.3 508.05,447.3 504,447.3 C499.95,447.3 496.5,443.85 496.5,439.65 C496.5,435.6 499.8,432.3 503.85,432.3 C507.9,432.3 510.9,435.3 510.9,439.35 C510.9,440.25 510.75,440.85 510.75,440.85 Z M503.85,434.85 C501.6,434.85 500.1,436.35 499.62,438.3 L507.96,438.3 C507.6,436.35 506.1,434.85 503.85,434.85 Z M522.3,435.15 L522.3,432.3 L521.55,432.3 C518.85,432.3 517.2,434.1 517.2,434.1 L517.2,432.6 L514.2,432.6 L514.2,447 L517.2,447 L517.2,439.2 C517.2,436.5 518.7,435 520.95,435 C521.7,435 522.3,435.15 522.3,435.15 Z M526.35,445.35 C526.35,444.3 525.45,443.4 524.4,443.4 C523.35,443.4 522.45,444.3 522.45,445.35 C522.45,446.4 523.35,447.3 524.4,447.3 C525.45,447.3 526.35,446.4 526.35,445.35 Z M532.8,432.6 L529.8,432.6 L529.8,447 L532.8,447 L532.8,439.2 C532.8,436.5 534.3,435 536.55,435 C538.5,435 540,436.5 540,438.6 L540,447 L543,447 L543,438.6 C543,434.7 540.6,432.3 537.15,432.3 C534.45,432.3 532.8,434.1 532.8,434.1 L532.8,432.6 Z M558.75,447 L555.75,447 L555.75,445.5 C555.75,445.5 554.1,447.3 551.4,447.3 C548.4,447.3 546.3,445.2 546.3,443.1 C546.3,440.7 547.95,439.05 550.5,438.6 L555.75,437.7 C555.75,436.2 554.55,435 552.75,435 C550.2,435 549,436.95 549,436.95 L547.05,435 C547.05,435 549,432.3 552.75,432.3 C556.35,432.3 558.75,434.7 558.75,437.7 L558.75,447 Z M551.85,444.6 C554.25,444.6 555.75,443.1 555.75,440.4 L555.75,440.1 L551.1,440.85 C550.05,441.03 549.3,441.75 549.3,442.8 C549.3,443.7 550.2,444.6 551.85,444.6 Z M570,447 L575.85,432.6 L572.7,432.6 L568.5,443.1 L564.3,432.6 L561.15,432.6 L567,447 L570,447 Z M581.4,432.6 L578.4,432.6 L578.4,447 L581.4,447 L581.4,432.6 Z M581.7,428.1 C581.7,427.05 580.95,426.3 579.9,426.3 C578.85,426.3 578.1,427.05 578.1,428.1 C578.1,429.15 578.85,429.9 579.9,429.9 C580.95,429.9 581.7,429.15 581.7,428.1 Z M595.95,446.13 L595.95,444.9 C595.95,444.9 594.3,446.7 591.6,446.7 C588,446.7 584.85,443.55 584.85,439.5 C584.85,435.45 588,432.3 591.6,432.3 C594.3,432.3 595.95,434.1 595.95,434.1 L595.95,432.6 L598.95,432.6 L598.95,446.1 C598.95,450.15 595.8,453.3 591.75,453.3 C587.4,453.3 585.3,450.3 585.3,450.3 L587.25,448.35 C587.25,448.35 588.9,450.6 591.75,450.6 C594.15,450.6 595.95,448.8 595.95,446.13 Z M587.85,439.5 C587.85,442.05 589.8,444 591.9,444 C594,444 595.95,442.05 595.95,439.5 C595.95,436.95 594,435 591.9,435 C589.8,435 587.85,436.95 587.85,439.5 Z M614.7,447 L611.7,447 L611.7,445.5 C611.7,445.5 610.05,447.3 607.35,447.3 C604.35,447.3 602.25,445.2 602.25,443.1 C602.25,440.7 603.9,439.05 606.45,438.6 L611.7,437.7 C611.7,436.2 610.5,435 608.7,435 C606.15,435 604.95,436.95 604.95,436.95 L603,435 C603,435 604.95,432.3 608.7,432.3 C612.3,432.3 614.7,434.7 614.7,437.7 L614.7,447 Z M607.8,444.6 C610.2,444.6 611.7,443.1 611.7,440.4 L611.7,440.1 L607.05,440.85 C606,441.03 605.25,441.75 605.25,442.8 C605.25,443.7 606.15,444.6 607.8,444.6 Z M620.7,430.8 C620.7,432 620.1,432.6 619.2,432.6 L617.7,432.6 L617.7,435.3 L620.4,435.3 L620.4,442.8 C620.4,445.8 621.9,447.3 624.6,447.3 C625.8,447.3 626.7,447 626.7,447 L626.7,444.3 C626.7,444.3 625.95,444.6 625.2,444.6 C624.15,444.6 623.4,443.85 623.4,442.77 L623.4,435.3 L626.4,435.3 L626.4,432.6 L623.4,432.6 L623.4,427.8 L620.7,427.8 L620.7,430.8 Z M643.05,440.85 L631.8,440.85 C632.1,442.8 633.9,444.6 636.3,444.6 C639.15,444.6 640.65,442.35 640.65,442.35 L642.6,444.3 C642.6,444.3 640.35,447.3 636.3,447.3 C632.25,447.3 628.8,443.85 628.8,439.65 C628.8,435.6 632.1,432.3 636.15,432.3 C640.2,432.3 643.2,435.3 643.2,439.35 C643.2,440.25 643.05,440.85 643.05,440.85 Z M636.15,434.85 C633.9,434.85 632.4,436.35 631.92,438.3 L640.26,438.3 C639.9,436.35 638.4,434.85 636.15,434.85 Z M649.65,439.5 C649.65,432 653.85,426.6 653.85,426.6 L651.6,425.25 C651.6,425.25 646.95,430.8 646.95,439.5 C646.95,448.2 651.6,453.75 651.6,453.75 L653.85,452.4 C653.85,452.4 649.65,447 649.65,439.5 Z M659.85,428.1 L663.75,428.1 L663.75,425.7 L657.15,425.7 L657.15,453.3 L663.75,453.3 L663.75,450.9 L659.85,450.9 L659.85,428.1 Z M668.7,426 L665.55,426 L668.7,430.2 L670.95,430.2 L668.7,426 Z M684.45,425.7 L681.75,425.7 L672.75,453.3 L675.45,453.3 L684.45,425.7 Z M689.1,430.8 C689.1,432 688.5,432.6 687.6,432.6 L686.1,432.6 L686.1,435.3 L688.8,435.3 L688.8,442.8 C688.8,445.8 690.3,447.3 693,447.3 C694.2,447.3 695.1,447 695.1,447 L695.1,444.3 C695.1,444.3 694.35,444.6 693.6,444.6 C692.55,444.6 691.8,443.85 691.8,442.77 L691.8,435.3 L694.8,435.3 L694.8,432.6 L691.8,432.6 L691.8,427.8 L689.1,427.8 L689.1,430.8 Z M709.2,439.8 C709.2,437.1 707.1,435 704.7,435 C702.3,435 700.2,437.1 700.2,439.8 C700.2,442.5 702.3,444.6 704.7,444.6 C707.1,444.6 709.2,442.5 709.2,439.8 Z M697.2,439.8 C697.2,435.75 700.65,432.3 704.7,432.3 C708.75,432.3 712.2,435.75 712.2,439.8 C712.2,443.85 708.75,447.3 704.7,447.3 C700.65,447.3 697.2,443.85 697.2,439.8 Z M721.65,432.3 C724.5,432.3 726.3,434.25 726.3,434.25 L726.3,426 L729.3,426 L729.3,447 L726.3,447 L726.3,445.35 C726.3,445.35 724.5,447.3 721.65,447.3 C717.9,447.3 714.6,444 714.6,439.8 C714.6,435.6 717.9,432.3 721.65,432.3 Z M721.95,444.6 C724.2,444.6 726.3,442.5 726.3,439.8 C726.3,437.1 724.2,435 721.95,435 C719.7,435 717.6,437.1 717.6,439.8 C717.6,442.5 719.7,444.6 721.95,444.6 Z M744.9,439.8 C744.9,437.1 742.8,435 740.4,435 C738,435 735.9,437.1 735.9,439.8 C735.9,442.5 738,444.6 740.4,444.6 C742.8,444.6 744.9,442.5 744.9,439.8 Z M732.9,439.8 C732.9,435.75 736.35,432.3 740.4,432.3 C744.45,432.3 747.9,435.75 747.9,439.8 C747.9,443.85 744.45,447.3 740.4,447.3 C736.35,447.3 732.9,443.85 732.9,439.8 Z M760.35,434.25 C760.35,434.25 758.85,432.3 755.7,432.3 C752.7,432.3 750.6,434.4 750.6,436.5 C750.6,441.6 757.95,440.1 757.95,442.8 C757.95,443.85 757.2,444.6 755.55,444.6 C753.3,444.6 751.95,442.8 751.95,442.8 L750,444.75 C750,444.75 751.8,447.3 755.55,447.3 C758.85,447.3 760.95,445.2 760.95,442.8 C760.95,437.7 753.6,439.2 753.6,436.5 C753.6,435.75 754.35,435 755.7,435 C757.35,435 758.4,436.2 758.4,436.2 L760.35,434.25 Z M774.9,425.7 L772.2,425.7 L763.2,453.3 L765.9,453.3 L774.9,425.7 Z M783,422.7 L783,425.85 C783,425.85 777.6,426.45 777.6,431.4 C777.6,439.2 788.7,436.2 788.7,441 C788.7,442.8 787.2,444.3 784.5,444.3 C780.75,444.3 779.1,441.9 779.1,441.9 L777,444 C777,444 779.1,446.7 783,447.15 L783,450.3 L786,450.3 L786,447.15 C786,447.15 792,446.7 792,441 C792,433.2 780.9,436.2 780.9,431.4 C780.9,430.05 782.25,428.7 784.5,428.7 C787.35,428.7 788.7,430.5 788.7,430.5 L790.8,428.4 C790.8,428.4 789,426.3 786,425.85 L786,422.7 L783,422.7 Z M795.3,440.7 C796.5,440.7 797.1,441.3 797.1,442.5 L797.1,448.95 C797.1,451.65 798.75,453.3 801.75,453.3 L803.4,453.3 L803.4,450.9 L801.75,450.9 C800.55,450.9 799.8,450.15 799.8,448.95 L799.8,442.5 C799.8,439.8 798.15,439.5 798.18,439.5 C798.15,439.5 799.8,439.2 799.8,436.5 L799.8,430.05 C799.8,428.85 800.55,428.1 801.75,428.1 L803.4,428.1 L803.4,425.7 L801.75,425.7 C798.75,425.7 797.1,427.35 797.1,430.05 L797.1,436.5 C797.1,437.7 796.5,438.3 795.3,438.3 L795.3,440.7 Z M808.05,430.8 C808.05,432 807.45,432.6 806.55,432.6 L805.05,432.6 L805.05,435.3 L807.75,435.3 L807.75,442.8 C807.75,445.8 809.25,447.3 811.95,447.3 C813.15,447.3 814.05,447 814.05,447 L814.05,444.3 C814.05,444.3 813.3,444.6 812.55,444.6 C811.5,444.6 810.75,443.85 810.75,442.77 L810.75,435.3 L813.75,435.3 L813.75,432.6 L810.75,432.6 L810.75,427.8 L808.05,427.8 L808.05,430.8 Z M828.15,439.8 C828.15,437.1 826.05,435 823.65,435 C821.25,435 819.15,437.1 819.15,439.8 C819.15,442.5 821.25,444.6 823.65,444.6 C826.05,444.6 828.15,442.5 828.15,439.8 Z M816.15,439.8 C816.15,435.75 819.6,432.3 823.65,432.3 C827.7,432.3 831.15,435.75 831.15,439.8 C831.15,443.85 827.7,447.3 823.65,447.3 C819.6,447.3 816.15,443.85 816.15,439.8 Z M840.6,432.3 C843.45,432.3 845.25,434.25 845.25,434.25 L845.25,426 L848.25,426 L848.25,447 L845.25,447 L845.25,445.35 C845.25,445.35 843.45,447.3 840.6,447.3 C836.85,447.3 833.55,444 833.55,439.8 C833.55,435.6 836.85,432.3 840.6,432.3 Z M840.9,444.6 C843.15,444.6 845.25,442.5 845.25,439.8 C845.25,437.1 843.15,435 840.9,435 C838.65,435 836.55,437.1 836.55,439.8 C836.55,442.5 838.65,444.6 840.9,444.6 Z M863.85,439.8 C863.85,437.1 861.75,435 859.35,435 C856.95,435 854.85,437.1 854.85,439.8 C854.85,442.5 856.95,444.6 859.35,444.6 C861.75,444.6 863.85,442.5 863.85,439.8 Z M851.85,439.8 C851.85,435.75 855.3,432.3 859.35,432.3 C863.4,432.3 866.85,435.75 866.85,439.8 C866.85,443.85 863.4,447.3 859.35,447.3 C855.3,447.3 851.85,443.85 851.85,439.8 Z M873.6,445.35 C873.6,444.3 872.7,443.4 871.65,443.4 C870.6,443.4 869.7,444.3 869.7,445.35 C869.7,446.4 870.6,447.3 871.65,447.3 C872.7,447.3 873.6,446.4 873.6,445.35 Z M880.2,432.6 L877.2,432.6 L877.2,447 L880.2,447 L880.2,432.6 Z M880.5,428.1 C880.5,427.05 879.75,426.3 878.7,426.3 C877.65,426.3 876.9,427.05 876.9,428.1 C876.9,429.15 877.65,429.9 878.7,429.9 C879.75,429.9 880.5,429.15 880.5,428.1 Z M890.7,432.3 C893.55,432.3 895.35,434.25 895.35,434.25 L895.35,426 L898.35,426 L898.35,447 L895.35,447 L895.35,445.35 C895.35,445.35 893.55,447.3 890.7,447.3 C886.95,447.3 883.65,444 883.65,439.8 C883.65,435.6 886.95,432.3 890.7,432.3 Z M891,444.6 C893.25,444.6 895.35,442.5 895.35,439.8 C895.35,437.1 893.25,435 891,435 C888.75,435 886.65,437.1 886.65,439.8 C886.65,442.5 888.75,444.6 891,444.6 Z M909.9,438.3 C908.7,438.3 908.1,437.7 908.1,436.5 L908.1,430.05 C908.1,427.35 906.45,425.7 903.45,425.7 L901.8,425.7 L901.8,428.1 L903.45,428.1 C904.65,428.1 905.4,428.85 905.4,430.05 L905.4,436.5 C905.4,439.2 907.05,439.5 907.02,439.5 C907.05,439.5 905.4,439.8 905.4,442.5 L905.4,448.95 C905.4,450.15 904.65,450.9 903.45,450.9 L901.8,450.9 L901.8,453.3 L903.45,453.3 C906.45,453.3 908.1,451.65 908.1,448.95 L908.1,442.5 C908.1,441.3 908.7,440.7 909.9,440.7 L909.9,438.3 Z M915.75,426 L912.6,426 L915.75,430.2 L918,430.2 L915.75,426 Z M923.7,450.9 L919.8,450.9 L919.8,453.3 L926.4,453.3 L926.4,425.7 L919.8,425.7 L919.8,428.1 L923.7,428.1 L923.7,450.9 Z M933.9,439.5 C933.9,447 929.7,452.4 929.7,452.4 L931.95,453.75 C931.95,453.75 936.6,448.2 936.6,439.5 C936.6,430.8 931.95,425.25 931.95,425.25 L929.7,426.6 C929.7,426.6 933.9,432 933.9,439.5 Z M944.1,439.5 C944.1,447 939.9,452.4 939.9,452.4 L942.15,453.75 C942.15,453.75 946.8,448.2 946.8,439.5 C946.8,430.8 942.15,425.25 942.15,425.25 L939.9,426.6 C939.9,426.6 944.1,432 944.1,439.5 Z M224.1,475.5 C224.1,483 219.9,488.4 219.9,488.4 L222.15,489.75 C222.15,489.75 226.8,484.2 226.8,475.5 C226.8,466.8 222.15,461.25 222.15,461.25 L219.9,462.6 C219.9,462.6 224.1,468 224.1,475.5 Z M232.2,479.4 L229.2,485.85 L231.15,486.9 L234.9,480.9 L232.2,479.4 Z M231.15,470.25 C231.15,471.3 232.05,472.2 233.1,472.2 C234.15,472.2 235.05,471.3 235.05,470.25 C235.05,469.2 234.15,468.3 233.1,468.3 C232.05,468.3 231.15,469.2 231.15,470.25 Z M204,510.3 C202.8,510.3 202.2,509.7 202.2,508.5 L202.2,502.05 C202.2,499.35 200.55,497.7 197.55,497.7 L195.9,497.7 L195.9,500.1 L197.55,500.1 C198.75,500.1 199.5,500.85 199.5,502.05 L199.5,508.5 C199.5,511.2 201.15,511.5 201.12,511.5 C201.15,511.5 199.5,511.8 199.5,514.5 L199.5,520.95 C199.5,522.15 198.75,522.9 197.55,522.9 L195.9,522.9 L195.9,525.3 L197.55,525.3 C200.55,525.3 202.2,523.65 202.2,520.95 L202.2,514.5 C202.2,513.3 202.8,512.7 204,512.7 L204,510.3 Z" id="@Effect({-dispatch:" fill="#545E6F"></path>
            <text id="EFFECTS-NO-DISPATCH" font-family="TTNorms-Bold, TT Norms" font-size="24" font-weight="bold" fill="#FFFFFF">
                <tspan x="500.3" y="183">EFFECTS NO DISPATCH</tspan>
            </text>
        </g>
    </g>
</svg>