<?xml version="1.0" encoding="UTF-8"?>
<svg width="1280px" height="720px" viewBox="0 0 1280 720" version="1.1" xmlns="http://www.w3.org/2000/svg" xmlns:xlink="http://www.w3.org/1999/xlink" style="background: #FFFFFF;">
    <!-- Generator: Sketch 47.1 (45422) - http://www.bohemiancoding.com/sketch -->
    <title>1.1 ngrx-diagrams</title>
    <desc>Created with Sketch.</desc>
    <defs>
        <circle id="path-1" cx="60" cy="60" r="60"></circle>
        <circle id="path-2" cx="60" cy="60" r="60"></circle>
        <rect id="path-3" x="0" y="0" width="160" height="50" rx="5"></rect>
        <circle id="path-4" cx="60" cy="60" r="60"></circle>
    </defs>
    <g id="Page-1" stroke="none" stroke-width="1" fill="none" fill-rule="evenodd">
        <g id="1.1-ngrx-diagrams">
            <g id="diagram" transform="translate(170.000000, 40.000000)">
                <text id="Render" font-family="TTNorms-Bold, TT Norms" font-size="18" font-weight="bold" fill="#545E6F">
                    <tspan x="120" y="480">Render</tspan>
                </text>
                <path d="M81.9558416,358.853247 L92.1145305,373.36566 L92.1145305,373.36566 C92.7479595,374.270558 92.5278899,375.517619 91.6229913,376.151048 C91.2868242,376.386365 90.8864108,376.512584 90.4760666,376.512584 L70.1586889,376.512584 L70.1586889,376.512584 C69.0541194,376.512584 68.1586889,375.617154 68.1586889,374.512584 C68.1586889,374.10224 68.2849081,373.701827 68.520225,373.36566 L78.6789139,358.853247 L78.6789139,358.853247 C79.3123429,357.948348 80.5594038,357.728279 81.4643024,358.361708 C81.6555851,358.495606 81.8219437,358.661964 81.9558416,358.853247 Z" id="arrow-head" fill="#545E6F"></path>
                <text id="New-State" font-family="TTNorms-Bold, TT Norms" font-size="18" font-weight="bold" fill="#545E6F">
                    <tspan x="612.79" y="480">New State</tspan>
                </text>
                <g id="Group" transform="translate(466.000000, 464.000000)">
                    <g id="Oval">
                        <use fill="#8E7CB9" fill-rule="evenodd" xlink:href="#path-1"></use>
                        <circle stroke="#FFFFFF" stroke-width="18" cx="60" cy="60" r="69"></circle>
                    </g>
                    <text id="STATE" font-family="TTNorms-Bold, TT Norms" font-size="18" font-weight="bold" letter-spacing="0.600000024" fill="#FFFFFF">
                        <tspan x="31" y="66">STATE</tspan>
                    </text>
                </g>
                <path d="M612.894584,515.914504 L623.053273,530.426917 L623.053273,530.426917 C623.686702,531.331816 623.466633,532.578877 622.561734,533.212306 C622.225567,533.447622 621.825154,533.573842 621.414809,533.573842 L601.097432,533.573842 L601.097432,533.573842 C599.992862,533.573842 599.097432,532.678411 599.097432,531.573842 C599.097432,531.163497 599.223651,530.763084 599.458968,530.426917 L609.617657,515.914504 L609.617657,515.914504 C610.251086,515.009606 611.498147,514.789536 612.403045,515.422965 C612.594328,515.556863 612.760686,515.723222 612.894584,515.914504 Z" id="arrow-head" fill="#545E6F" transform="translate(611.256292, 524.317549) rotate(-90.000000) translate(-611.256292, -524.317549) "></path>
                <rect id="Rectangle-3" stroke="#545E6F" stroke-width="4" stroke-linecap="round" x="80" y="114" width="660" height="410" rx="20"></rect>
                <rect id="Rectangle-6" fill="#FFFFFF" x="27" y="353" width="781" height="236"></rect>
                <text id="Sent-to" font-family="TTNorms-Bold, TT Norms" font-size="18" font-weight="bold" fill="#545E6F">
                    <tspan x="639.7" y="171">Sent to</tspan>
                </text>
                <g id="Group-2" transform="translate(680.000000, 259.000000)">
                    <g id="Oval">
                        <use fill="#F9BE65" fill-rule="evenodd" xlink:href="#path-2"></use>
                        <circle stroke="#FFFFFF" stroke-width="18" cx="60" cy="60" r="69"></circle>
                    </g>
                    <text id="REDUCER" font-family="TTNorms-Bold, TT Norms" font-size="18" font-weight="bold" letter-spacing="0.600000024" fill="#FFFFFF">
                        <tspan x="13" y="65">REDUCE</tspan>
                        <tspan x="94.6300001" y="65">R</tspan>
                    </text>
                </g>
                <path d="M742.955842,225.853247 L753.11453,240.36566 L753.11453,240.36566 C753.747959,241.270558 753.52789,242.517619 752.622991,243.151048 C752.286824,243.386365 751.886411,243.512584 751.476067,243.512584 L731.158689,243.512584 L731.158689,243.512584 C730.054119,243.512584 729.158689,242.617154 729.158689,241.512584 C729.158689,241.10224 729.284908,240.701827 729.520225,240.36566 L739.678914,225.853247 L739.678914,225.853247 C740.312343,224.948348 741.559404,224.728279 742.464302,225.361708 C742.655585,225.495606 742.821944,225.661964 742.955842,225.853247 Z" id="arrow-head" fill="#545E6F" transform="translate(741.317549, 234.256292) rotate(-180.000000) translate(-741.317549, -234.256292) "></path>
                <rect id="Rectangle-6" fill="#FFFFFF" x="599" y="0" width="220" height="599"></rect>
                <rect id="Rectangle-5" stroke="#4FB688" stroke-width="4" stroke-linecap="round" stroke-dasharray="10,14" x="303" y="26" width="597" height="588" rx="15"></rect>
                <path d="M121.62,158.4 L126.3,158.4 C129.99,158.4 132.78,161.19 132.78,164.7 C132.78,168.21 129.99,171 126.3,171 L121.62,171 L121.62,158.4 Z M126.3,160.83 L124.32,160.83 L124.32,168.57 L126.3,168.57 C128.37,168.57 130.08,166.86 130.08,164.7 C130.08,162.54 128.46,160.83 126.3,160.83 Z M137.28,162.18 L134.85,162.18 L134.85,171 L137.28,171 L137.28,162.18 Z M137.46,159.66 C137.46,158.85 136.92,158.31 136.02,158.31 C135.21,158.31 134.67,158.85 134.67,159.66 C134.67,160.47 135.21,161.01 136.02,161.01 C136.92,161.01 137.46,160.47 137.46,159.66 Z M145.83,163.35 C145.83,163.35 144.84,162 142.77,162 C140.79,162 139.35,163.44 139.35,164.79 C139.35,167.706 143.4,167.04 143.4,168.39 C143.4,168.84 143.04,169.2 142.23,169.2 C141.06,169.2 140.34,168.21 140.34,168.21 L138.99,169.56 C138.99,169.56 140.07,171.18 142.59,171.18 C144.84,171.18 146.1,169.92 146.1,168.39 C146.1,165.42 142.05,166.05 142.05,164.79 C142.05,164.43 142.41,164.07 143.13,164.07 C144.03,164.07 144.57,164.79 144.57,164.79 L145.83,163.35 Z M152.94,171.18 C151.23,171.18 150.33,169.92 150.33,169.92 L150.33,174.78 L147.9,174.78 L147.9,162.18 L150.33,162.18 L150.33,163.26 C150.33,163.26 151.23,162 152.94,162 C155.19,162 157.17,163.98 157.17,166.59 C157.17,169.2 155.19,171.18 152.94,171.18 Z M152.49,164.16 C151.32,164.16 150.33,165.15 150.33,166.59 C150.33,168.03 151.32,169.02 152.49,169.02 C153.66,169.02 154.65,168.03 154.65,166.59 C154.65,165.15 153.66,164.16 152.49,164.16 Z M163.83,171 L163.83,170.1 C163.83,170.1 162.93,171.18 161.4,171.18 C159.6,171.18 158.43,170.01 158.43,168.66 C158.43,167.22 159.42,166.212 161.04,165.924 L163.83,165.42 C163.83,164.7 163.29,164.16 162.3,164.16 C160.95,164.16 160.32,165.06 160.32,165.06 L158.97,163.71 C158.97,163.71 160.14,162 162.48,162 C164.73,162 166.26,163.53 166.26,165.51 L166.26,171 L163.83,171 Z M162.03,169.2 C163.11,169.2 163.83,168.48 163.83,167.22 L163.83,166.95 L161.85,167.31 C161.22,167.418 160.86,167.76 160.86,168.3 C160.86,168.84 161.22,169.2 162.03,169.2 Z M169.68,161.19 C169.68,161.91 169.23,162.36 168.69,162.36 L167.88,162.36 L167.88,164.52 L169.41,164.52 L169.41,168.12 C169.41,170.19 170.4,171.18 172.2,171.18 C173.1,171.18 173.82,170.91 173.82,170.91 L173.82,168.84 C173.82,168.84 173.46,169.02 172.92,169.02 C172.29,169.02 171.84,168.57 171.84,168.03 L171.84,164.52 L173.64,164.52 L173.64,162.36 L171.84,162.36 L171.84,159.57 L169.68,159.57 L169.68,161.19 Z M174.99,166.59 C174.99,169.02 177.15,171.18 179.76,171.18 C182.19,171.18 183.36,169.38 183.36,169.38 L181.92,167.85 C181.92,167.85 181.11,169.02 179.76,169.02 C178.5,169.02 177.42,167.94 177.42,166.59 C177.42,165.24 178.5,164.16 179.76,164.16 C181.11,164.16 181.83,165.33 181.83,165.33 L183.36,163.8 C183.36,163.8 182.19,162 179.76,162 C177.15,162 174.99,164.16 174.99,166.59 Z M187.5,158.4 L185.07,158.4 L185.07,171 L187.5,171 L187.5,166.41 C187.5,165.06 188.22,164.34 189.3,164.34 C190.29,164.34 191.01,165.06 191.01,166.14 L191.01,171 L193.44,171 L193.44,165.87 C193.44,163.44 192,162 190.02,162 C188.4,162 187.5,163.26 187.5,163.26 L187.5,158.4 Z" id="Dispatch" fill="#545E6F"></path>
                <g id="Group-3" transform="translate(0.000000, 293.000000)">
                    <g id="Rectangle">
                        <use fill="#6DB0DC" fill-rule="evenodd" xlink:href="#path-3"></use>
                        <rect stroke="#FFFFFF" stroke-width="18" x="-9" y="-9" width="178" height="68" rx="5"></rect>
                    </g>
                    <text id="COMPONENT" font-family="TTNorms-Bold, TT Norms" font-size="18" font-weight="bold" letter-spacing="0.600000024" fill="#FFFFFF">
                        <tspan x="15" y="31">COMPONENT</tspan>
                    </text>
                </g>
                <g id="Group-2" transform="translate(466.000000, 56.000000)">
                    <g id="Oval">
                        <use fill="#DF7575" fill-rule="evenodd" xlink:href="#path-4"></use>
                        <circle stroke="#FFFFFF" stroke-width="18" cx="60" cy="60" r="69"></circle>
                    </g>
                    <text id="ACTION" font-family="TTNorms-Bold, TT Norms" font-size="18" font-weight="bold" letter-spacing="0.600000024" fill="#FFFFFF">
                        <tspan x="22" y="65">ACTIO</tspan>
                        <tspan x="83.0500001" y="65">N</tspan>
                    </text>
                </g>
                <path d="M442.894584,105.914504 L453.053273,120.426917 L453.053273,120.426917 C453.686702,121.331816 453.466633,122.578877 452.561734,123.212306 C452.225567,123.447622 451.825154,123.573842 451.414809,123.573842 L431.097432,123.573842 L431.097432,123.573842 C429.992862,123.573842 429.097432,122.678411 429.097432,121.573842 C429.097432,121.163497 429.223651,120.763084 429.458968,120.426917 L439.617657,105.914504 L439.617657,105.914504 C440.251086,105.009606 441.498147,104.789536 442.403045,105.422965 C442.594328,105.556863 442.760686,105.723222 442.894584,105.914504 Z" id="arrow-head" fill="#545E6F" transform="translate(441.256292, 114.317549) rotate(-270.000000) translate(-441.256292, -114.317549) "></path>
            </g>
            <text id="STORE" font-family="TTNorms-Bold, TT Norms" font-size="26" font-weight="bold" fill="#4FB688">
                <tspan x="520" y="370">STORE</tspan>
            </text>
        </g>
    </g>
</svg>