<?xml version="1.0" encoding="UTF-8"?>
<svg width="1280px" height="720px" viewBox="0 0 1280 720" version="1.1" xmlns="http://www.w3.org/2000/svg" xmlns:xlink="http://www.w3.org/1999/xlink" style="background: #FFFFFF;">
    <!-- Generator: Sketch 47.1 (45422) - http://www.bohemiancoding.com/sketch -->
    <title>1.2 ngrx-diagrams</title>
    <desc>Created with Sketch.</desc>
    <defs>
        <circle id="path-1" cx="60" cy="60" r="60"></circle>
        <circle id="path-2" cx="60" cy="60" r="60"></circle>
        <rect id="path-3" x="0" y="0" width="160" height="50" rx="5"></rect>
        <circle id="path-4" cx="60" cy="60" r="60"></circle>
    </defs>
    <g id="Page-1" stroke="none" stroke-width="1" fill="none" fill-rule="evenodd">
        <g id="1.2-ngrx-diagrams">
            <g id="diagram" transform="translate(170.000000, 66.000000)">
                <text id="Render" font-family="TTNorms-Bold, TT Norms" font-size="18" font-weight="bold" fill="#545E6F">
                    <tspan x="120" y="454">Render</tspan>
                </text>
                <path d="M81.9558416,332.853247 L92.1145305,347.36566 L92.1145305,347.36566 C92.7479595,348.270558 92.5278899,349.517619 91.6229913,350.151048 C91.2868242,350.386365 90.8864108,350.512584 90.4760666,350.512584 L70.1586889,350.512584 L70.1586889,350.512584 C69.0541194,350.512584 68.1586889,349.617154 68.1586889,348.512584 C68.1586889,348.10224 68.2849081,347.701827 68.520225,347.36566 L78.6789139,332.853247 L78.6789139,332.853247 C79.3123429,331.948348 80.5594038,331.728279 81.4643024,332.361708 C81.6555851,332.495606 81.8219437,332.661964 81.9558416,332.853247 Z" id="arrow-head" fill="#545E6F"></path>
                <text id="New-State" font-family="TTNorms-Bold, TT Norms" font-size="18" font-weight="bold" fill="#545E6F">
                    <tspan x="612.79" y="454">New State</tspan>
                </text>
                <g id="Group" transform="translate(466.000000, 438.000000)">
                    <g id="Oval">
                        <use fill="#8E7CB9" fill-rule="evenodd" xlink:href="#path-1"></use>
                        <circle stroke="#FFFFFF" stroke-width="18" cx="60" cy="60" r="69"></circle>
                    </g>
                    <text id="STATE" font-family="TTNorms-Bold, TT Norms" font-size="18" font-weight="bold" letter-spacing="0.600000024" fill="#FFFFFF">
                        <tspan x="31" y="66">STATE</tspan>
                    </text>
                </g>
                <path d="M612.894584,489.914504 L623.053273,504.426917 L623.053273,504.426917 C623.686702,505.331816 623.466633,506.578877 622.561734,507.212306 C622.225567,507.447622 621.825154,507.573842 621.414809,507.573842 L601.097432,507.573842 L601.097432,507.573842 C599.992862,507.573842 599.097432,506.678411 599.097432,505.573842 C599.097432,505.163497 599.223651,504.763084 599.458968,504.426917 L609.617657,489.914504 L609.617657,489.914504 C610.251086,489.009606 611.498147,488.789536 612.403045,489.422965 C612.594328,489.556863 612.760686,489.723222 612.894584,489.914504 Z" id="arrow-head" fill="#545E6F" transform="translate(611.256292, 498.317549) rotate(-90.000000) translate(-611.256292, -498.317549) "></path>
                <rect id="Rectangle-3" stroke="#545E6F" stroke-width="4" stroke-linecap="round" x="80" y="88" width="660" height="410" rx="20"></rect>
                <rect id="Rectangle-6" fill="#FFFFFF" x="27" y="327" width="781" height="236"></rect>
                <text id="Sent-to" font-family="TTNorms-Bold, TT Norms" font-size="18" font-weight="bold" fill="#545E6F">
                    <tspan x="639.7" y="145">Sent to</tspan>
                </text>
                <g id="Group-2" transform="translate(680.000000, 233.000000)">
                    <g id="Oval">
                        <use fill="#F9BE65" fill-rule="evenodd" xlink:href="#path-2"></use>
                        <circle stroke="#FFFFFF" stroke-width="18" cx="60" cy="60" r="69"></circle>
                    </g>
                    <text id="REDUCER" font-family="TTNorms-Bold, TT Norms" font-size="18" font-weight="bold" letter-spacing="0.600000024" fill="#FFFFFF">
                        <tspan x="13" y="65">REDUCE</tspan>
                        <tspan x="94.6300001" y="65">R</tspan>
                    </text>
                </g>
                <path d="M742.955842,199.853247 L753.11453,214.36566 L753.11453,214.36566 C753.747959,215.270558 753.52789,216.517619 752.622991,217.151048 C752.286824,217.386365 751.886411,217.512584 751.476067,217.512584 L731.158689,217.512584 L731.158689,217.512584 C730.054119,217.512584 729.158689,216.617154 729.158689,215.512584 C729.158689,215.10224 729.284908,214.701827 729.520225,214.36566 L739.678914,199.853247 L739.678914,199.853247 C740.312343,198.948348 741.559404,198.728279 742.464302,199.361708 C742.655585,199.495606 742.821944,199.661964 742.955842,199.853247 Z" id="arrow-head" fill="#545E6F" transform="translate(741.317549, 208.256292) rotate(-180.000000) translate(-741.317549, -208.256292) "></path>
                <rect id="Rectangle-6" fill="#FFFFFF" x="599" y="367" width="220" height="206"></rect>
                <rect id="Rectangle-5" stroke="#4FB688" stroke-width="4" stroke-linecap="round" stroke-dasharray="10,14" x="303" y="0" width="597" height="588" rx="15"></rect>
                <text id="Dispatch" font-family="TTNorms-Bold, TT Norms" font-size="18" font-weight="bold" fill="#545E6F">
                    <tspan x="120" y="145">Dispatch</tspan>
                </text>
                <g id="Group-3" transform="translate(0.000000, 267.000000)">
                    <g id="Rectangle">
                        <use fill="#6DB0DC" fill-rule="evenodd" xlink:href="#path-3"></use>
                        <rect stroke="#FFFFFF" stroke-width="18" x="-9" y="-9" width="178" height="68" rx="5"></rect>
                    </g>
                    <text id="COMPONENT" font-family="TTNorms-Bold, TT Norms" font-size="18" font-weight="bold" letter-spacing="0.600000024" fill="#FFFFFF">
                        <tspan x="15" y="31">COMPONENT</tspan>
                    </text>
                </g>
                <g id="Group-2" transform="translate(466.000000, 30.000000)">
                    <g id="Oval">
                        <use fill="#DF7575" fill-rule="evenodd" xlink:href="#path-4"></use>
                        <circle stroke="#FFFFFF" stroke-width="18" cx="60" cy="60" r="69"></circle>
                    </g>
                    <text id="ACTION" font-family="TTNorms-Bold, TT Norms" font-size="18" font-weight="bold" letter-spacing="0.600000024" fill="#FFFFFF">
                        <tspan x="22" y="65">ACTIO</tspan>
                        <tspan x="83.0500001" y="65">N</tspan>
                    </text>
                </g>
                <path d="M442.894584,79.9145043 L453.053273,94.426917 L453.053273,94.426917 C453.686702,95.3318156 453.466633,96.5788765 452.561734,97.2123055 C452.225567,97.4476225 451.825154,97.5738417 451.414809,97.5738417 L431.097432,97.5738417 L431.097432,97.5738417 C429.992862,97.5738417 429.097432,96.6784112 429.097432,95.5738417 C429.097432,95.1634975 429.223651,94.7630841 429.458968,94.426917 L439.617657,79.9145043 L439.617657,79.9145043 C440.251086,79.0096057 441.498147,78.7895361 442.403045,79.4229652 C442.594328,79.556863 442.760686,79.7232217 442.894584,79.9145043 Z" id="arrow-head" fill="#545E6F" transform="translate(441.256292, 88.317549) rotate(-270.000000) translate(-441.256292, -88.317549) "></path>
            </g>
            <text id="STORE" font-family="TTNorms-Bold, TT Norms" font-size="26" font-weight="bold" fill="#4FB688">
                <tspan x="520" y="370">STORE</tspan>
            </text>
        </g>
    </g>
</svg>