<?xml version="1.0" encoding="UTF-8"?>
<svg width="1280px" height="720px" viewBox="0 0 1280 720" version="1.1" xmlns="http://www.w3.org/2000/svg" xmlns:xlink="http://www.w3.org/1999/xlink" style="background: #FFFFFF;">
    <!-- Generator: Sketch 47.1 (45422) - http://www.bohemiancoding.com/sketch -->
    <title>1.4 ngrx-diagrams</title>
    <desc>Created with Sketch.</desc>
    <defs>
        <circle id="path-1" cx="60" cy="60" r="60"></circle>
        <circle id="path-2" cx="60" cy="60" r="60"></circle>
        <rect id="path-3" x="0" y="0" width="160" height="50" rx="5"></rect>
        <circle id="path-4" cx="60" cy="60" r="60"></circle>
    </defs>
    <g id="Page-1" stroke="none" stroke-width="1" fill="none" fill-rule="evenodd">
        <g id="1.4-ngrx-diagrams">
            <g id="diagram" transform="translate(135.000000, 66.000000)">
                <text id="Render" font-family="TTNorms-Bold, TT Norms" font-size="18" font-weight="bold" fill="#545E6F">
                    <tspan x="155" y="454">Render</tspan>
                </text>
                <text id="New-State" font-family="TTNorms-Bold, TT Norms" font-size="18" font-weight="bold" fill="#545E6F">
                    <tspan x="647.79" y="454">New State</tspan>
                </text>
                <rect id="Rectangle-3" stroke="#545E6F" stroke-width="4" stroke-linecap="round" x="115" y="88" width="660" height="410" rx="20"></rect>
                <rect id="Rectangle-6" fill="#FFFFFF" transform="translate(31.000000, 445.000000) scale(-1, 1) translate(-31.000000, -445.000000) " x="0" y="327" width="62" height="236"></rect>
                <g id="Group" transform="translate(501.000000, 438.000000)">
                    <g id="Oval">
                        <use fill="#8E7CB9" fill-rule="evenodd" xlink:href="#path-1"></use>
                        <circle stroke="#FFFFFF" stroke-width="18" cx="60" cy="60" r="69"></circle>
                    </g>
                    <text id="STATE" font-family="TTNorms-Bold, TT Norms" font-size="18" font-weight="bold" letter-spacing="0.600000024" fill="#FFFFFF">
                        <tspan x="31" y="66">STATE</tspan>
                    </text>
                </g>
                <text id="Sent-to" font-family="TTNorms-Bold, TT Norms" font-size="18" font-weight="bold" fill="#545E6F">
                    <tspan x="674.7" y="145">Sent to</tspan>
                </text>
                <g id="Group-2" transform="translate(715.000000, 233.000000)">
                    <g id="Oval">
                        <use fill="#F9BE65" fill-rule="evenodd" xlink:href="#path-2"></use>
                        <circle stroke="#FFFFFF" stroke-width="18" cx="60" cy="60" r="69"></circle>
                    </g>
                    <text id="REDUCER" font-family="TTNorms-Bold, TT Norms" font-size="18" font-weight="bold" letter-spacing="0.600000024" fill="#FFFFFF">
                        <tspan x="13" y="65">REDUCE</tspan>
                        <tspan x="94.6300001" y="65">R</tspan>
                    </text>
                </g>
                <path d="M647.894584,489.914504 L658.053273,504.426917 L658.053273,504.426917 C658.686702,505.331816 658.466633,506.578877 657.561734,507.212306 C657.225567,507.447622 656.825154,507.573842 656.414809,507.573842 L636.097432,507.573842 L636.097432,507.573842 C634.992862,507.573842 634.097432,506.678411 634.097432,505.573842 C634.097432,505.163497 634.223651,504.763084 634.458968,504.426917 L644.617657,489.914504 L644.617657,489.914504 C645.251086,489.009606 646.498147,488.789536 647.403045,489.422965 C647.594328,489.556863 647.760686,489.723222 647.894584,489.914504 Z" id="arrow-head" fill="#545E6F" transform="translate(646.256292, 498.317549) rotate(-90.000000) translate(-646.256292, -498.317549) "></path>
                <path d="M777.955842,199.853247 L788.11453,214.36566 L788.11453,214.36566 C788.747959,215.270558 788.52789,216.517619 787.622991,217.151048 C787.286824,217.386365 786.886411,217.512584 786.476067,217.512584 L766.158689,217.512584 L766.158689,217.512584 C765.054119,217.512584 764.158689,216.617154 764.158689,215.512584 C764.158689,215.10224 764.284908,214.701827 764.520225,214.36566 L774.678914,199.853247 L774.678914,199.853247 C775.312343,198.948348 776.559404,198.728279 777.464302,199.361708 C777.655585,199.495606 777.821944,199.661964 777.955842,199.853247 Z" id="arrow-head" fill="#545E6F" transform="translate(776.317549, 208.256292) rotate(-180.000000) translate(-776.317549, -208.256292) "></path>
                <rect id="Rectangle-5" stroke="#4FB688" stroke-width="4" stroke-linecap="round" stroke-dasharray="10,14" x="338" y="0" width="597" height="588" rx="15"></rect>
                <path d="M156.62,132.4 L161.3,132.4 C164.99,132.4 167.78,135.19 167.78,138.7 C167.78,142.21 164.99,145 161.3,145 L156.62,145 L156.62,132.4 Z M161.3,134.83 L159.32,134.83 L159.32,142.57 L161.3,142.57 C163.37,142.57 165.08,140.86 165.08,138.7 C165.08,136.54 163.46,134.83 161.3,134.83 Z M172.28,136.18 L169.85,136.18 L169.85,145 L172.28,145 L172.28,136.18 Z M172.46,133.66 C172.46,132.85 171.92,132.31 171.02,132.31 C170.21,132.31 169.67,132.85 169.67,133.66 C169.67,134.47 170.21,135.01 171.02,135.01 C171.92,135.01 172.46,134.47 172.46,133.66 Z M180.83,137.35 C180.83,137.35 179.84,136 177.77,136 C175.79,136 174.35,137.44 174.35,138.79 C174.35,141.706 178.4,141.04 178.4,142.39 C178.4,142.84 178.04,143.2 177.23,143.2 C176.06,143.2 175.34,142.21 175.34,142.21 L173.99,143.56 C173.99,143.56 175.07,145.18 177.59,145.18 C179.84,145.18 181.1,143.92 181.1,142.39 C181.1,139.42 177.05,140.05 177.05,138.79 C177.05,138.43 177.41,138.07 178.13,138.07 C179.03,138.07 179.57,138.79 179.57,138.79 L180.83,137.35 Z M187.94,145.18 C186.23,145.18 185.33,143.92 185.33,143.92 L185.33,148.78 L182.9,148.78 L182.9,136.18 L185.33,136.18 L185.33,137.26 C185.33,137.26 186.23,136 187.94,136 C190.19,136 192.17,137.98 192.17,140.59 C192.17,143.2 190.19,145.18 187.94,145.18 Z M187.49,138.16 C186.32,138.16 185.33,139.15 185.33,140.59 C185.33,142.03 186.32,143.02 187.49,143.02 C188.66,143.02 189.65,142.03 189.65,140.59 C189.65,139.15 188.66,138.16 187.49,138.16 Z M198.83,145 L198.83,144.1 C198.83,144.1 197.93,145.18 196.4,145.18 C194.6,145.18 193.43,144.01 193.43,142.66 C193.43,141.22 194.42,140.212 196.04,139.924 L198.83,139.42 C198.83,138.7 198.29,138.16 197.3,138.16 C195.95,138.16 195.32,139.06 195.32,139.06 L193.97,137.71 C193.97,137.71 195.14,136 197.48,136 C199.73,136 201.26,137.53 201.26,139.51 L201.26,145 L198.83,145 Z M197.03,143.2 C198.11,143.2 198.83,142.48 198.83,141.22 L198.83,140.95 L196.85,141.31 C196.22,141.418 195.86,141.76 195.86,142.3 C195.86,142.84 196.22,143.2 197.03,143.2 Z M204.68,135.19 C204.68,135.91 204.23,136.36 203.69,136.36 L202.88,136.36 L202.88,138.52 L204.41,138.52 L204.41,142.12 C204.41,144.19 205.4,145.18 207.2,145.18 C208.1,145.18 208.82,144.91 208.82,144.91 L208.82,142.84 C208.82,142.84 208.46,143.02 207.92,143.02 C207.29,143.02 206.84,142.57 206.84,142.03 L206.84,138.52 L208.64,138.52 L208.64,136.36 L206.84,136.36 L206.84,133.57 L204.68,133.57 L204.68,135.19 Z M209.99,140.59 C209.99,143.02 212.15,145.18 214.76,145.18 C217.19,145.18 218.36,143.38 218.36,143.38 L216.92,141.85 C216.92,141.85 216.11,143.02 214.76,143.02 C213.5,143.02 212.42,141.94 212.42,140.59 C212.42,139.24 213.5,138.16 214.76,138.16 C216.11,138.16 216.83,139.33 216.83,139.33 L218.36,137.8 C218.36,137.8 217.19,136 214.76,136 C212.15,136 209.99,138.16 209.99,140.59 Z M222.5,132.4 L220.07,132.4 L220.07,145 L222.5,145 L222.5,140.41 C222.5,139.06 223.22,138.34 224.3,138.34 C225.29,138.34 226.01,139.06 226.01,140.14 L226.01,145 L228.44,145 L228.44,139.87 C228.44,137.44 227,136 225.02,136 C223.4,136 222.5,137.26 222.5,137.26 L222.5,132.4 Z" id="Dispatch" fill="#545E6F"></path>
                <g id="Group-3" transform="translate(35.000000, 267.000000)">
                    <g id="Rectangle">
                        <use fill="#6DB0DC" fill-rule="evenodd" xlink:href="#path-3"></use>
                        <rect stroke="#FFFFFF" stroke-width="18" x="-9" y="-9" width="178" height="68" rx="5"></rect>
                    </g>
                    <text id="COMPONENT" font-family="TTNorms-Bold, TT Norms" font-size="18" font-weight="bold" letter-spacing="0.600000024" fill="#FFFFFF">
                        <tspan x="15" y="31">COMPONENT</tspan>
                    </text>
                </g>
                <g id="Group-2" transform="translate(501.000000, 30.000000)">
                    <g id="Oval">
                        <use fill="#DF7575" fill-rule="evenodd" xlink:href="#path-4"></use>
                        <circle stroke="#FFFFFF" stroke-width="18" cx="60" cy="60" r="69"></circle>
                    </g>
                    <text id="ACTION" font-family="TTNorms-Bold, TT Norms" font-size="18" font-weight="bold" letter-spacing="0.600000024" fill="#FFFFFF">
                        <tspan x="22" y="65">ACTIO</tspan>
                        <tspan x="83.0500001" y="65">N</tspan>
                    </text>
                </g>
                <path d="M477.894584,79.9145043 L488.053273,94.426917 L488.053273,94.426917 C488.686702,95.3318156 488.466633,96.5788765 487.561734,97.2123055 C487.225567,97.4476225 486.825154,97.5738417 486.414809,97.5738417 L466.097432,97.5738417 L466.097432,97.5738417 C464.992862,97.5738417 464.097432,96.6784112 464.097432,95.5738417 C464.097432,95.1634975 464.223651,94.7630841 464.458968,94.426917 L474.617657,79.9145043 L474.617657,79.9145043 C475.251086,79.0096057 476.498147,78.7895361 477.403045,79.4229652 C477.594328,79.556863 477.760686,79.7232217 477.894584,79.9145043 Z" id="arrow-head" fill="#545E6F" transform="translate(476.256292, 88.317549) rotate(-270.000000) translate(-476.256292, -88.317549) "></path>
                <path d="M116.955842,332.853247 L127.11453,347.36566 L127.11453,347.36566 C127.747959,348.270558 127.52789,349.517619 126.622991,350.151048 C126.286824,350.386365 125.886411,350.512584 125.476067,350.512584 L105.158689,350.512584 L105.158689,350.512584 C104.054119,350.512584 103.158689,349.617154 103.158689,348.512584 C103.158689,348.10224 103.284908,347.701827 103.520225,347.36566 L113.678914,332.853247 L113.678914,332.853247 C114.312343,331.948348 115.559404,331.728279 116.464302,332.361708 C116.655585,332.495606 116.821944,332.661964 116.955842,332.853247 Z" id="arrow-head" fill="#545E6F"></path>
            </g>
            <text id="STORE" font-family="TTNorms-Bold, TT Norms" font-size="26" font-weight="bold" fill="#4FB688">
                <tspan x="520" y="370">STORE</tspan>
            </text>
        </g>
    </g>
</svg>