<?xml version="1.0" encoding="utf-8"?>
<!-- Generator: Adobe Illustrator 21.0.1, SVG Export Plug-In . SVG Version: 6.00 Build 0)  -->
<svg version="1.1" id="Layer_1" xmlns="http://www.w3.org/2000/svg" xmlns:xlink="http://www.w3.org/1999/xlink" x="0px" y="0px"
	 viewBox="0 0 156.8 50" style="enable-background:new 0 0 156.8 50;" xml:space="preserve">
<style type="text/css">
	.st0{opacity:0.84;fill:#FFFFFF;}
	.st1{fill:#F3F2F4;}
	.st2{fill:#FFFFFF;}
</style>
<path class="st0" d="M23.6,0L0.4,8.3L4,38.9l19.6,10.9l19.7-10.9l3.5-30.6L23.6,0z M34.5,33.7l-2.1-5.6l-3.2,0.1v0
	c-0.7,1.2-1.4,2.1-2.1,2.9c-0.9,1-1.8,1.6-3,2.1c-1.3,0.6-2.4,0.9-4.3,0.9c-1.9,0-3.5-0.6-4.5-1.2c-1-0.6-1.9-1.3-2.6-2.3
	c-0.5-0.7-0.9-1.3-1.2-2c-0.1-0.4-0.4-1.1-0.4-1.2c-0.2-0.8-0.4-1.3-0.4-3.2V14h2.7v10.2c0.1,0.7,0.3,2.1,0.4,2.7
	c0.1,0.4,0.1,0.5,0.3,1s0.4,0.9,0.8,1.3c0.5,0.6,1,1.1,1.7,1.5c0.7,0.4,1.8,0.9,3.2,0.9c2.3,0,3.9-1.1,5.3-2.3
	c0.6-0.6,1.3-1.8,1.9-2.9c0.1-0.3,0.4-0.9,0.4-0.9h4.2l-3.1-8.3l-5,9.6h-2.7V13.9h2.7v7l3.6-7h3l7.3,19.8H34.5z"/>
<path class="st1" d="M27,26.4c0.1-0.3,0.4-0.9,0.4-0.9h4.2l-3.1-8.3l-4.9,9.4v3.8c0.5-0.3,1-0.7,1.5-1.1
	C25.7,28.7,26.4,27.5,27,26.4z"/>
<path class="st1" d="M23.6,0v20.7l3.5-6.8h3l7.3,19.8h-2.9l-2.1-5.6l-3.2,0.1v0c-0.7,1.2-1.4,2.1-2.1,2.9c-0.9,1-1.8,1.6-3,2.1
	c-0.2,0.1-0.3,0.2-0.5,0.2v16.4l19.7-10.9l3.5-30.6L23.6,0z"/>
<path class="st2" d="M57,15.1c0,1.5,1.3,2.4,2.9,2.4c1.8,0,3.2-1.1,3.5-2.9l1-5.2H63l-1,5c-0.3,1.1-1,1.7-2.1,1.7
	c-1,0-1.5-0.4-1.5-1.3v-0.4l1-5H58l-1,5.2V15.1z M64.7,17.4h4.9l0.3-1.3h-3.5l1.3-6.7h-1.4L64.7,17.4z M72.4,17.4h1.4l1.3-6.7h2.7
	L78,9.4h-6.6L71,10.6h2.5L72.4,17.4z M77.5,17.4h1.4l1.5-8H79L77.5,17.4z M80.7,17.4h1.4l1.3-4.5c0.1-0.6,0.3-1.3,0.3-1.3
	s0.1,0.8,0.1,1.3l0.7,3.1h1.3l1.8-3.1c0.3-0.4,0.7-1.3,0.7-1.3s-0.1,0.7-0.3,1.3l-0.6,4.5h1.4l0.8-8h-1.5l-2.4,3.9
	c-0.3,0.4-0.6,1.1-0.6,1.1s0-0.7-0.1-1.1l-0.8-3.9h-1.5C82.6,9.4,80.7,17.4,80.7,17.4z M91.3,17.4l1.1-2.1h2.8l0.3,2.1h1.4l-1.3-8
	H94l-4.2,8H91.3z M93,14.1l1.1-2.1c0.3-0.4,0.6-1.3,0.6-1.3s0,0.8,0.1,1.3l0.3,2.1H93z M99.4,17.4h1.4l1.3-6.7h2.7l0.3-1.3h-6.6
	l-0.3,1.3h2.5C100.7,10.6,99.4,17.4,99.4,17.4z M104.5,17.4h4.9l0.3-1.3h-3.5l0.4-2.1h2.7l0.3-1.3h-2.7l0.4-2.1h3.4l0.3-1.3H106
	C106,9.4,104.5,17.4,104.5,17.4z"/>
<path class="st2" d="M63.5,36.9h2.7l-5-14.2h-2.7l-5,14.2h2.7l1.2-3.6h5C62.4,33.3,63.5,36.9,63.5,36.9z M59.8,25.2
	c0,0,0.3,1.4,0.6,2.2l1.3,3.8H58l1.3-3.8C59.5,26.6,59.8,25.2,59.8,25.2z M68,36.9h2.6v-8.2c0-0.8-0.1-2.2-0.1-2.2s0.6,1.4,1.2,2.2
	l5.4,8.2h2.6V22.7H77v8.2c0,0.8,0.1,2.2,0.1,2.2s-0.6-1.4-1.2-2.2l-5.4-8.2H68V36.9z M82.2,29.8c0,4.5,3.2,7.4,7,7.4
	c2.6,0,4.1-1.5,4.1-1.5V37h2.2v-7.5H91v2.2h2.2v1.7c0,0-1.4,1.5-3.6,1.5c-2.7,0-4.8-2-4.8-5.1c0-2.7,1.7-4.9,4.9-4.9
	c2.3,0,3.8,1.4,3.8,1.4l1.3-1.9c0,0-1.8-1.8-5.3-1.8C85.3,22.5,82.2,25.7,82.2,29.8z M98.2,31.8c0,3.2,2.3,5.3,5.7,5.3
	c3.4,0,5.7-2.2,5.7-5.3v-9.1H107v9.1c0,1.9-1.3,3-3.2,3c-1.9,0-3.1-1.1-3.1-3v-9.1h-2.6L98.2,31.8C98.1,31.8,98.2,31.8,98.2,31.8z
	 M113,36.9h8.7v-2.2h-6.1v-12H113V36.9z M132.1,36.9h2.7l-5-14.2H127l-5,14.2h2.7l1.2-3.6h5L132.1,36.9L132.1,36.9z M128.4,25.2
	c0,0,0.3,1.4,0.6,2.2l1.3,3.8h-3.7l1.3-3.8C128.1,26.6,128.4,25.2,128.4,25.2L128.4,25.2z M136.6,36.9h2.6v-5.3h2.5l2.8,5.3h2.9
	l-2.9-5.3c-0.3-0.5-0.5-0.7-0.5-0.7c1.5-0.6,2.4-2.2,2.4-3.9c0-1.9-0.9-3.2-2.3-3.9c-0.6-0.3-1.3-0.4-2.9-0.4h-4.6V36.9z
	 M139.1,29.4V25h2c2,0,2.6,0.8,2.6,2.2c0,1.4-0.9,2.2-2.2,2.2H139.1L139.1,29.4z"/>
<g>
	<path class="st2" d="M148.8,23.3v-0.6h3v0.6h-1.1v2.9h-0.7v-2.9H148.8L148.8,23.3z M153.3,22.7l0.9,2.5l0.9-2.5h1v3.5h-0.6v-2.8
		l-1,2.8H154l-1-2.8v2.8h-0.6v-3.5H153.3z"/>
</g>
</svg>
