<?xml version="1.0" encoding="UTF-8"?>
<svg width="1280px" height="720px" viewBox="0 0 1280 720" version="1.1" xmlns="http://www.w3.org/2000/svg" xmlns:xlink="http://www.w3.org/1999/xlink" style="background: #FFFFFF;">
    <!-- Generator: Sketch 47.1 (45422) - http://www.bohemiancoding.com/sketch -->
    <title>0</title>
    <desc>Created with Sketch.</desc>
    <defs></defs>
    <g id="Page-1" stroke="none" stroke-width="1" fill="none" fill-rule="evenodd">
        <g id="0">
            <g id="Group" transform="translate(125.000000, 220.000000)">
                <rect id="Rectangle-7" fill="#F4F6F8" x="0" y="24" width="1030" height="256" rx="15"></rect>
                <path d="M15,0 L1015,0 L1015,1.77635684e-15 C1023.28427,5.91178485e-14 1030,6.71572875 1030,15 L1030,58 L0,58 L0,15 L-1.77635684e-15,15 C-2.79088747e-15,6.71572875 6.71572875,-2.54560899e-16 15,-1.77635684e-15 Z" id="Rectangle" fill="#8E7CB9"></path>
                <path d="M434.16,38 L437.76,38 L437.76,21.2 L434.16,21.2 L434.16,38 Z M453.48,21.2 L453.48,31.88 L445.2,21.2 L442.08,21.2 L442.08,38 L445.68,38 L445.68,27.32 L453.96,38 L457.08,38 L457.08,21.2 L453.48,21.2 Z M461.4,38 L465,38 L465,21.2 L461.4,21.2 L461.4,38 Z M467.64,21.2 L467.64,24.44 L472.44,24.44 L472.44,38 L476.04,38 L476.04,24.44 L480.84,24.44 L480.84,21.2 L467.64,21.2 Z M483.48,38 L487.08,38 L487.08,21.2 L483.48,21.2 L483.48,38 Z M500.04,30.92 L498,25.4 L495.96,30.92 L500.04,30.92 Z M501.24,34.04 L494.76,34.04 L493.32,38 L489.48,38 L496.08,21.2 L499.92,21.2 L506.52,38 L502.68,38 L501.24,34.04 Z M520.32,38 L520.32,34.76 L512.52,34.76 L512.52,21.2 L508.92,21.2 L508.92,38 L520.32,38 Z M535.32,33.08 C535.32,34.28 534.36,35.24 532.56,35.24 C530.04,35.24 528.6,33.44 528.6,33.44 L526.44,35.6 C526.44,35.6 528.6,38.36 532.8,38.36 C536.88,38.36 539.16,36.08 539.16,33.08 C539.16,27.08 530.88,28.88 530.88,25.76 C530.88,24.8 531.72,23.96 533.16,23.96 C535.08,23.96 536.28,25.4 536.28,25.4 L538.44,23.12 C538.44,23.12 536.64,20.84 532.92,20.84 C529.32,20.84 527.04,23.12 527.04,25.76 C527.04,31.76 535.32,29.96 535.32,33.08 Z M540.24,21.2 L553.44,21.2 L553.44,24.44 L548.64,24.44 L548.64,38 L545.04,38 L545.04,24.44 L540.24,24.44 L540.24,21.2 Z M563.28,30.92 L561.24,25.4 L559.2,30.92 L563.28,30.92 Z M564.48,34.04 L558,34.04 L556.56,38 L552.72,38 L559.32,21.2 L563.16,21.2 L569.76,38 L565.92,38 L564.48,34.04 Z M569.04,21.2 L582.24,21.2 L582.24,24.44 L577.44,24.44 L577.44,38 L573.84,38 L573.84,24.44 L569.04,24.44 L569.04,21.2 Z M588.48,34.76 L588.48,31.04 L595.32,31.04 L595.32,27.8 L588.48,27.8 L588.48,24.44 L597.24,24.44 L597.24,21.2 L584.88,21.2 L584.88,38 L597.48,38 L597.48,34.76 L588.48,34.76 Z" id="INITIAL-STATE" fill="#FFFFFF"></path>
            </g>
            <path d="M208.44,344.04 C208.44,344.04 208.439999,344.040001 208.439998,344.040004 L208.44,344.04 Z M208.44,344.04 L210.52,346.12 C210.52,346.12 208.12,349.32 204.12,349.32 C199.8,349.32 196.12,345.64 196.12,341.32 C196.12,337 199.8,333.32 204.12,333.32 C208.12,333.32 210.36,336.36 210.36,336.36 L208.28,338.44 C208.28,338.44 206.84,336.2 204.12,336.2 C201.56,336.2 199.32,338.44 199.32,341.32 C199.32,344.2 201.56,346.44 204.12,346.44 C206.838071,346.44 208.43773,344.043403 208.439998,344.040004 L208.44,344.04 Z M225.56,341.32 C225.56,338.44 223.32,336.2 220.76,336.2 C218.2,336.2 215.96,338.44 215.96,341.32 C215.96,344.2 218.2,346.44 220.76,346.44 C223.32,346.44 225.56,344.2 225.56,341.32 Z M212.76,341.32 C212.76,337 216.44,333.32 220.76,333.32 C225.08,333.32 228.76,337 228.76,341.32 C228.76,345.64 225.08,349.32 220.76,349.32 C216.44,349.32 212.76,345.64 212.76,341.32 Z M235.48,333.64 L232.28,333.64 L232.28,349 L235.48,349 L235.48,340.68 C235.48,337.8 237.08,336.2 239.48,336.2 C241.56,336.2 243.16,337.8 243.16,340.04 L243.16,349 L246.36,349 L246.36,340.04 C246.36,335.88 243.8,333.32 240.12,333.32 C237.24,333.32 235.48,335.24 235.48,335.24 L235.48,333.64 Z M260.6,335.4 C260.6,335.4 259,333.32 255.64,333.32 C252.44,333.32 250.2,335.56 250.2,337.8 C250.2,343.24 258.04,341.64 258.04,344.52 C258.04,345.64 257.24,346.44 255.48,346.44 C253.08,346.44 251.64,344.52 251.64,344.52 L249.56,346.6 C249.56,346.6 251.48,349.32 255.48,349.32 C259,349.32 261.24,347.08 261.24,344.52 C261.24,339.08 253.4,340.68 253.4,337.8 C253.4,337 254.2,336.2 255.64,336.2 C257.4,336.2 258.52,337.48 258.52,337.48 L260.6,335.4 Z M266.68,331.72 C266.68,333 266.04,333.64 265.08,333.64 L263.48,333.64 L263.48,336.52 L266.36,336.52 L266.36,344.52 C266.36,347.72 267.96,349.32 270.84,349.32 C272.12,349.32 273.08,349 273.08,349 L273.08,346.12 C273.08,346.12 272.28,346.44 271.48,346.44 C270.36,346.44 269.56,345.64 269.56,344.488 L269.56,336.52 L272.76,336.52 L272.76,333.64 L269.56,333.64 L269.56,328.52 L266.68,328.52 L266.68,331.72 Z M293.08,335.4 C293.08,335.4 291.48,333.32 288.12,333.32 C284.92,333.32 282.68,335.56 282.68,337.8 C282.68,343.24 290.52,341.64 290.52,344.52 C290.52,345.64 289.72,346.44 287.96,346.44 C285.56,346.44 284.12,344.52 284.12,344.52 L282.04,346.6 C282.04,346.6 283.96,349.32 287.96,349.32 C291.48,349.32 293.72,347.08 293.72,344.52 C293.72,339.08 285.88,340.68 285.88,337.8 C285.88,337 286.68,336.2 288.12,336.2 C289.88,336.2 291,337.48 291,337.48 L293.08,335.4 Z M299.16,331.72 C299.16,333 298.52,333.64 297.56,333.64 L295.96,333.64 L295.96,336.52 L298.84,336.52 L298.84,344.52 C298.84,347.72 300.44,349.32 303.32,349.32 C304.6,349.32 305.56,349 305.56,349 L305.56,346.12 C305.56,346.12 304.76,346.44 303.96,346.44 C302.84,346.44 302.04,345.64 302.04,344.488 L302.04,336.52 L305.24,336.52 L305.24,333.64 L302.04,333.64 L302.04,328.52 L299.16,328.52 L299.16,331.72 Z M321.72,349 L318.52,349 L318.52,347.4 C318.52,347.4 316.76,349.32 313.88,349.32 C310.68,349.32 308.44,347.08 308.44,344.84 C308.44,342.28 310.2,340.52 312.92,340.04 L318.52,339.08 C318.52,337.48 317.24,336.2 315.32,336.2 C312.6,336.2 311.32,338.28 311.32,338.28 L309.24,336.2 C309.24,336.2 311.32,333.32 315.32,333.32 C319.16,333.32 321.72,335.88 321.72,339.08 L321.72,349 Z M314.36,346.44 C316.92,346.44 318.52,344.84 318.52,341.96 L318.52,341.64 L313.56,342.44 C312.44,342.632 311.64,343.4 311.64,344.52 C311.64,345.48 312.6,346.44 314.36,346.44 Z M328.12,331.72 C328.12,333 327.48,333.64 326.52,333.64 L324.92,333.64 L324.92,336.52 L327.8,336.52 L327.8,344.52 C327.8,347.72 329.4,349.32 332.28,349.32 C333.56,349.32 334.52,349 334.52,349 L334.52,346.12 C334.52,346.12 333.72,346.44 332.92,346.44 C331.8,346.44 331,345.64 331,344.488 L331,336.52 L334.2,336.52 L334.2,333.64 L331,333.64 L331,328.52 L328.12,328.52 L328.12,331.72 Z M351.96,342.44 L339.96,342.44 C340.28,344.52 342.2,346.44 344.76,346.44 C347.8,346.44 349.4,344.04 349.4,344.04 L351.48,346.12 C351.48,346.12 349.08,349.32 344.76,349.32 C340.44,349.32 336.76,345.64 336.76,341.16 C336.76,336.84 340.28,333.32 344.6,333.32 C348.92,333.32 352.12,336.52 352.12,340.84 C352.12,341.8 351.96,342.44 351.96,342.44 Z M344.6,336.04 C342.2,336.04 340.6,337.64 340.088,339.72 L348.984,339.72 C348.6,337.64 347,336.04 344.6,336.04 Z M374.36,341 L361.24,341 L361.24,343.88 L374.36,343.88 L374.36,341 Z M374.36,335.24 L361.24,335.24 L361.24,338.12 L374.36,338.12 L374.36,335.24 Z M383.96,342.28 C385.24,342.28 385.88,342.92 385.88,344.2 L385.88,351.08 C385.88,353.96 387.64,355.72 390.84,355.72 L392.6,355.72 L392.6,353.16 L390.84,353.16 C389.56,353.16 388.76,352.36 388.76,351.08 L388.76,344.2 C388.76,341.32 387,341 387.032,341 C387,341 388.76,340.68 388.76,337.8 L388.76,330.92 C388.76,329.64 389.56,328.84 390.84,328.84 L392.6,328.84 L392.6,326.28 L390.84,326.28 C387.64,326.28 385.88,328.04 385.88,330.92 L385.88,337.8 C385.88,339.08 385.24,339.72 383.96,339.72 L383.96,342.28 Z M224.6,373.72 C224.6,375 223.96,375.64 223,375.64 L221.4,375.64 L221.4,378.52 L224.28,378.52 L224.28,386.52 C224.28,389.72 225.88,391.32 228.76,391.32 C230.04,391.32 231,391 231,391 L231,388.12 C231,388.12 230.2,388.44 229.4,388.44 C228.28,388.44 227.48,387.64 227.48,386.488 L227.48,378.52 L230.68,378.52 L230.68,375.64 L227.48,375.64 L227.48,370.52 L224.6,370.52 L224.6,373.72 Z M246.04,383.32 C246.04,380.44 243.8,378.2 241.24,378.2 C238.68,378.2 236.44,380.44 236.44,383.32 C236.44,386.2 238.68,388.44 241.24,388.44 C243.8,388.44 246.04,386.2 246.04,383.32 Z M233.24,383.32 C233.24,379 236.92,375.32 241.24,375.32 C245.56,375.32 249.24,379 249.24,383.32 C249.24,387.64 245.56,391.32 241.24,391.32 C236.92,391.32 233.24,387.64 233.24,383.32 Z M259.32,375.32 C262.36,375.32 264.28,377.4 264.28,377.4 L264.28,368.6 L267.48,368.6 L267.48,391 L264.28,391 L264.28,389.24 C264.28,389.24 262.36,391.32 259.32,391.32 C255.32,391.32 251.8,387.8 251.8,383.32 C251.8,378.84 255.32,375.32 259.32,375.32 Z M259.64,388.44 C262.04,388.44 264.28,386.2 264.28,383.32 C264.28,380.44 262.04,378.2 259.64,378.2 C257.24,378.2 255,380.44 255,383.32 C255,386.2 257.24,388.44 259.64,388.44 Z M284.12,383.32 C284.12,380.44 281.88,378.2 279.32,378.2 C276.76,378.2 274.52,380.44 274.52,383.32 C274.52,386.2 276.76,388.44 279.32,388.44 C281.88,388.44 284.12,386.2 284.12,383.32 Z M271.32,383.32 C271.32,379 275,375.32 279.32,375.32 C283.64,375.32 287.32,379 287.32,383.32 C287.32,387.64 283.64,391.32 279.32,391.32 C275,391.32 271.32,387.64 271.32,383.32 Z M300.6,377.4 C300.6,377.4 299,375.32 295.64,375.32 C292.44,375.32 290.2,377.56 290.2,379.8 C290.2,385.24 298.04,383.64 298.04,386.52 C298.04,387.64 297.24,388.44 295.48,388.44 C293.08,388.44 291.64,386.52 291.64,386.52 L289.56,388.6 C289.56,388.6 291.48,391.32 295.48,391.32 C299,391.32 301.24,389.08 301.24,386.52 C301.24,381.08 293.4,382.68 293.4,379.8 C293.4,379 294.2,378.2 295.64,378.2 C297.4,378.2 298.52,379.48 298.52,379.48 L300.6,377.4 Z M304.28,389.24 C304.28,390.36 305.24,391.32 306.36,391.32 C307.48,391.32 308.44,390.36 308.44,389.24 C308.44,388.12 307.48,387.16 306.36,387.16 C305.24,387.16 304.28,388.12 304.28,389.24 Z M304.28,377.4 C304.28,378.52 305.24,379.48 306.36,379.48 C307.48,379.48 308.44,378.52 308.44,377.4 C308.44,376.28 307.48,375.32 306.36,375.32 C305.24,375.32 304.28,376.28 304.28,377.4 Z M321.88,370.84 L326.04,370.84 L326.04,368.28 L319,368.28 L319,397.72 L326.04,397.72 L326.04,395.16 L321.88,395.16 L321.88,370.84 Z M338.52,395.16 L334.36,395.16 L334.36,397.72 L341.4,397.72 L341.4,368.28 L334.36,368.28 L334.36,370.84 L338.52,370.84 L338.52,395.16 Z M204.6,423.72 C203.32,423.72 202.68,423.08 202.68,421.8 L202.68,414.92 C202.68,412.04 200.92,410.28 197.72,410.28 L195.96,410.28 L195.96,412.84 L197.72,412.84 C199,412.84 199.8,413.64 199.8,414.92 L199.8,421.8 C199.8,424.68 201.56,425 201.528,425 C201.56,425 199.8,425.32 199.8,428.2 L199.8,435.08 C199.8,436.36 199,437.16 197.72,437.16 L195.96,437.16 L195.96,439.72 L197.72,439.72 C200.92,439.72 202.68,437.96 202.68,435.08 L202.68,428.2 C202.68,426.92 203.32,426.28 204.6,426.28 L204.6,423.72 Z M209.72,429.16 L206.52,436.04 L208.6,437.16 L212.6,430.76 L209.72,429.16 Z M208.6,419.4 C208.6,420.52 209.56,421.48 210.68,421.48 C211.8,421.48 212.76,420.52 212.76,419.4 C212.76,418.28 211.8,417.32 210.68,417.32 C209.56,417.32 208.6,418.28 208.6,419.4 Z" id="const-state-=-{-todo" fill="#545E6F"></path>
        </g>
    </g>
</svg>