<?xml version="1.0" encoding="UTF-8"?>
<svg width="1280px" height="720px" viewBox="0 0 1280 720" version="1.1" xmlns="http://www.w3.org/2000/svg" xmlns:xlink="http://www.w3.org/1999/xlink" style="background: #FFFFFF;">
    <!-- Generator: Sketch 47.1 (45422) - http://www.bohemiancoding.com/sketch -->
    <title>1</title>
    <desc>Created with Sketch.</desc>
    <defs></defs>
    <g id="Page-1" stroke="none" stroke-width="1" fill="none" fill-rule="evenodd">
        <g id="1">
            <g id="Group" transform="translate(125.000000, 120.000000)">
                <rect id="Rectangle-7" fill="#F4F6F8" x="0" y="24" width="1030" height="456" rx="15"></rect>
                <path d="M15,0 L1015,0 L1015,1.77635684e-15 C1023.28427,5.91178485e-14 1030,6.71572875 1030,15 L1030,58 L0,58 L0,15 L-1.77635684e-15,15 C-2.79088747e-15,6.71572875 6.71572875,-2.54560899e-16 15,-1.77635684e-15 Z" id="Rectangle" fill="#DF7575"></path>
            </g>
            <path d="M196.12,265.32 C196.12,269.64 199.8,273.32 204.12,273.32 C208.12,273.32 210.52,270.12 210.52,270.12 L208.44,268.04 C208.44,268.04 206.84,270.44 204.12,270.44 C201.56,270.44 199.32,268.2 199.32,265.32 C199.32,262.44 201.56,260.2 204.12,260.2 C206.84,260.2 208.28,262.44 208.28,262.44 L210.36,260.36 C210.36,260.36 208.12,257.32 204.12,257.32 C199.8,257.32 196.12,261 196.12,265.32 Z M225.56,265.32 C225.56,262.44 223.32,260.2 220.76,260.2 C218.2,260.2 215.96,262.44 215.96,265.32 C215.96,268.2 218.2,270.44 220.76,270.44 C223.32,270.44 225.56,268.2 225.56,265.32 Z M212.76,265.32 C212.76,261 216.44,257.32 220.76,257.32 C225.08,257.32 228.76,261 228.76,265.32 C228.76,269.64 225.08,273.32 220.76,273.32 C216.44,273.32 212.76,269.64 212.76,265.32 Z M235.48,257.64 L232.28,257.64 L232.28,273 L235.48,273 L235.48,264.68 C235.48,261.8 237.08,260.2 239.48,260.2 C241.56,260.2 243.16,261.8 243.16,264.04 L243.16,273 L246.36,273 L246.36,264.04 C246.36,259.88 243.8,257.32 240.12,257.32 C237.24,257.32 235.48,259.24 235.48,259.24 L235.48,257.64 Z M260.6,259.4 C260.6,259.4 259,257.32 255.64,257.32 C252.44,257.32 250.2,259.56 250.2,261.8 C250.2,267.24 258.04,265.64 258.04,268.52 C258.04,269.64 257.24,270.44 255.48,270.44 C253.08,270.44 251.64,268.52 251.64,268.52 L249.56,270.6 C249.56,270.6 251.48,273.32 255.48,273.32 C259,273.32 261.24,271.08 261.24,268.52 C261.24,263.08 253.4,264.68 253.4,261.8 C253.4,261 254.2,260.2 255.64,260.2 C257.4,260.2 258.52,261.48 258.52,261.48 L260.6,259.4 Z M266.68,255.72 C266.68,257 266.04,257.64 265.08,257.64 L263.48,257.64 L263.48,260.52 L266.36,260.52 L266.36,268.52 C266.36,271.72 267.96,273.32 270.84,273.32 C272.12,273.32 273.08,273 273.08,273 L273.08,270.12 C273.08,270.12 272.28,270.44 271.48,270.44 C270.36,270.44 269.56,269.64 269.56,268.488 L269.56,260.52 L272.76,260.52 L272.76,257.64 L269.56,257.64 L269.56,252.52 L266.68,252.52 L266.68,255.72 Z M295.64,273 L292.44,273 L292.44,271.4 C292.44,271.4 290.68,273.32 287.8,273.32 C284.6,273.32 282.36,271.08 282.36,268.84 C282.36,266.28 284.12,264.52 286.84,264.04 L292.44,263.08 C292.44,261.48 291.16,260.2 289.24,260.2 C286.52,260.2 285.24,262.28 285.24,262.28 L283.16,260.2 C283.16,260.2 285.24,257.32 289.24,257.32 C293.08,257.32 295.64,259.88 295.64,263.08 L295.64,273 Z M288.28,270.44 C290.84,270.44 292.44,268.84 292.44,265.96 L292.44,265.64 L287.48,266.44 C286.36,266.632 285.56,267.4 285.56,268.52 C285.56,269.48 286.52,270.44 288.28,270.44 Z M299.16,265.32 C299.16,269.64 302.84,273.32 307.16,273.32 C311.16,273.32 313.56,270.12 313.56,270.12 L311.48,268.04 C311.48,268.04 309.88,270.44 307.16,270.44 C304.6,270.44 302.36,268.2 302.36,265.32 C302.36,262.44 304.6,260.2 307.16,260.2 C309.88,260.2 311.32,262.44 311.32,262.44 L313.4,260.36 C313.4,260.36 311.16,257.32 307.16,257.32 C302.84,257.32 299.16,261 299.16,265.32 Z M318.68,255.72 C318.68,257 318.04,257.64 317.08,257.64 L315.48,257.64 L315.48,260.52 L318.36,260.52 L318.36,268.52 C318.36,271.72 319.96,273.32 322.84,273.32 C324.12,273.32 325.08,273 325.08,273 L325.08,270.12 C325.08,270.12 324.28,270.44 323.48,270.44 C322.36,270.44 321.56,269.64 321.56,268.488 L321.56,260.52 L324.76,260.52 L324.76,257.64 L321.56,257.64 L321.56,252.52 L318.68,252.52 L318.68,255.72 Z M332.28,257.64 L329.08,257.64 L329.08,273 L332.28,273 L332.28,257.64 Z M332.6,252.84 C332.6,251.72 331.8,250.92 330.68,250.92 C329.56,250.92 328.76,251.72 328.76,252.84 C328.76,253.96 329.56,254.76 330.68,254.76 C331.8,254.76 332.6,253.96 332.6,252.84 Z M348.76,265.32 C348.76,262.44 346.52,260.2 343.96,260.2 C341.4,260.2 339.16,262.44 339.16,265.32 C339.16,268.2 341.4,270.44 343.96,270.44 C346.52,270.44 348.76,268.2 348.76,265.32 Z M335.96,265.32 C335.96,261 339.64,257.32 343.96,257.32 C348.28,257.32 351.96,261 351.96,265.32 C351.96,269.64 348.28,273.32 343.96,273.32 C339.64,273.32 335.96,269.64 335.96,265.32 Z M358.68,257.64 L355.48,257.64 L355.48,273 L358.68,273 L358.68,264.68 C358.68,261.8 360.28,260.2 362.68,260.2 C364.76,260.2 366.36,261.8 366.36,264.04 L366.36,273 L369.56,273 L369.56,264.04 C369.56,259.88 367,257.32 363.32,257.32 C360.44,257.32 358.68,259.24 358.68,259.24 L358.68,257.64 Z M392.76,265 L379.64,265 L379.64,267.88 L392.76,267.88 L392.76,265 Z M392.76,259.24 L379.64,259.24 L379.64,262.12 L392.76,262.12 L392.76,259.24 Z M402.36,266.28 C403.64,266.28 404.28,266.92 404.28,268.2 L404.28,275.08 C404.28,277.96 406.04,279.72 409.24,279.72 L411,279.72 L411,277.16 L409.24,277.16 C407.96,277.16 407.16,276.36 407.16,275.08 L407.16,268.2 C407.16,265.32 405.4,265 405.432,265 C405.4,265 407.16,264.68 407.16,261.8 L407.16,254.92 C407.16,253.64 407.96,252.84 409.24,252.84 L411,252.84 L411,250.28 L409.24,250.28 C406.04,250.28 404.28,252.04 404.28,254.92 L404.28,261.8 C404.28,263.08 403.64,263.72 402.36,263.72 L402.36,266.28 Z M225.08,297.56 C225.08,298.84 224.28,299.64 223.32,299.64 L221.88,299.64 L221.88,303.48 L224.6,303.48 L224.6,309.88 C224.6,313.56 226.36,315.32 229.56,315.32 C231.16,315.32 232.44,314.84 232.44,314.84 L232.44,311.16 C232.44,311.16 231.8,311.48 230.84,311.48 C229.72,311.48 228.92,310.68 228.92,309.72 L228.92,303.48 L232.12,303.48 L232.12,299.64 L228.92,299.64 L228.92,294.68 L225.08,294.68 L225.08,297.56 Z M239.8,315.96 C239.384,316.92 238.52,317.72 237.08,317.72 C236.12,317.72 235.48,317.4 235.48,317.4 L235.48,321.24 C235.48,321.24 236.6,321.72 238.2,321.72 C240.92,321.72 242.84,319.8 244.28,315.96 L250.52,299.32 L246.04,299.32 L242.36,309.72 L238.68,299.32 L234.2,299.32 L240.28,314.84 L239.8,315.96 Z M261.72,315.32 C258.68,315.32 257.08,313.08 257.08,313.08 L257.08,321.72 L252.76,321.72 L252.76,299.32 L257.08,299.32 L257.08,301.24 C257.08,301.24 258.68,299 261.72,299 C265.72,299 269.24,302.52 269.24,307.16 C269.24,311.8 265.72,315.32 261.72,315.32 Z M260.92,302.84 C258.84,302.84 257.08,304.6 257.08,307.16 C257.08,309.72 258.84,311.48 260.92,311.48 C263,311.48 264.76,309.72 264.76,307.16 C264.76,304.6 263,302.84 260.92,302.84 Z M287.32,308.6 L275.96,308.6 C276.28,310.2 277.72,311.64 280.12,311.64 C282.84,311.64 284.28,309.72 284.28,309.72 L286.52,312.6 C286.52,312.6 284.12,315.32 279.8,315.32 C275.16,315.32 271.48,311.64 271.48,307.16 C271.48,302.68 275.16,299 279.64,299 C284.12,299 287.48,302.36 287.48,306.84 C287.48,307.96 287.32,308.6 287.32,308.6 Z M279.64,302.68 C277.72,302.68 276.44,303.96 275.96,305.56 L283.16,305.56 C282.84,303.96 281.56,302.68 279.64,302.68 Z M290.2,312.92 C290.2,314.2 291.32,315.32 292.76,315.32 C294.2,315.32 295.32,314.2 295.32,312.92 C295.32,311.64 294.2,310.52 292.76,310.52 C291.32,310.52 290.2,311.64 290.2,312.92 Z M290.2,301.4 C290.2,302.68 291.32,303.8 292.76,303.8 C294.2,303.8 295.32,302.68 295.32,301.4 C295.32,300.12 294.2,299 292.76,299 C291.32,299 290.2,300.12 290.2,301.4 Z M308.92,292.6 L305.08,292.6 L305.08,299.96 L308.92,299.96 L308.92,292.6 Z M323.8,305.56 L321.08,298.2 L318.36,305.56 L323.8,305.56 Z M325.4,309.72 L316.76,309.72 L314.84,315 L309.72,315 L318.52,292.6 L323.64,292.6 L332.44,315 L327.32,315 L325.4,309.72 Z M335.64,292.6 L343.96,292.6 C350.52,292.6 355.48,297.56 355.48,303.8 C355.48,310.04 350.52,315 343.96,315 L335.64,315 L335.64,292.6 Z M343.96,296.92 L340.44,296.92 L340.44,310.68 L343.96,310.68 C347.64,310.68 350.68,307.64 350.68,303.8 C350.68,299.96 347.8,296.92 343.96,296.92 Z M359.96,292.6 L368.28,292.6 C374.84,292.6 379.8,297.56 379.8,303.8 C379.8,310.04 374.84,315 368.28,315 L359.96,315 L359.96,292.6 Z M368.28,296.92 L364.76,296.92 L364.76,310.68 L368.28,310.68 C371.96,310.68 375,307.64 375,303.8 C375,299.96 372.12,296.92 368.28,296.92 Z M392.76,317.72 L381.08,317.72 L381.08,321.72 L392.76,321.72 L392.76,317.72 Z M393.08,292.6 L393.08,296.92 L399.48,296.92 L399.48,315 L404.28,315 L404.28,296.92 L410.68,296.92 L410.68,292.6 L393.08,292.6 Z M416.6,303.8 C416.6,307.96 419.8,311.16 423.8,311.16 C427.8,311.16 431,307.96 431,303.8 C431,299.64 427.8,296.44 423.8,296.44 C419.8,296.44 416.6,299.64 416.6,303.8 Z M411.64,303.8 C411.64,297.4 416.92,292.12 423.8,292.12 C430.68,292.12 435.96,297.4 435.96,303.8 C435.96,310.2 430.68,315.48 423.8,315.48 C416.92,315.48 411.64,310.2 411.64,303.8 Z M440.44,292.6 L448.76,292.6 C455.32,292.6 460.28,297.56 460.28,303.8 C460.28,310.04 455.32,315 448.76,315 L440.44,315 L440.44,292.6 Z M448.76,296.92 L445.24,296.92 L445.24,310.68 L448.76,310.68 C452.44,310.68 455.48,307.64 455.48,303.8 C455.48,299.96 452.6,296.92 448.76,296.92 Z M468.44,303.8 C468.44,307.96 471.64,311.16 475.64,311.16 C479.64,311.16 482.84,307.96 482.84,303.8 C482.84,299.64 479.64,296.44 475.64,296.44 C471.64,296.44 468.44,299.64 468.44,303.8 Z M463.48,303.8 C463.48,297.4 468.76,292.12 475.64,292.12 C482.52,292.12 487.8,297.4 487.8,303.8 C487.8,310.2 482.52,315.48 475.64,315.48 C468.76,315.48 463.48,310.2 463.48,303.8 Z M495,292.6 L491.16,292.6 L491.16,299.96 L495,299.96 L495,292.6 Z M500.12,310.36 L496.6,317.72 L499.48,319.16 L503.64,312.44 L500.12,310.36 Z M232.12,357.32 C229.08,357.32 227.48,355.08 227.48,355.08 L227.48,363.72 L223.16,363.72 L223.16,341.32 L227.48,341.32 L227.48,343.24 C227.48,343.24 229.08,341 232.12,341 C236.12,341 239.64,344.52 239.64,349.16 C239.64,353.8 236.12,357.32 232.12,357.32 Z M231.32,344.84 C229.24,344.84 227.48,346.6 227.48,349.16 C227.48,351.72 229.24,353.48 231.32,353.48 C233.4,353.48 235.16,351.72 235.16,349.16 C235.16,346.6 233.4,344.84 231.32,344.84 Z M245.24,346.44 C245.24,346.44 245.240001,346.439999 245.240003,346.439996 L245.24,346.44 Z M245.24,346.44 L242.84,344.04 C242.84,344.04 244.92,341 249.08,341 C253.08,341 255.8,343.72 255.8,347.24 L255.8,357 L251.48,357 L251.48,355.4 C251.48,355.4 249.88,357.32 247.16,357.32 C243.96,357.32 241.88,355.24 241.88,352.84 C241.88,350.28 243.64,348.488 246.52,347.976 L251.48,347.08 C251.48,345.8 250.52,344.84 248.76,344.84 C246.362143,344.84 245.242001,346.437144 245.240003,346.439996 L245.24,346.44 Z M248.28,353.8 C250.2,353.8 251.48,352.52 251.48,350.28 L251.48,349.8 L247.96,350.44 C246.84,350.632 246.2,351.24 246.2,352.2 C246.2,353.16 246.84,353.8 248.28,353.8 Z M263.64,357.96 C263.224,358.92 262.36,359.72 260.92,359.72 C259.96,359.72 259.32,359.4 259.32,359.4 L259.32,363.24 C259.32,363.24 260.44,363.72 262.04,363.72 C264.76,363.72 266.68,361.8 268.12,357.96 L274.36,341.32 L269.88,341.32 L266.2,351.72 L262.52,341.32 L258.04,341.32 L264.12,356.84 L263.64,357.96 Z M281.08,334.6 L276.76,334.6 L276.76,357 L281.08,357 L281.08,334.6 Z M288.92,349.16 C288.92,351.56 290.68,353.32 292.76,353.32 C294.84,353.32 296.6,351.56 296.6,349.16 C296.6,346.76 294.84,345 292.76,345 C290.68,345 288.92,346.76 288.92,349.16 Z M301.08,349.16 C301.08,353.48 297.24,357.32 292.76,357.32 C288.28,357.32 284.44,353.48 284.44,349.16 C284.44,344.84 288.28,341 292.76,341 C297.24,341 301.08,344.84 301.08,349.16 Z M312.92,357 L312.92,355.4 C312.92,355.4 311.32,357.32 308.6,357.32 C305.4,357.32 303.32,355.24 303.32,352.84 C303.32,350.28 305.08,348.488 307.96,347.976 L312.92,347.08 C312.92,345.8 311.96,344.84 310.2,344.84 C307.8,344.84 306.68,346.44 306.68,346.44 L304.28,344.04 C304.28,344.04 306.36,341 310.52,341 C314.52,341 317.24,343.72 317.24,347.24 L317.24,357 L312.92,357 Z M309.72,353.8 C311.64,353.8 312.92,352.52 312.92,350.28 L312.92,349.8 L309.4,350.44 C308.28,350.632 307.64,351.24 307.64,352.2 C307.64,353.16 308.28,353.8 309.72,353.8 Z M327.96,341 C331,341 332.6,343.24 332.6,343.24 L332.6,334.6 L336.92,334.6 L336.92,357 L332.6,357 L332.6,355.08 C332.6,355.08 331,357.32 327.96,357.32 C323.96,357.32 320.44,353.8 320.44,349.16 C320.44,344.52 323.96,341 327.96,341 Z M328.76,353.48 C330.84,353.48 332.6,351.72 332.6,349.16 C332.6,346.6 330.84,344.84 328.76,344.84 C326.68,344.84 324.92,346.6 324.92,349.16 C324.92,351.72 326.68,353.48 328.76,353.48 Z M340.76,354.92 C340.76,356.2 341.88,357.32 343.32,357.32 C344.76,357.32 345.88,356.2 345.88,354.92 C345.88,353.64 344.76,352.52 343.32,352.52 C341.88,352.52 340.76,353.64 340.76,354.92 Z M340.76,343.4 C340.76,344.68 341.88,345.8 343.32,345.8 C344.76,345.8 345.88,344.68 345.88,343.4 C345.88,342.12 344.76,341 343.32,341 C341.88,341 340.76,342.12 340.76,343.4 Z M355.64,350.76 C356.92,350.76 357.72,351.56 357.72,352.84 L357.72,358.28 C357.72,361.8 359.64,363.72 363,363.72 L365.4,363.72 L365.4,359.88 L363.8,359.88 C362.68,359.88 361.88,359.08 361.88,357.896 L361.88,352.68 C361.88,349.48 359.8,349 359.8,349 C359.8,349 361.88,348.52 361.88,345.32 L361.88,340.136 C361.88,338.92 362.68,338.12 363.8,338.12 L365.4,338.12 L365.4,334.28 L363,334.28 C359.64,334.28 357.72,336.2 357.72,339.72 L357.72,345.16 C357.72,346.44 356.92,347.24 355.64,347.24 L355.64,350.76 Z M253.88,376.6 L249.56,376.6 L249.56,399 L253.88,399 L253.88,376.6 Z M266.84,399 L266.84,397.4 C266.84,397.4 265.24,399.32 262.52,399.32 C259.32,399.32 257.24,397.24 257.24,394.84 C257.24,392.28 259,390.488 261.88,389.976 L266.84,389.08 C266.84,387.8 265.88,386.84 264.12,386.84 C261.72,386.84 260.6,388.44 260.6,388.44 L258.2,386.04 C258.2,386.04 260.28,383 264.44,383 C268.44,383 271.16,385.72 271.16,389.24 L271.16,399 L266.84,399 Z M263.64,395.8 C265.56,395.8 266.84,394.52 266.84,392.28 L266.84,391.8 L263.32,392.44 C262.2,392.632 261.56,393.24 261.56,394.2 C261.56,395.16 262.2,395.8 263.64,395.8 Z M284.44,383 C288.44,383 291.96,386.52 291.96,391.16 C291.96,395.8 288.44,399.32 284.44,399.32 C281.4,399.32 279.8,397.08 279.8,397.08 L279.8,399 L275.48,399 L275.48,376.6 L279.8,376.6 L279.8,385.24 C279.8,385.24 281.4,383 284.44,383 Z M283.64,395.48 C285.72,395.48 287.48,393.72 287.48,391.16 C287.48,388.6 285.72,386.84 283.64,386.84 C281.56,386.84 279.8,388.6 279.8,391.16 C279.8,393.72 281.56,395.48 283.64,395.48 Z M310.04,392.6 L298.68,392.6 C299,394.2 300.44,395.64 302.84,395.64 C305.56,395.64 307,393.72 307,393.72 L309.24,396.6 C309.24,396.6 306.84,399.32 302.52,399.32 C297.88,399.32 294.2,395.64 294.2,391.16 C294.2,386.68 297.88,383 302.36,383 C306.84,383 310.2,386.36 310.2,390.84 C310.2,391.96 310.04,392.6 310.04,392.6 Z M302.36,386.68 C300.44,386.68 299.16,387.96 298.68,389.56 L305.88,389.56 C305.56,387.96 304.28,386.68 302.36,386.68 Z M317.88,376.6 L313.56,376.6 L313.56,399 L317.88,399 L317.88,376.6 Z M321.72,396.92 C321.72,398.2 322.84,399.32 324.28,399.32 C325.72,399.32 326.84,398.2 326.84,396.92 C326.84,395.64 325.72,394.52 324.28,394.52 C322.84,394.52 321.72,395.64 321.72,396.92 Z M321.72,385.4 C321.72,386.68 322.84,387.8 324.28,387.8 C325.72,387.8 326.84,386.68 326.84,385.4 C326.84,384.12 325.72,383 324.28,383 C322.84,383 321.72,384.12 321.72,385.4 Z M340.44,376.6 L336.6,376.6 L336.6,383.96 L340.44,383.96 L340.44,376.6 Z M349.88,394.68 L349.88,389.72 L359,389.72 L359,385.4 L349.88,385.4 L349.88,380.92 L361.56,380.92 L361.56,376.6 L345.08,376.6 L345.08,399 L361.88,399 L361.88,394.68 L349.88,394.68 Z M374.04,399 L374.04,397.4 C374.04,397.4 372.44,399.32 369.72,399.32 C366.52,399.32 364.44,397.24 364.44,394.84 C364.44,392.28 366.2,390.488 369.08,389.976 L374.04,389.08 C374.04,387.8 373.08,386.84 371.32,386.84 C368.92,386.84 367.8,388.44 367.8,388.44 L365.4,386.04 C365.4,386.04 367.48,383 371.64,383 C375.64,383 378.36,385.72 378.36,389.24 L378.36,399 L374.04,399 Z M370.84,395.8 C372.76,395.8 374.04,394.52 374.04,392.28 L374.04,391.8 L370.52,392.44 C369.4,392.632 368.76,393.24 368.76,394.2 C368.76,395.16 369.4,395.8 370.84,395.8 Z M384.44,381.56 C384.44,382.84 383.64,383.64 382.68,383.64 L381.24,383.64 L381.24,387.48 L383.96,387.48 L383.96,393.88 C383.96,397.56 385.72,399.32 388.92,399.32 C390.52,399.32 391.8,398.84 391.8,398.84 L391.8,395.16 C391.8,395.16 391.16,395.48 390.2,395.48 C389.08,395.48 388.28,394.68 388.28,393.72 L388.28,387.48 L391.48,387.48 L391.48,383.64 L388.28,383.64 L388.28,378.68 L384.44,378.68 L384.44,381.56 Z M411,399.32 C407.96,399.32 406.36,397.08 406.36,397.08 L406.36,405.72 L402.04,405.72 L402.04,383.32 L406.36,383.32 L406.36,385.24 C406.36,385.24 407.96,383 411,383 C415,383 418.52,386.52 418.52,391.16 C418.52,395.8 415,399.32 411,399.32 Z M410.2,386.84 C408.12,386.84 406.36,388.6 406.36,391.16 C406.36,393.72 408.12,395.48 410.2,395.48 C412.28,395.48 414.04,393.72 414.04,391.16 C414.04,388.6 412.28,386.84 410.2,386.84 Z M426.2,383.32 L421.88,383.32 L421.88,399 L426.2,399 L426.2,383.32 Z M426.52,378.84 C426.52,377.4 425.56,376.44 423.96,376.44 C422.52,376.44 421.56,377.4 421.56,378.84 C421.56,380.28 422.52,381.24 423.96,381.24 C425.56,381.24 426.52,380.28 426.52,378.84 Z M442.84,383.32 L430.04,383.32 L430.04,387.16 L437.4,387.16 L429.72,395.16 L429.72,399 L443.16,399 L443.16,395.16 L435.16,395.16 L442.84,387.16 L442.84,383.32 Z M458.84,383.32 L446.04,383.32 L446.04,387.16 L453.4,387.16 L445.72,395.16 L445.72,399 L459.16,399 L459.16,395.16 L451.16,395.16 L458.84,387.16 L458.84,383.32 Z M471.16,399 L471.16,397.4 C471.16,397.4 469.56,399.32 466.84,399.32 C463.64,399.32 461.56,397.24 461.56,394.84 C461.56,392.28 463.32,390.488 466.2,389.976 L471.16,389.08 C471.16,387.8 470.2,386.84 468.44,386.84 C466.04,386.84 464.92,388.44 464.92,388.44 L462.52,386.04 C462.52,386.04 464.6,383 468.76,383 C472.76,383 475.48,385.72 475.48,389.24 L475.48,399 L471.16,399 Z M467.96,395.8 C469.88,395.8 471.16,394.52 471.16,392.28 L471.16,391.8 L467.64,392.44 C466.52,392.632 465.88,393.24 465.88,394.2 C465.88,395.16 466.52,395.8 467.96,395.8 Z M482.68,376.6 L478.84,376.6 L478.84,383.96 L482.68,383.96 L482.68,376.6 Z M487.8,394.36 L484.28,401.72 L487.16,403.16 L491.32,396.44 L487.8,394.36 Z M248.44,433.16 C248.44,437.48 252.28,441.32 256.92,441.32 C261.24,441.32 263.32,438.12 263.32,438.12 L260.76,435.4 C260.76,435.4 259.32,437.48 256.92,437.48 C254.68,437.48 252.76,435.56 252.76,433.16 C252.76,430.76 254.68,428.84 256.92,428.84 C259.32,428.84 260.6,430.92 260.6,430.92 L263.32,428.2 C263.32,428.2 261.24,425 256.92,425 C252.28,425 248.44,428.84 248.44,433.16 Z M269.72,433.16 C269.72,435.56 271.48,437.32 273.56,437.32 C275.64,437.32 277.4,435.56 277.4,433.16 C277.4,430.76 275.64,429 273.56,429 C271.48,429 269.72,430.76 269.72,433.16 Z M281.88,433.16 C281.88,437.48 278.04,441.32 273.56,441.32 C269.08,441.32 265.24,437.48 265.24,433.16 C265.24,428.84 269.08,425 273.56,425 C278.04,425 281.88,428.84 281.88,433.16 Z M304.6,441 L308.92,441 L308.92,431.88 C308.92,427.24 306.68,425 303.32,425 C299.8,425 298.04,427.72 298.04,427.72 C298.04,427.72 296.92,425 293.56,425 C290.84,425 289.4,427.24 289.4,427.24 L289.4,425.32 L285.08,425.32 L285.08,441 L289.4,441 L289.4,432.84 C289.4,430.44 290.68,429.16 292.28,429.16 C293.72,429.16 294.84,430.28 294.84,432.36 L294.84,441 L299.16,441 L299.16,432.84 C299.16,430.44 300.44,429.16 302.04,429.16 C303.48,429.16 304.6,430.28 304.6,432.36 L304.6,441 Z M322.04,441.32 C319,441.32 317.4,439.08 317.4,439.08 L317.4,447.72 L313.08,447.72 L313.08,425.32 L317.4,425.32 L317.4,427.24 C317.4,427.24 319,425 322.04,425 C326.04,425 329.56,428.52 329.56,433.16 C329.56,437.8 326.04,441.32 322.04,441.32 Z M321.24,428.84 C319.16,428.84 317.4,430.6 317.4,433.16 C317.4,435.72 319.16,437.48 321.24,437.48 C323.32,437.48 325.08,435.72 325.08,433.16 C325.08,430.6 323.32,428.84 321.24,428.84 Z M337.24,418.6 L332.92,418.6 L332.92,441 L337.24,441 L337.24,418.6 Z M356.44,434.6 L345.08,434.6 C345.4,436.2 346.84,437.64 349.24,437.64 C351.96,437.64 353.4,435.72 353.4,435.72 L355.64,438.6 C355.64,438.6 353.24,441.32 348.92,441.32 C344.28,441.32 340.6,437.64 340.6,433.16 C340.6,428.68 344.28,425 348.76,425 C353.24,425 356.6,428.36 356.6,432.84 C356.6,433.96 356.44,434.6 356.44,434.6 Z M348.76,428.68 C346.84,428.68 345.56,429.96 345.08,431.56 L352.28,431.56 C351.96,429.96 350.68,428.68 348.76,428.68 Z M361.72,423.56 C361.72,424.84 360.92,425.64 359.96,425.64 L358.52,425.64 L358.52,429.48 L361.24,429.48 L361.24,435.88 C361.24,439.56 363,441.32 366.2,441.32 C367.8,441.32 369.08,440.84 369.08,440.84 L369.08,437.16 C369.08,437.16 368.44,437.48 367.48,437.48 C366.36,437.48 365.56,436.68 365.56,435.72 L365.56,429.48 L368.76,429.48 L368.76,425.64 L365.56,425.64 L365.56,420.68 L361.72,420.68 L361.72,423.56 Z M387,434.6 L375.64,434.6 C375.96,436.2 377.4,437.64 379.8,437.64 C382.52,437.64 383.96,435.72 383.96,435.72 L386.2,438.6 C386.2,438.6 383.8,441.32 379.48,441.32 C374.84,441.32 371.16,437.64 371.16,433.16 C371.16,428.68 374.84,425 379.32,425 C383.8,425 387.16,428.36 387.16,432.84 C387.16,433.96 387,434.6 387,434.6 Z M379.32,428.68 C377.4,428.68 376.12,429.96 375.64,431.56 L382.84,431.56 C382.52,429.96 381.24,428.68 379.32,428.68 Z M389.88,438.92 C389.88,440.2 391,441.32 392.44,441.32 C393.88,441.32 395,440.2 395,438.92 C395,437.64 393.88,436.52 392.44,436.52 C391,436.52 389.88,437.64 389.88,438.92 Z M389.88,427.4 C389.88,428.68 391,429.8 392.44,429.8 C393.88,429.8 395,428.68 395,427.4 C395,426.12 393.88,425 392.44,425 C391,425 389.88,426.12 389.88,427.4 Z M413.72,425.8 L410.2,425.8 L410.2,423.88 C410.2,422.92 411,422.12 412.12,422.12 C413.08,422.12 413.72,422.44 413.72,422.44 L413.72,418.76 C413.72,418.76 412.44,418.28 410.84,418.28 C407.64,418.28 405.88,420.04 405.88,423.72 L405.88,425.8 L403.64,425.8 L403.64,429.64 L405.88,429.64 L405.88,441 L410.2,441 L410.2,429.64 L413.72,429.64 L413.72,425.8 Z M419,430.44 C419,430.44 419,430.44 419,430.44 L419,430.44 Z M419,430.44 L416.6,428.04 C416.6,428.04 418.68,425 422.84,425 C426.84,425 429.56,427.72 429.56,431.24 L429.56,441 L425.24,441 L425.24,439.4 C425.24,439.4 423.64,441.32 420.92,441.32 C417.72,441.32 415.64,439.24 415.64,436.84 C415.64,434.28 417.4,432.488 420.28,431.976 L425.24,431.08 C425.24,429.8 424.28,428.84 422.52,428.84 C420.120274,428.84 419.000256,430.439634 419,430.44 L419,430.44 Z M422.04,437.8 C423.96,437.8 425.24,436.52 425.24,434.28 L425.24,433.8 L421.72,434.44 C420.6,434.632 419.96,435.24 419.96,436.2 C419.96,437.16 420.6,437.8 422.04,437.8 Z M438.2,418.6 L433.88,418.6 L433.88,441 L438.2,441 L438.2,418.6 Z M453.4,427.4 C453.4,427.4 451.64,425 447.96,425 C444.44,425 441.88,427.56 441.88,429.96 C441.88,435.144 449.08,433.96 449.08,436.36 C449.08,437.16 448.44,437.8 447,437.8 C444.92,437.8 443.64,436.04 443.64,436.04 L441.24,438.44 C441.24,438.44 443.16,441.32 447.64,441.32 C451.64,441.32 453.88,439.08 453.88,436.36 C453.88,431.08 446.68,432.2 446.68,429.96 C446.68,429.32 447.32,428.68 448.6,428.68 C450.2,428.68 451.16,429.96 451.16,429.96 L453.4,427.4 Z M471.96,434.6 L460.6,434.6 C460.92,436.2 462.36,437.64 464.76,437.64 C467.48,437.64 468.92,435.72 468.92,435.72 L471.16,438.6 C471.16,438.6 468.76,441.32 464.44,441.32 C459.8,441.32 456.12,437.64 456.12,433.16 C456.12,428.68 459.8,425 464.28,425 C468.76,425 472.12,428.36 472.12,432.84 C472.12,433.96 471.96,434.6 471.96,434.6 Z M464.28,428.68 C462.36,428.68 461.08,429.96 460.6,431.56 L467.8,431.56 C467.48,429.96 466.2,428.68 464.28,428.68 Z M232.12,473.24 C230.84,473.24 230.04,472.44 230.04,471.16 L230.04,465.72 C230.04,462.2 228.12,460.28 224.76,460.28 L222.36,460.28 L222.36,464.12 L223.96,464.12 C225.08,464.12 225.88,464.92 225.88,466.136 L225.88,471.32 C225.88,474.52 227.96,475 227.96,475 C227.96,475 225.88,475.48 225.88,478.68 L225.88,483.896 C225.88,485.08 225.08,485.88 223.96,485.88 L222.36,485.88 L222.36,489.72 L224.76,489.72 C228.12,489.72 230.04,487.8 230.04,484.28 L230.04,478.84 C230.04,477.56 230.84,476.76 232.12,476.76 L232.12,473.24 Z M204.6,515.72 C203.32,515.72 202.68,515.08 202.68,513.8 L202.68,506.92 C202.68,504.04 200.92,502.28 197.72,502.28 L195.96,502.28 L195.96,504.84 L197.72,504.84 C199,504.84 199.8,505.64 199.8,506.92 L199.8,513.8 C199.8,516.68 201.56,517 201.528,517 C201.56,517 199.8,517.32 199.8,520.2 L199.8,527.08 C199.8,528.36 199,529.16 197.72,529.16 L195.96,529.16 L195.96,531.72 L197.72,531.72 C200.92,531.72 202.68,529.96 202.68,527.08 L202.68,520.2 C202.68,518.92 203.32,518.28 204.6,518.28 L204.6,515.72 Z M209.72,521.16 L206.52,528.04 L208.6,529.16 L212.6,522.76 L209.72,521.16 Z M208.6,511.4 C208.6,512.52 209.56,513.48 210.68,513.48 C211.8,513.48 212.76,512.52 212.76,511.4 C212.76,510.28 211.8,509.32 210.68,509.32 C209.56,509.32 208.6,510.28 208.6,511.4 Z" id="const-action-=-{-typ" fill="#545E6F"></path>
            <path d="M602.8,150.92 L600.76,145.4 L598.72,150.92 L602.8,150.92 Z M604,154.04 L597.52,154.04 L596.08,158 L592.24,158 L598.84,141.2 L602.68,141.2 L609.28,158 L605.44,158 L604,154.04 Z M618.88,140.84 C613.72,140.84 609.76,144.8 609.76,149.6 C609.76,154.4 613.72,158.36 618.88,158.36 C623.56,158.36 625.96,155 625.96,155 L623.8,152.72 C623.8,152.72 622.12,155.12 618.88,155.12 C615.76,155.12 613.36,152.72 613.36,149.6 C613.36,146.48 615.76,144.08 618.88,144.08 C622,144.08 623.56,146.48 623.56,146.48 L625.84,144.2 C625.84,144.2 623.56,140.84 618.88,140.84 Z M627.16,141.2 L627.16,144.44 L631.96,144.44 L631.96,158 L635.56,158 L635.56,144.44 L640.36,144.44 L640.36,141.2 L627.16,141.2 Z M643,158 L646.6,158 L646.6,141.2 L643,141.2 L643,158 Z M653.68,149.6 C653.68,152.72 656.08,155.12 659.08,155.12 C662.08,155.12 664.48,152.72 664.48,149.6 C664.48,146.48 662.08,144.08 659.08,144.08 C656.08,144.08 653.68,146.48 653.68,149.6 Z M649.96,149.6 C649.96,144.8 653.92,140.84 659.08,140.84 C664.24,140.84 668.2,144.8 668.2,149.6 C668.2,154.4 664.24,158.36 659.08,158.36 C653.92,158.36 649.96,154.4 649.96,149.6 Z M682.96,141.2 L682.96,151.88 L674.68,141.2 L671.56,141.2 L671.56,158 L675.16,158 L675.16,147.32 L683.44,158 L686.56,158 L686.56,141.2 L682.96,141.2 Z" id="ACTION" fill="#FFFFFF"></path>
        </g>
    </g>
</svg>