<?xml version="1.0" encoding="UTF-8"?>
<svg width="1280px" height="720px" viewBox="0 0 1280 720" version="1.1" xmlns="http://www.w3.org/2000/svg" xmlns:xlink="http://www.w3.org/1999/xlink" style="background: #FFFFFF;">
    <!-- Generator: Sketch 47.1 (45422) - http://www.bohemiancoding.com/sketch -->
    <title>2</title>
    <desc>Created with Sketch.</desc>
    <defs></defs>
    <g id="Page-1" stroke="none" stroke-width="1" fill="none" fill-rule="evenodd">
        <g id="2">
            <g id="Group" transform="translate(125.000000, 70.000000)">
                <rect id="Rectangle-7" fill="#F4F6F8" x="0" y="24" width="1030" height="556" rx="15"></rect>
                <path d="M15,0 L1015,0 L1015,1.77635684e-15 C1023.28427,5.91178485e-14 1030,6.71572875 1030,15 L1030,58 L0,58 L0,15 L-1.77635684e-15,15 C-2.79088747e-15,6.71572875 6.71572875,-2.54560899e-16 15,-1.77635684e-15 Z" id="Rectangle" fill="#F9BE65"></path>
                <text id="REDUCER" font-family="TTNorms-Bold, TT Norms" font-size="24" font-weight="bold" fill="#FFFFFF">
                    <tspan x="454" y="38">REDUCER</tspan>
                </text>
            </g>
            <path d="M204.76,193.64 L201.24,193.64 L201.24,191.112 C201.24,189.96 202.04,189.16 203.16,189.16 C203.96,189.16 204.76,189.48 204.76,189.48 L204.76,186.6 C204.76,186.6 203.8,186.28 202.52,186.28 C199.64,186.28 198.04,187.88 198.04,191.08 L198.04,193.64 L195.8,193.64 L195.8,196.52 L198.04,196.52 L198.04,209 L201.24,209 L201.24,196.52 L204.76,196.52 L204.76,193.64 Z M218.84,209 L222.04,209 L222.04,193.64 L218.84,193.64 L218.84,201.96 C218.84,204.84 217.24,206.44 214.84,206.44 C212.76,206.44 211.16,204.84 211.16,202.6 L211.16,193.64 L207.96,193.64 L207.96,202.6 C207.96,206.76 210.52,209.32 214.2,209.32 C217.08,209.32 218.84,207.4 218.84,207.4 L218.84,209 Z M229.88,193.64 L226.68,193.64 L226.68,209 L229.88,209 L229.88,200.68 C229.88,197.8 231.48,196.2 233.88,196.2 C235.96,196.2 237.56,197.8 237.56,200.04 L237.56,209 L240.76,209 L240.76,200.04 C240.76,195.88 238.2,193.32 234.52,193.32 C231.64,193.32 229.88,195.24 229.88,195.24 L229.88,193.64 Z M244.28,201.32 C244.28,205.64 247.96,209.32 252.28,209.32 C256.28,209.32 258.68,206.12 258.68,206.12 L256.6,204.04 C256.6,204.04 255,206.44 252.28,206.44 C249.72,206.44 247.48,204.2 247.48,201.32 C247.48,198.44 249.72,196.2 252.28,196.2 C255,196.2 256.44,198.44 256.44,198.44 L258.52,196.36 C258.52,196.36 256.28,193.32 252.28,193.32 C247.96,193.32 244.28,197 244.28,201.32 Z M263.8,191.72 C263.8,193 263.16,193.64 262.2,193.64 L260.6,193.64 L260.6,196.52 L263.48,196.52 L263.48,204.52 C263.48,207.72 265.08,209.32 267.96,209.32 C269.24,209.32 270.2,209 270.2,209 L270.2,206.12 C270.2,206.12 269.4,206.44 268.6,206.44 C267.48,206.44 266.68,205.64 266.68,204.488 L266.68,196.52 L269.88,196.52 L269.88,193.64 L266.68,193.64 L266.68,188.52 L263.8,188.52 L263.8,191.72 Z M277.4,193.64 L274.2,193.64 L274.2,209 L277.4,209 L277.4,193.64 Z M277.72,188.84 C277.72,187.72 276.92,186.92 275.8,186.92 C274.68,186.92 273.88,187.72 273.88,188.84 C273.88,189.96 274.68,190.76 275.8,190.76 C276.92,190.76 277.72,189.96 277.72,188.84 Z M293.88,201.32 C293.88,198.44 291.64,196.2 289.08,196.2 C286.52,196.2 284.28,198.44 284.28,201.32 C284.28,204.2 286.52,206.44 289.08,206.44 C291.64,206.44 293.88,204.2 293.88,201.32 Z M281.08,201.32 C281.08,197 284.76,193.32 289.08,193.32 C293.4,193.32 297.08,197 297.08,201.32 C297.08,205.64 293.4,209.32 289.08,209.32 C284.76,209.32 281.08,205.64 281.08,201.32 Z M303.8,193.64 L300.6,193.64 L300.6,209 L303.8,209 L303.8,200.68 C303.8,197.8 305.4,196.2 307.8,196.2 C309.88,196.2 311.48,197.8 311.48,200.04 L311.48,209 L314.68,209 L314.68,200.04 C314.68,195.88 312.12,193.32 308.44,193.32 C305.56,193.32 303.8,195.24 303.8,195.24 L303.8,193.64 Z M334.2,196.36 L334.2,193.32 L333.4,193.32 C330.52,193.32 328.76,195.24 328.76,195.24 L328.76,193.64 L325.56,193.64 L325.56,209 L328.76,209 L328.76,200.68 C328.76,197.8 330.36,196.2 332.76,196.2 C333.56,196.2 334.2,196.36 334.2,196.36 Z M351,202.44 L339,202.44 C339.32,204.52 341.24,206.44 343.8,206.44 C346.84,206.44 348.44,204.04 348.44,204.04 L350.52,206.12 C350.52,206.12 348.12,209.32 343.8,209.32 C339.48,209.32 335.8,205.64 335.8,201.16 C335.8,196.84 339.32,193.32 343.64,193.32 C347.96,193.32 351.16,196.52 351.16,200.84 C351.16,201.8 351,202.44 351,202.44 Z M343.64,196.04 C341.24,196.04 339.64,197.64 339.128,199.72 L348.024,199.72 C347.64,197.64 346.04,196.04 343.64,196.04 Z M361.24,193.32 C364.28,193.32 366.2,195.4 366.2,195.4 L366.2,186.6 L369.4,186.6 L369.4,209 L366.2,209 L366.2,207.24 C366.2,207.24 364.28,209.32 361.24,209.32 C357.24,209.32 353.72,205.8 353.72,201.32 C353.72,196.84 357.24,193.32 361.24,193.32 Z M361.56,206.44 C363.96,206.44 366.2,204.2 366.2,201.32 C366.2,198.44 363.96,196.2 361.56,196.2 C359.16,196.2 356.92,198.44 356.92,201.32 C356.92,204.2 359.16,206.44 361.56,206.44 Z M385.08,209 L388.28,209 L388.28,193.64 L385.08,193.64 L385.08,201.96 C385.08,204.84 383.48,206.44 381.08,206.44 C379,206.44 377.4,204.84 377.4,202.6 L377.4,193.64 L374.2,193.64 L374.2,202.6 C374.2,206.76 376.76,209.32 380.44,209.32 C383.32,209.32 385.08,207.4 385.08,207.4 L385.08,209 Z M391.96,201.32 C391.96,205.64 395.64,209.32 399.96,209.32 C403.96,209.32 406.36,206.12 406.36,206.12 L404.28,204.04 C404.28,204.04 402.68,206.44 399.96,206.44 C397.4,206.44 395.16,204.2 395.16,201.32 C395.16,198.44 397.4,196.2 399.96,196.2 C402.68,196.2 404.12,198.44 404.12,198.44 L406.2,196.36 C406.2,196.36 403.96,193.32 399.96,193.32 C395.64,193.32 391.96,197 391.96,201.32 Z M423.8,202.44 L411.8,202.44 C412.12,204.52 414.04,206.44 416.6,206.44 C419.64,206.44 421.24,204.04 421.24,204.04 L423.32,206.12 C423.32,206.12 420.92,209.32 416.6,209.32 C412.28,209.32 408.6,205.64 408.6,201.16 C408.6,196.84 412.12,193.32 416.44,193.32 C420.76,193.32 423.96,196.52 423.96,200.84 C423.96,201.8 423.8,202.44 423.8,202.44 Z M416.44,196.04 C414.04,196.04 412.44,197.64 411.928,199.72 L420.824,199.72 C420.44,197.64 418.84,196.04 416.44,196.04 Z M436.12,196.36 L436.12,193.32 L435.32,193.32 C432.44,193.32 430.68,195.24 430.68,195.24 L430.68,193.64 L427.48,193.64 L427.48,209 L430.68,209 L430.68,200.68 C430.68,197.8 432.28,196.2 434.68,196.2 C435.48,196.2 436.12,196.36 436.12,196.36 Z M442.04,201 C442.04,193 446.52,187.24 446.52,187.24 L444.12,185.8 C444.12,185.8 439.16,191.72 439.16,201 C439.16,210.28 444.12,216.2 444.12,216.2 L446.52,214.76 C446.52,214.76 442.04,209 442.04,201 Z M459.32,195.4 C459.32,195.4 457.72,193.32 454.36,193.32 C451.16,193.32 448.92,195.56 448.92,197.8 C448.92,203.24 456.76,201.64 456.76,204.52 C456.76,205.64 455.96,206.44 454.2,206.44 C451.8,206.44 450.36,204.52 450.36,204.52 L448.28,206.6 C448.28,206.6 450.2,209.32 454.2,209.32 C457.72,209.32 459.96,207.08 459.96,204.52 C459.96,199.08 452.12,200.68 452.12,197.8 C452.12,197 452.92,196.2 454.36,196.2 C456.12,196.2 457.24,197.48 457.24,197.48 L459.32,195.4 Z M465.4,191.72 C465.4,193 464.76,193.64 463.8,193.64 L462.2,193.64 L462.2,196.52 L465.08,196.52 L465.08,204.52 C465.08,207.72 466.68,209.32 469.56,209.32 C470.84,209.32 471.8,209 471.8,209 L471.8,206.12 C471.8,206.12 471,206.44 470.2,206.44 C469.08,206.44 468.28,205.64 468.28,204.488 L468.28,196.52 L471.48,196.52 L471.48,193.64 L468.28,193.64 L468.28,188.52 L465.4,188.52 L465.4,191.72 Z M487.96,209 L484.76,209 L484.76,207.4 C484.76,207.4 483,209.32 480.12,209.32 C476.92,209.32 474.68,207.08 474.68,204.84 C474.68,202.28 476.44,200.52 479.16,200.04 L484.76,199.08 C484.76,197.48 483.48,196.2 481.56,196.2 C478.84,196.2 477.56,198.28 477.56,198.28 L475.48,196.2 C475.48,196.2 477.56,193.32 481.56,193.32 C485.4,193.32 487.96,195.88 487.96,199.08 L487.96,209 Z M480.6,206.44 C483.16,206.44 484.76,204.84 484.76,201.96 L484.76,201.64 L479.8,202.44 C478.68,202.632 477.88,203.4 477.88,204.52 C477.88,205.48 478.84,206.44 480.6,206.44 Z M494.36,191.72 C494.36,193 493.72,193.64 492.76,193.64 L491.16,193.64 L491.16,196.52 L494.04,196.52 L494.04,204.52 C494.04,207.72 495.64,209.32 498.52,209.32 C499.8,209.32 500.76,209 500.76,209 L500.76,206.12 C500.76,206.12 499.96,206.44 499.16,206.44 C498.04,206.44 497.24,205.64 497.24,204.488 L497.24,196.52 L500.44,196.52 L500.44,193.64 L497.24,193.64 L497.24,188.52 L494.36,188.52 L494.36,191.72 Z M518.2,202.44 L506.2,202.44 C506.52,204.52 508.44,206.44 511,206.44 C514.04,206.44 515.64,204.04 515.64,204.04 L517.72,206.12 C517.72,206.12 515.32,209.32 511,209.32 C506.68,209.32 503,205.64 503,201.16 C503,196.84 506.52,193.32 510.84,193.32 C515.16,193.32 518.36,196.52 518.36,200.84 C518.36,201.8 518.2,202.44 518.2,202.44 Z M510.84,196.04 C508.44,196.04 506.84,197.64 506.328,199.72 L515.224,199.72 C514.84,197.64 513.24,196.04 510.84,196.04 Z M523,205.16 L519.8,212.04 L521.88,213.16 L525.88,206.76 L523,205.16 Z M548.28,209 L545.08,209 L545.08,207.4 C545.08,207.4 543.32,209.32 540.44,209.32 C537.24,209.32 535,207.08 535,204.84 C535,202.28 536.76,200.52 539.48,200.04 L545.08,199.08 C545.08,197.48 543.8,196.2 541.88,196.2 C539.16,196.2 537.88,198.28 537.88,198.28 L535.8,196.2 C535.8,196.2 537.88,193.32 541.88,193.32 C545.72,193.32 548.28,195.88 548.28,199.08 L548.28,209 Z M540.92,206.44 C543.48,206.44 545.08,204.84 545.08,201.96 L545.08,201.64 L540.12,202.44 C539,202.632 538.2,203.4 538.2,204.52 C538.2,205.48 539.16,206.44 540.92,206.44 Z M551.8,201.32 C551.8,205.64 555.48,209.32 559.8,209.32 C563.8,209.32 566.2,206.12 566.2,206.12 L564.12,204.04 C564.12,204.04 562.52,206.44 559.8,206.44 C557.24,206.44 555,204.2 555,201.32 C555,198.44 557.24,196.2 559.8,196.2 C562.52,196.2 563.96,198.44 563.96,198.44 L566.04,196.36 C566.04,196.36 563.8,193.32 559.8,193.32 C555.48,193.32 551.8,197 551.8,201.32 Z M571.32,191.72 C571.32,193 570.68,193.64 569.72,193.64 L568.12,193.64 L568.12,196.52 L571,196.52 L571,204.52 C571,207.72 572.6,209.32 575.48,209.32 C576.76,209.32 577.72,209 577.72,209 L577.72,206.12 C577.72,206.12 576.92,206.44 576.12,206.44 C575,206.44 574.2,205.64 574.2,204.488 L574.2,196.52 L577.4,196.52 L577.4,193.64 L574.2,193.64 L574.2,188.52 L571.32,188.52 L571.32,191.72 Z M584.92,193.64 L581.72,193.64 L581.72,209 L584.92,209 L584.92,193.64 Z M585.24,188.84 C585.24,187.72 584.44,186.92 583.32,186.92 C582.2,186.92 581.4,187.72 581.4,188.84 C581.4,189.96 582.2,190.76 583.32,190.76 C584.44,190.76 585.24,189.96 585.24,188.84 Z M601.4,201.32 C601.4,198.44 599.16,196.2 596.6,196.2 C594.04,196.2 591.8,198.44 591.8,201.32 C591.8,204.2 594.04,206.44 596.6,206.44 C599.16,206.44 601.4,204.2 601.4,201.32 Z M588.6,201.32 C588.6,197 592.28,193.32 596.6,193.32 C600.92,193.32 604.6,197 604.6,201.32 C604.6,205.64 600.92,209.32 596.6,209.32 C592.28,209.32 588.6,205.64 588.6,201.32 Z M611.32,193.64 L608.12,193.64 L608.12,209 L611.32,209 L611.32,200.68 C611.32,197.8 612.92,196.2 615.32,196.2 C617.4,196.2 619,197.8 619,200.04 L619,209 L622.2,209 L622.2,200.04 C622.2,195.88 619.64,193.32 615.96,193.32 C613.08,193.32 611.32,195.24 611.32,195.24 L611.32,193.64 Z M630.04,201 C630.04,209 625.56,214.76 625.56,214.76 L627.96,216.2 C627.96,216.2 632.92,210.28 632.92,201 C632.92,191.72 627.96,185.8 627.96,185.8 L625.56,187.24 C625.56,187.24 630.04,193 630.04,201 Z M643.8,202.28 C645.08,202.28 645.72,202.92 645.72,204.2 L645.72,211.08 C645.72,213.96 647.48,215.72 650.68,215.72 L652.44,215.72 L652.44,213.16 L650.68,213.16 C649.4,213.16 648.6,212.36 648.6,211.08 L648.6,204.2 C648.6,201.32 646.84,201 646.872,201 C646.84,201 648.6,200.68 648.6,197.8 L648.6,190.92 C648.6,189.64 649.4,188.84 650.68,188.84 L652.44,188.84 L652.44,186.28 L650.68,186.28 C647.48,186.28 645.72,188.04 645.72,190.92 L645.72,197.8 C645.72,199.08 645.08,199.72 643.8,199.72 L643.8,202.28 Z M232.44,237.4 C232.44,237.4 230.84,235.32 227.48,235.32 C224.28,235.32 222.04,237.56 222.04,239.8 C222.04,245.24 229.88,243.64 229.88,246.52 C229.88,247.64 229.08,248.44 227.32,248.44 C224.92,248.44 223.48,246.52 223.48,246.52 L221.4,248.6 C221.4,248.6 223.32,251.32 227.32,251.32 C230.84,251.32 233.08,249.08 233.08,246.52 C233.08,241.08 225.24,242.68 225.24,239.8 C225.24,239 226.04,238.2 227.48,238.2 C229.24,238.2 230.36,239.48 230.36,239.48 L232.44,237.4 Z M245.08,235.64 L241.56,246.2 L238.04,235.64 L234.68,235.64 L239.96,251 L243,251 L246.52,240.76 L250.04,251 L253.08,251 L258.36,235.64 L255,235.64 L251.48,246.2 L247.96,235.64 L245.08,235.64 Z M264.28,235.64 L261.08,235.64 L261.08,251 L264.28,251 L264.28,235.64 Z M264.6,230.84 C264.6,229.72 263.8,228.92 262.68,228.92 C261.56,228.92 260.76,229.72 260.76,230.84 C260.76,231.96 261.56,232.76 262.68,232.76 C263.8,232.76 264.6,231.96 264.6,230.84 Z M270.84,233.72 C270.84,235 270.2,235.64 269.24,235.64 L267.64,235.64 L267.64,238.52 L270.52,238.52 L270.52,246.52 C270.52,249.72 272.12,251.32 275,251.32 C276.28,251.32 277.24,251 277.24,251 L277.24,248.12 C277.24,248.12 276.44,248.44 275.64,248.44 C274.52,248.44 273.72,247.64 273.72,246.488 L273.72,238.52 L276.92,238.52 L276.92,235.64 L273.72,235.64 L273.72,230.52 L270.84,230.52 L270.84,233.72 Z M279.48,243.32 C279.48,247.64 283.16,251.32 287.48,251.32 C291.48,251.32 293.88,248.12 293.88,248.12 L291.8,246.04 C291.8,246.04 290.2,248.44 287.48,248.44 C284.92,248.44 282.68,246.2 282.68,243.32 C282.68,240.44 284.92,238.2 287.48,238.2 C290.2,238.2 291.64,240.44 291.64,240.44 L293.72,238.36 C293.72,238.36 291.48,235.32 287.48,235.32 C283.16,235.32 279.48,239 279.48,243.32 Z M300.6,228.6 L297.4,228.6 L297.4,251 L300.6,251 L300.6,242.68 C300.6,239.8 302.2,238.2 304.6,238.2 C306.68,238.2 308.28,239.8 308.28,242.04 L308.28,251 L311.48,251 L311.48,242.04 C311.48,237.88 308.92,235.32 305.24,235.32 C302.36,235.32 300.6,237.24 300.6,237.24 L300.6,228.6 Z M319.32,243 C319.32,235 323.8,229.24 323.8,229.24 L321.4,227.8 C321.4,227.8 316.44,233.72 316.44,243 C316.44,252.28 321.4,258.2 321.4,258.2 L323.8,256.76 C323.8,256.76 319.32,251 319.32,243 Z M335.32,251 L335.32,249.4 C335.32,249.4 333.72,251.32 331,251.32 C327.8,251.32 325.72,249.24 325.72,246.84 C325.72,244.28 327.48,242.488 330.36,241.976 L335.32,241.08 C335.32,239.8 334.36,238.84 332.6,238.84 C330.2,238.84 329.08,240.44 329.08,240.44 L326.68,238.04 C326.68,238.04 328.76,235 332.92,235 C336.92,235 339.64,237.72 339.64,241.24 L339.64,251 L335.32,251 Z M332.12,247.8 C334.04,247.8 335.32,246.52 335.32,244.28 L335.32,243.8 L331.8,244.44 C330.68,244.632 330.04,245.24 330.04,246.2 C330.04,247.16 330.68,247.8 332.12,247.8 Z M355.16,245.4 C355.16,245.4 355.159999,245.400001 355.159998,245.400003 L355.16,245.4 Z M355.16,245.4 L357.72,248.12 C357.72,248.12 355.64,251.32 351.32,251.32 C346.68,251.32 342.84,247.48 342.84,243.16 C342.84,238.84 346.68,235 351.32,235 C355.64,235 357.72,238.2 357.72,238.2 L355,240.92 C355,240.92 353.72,238.84 351.32,238.84 C349.08,238.84 347.16,240.76 347.16,243.16 C347.16,245.56 349.08,247.48 351.32,247.48 C353.718354,247.48 355.158024,245.402852 355.159998,245.400003 L355.16,245.4 Z M362.52,233.56 C362.52,234.84 361.72,235.64 360.76,235.64 L359.32,235.64 L359.32,239.48 L362.04,239.48 L362.04,245.88 C362.04,249.56 363.8,251.32 367,251.32 C368.6,251.32 369.88,250.84 369.88,250.84 L369.88,247.16 C369.88,247.16 369.24,247.48 368.28,247.48 C367.16,247.48 366.36,246.68 366.36,245.72 L366.36,239.48 L369.56,239.48 L369.56,235.64 L366.36,235.64 L366.36,230.68 L362.52,230.68 L362.52,233.56 Z M378.04,235.32 L373.72,235.32 L373.72,251 L378.04,251 L378.04,235.32 Z M378.36,230.84 C378.36,229.4 377.4,228.44 375.8,228.44 C374.36,228.44 373.4,229.4 373.4,230.84 C373.4,232.28 374.36,233.24 375.8,233.24 C377.4,233.24 378.36,232.28 378.36,230.84 Z M385.88,243.16 C385.88,245.56 387.64,247.32 389.72,247.32 C391.8,247.32 393.56,245.56 393.56,243.16 C393.56,240.76 391.8,239 389.72,239 C387.64,239 385.88,240.76 385.88,243.16 Z M398.04,243.16 C398.04,247.48 394.2,251.32 389.72,251.32 C385.24,251.32 381.4,247.48 381.4,243.16 C381.4,238.84 385.24,235 389.72,235 C394.2,235 398.04,238.84 398.04,243.16 Z M405.56,235.32 L401.24,235.32 L401.24,251 L405.56,251 L405.56,242.84 C405.56,240.44 406.84,239.16 408.76,239.16 C410.52,239.16 411.8,240.44 411.8,242.36 L411.8,251 L416.12,251 L416.12,241.88 C416.12,237.56 413.56,235 410.04,235 C407.16,235 405.56,237.24 405.56,237.24 L405.56,235.32 Z M419.8,248.92 C419.8,250.2 420.92,251.32 422.36,251.32 C423.8,251.32 424.92,250.2 424.92,248.92 C424.92,247.64 423.8,246.52 422.36,246.52 C420.92,246.52 419.8,247.64 419.8,248.92 Z M430.2,233.56 C430.2,234.84 429.4,235.64 428.44,235.64 L427,235.64 L427,239.48 L429.72,239.48 L429.72,245.88 C429.72,249.56 431.48,251.32 434.68,251.32 C436.28,251.32 437.56,250.84 437.56,250.84 L437.56,247.16 C437.56,247.16 436.92,247.48 435.96,247.48 C434.84,247.48 434.04,246.68 434.04,245.72 L434.04,239.48 L437.24,239.48 L437.24,235.64 L434.04,235.64 L434.04,230.68 L430.2,230.68 L430.2,233.56 Z M444.92,251.96 C444.504,252.92 443.64,253.72 442.2,253.72 C441.24,253.72 440.6,253.4 440.6,253.4 L440.6,257.24 C440.6,257.24 441.72,257.72 443.32,257.72 C446.04,257.72 447.96,255.8 449.4,251.96 L455.64,235.32 L451.16,235.32 L447.48,245.72 L443.8,235.32 L439.32,235.32 L445.4,250.84 L444.92,251.96 Z M466.84,251.32 C463.8,251.32 462.2,249.08 462.2,249.08 L462.2,257.72 L457.88,257.72 L457.88,235.32 L462.2,235.32 L462.2,237.24 C462.2,237.24 463.8,235 466.84,235 C470.84,235 474.36,238.52 474.36,243.16 C474.36,247.8 470.84,251.32 466.84,251.32 Z M466.04,238.84 C463.96,238.84 462.2,240.6 462.2,243.16 C462.2,245.72 463.96,247.48 466.04,247.48 C468.12,247.48 469.88,245.72 469.88,243.16 C469.88,240.6 468.12,238.84 466.04,238.84 Z M492.44,244.6 L481.08,244.6 C481.4,246.2 482.84,247.64 485.24,247.64 C487.96,247.64 489.4,245.72 489.4,245.72 L491.64,248.6 C491.64,248.6 489.24,251.32 484.92,251.32 C480.28,251.32 476.6,247.64 476.6,243.16 C476.6,238.68 480.28,235 484.76,235 C489.24,235 492.6,238.36 492.6,242.84 C492.6,243.96 492.44,244.6 492.44,244.6 Z M484.76,238.68 C482.84,238.68 481.56,239.96 481.08,241.56 L488.28,241.56 C487.96,239.96 486.68,238.68 484.76,238.68 Z M499.32,243 C499.32,251 494.84,256.76 494.84,256.76 L497.24,258.2 C497.24,258.2 502.2,252.28 502.2,243 C502.2,233.72 497.24,227.8 497.24,227.8 L494.84,229.24 C494.84,229.24 499.32,235 499.32,243 Z M513.08,244.28 C514.36,244.28 515,244.92 515,246.2 L515,253.08 C515,255.96 516.76,257.72 519.96,257.72 L521.72,257.72 L521.72,255.16 L519.96,255.16 C518.68,255.16 517.88,254.36 517.88,253.08 L517.88,246.2 C517.88,243.32 516.12,243 516.152,243 C516.12,243 517.88,242.68 517.88,239.8 L517.88,232.92 C517.88,231.64 518.68,230.84 519.96,230.84 L521.72,230.84 L521.72,228.28 L519.96,228.28 C516.76,228.28 515,230.04 515,232.92 L515,239.8 C515,241.08 514.36,241.72 513.08,241.72 L513.08,244.28 Z M247.32,285.32 C247.32,289.64 251,293.32 255.32,293.32 C259.32,293.32 261.72,290.12 261.72,290.12 L259.64,288.04 C259.64,288.04 258.04,290.44 255.32,290.44 C252.76,290.44 250.52,288.2 250.52,285.32 C250.52,282.44 252.76,280.2 255.32,280.2 C258.04,280.2 259.48,282.44 259.48,282.44 L261.56,280.36 C261.56,280.36 259.32,277.32 255.32,277.32 C251,277.32 247.32,281 247.32,285.32 Z M277.24,293 L274.04,293 L274.04,291.4 C274.04,291.4 272.28,293.32 269.4,293.32 C266.2,293.32 263.96,291.08 263.96,288.84 C263.96,286.28 265.72,284.52 268.44,284.04 L274.04,283.08 C274.04,281.48 272.76,280.2 270.84,280.2 C268.12,280.2 266.84,282.28 266.84,282.28 L264.76,280.2 C264.76,280.2 266.84,277.32 270.84,277.32 C274.68,277.32 277.24,279.88 277.24,283.08 L277.24,293 Z M269.88,290.44 C272.44,290.44 274.04,288.84 274.04,285.96 L274.04,285.64 L269.08,286.44 C267.96,286.632 267.16,287.4 267.16,288.52 C267.16,289.48 268.12,290.44 269.88,290.44 Z M291.48,279.4 C291.48,279.4 289.88,277.32 286.52,277.32 C283.32,277.32 281.08,279.56 281.08,281.8 C281.08,287.24 288.92,285.64 288.92,288.52 C288.92,289.64 288.12,290.44 286.36,290.44 C283.96,290.44 282.52,288.52 282.52,288.52 L280.44,290.6 C280.44,290.6 282.36,293.32 286.36,293.32 C289.88,293.32 292.12,291.08 292.12,288.52 C292.12,283.08 284.28,284.68 284.28,281.8 C284.28,281 285.08,280.2 286.52,280.2 C288.28,280.2 289.4,281.48 289.4,281.48 L291.48,279.4 Z M309.88,286.44 L297.88,286.44 C298.2,288.52 300.12,290.44 302.68,290.44 C305.72,290.44 307.32,288.04 307.32,288.04 L309.4,290.12 C309.4,290.12 307,293.32 302.68,293.32 C298.36,293.32 294.68,289.64 294.68,285.16 C294.68,280.84 298.2,277.32 302.52,277.32 C306.84,277.32 310.04,280.52 310.04,284.84 C310.04,285.8 309.88,286.44 309.88,286.44 Z M302.52,280.04 C300.12,280.04 298.52,281.64 298.008,283.72 L306.904,283.72 C306.52,281.64 304.92,280.04 302.52,280.04 Z M323.48,270.6 L319.64,270.6 L319.64,277.96 L323.48,277.96 L323.48,270.6 Z M338.36,283.56 L335.64,276.2 L332.92,283.56 L338.36,283.56 Z M339.96,287.72 L331.32,287.72 L329.4,293 L324.28,293 L333.08,270.6 L338.2,270.6 L347,293 L341.88,293 L339.96,287.72 Z M350.2,270.6 L358.52,270.6 C365.08,270.6 370.04,275.56 370.04,281.8 C370.04,288.04 365.08,293 358.52,293 L350.2,293 L350.2,270.6 Z M358.52,274.92 L355,274.92 L355,288.68 L358.52,288.68 C362.2,288.68 365.24,285.64 365.24,281.8 C365.24,277.96 362.36,274.92 358.52,274.92 Z M374.52,270.6 L382.84,270.6 C389.4,270.6 394.36,275.56 394.36,281.8 C394.36,288.04 389.4,293 382.84,293 L374.52,293 L374.52,270.6 Z M382.84,274.92 L379.32,274.92 L379.32,288.68 L382.84,288.68 C386.52,288.68 389.56,285.64 389.56,281.8 C389.56,277.96 386.68,274.92 382.84,274.92 Z M407.32,295.72 L395.64,295.72 L395.64,299.72 L407.32,299.72 L407.32,295.72 Z M407.64,270.6 L407.64,274.92 L414.04,274.92 L414.04,293 L418.84,293 L418.84,274.92 L425.24,274.92 L425.24,270.6 L407.64,270.6 Z M431.16,281.8 C431.16,285.96 434.36,289.16 438.36,289.16 C442.36,289.16 445.56,285.96 445.56,281.8 C445.56,277.64 442.36,274.44 438.36,274.44 C434.36,274.44 431.16,277.64 431.16,281.8 Z M426.2,281.8 C426.2,275.4 431.48,270.12 438.36,270.12 C445.24,270.12 450.52,275.4 450.52,281.8 C450.52,288.2 445.24,293.48 438.36,293.48 C431.48,293.48 426.2,288.2 426.2,281.8 Z M455,270.6 L463.32,270.6 C469.88,270.6 474.84,275.56 474.84,281.8 C474.84,288.04 469.88,293 463.32,293 L455,293 L455,270.6 Z M463.32,274.92 L459.8,274.92 L459.8,288.68 L463.32,288.68 C467,288.68 470.04,285.64 470.04,281.8 C470.04,277.96 467.16,274.92 463.32,274.92 Z M483,281.8 C483,285.96 486.2,289.16 490.2,289.16 C494.2,289.16 497.4,285.96 497.4,281.8 C497.4,277.64 494.2,274.44 490.2,274.44 C486.2,274.44 483,277.64 483,281.8 Z M478.04,281.8 C478.04,275.4 483.32,270.12 490.2,270.12 C497.08,270.12 502.36,275.4 502.36,281.8 C502.36,288.2 497.08,293.48 490.2,293.48 C483.32,293.48 478.04,288.2 478.04,281.8 Z M509.56,270.6 L505.72,270.6 L505.72,277.96 L509.56,277.96 L509.56,270.6 Z M512.92,291.24 C512.92,292.36 513.88,293.32 515,293.32 C516.12,293.32 517.08,292.36 517.08,291.24 C517.08,290.12 516.12,289.16 515,289.16 C513.88,289.16 512.92,290.12 512.92,291.24 Z M512.92,279.4 C512.92,280.52 513.88,281.48 515,281.48 C516.12,281.48 517.08,280.52 517.08,279.4 C517.08,278.28 516.12,277.32 515,277.32 C513.88,277.32 512.92,278.28 512.92,279.4 Z M527,286.28 C528.28,286.28 528.92,286.92 528.92,288.2 L528.92,295.08 C528.92,297.96 530.68,299.72 533.88,299.72 L535.64,299.72 L535.64,297.16 L533.88,297.16 C532.6,297.16 531.8,296.36 531.8,295.08 L531.8,288.2 C531.8,285.32 530.04,285 530.072,285 C530.04,285 531.8,284.68 531.8,281.8 L531.8,274.92 C531.8,273.64 532.6,272.84 533.88,272.84 L535.64,272.84 L535.64,270.28 L533.88,270.28 C530.68,270.28 528.92,272.04 528.92,274.92 L528.92,281.8 C528.92,283.08 528.28,283.72 527,283.72 L527,286.28 Z M272.92,327.32 C272.92,331.64 276.6,335.32 280.92,335.32 C284.92,335.32 287.32,332.12 287.32,332.12 L285.24,330.04 C285.24,330.04 283.64,332.44 280.92,332.44 C278.36,332.44 276.12,330.2 276.12,327.32 C276.12,324.44 278.36,322.2 280.92,322.2 C283.64,322.2 285.08,324.44 285.08,324.44 L287.16,322.36 C287.16,322.36 284.92,319.32 280.92,319.32 C276.6,319.32 272.92,323 272.92,327.32 Z M302.36,327.32 C302.36,324.44 300.12,322.2 297.56,322.2 C295,322.2 292.76,324.44 292.76,327.32 C292.76,330.2 295,332.44 297.56,332.44 C300.12,332.44 302.36,330.2 302.36,327.32 Z M289.56,327.32 C289.56,323 293.24,319.32 297.56,319.32 C301.88,319.32 305.56,323 305.56,327.32 C305.56,331.64 301.88,335.32 297.56,335.32 C293.24,335.32 289.56,331.64 289.56,327.32 Z M312.28,319.64 L309.08,319.64 L309.08,335 L312.28,335 L312.28,326.68 C312.28,323.8 313.88,322.2 316.28,322.2 C318.36,322.2 319.96,323.8 319.96,326.04 L319.96,335 L323.16,335 L323.16,326.04 C323.16,321.88 320.6,319.32 316.92,319.32 C314.04,319.32 312.28,321.24 312.28,321.24 L312.28,319.64 Z M337.4,321.4 C337.4,321.4 335.8,319.32 332.44,319.32 C329.24,319.32 327,321.56 327,323.8 C327,329.24 334.84,327.64 334.84,330.52 C334.84,331.64 334.04,332.44 332.28,332.44 C329.88,332.44 328.44,330.52 328.44,330.52 L326.36,332.6 C326.36,332.6 328.28,335.32 332.28,335.32 C335.8,335.32 338.04,333.08 338.04,330.52 C338.04,325.08 330.2,326.68 330.2,323.8 C330.2,323 331,322.2 332.44,322.2 C334.2,322.2 335.32,323.48 335.32,323.48 L337.4,321.4 Z M343.48,317.72 C343.48,319 342.84,319.64 341.88,319.64 L340.28,319.64 L340.28,322.52 L343.16,322.52 L343.16,330.52 C343.16,333.72 344.76,335.32 347.64,335.32 C348.92,335.32 349.88,335 349.88,335 L349.88,332.12 C349.88,332.12 349.08,332.44 348.28,332.44 C347.16,332.44 346.36,331.64 346.36,330.488 L346.36,322.52 L349.56,322.52 L349.56,319.64 L346.36,319.64 L346.36,314.52 L343.48,314.52 L343.48,317.72 Z M362.04,317.72 C362.04,319 361.4,319.64 360.44,319.64 L358.84,319.64 L358.84,322.52 L361.72,322.52 L361.72,330.52 C361.72,333.72 363.32,335.32 366.2,335.32 C367.48,335.32 368.44,335 368.44,335 L368.44,332.12 C368.44,332.12 367.64,332.44 366.84,332.44 C365.72,332.44 364.92,331.64 364.92,330.488 L364.92,322.52 L368.12,322.52 L368.12,319.64 L364.92,319.64 L364.92,314.52 L362.04,314.52 L362.04,317.72 Z M383.48,327.32 C383.48,324.44 381.24,322.2 378.68,322.2 C376.12,322.2 373.88,324.44 373.88,327.32 C373.88,330.2 376.12,332.44 378.68,332.44 C381.24,332.44 383.48,330.2 383.48,327.32 Z M370.68,327.32 C370.68,323 374.36,319.32 378.68,319.32 C383,319.32 386.68,323 386.68,327.32 C386.68,331.64 383,335.32 378.68,335.32 C374.36,335.32 370.68,331.64 370.68,327.32 Z M396.76,319.32 C399.8,319.32 401.72,321.4 401.72,321.4 L401.72,312.6 L404.92,312.6 L404.92,335 L401.72,335 L401.72,333.24 C401.72,333.24 399.8,335.32 396.76,335.32 C392.76,335.32 389.24,331.8 389.24,327.32 C389.24,322.84 392.76,319.32 396.76,319.32 Z M397.08,332.44 C399.48,332.44 401.72,330.2 401.72,327.32 C401.72,324.44 399.48,322.2 397.08,322.2 C394.68,322.2 392.44,324.44 392.44,327.32 C392.44,330.2 394.68,332.44 397.08,332.44 Z M421.56,327.32 C421.56,324.44 419.32,322.2 416.76,322.2 C414.2,322.2 411.96,324.44 411.96,327.32 C411.96,330.2 414.2,332.44 416.76,332.44 C419.32,332.44 421.56,330.2 421.56,327.32 Z M408.76,327.32 C408.76,323 412.44,319.32 416.76,319.32 C421.08,319.32 424.76,323 424.76,327.32 C424.76,331.64 421.08,335.32 416.76,335.32 C412.44,335.32 408.76,331.64 408.76,327.32 Z M447,327 L433.88,327 L433.88,329.88 L447,329.88 L447,327 Z M447,321.24 L433.88,321.24 L433.88,324.12 L447,324.12 L447,321.24 Z M465.24,335 L465.24,333.4 C465.24,333.4 463.64,335.32 460.92,335.32 C457.72,335.32 455.64,333.24 455.64,330.84 C455.64,328.28 457.4,326.488 460.28,325.976 L465.24,325.08 C465.24,323.8 464.28,322.84 462.52,322.84 C460.12,322.84 459,324.44 459,324.44 L456.6,322.04 C456.6,322.04 458.68,319 462.84,319 C466.84,319 469.56,321.72 469.56,325.24 L469.56,335 L465.24,335 Z M462.04,331.8 C463.96,331.8 465.24,330.52 465.24,328.28 L465.24,327.8 L461.72,328.44 C460.6,328.632 459.96,329.24 459.96,330.2 C459.96,331.16 460.6,331.8 462.04,331.8 Z M472.76,327.16 C472.76,331.48 476.6,335.32 481.24,335.32 C485.56,335.32 487.64,332.12 487.64,332.12 L485.08,329.4 C485.08,329.4 483.64,331.48 481.24,331.48 C479,331.48 477.08,329.56 477.08,327.16 C477.08,324.76 479,322.84 481.24,322.84 C483.64,322.84 484.92,324.92 484.92,324.92 L487.64,322.2 C487.64,322.2 485.56,319 481.24,319 C476.6,319 472.76,322.84 472.76,327.16 Z M492.44,317.56 C492.44,318.84 491.64,319.64 490.68,319.64 L489.24,319.64 L489.24,323.48 L491.96,323.48 L491.96,329.88 C491.96,333.56 493.72,335.32 496.92,335.32 C498.52,335.32 499.8,334.84 499.8,334.84 L499.8,331.16 C499.8,331.16 499.16,331.48 498.2,331.48 C497.08,331.48 496.28,330.68 496.28,329.72 L496.28,323.48 L499.48,323.48 L499.48,319.64 L496.28,319.64 L496.28,314.68 L492.44,314.68 L492.44,317.56 Z M507.96,319.32 L503.64,319.32 L503.64,335 L507.96,335 L507.96,319.32 Z M508.28,314.84 C508.28,313.4 507.32,312.44 505.72,312.44 C504.28,312.44 503.32,313.4 503.32,314.84 C503.32,316.28 504.28,317.24 505.72,317.24 C507.32,317.24 508.28,316.28 508.28,314.84 Z M515.8,327.16 C515.8,329.56 517.56,331.32 519.64,331.32 C521.72,331.32 523.48,329.56 523.48,327.16 C523.48,324.76 521.72,323 519.64,323 C517.56,323 515.8,324.76 515.8,327.16 Z M527.96,327.16 C527.96,331.48 524.12,335.32 519.64,335.32 C515.16,335.32 511.32,331.48 511.32,327.16 C511.32,322.84 515.16,319 519.64,319 C524.12,319 527.96,322.84 527.96,327.16 Z M535.48,319.32 L531.16,319.32 L531.16,335 L535.48,335 L535.48,326.84 C535.48,324.44 536.76,323.16 538.68,323.16 C540.44,323.16 541.72,324.44 541.72,326.36 L541.72,335 L546.04,335 L546.04,325.88 C546.04,321.56 543.48,319 539.96,319 C537.08,319 535.48,321.24 535.48,321.24 L535.48,319.32 Z M549.72,332.92 C549.72,334.2 550.84,335.32 552.28,335.32 C553.72,335.32 554.84,334.2 554.84,332.92 C554.84,331.64 553.72,330.52 552.28,330.52 C550.84,330.52 549.72,331.64 549.72,332.92 Z M567.16,335.32 C564.12,335.32 562.52,333.08 562.52,333.08 L562.52,341.72 L558.2,341.72 L558.2,319.32 L562.52,319.32 L562.52,321.24 C562.52,321.24 564.12,319 567.16,319 C571.16,319 574.68,322.52 574.68,327.16 C574.68,331.8 571.16,335.32 567.16,335.32 Z M566.36,322.84 C564.28,322.84 562.52,324.6 562.52,327.16 C562.52,329.72 564.28,331.48 566.36,331.48 C568.44,331.48 570.2,329.72 570.2,327.16 C570.2,324.6 568.44,322.84 566.36,322.84 Z M586.52,335 L586.52,333.4 C586.52,333.4 584.92,335.32 582.2,335.32 C579,335.32 576.92,333.24 576.92,330.84 C576.92,328.28 578.68,326.488 581.56,325.976 L586.52,325.08 C586.52,323.8 585.56,322.84 583.8,322.84 C581.4,322.84 580.28,324.44 580.28,324.44 L577.88,322.04 C577.88,322.04 579.96,319 584.12,319 C588.12,319 590.84,321.72 590.84,325.24 L590.84,335 L586.52,335 Z M583.32,331.8 C585.24,331.8 586.52,330.52 586.52,328.28 L586.52,327.8 L583,328.44 C581.88,328.632 581.24,329.24 581.24,330.2 C581.24,331.16 581.88,331.8 583.32,331.8 Z M598.68,335.96 C598.264,336.92 597.4,337.72 595.96,337.72 C595,337.72 594.36,337.4 594.36,337.4 L594.36,341.24 C594.36,341.24 595.48,341.72 597.08,341.72 C599.8,341.72 601.72,339.8 603.16,335.96 L609.4,319.32 L604.92,319.32 L601.24,329.72 L597.56,319.32 L593.08,319.32 L599.16,334.84 L598.68,335.96 Z M616.12,312.6 L611.8,312.6 L611.8,335 L616.12,335 L616.12,312.6 Z M623.96,327.16 C623.96,329.56 625.72,331.32 627.8,331.32 C629.88,331.32 631.64,329.56 631.64,327.16 C631.64,324.76 629.88,323 627.8,323 C625.72,323 623.96,324.76 623.96,327.16 Z M636.12,327.16 C636.12,331.48 632.28,335.32 627.8,335.32 C623.32,335.32 619.48,331.48 619.48,327.16 C619.48,322.84 623.32,319 627.8,319 C632.28,319 636.12,322.84 636.12,327.16 Z M647.96,335 L647.96,333.4 C647.96,333.4 646.36,335.32 643.64,335.32 C640.44,335.32 638.36,333.24 638.36,330.84 C638.36,328.28 640.12,326.488 643,325.976 L647.96,325.08 C647.96,323.8 647,322.84 645.24,322.84 C642.84,322.84 641.72,324.44 641.72,324.44 L639.32,322.04 C639.32,322.04 641.4,319 645.56,319 C649.56,319 652.28,321.72 652.28,325.24 L652.28,335 L647.96,335 Z M644.76,331.8 C646.68,331.8 647.96,330.52 647.96,328.28 L647.96,327.8 L644.44,328.44 C643.32,328.632 642.68,329.24 642.68,330.2 C642.68,331.16 643.32,331.8 644.76,331.8 Z M663,319 C666.04,319 667.64,321.24 667.64,321.24 L667.64,312.6 L671.96,312.6 L671.96,335 L667.64,335 L667.64,333.08 C667.64,333.08 666.04,335.32 663,335.32 C659,335.32 655.48,331.8 655.48,327.16 C655.48,322.52 659,319 663,319 Z M663.8,331.48 C665.88,331.48 667.64,329.72 667.64,327.16 C667.64,324.6 665.88,322.84 663.8,322.84 C661.72,322.84 659.96,324.6 659.96,327.16 C659.96,329.72 661.72,331.48 663.8,331.48 Z M677.56,331.16 L674.36,338.04 L676.44,339.16 L680.44,332.76 L677.56,331.16 Z M676.44,321.4 C676.44,322.52 677.4,323.48 678.52,323.48 C679.64,323.48 680.6,322.52 680.6,321.4 C680.6,320.28 679.64,319.32 678.52,319.32 C677.4,319.32 676.44,320.28 676.44,321.4 Z M272.92,369.32 C272.92,373.64 276.6,377.32 280.92,377.32 C284.92,377.32 287.32,374.12 287.32,374.12 L285.24,372.04 C285.24,372.04 283.64,374.44 280.92,374.44 C278.36,374.44 276.12,372.2 276.12,369.32 C276.12,366.44 278.36,364.2 280.92,364.2 C283.64,364.2 285.08,366.44 285.08,366.44 L287.16,364.36 C287.16,364.36 284.92,361.32 280.92,361.32 C276.6,361.32 272.92,365 272.92,369.32 Z M302.36,369.32 C302.36,366.44 300.12,364.2 297.56,364.2 C295,364.2 292.76,366.44 292.76,369.32 C292.76,372.2 295,374.44 297.56,374.44 C300.12,374.44 302.36,372.2 302.36,369.32 Z M289.56,369.32 C289.56,365 293.24,361.32 297.56,361.32 C301.88,361.32 305.56,365 305.56,369.32 C305.56,373.64 301.88,377.32 297.56,377.32 C293.24,377.32 289.56,373.64 289.56,369.32 Z M312.28,361.64 L309.08,361.64 L309.08,377 L312.28,377 L312.28,368.68 C312.28,365.8 313.88,364.2 316.28,364.2 C318.36,364.2 319.96,365.8 319.96,368.04 L319.96,377 L323.16,377 L323.16,368.04 C323.16,363.88 320.6,361.32 316.92,361.32 C314.04,361.32 312.28,363.24 312.28,363.24 L312.28,361.64 Z M337.4,363.4 C337.4,363.4 335.8,361.32 332.44,361.32 C329.24,361.32 327,363.56 327,365.8 C327,371.24 334.84,369.64 334.84,372.52 C334.84,373.64 334.04,374.44 332.28,374.44 C329.88,374.44 328.44,372.52 328.44,372.52 L326.36,374.6 C326.36,374.6 328.28,377.32 332.28,377.32 C335.8,377.32 338.04,375.08 338.04,372.52 C338.04,367.08 330.2,368.68 330.2,365.8 C330.2,365 331,364.2 332.44,364.2 C334.2,364.2 335.32,365.48 335.32,365.48 L337.4,363.4 Z M343.48,359.72 C343.48,361 342.84,361.64 341.88,361.64 L340.28,361.64 L340.28,364.52 L343.16,364.52 L343.16,372.52 C343.16,375.72 344.76,377.32 347.64,377.32 C348.92,377.32 349.88,377 349.88,377 L349.88,374.12 C349.88,374.12 349.08,374.44 348.28,374.44 C347.16,374.44 346.36,373.64 346.36,372.488 L346.36,364.52 L349.56,364.52 L349.56,361.64 L346.36,361.64 L346.36,356.52 L343.48,356.52 L343.48,359.72 Z M362.04,359.72 C362.04,361 361.4,361.64 360.44,361.64 L358.84,361.64 L358.84,364.52 L361.72,364.52 L361.72,372.52 C361.72,375.72 363.32,377.32 366.2,377.32 C367.48,377.32 368.44,377 368.44,377 L368.44,374.12 C368.44,374.12 367.64,374.44 366.84,374.44 C365.72,374.44 364.92,373.64 364.92,372.488 L364.92,364.52 L368.12,364.52 L368.12,361.64 L364.92,361.64 L364.92,356.52 L362.04,356.52 L362.04,359.72 Z M383.48,369.32 C383.48,366.44 381.24,364.2 378.68,364.2 C376.12,364.2 373.88,366.44 373.88,369.32 C373.88,372.2 376.12,374.44 378.68,374.44 C381.24,374.44 383.48,372.2 383.48,369.32 Z M370.68,369.32 C370.68,365 374.36,361.32 378.68,361.32 C383,361.32 386.68,365 386.68,369.32 C386.68,373.64 383,377.32 378.68,377.32 C374.36,377.32 370.68,373.64 370.68,369.32 Z M396.76,361.32 C399.8,361.32 401.72,363.4 401.72,363.4 L401.72,354.6 L404.92,354.6 L404.92,377 L401.72,377 L401.72,375.24 C401.72,375.24 399.8,377.32 396.76,377.32 C392.76,377.32 389.24,373.8 389.24,369.32 C389.24,364.84 392.76,361.32 396.76,361.32 Z M397.08,374.44 C399.48,374.44 401.72,372.2 401.72,369.32 C401.72,366.44 399.48,364.2 397.08,364.2 C394.68,364.2 392.44,366.44 392.44,369.32 C392.44,372.2 394.68,374.44 397.08,374.44 Z M421.56,369.32 C421.56,366.44 419.32,364.2 416.76,364.2 C414.2,364.2 411.96,366.44 411.96,369.32 C411.96,372.2 414.2,374.44 416.76,374.44 C419.32,374.44 421.56,372.2 421.56,369.32 Z M408.76,369.32 C408.76,365 412.44,361.32 416.76,361.32 C421.08,361.32 424.76,365 424.76,369.32 C424.76,373.64 421.08,377.32 416.76,377.32 C412.44,377.32 408.76,373.64 408.76,369.32 Z M438.04,363.4 C438.04,363.4 436.44,361.32 433.08,361.32 C429.88,361.32 427.64,363.56 427.64,365.8 C427.64,371.24 435.48,369.64 435.48,372.52 C435.48,373.64 434.68,374.44 432.92,374.44 C430.52,374.44 429.08,372.52 429.08,372.52 L427,374.6 C427,374.6 428.92,377.32 432.92,377.32 C436.44,377.32 438.68,375.08 438.68,372.52 C438.68,367.08 430.84,368.68 430.84,365.8 C430.84,365 431.64,364.2 433.08,364.2 C434.84,364.2 435.96,365.48 435.96,365.48 L438.04,363.4 Z M460.92,369 L447.8,369 L447.8,371.88 L460.92,371.88 L460.92,369 Z M460.92,363.24 L447.8,363.24 L447.8,366.12 L460.92,366.12 L460.92,363.24 Z M474.04,356.84 L478.2,356.84 L478.2,354.28 L471.16,354.28 L471.16,383.72 L478.2,383.72 L478.2,381.16 L474.04,381.16 L474.04,356.84 Z M484.92,375.24 C484.92,374.12 483.96,373.16 482.84,373.16 C481.72,373.16 480.76,374.12 480.76,375.24 C480.76,376.36 481.72,377.32 482.84,377.32 C483.96,377.32 484.92,376.36 484.92,375.24 Z M493.24,375.24 C493.24,374.12 492.28,373.16 491.16,373.16 C490.04,373.16 489.08,374.12 489.08,375.24 C489.08,376.36 490.04,377.32 491.16,377.32 C492.28,377.32 493.24,376.36 493.24,375.24 Z M501.56,375.24 C501.56,374.12 500.6,373.16 499.48,373.16 C498.36,373.16 497.4,374.12 497.4,375.24 C497.4,376.36 498.36,377.32 499.48,377.32 C500.6,377.32 501.56,376.36 501.56,375.24 Z M515,363.4 C515,363.4 513.4,361.32 510.04,361.32 C506.84,361.32 504.6,363.56 504.6,365.8 C504.6,371.24 512.44,369.64 512.44,372.52 C512.44,373.64 511.64,374.44 509.88,374.44 C507.48,374.44 506.04,372.52 506.04,372.52 L503.96,374.6 C503.96,374.6 505.88,377.32 509.88,377.32 C513.4,377.32 515.64,375.08 515.64,372.52 C515.64,367.08 507.8,368.68 507.8,365.8 C507.8,365 508.6,364.2 510.04,364.2 C511.8,364.2 512.92,365.48 512.92,365.48 L515,363.4 Z M521.08,359.72 C521.08,361 520.44,361.64 519.48,361.64 L517.88,361.64 L517.88,364.52 L520.76,364.52 L520.76,372.52 C520.76,375.72 522.36,377.32 525.24,377.32 C526.52,377.32 527.48,377 527.48,377 L527.48,374.12 C527.48,374.12 526.68,374.44 525.88,374.44 C524.76,374.44 523.96,373.64 523.96,372.488 L523.96,364.52 L527.16,364.52 L527.16,361.64 L523.96,361.64 L523.96,356.52 L521.08,356.52 L521.08,359.72 Z M533.24,366.28 C533.24,366.28 533.240001,366.279999 533.240002,366.279997 L533.24,366.28 Z M533.24,366.28 L531.16,364.2 C531.16,364.2 533.24,361.32 537.24,361.32 C541.08,361.32 543.64,363.88 543.64,367.08 L543.64,377 L540.44,377 L540.44,375.4 C540.44,375.4 538.68,377.32 535.8,377.32 C532.6,377.32 530.36,375.08 530.36,372.84 C530.36,370.28 532.12,368.52 534.84,368.04 L540.44,367.08 C540.44,365.48 539.16,364.2 537.24,364.2 C534.521964,364.2 533.241849,366.276997 533.240002,366.279997 L533.24,366.28 Z M536.28,374.44 C538.84,374.44 540.44,372.84 540.44,369.96 L540.44,369.64 L535.48,370.44 C534.36,370.632 533.56,371.4 533.56,372.52 C533.56,373.48 534.52,374.44 536.28,374.44 Z M550.04,359.72 C550.04,361 549.4,361.64 548.44,361.64 L546.84,361.64 L546.84,364.52 L549.72,364.52 L549.72,372.52 C549.72,375.72 551.32,377.32 554.2,377.32 C555.48,377.32 556.44,377 556.44,377 L556.44,374.12 C556.44,374.12 555.64,374.44 554.84,374.44 C553.72,374.44 552.92,373.64 552.92,372.488 L552.92,364.52 L556.12,364.52 L556.12,361.64 L552.92,361.64 L552.92,356.52 L550.04,356.52 L550.04,359.72 Z M573.88,370.44 L561.88,370.44 C562.2,372.52 564.12,374.44 566.68,374.44 C569.72,374.44 571.32,372.04 571.32,372.04 L573.4,374.12 C573.4,374.12 571,377.32 566.68,377.32 C562.36,377.32 558.68,373.64 558.68,369.16 C558.68,364.84 562.2,361.32 566.52,361.32 C570.84,361.32 574.04,364.52 574.04,368.84 C574.04,369.8 573.88,370.44 573.88,370.44 Z M566.52,364.04 C564.12,364.04 562.52,365.64 562.008,367.72 L570.904,367.72 C570.52,365.64 568.92,364.04 566.52,364.04 Z M581.24,375.24 C581.24,374.12 580.28,373.16 579.16,373.16 C578.04,373.16 577.08,374.12 577.08,375.24 C577.08,376.36 578.04,377.32 579.16,377.32 C580.28,377.32 581.24,376.36 581.24,375.24 Z M586.84,359.72 C586.84,361 586.2,361.64 585.24,361.64 L583.64,361.64 L583.64,364.52 L586.52,364.52 L586.52,372.52 C586.52,375.72 588.12,377.32 591,377.32 C592.28,377.32 593.24,377 593.24,377 L593.24,374.12 C593.24,374.12 592.44,374.44 591.64,374.44 C590.52,374.44 589.72,373.64 589.72,372.488 L589.72,364.52 L592.92,364.52 L592.92,361.64 L589.72,361.64 L589.72,356.52 L586.84,356.52 L586.84,359.72 Z M608.28,369.32 C608.28,366.44 606.04,364.2 603.48,364.2 C600.92,364.2 598.68,366.44 598.68,369.32 C598.68,372.2 600.92,374.44 603.48,374.44 C606.04,374.44 608.28,372.2 608.28,369.32 Z M595.48,369.32 C595.48,365 599.16,361.32 603.48,361.32 C607.8,361.32 611.48,365 611.48,369.32 C611.48,373.64 607.8,377.32 603.48,377.32 C599.16,377.32 595.48,373.64 595.48,369.32 Z M621.56,361.32 C624.6,361.32 626.52,363.4 626.52,363.4 L626.52,354.6 L629.72,354.6 L629.72,377 L626.52,377 L626.52,375.24 C626.52,375.24 624.6,377.32 621.56,377.32 C617.56,377.32 614.04,373.8 614.04,369.32 C614.04,364.84 617.56,361.32 621.56,361.32 Z M621.88,374.44 C624.28,374.44 626.52,372.2 626.52,369.32 C626.52,366.44 624.28,364.2 621.88,364.2 C619.48,364.2 617.24,366.44 617.24,369.32 C617.24,372.2 619.48,374.44 621.88,374.44 Z M646.36,369.32 C646.36,366.44 644.12,364.2 641.56,364.2 C639,364.2 636.76,366.44 636.76,369.32 C636.76,372.2 639,374.44 641.56,374.44 C644.12,374.44 646.36,372.2 646.36,369.32 Z M633.56,369.32 C633.56,365 637.24,361.32 641.56,361.32 C645.88,361.32 649.56,365 649.56,369.32 C649.56,373.64 645.88,377.32 641.56,377.32 C637.24,377.32 633.56,373.64 633.56,369.32 Z M662.84,363.4 C662.84,363.4 661.24,361.32 657.88,361.32 C654.68,361.32 652.44,363.56 652.44,365.8 C652.44,371.24 660.28,369.64 660.28,372.52 C660.28,373.64 659.48,374.44 657.72,374.44 C655.32,374.44 653.88,372.52 653.88,372.52 L651.8,374.6 C651.8,374.6 653.72,377.32 657.72,377.32 C661.24,377.32 663.48,375.08 663.48,372.52 C663.48,367.08 655.64,368.68 655.64,365.8 C655.64,365 656.44,364.2 657.88,364.2 C659.64,364.2 660.76,365.48 660.76,365.48 L662.84,363.4 Z M668.12,373.16 L664.92,380.04 L667,381.16 L671,374.76 L668.12,373.16 Z M689.4,359.72 C689.4,361 688.76,361.64 687.8,361.64 L686.2,361.64 L686.2,364.52 L689.08,364.52 L689.08,372.52 C689.08,375.72 690.68,377.32 693.56,377.32 C694.84,377.32 695.8,377 695.8,377 L695.8,374.12 C695.8,374.12 695,374.44 694.2,374.44 C693.08,374.44 692.28,373.64 692.28,372.488 L692.28,364.52 L695.48,364.52 L695.48,361.64 L692.28,361.64 L692.28,356.52 L689.4,356.52 L689.4,359.72 Z M710.84,369.32 C710.84,366.44 708.6,364.2 706.04,364.2 C703.48,364.2 701.24,366.44 701.24,369.32 C701.24,372.2 703.48,374.44 706.04,374.44 C708.6,374.44 710.84,372.2 710.84,369.32 Z M698.04,369.32 C698.04,365 701.72,361.32 706.04,361.32 C710.36,361.32 714.04,365 714.04,369.32 C714.04,373.64 710.36,377.32 706.04,377.32 C701.72,377.32 698.04,373.64 698.04,369.32 Z M724.12,361.32 C727.16,361.32 729.08,363.4 729.08,363.4 L729.08,354.6 L732.28,354.6 L732.28,377 L729.08,377 L729.08,375.24 C729.08,375.24 727.16,377.32 724.12,377.32 C720.12,377.32 716.6,373.8 716.6,369.32 C716.6,364.84 720.12,361.32 724.12,361.32 Z M724.44,374.44 C726.84,374.44 729.08,372.2 729.08,369.32 C729.08,366.44 726.84,364.2 724.44,364.2 C722.04,364.2 719.8,366.44 719.8,369.32 C719.8,372.2 722.04,374.44 724.44,374.44 Z M748.92,369.32 C748.92,366.44 746.68,364.2 744.12,364.2 C741.56,364.2 739.32,366.44 739.32,369.32 C739.32,372.2 741.56,374.44 744.12,374.44 C746.68,374.44 748.92,372.2 748.92,369.32 Z M736.12,369.32 C736.12,365 739.8,361.32 744.12,361.32 C748.44,361.32 752.12,365 752.12,369.32 C752.12,373.64 748.44,377.32 744.12,377.32 C739.8,377.32 736.12,373.64 736.12,369.32 Z M758.68,381.16 L754.52,381.16 L754.52,383.72 L761.56,383.72 L761.56,354.28 L754.52,354.28 L754.52,356.84 L758.68,356.84 L758.68,381.16 Z M767.32,373.16 L764.12,380.04 L766.2,381.16 L770.2,374.76 L767.32,373.16 Z M766.2,363.4 C766.2,364.52 767.16,365.48 768.28,365.48 C769.4,365.48 770.36,364.52 770.36,363.4 C770.36,362.28 769.4,361.32 768.28,361.32 C767.16,361.32 766.2,362.28 766.2,363.4 Z M282.52,406.36 L282.52,403.32 L281.72,403.32 C278.84,403.32 277.08,405.24 277.08,405.24 L277.08,403.64 L273.88,403.64 L273.88,419 L277.08,419 L277.08,410.68 C277.08,407.8 278.68,406.2 281.08,406.2 C281.88,406.2 282.52,406.36 282.52,406.36 Z M299.32,412.44 L287.32,412.44 C287.64,414.52 289.56,416.44 292.12,416.44 C295.16,416.44 296.76,414.04 296.76,414.04 L298.84,416.12 C298.84,416.12 296.44,419.32 292.12,419.32 C287.8,419.32 284.12,415.64 284.12,411.16 C284.12,406.84 287.64,403.32 291.96,403.32 C296.28,403.32 299.48,406.52 299.48,410.84 C299.48,411.8 299.32,412.44 299.32,412.44 Z M291.96,406.04 C289.56,406.04 287.96,407.64 287.448,409.72 L296.344,409.72 C295.96,407.64 294.36,406.04 291.96,406.04 Z M304.92,401.72 C304.92,403 304.28,403.64 303.32,403.64 L301.72,403.64 L301.72,406.52 L304.6,406.52 L304.6,414.52 C304.6,417.72 306.2,419.32 309.08,419.32 C310.36,419.32 311.32,419 311.32,419 L311.32,416.12 C311.32,416.12 310.52,416.44 309.72,416.44 C308.6,416.44 307.8,415.64 307.8,414.488 L307.8,406.52 L311,406.52 L311,403.64 L307.8,403.64 L307.8,398.52 L304.92,398.52 L304.92,401.72 Z M326.04,419 L329.24,419 L329.24,403.64 L326.04,403.64 L326.04,411.96 C326.04,414.84 324.44,416.44 322.04,416.44 C319.96,416.44 318.36,414.84 318.36,412.6 L318.36,403.64 L315.16,403.64 L315.16,412.6 C315.16,416.76 317.72,419.32 321.4,419.32 C324.28,419.32 326.04,417.4 326.04,417.4 L326.04,419 Z M342.52,406.36 L342.52,403.32 L341.72,403.32 C338.84,403.32 337.08,405.24 337.08,405.24 L337.08,403.64 L333.88,403.64 L333.88,419 L337.08,419 L337.08,410.68 C337.08,407.8 338.68,406.2 341.08,406.2 C341.88,406.2 342.52,406.36 342.52,406.36 Z M348.28,403.64 L345.08,403.64 L345.08,419 L348.28,419 L348.28,410.68 C348.28,407.8 349.88,406.2 352.28,406.2 C354.36,406.2 355.96,407.8 355.96,410.04 L355.96,419 L359.16,419 L359.16,410.04 C359.16,405.88 356.6,403.32 352.92,403.32 C350.04,403.32 348.28,405.24 348.28,405.24 L348.28,403.64 Z M369.72,412.76 C371,412.76 371.8,413.56 371.8,414.84 L371.8,420.28 C371.8,423.8 373.72,425.72 377.08,425.72 L379.48,425.72 L379.48,421.88 L377.88,421.88 C376.76,421.88 375.96,421.08 375.96,419.896 L375.96,414.68 C375.96,411.48 373.88,411 373.88,411 C373.88,411 375.96,410.52 375.96,407.32 L375.96,402.136 C375.96,400.92 376.76,400.12 377.88,400.12 L379.48,400.12 L379.48,396.28 L377.08,396.28 C373.72,396.28 371.8,398.2 371.8,401.72 L371.8,407.16 C371.8,408.44 371,409.24 369.72,409.24 L369.72,412.76 Z M391,401.56 C391,402.84 390.2,403.64 389.24,403.64 L387.8,403.64 L387.8,407.48 L390.52,407.48 L390.52,413.88 C390.52,417.56 392.28,419.32 395.48,419.32 C397.08,419.32 398.36,418.84 398.36,418.84 L398.36,415.16 C398.36,415.16 397.72,415.48 396.76,415.48 C395.64,415.48 394.84,414.68 394.84,413.72 L394.84,407.48 L398.04,407.48 L398.04,403.64 L394.84,403.64 L394.84,398.68 L391,398.68 L391,401.56 Z M404.92,411.16 C404.92,413.56 406.68,415.32 408.76,415.32 C410.84,415.32 412.6,413.56 412.6,411.16 C412.6,408.76 410.84,407 408.76,407 C406.68,407 404.92,408.76 404.92,411.16 Z M417.08,411.16 C417.08,415.48 413.24,419.32 408.76,419.32 C404.28,419.32 400.44,415.48 400.44,411.16 C400.44,406.84 404.28,403 408.76,403 C413.24,403 417.08,406.84 417.08,411.16 Z M426.84,403 C429.88,403 431.48,405.24 431.48,405.24 L431.48,396.6 L435.8,396.6 L435.8,419 L431.48,419 L431.48,417.08 C431.48,417.08 429.88,419.32 426.84,419.32 C422.84,419.32 419.32,415.8 419.32,411.16 C419.32,406.52 422.84,403 426.84,403 Z M427.64,415.48 C429.72,415.48 431.48,413.72 431.48,411.16 C431.48,408.6 429.72,406.84 427.64,406.84 C425.56,406.84 423.8,408.6 423.8,411.16 C423.8,413.72 425.56,415.48 427.64,415.48 Z M443.64,411.16 C443.64,413.56 445.4,415.32 447.48,415.32 C449.56,415.32 451.32,413.56 451.32,411.16 C451.32,408.76 449.56,407 447.48,407 C445.4,407 443.64,408.76 443.64,411.16 Z M455.8,411.16 C455.8,415.48 451.96,419.32 447.48,419.32 C443,419.32 439.16,415.48 439.16,411.16 C439.16,406.84 443,403 447.48,403 C451.96,403 455.8,406.84 455.8,411.16 Z M469.88,405.4 C469.88,405.4 468.12,403 464.44,403 C460.92,403 458.36,405.56 458.36,407.96 C458.36,413.144 465.56,411.96 465.56,414.36 C465.56,415.16 464.92,415.8 463.48,415.8 C461.4,415.8 460.12,414.04 460.12,414.04 L457.72,416.44 C457.72,416.44 459.64,419.32 464.12,419.32 C468.12,419.32 470.36,417.08 470.36,414.36 C470.36,409.08 463.16,410.2 463.16,407.96 C463.16,407.32 463.8,406.68 465.08,406.68 C466.68,406.68 467.64,407.96 467.64,407.96 L469.88,405.4 Z M489.08,409.24 C487.8,409.24 487,408.44 487,407.16 L487,401.72 C487,398.2 485.08,396.28 481.72,396.28 L479.32,396.28 L479.32,400.12 L480.92,400.12 C482.04,400.12 482.84,400.92 482.84,402.136 L482.84,407.32 C482.84,410.52 484.92,411 484.92,411 C484.92,411 482.84,411.48 482.84,414.68 L482.84,419.896 C482.84,421.08 482.04,421.88 480.92,421.88 L479.32,421.88 L479.32,425.72 L481.72,425.72 C485.08,425.72 487,423.8 487,420.28 L487,414.84 C487,413.56 487.8,412.76 489.08,412.76 L489.08,409.24 Z M494.04,415.16 L490.84,422.04 L492.92,423.16 L496.92,416.76 L494.04,415.16 Z M492.92,405.4 C492.92,406.52 493.88,407.48 495,407.48 C496.12,407.48 497.08,406.52 497.08,405.4 C497.08,404.28 496.12,403.32 495,403.32 C493.88,403.32 492.92,404.28 492.92,405.4 Z M255.8,451.72 C254.52,451.72 253.88,451.08 253.88,449.8 L253.88,442.92 C253.88,440.04 252.12,438.28 248.92,438.28 L247.16,438.28 L247.16,440.84 L248.92,440.84 C250.2,440.84 251,441.64 251,442.92 L251,449.8 C251,452.68 252.76,453 252.728,453 C252.76,453 251,453.32 251,456.2 L251,463.08 C251,464.36 250.2,465.16 248.92,465.16 L247.16,465.16 L247.16,467.72 L248.92,467.72 C252.12,467.72 253.88,465.96 253.88,463.08 L253.88,456.2 C253.88,454.92 254.52,454.28 255.8,454.28 L255.8,451.72 Z M230.2,493.72 C228.92,493.72 228.28,493.08 228.28,491.8 L228.28,484.92 C228.28,482.04 226.52,480.28 223.32,480.28 L221.56,480.28 L221.56,482.84 L223.32,482.84 C224.6,482.84 225.4,483.64 225.4,484.92 L225.4,491.8 C225.4,494.68 227.16,495 227.128,495 C227.16,495 225.4,495.32 225.4,498.2 L225.4,505.08 C225.4,506.36 224.6,507.16 223.32,507.16 L221.56,507.16 L221.56,509.72 L223.32,509.72 C226.52,509.72 228.28,507.96 228.28,505.08 L228.28,498.2 C228.28,496.92 228.92,496.28 230.2,496.28 L230.2,493.72 Z M231.32,532.36 L231.32,529.32 L230.52,529.32 C227.64,529.32 225.88,531.24 225.88,531.24 L225.88,529.64 L222.68,529.64 L222.68,545 L225.88,545 L225.88,536.68 C225.88,533.8 227.48,532.2 229.88,532.2 C230.68,532.2 231.32,532.36 231.32,532.36 Z M248.12,538.44 L236.12,538.44 C236.44,540.52 238.36,542.44 240.92,542.44 C243.96,542.44 245.56,540.04 245.56,540.04 L247.64,542.12 C247.64,542.12 245.24,545.32 240.92,545.32 C236.6,545.32 232.92,541.64 232.92,537.16 C232.92,532.84 236.44,529.32 240.76,529.32 C245.08,529.32 248.28,532.52 248.28,536.84 C248.28,537.8 248.12,538.44 248.12,538.44 Z M240.76,532.04 C238.36,532.04 236.76,533.64 236.248,535.72 L245.144,535.72 C244.76,533.64 243.16,532.04 240.76,532.04 Z M253.72,527.72 C253.72,529 253.08,529.64 252.12,529.64 L250.52,529.64 L250.52,532.52 L253.4,532.52 L253.4,540.52 C253.4,543.72 255,545.32 257.88,545.32 C259.16,545.32 260.12,545 260.12,545 L260.12,542.12 C260.12,542.12 259.32,542.44 258.52,542.44 C257.4,542.44 256.6,541.64 256.6,540.488 L256.6,532.52 L259.8,532.52 L259.8,529.64 L256.6,529.64 L256.6,524.52 L253.72,524.52 L253.72,527.72 Z M274.84,545 L278.04,545 L278.04,529.64 L274.84,529.64 L274.84,537.96 C274.84,540.84 273.24,542.44 270.84,542.44 C268.76,542.44 267.16,540.84 267.16,538.6 L267.16,529.64 L263.96,529.64 L263.96,538.6 C263.96,542.76 266.52,545.32 270.2,545.32 C273.08,545.32 274.84,543.4 274.84,543.4 L274.84,545 Z M291.32,532.36 L291.32,529.32 L290.52,529.32 C287.64,529.32 285.88,531.24 285.88,531.24 L285.88,529.64 L282.68,529.64 L282.68,545 L285.88,545 L285.88,536.68 C285.88,533.8 287.48,532.2 289.88,532.2 C290.68,532.2 291.32,532.36 291.32,532.36 Z M297.08,529.64 L293.88,529.64 L293.88,545 L297.08,545 L297.08,536.68 C297.08,533.8 298.68,532.2 301.08,532.2 C303.16,532.2 304.76,533.8 304.76,536.04 L304.76,545 L307.96,545 L307.96,536.04 C307.96,531.88 305.4,529.32 301.72,529.32 C298.84,529.32 297.08,531.24 297.08,531.24 L297.08,529.64 Z M328.6,531.4 C328.6,531.4 327,529.32 323.64,529.32 C320.44,529.32 318.2,531.56 318.2,533.8 C318.2,539.24 326.04,537.64 326.04,540.52 C326.04,541.64 325.24,542.44 323.48,542.44 C321.08,542.44 319.64,540.52 319.64,540.52 L317.56,542.6 C317.56,542.6 319.48,545.32 323.48,545.32 C327,545.32 329.24,543.08 329.24,540.52 C329.24,535.08 321.4,536.68 321.4,533.8 C321.4,533 322.2,532.2 323.64,532.2 C325.4,532.2 326.52,533.48 326.52,533.48 L328.6,531.4 Z M334.68,527.72 C334.68,529 334.04,529.64 333.08,529.64 L331.48,529.64 L331.48,532.52 L334.36,532.52 L334.36,540.52 C334.36,543.72 335.96,545.32 338.84,545.32 C340.12,545.32 341.08,545 341.08,545 L341.08,542.12 C341.08,542.12 340.28,542.44 339.48,542.44 C338.36,542.44 337.56,541.64 337.56,540.488 L337.56,532.52 L340.76,532.52 L340.76,529.64 L337.56,529.64 L337.56,524.52 L334.68,524.52 L334.68,527.72 Z M357.24,545 L354.04,545 L354.04,543.4 C354.04,543.4 352.28,545.32 349.4,545.32 C346.2,545.32 343.96,543.08 343.96,540.84 C343.96,538.28 345.72,536.52 348.44,536.04 L354.04,535.08 C354.04,533.48 352.76,532.2 350.84,532.2 C348.12,532.2 346.84,534.28 346.84,534.28 L344.76,532.2 C344.76,532.2 346.84,529.32 350.84,529.32 C354.68,529.32 357.24,531.88 357.24,535.08 L357.24,545 Z M349.88,542.44 C352.44,542.44 354.04,540.84 354.04,537.96 L354.04,537.64 L349.08,538.44 C347.96,538.632 347.16,539.4 347.16,540.52 C347.16,541.48 348.12,542.44 349.88,542.44 Z M363.64,527.72 C363.64,529 363,529.64 362.04,529.64 L360.44,529.64 L360.44,532.52 L363.32,532.52 L363.32,540.52 C363.32,543.72 364.92,545.32 367.8,545.32 C369.08,545.32 370.04,545 370.04,545 L370.04,542.12 C370.04,542.12 369.24,542.44 368.44,542.44 C367.32,542.44 366.52,541.64 366.52,540.488 L366.52,532.52 L369.72,532.52 L369.72,529.64 L366.52,529.64 L366.52,524.52 L363.64,524.52 L363.64,527.72 Z M387.48,538.44 L375.48,538.44 C375.8,540.52 377.72,542.44 380.28,542.44 C383.32,542.44 384.92,540.04 384.92,540.04 L387,542.12 C387,542.12 384.6,545.32 380.28,545.32 C375.96,545.32 372.28,541.64 372.28,537.16 C372.28,532.84 375.8,529.32 380.12,529.32 C384.44,529.32 387.64,532.52 387.64,536.84 C387.64,537.8 387.48,538.44 387.48,538.44 Z M380.12,532.04 C377.72,532.04 376.12,533.64 375.608,535.72 L384.504,535.72 C384.12,533.64 382.52,532.04 380.12,532.04 Z M392.28,541.16 L389.08,548.04 L391.16,549.16 L395.16,542.76 L392.28,541.16 Z M391.16,531.4 C391.16,532.52 392.12,533.48 393.24,533.48 C394.36,533.48 395.32,532.52 395.32,531.4 C395.32,530.28 394.36,529.32 393.24,529.32 C392.12,529.32 391.16,530.28 391.16,531.4 Z M204.6,577.72 C203.32,577.72 202.68,577.08 202.68,575.8 L202.68,568.92 C202.68,566.04 200.92,564.28 197.72,564.28 L195.96,564.28 L195.96,566.84 L197.72,566.84 C199,566.84 199.8,567.64 199.8,568.92 L199.8,575.8 C199.8,578.68 201.56,579 201.528,579 C201.56,579 199.8,579.32 199.8,582.2 L199.8,589.08 C199.8,590.36 199,591.16 197.72,591.16 L195.96,591.16 L195.96,593.72 L197.72,593.72 C200.92,593.72 202.68,591.96 202.68,589.08 L202.68,582.2 C202.68,580.92 203.32,580.28 204.6,580.28 L204.6,577.72 Z" id="function-reducer(sta" fill="#545E6F"></path>
        </g>
    </g>
</svg>