<?xml version="1.0" encoding="UTF-8"?>
<svg width="1280px" height="720px" viewBox="0 0 1280 720" version="1.1" xmlns="http://www.w3.org/2000/svg" xmlns:xlink="http://www.w3.org/1999/xlink" style="background: #FFFFFF;">
    <!-- Generator: Sketch 47.1 (45422) - http://www.bohemiancoding.com/sketch -->
    <title>2</title>
    <desc>Created with Sketch.</desc>
    <defs></defs>
    <g id="Page-1" stroke="none" stroke-width="1" fill="none" fill-rule="evenodd">
        <g id="2">
            <g id="Group" transform="translate(125.000000, 45.000000)">
                <rect id="Rectangle-7" fill="#F4F6F8" x="0" y="24" width="1030" height="606" rx="15"></rect>
                <path d="M15,0 L1015,0 L1015,1.77635684e-15 C1023.28427,5.91178485e-14 1030,6.71572875 1030,15 L1030,58 L0,58 L0,15 L-1.77635684e-15,15 C-2.79088747e-15,6.71572875 6.71572875,-2.54560899e-16 15,-1.77635684e-15 Z" id="Rectangle" fill="#F9BE65"></path>
                <path d="M456.16,38 L456.16,21.2 L463.6,21.2 C466.96,21.2 469.36,23.648 469.36,26.72 C469.36,30.32 466.36,31.64 466.36,31.64 L469.96,38 L466.12,38 L462.88,32.12 L459.76,32.12 L459.76,38 L456.16,38 Z M465.76,26.72 C465.76,25.4 464.8,24.44 463.48,24.44 L459.76,24.44 L459.76,28.88 L463.48,28.88 C464.8,28.88 465.76,27.92 465.76,26.72 Z M476.8,34.76 L476.8,31.04 L483.64,31.04 L483.64,27.8 L476.8,27.8 L476.8,24.44 L485.56,24.44 L485.56,21.2 L473.2,21.2 L473.2,38 L485.8,38 L485.8,34.76 L476.8,34.76 Z M489.16,21.2 L495.4,21.2 C500.32,21.2 504.04,24.92 504.04,29.6 C504.04,34.28 500.32,38 495.4,38 L489.16,38 L489.16,21.2 Z M495.4,24.44 L492.76,24.44 L492.76,34.76 L495.4,34.76 C498.16,34.76 500.44,32.48 500.44,29.6 C500.44,26.72 498.28,24.44 495.4,24.44 Z M514.6,35.12 C512.56,35.12 510.88,33.44 510.88,31.16 L510.88,21.2 L507.28,21.2 L507.28,31.16 C507.28,35.24 510.4,38.36 514.6,38.36 C518.8,38.36 521.92,35.24 521.92,31.16 L521.92,21.2 L518.32,21.2 L518.32,31.16 C518.32,33.44 516.64,35.12 514.6,35.12 Z M534.28,20.84 C529.12,20.84 525.16,24.8 525.16,29.6 C525.16,34.4 529.12,38.36 534.28,38.36 C538.96,38.36 541.36,35 541.36,35 L539.2,32.72 C539.2,32.72 537.52,35.12 534.28,35.12 C531.16,35.12 528.76,32.72 528.76,29.6 C528.76,26.48 531.16,24.08 534.28,24.08 C537.4,24.08 538.96,26.48 538.96,26.48 L541.24,24.2 C541.24,24.2 538.96,20.84 534.28,20.84 Z M547.84,34.76 L547.84,31.04 L554.68,31.04 L554.68,27.8 L547.84,27.8 L547.84,24.44 L556.6,24.44 L556.6,21.2 L544.24,21.2 L544.24,38 L556.84,38 L556.84,34.76 L547.84,34.76 Z M560.2,38 L560.2,21.2 L567.64,21.2 C571,21.2 573.4,23.648 573.4,26.72 C573.4,30.32 570.4,31.64 570.4,31.64 L574,38 L570.16,38 L566.92,32.12 L563.8,32.12 L563.8,38 L560.2,38 Z M569.8,26.72 C569.8,25.4 568.84,24.44 567.52,24.44 L563.8,24.44 L563.8,28.88 L567.52,28.88 C568.84,28.88 569.8,27.92 569.8,26.72 Z" id="REDUCER" fill="#FFFFFF"></path>
            </g>
            <path d="M204.76,158.64 L201.24,158.64 L201.24,156.112 C201.24,154.96 202.04,154.16 203.16,154.16 C203.96,154.16 204.76,154.48 204.76,154.48 L204.76,151.6 C204.76,151.6 203.8,151.28 202.52,151.28 C199.64,151.28 198.04,152.88 198.04,156.08 L198.04,158.64 L195.8,158.64 L195.8,161.52 L198.04,161.52 L198.04,174 L201.24,174 L201.24,161.52 L204.76,161.52 L204.76,158.64 Z M218.84,174 L222.04,174 L222.04,158.64 L218.84,158.64 L218.84,166.96 C218.84,169.84 217.24,171.44 214.84,171.44 C212.76,171.44 211.16,169.84 211.16,167.6 L211.16,158.64 L207.96,158.64 L207.96,167.6 C207.96,171.76 210.52,174.32 214.2,174.32 C217.08,174.32 218.84,172.4 218.84,172.4 L218.84,174 Z M229.88,158.64 L226.68,158.64 L226.68,174 L229.88,174 L229.88,165.68 C229.88,162.8 231.48,161.2 233.88,161.2 C235.96,161.2 237.56,162.8 237.56,165.04 L237.56,174 L240.76,174 L240.76,165.04 C240.76,160.88 238.2,158.32 234.52,158.32 C231.64,158.32 229.88,160.24 229.88,160.24 L229.88,158.64 Z M244.28,166.32 C244.28,170.64 247.96,174.32 252.28,174.32 C256.28,174.32 258.68,171.12 258.68,171.12 L256.6,169.04 C256.6,169.04 255,171.44 252.28,171.44 C249.72,171.44 247.48,169.2 247.48,166.32 C247.48,163.44 249.72,161.2 252.28,161.2 C255,161.2 256.44,163.44 256.44,163.44 L258.52,161.36 C258.52,161.36 256.28,158.32 252.28,158.32 C247.96,158.32 244.28,162 244.28,166.32 Z M263.8,156.72 C263.8,158 263.16,158.64 262.2,158.64 L260.6,158.64 L260.6,161.52 L263.48,161.52 L263.48,169.52 C263.48,172.72 265.08,174.32 267.96,174.32 C269.24,174.32 270.2,174 270.2,174 L270.2,171.12 C270.2,171.12 269.4,171.44 268.6,171.44 C267.48,171.44 266.68,170.64 266.68,169.488 L266.68,161.52 L269.88,161.52 L269.88,158.64 L266.68,158.64 L266.68,153.52 L263.8,153.52 L263.8,156.72 Z M277.4,158.64 L274.2,158.64 L274.2,174 L277.4,174 L277.4,158.64 Z M277.72,153.84 C277.72,152.72 276.92,151.92 275.8,151.92 C274.68,151.92 273.88,152.72 273.88,153.84 C273.88,154.96 274.68,155.76 275.8,155.76 C276.92,155.76 277.72,154.96 277.72,153.84 Z M293.88,166.32 C293.88,163.44 291.64,161.2 289.08,161.2 C286.52,161.2 284.28,163.44 284.28,166.32 C284.28,169.2 286.52,171.44 289.08,171.44 C291.64,171.44 293.88,169.2 293.88,166.32 Z M281.08,166.32 C281.08,162 284.76,158.32 289.08,158.32 C293.4,158.32 297.08,162 297.08,166.32 C297.08,170.64 293.4,174.32 289.08,174.32 C284.76,174.32 281.08,170.64 281.08,166.32 Z M303.8,158.64 L300.6,158.64 L300.6,174 L303.8,174 L303.8,165.68 C303.8,162.8 305.4,161.2 307.8,161.2 C309.88,161.2 311.48,162.8 311.48,165.04 L311.48,174 L314.68,174 L314.68,165.04 C314.68,160.88 312.12,158.32 308.44,158.32 C305.56,158.32 303.8,160.24 303.8,160.24 L303.8,158.64 Z M334.2,161.36 L334.2,158.32 L333.4,158.32 C330.52,158.32 328.76,160.24 328.76,160.24 L328.76,158.64 L325.56,158.64 L325.56,174 L328.76,174 L328.76,165.68 C328.76,162.8 330.36,161.2 332.76,161.2 C333.56,161.2 334.2,161.36 334.2,161.36 Z M351,167.44 L339,167.44 C339.32,169.52 341.24,171.44 343.8,171.44 C346.84,171.44 348.44,169.04 348.44,169.04 L350.52,171.12 C350.52,171.12 348.12,174.32 343.8,174.32 C339.48,174.32 335.8,170.64 335.8,166.16 C335.8,161.84 339.32,158.32 343.64,158.32 C347.96,158.32 351.16,161.52 351.16,165.84 C351.16,166.8 351,167.44 351,167.44 Z M343.64,161.04 C341.24,161.04 339.64,162.64 339.128,164.72 L348.024,164.72 C347.64,162.64 346.04,161.04 343.64,161.04 Z M361.24,158.32 C364.28,158.32 366.2,160.4 366.2,160.4 L366.2,151.6 L369.4,151.6 L369.4,174 L366.2,174 L366.2,172.24 C366.2,172.24 364.28,174.32 361.24,174.32 C357.24,174.32 353.72,170.8 353.72,166.32 C353.72,161.84 357.24,158.32 361.24,158.32 Z M361.56,171.44 C363.96,171.44 366.2,169.2 366.2,166.32 C366.2,163.44 363.96,161.2 361.56,161.2 C359.16,161.2 356.92,163.44 356.92,166.32 C356.92,169.2 359.16,171.44 361.56,171.44 Z M385.08,174 L388.28,174 L388.28,158.64 L385.08,158.64 L385.08,166.96 C385.08,169.84 383.48,171.44 381.08,171.44 C379,171.44 377.4,169.84 377.4,167.6 L377.4,158.64 L374.2,158.64 L374.2,167.6 C374.2,171.76 376.76,174.32 380.44,174.32 C383.32,174.32 385.08,172.4 385.08,172.4 L385.08,174 Z M391.96,166.32 C391.96,170.64 395.64,174.32 399.96,174.32 C403.96,174.32 406.36,171.12 406.36,171.12 L404.28,169.04 C404.28,169.04 402.68,171.44 399.96,171.44 C397.4,171.44 395.16,169.2 395.16,166.32 C395.16,163.44 397.4,161.2 399.96,161.2 C402.68,161.2 404.12,163.44 404.12,163.44 L406.2,161.36 C406.2,161.36 403.96,158.32 399.96,158.32 C395.64,158.32 391.96,162 391.96,166.32 Z M423.8,167.44 L411.8,167.44 C412.12,169.52 414.04,171.44 416.6,171.44 C419.64,171.44 421.24,169.04 421.24,169.04 L423.32,171.12 C423.32,171.12 420.92,174.32 416.6,174.32 C412.28,174.32 408.6,170.64 408.6,166.16 C408.6,161.84 412.12,158.32 416.44,158.32 C420.76,158.32 423.96,161.52 423.96,165.84 C423.96,166.8 423.8,167.44 423.8,167.44 Z M416.44,161.04 C414.04,161.04 412.44,162.64 411.928,164.72 L420.824,164.72 C420.44,162.64 418.84,161.04 416.44,161.04 Z M436.12,161.36 L436.12,158.32 L435.32,158.32 C432.44,158.32 430.68,160.24 430.68,160.24 L430.68,158.64 L427.48,158.64 L427.48,174 L430.68,174 L430.68,165.68 C430.68,162.8 432.28,161.2 434.68,161.2 C435.48,161.2 436.12,161.36 436.12,161.36 Z M442.04,166 C442.04,158 446.52,152.24 446.52,152.24 L444.12,150.8 C444.12,150.8 439.16,156.72 439.16,166 C439.16,175.28 444.12,181.2 444.12,181.2 L446.52,179.76 C446.52,179.76 442.04,174 442.04,166 Z M459.32,160.4 C459.32,160.4 457.72,158.32 454.36,158.32 C451.16,158.32 448.92,160.56 448.92,162.8 C448.92,168.24 456.76,166.64 456.76,169.52 C456.76,170.64 455.96,171.44 454.2,171.44 C451.8,171.44 450.36,169.52 450.36,169.52 L448.28,171.6 C448.28,171.6 450.2,174.32 454.2,174.32 C457.72,174.32 459.96,172.08 459.96,169.52 C459.96,164.08 452.12,165.68 452.12,162.8 C452.12,162 452.92,161.2 454.36,161.2 C456.12,161.2 457.24,162.48 457.24,162.48 L459.32,160.4 Z M465.4,156.72 C465.4,158 464.76,158.64 463.8,158.64 L462.2,158.64 L462.2,161.52 L465.08,161.52 L465.08,169.52 C465.08,172.72 466.68,174.32 469.56,174.32 C470.84,174.32 471.8,174 471.8,174 L471.8,171.12 C471.8,171.12 471,171.44 470.2,171.44 C469.08,171.44 468.28,170.64 468.28,169.488 L468.28,161.52 L471.48,161.52 L471.48,158.64 L468.28,158.64 L468.28,153.52 L465.4,153.52 L465.4,156.72 Z M487.96,174 L484.76,174 L484.76,172.4 C484.76,172.4 483,174.32 480.12,174.32 C476.92,174.32 474.68,172.08 474.68,169.84 C474.68,167.28 476.44,165.52 479.16,165.04 L484.76,164.08 C484.76,162.48 483.48,161.2 481.56,161.2 C478.84,161.2 477.56,163.28 477.56,163.28 L475.48,161.2 C475.48,161.2 477.56,158.32 481.56,158.32 C485.4,158.32 487.96,160.88 487.96,164.08 L487.96,174 Z M480.6,171.44 C483.16,171.44 484.76,169.84 484.76,166.96 L484.76,166.64 L479.8,167.44 C478.68,167.632 477.88,168.4 477.88,169.52 C477.88,170.48 478.84,171.44 480.6,171.44 Z M494.36,156.72 C494.36,158 493.72,158.64 492.76,158.64 L491.16,158.64 L491.16,161.52 L494.04,161.52 L494.04,169.52 C494.04,172.72 495.64,174.32 498.52,174.32 C499.8,174.32 500.76,174 500.76,174 L500.76,171.12 C500.76,171.12 499.96,171.44 499.16,171.44 C498.04,171.44 497.24,170.64 497.24,169.488 L497.24,161.52 L500.44,161.52 L500.44,158.64 L497.24,158.64 L497.24,153.52 L494.36,153.52 L494.36,156.72 Z M518.2,167.44 L506.2,167.44 C506.52,169.52 508.44,171.44 511,171.44 C514.04,171.44 515.64,169.04 515.64,169.04 L517.72,171.12 C517.72,171.12 515.32,174.32 511,174.32 C506.68,174.32 503,170.64 503,166.16 C503,161.84 506.52,158.32 510.84,158.32 C515.16,158.32 518.36,161.52 518.36,165.84 C518.36,166.8 518.2,167.44 518.2,167.44 Z M510.84,161.04 C508.44,161.04 506.84,162.64 506.328,164.72 L515.224,164.72 C514.84,162.64 513.24,161.04 510.84,161.04 Z M523,170.16 L519.8,177.04 L521.88,178.16 L525.88,171.76 L523,170.16 Z M548.28,174 L545.08,174 L545.08,172.4 C545.08,172.4 543.32,174.32 540.44,174.32 C537.24,174.32 535,172.08 535,169.84 C535,167.28 536.76,165.52 539.48,165.04 L545.08,164.08 C545.08,162.48 543.8,161.2 541.88,161.2 C539.16,161.2 537.88,163.28 537.88,163.28 L535.8,161.2 C535.8,161.2 537.88,158.32 541.88,158.32 C545.72,158.32 548.28,160.88 548.28,164.08 L548.28,174 Z M540.92,171.44 C543.48,171.44 545.08,169.84 545.08,166.96 L545.08,166.64 L540.12,167.44 C539,167.632 538.2,168.4 538.2,169.52 C538.2,170.48 539.16,171.44 540.92,171.44 Z M551.8,166.32 C551.8,170.64 555.48,174.32 559.8,174.32 C563.8,174.32 566.2,171.12 566.2,171.12 L564.12,169.04 C564.12,169.04 562.52,171.44 559.8,171.44 C557.24,171.44 555,169.2 555,166.32 C555,163.44 557.24,161.2 559.8,161.2 C562.52,161.2 563.96,163.44 563.96,163.44 L566.04,161.36 C566.04,161.36 563.8,158.32 559.8,158.32 C555.48,158.32 551.8,162 551.8,166.32 Z M571.32,156.72 C571.32,158 570.68,158.64 569.72,158.64 L568.12,158.64 L568.12,161.52 L571,161.52 L571,169.52 C571,172.72 572.6,174.32 575.48,174.32 C576.76,174.32 577.72,174 577.72,174 L577.72,171.12 C577.72,171.12 576.92,171.44 576.12,171.44 C575,171.44 574.2,170.64 574.2,169.488 L574.2,161.52 L577.4,161.52 L577.4,158.64 L574.2,158.64 L574.2,153.52 L571.32,153.52 L571.32,156.72 Z M584.92,158.64 L581.72,158.64 L581.72,174 L584.92,174 L584.92,158.64 Z M585.24,153.84 C585.24,152.72 584.44,151.92 583.32,151.92 C582.2,151.92 581.4,152.72 581.4,153.84 C581.4,154.96 582.2,155.76 583.32,155.76 C584.44,155.76 585.24,154.96 585.24,153.84 Z M601.4,166.32 C601.4,163.44 599.16,161.2 596.6,161.2 C594.04,161.2 591.8,163.44 591.8,166.32 C591.8,169.2 594.04,171.44 596.6,171.44 C599.16,171.44 601.4,169.2 601.4,166.32 Z M588.6,166.32 C588.6,162 592.28,158.32 596.6,158.32 C600.92,158.32 604.6,162 604.6,166.32 C604.6,170.64 600.92,174.32 596.6,174.32 C592.28,174.32 588.6,170.64 588.6,166.32 Z M611.32,158.64 L608.12,158.64 L608.12,174 L611.32,174 L611.32,165.68 C611.32,162.8 612.92,161.2 615.32,161.2 C617.4,161.2 619,162.8 619,165.04 L619,174 L622.2,174 L622.2,165.04 C622.2,160.88 619.64,158.32 615.96,158.32 C613.08,158.32 611.32,160.24 611.32,160.24 L611.32,158.64 Z M630.04,166 C630.04,174 625.56,179.76 625.56,179.76 L627.96,181.2 C627.96,181.2 632.92,175.28 632.92,166 C632.92,156.72 627.96,150.8 627.96,150.8 L625.56,152.24 C625.56,152.24 630.04,158 630.04,166 Z M643.8,167.28 C645.08,167.28 645.72,167.92 645.72,169.2 L645.72,176.08 C645.72,178.96 647.48,180.72 650.68,180.72 L652.44,180.72 L652.44,178.16 L650.68,178.16 C649.4,178.16 648.6,177.36 648.6,176.08 L648.6,169.2 C648.6,166.32 646.84,166 646.872,166 C646.84,166 648.6,165.68 648.6,162.8 L648.6,155.92 C648.6,154.64 649.4,153.84 650.68,153.84 L652.44,153.84 L652.44,151.28 L650.68,151.28 C647.48,151.28 645.72,153.04 645.72,155.92 L645.72,162.8 C645.72,164.08 645.08,164.72 643.8,164.72 L643.8,167.28 Z M232.44,202.4 C232.44,202.4 230.84,200.32 227.48,200.32 C224.28,200.32 222.04,202.56 222.04,204.8 C222.04,210.24 229.88,208.64 229.88,211.52 C229.88,212.64 229.08,213.44 227.32,213.44 C224.92,213.44 223.48,211.52 223.48,211.52 L221.4,213.6 C221.4,213.6 223.32,216.32 227.32,216.32 C230.84,216.32 233.08,214.08 233.08,211.52 C233.08,206.08 225.24,207.68 225.24,204.8 C225.24,204 226.04,203.2 227.48,203.2 C229.24,203.2 230.36,204.48 230.36,204.48 L232.44,202.4 Z M245.08,200.64 L241.56,211.2 L238.04,200.64 L234.68,200.64 L239.96,216 L243,216 L246.52,205.76 L250.04,216 L253.08,216 L258.36,200.64 L255,200.64 L251.48,211.2 L247.96,200.64 L245.08,200.64 Z M264.28,200.64 L261.08,200.64 L261.08,216 L264.28,216 L264.28,200.64 Z M264.6,195.84 C264.6,194.72 263.8,193.92 262.68,193.92 C261.56,193.92 260.76,194.72 260.76,195.84 C260.76,196.96 261.56,197.76 262.68,197.76 C263.8,197.76 264.6,196.96 264.6,195.84 Z M270.84,198.72 C270.84,200 270.2,200.64 269.24,200.64 L267.64,200.64 L267.64,203.52 L270.52,203.52 L270.52,211.52 C270.52,214.72 272.12,216.32 275,216.32 C276.28,216.32 277.24,216 277.24,216 L277.24,213.12 C277.24,213.12 276.44,213.44 275.64,213.44 C274.52,213.44 273.72,212.64 273.72,211.488 L273.72,203.52 L276.92,203.52 L276.92,200.64 L273.72,200.64 L273.72,195.52 L270.84,195.52 L270.84,198.72 Z M279.48,208.32 C279.48,212.64 283.16,216.32 287.48,216.32 C291.48,216.32 293.88,213.12 293.88,213.12 L291.8,211.04 C291.8,211.04 290.2,213.44 287.48,213.44 C284.92,213.44 282.68,211.2 282.68,208.32 C282.68,205.44 284.92,203.2 287.48,203.2 C290.2,203.2 291.64,205.44 291.64,205.44 L293.72,203.36 C293.72,203.36 291.48,200.32 287.48,200.32 C283.16,200.32 279.48,204 279.48,208.32 Z M300.6,193.6 L297.4,193.6 L297.4,216 L300.6,216 L300.6,207.68 C300.6,204.8 302.2,203.2 304.6,203.2 C306.68,203.2 308.28,204.8 308.28,207.04 L308.28,216 L311.48,216 L311.48,207.04 C311.48,202.88 308.92,200.32 305.24,200.32 C302.36,200.32 300.6,202.24 300.6,202.24 L300.6,193.6 Z M319.32,208 C319.32,200 323.8,194.24 323.8,194.24 L321.4,192.8 C321.4,192.8 316.44,198.72 316.44,208 C316.44,217.28 321.4,223.2 321.4,223.2 L323.8,221.76 C323.8,221.76 319.32,216 319.32,208 Z M335.32,216 L335.32,214.4 C335.32,214.4 333.72,216.32 331,216.32 C327.8,216.32 325.72,214.24 325.72,211.84 C325.72,209.28 327.48,207.488 330.36,206.976 L335.32,206.08 C335.32,204.8 334.36,203.84 332.6,203.84 C330.2,203.84 329.08,205.44 329.08,205.44 L326.68,203.04 C326.68,203.04 328.76,200 332.92,200 C336.92,200 339.64,202.72 339.64,206.24 L339.64,216 L335.32,216 Z M332.12,212.8 C334.04,212.8 335.32,211.52 335.32,209.28 L335.32,208.8 L331.8,209.44 C330.68,209.632 330.04,210.24 330.04,211.2 C330.04,212.16 330.68,212.8 332.12,212.8 Z M355.16,210.4 C355.16,210.4 355.16,210.4 355.16,210.4 L355.16,210.4 Z M355.16,210.4 L357.72,213.12 C357.72,213.12 355.64,216.32 351.32,216.32 C346.68,216.32 342.84,212.48 342.84,208.16 C342.84,203.84 346.68,200 351.32,200 C355.64,200 357.72,203.2 357.72,203.2 L355,205.92 C355,205.92 353.72,203.84 351.32,203.84 C349.08,203.84 347.16,205.76 347.16,208.16 C347.16,210.56 349.08,212.48 351.32,212.48 C353.71937,212.48 355.159244,210.401092 355.16,210.4 L355.16,210.4 Z M362.52,198.56 C362.52,199.84 361.72,200.64 360.76,200.64 L359.32,200.64 L359.32,204.48 L362.04,204.48 L362.04,210.88 C362.04,214.56 363.8,216.32 367,216.32 C368.6,216.32 369.88,215.84 369.88,215.84 L369.88,212.16 C369.88,212.16 369.24,212.48 368.28,212.48 C367.16,212.48 366.36,211.68 366.36,210.72 L366.36,204.48 L369.56,204.48 L369.56,200.64 L366.36,200.64 L366.36,195.68 L362.52,195.68 L362.52,198.56 Z M378.04,200.32 L373.72,200.32 L373.72,216 L378.04,216 L378.04,200.32 Z M378.36,195.84 C378.36,194.4 377.4,193.44 375.8,193.44 C374.36,193.44 373.4,194.4 373.4,195.84 C373.4,197.28 374.36,198.24 375.8,198.24 C377.4,198.24 378.36,197.28 378.36,195.84 Z M385.88,208.16 C385.88,210.56 387.64,212.32 389.72,212.32 C391.8,212.32 393.56,210.56 393.56,208.16 C393.56,205.76 391.8,204 389.72,204 C387.64,204 385.88,205.76 385.88,208.16 Z M398.04,208.16 C398.04,212.48 394.2,216.32 389.72,216.32 C385.24,216.32 381.4,212.48 381.4,208.16 C381.4,203.84 385.24,200 389.72,200 C394.2,200 398.04,203.84 398.04,208.16 Z M405.56,200.32 L401.24,200.32 L401.24,216 L405.56,216 L405.56,207.84 C405.56,205.44 406.84,204.16 408.76,204.16 C410.52,204.16 411.8,205.44 411.8,207.36 L411.8,216 L416.12,216 L416.12,206.88 C416.12,202.56 413.56,200 410.04,200 C407.16,200 405.56,202.24 405.56,202.24 L405.56,200.32 Z M419.8,213.92 C419.8,215.2 420.92,216.32 422.36,216.32 C423.8,216.32 424.92,215.2 424.92,213.92 C424.92,212.64 423.8,211.52 422.36,211.52 C420.92,211.52 419.8,212.64 419.8,213.92 Z M430.2,198.56 C430.2,199.84 429.4,200.64 428.44,200.64 L427,200.64 L427,204.48 L429.72,204.48 L429.72,210.88 C429.72,214.56 431.48,216.32 434.68,216.32 C436.28,216.32 437.56,215.84 437.56,215.84 L437.56,212.16 C437.56,212.16 436.92,212.48 435.96,212.48 C434.84,212.48 434.04,211.68 434.04,210.72 L434.04,204.48 L437.24,204.48 L437.24,200.64 L434.04,200.64 L434.04,195.68 L430.2,195.68 L430.2,198.56 Z M444.92,216.96 C444.504,217.92 443.64,218.72 442.2,218.72 C441.24,218.72 440.6,218.4 440.6,218.4 L440.6,222.24 C440.6,222.24 441.72,222.72 443.32,222.72 C446.04,222.72 447.96,220.8 449.4,216.96 L455.64,200.32 L451.16,200.32 L447.48,210.72 L443.8,200.32 L439.32,200.32 L445.4,215.84 L444.92,216.96 Z M466.84,216.32 C463.8,216.32 462.2,214.08 462.2,214.08 L462.2,222.72 L457.88,222.72 L457.88,200.32 L462.2,200.32 L462.2,202.24 C462.2,202.24 463.8,200 466.84,200 C470.84,200 474.36,203.52 474.36,208.16 C474.36,212.8 470.84,216.32 466.84,216.32 Z M466.04,203.84 C463.96,203.84 462.2,205.6 462.2,208.16 C462.2,210.72 463.96,212.48 466.04,212.48 C468.12,212.48 469.88,210.72 469.88,208.16 C469.88,205.6 468.12,203.84 466.04,203.84 Z M492.44,209.6 L481.08,209.6 C481.4,211.2 482.84,212.64 485.24,212.64 C487.96,212.64 489.4,210.72 489.4,210.72 L491.64,213.6 C491.64,213.6 489.24,216.32 484.92,216.32 C480.28,216.32 476.6,212.64 476.6,208.16 C476.6,203.68 480.28,200 484.76,200 C489.24,200 492.6,203.36 492.6,207.84 C492.6,208.96 492.44,209.6 492.44,209.6 Z M484.76,203.68 C482.84,203.68 481.56,204.96 481.08,206.56 L488.28,206.56 C487.96,204.96 486.68,203.68 484.76,203.68 Z M499.32,208 C499.32,216 494.84,221.76 494.84,221.76 L497.24,223.2 C497.24,223.2 502.2,217.28 502.2,208 C502.2,198.72 497.24,192.8 497.24,192.8 L494.84,194.24 C494.84,194.24 499.32,200 499.32,208 Z M513.08,209.28 C514.36,209.28 515,209.92 515,211.2 L515,218.08 C515,220.96 516.76,222.72 519.96,222.72 L521.72,222.72 L521.72,220.16 L519.96,220.16 C518.68,220.16 517.88,219.36 517.88,218.08 L517.88,211.2 C517.88,208.32 516.12,208 516.152,208 C516.12,208 517.88,207.68 517.88,204.8 L517.88,197.92 C517.88,196.64 518.68,195.84 519.96,195.84 L521.72,195.84 L521.72,193.28 L519.96,193.28 C516.76,193.28 515,195.04 515,197.92 L515,204.8 C515,206.08 514.36,206.72 513.08,206.72 L513.08,209.28 Z M247.32,250.32 C247.32,254.64 251,258.32 255.32,258.32 C259.32,258.32 261.72,255.12 261.72,255.12 L259.64,253.04 C259.64,253.04 258.04,255.44 255.32,255.44 C252.76,255.44 250.52,253.2 250.52,250.32 C250.52,247.44 252.76,245.2 255.32,245.2 C258.04,245.2 259.48,247.44 259.48,247.44 L261.56,245.36 C261.56,245.36 259.32,242.32 255.32,242.32 C251,242.32 247.32,246 247.32,250.32 Z M277.24,258 L274.04,258 L274.04,256.4 C274.04,256.4 272.28,258.32 269.4,258.32 C266.2,258.32 263.96,256.08 263.96,253.84 C263.96,251.28 265.72,249.52 268.44,249.04 L274.04,248.08 C274.04,246.48 272.76,245.2 270.84,245.2 C268.12,245.2 266.84,247.28 266.84,247.28 L264.76,245.2 C264.76,245.2 266.84,242.32 270.84,242.32 C274.68,242.32 277.24,244.88 277.24,248.08 L277.24,258 Z M269.88,255.44 C272.44,255.44 274.04,253.84 274.04,250.96 L274.04,250.64 L269.08,251.44 C267.96,251.632 267.16,252.4 267.16,253.52 C267.16,254.48 268.12,255.44 269.88,255.44 Z M291.48,244.4 C291.48,244.4 289.88,242.32 286.52,242.32 C283.32,242.32 281.08,244.56 281.08,246.8 C281.08,252.24 288.92,250.64 288.92,253.52 C288.92,254.64 288.12,255.44 286.36,255.44 C283.96,255.44 282.52,253.52 282.52,253.52 L280.44,255.6 C280.44,255.6 282.36,258.32 286.36,258.32 C289.88,258.32 292.12,256.08 292.12,253.52 C292.12,248.08 284.28,249.68 284.28,246.8 C284.28,246 285.08,245.2 286.52,245.2 C288.28,245.2 289.4,246.48 289.4,246.48 L291.48,244.4 Z M309.88,251.44 L297.88,251.44 C298.2,253.52 300.12,255.44 302.68,255.44 C305.72,255.44 307.32,253.04 307.32,253.04 L309.4,255.12 C309.4,255.12 307,258.32 302.68,258.32 C298.36,258.32 294.68,254.64 294.68,250.16 C294.68,245.84 298.2,242.32 302.52,242.32 C306.84,242.32 310.04,245.52 310.04,249.84 C310.04,250.8 309.88,251.44 309.88,251.44 Z M302.52,245.04 C300.12,245.04 298.52,246.64 298.008,248.72 L306.904,248.72 C306.52,246.64 304.92,245.04 302.52,245.04 Z M323.48,235.6 L319.64,235.6 L319.64,242.96 L323.48,242.96 L323.48,235.6 Z M338.36,248.56 L335.64,241.2 L332.92,248.56 L338.36,248.56 Z M339.96,252.72 L331.32,252.72 L329.4,258 L324.28,258 L333.08,235.6 L338.2,235.6 L347,258 L341.88,258 L339.96,252.72 Z M350.2,235.6 L358.52,235.6 C365.08,235.6 370.04,240.56 370.04,246.8 C370.04,253.04 365.08,258 358.52,258 L350.2,258 L350.2,235.6 Z M358.52,239.92 L355,239.92 L355,253.68 L358.52,253.68 C362.2,253.68 365.24,250.64 365.24,246.8 C365.24,242.96 362.36,239.92 358.52,239.92 Z M374.52,235.6 L382.84,235.6 C389.4,235.6 394.36,240.56 394.36,246.8 C394.36,253.04 389.4,258 382.84,258 L374.52,258 L374.52,235.6 Z M382.84,239.92 L379.32,239.92 L379.32,253.68 L382.84,253.68 C386.52,253.68 389.56,250.64 389.56,246.8 C389.56,242.96 386.68,239.92 382.84,239.92 Z M407.32,260.72 L395.64,260.72 L395.64,264.72 L407.32,264.72 L407.32,260.72 Z M407.64,235.6 L407.64,239.92 L414.04,239.92 L414.04,258 L418.84,258 L418.84,239.92 L425.24,239.92 L425.24,235.6 L407.64,235.6 Z M431.16,246.8 C431.16,250.96 434.36,254.16 438.36,254.16 C442.36,254.16 445.56,250.96 445.56,246.8 C445.56,242.64 442.36,239.44 438.36,239.44 C434.36,239.44 431.16,242.64 431.16,246.8 Z M426.2,246.8 C426.2,240.4 431.48,235.12 438.36,235.12 C445.24,235.12 450.52,240.4 450.52,246.8 C450.52,253.2 445.24,258.48 438.36,258.48 C431.48,258.48 426.2,253.2 426.2,246.8 Z M455,235.6 L463.32,235.6 C469.88,235.6 474.84,240.56 474.84,246.8 C474.84,253.04 469.88,258 463.32,258 L455,258 L455,235.6 Z M463.32,239.92 L459.8,239.92 L459.8,253.68 L463.32,253.68 C467,253.68 470.04,250.64 470.04,246.8 C470.04,242.96 467.16,239.92 463.32,239.92 Z M483,246.8 C483,250.96 486.2,254.16 490.2,254.16 C494.2,254.16 497.4,250.96 497.4,246.8 C497.4,242.64 494.2,239.44 490.2,239.44 C486.2,239.44 483,242.64 483,246.8 Z M478.04,246.8 C478.04,240.4 483.32,235.12 490.2,235.12 C497.08,235.12 502.36,240.4 502.36,246.8 C502.36,253.2 497.08,258.48 490.2,258.48 C483.32,258.48 478.04,253.2 478.04,246.8 Z M509.56,235.6 L505.72,235.6 L505.72,242.96 L509.56,242.96 L509.56,235.6 Z M512.92,256.24 C512.92,257.36 513.88,258.32 515,258.32 C516.12,258.32 517.08,257.36 517.08,256.24 C517.08,255.12 516.12,254.16 515,254.16 C513.88,254.16 512.92,255.12 512.92,256.24 Z M512.92,244.4 C512.92,245.52 513.88,246.48 515,246.48 C516.12,246.48 517.08,245.52 517.08,244.4 C517.08,243.28 516.12,242.32 515,242.32 C513.88,242.32 512.92,243.28 512.92,244.4 Z M527,251.28 C528.28,251.28 528.92,251.92 528.92,253.2 L528.92,260.08 C528.92,262.96 530.68,264.72 533.88,264.72 L535.64,264.72 L535.64,262.16 L533.88,262.16 C532.6,262.16 531.8,261.36 531.8,260.08 L531.8,253.2 C531.8,250.32 530.04,250 530.072,250 C530.04,250 531.8,249.68 531.8,246.8 L531.8,239.92 C531.8,238.64 532.6,237.84 533.88,237.84 L535.64,237.84 L535.64,235.28 L533.88,235.28 C530.68,235.28 528.92,237.04 528.92,239.92 L528.92,246.8 C528.92,248.08 528.28,248.72 527,248.72 L527,251.28 Z M272.92,292.32 C272.92,296.64 276.6,300.32 280.92,300.32 C284.92,300.32 287.32,297.12 287.32,297.12 L285.24,295.04 C285.24,295.04 283.64,297.44 280.92,297.44 C278.36,297.44 276.12,295.2 276.12,292.32 C276.12,289.44 278.36,287.2 280.92,287.2 C283.64,287.2 285.08,289.44 285.08,289.44 L287.16,287.36 C287.16,287.36 284.92,284.32 280.92,284.32 C276.6,284.32 272.92,288 272.92,292.32 Z M302.36,292.32 C302.36,289.44 300.12,287.2 297.56,287.2 C295,287.2 292.76,289.44 292.76,292.32 C292.76,295.2 295,297.44 297.56,297.44 C300.12,297.44 302.36,295.2 302.36,292.32 Z M289.56,292.32 C289.56,288 293.24,284.32 297.56,284.32 C301.88,284.32 305.56,288 305.56,292.32 C305.56,296.64 301.88,300.32 297.56,300.32 C293.24,300.32 289.56,296.64 289.56,292.32 Z M312.28,284.64 L309.08,284.64 L309.08,300 L312.28,300 L312.28,291.68 C312.28,288.8 313.88,287.2 316.28,287.2 C318.36,287.2 319.96,288.8 319.96,291.04 L319.96,300 L323.16,300 L323.16,291.04 C323.16,286.88 320.6,284.32 316.92,284.32 C314.04,284.32 312.28,286.24 312.28,286.24 L312.28,284.64 Z M337.4,286.4 C337.4,286.4 335.8,284.32 332.44,284.32 C329.24,284.32 327,286.56 327,288.8 C327,294.24 334.84,292.64 334.84,295.52 C334.84,296.64 334.04,297.44 332.28,297.44 C329.88,297.44 328.44,295.52 328.44,295.52 L326.36,297.6 C326.36,297.6 328.28,300.32 332.28,300.32 C335.8,300.32 338.04,298.08 338.04,295.52 C338.04,290.08 330.2,291.68 330.2,288.8 C330.2,288 331,287.2 332.44,287.2 C334.2,287.2 335.32,288.48 335.32,288.48 L337.4,286.4 Z M343.48,282.72 C343.48,284 342.84,284.64 341.88,284.64 L340.28,284.64 L340.28,287.52 L343.16,287.52 L343.16,295.52 C343.16,298.72 344.76,300.32 347.64,300.32 C348.92,300.32 349.88,300 349.88,300 L349.88,297.12 C349.88,297.12 349.08,297.44 348.28,297.44 C347.16,297.44 346.36,296.64 346.36,295.488 L346.36,287.52 L349.56,287.52 L349.56,284.64 L346.36,284.64 L346.36,279.52 L343.48,279.52 L343.48,282.72 Z M362.04,282.72 C362.04,284 361.4,284.64 360.44,284.64 L358.84,284.64 L358.84,287.52 L361.72,287.52 L361.72,295.52 C361.72,298.72 363.32,300.32 366.2,300.32 C367.48,300.32 368.44,300 368.44,300 L368.44,297.12 C368.44,297.12 367.64,297.44 366.84,297.44 C365.72,297.44 364.92,296.64 364.92,295.488 L364.92,287.52 L368.12,287.52 L368.12,284.64 L364.92,284.64 L364.92,279.52 L362.04,279.52 L362.04,282.72 Z M383.48,292.32 C383.48,289.44 381.24,287.2 378.68,287.2 C376.12,287.2 373.88,289.44 373.88,292.32 C373.88,295.2 376.12,297.44 378.68,297.44 C381.24,297.44 383.48,295.2 383.48,292.32 Z M370.68,292.32 C370.68,288 374.36,284.32 378.68,284.32 C383,284.32 386.68,288 386.68,292.32 C386.68,296.64 383,300.32 378.68,300.32 C374.36,300.32 370.68,296.64 370.68,292.32 Z M396.76,284.32 C399.8,284.32 401.72,286.4 401.72,286.4 L401.72,277.6 L404.92,277.6 L404.92,300 L401.72,300 L401.72,298.24 C401.72,298.24 399.8,300.32 396.76,300.32 C392.76,300.32 389.24,296.8 389.24,292.32 C389.24,287.84 392.76,284.32 396.76,284.32 Z M397.08,297.44 C399.48,297.44 401.72,295.2 401.72,292.32 C401.72,289.44 399.48,287.2 397.08,287.2 C394.68,287.2 392.44,289.44 392.44,292.32 C392.44,295.2 394.68,297.44 397.08,297.44 Z M421.56,292.32 C421.56,289.44 419.32,287.2 416.76,287.2 C414.2,287.2 411.96,289.44 411.96,292.32 C411.96,295.2 414.2,297.44 416.76,297.44 C419.32,297.44 421.56,295.2 421.56,292.32 Z M408.76,292.32 C408.76,288 412.44,284.32 416.76,284.32 C421.08,284.32 424.76,288 424.76,292.32 C424.76,296.64 421.08,300.32 416.76,300.32 C412.44,300.32 408.76,296.64 408.76,292.32 Z M447,292 L433.88,292 L433.88,294.88 L447,294.88 L447,292 Z M447,286.24 L433.88,286.24 L433.88,289.12 L447,289.12 L447,286.24 Z M465.24,300 L465.24,298.4 C465.24,298.4 463.64,300.32 460.92,300.32 C457.72,300.32 455.64,298.24 455.64,295.84 C455.64,293.28 457.4,291.488 460.28,290.976 L465.24,290.08 C465.24,288.8 464.28,287.84 462.52,287.84 C460.12,287.84 459,289.44 459,289.44 L456.6,287.04 C456.6,287.04 458.68,284 462.84,284 C466.84,284 469.56,286.72 469.56,290.24 L469.56,300 L465.24,300 Z M462.04,296.8 C463.96,296.8 465.24,295.52 465.24,293.28 L465.24,292.8 L461.72,293.44 C460.6,293.632 459.96,294.24 459.96,295.2 C459.96,296.16 460.6,296.8 462.04,296.8 Z M472.76,292.16 C472.76,296.48 476.6,300.32 481.24,300.32 C485.56,300.32 487.64,297.12 487.64,297.12 L485.08,294.4 C485.08,294.4 483.64,296.48 481.24,296.48 C479,296.48 477.08,294.56 477.08,292.16 C477.08,289.76 479,287.84 481.24,287.84 C483.64,287.84 484.92,289.92 484.92,289.92 L487.64,287.2 C487.64,287.2 485.56,284 481.24,284 C476.6,284 472.76,287.84 472.76,292.16 Z M492.44,282.56 C492.44,283.84 491.64,284.64 490.68,284.64 L489.24,284.64 L489.24,288.48 L491.96,288.48 L491.96,294.88 C491.96,298.56 493.72,300.32 496.92,300.32 C498.52,300.32 499.8,299.84 499.8,299.84 L499.8,296.16 C499.8,296.16 499.16,296.48 498.2,296.48 C497.08,296.48 496.28,295.68 496.28,294.72 L496.28,288.48 L499.48,288.48 L499.48,284.64 L496.28,284.64 L496.28,279.68 L492.44,279.68 L492.44,282.56 Z M507.96,284.32 L503.64,284.32 L503.64,300 L507.96,300 L507.96,284.32 Z M508.28,279.84 C508.28,278.4 507.32,277.44 505.72,277.44 C504.28,277.44 503.32,278.4 503.32,279.84 C503.32,281.28 504.28,282.24 505.72,282.24 C507.32,282.24 508.28,281.28 508.28,279.84 Z M515.8,292.16 C515.8,294.56 517.56,296.32 519.64,296.32 C521.72,296.32 523.48,294.56 523.48,292.16 C523.48,289.76 521.72,288 519.64,288 C517.56,288 515.8,289.76 515.8,292.16 Z M527.96,292.16 C527.96,296.48 524.12,300.32 519.64,300.32 C515.16,300.32 511.32,296.48 511.32,292.16 C511.32,287.84 515.16,284 519.64,284 C524.12,284 527.96,287.84 527.96,292.16 Z M535.48,284.32 L531.16,284.32 L531.16,300 L535.48,300 L535.48,291.84 C535.48,289.44 536.76,288.16 538.68,288.16 C540.44,288.16 541.72,289.44 541.72,291.36 L541.72,300 L546.04,300 L546.04,290.88 C546.04,286.56 543.48,284 539.96,284 C537.08,284 535.48,286.24 535.48,286.24 L535.48,284.32 Z M549.72,297.92 C549.72,299.2 550.84,300.32 552.28,300.32 C553.72,300.32 554.84,299.2 554.84,297.92 C554.84,296.64 553.72,295.52 552.28,295.52 C550.84,295.52 549.72,296.64 549.72,297.92 Z M567.16,300.32 C564.12,300.32 562.52,298.08 562.52,298.08 L562.52,306.72 L558.2,306.72 L558.2,284.32 L562.52,284.32 L562.52,286.24 C562.52,286.24 564.12,284 567.16,284 C571.16,284 574.68,287.52 574.68,292.16 C574.68,296.8 571.16,300.32 567.16,300.32 Z M566.36,287.84 C564.28,287.84 562.52,289.6 562.52,292.16 C562.52,294.72 564.28,296.48 566.36,296.48 C568.44,296.48 570.2,294.72 570.2,292.16 C570.2,289.6 568.44,287.84 566.36,287.84 Z M586.52,300 L586.52,298.4 C586.52,298.4 584.92,300.32 582.2,300.32 C579,300.32 576.92,298.24 576.92,295.84 C576.92,293.28 578.68,291.488 581.56,290.976 L586.52,290.08 C586.52,288.8 585.56,287.84 583.8,287.84 C581.4,287.84 580.28,289.44 580.28,289.44 L577.88,287.04 C577.88,287.04 579.96,284 584.12,284 C588.12,284 590.84,286.72 590.84,290.24 L590.84,300 L586.52,300 Z M583.32,296.8 C585.24,296.8 586.52,295.52 586.52,293.28 L586.52,292.8 L583,293.44 C581.88,293.632 581.24,294.24 581.24,295.2 C581.24,296.16 581.88,296.8 583.32,296.8 Z M598.68,300.96 C598.264,301.92 597.4,302.72 595.96,302.72 C595,302.72 594.36,302.4 594.36,302.4 L594.36,306.24 C594.36,306.24 595.48,306.72 597.08,306.72 C599.8,306.72 601.72,304.8 603.16,300.96 L609.4,284.32 L604.92,284.32 L601.24,294.72 L597.56,284.32 L593.08,284.32 L599.16,299.84 L598.68,300.96 Z M616.12,277.6 L611.8,277.6 L611.8,300 L616.12,300 L616.12,277.6 Z M623.96,292.16 C623.96,294.56 625.72,296.32 627.8,296.32 C629.88,296.32 631.64,294.56 631.64,292.16 C631.64,289.76 629.88,288 627.8,288 C625.72,288 623.96,289.76 623.96,292.16 Z M636.12,292.16 C636.12,296.48 632.28,300.32 627.8,300.32 C623.32,300.32 619.48,296.48 619.48,292.16 C619.48,287.84 623.32,284 627.8,284 C632.28,284 636.12,287.84 636.12,292.16 Z M647.96,300 L647.96,298.4 C647.96,298.4 646.36,300.32 643.64,300.32 C640.44,300.32 638.36,298.24 638.36,295.84 C638.36,293.28 640.12,291.488 643,290.976 L647.96,290.08 C647.96,288.8 647,287.84 645.24,287.84 C642.84,287.84 641.72,289.44 641.72,289.44 L639.32,287.04 C639.32,287.04 641.4,284 645.56,284 C649.56,284 652.28,286.72 652.28,290.24 L652.28,300 L647.96,300 Z M644.76,296.8 C646.68,296.8 647.96,295.52 647.96,293.28 L647.96,292.8 L644.44,293.44 C643.32,293.632 642.68,294.24 642.68,295.2 C642.68,296.16 643.32,296.8 644.76,296.8 Z M663,284 C666.04,284 667.64,286.24 667.64,286.24 L667.64,277.6 L671.96,277.6 L671.96,300 L667.64,300 L667.64,298.08 C667.64,298.08 666.04,300.32 663,300.32 C659,300.32 655.48,296.8 655.48,292.16 C655.48,287.52 659,284 663,284 Z M663.8,296.48 C665.88,296.48 667.64,294.72 667.64,292.16 C667.64,289.6 665.88,287.84 663.8,287.84 C661.72,287.84 659.96,289.6 659.96,292.16 C659.96,294.72 661.72,296.48 663.8,296.48 Z M677.56,296.16 L674.36,303.04 L676.44,304.16 L680.44,297.76 L677.56,296.16 Z M676.44,286.4 C676.44,287.52 677.4,288.48 678.52,288.48 C679.64,288.48 680.6,287.52 680.6,286.4 C680.6,285.28 679.64,284.32 678.52,284.32 C677.4,284.32 676.44,285.28 676.44,286.4 Z M272.92,334.32 C272.92,338.64 276.6,342.32 280.92,342.32 C284.92,342.32 287.32,339.12 287.32,339.12 L285.24,337.04 C285.24,337.04 283.64,339.44 280.92,339.44 C278.36,339.44 276.12,337.2 276.12,334.32 C276.12,331.44 278.36,329.2 280.92,329.2 C283.64,329.2 285.08,331.44 285.08,331.44 L287.16,329.36 C287.16,329.36 284.92,326.32 280.92,326.32 C276.6,326.32 272.92,330 272.92,334.32 Z M302.36,334.32 C302.36,331.44 300.12,329.2 297.56,329.2 C295,329.2 292.76,331.44 292.76,334.32 C292.76,337.2 295,339.44 297.56,339.44 C300.12,339.44 302.36,337.2 302.36,334.32 Z M289.56,334.32 C289.56,330 293.24,326.32 297.56,326.32 C301.88,326.32 305.56,330 305.56,334.32 C305.56,338.64 301.88,342.32 297.56,342.32 C293.24,342.32 289.56,338.64 289.56,334.32 Z M312.28,326.64 L309.08,326.64 L309.08,342 L312.28,342 L312.28,333.68 C312.28,330.8 313.88,329.2 316.28,329.2 C318.36,329.2 319.96,330.8 319.96,333.04 L319.96,342 L323.16,342 L323.16,333.04 C323.16,328.88 320.6,326.32 316.92,326.32 C314.04,326.32 312.28,328.24 312.28,328.24 L312.28,326.64 Z M337.4,328.4 C337.4,328.4 335.8,326.32 332.44,326.32 C329.24,326.32 327,328.56 327,330.8 C327,336.24 334.84,334.64 334.84,337.52 C334.84,338.64 334.04,339.44 332.28,339.44 C329.88,339.44 328.44,337.52 328.44,337.52 L326.36,339.6 C326.36,339.6 328.28,342.32 332.28,342.32 C335.8,342.32 338.04,340.08 338.04,337.52 C338.04,332.08 330.2,333.68 330.2,330.8 C330.2,330 331,329.2 332.44,329.2 C334.2,329.2 335.32,330.48 335.32,330.48 L337.4,328.4 Z M343.48,324.72 C343.48,326 342.84,326.64 341.88,326.64 L340.28,326.64 L340.28,329.52 L343.16,329.52 L343.16,337.52 C343.16,340.72 344.76,342.32 347.64,342.32 C348.92,342.32 349.88,342 349.88,342 L349.88,339.12 C349.88,339.12 349.08,339.44 348.28,339.44 C347.16,339.44 346.36,338.64 346.36,337.488 L346.36,329.52 L349.56,329.52 L349.56,326.64 L346.36,326.64 L346.36,321.52 L343.48,321.52 L343.48,324.72 Z M362.04,324.72 C362.04,326 361.4,326.64 360.44,326.64 L358.84,326.64 L358.84,329.52 L361.72,329.52 L361.72,337.52 C361.72,340.72 363.32,342.32 366.2,342.32 C367.48,342.32 368.44,342 368.44,342 L368.44,339.12 C368.44,339.12 367.64,339.44 366.84,339.44 C365.72,339.44 364.92,338.64 364.92,337.488 L364.92,329.52 L368.12,329.52 L368.12,326.64 L364.92,326.64 L364.92,321.52 L362.04,321.52 L362.04,324.72 Z M383.48,334.32 C383.48,331.44 381.24,329.2 378.68,329.2 C376.12,329.2 373.88,331.44 373.88,334.32 C373.88,337.2 376.12,339.44 378.68,339.44 C381.24,339.44 383.48,337.2 383.48,334.32 Z M370.68,334.32 C370.68,330 374.36,326.32 378.68,326.32 C383,326.32 386.68,330 386.68,334.32 C386.68,338.64 383,342.32 378.68,342.32 C374.36,342.32 370.68,338.64 370.68,334.32 Z M396.76,326.32 C399.8,326.32 401.72,328.4 401.72,328.4 L401.72,319.6 L404.92,319.6 L404.92,342 L401.72,342 L401.72,340.24 C401.72,340.24 399.8,342.32 396.76,342.32 C392.76,342.32 389.24,338.8 389.24,334.32 C389.24,329.84 392.76,326.32 396.76,326.32 Z M397.08,339.44 C399.48,339.44 401.72,337.2 401.72,334.32 C401.72,331.44 399.48,329.2 397.08,329.2 C394.68,329.2 392.44,331.44 392.44,334.32 C392.44,337.2 394.68,339.44 397.08,339.44 Z M421.56,334.32 C421.56,331.44 419.32,329.2 416.76,329.2 C414.2,329.2 411.96,331.44 411.96,334.32 C411.96,337.2 414.2,339.44 416.76,339.44 C419.32,339.44 421.56,337.2 421.56,334.32 Z M408.76,334.32 C408.76,330 412.44,326.32 416.76,326.32 C421.08,326.32 424.76,330 424.76,334.32 C424.76,338.64 421.08,342.32 416.76,342.32 C412.44,342.32 408.76,338.64 408.76,334.32 Z M438.04,328.4 C438.04,328.4 436.44,326.32 433.08,326.32 C429.88,326.32 427.64,328.56 427.64,330.8 C427.64,336.24 435.48,334.64 435.48,337.52 C435.48,338.64 434.68,339.44 432.92,339.44 C430.52,339.44 429.08,337.52 429.08,337.52 L427,339.6 C427,339.6 428.92,342.32 432.92,342.32 C436.44,342.32 438.68,340.08 438.68,337.52 C438.68,332.08 430.84,333.68 430.84,330.8 C430.84,330 431.64,329.2 433.08,329.2 C434.84,329.2 435.96,330.48 435.96,330.48 L438.04,328.4 Z M460.92,334 L447.8,334 L447.8,336.88 L460.92,336.88 L460.92,334 Z M460.92,328.24 L447.8,328.24 L447.8,331.12 L460.92,331.12 L460.92,328.24 Z M474.04,321.84 L478.2,321.84 L478.2,319.28 L471.16,319.28 L471.16,348.72 L478.2,348.72 L478.2,346.16 L474.04,346.16 L474.04,321.84 Z M484.92,340.24 C484.92,339.12 483.96,338.16 482.84,338.16 C481.72,338.16 480.76,339.12 480.76,340.24 C480.76,341.36 481.72,342.32 482.84,342.32 C483.96,342.32 484.92,341.36 484.92,340.24 Z M493.24,340.24 C493.24,339.12 492.28,338.16 491.16,338.16 C490.04,338.16 489.08,339.12 489.08,340.24 C489.08,341.36 490.04,342.32 491.16,342.32 C492.28,342.32 493.24,341.36 493.24,340.24 Z M501.56,340.24 C501.56,339.12 500.6,338.16 499.48,338.16 C498.36,338.16 497.4,339.12 497.4,340.24 C497.4,341.36 498.36,342.32 499.48,342.32 C500.6,342.32 501.56,341.36 501.56,340.24 Z M515,328.4 C515,328.4 513.4,326.32 510.04,326.32 C506.84,326.32 504.6,328.56 504.6,330.8 C504.6,336.24 512.44,334.64 512.44,337.52 C512.44,338.64 511.64,339.44 509.88,339.44 C507.48,339.44 506.04,337.52 506.04,337.52 L503.96,339.6 C503.96,339.6 505.88,342.32 509.88,342.32 C513.4,342.32 515.64,340.08 515.64,337.52 C515.64,332.08 507.8,333.68 507.8,330.8 C507.8,330 508.6,329.2 510.04,329.2 C511.8,329.2 512.92,330.48 512.92,330.48 L515,328.4 Z M521.08,324.72 C521.08,326 520.44,326.64 519.48,326.64 L517.88,326.64 L517.88,329.52 L520.76,329.52 L520.76,337.52 C520.76,340.72 522.36,342.32 525.24,342.32 C526.52,342.32 527.48,342 527.48,342 L527.48,339.12 C527.48,339.12 526.68,339.44 525.88,339.44 C524.76,339.44 523.96,338.64 523.96,337.488 L523.96,329.52 L527.16,329.52 L527.16,326.64 L523.96,326.64 L523.96,321.52 L521.08,321.52 L521.08,324.72 Z M543.64,342 L540.44,342 L540.44,340.4 C540.44,340.4 538.68,342.32 535.8,342.32 C532.6,342.32 530.36,340.08 530.36,337.84 C530.36,335.28 532.12,333.52 534.84,333.04 L540.44,332.08 C540.44,330.48 539.16,329.2 537.24,329.2 C534.52,329.2 533.24,331.28 533.24,331.28 L531.16,329.2 C531.16,329.2 533.24,326.32 537.24,326.32 C541.08,326.32 543.64,328.88 543.64,332.08 L543.64,342 Z M536.28,339.44 C538.84,339.44 540.44,337.84 540.44,334.96 L540.44,334.64 L535.48,335.44 C534.36,335.632 533.56,336.4 533.56,337.52 C533.56,338.48 534.52,339.44 536.28,339.44 Z M550.04,324.72 C550.04,326 549.4,326.64 548.44,326.64 L546.84,326.64 L546.84,329.52 L549.72,329.52 L549.72,337.52 C549.72,340.72 551.32,342.32 554.2,342.32 C555.48,342.32 556.44,342 556.44,342 L556.44,339.12 C556.44,339.12 555.64,339.44 554.84,339.44 C553.72,339.44 552.92,338.64 552.92,337.488 L552.92,329.52 L556.12,329.52 L556.12,326.64 L552.92,326.64 L552.92,321.52 L550.04,321.52 L550.04,324.72 Z M573.88,335.44 L561.88,335.44 C562.2,337.52 564.12,339.44 566.68,339.44 C569.72,339.44 571.32,337.04 571.32,337.04 L573.4,339.12 C573.4,339.12 571,342.32 566.68,342.32 C562.36,342.32 558.68,338.64 558.68,334.16 C558.68,329.84 562.2,326.32 566.52,326.32 C570.84,326.32 574.04,329.52 574.04,333.84 C574.04,334.8 573.88,335.44 573.88,335.44 Z M566.52,329.04 C564.12,329.04 562.52,330.64 562.008,332.72 L570.904,332.72 C570.52,330.64 568.92,329.04 566.52,329.04 Z M581.24,340.24 C581.24,339.12 580.28,338.16 579.16,338.16 C578.04,338.16 577.08,339.12 577.08,340.24 C577.08,341.36 578.04,342.32 579.16,342.32 C580.28,342.32 581.24,341.36 581.24,340.24 Z M586.84,324.72 C586.84,326 586.2,326.64 585.24,326.64 L583.64,326.64 L583.64,329.52 L586.52,329.52 L586.52,337.52 C586.52,340.72 588.12,342.32 591,342.32 C592.28,342.32 593.24,342 593.24,342 L593.24,339.12 C593.24,339.12 592.44,339.44 591.64,339.44 C590.52,339.44 589.72,338.64 589.72,337.488 L589.72,329.52 L592.92,329.52 L592.92,326.64 L589.72,326.64 L589.72,321.52 L586.84,321.52 L586.84,324.72 Z M608.28,334.32 C608.28,331.44 606.04,329.2 603.48,329.2 C600.92,329.2 598.68,331.44 598.68,334.32 C598.68,337.2 600.92,339.44 603.48,339.44 C606.04,339.44 608.28,337.2 608.28,334.32 Z M595.48,334.32 C595.48,330 599.16,326.32 603.48,326.32 C607.8,326.32 611.48,330 611.48,334.32 C611.48,338.64 607.8,342.32 603.48,342.32 C599.16,342.32 595.48,338.64 595.48,334.32 Z M621.56,326.32 C624.6,326.32 626.52,328.4 626.52,328.4 L626.52,319.6 L629.72,319.6 L629.72,342 L626.52,342 L626.52,340.24 C626.52,340.24 624.6,342.32 621.56,342.32 C617.56,342.32 614.04,338.8 614.04,334.32 C614.04,329.84 617.56,326.32 621.56,326.32 Z M621.88,339.44 C624.28,339.44 626.52,337.2 626.52,334.32 C626.52,331.44 624.28,329.2 621.88,329.2 C619.48,329.2 617.24,331.44 617.24,334.32 C617.24,337.2 619.48,339.44 621.88,339.44 Z M646.36,334.32 C646.36,331.44 644.12,329.2 641.56,329.2 C639,329.2 636.76,331.44 636.76,334.32 C636.76,337.2 639,339.44 641.56,339.44 C644.12,339.44 646.36,337.2 646.36,334.32 Z M633.56,334.32 C633.56,330 637.24,326.32 641.56,326.32 C645.88,326.32 649.56,330 649.56,334.32 C649.56,338.64 645.88,342.32 641.56,342.32 C637.24,342.32 633.56,338.64 633.56,334.32 Z M662.84,328.4 C662.84,328.4 661.24,326.32 657.88,326.32 C654.68,326.32 652.44,328.56 652.44,330.8 C652.44,336.24 660.28,334.64 660.28,337.52 C660.28,338.64 659.48,339.44 657.72,339.44 C655.32,339.44 653.88,337.52 653.88,337.52 L651.8,339.6 C651.8,339.6 653.72,342.32 657.72,342.32 C661.24,342.32 663.48,340.08 663.48,337.52 C663.48,332.08 655.64,333.68 655.64,330.8 C655.64,330 656.44,329.2 657.88,329.2 C659.64,329.2 660.76,330.48 660.76,330.48 L662.84,328.4 Z M668.12,338.16 L664.92,345.04 L667,346.16 L671,339.76 L668.12,338.16 Z M689.4,324.72 C689.4,326 688.76,326.64 687.8,326.64 L686.2,326.64 L686.2,329.52 L689.08,329.52 L689.08,337.52 C689.08,340.72 690.68,342.32 693.56,342.32 C694.84,342.32 695.8,342 695.8,342 L695.8,339.12 C695.8,339.12 695,339.44 694.2,339.44 C693.08,339.44 692.28,338.64 692.28,337.488 L692.28,329.52 L695.48,329.52 L695.48,326.64 L692.28,326.64 L692.28,321.52 L689.4,321.52 L689.4,324.72 Z M710.84,334.32 C710.84,331.44 708.6,329.2 706.04,329.2 C703.48,329.2 701.24,331.44 701.24,334.32 C701.24,337.2 703.48,339.44 706.04,339.44 C708.6,339.44 710.84,337.2 710.84,334.32 Z M698.04,334.32 C698.04,330 701.72,326.32 706.04,326.32 C710.36,326.32 714.04,330 714.04,334.32 C714.04,338.64 710.36,342.32 706.04,342.32 C701.72,342.32 698.04,338.64 698.04,334.32 Z M724.12,326.32 C727.16,326.32 729.08,328.4 729.08,328.4 L729.08,319.6 L732.28,319.6 L732.28,342 L729.08,342 L729.08,340.24 C729.08,340.24 727.16,342.32 724.12,342.32 C720.12,342.32 716.6,338.8 716.6,334.32 C716.6,329.84 720.12,326.32 724.12,326.32 Z M724.44,339.44 C726.84,339.44 729.08,337.2 729.08,334.32 C729.08,331.44 726.84,329.2 724.44,329.2 C722.04,329.2 719.8,331.44 719.8,334.32 C719.8,337.2 722.04,339.44 724.44,339.44 Z M748.92,334.32 C748.92,331.44 746.68,329.2 744.12,329.2 C741.56,329.2 739.32,331.44 739.32,334.32 C739.32,337.2 741.56,339.44 744.12,339.44 C746.68,339.44 748.92,337.2 748.92,334.32 Z M736.12,334.32 C736.12,330 739.8,326.32 744.12,326.32 C748.44,326.32 752.12,330 752.12,334.32 C752.12,338.64 748.44,342.32 744.12,342.32 C739.8,342.32 736.12,338.64 736.12,334.32 Z M758.68,346.16 L754.52,346.16 L754.52,348.72 L761.56,348.72 L761.56,319.28 L754.52,319.28 L754.52,321.84 L758.68,321.84 L758.68,346.16 Z M767.32,338.16 L764.12,345.04 L766.2,346.16 L770.2,339.76 L767.32,338.16 Z M766.2,328.4 C766.2,329.52 767.16,330.48 768.28,330.48 C769.4,330.48 770.36,329.52 770.36,328.4 C770.36,327.28 769.4,326.32 768.28,326.32 C767.16,326.32 766.2,327.28 766.2,328.4 Z M282.52,371.36 L282.52,368.32 L281.72,368.32 C278.84,368.32 277.08,370.24 277.08,370.24 L277.08,368.64 L273.88,368.64 L273.88,384 L277.08,384 L277.08,375.68 C277.08,372.8 278.68,371.2 281.08,371.2 C281.88,371.2 282.52,371.36 282.52,371.36 Z M299.32,377.44 L287.32,377.44 C287.64,379.52 289.56,381.44 292.12,381.44 C295.16,381.44 296.76,379.04 296.76,379.04 L298.84,381.12 C298.84,381.12 296.44,384.32 292.12,384.32 C287.8,384.32 284.12,380.64 284.12,376.16 C284.12,371.84 287.64,368.32 291.96,368.32 C296.28,368.32 299.48,371.52 299.48,375.84 C299.48,376.8 299.32,377.44 299.32,377.44 Z M291.96,371.04 C289.56,371.04 287.96,372.64 287.448,374.72 L296.344,374.72 C295.96,372.64 294.36,371.04 291.96,371.04 Z M304.92,366.72 C304.92,368 304.28,368.64 303.32,368.64 L301.72,368.64 L301.72,371.52 L304.6,371.52 L304.6,379.52 C304.6,382.72 306.2,384.32 309.08,384.32 C310.36,384.32 311.32,384 311.32,384 L311.32,381.12 C311.32,381.12 310.52,381.44 309.72,381.44 C308.6,381.44 307.8,380.64 307.8,379.488 L307.8,371.52 L311,371.52 L311,368.64 L307.8,368.64 L307.8,363.52 L304.92,363.52 L304.92,366.72 Z M326.04,384 L329.24,384 L329.24,368.64 L326.04,368.64 L326.04,376.96 C326.04,379.84 324.44,381.44 322.04,381.44 C319.96,381.44 318.36,379.84 318.36,377.6 L318.36,368.64 L315.16,368.64 L315.16,377.6 C315.16,381.76 317.72,384.32 321.4,384.32 C324.28,384.32 326.04,382.4 326.04,382.4 L326.04,384 Z M342.52,371.36 L342.52,368.32 L341.72,368.32 C338.84,368.32 337.08,370.24 337.08,370.24 L337.08,368.64 L333.88,368.64 L333.88,384 L337.08,384 L337.08,375.68 C337.08,372.8 338.68,371.2 341.08,371.2 C341.88,371.2 342.52,371.36 342.52,371.36 Z M348.28,368.64 L345.08,368.64 L345.08,384 L348.28,384 L348.28,375.68 C348.28,372.8 349.88,371.2 352.28,371.2 C354.36,371.2 355.96,372.8 355.96,375.04 L355.96,384 L359.16,384 L359.16,375.04 C359.16,370.88 356.6,368.32 352.92,368.32 C350.04,368.32 348.28,370.24 348.28,370.24 L348.28,368.64 Z M369.88,377.28 C371.16,377.28 371.8,377.92 371.8,379.2 L371.8,386.08 C371.8,388.96 373.56,390.72 376.76,390.72 L378.52,390.72 L378.52,388.16 L376.76,388.16 C375.48,388.16 374.68,387.36 374.68,386.08 L374.68,379.2 C374.68,376.32 372.92,376 372.952,376 C372.92,376 374.68,375.68 374.68,372.8 L374.68,365.92 C374.68,364.64 375.48,363.84 376.76,363.84 L378.52,363.84 L378.52,361.28 L376.76,361.28 C373.56,361.28 371.8,363.04 371.8,365.92 L371.8,372.8 C371.8,374.08 371.16,374.72 369.88,374.72 L369.88,377.28 Z M301.4,408.72 C301.4,410 300.76,410.64 299.8,410.64 L298.2,410.64 L298.2,413.52 L301.08,413.52 L301.08,421.52 C301.08,424.72 302.68,426.32 305.56,426.32 C306.84,426.32 307.8,426 307.8,426 L307.8,423.12 C307.8,423.12 307,423.44 306.2,423.44 C305.08,423.44 304.28,422.64 304.28,421.488 L304.28,413.52 L307.48,413.52 L307.48,410.64 L304.28,410.64 L304.28,405.52 L301.4,405.52 L301.4,408.72 Z M322.84,418.32 C322.84,415.44 320.6,413.2 318.04,413.2 C315.48,413.2 313.24,415.44 313.24,418.32 C313.24,421.2 315.48,423.44 318.04,423.44 C320.6,423.44 322.84,421.2 322.84,418.32 Z M310.04,418.32 C310.04,414 313.72,410.32 318.04,410.32 C322.36,410.32 326.04,414 326.04,418.32 C326.04,422.64 322.36,426.32 318.04,426.32 C313.72,426.32 310.04,422.64 310.04,418.32 Z M336.12,410.32 C339.16,410.32 341.08,412.4 341.08,412.4 L341.08,403.6 L344.28,403.6 L344.28,426 L341.08,426 L341.08,424.24 C341.08,424.24 339.16,426.32 336.12,426.32 C332.12,426.32 328.6,422.8 328.6,418.32 C328.6,413.84 332.12,410.32 336.12,410.32 Z M336.44,423.44 C338.84,423.44 341.08,421.2 341.08,418.32 C341.08,415.44 338.84,413.2 336.44,413.2 C334.04,413.2 331.8,415.44 331.8,418.32 C331.8,421.2 334.04,423.44 336.44,423.44 Z M360.92,418.32 C360.92,415.44 358.68,413.2 356.12,413.2 C353.56,413.2 351.32,415.44 351.32,418.32 C351.32,421.2 353.56,423.44 356.12,423.44 C358.68,423.44 360.92,421.2 360.92,418.32 Z M348.12,418.32 C348.12,414 351.8,410.32 356.12,410.32 C360.44,410.32 364.12,414 364.12,418.32 C364.12,422.64 360.44,426.32 356.12,426.32 C351.8,426.32 348.12,422.64 348.12,418.32 Z M377.4,412.4 C377.4,412.4 375.8,410.32 372.44,410.32 C369.24,410.32 367,412.56 367,414.8 C367,420.24 374.84,418.64 374.84,421.52 C374.84,422.64 374.04,423.44 372.28,423.44 C369.88,423.44 368.44,421.52 368.44,421.52 L366.36,423.6 C366.36,423.6 368.28,426.32 372.28,426.32 C375.8,426.32 378.04,424.08 378.04,421.52 C378.04,416.08 370.2,417.68 370.2,414.8 C370.2,414 371,413.2 372.44,413.2 C374.2,413.2 375.32,414.48 375.32,414.48 L377.4,412.4 Z M281.4,458.72 C280.12,458.72 279.48,458.08 279.48,456.8 L279.48,449.92 C279.48,447.04 277.72,445.28 274.52,445.28 L272.76,445.28 L272.76,447.84 L274.52,447.84 C275.8,447.84 276.6,448.64 276.6,449.92 L276.6,456.8 C276.6,459.68 278.36,460 278.328,460 C278.36,460 276.6,460.32 276.6,463.2 L276.6,470.08 C276.6,471.36 275.8,472.16 274.52,472.16 L272.76,472.16 L272.76,474.72 L274.52,474.72 C277.72,474.72 279.48,472.96 279.48,470.08 L279.48,463.2 C279.48,461.92 280.12,461.28 281.4,461.28 L281.4,458.72 Z M286.52,464.16 L283.32,471.04 L285.4,472.16 L289.4,465.76 L286.52,464.16 Z M285.4,454.4 C285.4,455.52 286.36,456.48 287.48,456.48 C288.6,456.48 289.56,455.52 289.56,454.4 C289.56,453.28 288.6,452.32 287.48,452.32 C286.36,452.32 285.4,453.28 285.4,454.4 Z M255.8,500.72 C254.52,500.72 253.88,500.08 253.88,498.8 L253.88,491.92 C253.88,489.04 252.12,487.28 248.92,487.28 L247.16,487.28 L247.16,489.84 L248.92,489.84 C250.2,489.84 251,490.64 251,491.92 L251,498.8 C251,501.68 252.76,502 252.728,502 C252.76,502 251,502.32 251,505.2 L251,512.08 C251,513.36 250.2,514.16 248.92,514.16 L247.16,514.16 L247.16,516.72 L248.92,516.72 C252.12,516.72 253.88,514.96 253.88,512.08 L253.88,505.2 C253.88,503.92 254.52,503.28 255.8,503.28 L255.8,500.72 Z M230.2,542.72 C228.92,542.72 228.28,542.08 228.28,540.8 L228.28,533.92 C228.28,531.04 226.52,529.28 223.32,529.28 L221.56,529.28 L221.56,531.84 L223.32,531.84 C224.6,531.84 225.4,532.64 225.4,533.92 L225.4,540.8 C225.4,543.68 227.16,544 227.128,544 C227.16,544 225.4,544.32 225.4,547.2 L225.4,554.08 C225.4,555.36 224.6,556.16 223.32,556.16 L221.56,556.16 L221.56,558.72 L223.32,558.72 C226.52,558.72 228.28,556.96 228.28,554.08 L228.28,547.2 C228.28,545.92 228.92,545.28 230.2,545.28 L230.2,542.72 Z M231.32,581.36 L231.32,578.32 L230.52,578.32 C227.64,578.32 225.88,580.24 225.88,580.24 L225.88,578.64 L222.68,578.64 L222.68,594 L225.88,594 L225.88,585.68 C225.88,582.8 227.48,581.2 229.88,581.2 C230.68,581.2 231.32,581.36 231.32,581.36 Z M248.12,587.44 L236.12,587.44 C236.44,589.52 238.36,591.44 240.92,591.44 C243.96,591.44 245.56,589.04 245.56,589.04 L247.64,591.12 C247.64,591.12 245.24,594.32 240.92,594.32 C236.6,594.32 232.92,590.64 232.92,586.16 C232.92,581.84 236.44,578.32 240.76,578.32 C245.08,578.32 248.28,581.52 248.28,585.84 C248.28,586.8 248.12,587.44 248.12,587.44 Z M240.76,581.04 C238.36,581.04 236.76,582.64 236.248,584.72 L245.144,584.72 C244.76,582.64 243.16,581.04 240.76,581.04 Z M253.72,576.72 C253.72,578 253.08,578.64 252.12,578.64 L250.52,578.64 L250.52,581.52 L253.4,581.52 L253.4,589.52 C253.4,592.72 255,594.32 257.88,594.32 C259.16,594.32 260.12,594 260.12,594 L260.12,591.12 C260.12,591.12 259.32,591.44 258.52,591.44 C257.4,591.44 256.6,590.64 256.6,589.488 L256.6,581.52 L259.8,581.52 L259.8,578.64 L256.6,578.64 L256.6,573.52 L253.72,573.52 L253.72,576.72 Z M274.84,594 L278.04,594 L278.04,578.64 L274.84,578.64 L274.84,586.96 C274.84,589.84 273.24,591.44 270.84,591.44 C268.76,591.44 267.16,589.84 267.16,587.6 L267.16,578.64 L263.96,578.64 L263.96,587.6 C263.96,591.76 266.52,594.32 270.2,594.32 C273.08,594.32 274.84,592.4 274.84,592.4 L274.84,594 Z M291.32,581.36 L291.32,578.32 L290.52,578.32 C287.64,578.32 285.88,580.24 285.88,580.24 L285.88,578.64 L282.68,578.64 L282.68,594 L285.88,594 L285.88,585.68 C285.88,582.8 287.48,581.2 289.88,581.2 C290.68,581.2 291.32,581.36 291.32,581.36 Z M297.08,578.64 L293.88,578.64 L293.88,594 L297.08,594 L297.08,585.68 C297.08,582.8 298.68,581.2 301.08,581.2 C303.16,581.2 304.76,582.8 304.76,585.04 L304.76,594 L307.96,594 L307.96,585.04 C307.96,580.88 305.4,578.32 301.72,578.32 C298.84,578.32 297.08,580.24 297.08,580.24 L297.08,578.64 Z M328.6,580.4 C328.6,580.4 327,578.32 323.64,578.32 C320.44,578.32 318.2,580.56 318.2,582.8 C318.2,588.24 326.04,586.64 326.04,589.52 C326.04,590.64 325.24,591.44 323.48,591.44 C321.08,591.44 319.64,589.52 319.64,589.52 L317.56,591.6 C317.56,591.6 319.48,594.32 323.48,594.32 C327,594.32 329.24,592.08 329.24,589.52 C329.24,584.08 321.4,585.68 321.4,582.8 C321.4,582 322.2,581.2 323.64,581.2 C325.4,581.2 326.52,582.48 326.52,582.48 L328.6,580.4 Z M334.68,576.72 C334.68,578 334.04,578.64 333.08,578.64 L331.48,578.64 L331.48,581.52 L334.36,581.52 L334.36,589.52 C334.36,592.72 335.96,594.32 338.84,594.32 C340.12,594.32 341.08,594 341.08,594 L341.08,591.12 C341.08,591.12 340.28,591.44 339.48,591.44 C338.36,591.44 337.56,590.64 337.56,589.488 L337.56,581.52 L340.76,581.52 L340.76,578.64 L337.56,578.64 L337.56,573.52 L334.68,573.52 L334.68,576.72 Z M357.24,594 L354.04,594 L354.04,592.4 C354.04,592.4 352.28,594.32 349.4,594.32 C346.2,594.32 343.96,592.08 343.96,589.84 C343.96,587.28 345.72,585.52 348.44,585.04 L354.04,584.08 C354.04,582.48 352.76,581.2 350.84,581.2 C348.12,581.2 346.84,583.28 346.84,583.28 L344.76,581.2 C344.76,581.2 346.84,578.32 350.84,578.32 C354.68,578.32 357.24,580.88 357.24,584.08 L357.24,594 Z M349.88,591.44 C352.44,591.44 354.04,589.84 354.04,586.96 L354.04,586.64 L349.08,587.44 C347.96,587.632 347.16,588.4 347.16,589.52 C347.16,590.48 348.12,591.44 349.88,591.44 Z M363.64,576.72 C363.64,578 363,578.64 362.04,578.64 L360.44,578.64 L360.44,581.52 L363.32,581.52 L363.32,589.52 C363.32,592.72 364.92,594.32 367.8,594.32 C369.08,594.32 370.04,594 370.04,594 L370.04,591.12 C370.04,591.12 369.24,591.44 368.44,591.44 C367.32,591.44 366.52,590.64 366.52,589.488 L366.52,581.52 L369.72,581.52 L369.72,578.64 L366.52,578.64 L366.52,573.52 L363.64,573.52 L363.64,576.72 Z M387.48,587.44 L375.48,587.44 C375.8,589.52 377.72,591.44 380.28,591.44 C383.32,591.44 384.92,589.04 384.92,589.04 L387,591.12 C387,591.12 384.6,594.32 380.28,594.32 C375.96,594.32 372.28,590.64 372.28,586.16 C372.28,581.84 375.8,578.32 380.12,578.32 C384.44,578.32 387.64,581.52 387.64,585.84 C387.64,586.8 387.48,587.44 387.48,587.44 Z M380.12,581.04 C377.72,581.04 376.12,582.64 375.608,584.72 L384.504,584.72 C384.12,582.64 382.52,581.04 380.12,581.04 Z M392.28,590.16 L389.08,597.04 L391.16,598.16 L395.16,591.76 L392.28,590.16 Z M391.16,580.4 C391.16,581.52 392.12,582.48 393.24,582.48 C394.36,582.48 395.32,581.52 395.32,580.4 C395.32,579.28 394.36,578.32 393.24,578.32 C392.12,578.32 391.16,579.28 391.16,580.4 Z M204.6,626.72 C203.32,626.72 202.68,626.08 202.68,624.8 L202.68,617.92 C202.68,615.04 200.92,613.28 197.72,613.28 L195.96,613.28 L195.96,615.84 L197.72,615.84 C199,615.84 199.8,616.64 199.8,617.92 L199.8,624.8 C199.8,627.68 201.56,628 201.528,628 C201.56,628 199.8,628.32 199.8,631.2 L199.8,638.08 C199.8,639.36 199,640.16 197.72,640.16 L195.96,640.16 L195.96,642.72 L197.72,642.72 C200.92,642.72 202.68,640.96 202.68,638.08 L202.68,631.2 C202.68,629.92 203.32,629.28 204.6,629.28 L204.6,626.72 Z" id="function-reducer(sta" fill="#545E6F"></path>
        </g>
    </g>
</svg>