<?xml version="1.0" encoding="UTF-8"?>
<svg width="1280px" height="720px" viewBox="0 0 1280 720" version="1.1" xmlns="http://www.w3.org/2000/svg" xmlns:xlink="http://www.w3.org/1999/xlink" style="background: #FFFFFF;">
    <!-- Generator: Sketch 47.1 (45422) - http://www.bohemiancoding.com/sketch -->
    <title>3</title>
    <desc>Created with Sketch.</desc>
    <defs></defs>
    <g id="Page-1" stroke="none" stroke-width="1" fill="none" fill-rule="evenodd">
        <g id="3">
            <g id="Group" transform="translate(125.000000, 180.000000)">
                <rect id="Rectangle-7" fill="#F4F6F8" x="0" y="24" width="1030" height="336" rx="15"></rect>
                <path d="M15,0 L1015,0 L1015,1.77635684e-15 C1023.28427,5.91178485e-14 1030,6.71572875 1030,15 L1030,58 L0,58 L0,15 L-1.77635684e-15,15 C-2.79088747e-15,6.71572875 6.71572875,-2.54560899e-16 15,-1.77635684e-15 Z" id="Rectangle" fill="#8E7CB9"></path>
                <path d="M488.48,33.08 C488.48,34.28 487.52,35.24 485.72,35.24 C483.2,35.24 481.76,33.44 481.76,33.44 L479.6,35.6 C479.6,35.6 481.76,38.36 485.96,38.36 C490.04,38.36 492.32,36.08 492.32,33.08 C492.32,27.08 484.04,28.88 484.04,25.76 C484.04,24.8 484.88,23.96 486.32,23.96 C488.24,23.96 489.44,25.4 489.44,25.4 L491.6,23.12 C491.6,23.12 489.8,20.84 486.08,20.84 C482.48,20.84 480.2,23.12 480.2,25.76 C480.2,31.76 488.48,29.96 488.48,33.08 Z M493.4,21.2 L506.6,21.2 L506.6,24.44 L501.8,24.44 L501.8,38 L498.2,38 L498.2,24.44 L493.4,24.44 L493.4,21.2 Z M516.44,30.92 L514.4,25.4 L512.36,30.92 L516.44,30.92 Z M517.64,34.04 L511.16,34.04 L509.72,38 L505.88,38 L512.48,21.2 L516.32,21.2 L522.92,38 L519.08,38 L517.64,34.04 Z M522.2,21.2 L535.4,21.2 L535.4,24.44 L530.6,24.44 L530.6,38 L527,38 L527,24.44 L522.2,24.44 L522.2,21.2 Z M541.64,34.76 L541.64,31.04 L548.48,31.04 L548.48,27.8 L541.64,27.8 L541.64,24.44 L550.4,24.44 L550.4,21.2 L538.04,21.2 L538.04,38 L550.64,38 L550.64,34.76 L541.64,34.76 Z" id="STATE" fill="#FFFFFF"></path>
            </g>
            <path d="M196.12,301.32 C196.12,305.64 199.8,309.32 204.12,309.32 C208.12,309.32 210.52,306.12 210.52,306.12 L208.44,304.04 C208.44,304.04 206.84,306.44 204.12,306.44 C201.56,306.44 199.32,304.2 199.32,301.32 C199.32,298.44 201.56,296.2 204.12,296.2 C206.84,296.2 208.28,298.44 208.28,298.44 L210.36,296.36 C210.36,296.36 208.12,293.32 204.12,293.32 C199.8,293.32 196.12,297 196.12,301.32 Z M225.56,301.32 C225.56,298.44 223.32,296.2 220.76,296.2 C218.2,296.2 215.96,298.44 215.96,301.32 C215.96,304.2 218.2,306.44 220.76,306.44 C223.32,306.44 225.56,304.2 225.56,301.32 Z M212.76,301.32 C212.76,297 216.44,293.32 220.76,293.32 C225.08,293.32 228.76,297 228.76,301.32 C228.76,305.64 225.08,309.32 220.76,309.32 C216.44,309.32 212.76,305.64 212.76,301.32 Z M235.48,293.64 L232.28,293.64 L232.28,309 L235.48,309 L235.48,300.68 C235.48,297.8 237.08,296.2 239.48,296.2 C241.56,296.2 243.16,297.8 243.16,300.04 L243.16,309 L246.36,309 L246.36,300.04 C246.36,295.88 243.8,293.32 240.12,293.32 C237.24,293.32 235.48,295.24 235.48,295.24 L235.48,293.64 Z M260.6,295.4 C260.6,295.4 259,293.32 255.64,293.32 C252.44,293.32 250.2,295.56 250.2,297.8 C250.2,303.24 258.04,301.64 258.04,304.52 C258.04,305.64 257.24,306.44 255.48,306.44 C253.08,306.44 251.64,304.52 251.64,304.52 L249.56,306.6 C249.56,306.6 251.48,309.32 255.48,309.32 C259,309.32 261.24,307.08 261.24,304.52 C261.24,299.08 253.4,300.68 253.4,297.8 C253.4,297 254.2,296.2 255.64,296.2 C257.4,296.2 258.52,297.48 258.52,297.48 L260.6,295.4 Z M266.68,291.72 C266.68,293 266.04,293.64 265.08,293.64 L263.48,293.64 L263.48,296.52 L266.36,296.52 L266.36,304.52 C266.36,307.72 267.96,309.32 270.84,309.32 C272.12,309.32 273.08,309 273.08,309 L273.08,306.12 C273.08,306.12 272.28,306.44 271.48,306.44 C270.36,306.44 269.56,305.64 269.56,304.488 L269.56,296.52 L272.76,296.52 L272.76,293.64 L269.56,293.64 L269.56,288.52 L266.68,288.52 L266.68,291.72 Z M293.08,295.4 C293.08,295.4 291.48,293.32 288.12,293.32 C284.92,293.32 282.68,295.56 282.68,297.8 C282.68,303.24 290.52,301.64 290.52,304.52 C290.52,305.64 289.72,306.44 287.96,306.44 C285.56,306.44 284.12,304.52 284.12,304.52 L282.04,306.6 C282.04,306.6 283.96,309.32 287.96,309.32 C291.48,309.32 293.72,307.08 293.72,304.52 C293.72,299.08 285.88,300.68 285.88,297.8 C285.88,297 286.68,296.2 288.12,296.2 C289.88,296.2 291,297.48 291,297.48 L293.08,295.4 Z M299.16,291.72 C299.16,293 298.52,293.64 297.56,293.64 L295.96,293.64 L295.96,296.52 L298.84,296.52 L298.84,304.52 C298.84,307.72 300.44,309.32 303.32,309.32 C304.6,309.32 305.56,309 305.56,309 L305.56,306.12 C305.56,306.12 304.76,306.44 303.96,306.44 C302.84,306.44 302.04,305.64 302.04,304.488 L302.04,296.52 L305.24,296.52 L305.24,293.64 L302.04,293.64 L302.04,288.52 L299.16,288.52 L299.16,291.72 Z M321.72,309 L318.52,309 L318.52,307.4 C318.52,307.4 316.76,309.32 313.88,309.32 C310.68,309.32 308.44,307.08 308.44,304.84 C308.44,302.28 310.2,300.52 312.92,300.04 L318.52,299.08 C318.52,297.48 317.24,296.2 315.32,296.2 C312.6,296.2 311.32,298.28 311.32,298.28 L309.24,296.2 C309.24,296.2 311.32,293.32 315.32,293.32 C319.16,293.32 321.72,295.88 321.72,299.08 L321.72,309 Z M314.36,306.44 C316.92,306.44 318.52,304.84 318.52,301.96 L318.52,301.64 L313.56,302.44 C312.44,302.632 311.64,303.4 311.64,304.52 C311.64,305.48 312.6,306.44 314.36,306.44 Z M328.12,291.72 C328.12,293 327.48,293.64 326.52,293.64 L324.92,293.64 L324.92,296.52 L327.8,296.52 L327.8,304.52 C327.8,307.72 329.4,309.32 332.28,309.32 C333.56,309.32 334.52,309 334.52,309 L334.52,306.12 C334.52,306.12 333.72,306.44 332.92,306.44 C331.8,306.44 331,305.64 331,304.488 L331,296.52 L334.2,296.52 L334.2,293.64 L331,293.64 L331,288.52 L328.12,288.52 L328.12,291.72 Z M351.96,302.44 L339.96,302.44 C340.28,304.52 342.2,306.44 344.76,306.44 C347.8,306.44 349.4,304.04 349.4,304.04 L351.48,306.12 C351.48,306.12 349.08,309.32 344.76,309.32 C340.44,309.32 336.76,305.64 336.76,301.16 C336.76,296.84 340.28,293.32 344.6,293.32 C348.92,293.32 352.12,296.52 352.12,300.84 C352.12,301.8 351.96,302.44 351.96,302.44 Z M344.6,296.04 C342.2,296.04 340.6,297.64 340.088,299.72 L348.984,299.72 C348.6,297.64 347,296.04 344.6,296.04 Z M374.36,301 L361.24,301 L361.24,303.88 L374.36,303.88 L374.36,301 Z M374.36,295.24 L361.24,295.24 L361.24,298.12 L374.36,298.12 L374.36,295.24 Z M383.96,302.28 C385.24,302.28 385.88,302.92 385.88,304.2 L385.88,311.08 C385.88,313.96 387.64,315.72 390.84,315.72 L392.6,315.72 L392.6,313.16 L390.84,313.16 C389.56,313.16 388.76,312.36 388.76,311.08 L388.76,304.2 C388.76,301.32 387,301 387.032,301 C387,301 388.76,300.68 388.76,297.8 L388.76,290.92 C388.76,289.64 389.56,288.84 390.84,288.84 L392.6,288.84 L392.6,286.28 L390.84,286.28 C387.64,286.28 385.88,288.04 385.88,290.92 L385.88,297.8 C385.88,299.08 385.24,299.72 383.96,299.72 L383.96,302.28 Z M224.6,333.72 C224.6,335 223.96,335.64 223,335.64 L221.4,335.64 L221.4,338.52 L224.28,338.52 L224.28,346.52 C224.28,349.72 225.88,351.32 228.76,351.32 C230.04,351.32 231,351 231,351 L231,348.12 C231,348.12 230.2,348.44 229.4,348.44 C228.28,348.44 227.48,347.64 227.48,346.488 L227.48,338.52 L230.68,338.52 L230.68,335.64 L227.48,335.64 L227.48,330.52 L224.6,330.52 L224.6,333.72 Z M246.04,343.32 C246.04,340.44 243.8,338.2 241.24,338.2 C238.68,338.2 236.44,340.44 236.44,343.32 C236.44,346.2 238.68,348.44 241.24,348.44 C243.8,348.44 246.04,346.2 246.04,343.32 Z M233.24,343.32 C233.24,339 236.92,335.32 241.24,335.32 C245.56,335.32 249.24,339 249.24,343.32 C249.24,347.64 245.56,351.32 241.24,351.32 C236.92,351.32 233.24,347.64 233.24,343.32 Z M259.32,335.32 C262.36,335.32 264.28,337.4 264.28,337.4 L264.28,328.6 L267.48,328.6 L267.48,351 L264.28,351 L264.28,349.24 C264.28,349.24 262.36,351.32 259.32,351.32 C255.32,351.32 251.8,347.8 251.8,343.32 C251.8,338.84 255.32,335.32 259.32,335.32 Z M259.64,348.44 C262.04,348.44 264.28,346.2 264.28,343.32 C264.28,340.44 262.04,338.2 259.64,338.2 C257.24,338.2 255,340.44 255,343.32 C255,346.2 257.24,348.44 259.64,348.44 Z M284.12,343.32 C284.12,340.44 281.88,338.2 279.32,338.2 C276.76,338.2 274.52,340.44 274.52,343.32 C274.52,346.2 276.76,348.44 279.32,348.44 C281.88,348.44 284.12,346.2 284.12,343.32 Z M271.32,343.32 C271.32,339 275,335.32 279.32,335.32 C283.64,335.32 287.32,339 287.32,343.32 C287.32,347.64 283.64,351.32 279.32,351.32 C275,351.32 271.32,347.64 271.32,343.32 Z M300.6,337.4 C300.6,337.4 299,335.32 295.64,335.32 C292.44,335.32 290.2,337.56 290.2,339.8 C290.2,345.24 298.04,343.64 298.04,346.52 C298.04,347.64 297.24,348.44 295.48,348.44 C293.08,348.44 291.64,346.52 291.64,346.52 L289.56,348.6 C289.56,348.6 291.48,351.32 295.48,351.32 C299,351.32 301.24,349.08 301.24,346.52 C301.24,341.08 293.4,342.68 293.4,339.8 C293.4,339 294.2,338.2 295.64,338.2 C297.4,338.2 298.52,339.48 298.52,339.48 L300.6,337.4 Z M304.28,349.24 C304.28,350.36 305.24,351.32 306.36,351.32 C307.48,351.32 308.44,350.36 308.44,349.24 C308.44,348.12 307.48,347.16 306.36,347.16 C305.24,347.16 304.28,348.12 304.28,349.24 Z M304.28,337.4 C304.28,338.52 305.24,339.48 306.36,339.48 C307.48,339.48 308.44,338.52 308.44,337.4 C308.44,336.28 307.48,335.32 306.36,335.32 C305.24,335.32 304.28,336.28 304.28,337.4 Z M321.88,330.84 L326.04,330.84 L326.04,328.28 L319,328.28 L319,357.72 L326.04,357.72 L326.04,355.16 L321.88,355.16 L321.88,330.84 Z M247.96,386.76 C249.24,386.76 250.04,387.56 250.04,388.84 L250.04,394.28 C250.04,397.8 251.96,399.72 255.32,399.72 L257.72,399.72 L257.72,395.88 L256.12,395.88 C255,395.88 254.2,395.08 254.2,393.896 L254.2,388.68 C254.2,385.48 252.12,385 252.12,385 C252.12,385 254.2,384.52 254.2,381.32 L254.2,376.136 C254.2,374.92 255,374.12 256.12,374.12 L257.72,374.12 L257.72,370.28 L255.32,370.28 C251.96,370.28 250.04,372.2 250.04,375.72 L250.04,381.16 C250.04,382.44 249.24,383.24 247.96,383.24 L247.96,386.76 Z M271.8,370.6 L267.48,370.6 L267.48,393 L271.8,393 L271.8,370.6 Z M284.76,393 L284.76,391.4 C284.76,391.4 283.16,393.32 280.44,393.32 C277.24,393.32 275.16,391.24 275.16,388.84 C275.16,386.28 276.92,384.488 279.8,383.976 L284.76,383.08 C284.76,381.8 283.8,380.84 282.04,380.84 C279.64,380.84 278.52,382.44 278.52,382.44 L276.12,380.04 C276.12,380.04 278.2,377 282.36,377 C286.36,377 289.08,379.72 289.08,383.24 L289.08,393 L284.76,393 Z M281.56,389.8 C283.48,389.8 284.76,388.52 284.76,386.28 L284.76,385.8 L281.24,386.44 C280.12,386.632 279.48,387.24 279.48,388.2 C279.48,389.16 280.12,389.8 281.56,389.8 Z M302.36,377 C306.36,377 309.88,380.52 309.88,385.16 C309.88,389.8 306.36,393.32 302.36,393.32 C299.32,393.32 297.72,391.08 297.72,391.08 L297.72,393 L293.4,393 L293.4,370.6 L297.72,370.6 L297.72,379.24 C297.72,379.24 299.32,377 302.36,377 Z M301.56,389.48 C303.64,389.48 305.4,387.72 305.4,385.16 C305.4,382.6 303.64,380.84 301.56,380.84 C299.48,380.84 297.72,382.6 297.72,385.16 C297.72,387.72 299.48,389.48 301.56,389.48 Z M327.96,386.6 L316.6,386.6 C316.92,388.2 318.36,389.64 320.76,389.64 C323.48,389.64 324.92,387.72 324.92,387.72 L327.16,390.6 C327.16,390.6 324.76,393.32 320.44,393.32 C315.8,393.32 312.12,389.64 312.12,385.16 C312.12,380.68 315.8,377 320.28,377 C324.76,377 328.12,380.36 328.12,384.84 C328.12,385.96 327.96,386.6 327.96,386.6 Z M320.28,380.68 C318.36,380.68 317.08,381.96 316.6,383.56 L323.8,383.56 C323.48,381.96 322.2,380.68 320.28,380.68 Z M335.8,370.6 L331.48,370.6 L331.48,393 L335.8,393 L335.8,370.6 Z M339.64,390.92 C339.64,392.2 340.76,393.32 342.2,393.32 C343.64,393.32 344.76,392.2 344.76,390.92 C344.76,389.64 343.64,388.52 342.2,388.52 C340.76,388.52 339.64,389.64 339.64,390.92 Z M339.64,379.4 C339.64,380.68 340.76,381.8 342.2,381.8 C343.64,381.8 344.76,380.68 344.76,379.4 C344.76,378.12 343.64,377 342.2,377 C340.76,377 339.64,378.12 339.64,379.4 Z M358.36,370.6 L354.52,370.6 L354.52,377.96 L358.36,377.96 L358.36,370.6 Z M367.8,388.68 L367.8,383.72 L376.92,383.72 L376.92,379.4 L367.8,379.4 L367.8,374.92 L379.48,374.92 L379.48,370.6 L363,370.6 L363,393 L379.8,393 L379.8,388.68 L367.8,388.68 Z M391.96,393 L391.96,391.4 C391.96,391.4 390.36,393.32 387.64,393.32 C384.44,393.32 382.36,391.24 382.36,388.84 C382.36,386.28 384.12,384.488 387,383.976 L391.96,383.08 C391.96,381.8 391,380.84 389.24,380.84 C386.84,380.84 385.72,382.44 385.72,382.44 L383.32,380.04 C383.32,380.04 385.4,377 389.56,377 C393.56,377 396.28,379.72 396.28,383.24 L396.28,393 L391.96,393 Z M388.76,389.8 C390.68,389.8 391.96,388.52 391.96,386.28 L391.96,385.8 L388.44,386.44 C387.32,386.632 386.68,387.24 386.68,388.2 C386.68,389.16 387.32,389.8 388.76,389.8 Z M402.36,375.56 C402.36,376.84 401.56,377.64 400.6,377.64 L399.16,377.64 L399.16,381.48 L401.88,381.48 L401.88,387.88 C401.88,391.56 403.64,393.32 406.84,393.32 C408.44,393.32 409.72,392.84 409.72,392.84 L409.72,389.16 C409.72,389.16 409.08,389.48 408.12,389.48 C407,389.48 406.2,388.68 406.2,387.72 L406.2,381.48 L409.4,381.48 L409.4,377.64 L406.2,377.64 L406.2,372.68 L402.36,372.68 L402.36,375.56 Z M428.92,393.32 C425.88,393.32 424.28,391.08 424.28,391.08 L424.28,399.72 L419.96,399.72 L419.96,377.32 L424.28,377.32 L424.28,379.24 C424.28,379.24 425.88,377 428.92,377 C432.92,377 436.44,380.52 436.44,385.16 C436.44,389.8 432.92,393.32 428.92,393.32 Z M428.12,380.84 C426.04,380.84 424.28,382.6 424.28,385.16 C424.28,387.72 426.04,389.48 428.12,389.48 C430.2,389.48 431.96,387.72 431.96,385.16 C431.96,382.6 430.2,380.84 428.12,380.84 Z M444.12,377.32 L439.8,377.32 L439.8,393 L444.12,393 L444.12,377.32 Z M444.44,372.84 C444.44,371.4 443.48,370.44 441.88,370.44 C440.44,370.44 439.48,371.4 439.48,372.84 C439.48,374.28 440.44,375.24 441.88,375.24 C443.48,375.24 444.44,374.28 444.44,372.84 Z M460.76,377.32 L447.96,377.32 L447.96,381.16 L455.32,381.16 L447.64,389.16 L447.64,393 L461.08,393 L461.08,389.16 L453.08,389.16 L460.76,381.16 L460.76,377.32 Z M476.76,377.32 L463.96,377.32 L463.96,381.16 L471.32,381.16 L463.64,389.16 L463.64,393 L477.08,393 L477.08,389.16 L469.08,389.16 L476.76,381.16 L476.76,377.32 Z M489.08,393 L489.08,391.4 C489.08,391.4 487.48,393.32 484.76,393.32 C481.56,393.32 479.48,391.24 479.48,388.84 C479.48,386.28 481.24,384.488 484.12,383.976 L489.08,383.08 C489.08,381.8 488.12,380.84 486.36,380.84 C483.96,380.84 482.84,382.44 482.84,382.44 L480.44,380.04 C480.44,380.04 482.52,377 486.68,377 C490.68,377 493.4,379.72 493.4,383.24 L493.4,393 L489.08,393 Z M485.88,389.8 C487.8,389.8 489.08,388.52 489.08,386.28 L489.08,385.8 L485.56,386.44 C484.44,386.632 483.8,387.24 483.8,388.2 C483.8,389.16 484.44,389.8 485.88,389.8 Z M500.6,370.6 L496.76,370.6 L496.76,377.96 L500.6,377.96 L500.6,370.6 Z M505.72,388.36 L502.2,395.72 L505.08,397.16 L509.24,390.44 L505.72,388.36 Z M518.2,385.16 C518.2,389.48 522.04,393.32 526.68,393.32 C531,393.32 533.08,390.12 533.08,390.12 L530.52,387.4 C530.52,387.4 529.08,389.48 526.68,389.48 C524.44,389.48 522.52,387.56 522.52,385.16 C522.52,382.76 524.44,380.84 526.68,380.84 C529.08,380.84 530.36,382.92 530.36,382.92 L533.08,380.2 C533.08,380.2 531,377 526.68,377 C522.04,377 518.2,380.84 518.2,385.16 Z M539.48,385.16 C539.48,387.56 541.24,389.32 543.32,389.32 C545.4,389.32 547.16,387.56 547.16,385.16 C547.16,382.76 545.4,381 543.32,381 C541.24,381 539.48,382.76 539.48,385.16 Z M551.64,385.16 C551.64,389.48 547.8,393.32 543.32,393.32 C538.84,393.32 535,389.48 535,385.16 C535,380.84 538.84,377 543.32,377 C547.8,377 551.64,380.84 551.64,385.16 Z M574.36,393 L578.68,393 L578.68,383.88 C578.68,379.24 576.44,377 573.08,377 C569.56,377 567.8,379.72 567.8,379.72 C567.8,379.72 566.68,377 563.32,377 C560.6,377 559.16,379.24 559.16,379.24 L559.16,377.32 L554.84,377.32 L554.84,393 L559.16,393 L559.16,384.84 C559.16,382.44 560.44,381.16 562.04,381.16 C563.48,381.16 564.6,382.28 564.6,384.36 L564.6,393 L568.92,393 L568.92,384.84 C568.92,382.44 570.2,381.16 571.8,381.16 C573.24,381.16 574.36,382.28 574.36,384.36 L574.36,393 Z M591.8,393.32 C588.76,393.32 587.16,391.08 587.16,391.08 L587.16,399.72 L582.84,399.72 L582.84,377.32 L587.16,377.32 L587.16,379.24 C587.16,379.24 588.76,377 591.8,377 C595.8,377 599.32,380.52 599.32,385.16 C599.32,389.8 595.8,393.32 591.8,393.32 Z M591,380.84 C588.92,380.84 587.16,382.6 587.16,385.16 C587.16,387.72 588.92,389.48 591,389.48 C593.08,389.48 594.84,387.72 594.84,385.16 C594.84,382.6 593.08,380.84 591,380.84 Z M607,370.6 L602.68,370.6 L602.68,393 L607,393 L607,370.6 Z M626.2,386.6 L614.84,386.6 C615.16,388.2 616.6,389.64 619,389.64 C621.72,389.64 623.16,387.72 623.16,387.72 L625.4,390.6 C625.4,390.6 623,393.32 618.68,393.32 C614.04,393.32 610.36,389.64 610.36,385.16 C610.36,380.68 614.04,377 618.52,377 C623,377 626.36,380.36 626.36,384.84 C626.36,385.96 626.2,386.6 626.2,386.6 Z M618.52,380.68 C616.6,380.68 615.32,381.96 614.84,383.56 L622.04,383.56 C621.72,381.96 620.44,380.68 618.52,380.68 Z M631.48,375.56 C631.48,376.84 630.68,377.64 629.72,377.64 L628.28,377.64 L628.28,381.48 L631,381.48 L631,387.88 C631,391.56 632.76,393.32 635.96,393.32 C637.56,393.32 638.84,392.84 638.84,392.84 L638.84,389.16 C638.84,389.16 638.2,389.48 637.24,389.48 C636.12,389.48 635.32,388.68 635.32,387.72 L635.32,381.48 L638.52,381.48 L638.52,377.64 L635.32,377.64 L635.32,372.68 L631.48,372.68 L631.48,375.56 Z M656.76,386.6 L645.4,386.6 C645.72,388.2 647.16,389.64 649.56,389.64 C652.28,389.64 653.72,387.72 653.72,387.72 L655.96,390.6 C655.96,390.6 653.56,393.32 649.24,393.32 C644.6,393.32 640.92,389.64 640.92,385.16 C640.92,380.68 644.6,377 649.08,377 C653.56,377 656.92,380.36 656.92,384.84 C656.92,385.96 656.76,386.6 656.76,386.6 Z M649.08,380.68 C647.16,380.68 645.88,381.96 645.4,383.56 L652.6,383.56 C652.28,381.96 651,380.68 649.08,380.68 Z M659.64,390.92 C659.64,392.2 660.76,393.32 662.2,393.32 C663.64,393.32 664.76,392.2 664.76,390.92 C664.76,389.64 663.64,388.52 662.2,388.52 C660.76,388.52 659.64,389.64 659.64,390.92 Z M659.64,379.4 C659.64,380.68 660.76,381.8 662.2,381.8 C663.64,381.8 664.76,380.68 664.76,379.4 C664.76,378.12 663.64,377 662.2,377 C660.76,377 659.64,378.12 659.64,379.4 Z M683.48,377.8 L679.96,377.8 L679.96,375.88 C679.96,374.92 680.76,374.12 681.88,374.12 C682.84,374.12 683.48,374.44 683.48,374.44 L683.48,370.76 C683.48,370.76 682.2,370.28 680.6,370.28 C677.4,370.28 675.64,372.04 675.64,375.72 L675.64,377.8 L673.4,377.8 L673.4,381.64 L675.64,381.64 L675.64,393 L679.96,393 L679.96,381.64 L683.48,381.64 L683.48,377.8 Z M695,393 L695,391.4 C695,391.4 693.4,393.32 690.68,393.32 C687.48,393.32 685.4,391.24 685.4,388.84 C685.4,386.28 687.16,384.488 690.04,383.976 L695,383.08 C695,381.8 694.04,380.84 692.28,380.84 C689.88,380.84 688.76,382.44 688.76,382.44 L686.36,380.04 C686.36,380.04 688.44,377 692.6,377 C696.6,377 699.32,379.72 699.32,383.24 L699.32,393 L695,393 Z M691.8,389.8 C693.72,389.8 695,388.52 695,386.28 L695,385.8 L691.48,386.44 C690.36,386.632 689.72,387.24 689.72,388.2 C689.72,389.16 690.36,389.8 691.8,389.8 Z M707.96,370.6 L703.64,370.6 L703.64,393 L707.96,393 L707.96,370.6 Z M723.16,379.4 C723.16,379.4 721.4,377 717.72,377 C714.2,377 711.64,379.56 711.64,381.96 C711.64,387.144 718.84,385.96 718.84,388.36 C718.84,389.16 718.2,389.8 716.76,389.8 C714.68,389.8 713.4,388.04 713.4,388.04 L711,390.44 C711,390.44 712.92,393.32 717.4,393.32 C721.4,393.32 723.64,391.08 723.64,388.36 C723.64,383.08 716.44,384.2 716.44,381.96 C716.44,381.32 717.08,380.68 718.36,380.68 C719.96,380.68 720.92,381.96 720.92,381.96 L723.16,379.4 Z M741.72,386.6 L730.36,386.6 C730.68,388.2 732.12,389.64 734.52,389.64 C737.24,389.64 738.68,387.72 738.68,387.72 L740.92,390.6 C740.92,390.6 738.52,393.32 734.2,393.32 C729.56,393.32 725.88,389.64 725.88,385.16 C725.88,380.68 729.56,377 734.04,377 C738.52,377 741.88,380.36 741.88,384.84 C741.88,385.96 741.72,386.6 741.72,386.6 Z M734.04,380.68 C732.12,380.68 730.84,381.96 730.36,383.56 L737.56,383.56 C737.24,381.96 735.96,380.68 734.04,380.68 Z M760.6,383.24 C759.32,383.24 758.52,382.44 758.52,381.16 L758.52,375.72 C758.52,372.2 756.6,370.28 753.24,370.28 L750.84,370.28 L750.84,374.12 L752.44,374.12 C753.56,374.12 754.36,374.92 754.36,376.136 L754.36,381.32 C754.36,384.52 756.44,385 756.44,385 C756.44,385 754.36,385.48 754.36,388.68 L754.36,393.896 C754.36,395.08 753.56,395.88 752.44,395.88 L750.84,395.88 L750.84,399.72 L753.24,399.72 C756.6,399.72 758.52,397.8 758.52,394.28 L758.52,388.84 C758.52,387.56 759.32,386.76 760.6,386.76 L760.6,383.24 Z M225.72,439.16 L221.56,439.16 L221.56,441.72 L228.6,441.72 L228.6,412.28 L221.56,412.28 L221.56,414.84 L225.72,414.84 L225.72,439.16 Z M204.6,467.72 C203.32,467.72 202.68,467.08 202.68,465.8 L202.68,458.92 C202.68,456.04 200.92,454.28 197.72,454.28 L195.96,454.28 L195.96,456.84 L197.72,456.84 C199,456.84 199.8,457.64 199.8,458.92 L199.8,465.8 C199.8,468.68 201.56,469 201.528,469 C201.56,469 199.8,469.32 199.8,472.2 L199.8,479.08 C199.8,480.36 199,481.16 197.72,481.16 L195.96,481.16 L195.96,483.72 L197.72,483.72 C200.92,483.72 202.68,481.96 202.68,479.08 L202.68,472.2 C202.68,470.92 203.32,470.28 204.6,470.28 L204.6,467.72 Z M209.72,473.16 L206.52,480.04 L208.6,481.16 L212.6,474.76 L209.72,473.16 Z M208.6,463.4 C208.6,464.52 209.56,465.48 210.68,465.48 C211.8,465.48 212.76,464.52 212.76,463.4 C212.76,462.28 211.8,461.32 210.68,461.32 C209.56,461.32 208.6,462.28 208.6,463.4 Z" id="const-state-=-{-todo" fill="#545E6F"></path>
        </g>
    </g>
</svg>