<?xml version="1.0" encoding="UTF-8"?>
<svg width="1280px" height="720px" viewBox="0 0 1280 720" version="1.1" xmlns="http://www.w3.org/2000/svg" xmlns:xlink="http://www.w3.org/1999/xlink" style="background: #FFFFFF;">
    <!-- Generator: Sketch 47.1 (45422) - http://www.bohemiancoding.com/sketch -->
    <title>component-store-selector</title>
    <desc>Created with Sketch.</desc>
    <defs></defs>
    <g id="Page-1" stroke="none" stroke-width="1" fill="none" fill-rule="evenodd">
        <g id="component-store-selector">
            <g id="Group" transform="translate(131.000000, 97.000000)">
                <rect id="Rectangle-7" fill="#F4F6F8" x="0" y="24" width="1030" height="502" rx="15"></rect>
                <path d="M15,0 L1015,0 L1015,1.77635684e-15 C1023.28427,5.91178485e-14 1030,6.71572875 1030,15 L1030,58 L0,58 L0,15 L-1.77635684e-15,15 C-2.79088747e-15,6.71572875 6.71572875,-2.54560899e-16 15,-1.77635684e-15 Z" id="Rectangle" fill="#F9BE65"></path>
            </g>
            <path d="M217.32,221.44 L205.32,221.44 C205.64,223.52 207.56,225.44 210.12,225.44 C213.16,225.44 214.76,223.04 214.76,223.04 L216.84,225.12 C216.84,225.12 214.44,228.32 210.12,228.32 C205.8,228.32 202.12,224.64 202.12,220.16 C202.12,215.84 205.64,212.32 209.96,212.32 C214.28,212.32 217.48,215.52 217.48,219.84 C217.48,220.8 217.32,221.44 217.32,221.44 Z M209.96,215.04 C207.56,215.04 205.96,216.64 205.448,218.72 L214.344,218.72 C213.96,216.64 212.36,215.04 209.96,215.04 Z M228.68,220 L233.96,212.64 L230.28,212.64 L226.76,217.6 L223.24,212.64 L219.56,212.64 L224.84,220 L219.08,228 L222.76,228 L226.76,222.4 L230.76,228 L234.44,228 L228.68,220 Z M245.16,228.32 C242.12,228.32 240.2,226.24 240.2,226.24 L240.2,234.72 L237,234.72 L237,212.64 L240.2,212.64 L240.2,214.4 C240.2,214.4 242.12,212.32 245.16,212.32 C249.16,212.32 252.68,215.84 252.68,220.32 C252.68,224.8 249.16,228.32 245.16,228.32 Z M244.84,215.2 C242.44,215.2 240.2,217.44 240.2,220.32 C240.2,223.2 242.44,225.44 244.84,225.44 C247.24,225.44 249.48,223.2 249.48,220.32 C249.48,217.44 247.24,215.2 244.84,215.2 Z M268.04,220.32 C268.04,217.44 265.8,215.2 263.24,215.2 C260.68,215.2 258.44,217.44 258.44,220.32 C258.44,223.2 260.68,225.44 263.24,225.44 C265.8,225.44 268.04,223.2 268.04,220.32 Z M255.24,220.32 C255.24,216 258.92,212.32 263.24,212.32 C267.56,212.32 271.24,216 271.24,220.32 C271.24,224.64 267.56,228.32 263.24,228.32 C258.92,228.32 255.24,224.64 255.24,220.32 Z M283.4,215.36 L283.4,212.32 L282.6,212.32 C279.72,212.32 277.96,214.24 277.96,214.24 L277.96,212.64 L274.76,212.64 L274.76,228 L277.96,228 L277.96,219.68 C277.96,216.8 279.56,215.2 281.96,215.2 C282.76,215.2 283.4,215.36 283.4,215.36 Z M287.88,210.72 C287.88,212 287.24,212.64 286.28,212.64 L284.68,212.64 L284.68,215.52 L287.56,215.52 L287.56,223.52 C287.56,226.72 289.16,228.32 292.04,228.32 C293.32,228.32 294.28,228 294.28,228 L294.28,225.12 C294.28,225.12 293.48,225.44 292.68,225.44 C291.56,225.44 290.76,224.64 290.76,223.488 L290.76,215.52 L293.96,215.52 L293.96,212.64 L290.76,212.64 L290.76,207.52 L287.88,207.52 L287.88,210.72 Z M303.56,220.32 C303.56,224.64 307.24,228.32 311.56,228.32 C315.56,228.32 317.96,225.12 317.96,225.12 L315.88,223.04 C315.88,223.04 314.28,225.44 311.56,225.44 C309,225.44 306.76,223.2 306.76,220.32 C306.76,217.44 309,215.2 311.56,215.2 C314.28,215.2 315.72,217.44 315.72,217.44 L317.8,215.36 C317.8,215.36 315.56,212.32 311.56,212.32 C307.24,212.32 303.56,216 303.56,220.32 Z M324.68,205.6 L321.48,205.6 L321.48,228 L324.68,228 L324.68,205.6 Z M341.8,228 L338.6,228 L338.6,226.4 C338.6,226.4 336.84,228.32 333.96,228.32 C330.76,228.32 328.52,226.08 328.52,223.84 C328.52,221.28 330.28,219.52 333,219.04 L338.6,218.08 C338.6,216.48 337.32,215.2 335.4,215.2 C332.68,215.2 331.4,217.28 331.4,217.28 L329.32,215.2 C329.32,215.2 331.4,212.32 335.4,212.32 C339.24,212.32 341.8,214.88 341.8,218.08 L341.8,228 Z M334.44,225.44 C337,225.44 338.6,223.84 338.6,220.96 L338.6,220.64 L333.64,221.44 C332.52,221.632 331.72,222.4 331.72,223.52 C331.72,224.48 332.68,225.44 334.44,225.44 Z M356.04,214.4 C356.04,214.4 354.44,212.32 351.08,212.32 C347.88,212.32 345.64,214.56 345.64,216.8 C345.64,222.24 353.48,220.64 353.48,223.52 C353.48,224.64 352.68,225.44 350.92,225.44 C348.52,225.44 347.08,223.52 347.08,223.52 L345,225.6 C345,225.6 346.92,228.32 350.92,228.32 C354.44,228.32 356.68,226.08 356.68,223.52 C356.68,218.08 348.84,219.68 348.84,216.8 C348.84,216 349.64,215.2 351.08,215.2 C352.84,215.2 353.96,216.48 353.96,216.48 L356.04,214.4 Z M369.96,214.4 C369.96,214.4 368.36,212.32 365,212.32 C361.8,212.32 359.56,214.56 359.56,216.8 C359.56,222.24 367.4,220.64 367.4,223.52 C367.4,224.64 366.6,225.44 364.84,225.44 C362.44,225.44 361,223.52 361,223.52 L358.92,225.6 C358.92,225.6 360.84,228.32 364.84,228.32 C368.36,228.32 370.6,226.08 370.6,223.52 C370.6,218.08 362.76,219.68 362.76,216.8 C362.76,216 363.56,215.2 365,215.2 C366.76,215.2 367.88,216.48 367.88,216.48 L369.96,214.4 Z M379.08,205.6 L396.04,205.6 L396.04,208.8 L389.32,208.8 L389.32,228 L385.8,228 L385.8,208.8 L379.08,208.8 L379.08,205.6 Z M408.68,220.32 C408.68,217.44 406.44,215.2 403.88,215.2 C401.32,215.2 399.08,217.44 399.08,220.32 C399.08,223.2 401.32,225.44 403.88,225.44 C406.44,225.44 408.68,223.2 408.68,220.32 Z M395.88,220.32 C395.88,216 399.56,212.32 403.88,212.32 C408.2,212.32 411.88,216 411.88,220.32 C411.88,224.64 408.2,228.32 403.88,228.32 C399.56,228.32 395.88,224.64 395.88,220.32 Z M421.96,212.32 C425,212.32 426.92,214.4 426.92,214.4 L426.92,205.6 L430.12,205.6 L430.12,228 L426.92,228 L426.92,226.24 C426.92,226.24 425,228.32 421.96,228.32 C417.96,228.32 414.44,224.8 414.44,220.32 C414.44,215.84 417.96,212.32 421.96,212.32 Z M422.28,225.44 C424.68,225.44 426.92,223.2 426.92,220.32 C426.92,217.44 424.68,215.2 422.28,215.2 C419.88,215.2 417.64,217.44 417.64,220.32 C417.64,223.2 419.88,225.44 422.28,225.44 Z M446.76,220.32 C446.76,217.44 444.52,215.2 441.96,215.2 C439.4,215.2 437.16,217.44 437.16,220.32 C437.16,223.2 439.4,225.44 441.96,225.44 C444.52,225.44 446.76,223.2 446.76,220.32 Z M433.96,220.32 C433.96,216 437.64,212.32 441.96,212.32 C446.28,212.32 449.96,216 449.96,220.32 C449.96,224.64 446.28,228.32 441.96,228.32 C437.64,228.32 433.96,224.64 433.96,220.32 Z M463.24,214.4 C463.24,214.4 461.64,212.32 458.28,212.32 C455.08,212.32 452.84,214.56 452.84,216.8 C452.84,222.24 460.68,220.64 460.68,223.52 C460.68,224.64 459.88,225.44 458.12,225.44 C455.72,225.44 454.28,223.52 454.28,223.52 L452.2,225.6 C452.2,225.6 454.12,228.32 458.12,228.32 C461.64,228.32 463.88,226.08 463.88,223.52 C463.88,218.08 456.04,219.68 456.04,216.8 C456.04,216 456.84,215.2 458.28,215.2 C460.04,215.2 461.16,216.48 461.16,216.48 L463.24,214.4 Z M479.08,205.28 C472.36,205.28 467.24,210.4 467.24,216.8 C467.24,223.2 472.36,228.32 479.08,228.32 C485.16,228.32 488.36,223.84 488.36,223.84 L486.12,221.6 C486.12,221.6 483.72,225.12 479.08,225.12 C474.44,225.12 470.76,221.44 470.76,216.8 C470.76,212.16 474.44,208.48 479.08,208.48 C483.72,208.48 485.96,211.84 485.96,211.84 L488.2,209.6 C488.2,209.6 485.16,205.28 479.08,205.28 Z M503.56,220.32 C503.56,217.44 501.32,215.2 498.76,215.2 C496.2,215.2 493.96,217.44 493.96,220.32 C493.96,223.2 496.2,225.44 498.76,225.44 C501.32,225.44 503.56,223.2 503.56,220.32 Z M490.76,220.32 C490.76,216 494.44,212.32 498.76,212.32 C503.08,212.32 506.76,216 506.76,220.32 C506.76,224.64 503.08,228.32 498.76,228.32 C494.44,228.32 490.76,224.64 490.76,220.32 Z M530.12,228 L533.32,228 L533.32,219.04 C533.32,214.56 531.08,212.32 527.56,212.32 C524.04,212.32 522.28,214.88 522.28,214.88 C522.28,214.88 521,212.32 517.64,212.32 C515.08,212.32 513.48,214.24 513.48,214.24 L513.48,212.64 L510.28,212.64 L510.28,228 L513.48,228 L513.48,219.68 C513.48,216.8 515.08,215.2 517,215.2 C518.92,215.2 520.2,216.48 520.2,219.04 L520.2,228 L523.4,228 L523.4,219.68 C523.4,216.8 525,215.2 526.92,215.2 C528.84,215.2 530.12,216.48 530.12,219.04 L530.12,228 Z M545.96,228.32 C542.92,228.32 541,226.24 541,226.24 L541,234.72 L537.8,234.72 L537.8,212.64 L541,212.64 L541,214.4 C541,214.4 542.92,212.32 545.96,212.32 C549.96,212.32 553.48,215.84 553.48,220.32 C553.48,224.8 549.96,228.32 545.96,228.32 Z M545.64,215.2 C543.24,215.2 541,217.44 541,220.32 C541,223.2 543.24,225.44 545.64,225.44 C548.04,225.44 550.28,223.2 550.28,220.32 C550.28,217.44 548.04,215.2 545.64,215.2 Z M568.84,220.32 C568.84,217.44 566.6,215.2 564.04,215.2 C561.48,215.2 559.24,217.44 559.24,220.32 C559.24,223.2 561.48,225.44 564.04,225.44 C566.6,225.44 568.84,223.2 568.84,220.32 Z M556.04,220.32 C556.04,216 559.72,212.32 564.04,212.32 C568.36,212.32 572.04,216 572.04,220.32 C572.04,224.64 568.36,228.32 564.04,228.32 C559.72,228.32 556.04,224.64 556.04,220.32 Z M578.76,212.64 L575.56,212.64 L575.56,228 L578.76,228 L578.76,219.68 C578.76,216.8 580.36,215.2 582.76,215.2 C584.84,215.2 586.44,216.8 586.44,219.04 L586.44,228 L589.64,228 L589.64,219.04 C589.64,214.88 587.08,212.32 583.4,212.32 C580.52,212.32 578.76,214.24 578.76,214.24 L578.76,212.64 Z M608.36,221.44 L596.36,221.44 C596.68,223.52 598.6,225.44 601.16,225.44 C604.2,225.44 605.8,223.04 605.8,223.04 L607.88,225.12 C607.88,225.12 605.48,228.32 601.16,228.32 C596.84,228.32 593.16,224.64 593.16,220.16 C593.16,215.84 596.68,212.32 601,212.32 C605.32,212.32 608.52,215.52 608.52,219.84 C608.52,220.8 608.36,221.44 608.36,221.44 Z M601,215.04 C598.6,215.04 597,216.64 596.488,218.72 L605.384,218.72 C605,216.64 603.4,215.04 601,215.04 Z M615.24,212.64 L612.04,212.64 L612.04,228 L615.24,228 L615.24,219.68 C615.24,216.8 616.84,215.2 619.24,215.2 C621.32,215.2 622.92,216.8 622.92,219.04 L622.92,228 L626.12,228 L626.12,219.04 C626.12,214.88 623.56,212.32 619.88,212.32 C617,212.32 615.24,214.24 615.24,214.24 L615.24,212.64 Z M632.52,210.72 C632.52,212 631.88,212.64 630.92,212.64 L629.32,212.64 L629.32,215.52 L632.2,215.52 L632.2,223.52 C632.2,226.72 633.8,228.32 636.68,228.32 C637.96,228.32 638.92,228 638.92,228 L638.92,225.12 C638.92,225.12 638.12,225.44 637.32,225.44 C636.2,225.44 635.4,224.64 635.4,223.488 L635.4,215.52 L638.6,215.52 L638.6,212.64 L635.4,212.64 L635.4,207.52 L632.52,207.52 L632.52,210.72 Z M652.52,212.64 L649.32,212.64 L649.32,228 L652.52,228 L652.52,212.64 Z M652.84,207.84 C652.84,206.72 652.04,205.92 650.92,205.92 C649.8,205.92 649,206.72 649,207.84 C649,208.96 649.8,209.76 650.92,209.76 C652.04,209.76 652.84,208.96 652.84,207.84 Z M677,228 L680.2,228 L680.2,219.04 C680.2,214.56 677.96,212.32 674.44,212.32 C670.92,212.32 669.16,214.88 669.16,214.88 C669.16,214.88 667.88,212.32 664.52,212.32 C661.96,212.32 660.36,214.24 660.36,214.24 L660.36,212.64 L657.16,212.64 L657.16,228 L660.36,228 L660.36,219.68 C660.36,216.8 661.96,215.2 663.88,215.2 C665.8,215.2 667.08,216.48 667.08,219.04 L667.08,228 L670.28,228 L670.28,219.68 C670.28,216.8 671.88,215.2 673.8,215.2 C675.72,215.2 677,216.48 677,219.04 L677,228 Z M692.84,228.32 C689.8,228.32 687.88,226.24 687.88,226.24 L687.88,234.72 L684.68,234.72 L684.68,212.64 L687.88,212.64 L687.88,214.4 C687.88,214.4 689.8,212.32 692.84,212.32 C696.84,212.32 700.36,215.84 700.36,220.32 C700.36,224.8 696.84,228.32 692.84,228.32 Z M692.52,215.2 C690.12,215.2 687.88,217.44 687.88,220.32 C687.88,223.2 690.12,225.44 692.52,225.44 C694.92,225.44 697.16,223.2 697.16,220.32 C697.16,217.44 694.92,215.2 692.52,215.2 Z M707.4,205.6 L704.2,205.6 L704.2,228 L707.4,228 L707.4,205.6 Z M726.44,221.44 L714.44,221.44 C714.76,223.52 716.68,225.44 719.24,225.44 C722.28,225.44 723.88,223.04 723.88,223.04 L725.96,225.12 C725.96,225.12 723.56,228.32 719.24,228.32 C714.92,228.32 711.24,224.64 711.24,220.16 C711.24,215.84 714.76,212.32 719.08,212.32 C723.4,212.32 726.6,215.52 726.6,219.84 C726.6,220.8 726.44,221.44 726.44,221.44 Z M719.08,215.04 C716.68,215.04 715.08,216.64 714.568,218.72 L723.464,218.72 C723.08,216.64 721.48,215.04 719.08,215.04 Z M749.96,228 L753.16,228 L753.16,219.04 C753.16,214.56 750.92,212.32 747.4,212.32 C743.88,212.32 742.12,214.88 742.12,214.88 C742.12,214.88 740.84,212.32 737.48,212.32 C734.92,212.32 733.32,214.24 733.32,214.24 L733.32,212.64 L730.12,212.64 L730.12,228 L733.32,228 L733.32,219.68 C733.32,216.8 734.92,215.2 736.84,215.2 C738.76,215.2 740.04,216.48 740.04,219.04 L740.04,228 L743.24,228 L743.24,219.68 C743.24,216.8 744.84,215.2 746.76,215.2 C748.68,215.2 749.96,216.48 749.96,219.04 L749.96,228 Z M769.32,223.04 C769.32,223.04 769.319999,223.040002 769.319997,223.040005 L769.32,223.04 Z M769.32,223.04 L771.4,225.12 C771.4,225.12 769,228.32 764.68,228.32 C760.36,228.32 756.68,224.64 756.68,220.16 C756.68,215.84 760.2,212.32 764.52,212.32 C768.84,212.32 772.04,215.52 772.04,219.84 C772.04,220.8 771.88,221.44 771.88,221.44 L759.88,221.44 C760.2,223.52 762.12,225.44 764.68,225.44 C767.717546,225.44 769.317416,223.043873 769.319997,223.040005 L769.32,223.04 Z M764.52,215.04 C762.12,215.04 760.52,216.64 760.008,218.72 L768.904,218.72 C768.52,216.64 766.92,215.04 764.52,215.04 Z M778.76,212.64 L775.56,212.64 L775.56,228 L778.76,228 L778.76,219.68 C778.76,216.8 780.36,215.2 782.76,215.2 C784.84,215.2 786.44,216.8 786.44,219.04 L786.44,228 L789.64,228 L789.64,219.04 C789.64,214.88 787.08,212.32 783.4,212.32 C780.52,212.32 778.76,214.24 778.76,214.24 L778.76,212.64 Z M796.04,210.72 C796.04,212 795.4,212.64 794.44,212.64 L792.84,212.64 L792.84,215.52 L795.72,215.52 L795.72,223.52 C795.72,226.72 797.32,228.32 800.2,228.32 C801.48,228.32 802.44,228 802.44,228 L802.44,225.12 C802.44,225.12 801.64,225.44 800.84,225.44 C799.72,225.44 798.92,224.64 798.92,223.488 L798.92,215.52 L802.12,215.52 L802.12,212.64 L798.92,212.64 L798.92,207.52 L796.04,207.52 L796.04,210.72 Z M815.4,214.4 C815.4,214.4 813.8,212.32 810.44,212.32 C807.24,212.32 805,214.56 805,216.8 C805,222.24 812.84,220.64 812.84,223.52 C812.84,224.64 812.04,225.44 810.28,225.44 C807.88,225.44 806.44,223.52 806.44,223.52 L804.36,225.6 C804.36,225.6 806.28,228.32 810.28,228.32 C813.8,228.32 816.04,226.08 816.04,223.52 C816.04,218.08 808.2,219.68 808.2,216.8 C808.2,216 809,215.2 810.44,215.2 C812.2,215.2 813.32,216.48 813.32,216.48 L815.4,214.4 Z M829.32,216.8 C829.32,221.44 833,225.12 837.64,225.12 C842.28,225.12 845.96,221.44 845.96,216.8 C845.96,212.16 842.28,208.48 837.64,208.48 C833,208.48 829.32,212.16 829.32,216.8 Z M825.8,216.8 C825.8,210.4 830.92,205.28 837.64,205.28 C844.36,205.28 849.48,210.4 849.48,216.8 C849.48,223.2 844.36,228.32 837.64,228.32 C830.92,228.32 825.8,223.2 825.8,216.8 Z M856.68,212.64 L853.48,212.64 L853.48,228 L856.68,228 L856.68,219.68 C856.68,216.8 858.28,215.2 860.68,215.2 C862.76,215.2 864.36,216.8 864.36,219.04 L864.36,228 L867.56,228 L867.56,219.04 C867.56,214.88 865,212.32 861.32,212.32 C858.44,212.32 856.68,214.24 856.68,214.24 L856.68,212.64 Z M873.16,228 L876.68,228 L876.68,205.6 L873.16,205.6 L873.16,228 Z M885.16,212.64 L881.96,212.64 L881.96,228 L885.16,228 L885.16,219.68 C885.16,216.8 886.76,215.2 889.16,215.2 C891.24,215.2 892.84,216.8 892.84,219.04 L892.84,228 L896.04,228 L896.04,219.04 C896.04,214.88 893.48,212.32 889.8,212.32 C886.92,212.32 885.16,214.24 885.16,214.24 L885.16,212.64 Z M903.88,212.64 L900.68,212.64 L900.68,228 L903.88,228 L903.88,212.64 Z M904.2,207.84 C904.2,206.72 903.4,205.92 902.28,205.92 C901.16,205.92 900.36,206.72 900.36,207.84 C900.36,208.96 901.16,209.76 902.28,209.76 C903.4,209.76 904.2,208.96 904.2,207.84 Z M910.44,210.72 C910.44,212 909.8,212.64 908.84,212.64 L907.24,212.64 L907.24,215.52 L910.12,215.52 L910.12,223.52 C910.12,226.72 911.72,228.32 914.6,228.32 C915.88,228.32 916.84,228 916.84,228 L916.84,225.12 C916.84,225.12 916.04,225.44 915.24,225.44 C914.12,225.44 913.32,224.64 913.32,223.488 L913.32,215.52 L916.52,215.52 L916.52,212.64 L913.32,212.64 L913.32,207.52 L910.44,207.52 L910.44,210.72 Z M926.92,221.28 C928.2,221.28 928.84,221.92 928.84,223.2 L928.84,230.08 C928.84,232.96 930.6,234.72 933.8,234.72 L935.56,234.72 L935.56,232.16 L933.8,232.16 C932.52,232.16 931.72,231.36 931.72,230.08 L931.72,223.2 C931.72,220.32 929.96,220 929.992,220 C929.96,220 931.72,219.68 931.72,216.8 L931.72,209.92 C931.72,208.64 932.52,207.84 933.8,207.84 L935.56,207.84 L935.56,205.28 L933.8,205.28 C930.6,205.28 928.84,207.04 928.84,209.92 L928.84,216.8 C928.84,218.08 928.2,218.72 926.92,218.72 L926.92,221.28 Z M233,252.72 C233,254 232.36,254.64 231.4,254.64 L229.8,254.64 L229.8,257.52 L232.68,257.52 L232.68,265.52 C232.68,268.72 234.28,270.32 237.16,270.32 C238.44,270.32 239.4,270 239.4,270 L239.4,267.12 C239.4,267.12 238.6,267.44 237.8,267.44 C236.68,267.44 235.88,266.64 235.88,265.488 L235.88,257.52 L239.08,257.52 L239.08,254.64 L235.88,254.64 L235.88,249.52 L233,249.52 L233,252.72 Z M254.44,262.32 C254.44,259.44 252.2,257.2 249.64,257.2 C247.08,257.2 244.84,259.44 244.84,262.32 C244.84,265.2 247.08,267.44 249.64,267.44 C252.2,267.44 254.44,265.2 254.44,262.32 Z M241.64,262.32 C241.64,258 245.32,254.32 249.64,254.32 C253.96,254.32 257.64,258 257.64,262.32 C257.64,266.64 253.96,270.32 249.64,270.32 C245.32,270.32 241.64,266.64 241.64,262.32 Z M267.72,254.32 C270.76,254.32 272.68,256.4 272.68,256.4 L272.68,247.6 L275.88,247.6 L275.88,270 L272.68,270 L272.68,268.24 C272.68,268.24 270.76,270.32 267.72,270.32 C263.72,270.32 260.2,266.8 260.2,262.32 C260.2,257.84 263.72,254.32 267.72,254.32 Z M268.04,267.44 C270.44,267.44 272.68,265.2 272.68,262.32 C272.68,259.44 270.44,257.2 268.04,257.2 C265.64,257.2 263.4,259.44 263.4,262.32 C263.4,265.2 265.64,267.44 268.04,267.44 Z M292.52,262.32 C292.52,259.44 290.28,257.2 287.72,257.2 C285.16,257.2 282.92,259.44 282.92,262.32 C282.92,265.2 285.16,267.44 287.72,267.44 C290.28,267.44 292.52,265.2 292.52,262.32 Z M279.72,262.32 C279.72,258 283.4,254.32 287.72,254.32 C292.04,254.32 295.72,258 295.72,262.32 C295.72,266.64 292.04,270.32 287.72,270.32 C283.4,270.32 279.72,266.64 279.72,262.32 Z M309,256.4 C309,256.4 307.4,254.32 304.04,254.32 C300.84,254.32 298.6,256.56 298.6,258.8 C298.6,264.24 306.44,262.64 306.44,265.52 C306.44,266.64 305.64,267.44 303.88,267.44 C301.48,267.44 300.04,265.52 300.04,265.52 L297.96,267.6 C297.96,267.6 299.88,270.32 303.88,270.32 C307.4,270.32 309.64,268.08 309.64,265.52 C309.64,260.08 301.8,261.68 301.8,258.8 C301.8,258 302.6,257.2 304.04,257.2 C305.8,257.2 306.92,258.48 306.92,258.48 L309,256.4 Z M318.76,244.08 L318.76,247.44 C318.76,247.44 313,248.08 313,253.36 C313,261.68 324.84,258.48 324.84,263.6 C324.84,265.52 323.24,267.12 320.36,267.12 C316.36,267.12 314.6,264.56 314.6,264.56 L312.36,266.8 C312.36,266.8 314.6,269.68 318.76,270.16 L318.76,273.52 L321.96,273.52 L321.96,270.16 C321.96,270.16 328.36,269.68 328.36,263.6 C328.36,255.28 316.52,258.48 316.52,253.36 C316.52,251.92 317.96,250.48 320.36,250.48 C323.4,250.48 324.84,252.4 324.84,252.4 L327.08,250.16 C327.08,250.16 325.16,247.92 321.96,247.44 L321.96,244.08 L318.76,244.08 Z M331.56,268.24 C331.56,269.36 332.52,270.32 333.64,270.32 C334.76,270.32 335.72,269.36 335.72,268.24 C335.72,267.12 334.76,266.16 333.64,266.16 C332.52,266.16 331.56,267.12 331.56,268.24 Z M331.56,256.4 C331.56,257.52 332.52,258.48 333.64,258.48 C334.76,258.48 335.72,257.52 335.72,256.4 C335.72,255.28 334.76,254.32 333.64,254.32 C332.52,254.32 331.56,255.28 331.56,256.4 Z M349.16,258.8 C349.16,263.44 352.84,267.12 357.48,267.12 C362.12,267.12 365.8,263.44 365.8,258.8 C365.8,254.16 362.12,250.48 357.48,250.48 C352.84,250.48 349.16,254.16 349.16,258.8 Z M345.64,258.8 C345.64,252.4 350.76,247.28 357.48,247.28 C364.2,247.28 369.32,252.4 369.32,258.8 C369.32,265.2 364.2,270.32 357.48,270.32 C350.76,270.32 345.64,265.2 345.64,258.8 Z M381.8,254.32 C385.8,254.32 389.32,257.84 389.32,262.32 C389.32,266.8 385.8,270.32 381.8,270.32 C378.76,270.32 376.84,268.24 376.84,268.24 L376.84,270 L373.64,270 L373.64,247.6 L376.84,247.6 L376.84,256.4 C376.84,256.4 378.76,254.32 381.8,254.32 Z M381.48,267.44 C383.88,267.44 386.12,265.2 386.12,262.32 C386.12,259.44 383.88,257.2 381.48,257.2 C379.08,257.2 376.84,259.44 376.84,262.32 C376.84,265.2 379.08,267.44 381.48,267.44 Z M402.6,256.4 C402.6,256.4 401,254.32 397.64,254.32 C394.44,254.32 392.2,256.56 392.2,258.8 C392.2,264.24 400.04,262.64 400.04,265.52 C400.04,266.64 399.24,267.44 397.48,267.44 C395.08,267.44 393.64,265.52 393.64,265.52 L391.56,267.6 C391.56,267.6 393.48,270.32 397.48,270.32 C401,270.32 403.24,268.08 403.24,265.52 C403.24,260.08 395.4,261.68 395.4,258.8 C395.4,258 396.2,257.2 397.64,257.2 C399.4,257.2 400.52,258.48 400.52,258.48 L402.6,256.4 Z M421,263.44 L409,263.44 C409.32,265.52 411.24,267.44 413.8,267.44 C416.84,267.44 418.44,265.04 418.44,265.04 L420.52,267.12 C420.52,267.12 418.12,270.32 413.8,270.32 C409.48,270.32 405.8,266.64 405.8,262.16 C405.8,257.84 409.32,254.32 413.64,254.32 C417.96,254.32 421.16,257.52 421.16,261.84 C421.16,262.8 421,263.44 421,263.44 Z M413.64,257.04 C411.24,257.04 409.64,258.64 409.128,260.72 L418.024,260.72 C417.64,258.64 416.04,257.04 413.64,257.04 Z M433.32,257.36 L433.32,254.32 L432.52,254.32 C429.64,254.32 427.88,256.24 427.88,256.24 L427.88,254.64 L424.68,254.64 L424.68,270 L427.88,270 L427.88,261.68 C427.88,258.8 429.48,257.2 431.88,257.2 C432.68,257.2 433.32,257.36 433.32,257.36 Z M444.36,270 L450.6,254.64 L447.24,254.64 L442.76,265.84 L438.28,254.64 L434.92,254.64 L441.16,270 L444.36,270 Z M465.48,270 L462.28,270 L462.28,268.4 C462.28,268.4 460.52,270.32 457.64,270.32 C454.44,270.32 452.2,268.08 452.2,265.84 C452.2,263.28 453.96,261.52 456.68,261.04 L462.28,260.08 C462.28,258.48 461,257.2 459.08,257.2 C456.36,257.2 455.08,259.28 455.08,259.28 L453,257.2 C453,257.2 455.08,254.32 459.08,254.32 C462.92,254.32 465.48,256.88 465.48,260.08 L465.48,270 Z M458.12,267.44 C460.68,267.44 462.28,265.84 462.28,262.96 L462.28,262.64 L457.32,263.44 C456.2,263.632 455.4,264.4 455.4,265.52 C455.4,266.48 456.36,267.44 458.12,267.44 Z M478.44,254.32 C482.44,254.32 485.96,257.84 485.96,262.32 C485.96,266.8 482.44,270.32 478.44,270.32 C475.4,270.32 473.48,268.24 473.48,268.24 L473.48,270 L470.28,270 L470.28,247.6 L473.48,247.6 L473.48,256.4 C473.48,256.4 475.4,254.32 478.44,254.32 Z M478.12,267.44 C480.52,267.44 482.76,265.2 482.76,262.32 C482.76,259.44 480.52,257.2 478.12,257.2 C475.72,257.2 473.48,259.44 473.48,262.32 C473.48,265.2 475.72,267.44 478.12,267.44 Z M493,247.6 L489.8,247.6 L489.8,270 L493,270 L493,247.6 Z M512.04,263.44 L500.04,263.44 C500.36,265.52 502.28,267.44 504.84,267.44 C507.88,267.44 509.48,265.04 509.48,265.04 L511.56,267.12 C511.56,267.12 509.16,270.32 504.84,270.32 C500.52,270.32 496.84,266.64 496.84,262.16 C496.84,257.84 500.36,254.32 504.68,254.32 C509,254.32 512.2,257.52 512.2,261.84 C512.2,262.8 512.04,263.44 512.04,263.44 Z M504.68,257.04 C502.28,257.04 500.68,258.64 500.168,260.72 L509.064,260.72 C508.68,258.64 507.08,257.04 504.68,257.04 Z M514.92,262.96 L528.36,270 L528.36,266.8 L519.4,262.16 L528.36,257.52 L528.36,254.32 L514.92,261.36 L514.92,262.96 Z M530.28,247.6 L547.24,247.6 L547.24,250.8 L540.52,250.8 L540.52,270 L537,270 L537,250.8 L530.28,250.8 L530.28,247.6 Z M559.88,262.32 C559.88,259.44 557.64,257.2 555.08,257.2 C552.52,257.2 550.28,259.44 550.28,262.32 C550.28,265.2 552.52,267.44 555.08,267.44 C557.64,267.44 559.88,265.2 559.88,262.32 Z M547.08,262.32 C547.08,258 550.76,254.32 555.08,254.32 C559.4,254.32 563.08,258 563.08,262.32 C563.08,266.64 559.4,270.32 555.08,270.32 C550.76,270.32 547.08,266.64 547.08,262.32 Z M573.16,254.32 C576.2,254.32 578.12,256.4 578.12,256.4 L578.12,247.6 L581.32,247.6 L581.32,270 L578.12,270 L578.12,268.24 C578.12,268.24 576.2,270.32 573.16,270.32 C569.16,270.32 565.64,266.8 565.64,262.32 C565.64,257.84 569.16,254.32 573.16,254.32 Z M573.48,267.44 C575.88,267.44 578.12,265.2 578.12,262.32 C578.12,259.44 575.88,257.2 573.48,257.2 C571.08,257.2 568.84,259.44 568.84,262.32 C568.84,265.2 571.08,267.44 573.48,267.44 Z M597.96,262.32 C597.96,259.44 595.72,257.2 593.16,257.2 C590.6,257.2 588.36,259.44 588.36,262.32 C588.36,265.2 590.6,267.44 593.16,267.44 C595.72,267.44 597.96,265.2 597.96,262.32 Z M585.16,262.32 C585.16,258 588.84,254.32 593.16,254.32 C597.48,254.32 601.16,258 601.16,262.32 C601.16,266.64 597.48,270.32 593.16,270.32 C588.84,270.32 585.16,266.64 585.16,262.32 Z M608.04,249.84 L612.2,249.84 L612.2,247.28 L605.16,247.28 L605.16,276.72 L612.2,276.72 L612.2,274.16 L608.04,274.16 L608.04,249.84 Z M618.28,274.16 L614.12,274.16 L614.12,276.72 L621.16,276.72 L621.16,247.28 L614.12,247.28 L614.12,249.84 L618.28,249.84 L618.28,274.16 Z M638.44,261.36 L625,254.32 L625,257.52 L633.96,262.16 L625,266.8 L625,270 L638.44,262.96 L638.44,261.36 Z M642.92,266.16 L639.72,273.04 L641.8,274.16 L645.8,267.76 L642.92,266.16 Z M641.8,256.4 C641.8,257.52 642.76,258.48 643.88,258.48 C645,258.48 645.96,257.52 645.96,256.4 C645.96,255.28 645,254.32 643.88,254.32 C642.76,254.32 641.8,255.28 641.8,256.4 Z M230.12,346.32 C230.12,350.64 233.8,354.32 238.12,354.32 C242.12,354.32 244.52,351.12 244.52,351.12 L242.44,349.04 C242.44,349.04 240.84,351.44 238.12,351.44 C235.56,351.44 233.32,349.2 233.32,346.32 C233.32,343.44 235.56,341.2 238.12,341.2 C240.84,341.2 242.28,343.44 242.28,343.44 L244.36,341.36 C244.36,341.36 242.12,338.32 238.12,338.32 C233.8,338.32 230.12,342 230.12,346.32 Z M259.56,346.32 C259.56,343.44 257.32,341.2 254.76,341.2 C252.2,341.2 249.96,343.44 249.96,346.32 C249.96,349.2 252.2,351.44 254.76,351.44 C257.32,351.44 259.56,349.2 259.56,346.32 Z M246.76,346.32 C246.76,342 250.44,338.32 254.76,338.32 C259.08,338.32 262.76,342 262.76,346.32 C262.76,350.64 259.08,354.32 254.76,354.32 C250.44,354.32 246.76,350.64 246.76,346.32 Z M269.48,338.64 L266.28,338.64 L266.28,354 L269.48,354 L269.48,345.68 C269.48,342.8 271.08,341.2 273.48,341.2 C275.56,341.2 277.16,342.8 277.16,345.04 L277.16,354 L280.36,354 L280.36,345.04 C280.36,340.88 277.8,338.32 274.12,338.32 C271.24,338.32 269.48,340.24 269.48,340.24 L269.48,338.64 Z M294.6,340.4 C294.6,340.4 293,338.32 289.64,338.32 C286.44,338.32 284.2,340.56 284.2,342.8 C284.2,348.24 292.04,346.64 292.04,349.52 C292.04,350.64 291.24,351.44 289.48,351.44 C287.08,351.44 285.64,349.52 285.64,349.52 L283.56,351.6 C283.56,351.6 285.48,354.32 289.48,354.32 C293,354.32 295.24,352.08 295.24,349.52 C295.24,344.08 287.4,345.68 287.4,342.8 C287.4,342 288.2,341.2 289.64,341.2 C291.4,341.2 292.52,342.48 292.52,342.48 L294.6,340.4 Z M300.68,336.72 C300.68,338 300.04,338.64 299.08,338.64 L297.48,338.64 L297.48,341.52 L300.36,341.52 L300.36,349.52 C300.36,352.72 301.96,354.32 304.84,354.32 C306.12,354.32 307.08,354 307.08,354 L307.08,351.12 C307.08,351.12 306.28,351.44 305.48,351.44 C304.36,351.44 303.56,350.64 303.56,349.488 L303.56,341.52 L306.76,341.52 L306.76,338.64 L303.56,338.64 L303.56,333.52 L300.68,333.52 L300.68,336.72 Z M319.56,341.36 L319.56,338.32 L318.76,338.32 C315.88,338.32 314.12,340.24 314.12,340.24 L314.12,338.64 L310.92,338.64 L310.92,354 L314.12,354 L314.12,345.68 C314.12,342.8 315.72,341.2 318.12,341.2 C318.92,341.2 319.56,341.36 319.56,341.36 Z M333,354 L336.2,354 L336.2,338.64 L333,338.64 L333,346.96 C333,349.84 331.4,351.44 329,351.44 C326.92,351.44 325.32,349.84 325.32,347.6 L325.32,338.64 L322.12,338.64 L322.12,347.6 C322.12,351.76 324.68,354.32 328.36,354.32 C331.24,354.32 333,352.4 333,352.4 L333,354 Z M339.88,346.32 C339.88,350.64 343.56,354.32 347.88,354.32 C351.88,354.32 354.28,351.12 354.28,351.12 L352.2,349.04 C352.2,349.04 350.6,351.44 347.88,351.44 C345.32,351.44 343.08,349.2 343.08,346.32 C343.08,343.44 345.32,341.2 347.88,341.2 C350.6,341.2 352.04,343.44 352.04,343.44 L354.12,341.36 C354.12,341.36 351.88,338.32 347.88,338.32 C343.56,338.32 339.88,342 339.88,346.32 Z M359.4,336.72 C359.4,338 358.76,338.64 357.8,338.64 L356.2,338.64 L356.2,341.52 L359.08,341.52 L359.08,349.52 C359.08,352.72 360.68,354.32 363.56,354.32 C364.84,354.32 365.8,354 365.8,354 L365.8,351.12 C365.8,351.12 365,351.44 364.2,351.44 C363.08,351.44 362.28,350.64 362.28,349.488 L362.28,341.52 L365.48,341.52 L365.48,338.64 L362.28,338.64 L362.28,333.52 L359.4,333.52 L359.4,336.72 Z M380.84,346.32 C380.84,343.44 378.6,341.2 376.04,341.2 C373.48,341.2 371.24,343.44 371.24,346.32 C371.24,349.2 373.48,351.44 376.04,351.44 C378.6,351.44 380.84,349.2 380.84,346.32 Z M368.04,346.32 C368.04,342 371.72,338.32 376.04,338.32 C380.36,338.32 384.04,342 384.04,346.32 C384.04,350.64 380.36,354.32 376.04,354.32 C371.72,354.32 368.04,350.64 368.04,346.32 Z M396.2,341.36 L396.2,338.32 L395.4,338.32 C392.52,338.32 390.76,340.24 390.76,340.24 L390.76,338.64 L387.56,338.64 L387.56,354 L390.76,354 L390.76,345.68 C390.76,342.8 392.36,341.2 394.76,341.2 C395.56,341.2 396.2,341.36 396.2,341.36 Z M402.12,346 C402.12,338 406.6,332.24 406.6,332.24 L404.2,330.8 C404.2,330.8 399.24,336.72 399.24,346 C399.24,355.28 404.2,361.2 404.2,361.2 L406.6,359.76 C406.6,359.76 402.12,354 402.12,346 Z M417.8,354.32 C414.76,354.32 412.84,352.24 412.84,352.24 L412.84,360.72 L409.64,360.72 L409.64,338.64 L412.84,338.64 L412.84,340.4 C412.84,340.4 414.76,338.32 417.8,338.32 C421.8,338.32 425.32,341.84 425.32,346.32 C425.32,350.8 421.8,354.32 417.8,354.32 Z M417.48,341.2 C415.08,341.2 412.84,343.44 412.84,346.32 C412.84,349.2 415.08,351.44 417.48,351.44 C419.88,351.44 422.12,349.2 422.12,346.32 C422.12,343.44 419.88,341.2 417.48,341.2 Z M437.48,341.36 L437.48,338.32 L436.68,338.32 C433.8,338.32 432.04,340.24 432.04,340.24 L432.04,338.64 L428.84,338.64 L428.84,354 L432.04,354 L432.04,345.68 C432.04,342.8 433.64,341.2 436.04,341.2 C436.84,341.2 437.48,341.36 437.48,341.36 Z M443.4,338.64 L440.2,338.64 L440.2,354 L443.4,354 L443.4,338.64 Z M443.72,333.84 C443.72,332.72 442.92,331.92 441.8,331.92 C440.68,331.92 439.88,332.72 439.88,333.84 C439.88,334.96 440.68,335.76 441.8,335.76 C442.92,335.76 443.72,334.96 443.72,333.84 Z M455.56,354 L461.8,338.64 L458.44,338.64 L453.96,349.84 L449.48,338.64 L446.12,338.64 L452.36,354 L455.56,354 Z M476.68,354 L473.48,354 L473.48,352.4 C473.48,352.4 471.72,354.32 468.84,354.32 C465.64,354.32 463.4,352.08 463.4,349.84 C463.4,347.28 465.16,345.52 467.88,345.04 L473.48,344.08 C473.48,342.48 472.2,341.2 470.28,341.2 C467.56,341.2 466.28,343.28 466.28,343.28 L464.2,341.2 C464.2,341.2 466.28,338.32 470.28,338.32 C474.12,338.32 476.68,340.88 476.68,344.08 L476.68,354 Z M469.32,351.44 C471.88,351.44 473.48,349.84 473.48,346.96 L473.48,346.64 L468.52,347.44 C467.4,347.632 466.6,348.4 466.6,349.52 C466.6,350.48 467.56,351.44 469.32,351.44 Z M483.08,336.72 C483.08,338 482.44,338.64 481.48,338.64 L479.88,338.64 L479.88,341.52 L482.76,341.52 L482.76,349.52 C482.76,352.72 484.36,354.32 487.24,354.32 C488.52,354.32 489.48,354 489.48,354 L489.48,351.12 C489.48,351.12 488.68,351.44 487.88,351.44 C486.76,351.44 485.96,350.64 485.96,349.488 L485.96,341.52 L489.16,341.52 L489.16,338.64 L485.96,338.64 L485.96,333.52 L483.08,333.52 L483.08,336.72 Z M506.92,347.44 L494.92,347.44 C495.24,349.52 497.16,351.44 499.72,351.44 C502.76,351.44 504.36,349.04 504.36,349.04 L506.44,351.12 C506.44,351.12 504.04,354.32 499.72,354.32 C495.4,354.32 491.72,350.64 491.72,346.16 C491.72,341.84 495.24,338.32 499.56,338.32 C503.88,338.32 507.08,341.52 507.08,345.84 C507.08,346.8 506.92,347.44 506.92,347.44 Z M499.56,341.04 C497.16,341.04 495.56,342.64 495.048,344.72 L503.944,344.72 C503.56,342.64 501.96,341.04 499.56,341.04 Z M526.76,340.4 C526.76,340.4 525.16,338.32 521.8,338.32 C518.6,338.32 516.36,340.56 516.36,342.8 C516.36,348.24 524.2,346.64 524.2,349.52 C524.2,350.64 523.4,351.44 521.64,351.44 C519.24,351.44 517.8,349.52 517.8,349.52 L515.72,351.6 C515.72,351.6 517.64,354.32 521.64,354.32 C525.16,354.32 527.4,352.08 527.4,349.52 C527.4,344.08 519.56,345.68 519.56,342.8 C519.56,342 520.36,341.2 521.8,341.2 C523.56,341.2 524.68,342.48 524.68,342.48 L526.76,340.4 Z M532.84,336.72 C532.84,338 532.2,338.64 531.24,338.64 L529.64,338.64 L529.64,341.52 L532.52,341.52 L532.52,349.52 C532.52,352.72 534.12,354.32 537,354.32 C538.28,354.32 539.24,354 539.24,354 L539.24,351.12 C539.24,351.12 538.44,351.44 537.64,351.44 C536.52,351.44 535.72,350.64 535.72,349.488 L535.72,341.52 L538.92,341.52 L538.92,338.64 L535.72,338.64 L535.72,333.52 L532.84,333.52 L532.84,336.72 Z M554.28,346.32 C554.28,343.44 552.04,341.2 549.48,341.2 C546.92,341.2 544.68,343.44 544.68,346.32 C544.68,349.2 546.92,351.44 549.48,351.44 C552.04,351.44 554.28,349.2 554.28,346.32 Z M541.48,346.32 C541.48,342 545.16,338.32 549.48,338.32 C553.8,338.32 557.48,342 557.48,346.32 C557.48,350.64 553.8,354.32 549.48,354.32 C545.16,354.32 541.48,350.64 541.48,346.32 Z M569.64,341.36 L569.64,338.32 L568.84,338.32 C565.96,338.32 564.2,340.24 564.2,340.24 L564.2,338.64 L561,338.64 L561,354 L564.2,354 L564.2,345.68 C564.2,342.8 565.8,341.2 568.2,341.2 C569,341.2 569.64,341.36 569.64,341.36 Z M586.44,347.44 L574.44,347.44 C574.76,349.52 576.68,351.44 579.24,351.44 C582.28,351.44 583.88,349.04 583.88,349.04 L585.96,351.12 C585.96,351.12 583.56,354.32 579.24,354.32 C574.92,354.32 571.24,350.64 571.24,346.16 C571.24,341.84 574.76,338.32 579.08,338.32 C583.4,338.32 586.6,341.52 586.6,345.84 C586.6,346.8 586.44,347.44 586.44,347.44 Z M579.08,341.04 C576.68,341.04 575.08,342.64 574.568,344.72 L583.464,344.72 C583.08,342.64 581.48,341.04 579.08,341.04 Z M589.64,352.24 C589.64,353.36 590.6,354.32 591.72,354.32 C592.84,354.32 593.8,353.36 593.8,352.24 C593.8,351.12 592.84,350.16 591.72,350.16 C590.6,350.16 589.64,351.12 589.64,352.24 Z M589.64,340.4 C589.64,341.52 590.6,342.48 591.72,342.48 C592.84,342.48 593.8,341.52 593.8,340.4 C593.8,339.28 592.84,338.32 591.72,338.32 C590.6,338.32 589.64,339.28 589.64,340.4 Z M615.56,347.6 C615.56,349.52 613.96,351.12 611.08,351.12 C607.08,351.12 605.32,348.56 605.32,348.56 L603.08,350.8 C603.08,350.8 605.64,354.32 611.08,354.32 C616.2,354.32 619.08,351.44 619.08,347.6 C619.08,339.28 607.24,342.48 607.24,337.36 C607.24,335.92 608.68,334.48 611.08,334.48 C614.12,334.48 615.56,336.4 615.56,336.4 L617.8,334.16 C617.8,334.16 615.56,331.28 611.08,331.28 C606.44,331.28 603.72,334 603.72,337.36 C603.72,345.68 615.56,342.48 615.56,347.6 Z M624.68,336.72 C624.68,338 624.04,338.64 623.08,338.64 L621.48,338.64 L621.48,341.52 L624.36,341.52 L624.36,349.52 C624.36,352.72 625.96,354.32 628.84,354.32 C630.12,354.32 631.08,354 631.08,354 L631.08,351.12 C631.08,351.12 630.28,351.44 629.48,351.44 C628.36,351.44 627.56,350.64 627.56,349.488 L627.56,341.52 L630.76,341.52 L630.76,338.64 L627.56,338.64 L627.56,333.52 L624.68,333.52 L624.68,336.72 Z M646.12,346.32 C646.12,343.44 643.88,341.2 641.32,341.2 C638.76,341.2 636.52,343.44 636.52,346.32 C636.52,349.2 638.76,351.44 641.32,351.44 C643.88,351.44 646.12,349.2 646.12,346.32 Z M633.32,346.32 C633.32,342 637,338.32 641.32,338.32 C645.64,338.32 649.32,342 649.32,346.32 C649.32,350.64 645.64,354.32 641.32,354.32 C637,354.32 633.32,350.64 633.32,346.32 Z M661.48,341.36 L661.48,338.32 L660.68,338.32 C657.8,338.32 656.04,340.24 656.04,340.24 L656.04,338.64 L652.84,338.64 L652.84,354 L656.04,354 L656.04,345.68 C656.04,342.8 657.64,341.2 660.04,341.2 C660.84,341.2 661.48,341.36 661.48,341.36 Z M678.28,347.44 L666.28,347.44 C666.6,349.52 668.52,351.44 671.08,351.44 C674.12,351.44 675.72,349.04 675.72,349.04 L677.8,351.12 C677.8,351.12 675.4,354.32 671.08,354.32 C666.76,354.32 663.08,350.64 663.08,346.16 C663.08,341.84 666.6,338.32 670.92,338.32 C675.24,338.32 678.44,341.52 678.44,345.84 C678.44,346.8 678.28,347.44 678.28,347.44 Z M670.92,341.04 C668.52,341.04 666.92,342.64 666.408,344.72 L675.304,344.72 C674.92,342.64 673.32,341.04 670.92,341.04 Z M681.16,346.96 L694.6,354 L694.6,350.8 L685.64,346.16 L694.6,341.52 L694.6,338.32 L681.16,345.36 L681.16,346.96 Z M705.64,338.64 L702.12,338.64 L702.12,336.112 C702.12,334.96 702.92,334.16 704.04,334.16 C704.84,334.16 705.64,334.48 705.64,334.48 L705.64,331.6 C705.64,331.6 704.68,331.28 703.4,331.28 C700.52,331.28 698.92,332.88 698.92,336.08 L698.92,338.64 L696.68,338.64 L696.68,341.52 L698.92,341.52 L698.92,354 L702.12,354 L702.12,341.52 L705.64,341.52 L705.64,338.64 Z M717.48,341.36 L717.48,338.32 L716.68,338.32 C713.8,338.32 712.04,340.24 712.04,340.24 L712.04,338.64 L708.84,338.64 L708.84,354 L712.04,354 L712.04,345.68 C712.04,342.8 713.64,341.2 716.04,341.2 C716.84,341.2 717.48,341.36 717.48,341.36 Z M731.88,346.32 C731.88,343.44 729.64,341.2 727.08,341.2 C724.52,341.2 722.28,343.44 722.28,346.32 C722.28,349.2 724.52,351.44 727.08,351.44 C729.64,351.44 731.88,349.2 731.88,346.32 Z M719.08,346.32 C719.08,342 722.76,338.32 727.08,338.32 C731.4,338.32 735.08,342 735.08,346.32 C735.08,350.64 731.4,354.32 727.08,354.32 C722.76,354.32 719.08,350.64 719.08,346.32 Z M758.44,354 L761.64,354 L761.64,345.04 C761.64,340.56 759.4,338.32 755.88,338.32 C752.36,338.32 750.6,340.88 750.6,340.88 C750.6,340.88 749.32,338.32 745.96,338.32 C743.4,338.32 741.8,340.24 741.8,340.24 L741.8,338.64 L738.6,338.64 L738.6,354 L741.8,354 L741.8,345.68 C741.8,342.8 743.4,341.2 745.32,341.2 C747.24,341.2 748.52,342.48 748.52,345.04 L748.52,354 L751.72,354 L751.72,345.68 C751.72,342.8 753.32,341.2 755.24,341.2 C757.16,341.2 758.44,342.48 758.44,345.04 L758.44,354 Z M777.8,347.6 C777.8,349.52 776.2,351.12 773.32,351.12 C769.32,351.12 767.56,348.56 767.56,348.56 L765.32,350.8 C765.32,350.8 767.88,354.32 773.32,354.32 C778.44,354.32 781.32,351.44 781.32,347.6 C781.32,339.28 769.48,342.48 769.48,337.36 C769.48,335.92 770.92,334.48 773.32,334.48 C776.36,334.48 777.8,336.4 777.8,336.4 L780.04,334.16 C780.04,334.16 777.8,331.28 773.32,331.28 C768.68,331.28 765.96,334 765.96,337.36 C765.96,345.68 777.8,342.48 777.8,347.6 Z M786.92,336.72 C786.92,338 786.28,338.64 785.32,338.64 L783.72,338.64 L783.72,341.52 L786.6,341.52 L786.6,349.52 C786.6,352.72 788.2,354.32 791.08,354.32 C792.36,354.32 793.32,354 793.32,354 L793.32,351.12 C793.32,351.12 792.52,351.44 791.72,351.44 C790.6,351.44 789.8,350.64 789.8,349.488 L789.8,341.52 L793,341.52 L793,338.64 L789.8,338.64 L789.8,333.52 L786.92,333.52 L786.92,336.72 Z M808.36,346.32 C808.36,343.44 806.12,341.2 803.56,341.2 C801,341.2 798.76,343.44 798.76,346.32 C798.76,349.2 801,351.44 803.56,351.44 C806.12,351.44 808.36,349.2 808.36,346.32 Z M795.56,346.32 C795.56,342 799.24,338.32 803.56,338.32 C807.88,338.32 811.56,342 811.56,346.32 C811.56,350.64 807.88,354.32 803.56,354.32 C799.24,354.32 795.56,350.64 795.56,346.32 Z M823.72,341.36 L823.72,338.32 L822.92,338.32 C820.04,338.32 818.28,340.24 818.28,340.24 L818.28,338.64 L815.08,338.64 L815.08,354 L818.28,354 L818.28,345.68 C818.28,342.8 819.88,341.2 822.28,341.2 C823.08,341.2 823.72,341.36 823.72,341.36 Z M840.52,347.44 L828.52,347.44 C828.84,349.52 830.76,351.44 833.32,351.44 C836.36,351.44 837.96,349.04 837.96,349.04 L840.04,351.12 C840.04,351.12 837.64,354.32 833.32,354.32 C829,354.32 825.32,350.64 825.32,346.16 C825.32,341.84 828.84,338.32 833.16,338.32 C837.48,338.32 840.68,341.52 840.68,345.84 C840.68,346.8 840.52,347.44 840.52,347.44 Z M833.16,341.04 C830.76,341.04 829.16,342.64 828.648,344.72 L837.544,344.72 C837.16,342.64 835.56,341.04 833.16,341.04 Z M847.88,352.24 C847.88,351.12 846.92,350.16 845.8,350.16 C844.68,350.16 843.72,351.12 843.72,352.24 C843.72,353.36 844.68,354.32 845.8,354.32 C846.92,354.32 847.88,353.36 847.88,352.24 Z M850.12,331.6 L867.08,331.6 L867.08,334.8 L860.36,334.8 L860.36,354 L856.84,354 L856.84,334.8 L850.12,334.8 L850.12,331.6 Z M879.72,346.32 C879.72,343.44 877.48,341.2 874.92,341.2 C872.36,341.2 870.12,343.44 870.12,346.32 C870.12,349.2 872.36,351.44 874.92,351.44 C877.48,351.44 879.72,349.2 879.72,346.32 Z M866.92,346.32 C866.92,342 870.6,338.32 874.92,338.32 C879.24,338.32 882.92,342 882.92,346.32 C882.92,350.64 879.24,354.32 874.92,354.32 C870.6,354.32 866.92,350.64 866.92,346.32 Z M893,338.32 C896.04,338.32 897.96,340.4 897.96,340.4 L897.96,331.6 L901.16,331.6 L901.16,354 L897.96,354 L897.96,352.24 C897.96,352.24 896.04,354.32 893,354.32 C889,354.32 885.48,350.8 885.48,346.32 C885.48,341.84 889,338.32 893,338.32 Z M893.32,351.44 C895.72,351.44 897.96,349.2 897.96,346.32 C897.96,343.44 895.72,341.2 893.32,341.2 C890.92,341.2 888.68,343.44 888.68,346.32 C888.68,349.2 890.92,351.44 893.32,351.44 Z M917.8,346.32 C917.8,343.44 915.56,341.2 913,341.2 C910.44,341.2 908.2,343.44 908.2,346.32 C908.2,349.2 910.44,351.44 913,351.44 C915.56,351.44 917.8,349.2 917.8,346.32 Z M905,346.32 C905,342 908.68,338.32 913,338.32 C917.32,338.32 921,342 921,346.32 C921,350.64 917.32,354.32 913,354.32 C908.68,354.32 905,350.64 905,346.32 Z M934.28,340.4 C934.28,340.4 932.68,338.32 929.32,338.32 C926.12,338.32 923.88,340.56 923.88,342.8 C923.88,348.24 931.72,346.64 931.72,349.52 C931.72,350.64 930.92,351.44 929.16,351.44 C926.76,351.44 925.32,349.52 925.32,349.52 L923.24,351.6 C923.24,351.6 925.16,354.32 929.16,354.32 C932.68,354.32 934.92,352.08 934.92,349.52 C934.92,344.08 927.08,345.68 927.08,342.8 C927.08,342 927.88,341.2 929.32,341.2 C931.08,341.2 932.2,342.48 932.2,342.48 L934.28,340.4 Z M950.12,347.6 C950.12,349.52 948.52,351.12 945.64,351.12 C941.64,351.12 939.88,348.56 939.88,348.56 L937.64,350.8 C937.64,350.8 940.2,354.32 945.64,354.32 C950.76,354.32 953.64,351.44 953.64,347.6 C953.64,339.28 941.8,342.48 941.8,337.36 C941.8,335.92 943.24,334.48 945.64,334.48 C948.68,334.48 950.12,336.4 950.12,336.4 L952.36,334.16 C952.36,334.16 950.12,331.28 945.64,331.28 C941,331.28 938.28,334 938.28,337.36 C938.28,345.68 950.12,342.48 950.12,347.6 Z M959.24,336.72 C959.24,338 958.6,338.64 957.64,338.64 L956.04,338.64 L956.04,341.52 L958.92,341.52 L958.92,349.52 C958.92,352.72 960.52,354.32 963.4,354.32 C964.68,354.32 965.64,354 965.64,354 L965.64,351.12 C965.64,351.12 964.84,351.44 964.04,351.44 C962.92,351.44 962.12,350.64 962.12,349.488 L962.12,341.52 L965.32,341.52 L965.32,338.64 L962.12,338.64 L962.12,333.52 L959.24,333.52 L959.24,336.72 Z M981.16,354 L977.96,354 L977.96,352.4 C977.96,352.4 976.2,354.32 973.32,354.32 C970.12,354.32 967.88,352.08 967.88,349.84 C967.88,347.28 969.64,345.52 972.36,345.04 L977.96,344.08 C977.96,342.48 976.68,341.2 974.76,341.2 C972.04,341.2 970.76,343.28 970.76,343.28 L968.68,341.2 C968.68,341.2 970.76,338.32 974.76,338.32 C978.6,338.32 981.16,340.88 981.16,344.08 L981.16,354 Z M973.8,351.44 C976.36,351.44 977.96,349.84 977.96,346.96 L977.96,346.64 L973,347.44 C971.88,347.632 971.08,348.4 971.08,349.52 C971.08,350.48 972.04,351.44 973.8,351.44 Z M987.56,336.72 C987.56,338 986.92,338.64 985.96,338.64 L984.36,338.64 L984.36,341.52 L987.24,341.52 L987.24,349.52 C987.24,352.72 988.84,354.32 991.72,354.32 C993,354.32 993.96,354 993.96,354 L993.96,351.12 C993.96,351.12 993.16,351.44 992.36,351.44 C991.24,351.44 990.44,350.64 990.44,349.488 L990.44,341.52 L993.64,341.52 L993.64,338.64 L990.44,338.64 L990.44,333.52 L987.56,333.52 L987.56,336.72 Z M1011.4,347.44 L999.4,347.44 C999.72,349.52 1001.64,351.44 1004.2,351.44 C1007.24,351.44 1008.84,349.04 1008.84,349.04 L1010.92,351.12 C1010.92,351.12 1008.52,354.32 1004.2,354.32 C999.88,354.32 996.2,350.64 996.2,346.16 C996.2,341.84 999.72,338.32 1004.04,338.32 C1008.36,338.32 1011.56,341.52 1011.56,345.84 C1011.56,346.8 1011.4,347.44 1011.4,347.44 Z M1004.04,341.04 C1001.64,341.04 1000.04,342.64 999.528,344.72 L1008.424,344.72 C1008.04,342.64 1006.44,341.04 1004.04,341.04 Z M1027.72,345.36 L1014.28,338.32 L1014.28,341.52 L1023.24,346.16 L1014.28,350.8 L1014.28,354 L1027.72,346.96 L1027.72,345.36 Z M1034.44,346 C1034.44,354 1029.96,359.76 1029.96,359.76 L1032.36,361.2 C1032.36,361.2 1037.32,355.28 1037.32,346 C1037.32,336.72 1032.36,330.8 1032.36,330.8 L1029.96,332.24 C1029.96,332.24 1034.44,338 1034.44,346 Z M1048.2,347.28 C1049.48,347.28 1050.12,347.92 1050.12,349.2 L1050.12,356.08 C1050.12,358.96 1051.88,360.72 1055.08,360.72 L1056.84,360.72 L1056.84,358.16 L1055.08,358.16 C1053.8,358.16 1053,357.36 1053,356.08 L1053,349.2 C1053,346.32 1051.24,346 1051.272,346 C1051.24,346 1053,345.68 1053,342.8 L1053,335.92 C1053,334.64 1053.8,333.84 1055.08,333.84 L1056.84,333.84 L1056.84,331.28 L1055.08,331.28 C1051.88,331.28 1050.12,333.04 1050.12,335.92 L1050.12,342.8 C1050.12,344.08 1049.48,344.72 1048.2,344.72 L1048.2,347.28 Z M1067.4,344.72 C1066.12,344.72 1065.48,344.08 1065.48,342.8 L1065.48,335.92 C1065.48,333.04 1063.72,331.28 1060.52,331.28 L1058.76,331.28 L1058.76,333.84 L1060.52,333.84 C1061.8,333.84 1062.6,334.64 1062.6,335.92 L1062.6,342.8 C1062.6,345.68 1064.36,346 1064.328,346 C1064.36,346 1062.6,346.32 1062.6,349.2 L1062.6,356.08 C1062.6,357.36 1061.8,358.16 1060.52,358.16 L1058.76,358.16 L1058.76,360.72 L1060.52,360.72 C1063.72,360.72 1065.48,358.96 1065.48,356.08 L1065.48,349.2 C1065.48,347.92 1066.12,347.28 1067.4,347.28 L1067.4,344.72 Z M234.28,422.64 L231.08,422.64 L231.08,438 L234.28,438 L234.28,429.68 C234.28,426.8 235.88,425.2 238.28,425.2 C240.36,425.2 241.96,426.8 241.96,429.04 L241.96,438 L245.16,438 L245.16,429.04 C245.16,424.88 242.6,422.32 238.92,422.32 C236.04,422.32 234.28,424.24 234.28,424.24 L234.28,422.64 Z M260.52,437.072 L260.52,435.76 C260.52,435.76 258.76,437.68 255.88,437.68 C252.04,437.68 248.68,434.32 248.68,430 C248.68,425.68 252.04,422.32 255.88,422.32 C258.76,422.32 260.52,424.24 260.52,424.24 L260.52,422.64 L263.72,422.64 L263.72,437.04 C263.72,441.36 260.36,444.72 256.04,444.72 C251.4,444.72 249.16,441.52 249.16,441.52 L251.24,439.44 C251.24,439.44 253,441.84 256.04,441.84 C258.6,441.84 260.52,439.92 260.52,437.072 Z M251.88,430 C251.88,432.72 253.96,434.8 256.2,434.8 C258.44,434.8 260.52,432.72 260.52,430 C260.52,427.28 258.44,425.2 256.2,425.2 C253.96,425.2 251.88,427.28 251.88,430 Z M271.56,426.8 C271.56,431.44 275.24,435.12 279.88,435.12 C284.52,435.12 288.2,431.44 288.2,426.8 C288.2,422.16 284.52,418.48 279.88,418.48 C275.24,418.48 271.56,422.16 271.56,426.8 Z M268.04,426.8 C268.04,420.4 273.16,415.28 279.88,415.28 C286.6,415.28 291.72,420.4 291.72,426.8 C291.72,433.2 286.6,438.32 279.88,438.32 C273.16,438.32 268.04,433.2 268.04,426.8 Z M298.92,422.64 L295.72,422.64 L295.72,438 L298.92,438 L298.92,429.68 C298.92,426.8 300.52,425.2 302.92,425.2 C305,425.2 306.6,426.8 306.6,429.04 L306.6,438 L309.8,438 L309.8,429.04 C309.8,424.88 307.24,422.32 303.56,422.32 C300.68,422.32 298.92,424.24 298.92,424.24 L298.92,422.64 Z M315.4,438 L318.92,438 L318.92,415.6 L315.4,415.6 L315.4,438 Z M327.4,422.64 L324.2,422.64 L324.2,438 L327.4,438 L327.4,429.68 C327.4,426.8 329,425.2 331.4,425.2 C333.48,425.2 335.08,426.8 335.08,429.04 L335.08,438 L338.28,438 L338.28,429.04 C338.28,424.88 335.72,422.32 332.04,422.32 C329.16,422.32 327.4,424.24 327.4,424.24 L327.4,422.64 Z M346.12,422.64 L342.92,422.64 L342.92,438 L346.12,438 L346.12,422.64 Z M346.44,417.84 C346.44,416.72 345.64,415.92 344.52,415.92 C343.4,415.92 342.6,416.72 342.6,417.84 C342.6,418.96 343.4,419.76 344.52,419.76 C345.64,419.76 346.44,418.96 346.44,417.84 Z M352.68,420.72 C352.68,422 352.04,422.64 351.08,422.64 L349.48,422.64 L349.48,425.52 L352.36,425.52 L352.36,433.52 C352.36,436.72 353.96,438.32 356.84,438.32 C358.12,438.32 359.08,438 359.08,438 L359.08,435.12 C359.08,435.12 358.28,435.44 357.48,435.44 C356.36,435.44 355.56,434.64 355.56,433.488 L355.56,425.52 L358.76,425.52 L358.76,422.64 L355.56,422.64 L355.56,417.52 L352.68,417.52 L352.68,420.72 Z M366.28,430 C366.28,422 370.76,416.24 370.76,416.24 L368.36,414.8 C368.36,414.8 363.4,420.72 363.4,430 C363.4,439.28 368.36,445.2 368.36,445.2 L370.76,443.76 C370.76,443.76 366.28,438 366.28,430 Z M377.16,430 C377.16,438 372.68,443.76 372.68,443.76 L375.08,445.2 C375.08,445.2 380.04,439.28 380.04,430 C380.04,420.72 375.08,414.8 375.08,414.8 L372.68,416.24 C372.68,416.24 377.16,422 377.16,430 Z M390.92,431.28 C392.2,431.28 392.84,431.92 392.84,433.2 L392.84,440.08 C392.84,442.96 394.6,444.72 397.8,444.72 L399.56,444.72 L399.56,442.16 L397.8,442.16 C396.52,442.16 395.72,441.36 395.72,440.08 L395.72,433.2 C395.72,430.32 393.96,430 393.992,430 C393.96,430 395.72,429.68 395.72,426.8 L395.72,419.92 C395.72,418.64 396.52,417.84 397.8,417.84 L399.56,417.84 L399.56,415.28 L397.8,415.28 C394.6,415.28 392.84,417.04 392.84,419.92 L392.84,426.8 C392.84,428.08 392.2,428.72 390.92,428.72 L390.92,431.28 Z M261,462.72 C261,464 260.36,464.64 259.4,464.64 L257.8,464.64 L257.8,467.52 L260.68,467.52 L260.68,475.52 C260.68,478.72 262.28,480.32 265.16,480.32 C266.44,480.32 267.4,480 267.4,480 L267.4,477.12 C267.4,477.12 266.6,477.44 265.8,477.44 C264.68,477.44 263.88,476.64 263.88,475.488 L263.88,467.52 L267.08,467.52 L267.08,464.64 L263.88,464.64 L263.88,459.52 L261,459.52 L261,462.72 Z M274.76,457.6 L271.56,457.6 L271.56,480 L274.76,480 L274.76,471.68 C274.76,468.8 276.36,467.2 278.76,467.2 C280.84,467.2 282.44,468.8 282.44,471.04 L282.44,480 L285.64,480 L285.64,471.04 C285.64,466.88 283.08,464.32 279.4,464.32 C276.52,464.32 274.76,466.24 274.76,466.24 L274.76,457.6 Z M293.48,464.64 L290.28,464.64 L290.28,480 L293.48,480 L293.48,464.64 Z M293.8,459.84 C293.8,458.72 293,457.92 291.88,457.92 C290.76,457.92 289.96,458.72 289.96,459.84 C289.96,460.96 290.76,461.76 291.88,461.76 C293,461.76 293.8,460.96 293.8,459.84 Z M307.88,466.4 C307.88,466.4 306.28,464.32 302.92,464.32 C299.72,464.32 297.48,466.56 297.48,468.8 C297.48,474.24 305.32,472.64 305.32,475.52 C305.32,476.64 304.52,477.44 302.76,477.44 C300.36,477.44 298.92,475.52 298.92,475.52 L296.84,477.6 C296.84,477.6 298.76,480.32 302.76,480.32 C306.28,480.32 308.52,478.08 308.52,475.52 C308.52,470.08 300.68,471.68 300.68,468.8 C300.68,468 301.48,467.2 302.92,467.2 C304.68,467.2 305.8,468.48 305.8,468.48 L307.88,466.4 Z M315.72,478.24 C315.72,477.12 314.76,476.16 313.64,476.16 C312.52,476.16 311.56,477.12 311.56,478.24 C311.56,479.36 312.52,480.32 313.64,480.32 C314.76,480.32 315.72,479.36 315.72,478.24 Z M321.32,462.72 C321.32,464 320.68,464.64 319.72,464.64 L318.12,464.64 L318.12,467.52 L321,467.52 L321,475.52 C321,478.72 322.6,480.32 325.48,480.32 C326.76,480.32 327.72,480 327.72,480 L327.72,477.12 C327.72,477.12 326.92,477.44 326.12,477.44 C325,477.44 324.2,476.64 324.2,475.488 L324.2,467.52 L327.4,467.52 L327.4,464.64 L324.2,464.64 L324.2,459.52 L321.32,459.52 L321.32,462.72 Z M342.76,472.32 C342.76,469.44 340.52,467.2 337.96,467.2 C335.4,467.2 333.16,469.44 333.16,472.32 C333.16,475.2 335.4,477.44 337.96,477.44 C340.52,477.44 342.76,475.2 342.76,472.32 Z M329.96,472.32 C329.96,468 333.64,464.32 337.96,464.32 C342.28,464.32 345.96,468 345.96,472.32 C345.96,476.64 342.28,480.32 337.96,480.32 C333.64,480.32 329.96,476.64 329.96,472.32 Z M356.04,464.32 C359.08,464.32 361,466.4 361,466.4 L361,457.6 L364.2,457.6 L364.2,480 L361,480 L361,478.24 C361,478.24 359.08,480.32 356.04,480.32 C352.04,480.32 348.52,476.8 348.52,472.32 C348.52,467.84 352.04,464.32 356.04,464.32 Z M356.36,477.44 C358.76,477.44 361,475.2 361,472.32 C361,469.44 358.76,467.2 356.36,467.2 C353.96,467.2 351.72,469.44 351.72,472.32 C351.72,475.2 353.96,477.44 356.36,477.44 Z M380.84,472.32 C380.84,469.44 378.6,467.2 376.04,467.2 C373.48,467.2 371.24,469.44 371.24,472.32 C371.24,475.2 373.48,477.44 376.04,477.44 C378.6,477.44 380.84,475.2 380.84,472.32 Z M368.04,472.32 C368.04,468 371.72,464.32 376.04,464.32 C380.36,464.32 384.04,468 384.04,472.32 C384.04,476.64 380.36,480.32 376.04,480.32 C371.72,480.32 368.04,476.64 368.04,472.32 Z M397.32,466.4 C397.32,466.4 395.72,464.32 392.36,464.32 C389.16,464.32 386.92,466.56 386.92,468.8 C386.92,474.24 394.76,472.64 394.76,475.52 C394.76,476.64 393.96,477.44 392.2,477.44 C389.8,477.44 388.36,475.52 388.36,475.52 L386.28,477.6 C386.28,477.6 388.2,480.32 392.2,480.32 C395.72,480.32 397.96,478.08 397.96,475.52 C397.96,470.08 390.12,471.68 390.12,468.8 C390.12,468 390.92,467.2 392.36,467.2 C394.12,467.2 395.24,468.48 395.24,468.48 L397.32,466.4 Z M407.08,454.08 L407.08,457.44 C407.08,457.44 401.32,458.08 401.32,463.36 C401.32,471.68 413.16,468.48 413.16,473.6 C413.16,475.52 411.56,477.12 408.68,477.12 C404.68,477.12 402.92,474.56 402.92,474.56 L400.68,476.8 C400.68,476.8 402.92,479.68 407.08,480.16 L407.08,483.52 L410.28,483.52 L410.28,480.16 C410.28,480.16 416.68,479.68 416.68,473.6 C416.68,465.28 404.84,468.48 404.84,463.36 C404.84,461.92 406.28,460.48 408.68,460.48 C411.72,460.48 413.16,462.4 413.16,462.4 L415.4,460.16 C415.4,460.16 413.48,457.92 410.28,457.44 L410.28,454.08 L407.08,454.08 Z M439.08,472 L425.96,472 L425.96,474.88 L439.08,474.88 L439.08,472 Z M439.08,466.24 L425.96,466.24 L425.96,469.12 L439.08,469.12 L439.08,466.24 Z M450.6,462.56 C450.6,463.84 449.8,464.64 448.84,464.64 L447.4,464.64 L447.4,468.48 L450.12,468.48 L450.12,474.88 C450.12,478.56 451.88,480.32 455.08,480.32 C456.68,480.32 457.96,479.84 457.96,479.84 L457.96,476.16 C457.96,476.16 457.32,476.48 456.36,476.48 C455.24,476.48 454.44,475.68 454.44,474.72 L454.44,468.48 L457.64,468.48 L457.64,464.64 L454.44,464.64 L454.44,459.68 L450.6,459.68 L450.6,462.56 Z M466.12,457.6 L461.8,457.6 L461.8,480 L466.12,480 L466.12,471.84 C466.12,469.44 467.4,468.16 469.32,468.16 C471.08,468.16 472.36,469.44 472.36,471.36 L472.36,480 L476.68,480 L476.68,470.88 C476.68,466.56 474.12,464 470.6,464 C467.72,464 466.12,466.24 466.12,466.24 L466.12,457.6 Z M485.32,464.32 L481,464.32 L481,480 L485.32,480 L485.32,464.32 Z M485.64,459.84 C485.64,458.4 484.68,457.44 483.08,457.44 C481.64,457.44 480.68,458.4 480.68,459.84 C480.68,461.28 481.64,462.24 483.08,462.24 C484.68,462.24 485.64,461.28 485.64,459.84 Z M500.52,466.4 C500.52,466.4 498.76,464 495.08,464 C491.56,464 489,466.56 489,468.96 C489,474.144 496.2,472.96 496.2,475.36 C496.2,476.16 495.56,476.8 494.12,476.8 C492.04,476.8 490.76,475.04 490.76,475.04 L488.36,477.44 C488.36,477.44 490.28,480.32 494.76,480.32 C498.76,480.32 501,478.08 501,475.36 C501,470.08 493.8,471.2 493.8,468.96 C493.8,468.32 494.44,467.68 495.72,467.68 C497.32,467.68 498.28,468.96 498.28,468.96 L500.52,466.4 Z M503.72,477.92 C503.72,479.2 504.84,480.32 506.28,480.32 C507.72,480.32 508.84,479.2 508.84,477.92 C508.84,476.64 507.72,475.52 506.28,475.52 C504.84,475.52 503.72,476.64 503.72,477.92 Z M523.08,466.4 C523.08,466.4 521.32,464 517.64,464 C514.12,464 511.56,466.56 511.56,468.96 C511.56,474.144 518.76,472.96 518.76,475.36 C518.76,476.16 518.12,476.8 516.68,476.8 C514.6,476.8 513.32,475.04 513.32,475.04 L510.92,477.44 C510.92,477.44 512.84,480.32 517.32,480.32 C521.32,480.32 523.56,478.08 523.56,475.36 C523.56,470.08 516.36,471.2 516.36,468.96 C516.36,468.32 517,467.68 518.28,467.68 C519.88,467.68 520.84,468.96 520.84,468.96 L523.08,466.4 Z M528.68,462.56 C528.68,463.84 527.88,464.64 526.92,464.64 L525.48,464.64 L525.48,468.48 L528.2,468.48 L528.2,474.88 C528.2,478.56 529.96,480.32 533.16,480.32 C534.76,480.32 536.04,479.84 536.04,479.84 L536.04,476.16 C536.04,476.16 535.4,476.48 534.44,476.48 C533.32,476.48 532.52,475.68 532.52,474.72 L532.52,468.48 L535.72,468.48 L535.72,464.64 L532.52,464.64 L532.52,459.68 L528.68,459.68 L528.68,462.56 Z M542.6,472.16 C542.6,474.56 544.36,476.32 546.44,476.32 C548.52,476.32 550.28,474.56 550.28,472.16 C550.28,469.76 548.52,468 546.44,468 C544.36,468 542.6,469.76 542.6,472.16 Z M554.76,472.16 C554.76,476.48 550.92,480.32 546.44,480.32 C541.96,480.32 538.12,476.48 538.12,472.16 C538.12,467.84 541.96,464 546.44,464 C550.92,464 554.76,467.84 554.76,472.16 Z M567.4,464.16 L566.76,464.16 C563.88,464.16 562.28,466.24 562.28,466.24 L562.28,464.32 L557.96,464.32 L557.96,480 L562.28,480 L562.28,472.48 C562.28,469.76 563.72,468.32 565.96,468.32 C566.92,468.32 567.4,468.48 567.4,468.48 L567.4,464.16 Z M584.68,473.6 L573.32,473.6 C573.64,475.2 575.08,476.64 577.48,476.64 C580.2,476.64 581.64,474.72 581.64,474.72 L583.88,477.6 C583.88,477.6 581.48,480.32 577.16,480.32 C572.52,480.32 568.84,476.64 568.84,472.16 C568.84,467.68 572.52,464 577,464 C581.48,464 584.84,467.36 584.84,471.84 C584.84,472.96 584.68,473.6 584.68,473.6 Z M577,467.68 C575.08,467.68 573.8,468.96 573.32,470.56 L580.52,470.56 C580.2,468.96 578.92,467.68 577,467.68 Z M587.56,477.92 C587.56,479.2 588.68,480.32 590.12,480.32 C591.56,480.32 592.68,479.2 592.68,477.92 C592.68,476.64 591.56,475.52 590.12,475.52 C588.68,475.52 587.56,476.64 587.56,477.92 Z M606.92,466.4 C606.92,466.4 605.16,464 601.48,464 C597.96,464 595.4,466.56 595.4,468.96 C595.4,474.144 602.6,472.96 602.6,475.36 C602.6,476.16 601.96,476.8 600.52,476.8 C598.44,476.8 597.16,475.04 597.16,475.04 L594.76,477.44 C594.76,477.44 596.68,480.32 601.16,480.32 C605.16,480.32 607.4,478.08 607.4,475.36 C607.4,470.08 600.2,471.2 600.2,468.96 C600.2,468.32 600.84,467.68 602.12,467.68 C603.72,467.68 604.68,468.96 604.68,468.96 L606.92,466.4 Z M625.48,473.6 L614.12,473.6 C614.44,475.2 615.88,476.64 618.28,476.64 C621,476.64 622.44,474.72 622.44,474.72 L624.68,477.6 C624.68,477.6 622.28,480.32 617.96,480.32 C613.32,480.32 609.64,476.64 609.64,472.16 C609.64,467.68 613.32,464 617.8,464 C622.28,464 625.64,467.36 625.64,471.84 C625.64,472.96 625.48,473.6 625.48,473.6 Z M617.8,467.68 C615.88,467.68 614.6,468.96 614.12,470.56 L621.32,470.56 C621,468.96 619.72,467.68 617.8,467.68 Z M633.32,457.6 L629,457.6 L629,480 L633.32,480 L633.32,457.6 Z M652.52,473.6 L641.16,473.6 C641.48,475.2 642.92,476.64 645.32,476.64 C648.04,476.64 649.48,474.72 649.48,474.72 L651.72,477.6 C651.72,477.6 649.32,480.32 645,480.32 C640.36,480.32 636.68,476.64 636.68,472.16 C636.68,467.68 640.36,464 644.84,464 C649.32,464 652.68,467.36 652.68,471.84 C652.68,472.96 652.52,473.6 652.52,473.6 Z M644.84,467.68 C642.92,467.68 641.64,468.96 641.16,470.56 L648.36,470.56 C648.04,468.96 646.76,467.68 644.84,467.68 Z M654.92,472.16 C654.92,476.48 658.76,480.32 663.4,480.32 C667.72,480.32 669.8,477.12 669.8,477.12 L667.24,474.4 C667.24,474.4 665.8,476.48 663.4,476.48 C661.16,476.48 659.24,474.56 659.24,472.16 C659.24,469.76 661.16,467.84 663.4,467.84 C665.8,467.84 667.08,469.92 667.08,469.92 L669.8,467.2 C669.8,467.2 667.72,464 663.4,464 C658.76,464 654.92,467.84 654.92,472.16 Z M674.6,462.56 C674.6,463.84 673.8,464.64 672.84,464.64 L671.4,464.64 L671.4,468.48 L674.12,468.48 L674.12,474.88 C674.12,478.56 675.88,480.32 679.08,480.32 C680.68,480.32 681.96,479.84 681.96,479.84 L681.96,476.16 C681.96,476.16 681.32,476.48 680.36,476.48 C679.24,476.48 678.44,475.68 678.44,474.72 L678.44,468.48 L681.64,468.48 L681.64,464.64 L678.44,464.64 L678.44,459.68 L674.6,459.68 L674.6,462.56 Z M690.28,472 C690.28,464.32 694.6,458.72 694.6,458.72 L691.24,456.64 C691.24,456.64 685.96,462.72 685.96,472 C685.96,481.28 691.24,487.36 691.24,487.36 L694.6,485.44 C694.6,485.44 690.28,479.68 690.28,472 Z M706.12,464.8 L702.6,464.8 L702.6,462.88 C702.6,461.92 703.4,461.12 704.52,461.12 C705.48,461.12 706.12,461.44 706.12,461.44 L706.12,457.76 C706.12,457.76 704.84,457.28 703.24,457.28 C700.04,457.28 698.28,459.04 698.28,462.72 L698.28,464.8 L696.04,464.8 L696.04,468.64 L698.28,468.64 L698.28,480 L702.6,480 L702.6,468.64 L706.12,468.64 L706.12,464.8 Z M718.44,464.16 L717.8,464.16 C714.92,464.16 713.32,466.24 713.32,466.24 L713.32,464.32 L709,464.32 L709,480 L713.32,480 L713.32,472.48 C713.32,469.76 714.76,468.32 717,468.32 C717.96,468.32 718.44,468.48 718.44,468.48 L718.44,464.16 Z M724.36,472.16 C724.36,474.56 726.12,476.32 728.2,476.32 C730.28,476.32 732.04,474.56 732.04,472.16 C732.04,469.76 730.28,468 728.2,468 C726.12,468 724.36,469.76 724.36,472.16 Z M736.52,472.16 C736.52,476.48 732.68,480.32 728.2,480.32 C723.72,480.32 719.88,476.48 719.88,472.16 C719.88,467.84 723.72,464 728.2,464 C732.68,464 736.52,467.84 736.52,472.16 Z M759.24,480 L763.56,480 L763.56,470.88 C763.56,466.24 761.32,464 757.96,464 C754.44,464 752.68,466.72 752.68,466.72 C752.68,466.72 751.56,464 748.2,464 C745.48,464 744.04,466.24 744.04,466.24 L744.04,464.32 L739.72,464.32 L739.72,480 L744.04,480 L744.04,471.84 C744.04,469.44 745.32,468.16 746.92,468.16 C748.36,468.16 749.48,469.28 749.48,471.36 L749.48,480 L753.8,480 L753.8,471.84 C753.8,469.44 755.08,468.16 756.68,468.16 C758.12,468.16 759.24,469.28 759.24,471.36 L759.24,480 Z M778.44,473.44 C778.44,475.04 777.16,476.32 774.76,476.32 C771.4,476.32 769.48,473.92 769.48,473.92 L766.6,476.8 C766.6,476.8 769.48,480.48 775.08,480.48 C780.52,480.48 783.56,477.44 783.56,473.44 C783.56,465.44 772.52,467.84 772.52,463.68 C772.52,462.4 773.64,461.28 775.56,461.28 C778.12,461.28 779.72,463.2 779.72,463.2 L782.6,460.16 C782.6,460.16 780.2,457.12 775.24,457.12 C770.44,457.12 767.4,460.16 767.4,463.68 C767.4,471.68 778.44,469.28 778.44,473.44 Z M788.84,462.56 C788.84,463.84 788.04,464.64 787.08,464.64 L785.64,464.64 L785.64,468.48 L788.36,468.48 L788.36,474.88 C788.36,478.56 790.12,480.32 793.32,480.32 C794.92,480.32 796.2,479.84 796.2,479.84 L796.2,476.16 C796.2,476.16 795.56,476.48 794.6,476.48 C793.48,476.48 792.68,475.68 792.68,474.72 L792.68,468.48 L795.88,468.48 L795.88,464.64 L792.68,464.64 L792.68,459.68 L788.84,459.68 L788.84,462.56 Z M802.76,472.16 C802.76,474.56 804.52,476.32 806.6,476.32 C808.68,476.32 810.44,474.56 810.44,472.16 C810.44,469.76 808.68,468 806.6,468 C804.52,468 802.76,469.76 802.76,472.16 Z M814.92,472.16 C814.92,476.48 811.08,480.32 806.6,480.32 C802.12,480.32 798.28,476.48 798.28,472.16 C798.28,467.84 802.12,464 806.6,464 C811.08,464 814.92,467.84 814.92,472.16 Z M827.56,464.16 L826.92,464.16 C824.04,464.16 822.44,466.24 822.44,466.24 L822.44,464.32 L818.12,464.32 L818.12,480 L822.44,480 L822.44,472.48 C822.44,469.76 823.88,468.32 826.12,468.32 C827.08,468.32 827.56,468.48 827.56,468.48 L827.56,464.16 Z M844.84,473.6 L833.48,473.6 C833.8,475.2 835.24,476.64 837.64,476.64 C840.36,476.64 841.8,474.72 841.8,474.72 L844.04,477.6 C844.04,477.6 841.64,480.32 837.32,480.32 C832.68,480.32 829,476.64 829,472.16 C829,467.68 832.68,464 837.16,464 C841.64,464 845,467.36 845,471.84 C845,472.96 844.84,473.6 844.84,473.6 Z M837.16,467.68 C835.24,467.68 833.96,468.96 833.48,470.56 L840.68,470.56 C840.36,468.96 839.08,467.68 837.16,467.68 Z M847.72,477.92 C847.72,479.2 848.84,480.32 850.28,480.32 C851.72,480.32 852.84,479.2 852.84,477.92 C852.84,476.64 851.72,475.52 850.28,475.52 C848.84,475.52 847.72,476.64 847.72,477.92 Z M866.92,478.72 L866.92,477.44 C866.92,477.44 865.32,479.68 862.28,479.68 C858.76,479.68 855.24,476.16 855.24,471.84 C855.24,467.52 858.76,464 862.28,464 C865.32,464 866.92,466.24 866.92,466.24 L866.92,464.32 L871.24,464.32 L871.24,478.72 C871.24,483.2 867.72,486.72 862.92,486.72 C858.12,486.72 855.72,483.36 855.72,483.36 L858.44,480.8 C858.44,480.8 859.88,482.88 862.76,482.88 C865.32,482.88 866.92,481.28 866.92,478.72 Z M859.72,471.84 C859.72,474.08 861.32,475.68 863.24,475.68 C865.16,475.68 866.92,474.016 866.92,471.84 C866.92,469.664 865.16,468 863.24,468 C861.32,468 859.72,469.6 859.72,471.84 Z M890.28,473.6 L878.92,473.6 C879.24,475.2 880.68,476.64 883.08,476.64 C885.8,476.64 887.24,474.72 887.24,474.72 L889.48,477.6 C889.48,477.6 887.08,480.32 882.76,480.32 C878.12,480.32 874.44,476.64 874.44,472.16 C874.44,467.68 878.12,464 882.6,464 C887.08,464 890.44,467.36 890.44,471.84 C890.44,472.96 890.28,473.6 890.28,473.6 Z M882.6,467.68 C880.68,467.68 879.4,468.96 878.92,470.56 L886.12,470.56 C885.8,468.96 884.52,467.68 882.6,467.68 Z M895.56,462.56 C895.56,463.84 894.76,464.64 893.8,464.64 L892.36,464.64 L892.36,468.48 L895.08,468.48 L895.08,474.88 C895.08,478.56 896.84,480.32 900.04,480.32 C901.64,480.32 902.92,479.84 902.92,479.84 L902.92,476.16 C902.92,476.16 902.28,476.48 901.32,476.48 C900.2,476.48 899.4,475.68 899.4,474.72 L899.4,468.48 L902.6,468.48 L902.6,464.64 L899.4,464.64 L899.4,459.68 L895.56,459.68 L895.56,462.56 Z M905.32,457.6 L922.92,457.6 L922.92,461.92 L916.52,461.92 L916.52,480 L911.72,480 L911.72,461.92 L905.32,461.92 L905.32,457.6 Z M927.08,472.16 C927.08,474.56 928.84,476.32 930.92,476.32 C933,476.32 934.76,474.56 934.76,472.16 C934.76,469.76 933,468 930.92,468 C928.84,468 927.08,469.76 927.08,472.16 Z M939.24,472.16 C939.24,476.48 935.4,480.32 930.92,480.32 C926.44,480.32 922.6,476.48 922.6,472.16 C922.6,467.84 926.44,464 930.92,464 C935.4,464 939.24,467.84 939.24,472.16 Z M949,464 C952.04,464 953.64,466.24 953.64,466.24 L953.64,457.6 L957.96,457.6 L957.96,480 L953.64,480 L953.64,478.08 C953.64,478.08 952.04,480.32 949,480.32 C945,480.32 941.48,476.8 941.48,472.16 C941.48,467.52 945,464 949,464 Z M949.8,476.48 C951.88,476.48 953.64,474.72 953.64,472.16 C953.64,469.6 951.88,467.84 949.8,467.84 C947.72,467.84 945.96,469.6 945.96,472.16 C945.96,474.72 947.72,476.48 949.8,476.48 Z M965.8,472.16 C965.8,474.56 967.56,476.32 969.64,476.32 C971.72,476.32 973.48,474.56 973.48,472.16 C973.48,469.76 971.72,468 969.64,468 C967.56,468 965.8,469.76 965.8,472.16 Z M977.96,472.16 C977.96,476.48 974.12,480.32 969.64,480.32 C965.16,480.32 961.32,476.48 961.32,472.16 C961.32,467.84 965.16,464 969.64,464 C974.12,464 977.96,467.84 977.96,472.16 Z M992.04,466.4 C992.04,466.4 990.28,464 986.6,464 C983.08,464 980.52,466.56 980.52,468.96 C980.52,474.144 987.72,472.96 987.72,475.36 C987.72,476.16 987.08,476.8 985.64,476.8 C983.56,476.8 982.28,475.04 982.28,475.04 L979.88,477.44 C979.88,477.44 981.8,480.32 986.28,480.32 C990.28,480.32 992.52,478.08 992.52,475.36 C992.52,470.08 985.32,471.2 985.32,468.96 C985.32,468.32 985.96,467.68 987.24,467.68 C988.84,467.68 989.8,468.96 989.8,468.96 L992.04,466.4 Z M998.92,472 C998.92,479.68 994.6,485.44 994.6,485.44 L997.96,487.36 C997.96,487.36 1003.24,481.28 1003.24,472 C1003.24,462.72 997.96,456.64 997.96,456.64 L994.6,458.72 C994.6,458.72 998.92,464.32 998.92,472 Z M1007.56,466.4 C1007.56,467.68 1008.68,468.8 1010.12,468.8 C1011.56,468.8 1012.68,467.68 1012.68,466.4 C1012.68,465.12 1011.56,464 1010.12,464 C1008.68,464 1007.56,465.12 1007.56,466.4 Z M1008.84,475.36 L1005.32,482.72 L1008.2,484.16 L1012.36,477.44 L1008.84,475.36 Z M238.6,512.72 C237.32,512.72 236.68,512.08 236.68,510.8 L236.68,503.92 C236.68,501.04 234.92,499.28 231.72,499.28 L229.96,499.28 L229.96,501.84 L231.72,501.84 C233,501.84 233.8,502.64 233.8,503.92 L233.8,510.8 C233.8,513.68 235.56,514 235.528,514 C235.56,514 233.8,514.32 233.8,517.2 L233.8,524.08 C233.8,525.36 233,526.16 231.72,526.16 L229.96,526.16 L229.96,528.72 L231.72,528.72 C234.92,528.72 236.68,526.96 236.68,524.08 L236.68,517.2 C236.68,515.92 237.32,515.28 238.6,515.28 L238.6,512.72 Z M210.6,554.72 C209.32,554.72 208.68,554.08 208.68,552.8 L208.68,545.92 C208.68,543.04 206.92,541.28 203.72,541.28 L201.96,541.28 L201.96,543.84 L203.72,543.84 C205,543.84 205.8,544.64 205.8,545.92 L205.8,552.8 C205.8,555.68 207.56,556 207.528,556 C207.56,556 205.8,556.32 205.8,559.2 L205.8,566.08 C205.8,567.36 205,568.16 203.72,568.16 L201.96,568.16 L201.96,570.72 L203.72,570.72 C206.92,570.72 208.68,568.96 208.68,566.08 L208.68,559.2 C208.68,557.92 209.32,557.28 210.6,557.28 L210.6,554.72 Z" id="export-class-TodosCo" fill="#545E6F"></path>
            <text id="COMPONENT-STORE-SELE" font-family="TTNorms-Bold, TT Norms" font-size="24" font-weight="bold" fill="#FFFFFF">
                <tspan x="446.1" y="135">COMPONENT STORE SELECTORS</tspan>
            </text>
        </g>
    </g>
</svg>