<?xml version="1.0" encoding="UTF-8"?>
<svg width="1280px" height="720px" viewBox="0 0 1280 720" version="1.1" xmlns="http://www.w3.org/2000/svg" xmlns:xlink="http://www.w3.org/1999/xlink" style="background: #FFFFFF;">
    <!-- Generator: Sketch 47.1 (45422) - http://www.bohemiancoding.com/sketch -->
    <title>component-template-bindings</title>
    <desc>Created with Sketch.</desc>
    <defs></defs>
    <g id="Page-1" stroke="none" stroke-width="1" fill="none" fill-rule="evenodd">
        <g id="component-template-bindings">
            <g id="Group" transform="translate(131.000000, 72.000000)">
                <rect id="Rectangle-7" fill="#F4F6F8" x="0" y="24" width="1030" height="250" rx="15"></rect>
                <path d="M15,0 L1015,0 L1015,1.77635684e-15 C1023.28427,5.91178485e-14 1030,6.71572875 1030,15 L1030,58 L0,58 L0,15 L-1.77635684e-15,15 C-2.79088747e-15,6.71572875 6.71572875,-2.54560899e-16 15,-1.77635684e-15 Z" id="Rectangle" fill="#F9BE65"></path>
            </g>
            <g id="Group-Copy" transform="translate(131.000000, 382.000000)">
                <rect id="Rectangle-7" fill="#F4F6F8" x="0" y="24" width="1030" height="250" rx="15"></rect>
                <path d="M15,0 L1015,0 L1015,1.77635684e-15 C1023.28427,5.91178485e-14 1030,6.71572875 1030,15 L1030,58 L0,58 L0,15 L-1.77635684e-15,15 C-2.79088747e-15,6.71572875 6.71572875,-2.54560899e-16 15,-1.77635684e-15 Z" id="Rectangle" fill="#F9BE65"></path>
            </g>
            <path d="M202.28,195.96 L215.72,203 L215.72,199.8 L206.76,195.16 L215.72,190.52 L215.72,187.32 L202.28,194.36 L202.28,195.96 Z M225.64,187.32 C228.68,187.32 230.6,189.4 230.6,189.4 L230.6,180.6 L233.8,180.6 L233.8,203 L230.6,203 L230.6,201.24 C230.6,201.24 228.68,203.32 225.64,203.32 C221.64,203.32 218.12,199.8 218.12,195.32 C218.12,190.84 221.64,187.32 225.64,187.32 Z M225.96,200.44 C228.36,200.44 230.6,198.2 230.6,195.32 C230.6,192.44 228.36,190.2 225.96,190.2 C223.56,190.2 221.32,192.44 221.32,195.32 C221.32,198.2 223.56,200.44 225.96,200.44 Z M241.96,187.64 L238.76,187.64 L238.76,203 L241.96,203 L241.96,187.64 Z M242.28,182.84 C242.28,181.72 241.48,180.92 240.36,180.92 C239.24,180.92 238.44,181.72 238.44,182.84 C238.44,183.96 239.24,184.76 240.36,184.76 C241.48,184.76 242.28,183.96 242.28,182.84 Z M254.12,203 L260.36,187.64 L257,187.64 L252.52,198.84 L248.04,187.64 L244.68,187.64 L250.92,203 L254.12,203 Z M274.92,180.6 L272.36,180.6 L272.68,184.6 L269,183.16 L268.2,185.56 L272.04,186.52 L269.48,189.72 L271.4,191.32 L273.64,187.8 L275.88,191.32 L277.8,189.72 L275.24,186.52 L279.08,185.56 L278.28,183.16 L274.6,184.6 L274.92,180.6 Z M285.32,187.64 L282.12,187.64 L282.12,203 L285.32,203 L285.32,194.68 C285.32,191.8 286.92,190.2 289.32,190.2 C291.4,190.2 293,191.8 293,194.04 L293,203 L296.2,203 L296.2,194.04 C296.2,189.88 293.64,187.32 289.96,187.32 C287.08,187.32 285.32,189.24 285.32,189.24 L285.32,187.64 Z M311.56,202.072 L311.56,200.76 C311.56,200.76 309.8,202.68 306.92,202.68 C303.08,202.68 299.72,199.32 299.72,195 C299.72,190.68 303.08,187.32 306.92,187.32 C309.8,187.32 311.56,189.24 311.56,189.24 L311.56,187.64 L314.76,187.64 L314.76,202.04 C314.76,206.36 311.4,209.72 307.08,209.72 C302.44,209.72 300.2,206.52 300.2,206.52 L302.28,204.44 C302.28,204.44 304.04,206.84 307.08,206.84 C309.64,206.84 311.56,204.92 311.56,202.072 Z M302.92,195 C302.92,197.72 305,199.8 307.24,199.8 C309.48,199.8 311.56,197.72 311.56,195 C311.56,192.28 309.48,190.2 307.24,190.2 C305,190.2 302.92,192.28 302.92,195 Z M320.36,180.6 L320.36,203 L323.88,203 L323.88,193.24 L333.48,193.24 L333.48,190.04 L323.88,190.04 L323.88,183.8 L336.04,183.8 L336.04,180.6 L320.36,180.6 Z M349.64,195.32 C349.64,192.44 347.4,190.2 344.84,190.2 C342.28,190.2 340.04,192.44 340.04,195.32 C340.04,198.2 342.28,200.44 344.84,200.44 C347.4,200.44 349.64,198.2 349.64,195.32 Z M336.84,195.32 C336.84,191 340.52,187.32 344.84,187.32 C349.16,187.32 352.84,191 352.84,195.32 C352.84,199.64 349.16,203.32 344.84,203.32 C340.52,203.32 336.84,199.64 336.84,195.32 Z M365,190.36 L365,187.32 L364.2,187.32 C361.32,187.32 359.56,189.24 359.56,189.24 L359.56,187.64 L356.36,187.64 L356.36,203 L359.56,203 L359.56,194.68 C359.56,191.8 361.16,190.2 363.56,190.2 C364.36,190.2 365,190.36 365,190.36 Z M379.88,195 L366.76,195 L366.76,197.88 L379.88,197.88 L379.88,195 Z M379.88,189.24 L366.76,189.24 L366.76,192.12 L379.88,192.12 L379.88,189.24 Z M385.96,180.6 L383.08,180.6 L383.08,187.32 L385.96,187.32 L385.96,180.6 Z M391.08,180.6 L388.2,180.6 L388.2,187.32 L391.08,187.32 L391.08,180.6 Z M399.88,180.6 L396.68,180.6 L396.68,203 L399.88,203 L399.88,180.6 Z M418.92,196.44 L406.92,196.44 C407.24,198.52 409.16,200.44 411.72,200.44 C414.76,200.44 416.36,198.04 416.36,198.04 L418.44,200.12 C418.44,200.12 416.04,203.32 411.72,203.32 C407.4,203.32 403.72,199.64 403.72,195.16 C403.72,190.84 407.24,187.32 411.56,187.32 C415.88,187.32 419.08,190.52 419.08,194.84 C419.08,195.8 418.92,196.44 418.92,196.44 Z M411.56,190.04 C409.16,190.04 407.56,191.64 407.048,193.72 L415.944,193.72 C415.56,191.64 413.96,190.04 411.56,190.04 Z M424.52,185.72 C424.52,187 423.88,187.64 422.92,187.64 L421.32,187.64 L421.32,190.52 L424.2,190.52 L424.2,198.52 C424.2,201.72 425.8,203.32 428.68,203.32 C429.96,203.32 430.92,203 430.92,203 L430.92,200.12 C430.92,200.12 430.12,200.44 429.32,200.44 C428.2,200.44 427.4,199.64 427.4,198.488 L427.4,190.52 L430.6,190.52 L430.6,187.64 L427.4,187.64 L427.4,182.52 L424.52,182.52 L424.52,185.72 Z M443.08,185.72 C443.08,187 442.44,187.64 441.48,187.64 L439.88,187.64 L439.88,190.52 L442.76,190.52 L442.76,198.52 C442.76,201.72 444.36,203.32 447.24,203.32 C448.52,203.32 449.48,203 449.48,203 L449.48,200.12 C449.48,200.12 448.68,200.44 447.88,200.44 C446.76,200.44 445.96,199.64 445.96,198.488 L445.96,190.52 L449.16,190.52 L449.16,187.64 L445.96,187.64 L445.96,182.52 L443.08,182.52 L443.08,185.72 Z M464.52,195.32 C464.52,192.44 462.28,190.2 459.72,190.2 C457.16,190.2 454.92,192.44 454.92,195.32 C454.92,198.2 457.16,200.44 459.72,200.44 C462.28,200.44 464.52,198.2 464.52,195.32 Z M451.72,195.32 C451.72,191 455.4,187.32 459.72,187.32 C464.04,187.32 467.72,191 467.72,195.32 C467.72,199.64 464.04,203.32 459.72,203.32 C455.4,203.32 451.72,199.64 451.72,195.32 Z M477.8,187.32 C480.84,187.32 482.76,189.4 482.76,189.4 L482.76,180.6 L485.96,180.6 L485.96,203 L482.76,203 L482.76,201.24 C482.76,201.24 480.84,203.32 477.8,203.32 C473.8,203.32 470.28,199.8 470.28,195.32 C470.28,190.84 473.8,187.32 477.8,187.32 Z M478.12,200.44 C480.52,200.44 482.76,198.2 482.76,195.32 C482.76,192.44 480.52,190.2 478.12,190.2 C475.72,190.2 473.48,192.44 473.48,195.32 C473.48,198.2 475.72,200.44 478.12,200.44 Z M502.6,195.32 C502.6,192.44 500.36,190.2 497.8,190.2 C495.24,190.2 493,192.44 493,195.32 C493,198.2 495.24,200.44 497.8,200.44 C500.36,200.44 502.6,198.2 502.6,195.32 Z M489.8,195.32 C489.8,191 493.48,187.32 497.8,187.32 C502.12,187.32 505.8,191 505.8,195.32 C505.8,199.64 502.12,203.32 497.8,203.32 C493.48,203.32 489.8,199.64 489.8,195.32 Z M527.56,195.32 C527.56,192.44 525.32,190.2 522.76,190.2 C520.2,190.2 517.96,192.44 517.96,195.32 C517.96,198.2 520.2,200.44 522.76,200.44 C525.32,200.44 527.56,198.2 527.56,195.32 Z M514.76,195.32 C514.76,191 518.44,187.32 522.76,187.32 C527.08,187.32 530.76,191 530.76,195.32 C530.76,199.64 527.08,203.32 522.76,203.32 C518.44,203.32 514.76,199.64 514.76,195.32 Z M541.96,187.64 L538.44,187.64 L538.44,185.112 C538.44,183.96 539.24,183.16 540.36,183.16 C541.16,183.16 541.96,183.48 541.96,183.48 L541.96,180.6 C541.96,180.6 541,180.28 539.72,180.28 C536.84,180.28 535.24,181.88 535.24,185.08 L535.24,187.64 L533,187.64 L533,190.52 L535.24,190.52 L535.24,203 L538.44,203 L538.44,190.52 L541.96,190.52 L541.96,187.64 Z M553.48,185.72 C553.48,187 552.84,187.64 551.88,187.64 L550.28,187.64 L550.28,190.52 L553.16,190.52 L553.16,198.52 C553.16,201.72 554.76,203.32 557.64,203.32 C558.92,203.32 559.88,203 559.88,203 L559.88,200.12 C559.88,200.12 559.08,200.44 558.28,200.44 C557.16,200.44 556.36,199.64 556.36,198.488 L556.36,190.52 L559.56,190.52 L559.56,187.64 L556.36,187.64 L556.36,182.52 L553.48,182.52 L553.48,185.72 Z M574.92,195.32 C574.92,192.44 572.68,190.2 570.12,190.2 C567.56,190.2 565.32,192.44 565.32,195.32 C565.32,198.2 567.56,200.44 570.12,200.44 C572.68,200.44 574.92,198.2 574.92,195.32 Z M562.12,195.32 C562.12,191 565.8,187.32 570.12,187.32 C574.44,187.32 578.12,191 578.12,195.32 C578.12,199.64 574.44,203.32 570.12,203.32 C565.8,203.32 562.12,199.64 562.12,195.32 Z M588.2,187.32 C591.24,187.32 593.16,189.4 593.16,189.4 L593.16,180.6 L596.36,180.6 L596.36,203 L593.16,203 L593.16,201.24 C593.16,201.24 591.24,203.32 588.2,203.32 C584.2,203.32 580.68,199.8 580.68,195.32 C580.68,190.84 584.2,187.32 588.2,187.32 Z M588.52,200.44 C590.92,200.44 593.16,198.2 593.16,195.32 C593.16,192.44 590.92,190.2 588.52,190.2 C586.12,190.2 583.88,192.44 583.88,195.32 C583.88,198.2 586.12,200.44 588.52,200.44 Z M613,195.32 C613,192.44 610.76,190.2 608.2,190.2 C605.64,190.2 603.4,192.44 603.4,195.32 C603.4,198.2 605.64,200.44 608.2,200.44 C610.76,200.44 613,198.2 613,195.32 Z M600.2,195.32 C600.2,191 603.88,187.32 608.2,187.32 C612.52,187.32 616.2,191 616.2,195.32 C616.2,199.64 612.52,203.32 608.2,203.32 C603.88,203.32 600.2,199.64 600.2,195.32 Z M629.48,189.4 C629.48,189.4 627.88,187.32 624.52,187.32 C621.32,187.32 619.08,189.56 619.08,191.8 C619.08,197.24 626.92,195.64 626.92,198.52 C626.92,199.64 626.12,200.44 624.36,200.44 C621.96,200.44 620.52,198.52 620.52,198.52 L618.44,200.6 C618.44,200.6 620.36,203.32 624.36,203.32 C627.88,203.32 630.12,201.08 630.12,198.52 C630.12,193.08 622.28,194.68 622.28,191.8 C622.28,191 623.08,190.2 624.52,190.2 C626.28,190.2 627.4,191.48 627.4,191.48 L629.48,189.4 Z M635.4,179.96 L638.28,181.56 L634.28,187.96 L632.2,186.84 L635.4,179.96 Z M641.16,179.96 L644.04,181.56 L640.04,187.96 L637.96,186.84 L641.16,179.96 Z M659.4,194.36 L645.96,187.32 L645.96,190.52 L654.92,195.16 L645.96,199.8 L645.96,203 L659.4,195.96 L659.4,194.36 Z M228.52,238.28 C229.8,238.28 230.44,238.92 230.44,240.2 L230.44,247.08 C230.44,249.96 232.2,251.72 235.4,251.72 L237.16,251.72 L237.16,249.16 L235.4,249.16 C234.12,249.16 233.32,248.36 233.32,247.08 L233.32,240.2 C233.32,237.32 231.56,237 231.592,237 C231.56,237 233.32,236.68 233.32,233.8 L233.32,226.92 C233.32,225.64 234.12,224.84 235.4,224.84 L237.16,224.84 L237.16,222.28 L235.4,222.28 C232.2,222.28 230.44,224.04 230.44,226.92 L230.44,233.8 C230.44,235.08 229.8,235.72 228.52,235.72 L228.52,238.28 Z M240.04,238.28 C241.32,238.28 241.96,238.92 241.96,240.2 L241.96,247.08 C241.96,249.96 243.72,251.72 246.92,251.72 L248.68,251.72 L248.68,249.16 L246.92,249.16 C245.64,249.16 244.84,248.36 244.84,247.08 L244.84,240.2 C244.84,237.32 243.08,237 243.112,237 C243.08,237 244.84,236.68 244.84,233.8 L244.84,226.92 C244.84,225.64 245.64,224.84 246.92,224.84 L248.68,224.84 L248.68,222.28 L246.92,222.28 C243.72,222.28 241.96,224.04 241.96,226.92 L241.96,233.8 C241.96,235.08 241.32,235.72 240.04,235.72 L240.04,238.28 Z M260.04,227.72 C260.04,229 259.4,229.64 258.44,229.64 L256.84,229.64 L256.84,232.52 L259.72,232.52 L259.72,240.52 C259.72,243.72 261.32,245.32 264.2,245.32 C265.48,245.32 266.44,245 266.44,245 L266.44,242.12 C266.44,242.12 265.64,242.44 264.84,242.44 C263.72,242.44 262.92,241.64 262.92,240.488 L262.92,232.52 L266.12,232.52 L266.12,229.64 L262.92,229.64 L262.92,224.52 L260.04,224.52 L260.04,227.72 Z M281.48,237.32 C281.48,234.44 279.24,232.2 276.68,232.2 C274.12,232.2 271.88,234.44 271.88,237.32 C271.88,240.2 274.12,242.44 276.68,242.44 C279.24,242.44 281.48,240.2 281.48,237.32 Z M268.68,237.32 C268.68,233 272.36,229.32 276.68,229.32 C281,229.32 284.68,233 284.68,237.32 C284.68,241.64 281,245.32 276.68,245.32 C272.36,245.32 268.68,241.64 268.68,237.32 Z M294.76,229.32 C297.8,229.32 299.72,231.4 299.72,231.4 L299.72,222.6 L302.92,222.6 L302.92,245 L299.72,245 L299.72,243.24 C299.72,243.24 297.8,245.32 294.76,245.32 C290.76,245.32 287.24,241.8 287.24,237.32 C287.24,232.84 290.76,229.32 294.76,229.32 Z M295.08,242.44 C297.48,242.44 299.72,240.2 299.72,237.32 C299.72,234.44 297.48,232.2 295.08,232.2 C292.68,232.2 290.44,234.44 290.44,237.32 C290.44,240.2 292.68,242.44 295.08,242.44 Z M319.56,237.32 C319.56,234.44 317.32,232.2 314.76,232.2 C312.2,232.2 309.96,234.44 309.96,237.32 C309.96,240.2 312.2,242.44 314.76,242.44 C317.32,242.44 319.56,240.2 319.56,237.32 Z M306.76,237.32 C306.76,233 310.44,229.32 314.76,229.32 C319.08,229.32 322.76,233 322.76,237.32 C322.76,241.64 319.08,245.32 314.76,245.32 C310.44,245.32 306.76,241.64 306.76,237.32 Z M329.96,243.24 C329.96,242.12 329,241.16 327.88,241.16 C326.76,241.16 325.8,242.12 325.8,243.24 C325.8,244.36 326.76,245.32 327.88,245.32 C329,245.32 329.96,244.36 329.96,243.24 Z M337.16,222.6 L333.96,222.6 L333.96,245 L337.16,245 L337.16,222.6 Z M354.28,245 L351.08,245 L351.08,243.4 C351.08,243.4 349.32,245.32 346.44,245.32 C343.24,245.32 341,243.08 341,240.84 C341,238.28 342.76,236.52 345.48,236.04 L351.08,235.08 C351.08,233.48 349.8,232.2 347.88,232.2 C345.16,232.2 343.88,234.28 343.88,234.28 L341.8,232.2 C341.8,232.2 343.88,229.32 347.88,229.32 C351.72,229.32 354.28,231.88 354.28,235.08 L354.28,245 Z M346.92,242.44 C349.48,242.44 351.08,240.84 351.08,237.96 L351.08,237.64 L346.12,238.44 C345,238.632 344.2,239.4 344.2,240.52 C344.2,241.48 345.16,242.44 346.92,242.44 Z M367.24,229.32 C371.24,229.32 374.76,232.84 374.76,237.32 C374.76,241.8 371.24,245.32 367.24,245.32 C364.2,245.32 362.28,243.24 362.28,243.24 L362.28,245 L359.08,245 L359.08,222.6 L362.28,222.6 L362.28,231.4 C362.28,231.4 364.2,229.32 367.24,229.32 Z M366.92,242.44 C369.32,242.44 371.56,240.2 371.56,237.32 C371.56,234.44 369.32,232.2 366.92,232.2 C364.52,232.2 362.28,234.44 362.28,237.32 C362.28,240.2 364.52,242.44 366.92,242.44 Z M392.52,238.44 L380.52,238.44 C380.84,240.52 382.76,242.44 385.32,242.44 C388.36,242.44 389.96,240.04 389.96,240.04 L392.04,242.12 C392.04,242.12 389.64,245.32 385.32,245.32 C381,245.32 377.32,241.64 377.32,237.16 C377.32,232.84 380.84,229.32 385.16,229.32 C389.48,229.32 392.68,232.52 392.68,236.84 C392.68,237.8 392.52,238.44 392.52,238.44 Z M385.16,232.04 C382.76,232.04 381.16,233.64 380.648,235.72 L389.544,235.72 C389.16,233.64 387.56,232.04 385.16,232.04 Z M399.72,222.6 L396.52,222.6 L396.52,245 L399.72,245 L399.72,222.6 Z M418.44,235.72 C417.16,235.72 416.52,235.08 416.52,233.8 L416.52,226.92 C416.52,224.04 414.76,222.28 411.56,222.28 L409.8,222.28 L409.8,224.84 L411.56,224.84 C412.84,224.84 413.64,225.64 413.64,226.92 L413.64,233.8 C413.64,236.68 415.4,237 415.368,237 C415.4,237 413.64,237.32 413.64,240.2 L413.64,247.08 C413.64,248.36 412.84,249.16 411.56,249.16 L409.8,249.16 L409.8,251.72 L411.56,251.72 C414.76,251.72 416.52,249.96 416.52,247.08 L416.52,240.2 C416.52,238.92 417.16,238.28 418.44,238.28 L418.44,235.72 Z M429.96,235.72 C428.68,235.72 428.04,235.08 428.04,233.8 L428.04,226.92 C428.04,224.04 426.28,222.28 423.08,222.28 L421.32,222.28 L421.32,224.84 L423.08,224.84 C424.36,224.84 425.16,225.64 425.16,226.92 L425.16,233.8 C425.16,236.68 426.92,237 426.888,237 C426.92,237 425.16,237.32 425.16,240.2 L425.16,247.08 C425.16,248.36 424.36,249.16 423.08,249.16 L421.32,249.16 L421.32,251.72 L423.08,251.72 C426.28,251.72 428.04,249.96 428.04,247.08 L428.04,240.2 C428.04,238.92 428.68,238.28 429.96,238.28 L429.96,235.72 Z M202.28,279.96 L215.72,287 L215.72,283.8 L206.76,279.16 L215.72,274.52 L215.72,271.32 L202.28,278.36 L202.28,279.96 Z M230.44,264.28 L227.56,264.28 L217.96,293.72 L220.84,293.72 L230.44,264.28 Z M240.04,271.32 C243.08,271.32 245,273.4 245,273.4 L245,264.6 L248.2,264.6 L248.2,287 L245,287 L245,285.24 C245,285.24 243.08,287.32 240.04,287.32 C236.04,287.32 232.52,283.8 232.52,279.32 C232.52,274.84 236.04,271.32 240.04,271.32 Z M240.36,284.44 C242.76,284.44 245,282.2 245,279.32 C245,276.44 242.76,274.2 240.36,274.2 C237.96,274.2 235.72,276.44 235.72,279.32 C235.72,282.2 237.96,284.44 240.36,284.44 Z M256.36,271.64 L253.16,271.64 L253.16,287 L256.36,287 L256.36,271.64 Z M256.68,266.84 C256.68,265.72 255.88,264.92 254.76,264.92 C253.64,264.92 252.84,265.72 252.84,266.84 C252.84,267.96 253.64,268.76 254.76,268.76 C255.88,268.76 256.68,267.96 256.68,266.84 Z M268.52,287 L274.76,271.64 L271.4,271.64 L266.92,282.84 L262.44,271.64 L259.08,271.64 L265.32,287 L268.52,287 Z M289.96,278.36 L276.52,271.32 L276.52,274.52 L285.48,279.16 L276.52,283.8 L276.52,287 L289.96,279.96 L289.96,278.36 Z" id="&lt;div-*ngFor=&quot;let-tod" fill="#545E6F"></path>
            <path d="M202.28,505.96 L215.72,513 L215.72,509.8 L206.76,505.16 L215.72,500.52 L215.72,497.32 L202.28,504.36 L202.28,505.96 Z M225.64,497.32 C228.68,497.32 230.6,499.4 230.6,499.4 L230.6,490.6 L233.8,490.6 L233.8,513 L230.6,513 L230.6,511.24 C230.6,511.24 228.68,513.32 225.64,513.32 C221.64,513.32 218.12,509.8 218.12,505.32 C218.12,500.84 221.64,497.32 225.64,497.32 Z M225.96,510.44 C228.36,510.44 230.6,508.2 230.6,505.32 C230.6,502.44 228.36,500.2 225.96,500.2 C223.56,500.2 221.32,502.44 221.32,505.32 C221.32,508.2 223.56,510.44 225.96,510.44 Z M241.96,497.64 L238.76,497.64 L238.76,513 L241.96,513 L241.96,497.64 Z M242.28,492.84 C242.28,491.72 241.48,490.92 240.36,490.92 C239.24,490.92 238.44,491.72 238.44,492.84 C238.44,493.96 239.24,494.76 240.36,494.76 C241.48,494.76 242.28,493.96 242.28,492.84 Z M254.12,513 L260.36,497.64 L257,497.64 L252.52,508.84 L248.04,497.64 L244.68,497.64 L250.92,513 L254.12,513 Z M274.92,490.6 L272.36,490.6 L272.68,494.6 L269,493.16 L268.2,495.56 L272.04,496.52 L269.48,499.72 L271.4,501.32 L273.64,497.8 L275.88,501.32 L277.8,499.72 L275.24,496.52 L279.08,495.56 L278.28,493.16 L274.6,494.6 L274.92,490.6 Z M285.32,497.64 L282.12,497.64 L282.12,513 L285.32,513 L285.32,504.68 C285.32,501.8 286.92,500.2 289.32,500.2 C291.4,500.2 293,501.8 293,504.04 L293,513 L296.2,513 L296.2,504.04 C296.2,499.88 293.64,497.32 289.96,497.32 C287.08,497.32 285.32,499.24 285.32,499.24 L285.32,497.64 Z M311.56,512.072 L311.56,510.76 C311.56,510.76 309.8,512.68 306.92,512.68 C303.08,512.68 299.72,509.32 299.72,505 C299.72,500.68 303.08,497.32 306.92,497.32 C309.8,497.32 311.56,499.24 311.56,499.24 L311.56,497.64 L314.76,497.64 L314.76,512.04 C314.76,516.36 311.4,519.72 307.08,519.72 C302.44,519.72 300.2,516.52 300.2,516.52 L302.28,514.44 C302.28,514.44 304.04,516.84 307.08,516.84 C309.64,516.84 311.56,514.92 311.56,512.072 Z M302.92,505 C302.92,507.72 305,509.8 307.24,509.8 C309.48,509.8 311.56,507.72 311.56,505 C311.56,502.28 309.48,500.2 307.24,500.2 C305,500.2 302.92,502.28 302.92,505 Z M320.36,490.6 L320.36,513 L323.88,513 L323.88,503.24 L333.48,503.24 L333.48,500.04 L323.88,500.04 L323.88,493.8 L336.04,493.8 L336.04,490.6 L320.36,490.6 Z M349.64,505.32 C349.64,502.44 347.4,500.2 344.84,500.2 C342.28,500.2 340.04,502.44 340.04,505.32 C340.04,508.2 342.28,510.44 344.84,510.44 C347.4,510.44 349.64,508.2 349.64,505.32 Z M336.84,505.32 C336.84,501 340.52,497.32 344.84,497.32 C349.16,497.32 352.84,501 352.84,505.32 C352.84,509.64 349.16,513.32 344.84,513.32 C340.52,513.32 336.84,509.64 336.84,505.32 Z M365,500.36 L365,497.32 L364.2,497.32 C361.32,497.32 359.56,499.24 359.56,499.24 L359.56,497.64 L356.36,497.64 L356.36,513 L359.56,513 L359.56,504.68 C359.56,501.8 361.16,500.2 363.56,500.2 C364.36,500.2 365,500.36 365,500.36 Z M379.88,505 L366.76,505 L366.76,507.88 L379.88,507.88 L379.88,505 Z M379.88,499.24 L366.76,499.24 L366.76,502.12 L379.88,502.12 L379.88,499.24 Z M385.96,490.6 L383.08,490.6 L383.08,497.32 L385.96,497.32 L385.96,490.6 Z M391.08,490.6 L388.2,490.6 L388.2,497.32 L391.08,497.32 L391.08,490.6 Z M399.88,490.6 L396.68,490.6 L396.68,513 L399.88,513 L399.88,490.6 Z M418.92,506.44 L406.92,506.44 C407.24,508.52 409.16,510.44 411.72,510.44 C414.76,510.44 416.36,508.04 416.36,508.04 L418.44,510.12 C418.44,510.12 416.04,513.32 411.72,513.32 C407.4,513.32 403.72,509.64 403.72,505.16 C403.72,500.84 407.24,497.32 411.56,497.32 C415.88,497.32 419.08,500.52 419.08,504.84 C419.08,505.8 418.92,506.44 418.92,506.44 Z M411.56,500.04 C409.16,500.04 407.56,501.64 407.048,503.72 L415.944,503.72 C415.56,501.64 413.96,500.04 411.56,500.04 Z M424.52,495.72 C424.52,497 423.88,497.64 422.92,497.64 L421.32,497.64 L421.32,500.52 L424.2,500.52 L424.2,508.52 C424.2,511.72 425.8,513.32 428.68,513.32 C429.96,513.32 430.92,513 430.92,513 L430.92,510.12 C430.92,510.12 430.12,510.44 429.32,510.44 C428.2,510.44 427.4,509.64 427.4,508.488 L427.4,500.52 L430.6,500.52 L430.6,497.64 L427.4,497.64 L427.4,492.52 L424.52,492.52 L424.52,495.72 Z M443.08,495.72 C443.08,497 442.44,497.64 441.48,497.64 L439.88,497.64 L439.88,500.52 L442.76,500.52 L442.76,508.52 C442.76,511.72 444.36,513.32 447.24,513.32 C448.52,513.32 449.48,513 449.48,513 L449.48,510.12 C449.48,510.12 448.68,510.44 447.88,510.44 C446.76,510.44 445.96,509.64 445.96,508.488 L445.96,500.52 L449.16,500.52 L449.16,497.64 L445.96,497.64 L445.96,492.52 L443.08,492.52 L443.08,495.72 Z M464.52,505.32 C464.52,502.44 462.28,500.2 459.72,500.2 C457.16,500.2 454.92,502.44 454.92,505.32 C454.92,508.2 457.16,510.44 459.72,510.44 C462.28,510.44 464.52,508.2 464.52,505.32 Z M451.72,505.32 C451.72,501 455.4,497.32 459.72,497.32 C464.04,497.32 467.72,501 467.72,505.32 C467.72,509.64 464.04,513.32 459.72,513.32 C455.4,513.32 451.72,509.64 451.72,505.32 Z M477.8,497.32 C480.84,497.32 482.76,499.4 482.76,499.4 L482.76,490.6 L485.96,490.6 L485.96,513 L482.76,513 L482.76,511.24 C482.76,511.24 480.84,513.32 477.8,513.32 C473.8,513.32 470.28,509.8 470.28,505.32 C470.28,500.84 473.8,497.32 477.8,497.32 Z M478.12,510.44 C480.52,510.44 482.76,508.2 482.76,505.32 C482.76,502.44 480.52,500.2 478.12,500.2 C475.72,500.2 473.48,502.44 473.48,505.32 C473.48,508.2 475.72,510.44 478.12,510.44 Z M502.6,505.32 C502.6,502.44 500.36,500.2 497.8,500.2 C495.24,500.2 493,502.44 493,505.32 C493,508.2 495.24,510.44 497.8,510.44 C500.36,510.44 502.6,508.2 502.6,505.32 Z M489.8,505.32 C489.8,501 493.48,497.32 497.8,497.32 C502.12,497.32 505.8,501 505.8,505.32 C505.8,509.64 502.12,513.32 497.8,513.32 C493.48,513.32 489.8,509.64 489.8,505.32 Z M527.56,505.32 C527.56,502.44 525.32,500.2 522.76,500.2 C520.2,500.2 517.96,502.44 517.96,505.32 C517.96,508.2 520.2,510.44 522.76,510.44 C525.32,510.44 527.56,508.2 527.56,505.32 Z M514.76,505.32 C514.76,501 518.44,497.32 522.76,497.32 C527.08,497.32 530.76,501 530.76,505.32 C530.76,509.64 527.08,513.32 522.76,513.32 C518.44,513.32 514.76,509.64 514.76,505.32 Z M541.96,497.64 L538.44,497.64 L538.44,495.112 C538.44,493.96 539.24,493.16 540.36,493.16 C541.16,493.16 541.96,493.48 541.96,493.48 L541.96,490.6 C541.96,490.6 541,490.28 539.72,490.28 C536.84,490.28 535.24,491.88 535.24,495.08 L535.24,497.64 L533,497.64 L533,500.52 L535.24,500.52 L535.24,513 L538.44,513 L538.44,500.52 L541.96,500.52 L541.96,497.64 Z M554.92,505 C554.92,497 559.4,491.24 559.4,491.24 L557,489.8 C557,489.8 552.04,495.72 552.04,505 C552.04,514.28 557,520.2 557,520.2 L559.4,518.76 C559.4,518.76 554.92,513 554.92,505 Z M564.36,495.72 C564.36,497 563.72,497.64 562.76,497.64 L561.16,497.64 L561.16,500.52 L564.04,500.52 L564.04,508.52 C564.04,511.72 565.64,513.32 568.52,513.32 C569.8,513.32 570.76,513 570.76,513 L570.76,510.12 C570.76,510.12 569.96,510.44 569.16,510.44 C568.04,510.44 567.24,509.64 567.24,508.488 L567.24,500.52 L570.44,500.52 L570.44,497.64 L567.24,497.64 L567.24,492.52 L564.36,492.52 L564.36,495.72 Z M585.8,505.32 C585.8,502.44 583.56,500.2 581,500.2 C578.44,500.2 576.2,502.44 576.2,505.32 C576.2,508.2 578.44,510.44 581,510.44 C583.56,510.44 585.8,508.2 585.8,505.32 Z M573,505.32 C573,501 576.68,497.32 581,497.32 C585.32,497.32 589,501 589,505.32 C589,509.64 585.32,513.32 581,513.32 C576.68,513.32 573,509.64 573,505.32 Z M599.08,497.32 C602.12,497.32 604.04,499.4 604.04,499.4 L604.04,490.6 L607.24,490.6 L607.24,513 L604.04,513 L604.04,511.24 C604.04,511.24 602.12,513.32 599.08,513.32 C595.08,513.32 591.56,509.8 591.56,505.32 C591.56,500.84 595.08,497.32 599.08,497.32 Z M599.4,510.44 C601.8,510.44 604.04,508.2 604.04,505.32 C604.04,502.44 601.8,500.2 599.4,500.2 C597,500.2 594.76,502.44 594.76,505.32 C594.76,508.2 597,510.44 599.4,510.44 Z M623.88,505.32 C623.88,502.44 621.64,500.2 619.08,500.2 C616.52,500.2 614.28,502.44 614.28,505.32 C614.28,508.2 616.52,510.44 619.08,510.44 C621.64,510.44 623.88,508.2 623.88,505.32 Z M611.08,505.32 C611.08,501 614.76,497.32 619.08,497.32 C623.4,497.32 627.08,501 627.08,505.32 C627.08,509.64 623.4,513.32 619.08,513.32 C614.76,513.32 611.08,509.64 611.08,505.32 Z M640.36,499.4 C640.36,499.4 638.76,497.32 635.4,497.32 C632.2,497.32 629.96,499.56 629.96,501.8 C629.96,507.24 637.8,505.64 637.8,508.52 C637.8,509.64 637,510.44 635.24,510.44 C632.84,510.44 631.4,508.52 631.4,508.52 L629.32,510.6 C629.32,510.6 631.24,513.32 635.24,513.32 C638.76,513.32 641,511.08 641,508.52 C641,503.08 633.16,504.68 633.16,501.8 C633.16,501 633.96,500.2 635.4,500.2 C637.16,500.2 638.28,501.48 638.28,501.48 L640.36,499.4 Z M650.12,487.08 L650.12,490.44 C650.12,490.44 644.36,491.08 644.36,496.36 C644.36,504.68 656.2,501.48 656.2,506.6 C656.2,508.52 654.6,510.12 651.72,510.12 C647.72,510.12 645.96,507.56 645.96,507.56 L643.72,509.8 C643.72,509.8 645.96,512.68 650.12,513.16 L650.12,516.52 L653.32,516.52 L653.32,513.16 C653.32,513.16 659.72,512.68 659.72,506.6 C659.72,498.28 647.88,501.48 647.88,496.36 C647.88,494.92 649.32,493.48 651.72,493.48 C654.76,493.48 656.2,495.4 656.2,495.4 L658.44,493.16 C658.44,493.16 656.52,490.92 653.32,490.44 L653.32,487.08 L650.12,487.08 Z M674.76,490.28 L671.88,490.28 L671.88,519.72 L674.76,519.72 L674.76,490.28 Z M699.72,513 L696.52,513 L696.52,511.4 C696.52,511.4 694.76,513.32 691.88,513.32 C688.68,513.32 686.44,511.08 686.44,508.84 C686.44,506.28 688.2,504.52 690.92,504.04 L696.52,503.08 C696.52,501.48 695.24,500.2 693.32,500.2 C690.6,500.2 689.32,502.28 689.32,502.28 L687.24,500.2 C687.24,500.2 689.32,497.32 693.32,497.32 C697.16,497.32 699.72,499.88 699.72,503.08 L699.72,513 Z M692.36,510.44 C694.92,510.44 696.52,508.84 696.52,505.96 L696.52,505.64 L691.56,506.44 C690.44,506.632 689.64,507.4 689.64,508.52 C689.64,509.48 690.6,510.44 692.36,510.44 Z M713.96,499.4 C713.96,499.4 712.36,497.32 709,497.32 C705.8,497.32 703.56,499.56 703.56,501.8 C703.56,507.24 711.4,505.64 711.4,508.52 C711.4,509.64 710.6,510.44 708.84,510.44 C706.44,510.44 705,508.52 705,508.52 L702.92,510.6 C702.92,510.6 704.84,513.32 708.84,513.32 C712.36,513.32 714.6,511.08 714.6,508.52 C714.6,503.08 706.76,504.68 706.76,501.8 C706.76,501 707.56,500.2 709,500.2 C710.76,500.2 711.88,501.48 711.88,501.48 L713.96,499.4 Z M721.8,514.6 C721.224,516.04 720.36,516.84 719.08,516.84 C718.28,516.84 717.48,516.52 717.48,516.52 L717.48,519.4 C717.48,519.4 718.28,519.72 719.72,519.72 C722.056,519.72 723.432,518.44 725,514.6 L731.88,497.64 L728.52,497.64 L724.04,508.84 L719.56,497.64 L716.2,497.64 L722.44,513 L721.8,514.6 Z M737.64,497.64 L734.44,497.64 L734.44,513 L737.64,513 L737.64,504.68 C737.64,501.8 739.24,500.2 741.64,500.2 C743.72,500.2 745.32,501.8 745.32,504.04 L745.32,513 L748.52,513 L748.52,504.04 C748.52,499.88 745.96,497.32 742.28,497.32 C739.4,497.32 737.64,499.24 737.64,499.24 L737.64,497.64 Z M764.36,508.04 C764.36,508.04 764.359999,508.040002 764.359997,508.040005 L764.36,508.04 Z M764.36,508.04 L766.44,510.12 C766.44,510.12 764.04,513.32 760.04,513.32 C755.72,513.32 752.04,509.64 752.04,505.32 C752.04,501 755.72,497.32 760.04,497.32 C764.04,497.32 766.28,500.36 766.28,500.36 L764.2,502.44 C764.2,502.44 762.76,500.2 760.04,500.2 C757.48,500.2 755.24,502.44 755.24,505.32 C755.24,508.2 757.48,510.44 760.04,510.44 C762.757709,510.44 764.357304,508.044041 764.359997,508.040005 L764.36,508.04 Z M773,505 C773,513 768.52,518.76 768.52,518.76 L770.92,520.2 C770.92,520.2 775.88,514.28 775.88,505 C775.88,495.72 770.92,489.8 770.92,489.8 L768.52,491.24 C768.52,491.24 773,497 773,505 Z M783.24,490.6 L780.36,490.6 L780.36,497.32 L783.24,497.32 L783.24,490.6 Z M788.36,490.6 L785.48,490.6 L785.48,497.32 L788.36,497.32 L788.36,490.6 Z M805,504.36 L791.56,497.32 L791.56,500.52 L800.52,505.16 L791.56,509.8 L791.56,513 L805,505.96 L805,504.36 Z M228.52,548.28 C229.8,548.28 230.44,548.92 230.44,550.2 L230.44,557.08 C230.44,559.96 232.2,561.72 235.4,561.72 L237.16,561.72 L237.16,559.16 L235.4,559.16 C234.12,559.16 233.32,558.36 233.32,557.08 L233.32,550.2 C233.32,547.32 231.56,547 231.592,547 C231.56,547 233.32,546.68 233.32,543.8 L233.32,536.92 C233.32,535.64 234.12,534.84 235.4,534.84 L237.16,534.84 L237.16,532.28 L235.4,532.28 C232.2,532.28 230.44,534.04 230.44,536.92 L230.44,543.8 C230.44,545.08 229.8,545.72 228.52,545.72 L228.52,548.28 Z M240.04,548.28 C241.32,548.28 241.96,548.92 241.96,550.2 L241.96,557.08 C241.96,559.96 243.72,561.72 246.92,561.72 L248.68,561.72 L248.68,559.16 L246.92,559.16 C245.64,559.16 244.84,558.36 244.84,557.08 L244.84,550.2 C244.84,547.32 243.08,547 243.112,547 C243.08,547 244.84,546.68 244.84,543.8 L244.84,536.92 C244.84,535.64 245.64,534.84 246.92,534.84 L248.68,534.84 L248.68,532.28 L246.92,532.28 C243.72,532.28 241.96,534.04 241.96,536.92 L241.96,543.8 C241.96,545.08 241.32,545.72 240.04,545.72 L240.04,548.28 Z M260.04,537.72 C260.04,539 259.4,539.64 258.44,539.64 L256.84,539.64 L256.84,542.52 L259.72,542.52 L259.72,550.52 C259.72,553.72 261.32,555.32 264.2,555.32 C265.48,555.32 266.44,555 266.44,555 L266.44,552.12 C266.44,552.12 265.64,552.44 264.84,552.44 C263.72,552.44 262.92,551.64 262.92,550.488 L262.92,542.52 L266.12,542.52 L266.12,539.64 L262.92,539.64 L262.92,534.52 L260.04,534.52 L260.04,537.72 Z M281.48,547.32 C281.48,544.44 279.24,542.2 276.68,542.2 C274.12,542.2 271.88,544.44 271.88,547.32 C271.88,550.2 274.12,552.44 276.68,552.44 C279.24,552.44 281.48,550.2 281.48,547.32 Z M268.68,547.32 C268.68,543 272.36,539.32 276.68,539.32 C281,539.32 284.68,543 284.68,547.32 C284.68,551.64 281,555.32 276.68,555.32 C272.36,555.32 268.68,551.64 268.68,547.32 Z M294.76,539.32 C297.8,539.32 299.72,541.4 299.72,541.4 L299.72,532.6 L302.92,532.6 L302.92,555 L299.72,555 L299.72,553.24 C299.72,553.24 297.8,555.32 294.76,555.32 C290.76,555.32 287.24,551.8 287.24,547.32 C287.24,542.84 290.76,539.32 294.76,539.32 Z M295.08,552.44 C297.48,552.44 299.72,550.2 299.72,547.32 C299.72,544.44 297.48,542.2 295.08,542.2 C292.68,542.2 290.44,544.44 290.44,547.32 C290.44,550.2 292.68,552.44 295.08,552.44 Z M319.56,547.32 C319.56,544.44 317.32,542.2 314.76,542.2 C312.2,542.2 309.96,544.44 309.96,547.32 C309.96,550.2 312.2,552.44 314.76,552.44 C317.32,552.44 319.56,550.2 319.56,547.32 Z M306.76,547.32 C306.76,543 310.44,539.32 314.76,539.32 C319.08,539.32 322.76,543 322.76,547.32 C322.76,551.64 319.08,555.32 314.76,555.32 C310.44,555.32 306.76,551.64 306.76,547.32 Z M329.96,553.24 C329.96,552.12 329,551.16 327.88,551.16 C326.76,551.16 325.8,552.12 325.8,553.24 C325.8,554.36 326.76,555.32 327.88,555.32 C329,555.32 329.96,554.36 329.96,553.24 Z M337.16,532.6 L333.96,532.6 L333.96,555 L337.16,555 L337.16,532.6 Z M354.28,555 L351.08,555 L351.08,553.4 C351.08,553.4 349.32,555.32 346.44,555.32 C343.24,555.32 341,553.08 341,550.84 C341,548.28 342.76,546.52 345.48,546.04 L351.08,545.08 C351.08,543.48 349.8,542.2 347.88,542.2 C345.16,542.2 343.88,544.28 343.88,544.28 L341.8,542.2 C341.8,542.2 343.88,539.32 347.88,539.32 C351.72,539.32 354.28,541.88 354.28,545.08 L354.28,555 Z M346.92,552.44 C349.48,552.44 351.08,550.84 351.08,547.96 L351.08,547.64 L346.12,548.44 C345,548.632 344.2,549.4 344.2,550.52 C344.2,551.48 345.16,552.44 346.92,552.44 Z M367.24,539.32 C371.24,539.32 374.76,542.84 374.76,547.32 C374.76,551.8 371.24,555.32 367.24,555.32 C364.2,555.32 362.28,553.24 362.28,553.24 L362.28,555 L359.08,555 L359.08,532.6 L362.28,532.6 L362.28,541.4 C362.28,541.4 364.2,539.32 367.24,539.32 Z M366.92,552.44 C369.32,552.44 371.56,550.2 371.56,547.32 C371.56,544.44 369.32,542.2 366.92,542.2 C364.52,542.2 362.28,544.44 362.28,547.32 C362.28,550.2 364.52,552.44 366.92,552.44 Z M392.52,548.44 L380.52,548.44 C380.84,550.52 382.76,552.44 385.32,552.44 C388.36,552.44 389.96,550.04 389.96,550.04 L392.04,552.12 C392.04,552.12 389.64,555.32 385.32,555.32 C381,555.32 377.32,551.64 377.32,547.16 C377.32,542.84 380.84,539.32 385.16,539.32 C389.48,539.32 392.68,542.52 392.68,546.84 C392.68,547.8 392.52,548.44 392.52,548.44 Z M385.16,542.04 C382.76,542.04 381.16,543.64 380.648,545.72 L389.544,545.72 C389.16,543.64 387.56,542.04 385.16,542.04 Z M399.72,532.6 L396.52,532.6 L396.52,555 L399.72,555 L399.72,532.6 Z M418.44,545.72 C417.16,545.72 416.52,545.08 416.52,543.8 L416.52,536.92 C416.52,534.04 414.76,532.28 411.56,532.28 L409.8,532.28 L409.8,534.84 L411.56,534.84 C412.84,534.84 413.64,535.64 413.64,536.92 L413.64,543.8 C413.64,546.68 415.4,547 415.368,547 C415.4,547 413.64,547.32 413.64,550.2 L413.64,557.08 C413.64,558.36 412.84,559.16 411.56,559.16 L409.8,559.16 L409.8,561.72 L411.56,561.72 C414.76,561.72 416.52,559.96 416.52,557.08 L416.52,550.2 C416.52,548.92 417.16,548.28 418.44,548.28 L418.44,545.72 Z M429.96,545.72 C428.68,545.72 428.04,545.08 428.04,543.8 L428.04,536.92 C428.04,534.04 426.28,532.28 423.08,532.28 L421.32,532.28 L421.32,534.84 L423.08,534.84 C424.36,534.84 425.16,535.64 425.16,536.92 L425.16,543.8 C425.16,546.68 426.92,547 426.888,547 C426.92,547 425.16,547.32 425.16,550.2 L425.16,557.08 C425.16,558.36 424.36,559.16 423.08,559.16 L421.32,559.16 L421.32,561.72 L423.08,561.72 C426.28,561.72 428.04,559.96 428.04,557.08 L428.04,550.2 C428.04,548.92 428.68,548.28 429.96,548.28 L429.96,545.72 Z M202.28,589.96 L215.72,597 L215.72,593.8 L206.76,589.16 L215.72,584.52 L215.72,581.32 L202.28,588.36 L202.28,589.96 Z M230.44,574.28 L227.56,574.28 L217.96,603.72 L220.84,603.72 L230.44,574.28 Z M240.04,581.32 C243.08,581.32 245,583.4 245,583.4 L245,574.6 L248.2,574.6 L248.2,597 L245,597 L245,595.24 C245,595.24 243.08,597.32 240.04,597.32 C236.04,597.32 232.52,593.8 232.52,589.32 C232.52,584.84 236.04,581.32 240.04,581.32 Z M240.36,594.44 C242.76,594.44 245,592.2 245,589.32 C245,586.44 242.76,584.2 240.36,584.2 C237.96,584.2 235.72,586.44 235.72,589.32 C235.72,592.2 237.96,594.44 240.36,594.44 Z M256.36,581.64 L253.16,581.64 L253.16,597 L256.36,597 L256.36,581.64 Z M256.68,576.84 C256.68,575.72 255.88,574.92 254.76,574.92 C253.64,574.92 252.84,575.72 252.84,576.84 C252.84,577.96 253.64,578.76 254.76,578.76 C255.88,578.76 256.68,577.96 256.68,576.84 Z M268.52,597 L274.76,581.64 L271.4,581.64 L266.92,592.84 L262.44,581.64 L259.08,581.64 L265.32,597 L268.52,597 Z M289.96,588.36 L276.52,581.32 L276.52,584.52 L285.48,589.16 L276.52,593.8 L276.52,597 L289.96,589.96 L289.96,588.36 Z" id="&lt;div-*ngFor=&quot;let-tod" fill="#545E6F"></path>
            <text id="COMPONENT-TEMPLATE-B" font-family="TTNorms-Bold, TT Norms" font-size="24" font-weight="bold" fill="#FFFFFF">
                <tspan x="379.44" y="110">COMPONENT TEMPLATE BINDINGS (no ngrx)</tspan>
            </text>
            <text id="COMPONENT-TEMPLATE-B" font-family="TTNorms-Bold, TT Norms" font-size="24" font-weight="bold" fill="#FFFFFF">
                <tspan x="369.06" y="420">COMPONENT TEMPLATE BINDINGS (with ngrx)</tspan>
            </text>
        </g>
    </g>
</svg>