<?xml version="1.0" encoding="UTF-8"?>
<svg width="1280px" height="720px" viewBox="0 0 1280 720" version="1.1" xmlns="http://www.w3.org/2000/svg" xmlns:xlink="http://www.w3.org/1999/xlink" style="background: #FFFFFF;">
    <!-- Generator: Sketch 47.1 (45422) - http://www.bohemiancoding.com/sketch -->
    <title>action-constants-and-creators</title>
    <desc>Created with Sketch.</desc>
    <defs></defs>
    <g id="Page-1" stroke="none" stroke-width="1" fill="none" fill-rule="evenodd">
        <g id="action-constants-and-creators">
            <g id="Group" transform="translate(125.000000, 76.000000)">
                <rect id="Rectangle-7" fill="#F4F6F8" x="0" y="24" width="1030" height="544" rx="15"></rect>
                <path d="M15,0 L1015,0 L1015,1.77635684e-15 C1023.28427,5.91178485e-14 1030,6.71572875 1030,15 L1030,58 L0,58 L0,15 L-1.77635684e-15,15 C-2.79088747e-15,6.71572875 6.71572875,-2.54560899e-16 15,-1.77635684e-15 Z" id="Rectangle" fill="#DF7575"></path>
            </g>
            <path d="M211.32,200.44 L199.32,200.44 C199.64,202.52 201.56,204.44 204.12,204.44 C207.16,204.44 208.76,202.04 208.76,202.04 L210.84,204.12 C210.84,204.12 208.44,207.32 204.12,207.32 C199.8,207.32 196.12,203.64 196.12,199.16 C196.12,194.84 199.64,191.32 203.96,191.32 C208.28,191.32 211.48,194.52 211.48,198.84 C211.48,199.8 211.32,200.44 211.32,200.44 Z M203.96,194.04 C201.56,194.04 199.96,195.64 199.448,197.72 L208.344,197.72 C207.96,195.64 206.36,194.04 203.96,194.04 Z M222.68,199 L227.96,191.64 L224.28,191.64 L220.76,196.6 L217.24,191.64 L213.56,191.64 L218.84,199 L213.08,207 L216.76,207 L220.76,201.4 L224.76,207 L228.44,207 L222.68,199 Z M239.16,207.32 C236.12,207.32 234.2,205.24 234.2,205.24 L234.2,213.72 L231,213.72 L231,191.64 L234.2,191.64 L234.2,193.4 C234.2,193.4 236.12,191.32 239.16,191.32 C243.16,191.32 246.68,194.84 246.68,199.32 C246.68,203.8 243.16,207.32 239.16,207.32 Z M238.84,194.2 C236.44,194.2 234.2,196.44 234.2,199.32 C234.2,202.2 236.44,204.44 238.84,204.44 C241.24,204.44 243.48,202.2 243.48,199.32 C243.48,196.44 241.24,194.2 238.84,194.2 Z M262.04,199.32 C262.04,196.44 259.8,194.2 257.24,194.2 C254.68,194.2 252.44,196.44 252.44,199.32 C252.44,202.2 254.68,204.44 257.24,204.44 C259.8,204.44 262.04,202.2 262.04,199.32 Z M249.24,199.32 C249.24,195 252.92,191.32 257.24,191.32 C261.56,191.32 265.24,195 265.24,199.32 C265.24,203.64 261.56,207.32 257.24,207.32 C252.92,207.32 249.24,203.64 249.24,199.32 Z M277.4,194.36 L277.4,191.32 L276.6,191.32 C273.72,191.32 271.96,193.24 271.96,193.24 L271.96,191.64 L268.76,191.64 L268.76,207 L271.96,207 L271.96,198.68 C271.96,195.8 273.56,194.2 275.96,194.2 C276.76,194.2 277.4,194.36 277.4,194.36 Z M281.88,189.72 C281.88,191 281.24,191.64 280.28,191.64 L278.68,191.64 L278.68,194.52 L281.56,194.52 L281.56,202.52 C281.56,205.72 283.16,207.32 286.04,207.32 C287.32,207.32 288.28,207 288.28,207 L288.28,204.12 C288.28,204.12 287.48,204.44 286.68,204.44 C285.56,204.44 284.76,203.64 284.76,202.488 L284.76,194.52 L287.96,194.52 L287.96,191.64 L284.76,191.64 L284.76,186.52 L281.88,186.52 L281.88,189.72 Z M297.56,199.32 C297.56,203.64 301.24,207.32 305.56,207.32 C309.56,207.32 311.96,204.12 311.96,204.12 L309.88,202.04 C309.88,202.04 308.28,204.44 305.56,204.44 C303,204.44 300.76,202.2 300.76,199.32 C300.76,196.44 303,194.2 305.56,194.2 C308.28,194.2 309.72,196.44 309.72,196.44 L311.8,194.36 C311.8,194.36 309.56,191.32 305.56,191.32 C301.24,191.32 297.56,195 297.56,199.32 Z M327,199.32 C327,196.44 324.76,194.2 322.2,194.2 C319.64,194.2 317.4,196.44 317.4,199.32 C317.4,202.2 319.64,204.44 322.2,204.44 C324.76,204.44 327,202.2 327,199.32 Z M314.2,199.32 C314.2,195 317.88,191.32 322.2,191.32 C326.52,191.32 330.2,195 330.2,199.32 C330.2,203.64 326.52,207.32 322.2,207.32 C317.88,207.32 314.2,203.64 314.2,199.32 Z M336.92,191.64 L333.72,191.64 L333.72,207 L336.92,207 L336.92,198.68 C336.92,195.8 338.52,194.2 340.92,194.2 C343,194.2 344.6,195.8 344.6,198.04 L344.6,207 L347.8,207 L347.8,198.04 C347.8,193.88 345.24,191.32 341.56,191.32 C338.68,191.32 336.92,193.24 336.92,193.24 L336.92,191.64 Z M362.04,193.4 C362.04,193.4 360.44,191.32 357.08,191.32 C353.88,191.32 351.64,193.56 351.64,195.8 C351.64,201.24 359.48,199.64 359.48,202.52 C359.48,203.64 358.68,204.44 356.92,204.44 C354.52,204.44 353.08,202.52 353.08,202.52 L351,204.6 C351,204.6 352.92,207.32 356.92,207.32 C360.44,207.32 362.68,205.08 362.68,202.52 C362.68,197.08 354.84,198.68 354.84,195.8 C354.84,195 355.64,194.2 357.08,194.2 C358.84,194.2 359.96,195.48 359.96,195.48 L362.04,193.4 Z M368.12,189.72 C368.12,191 367.48,191.64 366.52,191.64 L364.92,191.64 L364.92,194.52 L367.8,194.52 L367.8,202.52 C367.8,205.72 369.4,207.32 372.28,207.32 C373.56,207.32 374.52,207 374.52,207 L374.52,204.12 C374.52,204.12 373.72,204.44 372.92,204.44 C371.8,204.44 371,203.64 371,202.488 L371,194.52 L374.2,194.52 L374.2,191.64 L371,191.64 L371,186.52 L368.12,186.52 L368.12,189.72 Z M383.32,207 L392.6,184.6 L396.12,184.6 L405.4,207 L401.72,207 L399.32,201.08 L389.4,201.08 L387,207 L383.32,207 Z M394.36,188.6 L390.68,197.88 L398.04,197.88 L394.36,188.6 Z M409.24,184.6 L417.08,184.6 C423.32,184.6 428.44,189.72 428.44,195.8 C428.44,201.88 423.32,207 417.08,207 L409.24,207 L409.24,184.6 Z M417.08,187.8 L412.76,187.8 L412.76,203.8 L417.08,203.8 C421.4,203.8 424.92,200.28 424.92,195.8 C424.92,191.32 421.4,187.8 417.08,187.8 Z M433.56,184.6 L441.4,184.6 C447.64,184.6 452.76,189.72 452.76,195.8 C452.76,201.88 447.64,207 441.4,207 L433.56,207 L433.56,184.6 Z M441.4,187.8 L437.08,187.8 L437.08,203.8 L441.4,203.8 C445.72,203.8 449.24,200.28 449.24,195.8 C449.24,191.32 445.72,187.8 441.4,187.8 Z M465.88,209.88 L454.36,209.88 L454.36,212.76 L465.88,212.76 L465.88,209.88 Z M466.2,184.6 L466.2,187.8 L472.92,187.8 L472.92,207 L476.44,207 L476.44,187.8 L483.16,187.8 L483.16,184.6 L466.2,184.6 Z M487.96,195.8 C487.96,200.44 491.64,204.12 496.28,204.12 C500.92,204.12 504.6,200.44 504.6,195.8 C504.6,191.16 500.92,187.48 496.28,187.48 C491.64,187.48 487.96,191.16 487.96,195.8 Z M484.44,195.8 C484.44,189.4 489.56,184.28 496.28,184.28 C503,184.28 508.12,189.4 508.12,195.8 C508.12,202.2 503,207.32 496.28,207.32 C489.56,207.32 484.44,202.2 484.44,195.8 Z M513.24,184.6 L521.08,184.6 C527.32,184.6 532.44,189.72 532.44,195.8 C532.44,201.88 527.32,207 521.08,207 L513.24,207 L513.24,184.6 Z M521.08,187.8 L516.76,187.8 L516.76,203.8 L521.08,203.8 C525.4,203.8 528.92,200.28 528.92,195.8 C528.92,191.32 525.4,187.8 521.08,187.8 Z M539.8,195.8 C539.8,200.44 543.48,204.12 548.12,204.12 C552.76,204.12 556.44,200.44 556.44,195.8 C556.44,191.16 552.76,187.48 548.12,187.48 C543.48,187.48 539.8,191.16 539.8,195.8 Z M536.28,195.8 C536.28,189.4 541.4,184.28 548.12,184.28 C554.84,184.28 559.96,189.4 559.96,195.8 C559.96,202.2 554.84,207.32 548.12,207.32 C541.4,207.32 536.28,202.2 536.28,195.8 Z M582.68,199 L569.56,199 L569.56,201.88 L582.68,201.88 L582.68,199 Z M582.68,193.24 L569.56,193.24 L569.56,196.12 L582.68,196.12 L582.68,193.24 Z M595.16,184.6 L592.28,184.6 L592.28,191.32 L595.16,191.32 L595.16,184.6 Z M602.52,186.84 L606.68,186.84 L606.68,184.28 L599.64,184.28 L599.64,213.72 L606.68,213.72 L606.68,211.16 L602.52,211.16 L602.52,186.84 Z M608.28,184.6 L625.24,184.6 L625.24,187.8 L618.52,187.8 L618.52,207 L615,207 L615,187.8 L608.28,187.8 L608.28,184.6 Z M637.88,199.32 C637.88,196.44 635.64,194.2 633.08,194.2 C630.52,194.2 628.28,196.44 628.28,199.32 C628.28,202.2 630.52,204.44 633.08,204.44 C635.64,204.44 637.88,202.2 637.88,199.32 Z M625.08,199.32 C625.08,195 628.76,191.32 633.08,191.32 C637.4,191.32 641.08,195 641.08,199.32 C641.08,203.64 637.4,207.32 633.08,207.32 C628.76,207.32 625.08,203.64 625.08,199.32 Z M651.16,191.32 C654.2,191.32 656.12,193.4 656.12,193.4 L656.12,184.6 L659.32,184.6 L659.32,207 L656.12,207 L656.12,205.24 C656.12,205.24 654.2,207.32 651.16,207.32 C647.16,207.32 643.64,203.8 643.64,199.32 C643.64,194.84 647.16,191.32 651.16,191.32 Z M651.48,204.44 C653.88,204.44 656.12,202.2 656.12,199.32 C656.12,196.44 653.88,194.2 651.48,194.2 C649.08,194.2 646.84,196.44 646.84,199.32 C646.84,202.2 649.08,204.44 651.48,204.44 Z M675.96,199.32 C675.96,196.44 673.72,194.2 671.16,194.2 C668.6,194.2 666.36,196.44 666.36,199.32 C666.36,202.2 668.6,204.44 671.16,204.44 C673.72,204.44 675.96,202.2 675.96,199.32 Z M663.16,199.32 C663.16,195 666.84,191.32 671.16,191.32 C675.48,191.32 679.16,195 679.16,199.32 C679.16,203.64 675.48,207.32 671.16,207.32 C666.84,207.32 663.16,203.64 663.16,199.32 Z M692.44,193.4 C692.44,193.4 690.84,191.32 687.48,191.32 C684.28,191.32 682.04,193.56 682.04,195.8 C682.04,201.24 689.88,199.64 689.88,202.52 C689.88,203.64 689.08,204.44 687.32,204.44 C684.92,204.44 683.48,202.52 683.48,202.52 L681.4,204.6 C681.4,204.6 683.32,207.32 687.32,207.32 C690.84,207.32 693.08,205.08 693.08,202.52 C693.08,197.08 685.24,198.68 685.24,195.8 C685.24,195 686.04,194.2 687.48,194.2 C689.24,194.2 690.36,195.48 690.36,195.48 L692.44,193.4 Z M699.64,211.16 L695.48,211.16 L695.48,213.72 L702.52,213.72 L702.52,184.28 L695.48,184.28 L695.48,186.84 L699.64,186.84 L699.64,211.16 Z M712.12,207 L721.4,184.6 L724.92,184.6 L734.2,207 L730.52,207 L728.12,201.08 L718.2,201.08 L715.8,207 L712.12,207 Z M723.16,188.6 L719.48,197.88 L726.84,197.88 L723.16,188.6 Z M743.48,191.32 C746.52,191.32 748.44,193.4 748.44,193.4 L748.44,184.6 L751.64,184.6 L751.64,207 L748.44,207 L748.44,205.24 C748.44,205.24 746.52,207.32 743.48,207.32 C739.48,207.32 735.96,203.8 735.96,199.32 C735.96,194.84 739.48,191.32 743.48,191.32 Z M743.8,204.44 C746.2,204.44 748.44,202.2 748.44,199.32 C748.44,196.44 746.2,194.2 743.8,194.2 C741.4,194.2 739.16,196.44 739.16,199.32 C739.16,202.2 741.4,204.44 743.8,204.44 Z M763,191.32 C766.04,191.32 767.96,193.4 767.96,193.4 L767.96,184.6 L771.16,184.6 L771.16,207 L767.96,207 L767.96,205.24 C767.96,205.24 766.04,207.32 763,207.32 C759,207.32 755.48,203.8 755.48,199.32 C755.48,194.84 759,191.32 763,191.32 Z M763.32,204.44 C765.72,204.44 767.96,202.2 767.96,199.32 C767.96,196.44 765.72,194.2 763.32,194.2 C760.92,194.2 758.68,196.44 758.68,199.32 C758.68,202.2 760.92,204.44 763.32,204.44 Z M780.92,184.6 L797.88,184.6 L797.88,187.8 L791.16,187.8 L791.16,207 L787.64,207 L787.64,187.8 L780.92,187.8 L780.92,184.6 Z M810.52,199.32 C810.52,196.44 808.28,194.2 805.72,194.2 C803.16,194.2 800.92,196.44 800.92,199.32 C800.92,202.2 803.16,204.44 805.72,204.44 C808.28,204.44 810.52,202.2 810.52,199.32 Z M797.72,199.32 C797.72,195 801.4,191.32 805.72,191.32 C810.04,191.32 813.72,195 813.72,199.32 C813.72,203.64 810.04,207.32 805.72,207.32 C801.4,207.32 797.72,203.64 797.72,199.32 Z M823.8,191.32 C826.84,191.32 828.76,193.4 828.76,193.4 L828.76,184.6 L831.96,184.6 L831.96,207 L828.76,207 L828.76,205.24 C828.76,205.24 826.84,207.32 823.8,207.32 C819.8,207.32 816.28,203.8 816.28,199.32 C816.28,194.84 819.8,191.32 823.8,191.32 Z M824.12,204.44 C826.52,204.44 828.76,202.2 828.76,199.32 C828.76,196.44 826.52,194.2 824.12,194.2 C821.72,194.2 819.48,196.44 819.48,199.32 C819.48,202.2 821.72,204.44 824.12,204.44 Z M848.6,199.32 C848.6,196.44 846.36,194.2 843.8,194.2 C841.24,194.2 839,196.44 839,199.32 C839,202.2 841.24,204.44 843.8,204.44 C846.36,204.44 848.6,202.2 848.6,199.32 Z M835.8,199.32 C835.8,195 839.48,191.32 843.8,191.32 C848.12,191.32 851.8,195 851.8,199.32 C851.8,203.64 848.12,207.32 843.8,207.32 C839.48,207.32 835.8,203.64 835.8,199.32 Z M858.04,184.6 L855.16,184.6 L855.16,191.32 L858.04,191.32 L858.04,184.6 Z M863.16,203.16 L859.96,210.04 L862.04,211.16 L866.04,204.76 L863.16,203.16 Z M862.04,193.4 C862.04,194.52 863,195.48 864.12,195.48 C865.24,195.48 866.2,194.52 866.2,193.4 C866.2,192.28 865.24,191.32 864.12,191.32 C863,191.32 862.04,192.28 862.04,193.4 Z M200.44,275.64 L197.24,275.64 L197.24,291 L200.44,291 L200.44,275.64 Z M200.76,270.84 C200.76,269.72 199.96,268.92 198.84,268.92 C197.72,268.92 196.92,269.72 196.92,270.84 C196.92,271.96 197.72,272.76 198.84,272.76 C199.96,272.76 200.76,271.96 200.76,270.84 Z M224.92,291 L228.12,291 L228.12,282.04 C228.12,277.56 225.88,275.32 222.36,275.32 C218.84,275.32 217.08,277.88 217.08,277.88 C217.08,277.88 215.8,275.32 212.44,275.32 C209.88,275.32 208.28,277.24 208.28,277.24 L208.28,275.64 L205.08,275.64 L205.08,291 L208.28,291 L208.28,282.68 C208.28,279.8 209.88,278.2 211.8,278.2 C213.72,278.2 215,279.48 215,282.04 L215,291 L218.2,291 L218.2,282.68 C218.2,279.8 219.8,278.2 221.72,278.2 C223.64,278.2 224.92,279.48 224.92,282.04 L224.92,291 Z M240.76,291.32 C237.72,291.32 235.8,289.24 235.8,289.24 L235.8,297.72 L232.6,297.72 L232.6,275.64 L235.8,275.64 L235.8,277.4 C235.8,277.4 237.72,275.32 240.76,275.32 C244.76,275.32 248.28,278.84 248.28,283.32 C248.28,287.8 244.76,291.32 240.76,291.32 Z M240.44,278.2 C238.04,278.2 235.8,280.44 235.8,283.32 C235.8,286.2 238.04,288.44 240.44,288.44 C242.84,288.44 245.08,286.2 245.08,283.32 C245.08,280.44 242.84,278.2 240.44,278.2 Z M263.64,283.32 C263.64,280.44 261.4,278.2 258.84,278.2 C256.28,278.2 254.04,280.44 254.04,283.32 C254.04,286.2 256.28,288.44 258.84,288.44 C261.4,288.44 263.64,286.2 263.64,283.32 Z M250.84,283.32 C250.84,279 254.52,275.32 258.84,275.32 C263.16,275.32 266.84,279 266.84,283.32 C266.84,287.64 263.16,291.32 258.84,291.32 C254.52,291.32 250.84,287.64 250.84,283.32 Z M279,278.36 L279,275.32 L278.2,275.32 C275.32,275.32 273.56,277.24 273.56,277.24 L273.56,275.64 L270.36,275.64 L270.36,291 L273.56,291 L273.56,282.68 C273.56,279.8 275.16,278.2 277.56,278.2 C278.36,278.2 279,278.36 279,278.36 Z M283.48,273.72 C283.48,275 282.84,275.64 281.88,275.64 L280.28,275.64 L280.28,278.52 L283.16,278.52 L283.16,286.52 C283.16,289.72 284.76,291.32 287.64,291.32 C288.92,291.32 289.88,291 289.88,291 L289.88,288.12 C289.88,288.12 289.08,288.44 288.28,288.44 C287.16,288.44 286.36,287.64 286.36,286.488 L286.36,278.52 L289.56,278.52 L289.56,275.64 L286.36,275.64 L286.36,270.52 L283.48,270.52 L283.48,273.72 Z M299.96,284.28 C301.24,284.28 301.88,284.92 301.88,286.2 L301.88,293.08 C301.88,295.96 303.64,297.72 306.84,297.72 L308.6,297.72 L308.6,295.16 L306.84,295.16 C305.56,295.16 304.76,294.36 304.76,293.08 L304.76,286.2 C304.76,283.32 303,283 303.032,283 C303,283 304.76,282.68 304.76,279.8 L304.76,272.92 C304.76,271.64 305.56,270.84 306.84,270.84 L308.6,270.84 L308.6,268.28 L306.84,268.28 C303.64,268.28 301.88,270.04 301.88,272.92 L301.88,279.8 C301.88,281.08 301.24,281.72 299.96,281.72 L299.96,284.28 Z M316.6,291 L325.88,268.6 L329.4,268.6 L338.68,291 L335,291 L332.6,285.08 L322.68,285.08 L320.28,291 L316.6,291 Z M327.64,272.6 L323.96,281.88 L331.32,281.88 L327.64,272.6 Z M340.44,283.32 C340.44,287.64 344.12,291.32 348.44,291.32 C352.44,291.32 354.84,288.12 354.84,288.12 L352.76,286.04 C352.76,286.04 351.16,288.44 348.44,288.44 C345.88,288.44 343.64,286.2 343.64,283.32 C343.64,280.44 345.88,278.2 348.44,278.2 C351.16,278.2 352.6,280.44 352.6,280.44 L354.68,278.36 C354.68,278.36 352.44,275.32 348.44,275.32 C344.12,275.32 340.44,279 340.44,283.32 Z M359.96,273.72 C359.96,275 359.32,275.64 358.36,275.64 L356.76,275.64 L356.76,278.52 L359.64,278.52 L359.64,286.52 C359.64,289.72 361.24,291.32 364.12,291.32 C365.4,291.32 366.36,291 366.36,291 L366.36,288.12 C366.36,288.12 365.56,288.44 364.76,288.44 C363.64,288.44 362.84,287.64 362.84,286.488 L362.84,278.52 L366.04,278.52 L366.04,275.64 L362.84,275.64 L362.84,270.52 L359.96,270.52 L359.96,273.72 Z M373.56,275.64 L370.36,275.64 L370.36,291 L373.56,291 L373.56,275.64 Z M373.88,270.84 C373.88,269.72 373.08,268.92 371.96,268.92 C370.84,268.92 370.04,269.72 370.04,270.84 C370.04,271.96 370.84,272.76 371.96,272.76 C373.08,272.76 373.88,271.96 373.88,270.84 Z M390.04,283.32 C390.04,280.44 387.8,278.2 385.24,278.2 C382.68,278.2 380.44,280.44 380.44,283.32 C380.44,286.2 382.68,288.44 385.24,288.44 C387.8,288.44 390.04,286.2 390.04,283.32 Z M377.24,283.32 C377.24,279 380.92,275.32 385.24,275.32 C389.56,275.32 393.24,279 393.24,283.32 C393.24,287.64 389.56,291.32 385.24,291.32 C380.92,291.32 377.24,287.64 377.24,283.32 Z M399.96,275.64 L396.76,275.64 L396.76,291 L399.96,291 L399.96,282.68 C399.96,279.8 401.56,278.2 403.96,278.2 C406.04,278.2 407.64,279.8 407.64,282.04 L407.64,291 L410.84,291 L410.84,282.04 C410.84,277.88 408.28,275.32 404.6,275.32 C401.72,275.32 399.96,277.24 399.96,277.24 L399.96,275.64 Z M429.24,281.72 C427.96,281.72 427.32,281.08 427.32,279.8 L427.32,272.92 C427.32,270.04 425.56,268.28 422.36,268.28 L420.6,268.28 L420.6,270.84 L422.36,270.84 C423.64,270.84 424.44,271.64 424.44,272.92 L424.44,279.8 C424.44,282.68 426.2,283 426.168,283 C426.2,283 424.44,283.32 424.44,286.2 L424.44,293.08 C424.44,294.36 423.64,295.16 422.36,295.16 L420.6,295.16 L420.6,297.72 L422.36,297.72 C425.56,297.72 427.32,295.96 427.32,293.08 L427.32,286.2 C427.32,284.92 427.96,284.28 429.24,284.28 L429.24,281.72 Z M447.32,275.64 L443.8,275.64 L443.8,273.112 C443.8,271.96 444.6,271.16 445.72,271.16 C446.52,271.16 447.32,271.48 447.32,271.48 L447.32,268.6 C447.32,268.6 446.36,268.28 445.08,268.28 C442.2,268.28 440.6,269.88 440.6,273.08 L440.6,275.64 L438.36,275.64 L438.36,278.52 L440.6,278.52 L440.6,291 L443.8,291 L443.8,278.52 L447.32,278.52 L447.32,275.64 Z M459.16,278.36 L459.16,275.32 L458.36,275.32 C455.48,275.32 453.72,277.24 453.72,277.24 L453.72,275.64 L450.52,275.64 L450.52,291 L453.72,291 L453.72,282.68 C453.72,279.8 455.32,278.2 457.72,278.2 C458.52,278.2 459.16,278.36 459.16,278.36 Z M473.56,283.32 C473.56,280.44 471.32,278.2 468.76,278.2 C466.2,278.2 463.96,280.44 463.96,283.32 C463.96,286.2 466.2,288.44 468.76,288.44 C471.32,288.44 473.56,286.2 473.56,283.32 Z M460.76,283.32 C460.76,279 464.44,275.32 468.76,275.32 C473.08,275.32 476.76,279 476.76,283.32 C476.76,287.64 473.08,291.32 468.76,291.32 C464.44,291.32 460.76,287.64 460.76,283.32 Z M500.12,291 L503.32,291 L503.32,282.04 C503.32,277.56 501.08,275.32 497.56,275.32 C494.04,275.32 492.28,277.88 492.28,277.88 C492.28,277.88 491,275.32 487.64,275.32 C485.08,275.32 483.48,277.24 483.48,277.24 L483.48,275.64 L480.28,275.64 L480.28,291 L483.48,291 L483.48,282.68 C483.48,279.8 485.08,278.2 487,278.2 C488.92,278.2 490.2,279.48 490.2,282.04 L490.2,291 L493.4,291 L493.4,282.68 C493.4,279.8 495,278.2 496.92,278.2 C498.84,278.2 500.12,279.48 500.12,282.04 L500.12,291 Z M516.92,268.6 L514.04,268.6 L514.04,275.32 L516.92,275.32 L516.92,268.6 Z M533.24,279.48 C531.32,279.48 529.72,281.08 529.72,283.16 C529.72,285.24 531.32,286.84 533.24,286.84 C535,286.84 536.44,285.4 536.44,283.16 C536.44,280.92 535,279.48 533.24,279.48 Z M532.92,277.24 C535.32,277.24 536.44,278.68 536.44,278.68 L536.44,277.4 L538.68,277.4 L538.68,284.92 C538.68,286.04 539.48,286.84 540.44,286.84 C541.88,286.84 543.16,285.56 543.16,282.36 C543.16,277.24 539,273.08 533.4,273.08 C528.12,273.08 523.64,277.56 523.64,283 C523.64,288.44 528.12,292.92 533.4,292.92 C537.08,292.92 539.16,290.84 539.16,290.84 L540.6,292.6 C540.6,292.6 538.04,295.16 533.4,295.16 C526.68,295.16 521.08,289.56 521.08,283 C521.08,276.44 526.68,270.84 533.4,270.84 C540.44,270.84 545.72,276.12 545.72,282.36 C545.72,286.84 543.48,289.08 540.44,289.08 C538.04,289.08 536.92,287.16 536.92,287.16 C536.92,287.16 535.8,289.08 532.92,289.08 C529.88,289.08 527.32,286.52 527.32,283.16 C527.32,279.8 529.88,277.24 532.92,277.24 Z M553.24,275.64 L550.04,275.64 L550.04,291 L553.24,291 L553.24,282.68 C553.24,279.8 554.84,278.2 557.24,278.2 C559.32,278.2 560.92,279.8 560.92,282.04 L560.92,291 L564.12,291 L564.12,282.04 C564.12,277.88 561.56,275.32 557.88,275.32 C555,275.32 553.24,277.24 553.24,277.24 L553.24,275.64 Z M579.48,290.072 L579.48,288.76 C579.48,288.76 577.72,290.68 574.84,290.68 C571,290.68 567.64,287.32 567.64,283 C567.64,278.68 571,275.32 574.84,275.32 C577.72,275.32 579.48,277.24 579.48,277.24 L579.48,275.64 L582.68,275.64 L582.68,290.04 C582.68,294.36 579.32,297.72 575,297.72 C570.36,297.72 568.12,294.52 568.12,294.52 L570.2,292.44 C570.2,292.44 571.96,294.84 575,294.84 C577.56,294.84 579.48,292.92 579.48,290.072 Z M570.84,283 C570.84,285.72 572.92,287.8 575.16,287.8 C577.4,287.8 579.48,285.72 579.48,283 C579.48,280.28 577.4,278.2 575.16,278.2 C572.92,278.2 570.84,280.28 570.84,283 Z M595.8,278.36 L595.8,275.32 L595,275.32 C592.12,275.32 590.36,277.24 590.36,277.24 L590.36,275.64 L587.16,275.64 L587.16,291 L590.36,291 L590.36,282.68 C590.36,279.8 591.96,278.2 594.36,278.2 C595.16,278.2 595.8,278.36 595.8,278.36 Z M606.04,283 L611.32,275.64 L607.64,275.64 L604.12,280.6 L600.6,275.64 L596.92,275.64 L602.2,283 L596.44,291 L600.12,291 L604.12,285.4 L608.12,291 L611.8,291 L606.04,283 Z M625.72,268.28 L622.84,268.28 L613.24,297.72 L616.12,297.72 L625.72,268.28 Z M638.52,277.4 C638.52,277.4 636.92,275.32 633.56,275.32 C630.36,275.32 628.12,277.56 628.12,279.8 C628.12,285.24 635.96,283.64 635.96,286.52 C635.96,287.64 635.16,288.44 633.4,288.44 C631,288.44 629.56,286.52 629.56,286.52 L627.48,288.6 C627.48,288.6 629.4,291.32 633.4,291.32 C636.92,291.32 639.16,289.08 639.16,286.52 C639.16,281.08 631.32,282.68 631.32,279.8 C631.32,279 632.12,278.2 633.56,278.2 C635.32,278.2 636.44,279.48 636.44,279.48 L638.52,277.4 Z M644.6,273.72 C644.6,275 643.96,275.64 643,275.64 L641.4,275.64 L641.4,278.52 L644.28,278.52 L644.28,286.52 C644.28,289.72 645.88,291.32 648.76,291.32 C650.04,291.32 651,291 651,291 L651,288.12 C651,288.12 650.2,288.44 649.4,288.44 C648.28,288.44 647.48,287.64 647.48,286.488 L647.48,278.52 L650.68,278.52 L650.68,275.64 L647.48,275.64 L647.48,270.52 L644.6,270.52 L644.6,273.72 Z M666.04,283.32 C666.04,280.44 663.8,278.2 661.24,278.2 C658.68,278.2 656.44,280.44 656.44,283.32 C656.44,286.2 658.68,288.44 661.24,288.44 C663.8,288.44 666.04,286.2 666.04,283.32 Z M653.24,283.32 C653.24,279 656.92,275.32 661.24,275.32 C665.56,275.32 669.24,279 669.24,283.32 C669.24,287.64 665.56,291.32 661.24,291.32 C656.92,291.32 653.24,287.64 653.24,283.32 Z M681.4,278.36 L681.4,275.32 L680.6,275.32 C677.72,275.32 675.96,277.24 675.96,277.24 L675.96,275.64 L672.76,275.64 L672.76,291 L675.96,291 L675.96,282.68 C675.96,279.8 677.56,278.2 679.96,278.2 C680.76,278.2 681.4,278.36 681.4,278.36 Z M698.2,284.44 L686.2,284.44 C686.52,286.52 688.44,288.44 691,288.44 C694.04,288.44 695.64,286.04 695.64,286.04 L697.72,288.12 C697.72,288.12 695.32,291.32 691,291.32 C686.68,291.32 683,287.64 683,283.16 C683,278.84 686.52,275.32 690.84,275.32 C695.16,275.32 698.36,278.52 698.36,282.84 C698.36,283.8 698.2,284.44 698.2,284.44 Z M690.84,278.04 C688.44,278.04 686.84,279.64 686.328,281.72 L695.224,281.72 C694.84,279.64 693.24,278.04 690.84,278.04 Z M704.6,268.6 L701.72,268.6 L701.72,275.32 L704.6,275.32 L704.6,268.6 Z M709.72,287.16 L706.52,294.04 L708.6,295.16 L712.6,288.76 L709.72,287.16 Z M708.6,277.4 C708.6,278.52 709.56,279.48 710.68,279.48 C711.8,279.48 712.76,278.52 712.76,277.4 C712.76,276.28 711.8,275.32 710.68,275.32 C709.56,275.32 708.6,276.28 708.6,277.4 Z M211.32,368.44 L199.32,368.44 C199.64,370.52 201.56,372.44 204.12,372.44 C207.16,372.44 208.76,370.04 208.76,370.04 L210.84,372.12 C210.84,372.12 208.44,375.32 204.12,375.32 C199.8,375.32 196.12,371.64 196.12,367.16 C196.12,362.84 199.64,359.32 203.96,359.32 C208.28,359.32 211.48,362.52 211.48,366.84 C211.48,367.8 211.32,368.44 211.32,368.44 Z M203.96,362.04 C201.56,362.04 199.96,363.64 199.448,365.72 L208.344,365.72 C207.96,363.64 206.36,362.04 203.96,362.04 Z M222.68,367 L227.96,359.64 L224.28,359.64 L220.76,364.6 L217.24,359.64 L213.56,359.64 L218.84,367 L213.08,375 L216.76,375 L220.76,369.4 L224.76,375 L228.44,375 L222.68,367 Z M239.16,375.32 C236.12,375.32 234.2,373.24 234.2,373.24 L234.2,381.72 L231,381.72 L231,359.64 L234.2,359.64 L234.2,361.4 C234.2,361.4 236.12,359.32 239.16,359.32 C243.16,359.32 246.68,362.84 246.68,367.32 C246.68,371.8 243.16,375.32 239.16,375.32 Z M238.84,362.2 C236.44,362.2 234.2,364.44 234.2,367.32 C234.2,370.2 236.44,372.44 238.84,372.44 C241.24,372.44 243.48,370.2 243.48,367.32 C243.48,364.44 241.24,362.2 238.84,362.2 Z M262.04,367.32 C262.04,364.44 259.8,362.2 257.24,362.2 C254.68,362.2 252.44,364.44 252.44,367.32 C252.44,370.2 254.68,372.44 257.24,372.44 C259.8,372.44 262.04,370.2 262.04,367.32 Z M249.24,367.32 C249.24,363 252.92,359.32 257.24,359.32 C261.56,359.32 265.24,363 265.24,367.32 C265.24,371.64 261.56,375.32 257.24,375.32 C252.92,375.32 249.24,371.64 249.24,367.32 Z M277.4,362.36 L277.4,359.32 L276.6,359.32 C273.72,359.32 271.96,361.24 271.96,361.24 L271.96,359.64 L268.76,359.64 L268.76,375 L271.96,375 L271.96,366.68 C271.96,363.8 273.56,362.2 275.96,362.2 C276.76,362.2 277.4,362.36 277.4,362.36 Z M281.88,357.72 C281.88,359 281.24,359.64 280.28,359.64 L278.68,359.64 L278.68,362.52 L281.56,362.52 L281.56,370.52 C281.56,373.72 283.16,375.32 286.04,375.32 C287.32,375.32 288.28,375 288.28,375 L288.28,372.12 C288.28,372.12 287.48,372.44 286.68,372.44 C285.56,372.44 284.76,371.64 284.76,370.488 L284.76,362.52 L287.96,362.52 L287.96,359.64 L284.76,359.64 L284.76,354.52 L281.88,354.52 L281.88,357.72 Z M297.56,367.32 C297.56,371.64 301.24,375.32 305.56,375.32 C309.56,375.32 311.96,372.12 311.96,372.12 L309.88,370.04 C309.88,370.04 308.28,372.44 305.56,372.44 C303,372.44 300.76,370.2 300.76,367.32 C300.76,364.44 303,362.2 305.56,362.2 C308.28,362.2 309.72,364.44 309.72,364.44 L311.8,362.36 C311.8,362.36 309.56,359.32 305.56,359.32 C301.24,359.32 297.56,363 297.56,367.32 Z M318.68,352.6 L315.48,352.6 L315.48,375 L318.68,375 L318.68,352.6 Z M335.8,375 L332.6,375 L332.6,373.4 C332.6,373.4 330.84,375.32 327.96,375.32 C324.76,375.32 322.52,373.08 322.52,370.84 C322.52,368.28 324.28,366.52 327,366.04 L332.6,365.08 C332.6,363.48 331.32,362.2 329.4,362.2 C326.68,362.2 325.4,364.28 325.4,364.28 L323.32,362.2 C323.32,362.2 325.4,359.32 329.4,359.32 C333.24,359.32 335.8,361.88 335.8,365.08 L335.8,375 Z M328.44,372.44 C331,372.44 332.6,370.84 332.6,367.96 L332.6,367.64 L327.64,368.44 C326.52,368.632 325.72,369.4 325.72,370.52 C325.72,371.48 326.68,372.44 328.44,372.44 Z M350.04,361.4 C350.04,361.4 348.44,359.32 345.08,359.32 C341.88,359.32 339.64,361.56 339.64,363.8 C339.64,369.24 347.48,367.64 347.48,370.52 C347.48,371.64 346.68,372.44 344.92,372.44 C342.52,372.44 341.08,370.52 341.08,370.52 L339,372.6 C339,372.6 340.92,375.32 344.92,375.32 C348.44,375.32 350.68,373.08 350.68,370.52 C350.68,365.08 342.84,366.68 342.84,363.8 C342.84,363 343.64,362.2 345.08,362.2 C346.84,362.2 347.96,363.48 347.96,363.48 L350.04,361.4 Z M363.96,361.4 C363.96,361.4 362.36,359.32 359,359.32 C355.8,359.32 353.56,361.56 353.56,363.8 C353.56,369.24 361.4,367.64 361.4,370.52 C361.4,371.64 360.6,372.44 358.84,372.44 C356.44,372.44 355,370.52 355,370.52 L352.92,372.6 C352.92,372.6 354.84,375.32 358.84,375.32 C362.36,375.32 364.6,373.08 364.6,370.52 C364.6,365.08 356.76,366.68 356.76,363.8 C356.76,363 357.56,362.2 359,362.2 C360.76,362.2 361.88,363.48 361.88,363.48 L363.96,361.4 Z M373.08,375 L382.36,352.6 L385.88,352.6 L395.16,375 L391.48,375 L389.08,369.08 L379.16,369.08 L376.76,375 L373.08,375 Z M384.12,356.6 L380.44,365.88 L387.8,365.88 L384.12,356.6 Z M404.44,359.32 C407.48,359.32 409.4,361.4 409.4,361.4 L409.4,352.6 L412.6,352.6 L412.6,375 L409.4,375 L409.4,373.24 C409.4,373.24 407.48,375.32 404.44,375.32 C400.44,375.32 396.92,371.8 396.92,367.32 C396.92,362.84 400.44,359.32 404.44,359.32 Z M404.76,372.44 C407.16,372.44 409.4,370.2 409.4,367.32 C409.4,364.44 407.16,362.2 404.76,362.2 C402.36,362.2 400.12,364.44 400.12,367.32 C400.12,370.2 402.36,372.44 404.76,372.44 Z M423.96,359.32 C427,359.32 428.92,361.4 428.92,361.4 L428.92,352.6 L432.12,352.6 L432.12,375 L428.92,375 L428.92,373.24 C428.92,373.24 427,375.32 423.96,375.32 C419.96,375.32 416.44,371.8 416.44,367.32 C416.44,362.84 419.96,359.32 423.96,359.32 Z M424.28,372.44 C426.68,372.44 428.92,370.2 428.92,367.32 C428.92,364.44 426.68,362.2 424.28,362.2 C421.88,362.2 419.64,364.44 419.64,367.32 C419.64,370.2 421.88,372.44 424.28,372.44 Z M435.48,352.6 L452.44,352.6 L452.44,355.8 L445.72,355.8 L445.72,375 L442.2,375 L442.2,355.8 L435.48,355.8 L435.48,352.6 Z M465.08,367.32 C465.08,364.44 462.84,362.2 460.28,362.2 C457.72,362.2 455.48,364.44 455.48,367.32 C455.48,370.2 457.72,372.44 460.28,372.44 C462.84,372.44 465.08,370.2 465.08,367.32 Z M452.28,367.32 C452.28,363 455.96,359.32 460.28,359.32 C464.6,359.32 468.28,363 468.28,367.32 C468.28,371.64 464.6,375.32 460.28,375.32 C455.96,375.32 452.28,371.64 452.28,367.32 Z M478.36,359.32 C481.4,359.32 483.32,361.4 483.32,361.4 L483.32,352.6 L486.52,352.6 L486.52,375 L483.32,375 L483.32,373.24 C483.32,373.24 481.4,375.32 478.36,375.32 C474.36,375.32 470.84,371.8 470.84,367.32 C470.84,362.84 474.36,359.32 478.36,359.32 Z M478.68,372.44 C481.08,372.44 483.32,370.2 483.32,367.32 C483.32,364.44 481.08,362.2 478.68,362.2 C476.28,362.2 474.04,364.44 474.04,367.32 C474.04,370.2 476.28,372.44 478.68,372.44 Z M503.16,367.32 C503.16,364.44 500.92,362.2 498.36,362.2 C495.8,362.2 493.56,364.44 493.56,367.32 C493.56,370.2 495.8,372.44 498.36,372.44 C500.92,372.44 503.16,370.2 503.16,367.32 Z M490.36,367.32 C490.36,363 494.04,359.32 498.36,359.32 C502.68,359.32 506.36,363 506.36,367.32 C506.36,371.64 502.68,375.32 498.36,375.32 C494.04,375.32 490.36,371.64 490.36,367.32 Z M519.64,359.64 L516.44,359.64 L516.44,375 L519.64,375 L519.64,359.64 Z M519.96,354.84 C519.96,353.72 519.16,352.92 518.04,352.92 C516.92,352.92 516.12,353.72 516.12,354.84 C516.12,355.96 516.92,356.76 518.04,356.76 C519.16,356.76 519.96,355.96 519.96,354.84 Z M544.12,375 L547.32,375 L547.32,366.04 C547.32,361.56 545.08,359.32 541.56,359.32 C538.04,359.32 536.28,361.88 536.28,361.88 C536.28,361.88 535,359.32 531.64,359.32 C529.08,359.32 527.48,361.24 527.48,361.24 L527.48,359.64 L524.28,359.64 L524.28,375 L527.48,375 L527.48,366.68 C527.48,363.8 529.08,362.2 531,362.2 C532.92,362.2 534.2,363.48 534.2,366.04 L534.2,375 L537.4,375 L537.4,366.68 C537.4,363.8 539,362.2 540.92,362.2 C542.84,362.2 544.12,363.48 544.12,366.04 L544.12,375 Z M559.96,375.32 C556.92,375.32 555,373.24 555,373.24 L555,381.72 L551.8,381.72 L551.8,359.64 L555,359.64 L555,361.4 C555,361.4 556.92,359.32 559.96,359.32 C563.96,359.32 567.48,362.84 567.48,367.32 C567.48,371.8 563.96,375.32 559.96,375.32 Z M559.64,362.2 C557.24,362.2 555,364.44 555,367.32 C555,370.2 557.24,372.44 559.64,372.44 C562.04,372.44 564.28,370.2 564.28,367.32 C564.28,364.44 562.04,362.2 559.64,362.2 Z M574.52,352.6 L571.32,352.6 L571.32,375 L574.52,375 L574.52,352.6 Z M593.56,368.44 L581.56,368.44 C581.88,370.52 583.8,372.44 586.36,372.44 C589.4,372.44 591,370.04 591,370.04 L593.08,372.12 C593.08,372.12 590.68,375.32 586.36,375.32 C582.04,375.32 578.36,371.64 578.36,367.16 C578.36,362.84 581.88,359.32 586.2,359.32 C590.52,359.32 593.72,362.52 593.72,366.84 C593.72,367.8 593.56,368.44 593.56,368.44 Z M586.2,362.04 C583.8,362.04 582.2,363.64 581.688,365.72 L590.584,365.72 C590.2,363.64 588.6,362.04 586.2,362.04 Z M617.08,375 L620.28,375 L620.28,366.04 C620.28,361.56 618.04,359.32 614.52,359.32 C611,359.32 609.24,361.88 609.24,361.88 C609.24,361.88 607.96,359.32 604.6,359.32 C602.04,359.32 600.44,361.24 600.44,361.24 L600.44,359.64 L597.24,359.64 L597.24,375 L600.44,375 L600.44,366.68 C600.44,363.8 602.04,362.2 603.96,362.2 C605.88,362.2 607.16,363.48 607.16,366.04 L607.16,375 L610.36,375 L610.36,366.68 C610.36,363.8 611.96,362.2 613.88,362.2 C615.8,362.2 617.08,363.48 617.08,366.04 L617.08,375 Z M639,368.44 L627,368.44 C627.32,370.52 629.24,372.44 631.8,372.44 C634.84,372.44 636.44,370.04 636.44,370.04 L638.52,372.12 C638.52,372.12 636.12,375.32 631.8,375.32 C627.48,375.32 623.8,371.64 623.8,367.16 C623.8,362.84 627.32,359.32 631.64,359.32 C635.96,359.32 639.16,362.52 639.16,366.84 C639.16,367.8 639,368.44 639,368.44 Z M631.64,362.04 C629.24,362.04 627.64,363.64 627.128,365.72 L636.024,365.72 C635.64,363.64 634.04,362.04 631.64,362.04 Z M645.88,359.64 L642.68,359.64 L642.68,375 L645.88,375 L645.88,366.68 C645.88,363.8 647.48,362.2 649.88,362.2 C651.96,362.2 653.56,363.8 653.56,366.04 L653.56,375 L656.76,375 L656.76,366.04 C656.76,361.88 654.2,359.32 650.52,359.32 C647.64,359.32 645.88,361.24 645.88,361.24 L645.88,359.64 Z M663.16,357.72 C663.16,359 662.52,359.64 661.56,359.64 L659.96,359.64 L659.96,362.52 L662.84,362.52 L662.84,370.52 C662.84,373.72 664.44,375.32 667.32,375.32 C668.6,375.32 669.56,375 669.56,375 L669.56,372.12 C669.56,372.12 668.76,372.44 667.96,372.44 C666.84,372.44 666.04,371.64 666.04,370.488 L666.04,362.52 L669.24,362.52 L669.24,359.64 L666.04,359.64 L666.04,354.52 L663.16,354.52 L663.16,357.72 Z M682.52,361.4 C682.52,361.4 680.92,359.32 677.56,359.32 C674.36,359.32 672.12,361.56 672.12,363.8 C672.12,369.24 679.96,367.64 679.96,370.52 C679.96,371.64 679.16,372.44 677.4,372.44 C675,372.44 673.56,370.52 673.56,370.52 L671.48,372.6 C671.48,372.6 673.4,375.32 677.4,375.32 C680.92,375.32 683.16,373.08 683.16,370.52 C683.16,365.08 675.32,366.68 675.32,363.8 C675.32,363 676.12,362.2 677.56,362.2 C679.32,362.2 680.44,363.48 680.44,363.48 L682.52,361.4 Z M691.64,375 L700.92,352.6 L704.44,352.6 L713.72,375 L710.04,375 L707.64,369.08 L697.72,369.08 L695.32,375 L691.64,375 Z M702.68,356.6 L699,365.88 L706.36,365.88 L702.68,356.6 Z M715.48,367.32 C715.48,371.64 719.16,375.32 723.48,375.32 C727.48,375.32 729.88,372.12 729.88,372.12 L727.8,370.04 C727.8,370.04 726.2,372.44 723.48,372.44 C720.92,372.44 718.68,370.2 718.68,367.32 C718.68,364.44 720.92,362.2 723.48,362.2 C726.2,362.2 727.64,364.44 727.64,364.44 L729.72,362.36 C729.72,362.36 727.48,359.32 723.48,359.32 C719.16,359.32 715.48,363 715.48,367.32 Z M735,357.72 C735,359 734.36,359.64 733.4,359.64 L731.8,359.64 L731.8,362.52 L734.68,362.52 L734.68,370.52 C734.68,373.72 736.28,375.32 739.16,375.32 C740.44,375.32 741.4,375 741.4,375 L741.4,372.12 C741.4,372.12 740.6,372.44 739.8,372.44 C738.68,372.44 737.88,371.64 737.88,370.488 L737.88,362.52 L741.08,362.52 L741.08,359.64 L737.88,359.64 L737.88,354.52 L735,354.52 L735,357.72 Z M748.6,359.64 L745.4,359.64 L745.4,375 L748.6,375 L748.6,359.64 Z M748.92,354.84 C748.92,353.72 748.12,352.92 747,352.92 C745.88,352.92 745.08,353.72 745.08,354.84 C745.08,355.96 745.88,356.76 747,356.76 C748.12,356.76 748.92,355.96 748.92,354.84 Z M765.08,367.32 C765.08,364.44 762.84,362.2 760.28,362.2 C757.72,362.2 755.48,364.44 755.48,367.32 C755.48,370.2 757.72,372.44 760.28,372.44 C762.84,372.44 765.08,370.2 765.08,367.32 Z M752.28,367.32 C752.28,363 755.96,359.32 760.28,359.32 C764.6,359.32 768.28,363 768.28,367.32 C768.28,371.64 764.6,375.32 760.28,375.32 C755.96,375.32 752.28,371.64 752.28,367.32 Z M775,359.64 L771.8,359.64 L771.8,375 L775,375 L775,366.68 C775,363.8 776.6,362.2 779,362.2 C781.08,362.2 782.68,363.8 782.68,366.04 L782.68,375 L785.88,375 L785.88,366.04 C785.88,361.88 783.32,359.32 779.64,359.32 C776.76,359.32 775,361.24 775,361.24 L775,359.64 Z M796.6,368.28 C797.88,368.28 798.52,368.92 798.52,370.2 L798.52,377.08 C798.52,379.96 800.28,381.72 803.48,381.72 L805.24,381.72 L805.24,379.16 L803.48,379.16 C802.2,379.16 801.4,378.36 801.4,377.08 L801.4,370.2 C801.4,367.32 799.64,367 799.672,367 C799.64,367 801.4,366.68 801.4,363.8 L801.4,356.92 C801.4,355.64 802.2,354.84 803.48,354.84 L805.24,354.84 L805.24,352.28 L803.48,352.28 C800.28,352.28 798.52,354.04 798.52,356.92 L798.52,363.8 C798.52,365.08 797.88,365.72 796.6,365.72 L796.6,368.28 Z M218.52,404.36 L218.52,401.32 L217.72,401.32 C214.84,401.32 213.08,403.24 213.08,403.24 L213.08,401.64 L209.88,401.64 L209.88,417 L213.08,417 L213.08,408.68 C213.08,405.8 214.68,404.2 217.08,404.2 C217.88,404.2 218.52,404.36 218.52,404.36 Z M235.32,410.44 L223.32,410.44 C223.64,412.52 225.56,414.44 228.12,414.44 C231.16,414.44 232.76,412.04 232.76,412.04 L234.84,414.12 C234.84,414.12 232.44,417.32 228.12,417.32 C223.8,417.32 220.12,413.64 220.12,409.16 C220.12,404.84 223.64,401.32 227.96,401.32 C232.28,401.32 235.48,404.52 235.48,408.84 C235.48,409.8 235.32,410.44 235.32,410.44 Z M227.96,404.04 C225.56,404.04 223.96,405.64 223.448,407.72 L232.344,407.72 C231.96,405.64 230.36,404.04 227.96,404.04 Z M251.32,417 L248.12,417 L248.12,415.4 C248.12,415.4 246.36,417.32 243.48,417.32 C240.28,417.32 238.04,415.08 238.04,412.84 C238.04,410.28 239.8,408.52 242.52,408.04 L248.12,407.08 C248.12,405.48 246.84,404.2 244.92,404.2 C242.2,404.2 240.92,406.28 240.92,406.28 L238.84,404.2 C238.84,404.2 240.92,401.32 244.92,401.32 C248.76,401.32 251.32,403.88 251.32,407.08 L251.32,417 Z M243.96,414.44 C246.52,414.44 248.12,412.84 248.12,409.96 L248.12,409.64 L243.16,410.44 C242.04,410.632 241.24,411.4 241.24,412.52 C241.24,413.48 242.2,414.44 243.96,414.44 Z M262.36,401.32 C265.4,401.32 267.32,403.4 267.32,403.4 L267.32,394.6 L270.52,394.6 L270.52,417 L267.32,417 L267.32,415.24 C267.32,415.24 265.4,417.32 262.36,417.32 C258.36,417.32 254.84,413.8 254.84,409.32 C254.84,404.84 258.36,401.32 262.36,401.32 Z M262.68,414.44 C265.08,414.44 267.32,412.2 267.32,409.32 C267.32,406.44 265.08,404.2 262.68,404.2 C260.28,404.2 258.04,406.44 258.04,409.32 C258.04,412.2 260.28,414.44 262.68,414.44 Z M287.16,409.32 C287.16,406.44 284.92,404.2 282.36,404.2 C279.8,404.2 277.56,406.44 277.56,409.32 C277.56,412.2 279.8,414.44 282.36,414.44 C284.92,414.44 287.16,412.2 287.16,409.32 Z M274.36,409.32 C274.36,405 278.04,401.32 282.36,401.32 C286.68,401.32 290.36,405 290.36,409.32 C290.36,413.64 286.68,417.32 282.36,417.32 C278.04,417.32 274.36,413.64 274.36,409.32 Z M297.08,401.64 L293.88,401.64 L293.88,417 L297.08,417 L297.08,408.68 C297.08,405.8 298.68,404.2 301.08,404.2 C303.16,404.2 304.76,405.8 304.76,408.04 L304.76,417 L307.96,417 L307.96,408.04 C307.96,403.88 305.4,401.32 301.72,401.32 C298.84,401.32 297.08,403.24 297.08,403.24 L297.08,401.64 Z M315.96,394.6 L312.76,394.6 L312.76,417 L315.96,417 L315.96,394.6 Z M324.44,418.6 C323.864,420.04 323,420.84 321.72,420.84 C320.92,420.84 320.12,420.52 320.12,420.52 L320.12,423.4 C320.12,423.4 320.92,423.72 322.36,423.72 C324.696,423.72 326.072,422.44 327.64,418.6 L334.52,401.64 L331.16,401.64 L326.68,412.84 L322.2,401.64 L318.84,401.64 L325.08,417 L324.44,418.6 Z M345.4,399.72 C345.4,401 344.76,401.64 343.8,401.64 L342.2,401.64 L342.2,404.52 L345.08,404.52 L345.08,412.52 C345.08,415.72 346.68,417.32 349.56,417.32 C350.84,417.32 351.8,417 351.8,417 L351.8,414.12 C351.8,414.12 351,414.44 350.2,414.44 C349.08,414.44 348.28,413.64 348.28,412.488 L348.28,404.52 L351.48,404.52 L351.48,401.64 L348.28,401.64 L348.28,396.52 L345.4,396.52 L345.4,399.72 Z M359.32,418.6 C358.744,420.04 357.88,420.84 356.6,420.84 C355.8,420.84 355,420.52 355,420.52 L355,423.4 C355,423.4 355.8,423.72 357.24,423.72 C359.576,423.72 360.952,422.44 362.52,418.6 L369.4,401.64 L366.04,401.64 L361.56,412.84 L357.08,401.64 L353.72,401.64 L359.96,417 L359.32,418.6 Z M380.12,417.32 C377.08,417.32 375.16,415.24 375.16,415.24 L375.16,423.72 L371.96,423.72 L371.96,401.64 L375.16,401.64 L375.16,403.4 C375.16,403.4 377.08,401.32 380.12,401.32 C384.12,401.32 387.64,404.84 387.64,409.32 C387.64,413.8 384.12,417.32 380.12,417.32 Z M379.8,404.2 C377.4,404.2 375.16,406.44 375.16,409.32 C375.16,412.2 377.4,414.44 379.8,414.44 C382.2,414.44 384.44,412.2 384.44,409.32 C384.44,406.44 382.2,404.2 379.8,404.2 Z M405.4,410.44 L393.4,410.44 C393.72,412.52 395.64,414.44 398.2,414.44 C401.24,414.44 402.84,412.04 402.84,412.04 L404.92,414.12 C404.92,414.12 402.52,417.32 398.2,417.32 C393.88,417.32 390.2,413.64 390.2,409.16 C390.2,404.84 393.72,401.32 398.04,401.32 C402.36,401.32 405.56,404.52 405.56,408.84 C405.56,409.8 405.4,410.44 405.4,410.44 Z M398.04,404.04 C395.64,404.04 394.04,405.64 393.528,407.72 L402.424,407.72 C402.04,405.64 400.44,404.04 398.04,404.04 Z M427.8,409 L414.68,409 L414.68,411.88 L427.8,411.88 L427.8,409 Z M427.8,403.24 L414.68,403.24 L414.68,406.12 L427.8,406.12 L427.8,403.24 Z M436.12,417 L445.4,394.6 L448.92,394.6 L458.2,417 L454.52,417 L452.12,411.08 L442.2,411.08 L439.8,417 L436.12,417 Z M447.16,398.6 L443.48,407.88 L450.84,407.88 L447.16,398.6 Z M462.04,394.6 L469.88,394.6 C476.12,394.6 481.24,399.72 481.24,405.8 C481.24,411.88 476.12,417 469.88,417 L462.04,417 L462.04,394.6 Z M469.88,397.8 L465.56,397.8 L465.56,413.8 L469.88,413.8 C474.2,413.8 477.72,410.28 477.72,405.8 C477.72,401.32 474.2,397.8 469.88,397.8 Z M486.36,394.6 L494.2,394.6 C500.44,394.6 505.56,399.72 505.56,405.8 C505.56,411.88 500.44,417 494.2,417 L486.36,417 L486.36,394.6 Z M494.2,397.8 L489.88,397.8 L489.88,413.8 L494.2,413.8 C498.52,413.8 502.04,410.28 502.04,405.8 C502.04,401.32 498.52,397.8 494.2,397.8 Z M518.68,419.88 L507.16,419.88 L507.16,422.76 L518.68,422.76 L518.68,419.88 Z M519,394.6 L519,397.8 L525.72,397.8 L525.72,417 L529.24,417 L529.24,397.8 L535.96,397.8 L535.96,394.6 L519,394.6 Z M540.76,405.8 C540.76,410.44 544.44,414.12 549.08,414.12 C553.72,414.12 557.4,410.44 557.4,405.8 C557.4,401.16 553.72,397.48 549.08,397.48 C544.44,397.48 540.76,401.16 540.76,405.8 Z M537.24,405.8 C537.24,399.4 542.36,394.28 549.08,394.28 C555.8,394.28 560.92,399.4 560.92,405.8 C560.92,412.2 555.8,417.32 549.08,417.32 C542.36,417.32 537.24,412.2 537.24,405.8 Z M566.04,394.6 L573.88,394.6 C580.12,394.6 585.24,399.72 585.24,405.8 C585.24,411.88 580.12,417 573.88,417 L566.04,417 L566.04,394.6 Z M573.88,397.8 L569.56,397.8 L569.56,413.8 L573.88,413.8 C578.2,413.8 581.72,410.28 581.72,405.8 C581.72,401.32 578.2,397.8 573.88,397.8 Z M592.6,405.8 C592.6,410.44 596.28,414.12 600.92,414.12 C605.56,414.12 609.24,410.44 609.24,405.8 C609.24,401.16 605.56,397.48 600.92,397.48 C596.28,397.48 592.6,401.16 592.6,405.8 Z M589.08,405.8 C589.08,399.4 594.2,394.28 600.92,394.28 C607.64,394.28 612.76,399.4 612.76,405.8 C612.76,412.2 607.64,417.32 600.92,417.32 C594.2,417.32 589.08,412.2 589.08,405.8 Z M617.88,413.16 L614.68,420.04 L616.76,421.16 L620.76,414.76 L617.88,413.16 Z M616.76,403.4 C616.76,404.52 617.72,405.48 618.84,405.48 C619.96,405.48 620.92,404.52 620.92,403.4 C620.92,402.28 619.96,401.32 618.84,401.32 C617.72,401.32 616.76,402.28 616.76,403.4 Z M208.92,451.32 C208.92,455.64 212.6,459.32 216.92,459.32 C220.92,459.32 223.32,456.12 223.32,456.12 L221.24,454.04 C221.24,454.04 219.64,456.44 216.92,456.44 C214.36,456.44 212.12,454.2 212.12,451.32 C212.12,448.44 214.36,446.2 216.92,446.2 C219.64,446.2 221.08,448.44 221.08,448.44 L223.16,446.36 C223.16,446.36 220.92,443.32 216.92,443.32 C212.6,443.32 208.92,447 208.92,451.32 Z M238.36,451.32 C238.36,448.44 236.12,446.2 233.56,446.2 C231,446.2 228.76,448.44 228.76,451.32 C228.76,454.2 231,456.44 233.56,456.44 C236.12,456.44 238.36,454.2 238.36,451.32 Z M225.56,451.32 C225.56,447 229.24,443.32 233.56,443.32 C237.88,443.32 241.56,447 241.56,451.32 C241.56,455.64 237.88,459.32 233.56,459.32 C229.24,459.32 225.56,455.64 225.56,451.32 Z M248.28,443.64 L245.08,443.64 L245.08,459 L248.28,459 L248.28,450.68 C248.28,447.8 249.88,446.2 252.28,446.2 C254.36,446.2 255.96,447.8 255.96,450.04 L255.96,459 L259.16,459 L259.16,450.04 C259.16,445.88 256.6,443.32 252.92,443.32 C250.04,443.32 248.28,445.24 248.28,445.24 L248.28,443.64 Z M273.4,445.4 C273.4,445.4 271.8,443.32 268.44,443.32 C265.24,443.32 263,445.56 263,447.8 C263,453.24 270.84,451.64 270.84,454.52 C270.84,455.64 270.04,456.44 268.28,456.44 C265.88,456.44 264.44,454.52 264.44,454.52 L262.36,456.6 C262.36,456.6 264.28,459.32 268.28,459.32 C271.8,459.32 274.04,457.08 274.04,454.52 C274.04,449.08 266.2,450.68 266.2,447.8 C266.2,447 267,446.2 268.44,446.2 C270.2,446.2 271.32,447.48 271.32,447.48 L273.4,445.4 Z M279.48,441.72 C279.48,443 278.84,443.64 277.88,443.64 L276.28,443.64 L276.28,446.52 L279.16,446.52 L279.16,454.52 C279.16,457.72 280.76,459.32 283.64,459.32 C284.92,459.32 285.88,459 285.88,459 L285.88,456.12 C285.88,456.12 285.08,456.44 284.28,456.44 C283.16,456.44 282.36,455.64 282.36,454.488 L282.36,446.52 L285.56,446.52 L285.56,443.64 L282.36,443.64 L282.36,438.52 L279.48,438.52 L279.48,441.72 Z M298.36,446.36 L298.36,443.32 L297.56,443.32 C294.68,443.32 292.92,445.24 292.92,445.24 L292.92,443.64 L289.72,443.64 L289.72,459 L292.92,459 L292.92,450.68 C292.92,447.8 294.52,446.2 296.92,446.2 C297.72,446.2 298.36,446.36 298.36,446.36 Z M311.8,459 L315,459 L315,443.64 L311.8,443.64 L311.8,451.96 C311.8,454.84 310.2,456.44 307.8,456.44 C305.72,456.44 304.12,454.84 304.12,452.6 L304.12,443.64 L300.92,443.64 L300.92,452.6 C300.92,456.76 303.48,459.32 307.16,459.32 C310.04,459.32 311.8,457.4 311.8,457.4 L311.8,459 Z M318.68,451.32 C318.68,455.64 322.36,459.32 326.68,459.32 C330.68,459.32 333.08,456.12 333.08,456.12 L331,454.04 C331,454.04 329.4,456.44 326.68,456.44 C324.12,456.44 321.88,454.2 321.88,451.32 C321.88,448.44 324.12,446.2 326.68,446.2 C329.4,446.2 330.84,448.44 330.84,448.44 L332.92,446.36 C332.92,446.36 330.68,443.32 326.68,443.32 C322.36,443.32 318.68,447 318.68,451.32 Z M338.2,441.72 C338.2,443 337.56,443.64 336.6,443.64 L335,443.64 L335,446.52 L337.88,446.52 L337.88,454.52 C337.88,457.72 339.48,459.32 342.36,459.32 C343.64,459.32 344.6,459 344.6,459 L344.6,456.12 C344.6,456.12 343.8,456.44 343,456.44 C341.88,456.44 341.08,455.64 341.08,454.488 L341.08,446.52 L344.28,446.52 L344.28,443.64 L341.08,443.64 L341.08,438.52 L338.2,438.52 L338.2,441.72 Z M359.64,451.32 C359.64,448.44 357.4,446.2 354.84,446.2 C352.28,446.2 350.04,448.44 350.04,451.32 C350.04,454.2 352.28,456.44 354.84,456.44 C357.4,456.44 359.64,454.2 359.64,451.32 Z M346.84,451.32 C346.84,447 350.52,443.32 354.84,443.32 C359.16,443.32 362.84,447 362.84,451.32 C362.84,455.64 359.16,459.32 354.84,459.32 C350.52,459.32 346.84,455.64 346.84,451.32 Z M375,446.36 L375,443.32 L374.2,443.32 C371.32,443.32 369.56,445.24 369.56,445.24 L369.56,443.64 L366.36,443.64 L366.36,459 L369.56,459 L369.56,450.68 C369.56,447.8 371.16,446.2 373.56,446.2 C374.36,446.2 375,446.36 375,446.36 Z M380.92,451 C380.92,443 385.4,437.24 385.4,437.24 L383,435.8 C383,435.8 378.04,441.72 378.04,451 C378.04,460.28 383,466.2 383,466.2 L385.4,464.76 C385.4,464.76 380.92,459 380.92,451 Z M396.6,459.32 C393.56,459.32 391.64,457.24 391.64,457.24 L391.64,465.72 L388.44,465.72 L388.44,443.64 L391.64,443.64 L391.64,445.4 C391.64,445.4 393.56,443.32 396.6,443.32 C400.6,443.32 404.12,446.84 404.12,451.32 C404.12,455.8 400.6,459.32 396.6,459.32 Z M396.28,446.2 C393.88,446.2 391.64,448.44 391.64,451.32 C391.64,454.2 393.88,456.44 396.28,456.44 C398.68,456.44 400.92,454.2 400.92,451.32 C400.92,448.44 398.68,446.2 396.28,446.2 Z M418.52,459 L421.72,459 L421.72,443.64 L418.52,443.64 L418.52,451.96 C418.52,454.84 416.92,456.44 414.52,456.44 C412.44,456.44 410.84,454.84 410.84,452.6 L410.84,443.64 L407.64,443.64 L407.64,452.6 C407.64,456.76 410.2,459.32 413.88,459.32 C416.76,459.32 418.52,457.4 418.52,457.4 L418.52,459 Z M434.84,443.32 C438.84,443.32 442.36,446.84 442.36,451.32 C442.36,455.8 438.84,459.32 434.84,459.32 C431.8,459.32 429.88,457.24 429.88,457.24 L429.88,459 L426.68,459 L426.68,436.6 L429.88,436.6 L429.88,445.4 C429.88,445.4 431.8,443.32 434.84,443.32 Z M434.52,456.44 C436.92,456.44 439.16,454.2 439.16,451.32 C439.16,448.44 436.92,446.2 434.52,446.2 C432.12,446.2 429.88,448.44 429.88,451.32 C429.88,454.2 432.12,456.44 434.52,456.44 Z M449.4,436.6 L446.2,436.6 L446.2,459 L449.4,459 L449.4,436.6 Z M457.56,443.64 L454.36,443.64 L454.36,459 L457.56,459 L457.56,443.64 Z M457.88,438.84 C457.88,437.72 457.08,436.92 455.96,436.92 C454.84,436.92 454.04,437.72 454.04,438.84 C454.04,439.96 454.84,440.76 455.96,440.76 C457.08,440.76 457.88,439.96 457.88,438.84 Z M461.24,451.32 C461.24,455.64 464.92,459.32 469.24,459.32 C473.24,459.32 475.64,456.12 475.64,456.12 L473.56,454.04 C473.56,454.04 471.96,456.44 469.24,456.44 C466.68,456.44 464.44,454.2 464.44,451.32 C464.44,448.44 466.68,446.2 469.24,446.2 C471.96,446.2 473.4,448.44 473.4,448.44 L475.48,446.36 C475.48,446.36 473.24,443.32 469.24,443.32 C464.92,443.32 461.24,447 461.24,451.32 Z M493.4,459.32 C490.36,459.32 488.44,457.24 488.44,457.24 L488.44,465.72 L485.24,465.72 L485.24,443.64 L488.44,443.64 L488.44,445.4 C488.44,445.4 490.36,443.32 493.4,443.32 C497.4,443.32 500.92,446.84 500.92,451.32 C500.92,455.8 497.4,459.32 493.4,459.32 Z M493.08,446.2 C490.68,446.2 488.44,448.44 488.44,451.32 C488.44,454.2 490.68,456.44 493.08,456.44 C495.48,456.44 497.72,454.2 497.72,451.32 C497.72,448.44 495.48,446.2 493.08,446.2 Z M516.76,459 L513.56,459 L513.56,457.4 C513.56,457.4 511.8,459.32 508.92,459.32 C505.72,459.32 503.48,457.08 503.48,454.84 C503.48,452.28 505.24,450.52 507.96,450.04 L513.56,449.08 C513.56,447.48 512.28,446.2 510.36,446.2 C507.64,446.2 506.36,448.28 506.36,448.28 L504.28,446.2 C504.28,446.2 506.36,443.32 510.36,443.32 C514.2,443.32 516.76,445.88 516.76,449.08 L516.76,459 Z M509.4,456.44 C511.96,456.44 513.56,454.84 513.56,451.96 L513.56,451.64 L508.6,452.44 C507.48,452.632 506.68,453.4 506.68,454.52 C506.68,455.48 507.64,456.44 509.4,456.44 Z M524.92,460.6 C524.344,462.04 523.48,462.84 522.2,462.84 C521.4,462.84 520.6,462.52 520.6,462.52 L520.6,465.4 C520.6,465.4 521.4,465.72 522.84,465.72 C525.176,465.72 526.552,464.44 528.12,460.6 L535,443.64 L531.64,443.64 L527.16,454.84 L522.68,443.64 L519.32,443.64 L525.56,459 L524.92,460.6 Z M541.08,436.6 L537.88,436.6 L537.88,459 L541.08,459 L541.08,436.6 Z M557.72,451.32 C557.72,448.44 555.48,446.2 552.92,446.2 C550.36,446.2 548.12,448.44 548.12,451.32 C548.12,454.2 550.36,456.44 552.92,456.44 C555.48,456.44 557.72,454.2 557.72,451.32 Z M544.92,451.32 C544.92,447 548.6,443.32 552.92,443.32 C557.24,443.32 560.92,447 560.92,451.32 C560.92,455.64 557.24,459.32 552.92,459.32 C548.6,459.32 544.92,455.64 544.92,451.32 Z M576.76,459 L573.56,459 L573.56,457.4 C573.56,457.4 571.8,459.32 568.92,459.32 C565.72,459.32 563.48,457.08 563.48,454.84 C563.48,452.28 565.24,450.52 567.96,450.04 L573.56,449.08 C573.56,447.48 572.28,446.2 570.36,446.2 C567.64,446.2 566.36,448.28 566.36,448.28 L564.28,446.2 C564.28,446.2 566.36,443.32 570.36,443.32 C574.2,443.32 576.76,445.88 576.76,449.08 L576.76,459 Z M569.4,456.44 C571.96,456.44 573.56,454.84 573.56,451.96 L573.56,451.64 L568.6,452.44 C567.48,452.632 566.68,453.4 566.68,454.52 C566.68,455.48 567.64,456.44 569.4,456.44 Z M587.8,443.32 C590.84,443.32 592.76,445.4 592.76,445.4 L592.76,436.6 L595.96,436.6 L595.96,459 L592.76,459 L592.76,457.24 C592.76,457.24 590.84,459.32 587.8,459.32 C583.8,459.32 580.28,455.8 580.28,451.32 C580.28,446.84 583.8,443.32 587.8,443.32 Z M588.12,456.44 C590.52,456.44 592.76,454.2 592.76,451.32 C592.76,448.44 590.52,446.2 588.12,446.2 C585.72,446.2 583.48,448.44 583.48,451.32 C583.48,454.2 585.72,456.44 588.12,456.44 Z M600.28,457.24 C600.28,458.36 601.24,459.32 602.36,459.32 C603.48,459.32 604.44,458.36 604.44,457.24 C604.44,456.12 603.48,455.16 602.36,455.16 C601.24,455.16 600.28,456.12 600.28,457.24 Z M600.28,445.4 C600.28,446.52 601.24,447.48 602.36,447.48 C603.48,447.48 604.44,446.52 604.44,445.4 C604.44,444.28 603.48,443.32 602.36,443.32 C601.24,443.32 600.28,444.28 600.28,445.4 Z M613.08,436.6 L630.04,436.6 L630.04,439.8 L623.32,439.8 L623.32,459 L619.8,459 L619.8,439.8 L613.08,439.8 L613.08,436.6 Z M642.68,451.32 C642.68,448.44 640.44,446.2 637.88,446.2 C635.32,446.2 633.08,448.44 633.08,451.32 C633.08,454.2 635.32,456.44 637.88,456.44 C640.44,456.44 642.68,454.2 642.68,451.32 Z M629.88,451.32 C629.88,447 633.56,443.32 637.88,443.32 C642.2,443.32 645.88,447 645.88,451.32 C645.88,455.64 642.2,459.32 637.88,459.32 C633.56,459.32 629.88,455.64 629.88,451.32 Z M655.96,443.32 C659,443.32 660.92,445.4 660.92,445.4 L660.92,436.6 L664.12,436.6 L664.12,459 L660.92,459 L660.92,457.24 C660.92,457.24 659,459.32 655.96,459.32 C651.96,459.32 648.44,455.8 648.44,451.32 C648.44,446.84 651.96,443.32 655.96,443.32 Z M656.28,456.44 C658.68,456.44 660.92,454.2 660.92,451.32 C660.92,448.44 658.68,446.2 656.28,446.2 C653.88,446.2 651.64,448.44 651.64,451.32 C651.64,454.2 653.88,456.44 656.28,456.44 Z M680.76,451.32 C680.76,448.44 678.52,446.2 675.96,446.2 C673.4,446.2 671.16,448.44 671.16,451.32 C671.16,454.2 673.4,456.44 675.96,456.44 C678.52,456.44 680.76,454.2 680.76,451.32 Z M667.96,451.32 C667.96,447 671.64,443.32 675.96,443.32 C680.28,443.32 683.96,447 683.96,451.32 C683.96,455.64 680.28,459.32 675.96,459.32 C671.64,459.32 667.96,455.64 667.96,451.32 Z M690.84,451 C690.84,459 686.36,464.76 686.36,464.76 L688.76,466.2 C688.76,466.2 693.72,460.28 693.72,451 C693.72,441.72 688.76,435.8 688.76,435.8 L686.36,437.24 C686.36,437.24 690.84,443 690.84,451 Z M704.6,452.28 C705.88,452.28 706.52,452.92 706.52,454.2 L706.52,461.08 C706.52,463.96 708.28,465.72 711.48,465.72 L713.24,465.72 L713.24,463.16 L711.48,463.16 C710.2,463.16 709.4,462.36 709.4,461.08 L709.4,454.2 C709.4,451.32 707.64,451 707.672,451 C707.64,451 709.4,450.68 709.4,447.8 L709.4,440.92 C709.4,439.64 710.2,438.84 711.48,438.84 L713.24,438.84 L713.24,436.28 L711.48,436.28 C708.28,436.28 706.52,438.04 706.52,440.92 L706.52,447.8 C706.52,449.08 705.88,449.72 704.6,449.72 L704.6,452.28 Z M723.8,449.72 C722.52,449.72 721.88,449.08 721.88,447.8 L721.88,440.92 C721.88,438.04 720.12,436.28 716.92,436.28 L715.16,436.28 L715.16,438.84 L716.92,438.84 C718.2,438.84 719,439.64 719,440.92 L719,447.8 C719,450.68 720.76,451 720.728,451 C720.76,451 719,451.32 719,454.2 L719,461.08 C719,462.36 718.2,463.16 716.92,463.16 L715.16,463.16 L715.16,465.72 L716.92,465.72 C720.12,465.72 721.88,463.96 721.88,461.08 L721.88,454.2 C721.88,452.92 722.52,452.28 723.8,452.28 L723.8,449.72 Z M204.6,491.72 C203.32,491.72 202.68,491.08 202.68,489.8 L202.68,482.92 C202.68,480.04 200.92,478.28 197.72,478.28 L195.96,478.28 L195.96,480.84 L197.72,480.84 C199,480.84 199.8,481.64 199.8,482.92 L199.8,489.8 C199.8,492.68 201.56,493 201.528,493 C201.56,493 199.8,493.32 199.8,496.2 L199.8,503.08 C199.8,504.36 199,505.16 197.72,505.16 L195.96,505.16 L195.96,507.72 L197.72,507.72 C200.92,507.72 202.68,505.96 202.68,503.08 L202.68,496.2 C202.68,494.92 203.32,494.28 204.6,494.28 L204.6,491.72 Z M211.32,578.44 L199.32,578.44 C199.64,580.52 201.56,582.44 204.12,582.44 C207.16,582.44 208.76,580.04 208.76,580.04 L210.84,582.12 C210.84,582.12 208.44,585.32 204.12,585.32 C199.8,585.32 196.12,581.64 196.12,577.16 C196.12,572.84 199.64,569.32 203.96,569.32 C208.28,569.32 211.48,572.52 211.48,576.84 C211.48,577.8 211.32,578.44 211.32,578.44 Z M203.96,572.04 C201.56,572.04 199.96,573.64 199.448,575.72 L208.344,575.72 C207.96,573.64 206.36,572.04 203.96,572.04 Z M222.68,577 L227.96,569.64 L224.28,569.64 L220.76,574.6 L217.24,569.64 L213.56,569.64 L218.84,577 L213.08,585 L216.76,585 L220.76,579.4 L224.76,585 L228.44,585 L222.68,577 Z M239.16,585.32 C236.12,585.32 234.2,583.24 234.2,583.24 L234.2,591.72 L231,591.72 L231,569.64 L234.2,569.64 L234.2,571.4 C234.2,571.4 236.12,569.32 239.16,569.32 C243.16,569.32 246.68,572.84 246.68,577.32 C246.68,581.8 243.16,585.32 239.16,585.32 Z M238.84,572.2 C236.44,572.2 234.2,574.44 234.2,577.32 C234.2,580.2 236.44,582.44 238.84,582.44 C241.24,582.44 243.48,580.2 243.48,577.32 C243.48,574.44 241.24,572.2 238.84,572.2 Z M262.04,577.32 C262.04,574.44 259.8,572.2 257.24,572.2 C254.68,572.2 252.44,574.44 252.44,577.32 C252.44,580.2 254.68,582.44 257.24,582.44 C259.8,582.44 262.04,580.2 262.04,577.32 Z M249.24,577.32 C249.24,573 252.92,569.32 257.24,569.32 C261.56,569.32 265.24,573 265.24,577.32 C265.24,581.64 261.56,585.32 257.24,585.32 C252.92,585.32 249.24,581.64 249.24,577.32 Z M277.4,572.36 L277.4,569.32 L276.6,569.32 C273.72,569.32 271.96,571.24 271.96,571.24 L271.96,569.64 L268.76,569.64 L268.76,585 L271.96,585 L271.96,576.68 C271.96,573.8 273.56,572.2 275.96,572.2 C276.76,572.2 277.4,572.36 277.4,572.36 Z M281.88,567.72 C281.88,569 281.24,569.64 280.28,569.64 L278.68,569.64 L278.68,572.52 L281.56,572.52 L281.56,580.52 C281.56,583.72 283.16,585.32 286.04,585.32 C287.32,585.32 288.28,585 288.28,585 L288.28,582.12 C288.28,582.12 287.48,582.44 286.68,582.44 C285.56,582.44 284.76,581.64 284.76,580.488 L284.76,572.52 L287.96,572.52 L287.96,569.64 L284.76,569.64 L284.76,564.52 L281.88,564.52 L281.88,567.72 Z M300.44,567.72 C300.44,569 299.8,569.64 298.84,569.64 L297.24,569.64 L297.24,572.52 L300.12,572.52 L300.12,580.52 C300.12,583.72 301.72,585.32 304.6,585.32 C305.88,585.32 306.84,585 306.84,585 L306.84,582.12 C306.84,582.12 306.04,582.44 305.24,582.44 C304.12,582.44 303.32,581.64 303.32,580.488 L303.32,572.52 L306.52,572.52 L306.52,569.64 L303.32,569.64 L303.32,564.52 L300.44,564.52 L300.44,567.72 Z M314.36,586.6 C313.784,588.04 312.92,588.84 311.64,588.84 C310.84,588.84 310.04,588.52 310.04,588.52 L310.04,591.4 C310.04,591.4 310.84,591.72 312.28,591.72 C314.616,591.72 315.992,590.44 317.56,586.6 L324.44,569.64 L321.08,569.64 L316.6,580.84 L312.12,569.64 L308.76,569.64 L315,585 L314.36,586.6 Z M335.16,585.32 C332.12,585.32 330.2,583.24 330.2,583.24 L330.2,591.72 L327,591.72 L327,569.64 L330.2,569.64 L330.2,571.4 C330.2,571.4 332.12,569.32 335.16,569.32 C339.16,569.32 342.68,572.84 342.68,577.32 C342.68,581.8 339.16,585.32 335.16,585.32 Z M334.84,572.2 C332.44,572.2 330.2,574.44 330.2,577.32 C330.2,580.2 332.44,582.44 334.84,582.44 C337.24,582.44 339.48,580.2 339.48,577.32 C339.48,574.44 337.24,572.2 334.84,572.2 Z M360.44,578.44 L348.44,578.44 C348.76,580.52 350.68,582.44 353.24,582.44 C356.28,582.44 357.88,580.04 357.88,580.04 L359.96,582.12 C359.96,582.12 357.56,585.32 353.24,585.32 C348.92,585.32 345.24,581.64 345.24,577.16 C345.24,572.84 348.76,569.32 353.08,569.32 C357.4,569.32 360.6,572.52 360.6,576.84 C360.6,577.8 360.44,578.44 360.44,578.44 Z M353.08,572.04 C350.68,572.04 349.08,573.64 348.568,575.72 L357.464,575.72 C357.08,573.64 355.48,572.04 353.08,572.04 Z M369.08,562.6 L386.04,562.6 L386.04,565.8 L379.32,565.8 L379.32,585 L375.8,585 L375.8,565.8 L369.08,565.8 L369.08,562.6 Z M398.68,577.32 C398.68,574.44 396.44,572.2 393.88,572.2 C391.32,572.2 389.08,574.44 389.08,577.32 C389.08,580.2 391.32,582.44 393.88,582.44 C396.44,582.44 398.68,580.2 398.68,577.32 Z M385.88,577.32 C385.88,573 389.56,569.32 393.88,569.32 C398.2,569.32 401.88,573 401.88,577.32 C401.88,581.64 398.2,585.32 393.88,585.32 C389.56,585.32 385.88,581.64 385.88,577.32 Z M411.96,569.32 C415,569.32 416.92,571.4 416.92,571.4 L416.92,562.6 L420.12,562.6 L420.12,585 L416.92,585 L416.92,583.24 C416.92,583.24 415,585.32 411.96,585.32 C407.96,585.32 404.44,581.8 404.44,577.32 C404.44,572.84 407.96,569.32 411.96,569.32 Z M412.28,582.44 C414.68,582.44 416.92,580.2 416.92,577.32 C416.92,574.44 414.68,572.2 412.28,572.2 C409.88,572.2 407.64,574.44 407.64,577.32 C407.64,580.2 409.88,582.44 412.28,582.44 Z M436.76,577.32 C436.76,574.44 434.52,572.2 431.96,572.2 C429.4,572.2 427.16,574.44 427.16,577.32 C427.16,580.2 429.4,582.44 431.96,582.44 C434.52,582.44 436.76,580.2 436.76,577.32 Z M423.96,577.32 C423.96,573 427.64,569.32 431.96,569.32 C436.28,569.32 439.96,573 439.96,577.32 C439.96,581.64 436.28,585.32 431.96,585.32 C427.64,585.32 423.96,581.64 423.96,577.32 Z M453.24,571.4 C453.24,571.4 451.64,569.32 448.28,569.32 C445.08,569.32 442.84,571.56 442.84,573.8 C442.84,579.24 450.68,577.64 450.68,580.52 C450.68,581.64 449.88,582.44 448.12,582.44 C445.72,582.44 444.28,580.52 444.28,580.52 L442.2,582.6 C442.2,582.6 444.12,585.32 448.12,585.32 C451.64,585.32 453.88,583.08 453.88,580.52 C453.88,575.08 446.04,576.68 446.04,573.8 C446.04,573 446.84,572.2 448.28,572.2 C450.04,572.2 451.16,573.48 451.16,573.48 L453.24,571.4 Z M455.96,585 L465.24,562.6 L468.76,562.6 L478.04,585 L474.36,585 L471.96,579.08 L462.04,579.08 L459.64,585 L455.96,585 Z M467,566.6 L463.32,575.88 L470.68,575.88 L467,566.6 Z M479.8,577.32 C479.8,581.64 483.48,585.32 487.8,585.32 C491.8,585.32 494.2,582.12 494.2,582.12 L492.12,580.04 C492.12,580.04 490.52,582.44 487.8,582.44 C485.24,582.44 483,580.2 483,577.32 C483,574.44 485.24,572.2 487.8,572.2 C490.52,572.2 491.96,574.44 491.96,574.44 L494.04,572.36 C494.04,572.36 491.8,569.32 487.8,569.32 C483.48,569.32 479.8,573 479.8,577.32 Z M499.32,567.72 C499.32,569 498.68,569.64 497.72,569.64 L496.12,569.64 L496.12,572.52 L499,572.52 L499,580.52 C499,583.72 500.6,585.32 503.48,585.32 C504.76,585.32 505.72,585 505.72,585 L505.72,582.12 C505.72,582.12 504.92,582.44 504.12,582.44 C503,582.44 502.2,581.64 502.2,580.488 L502.2,572.52 L505.4,572.52 L505.4,569.64 L502.2,569.64 L502.2,564.52 L499.32,564.52 L499.32,567.72 Z M512.92,569.64 L509.72,569.64 L509.72,585 L512.92,585 L512.92,569.64 Z M513.24,564.84 C513.24,563.72 512.44,562.92 511.32,562.92 C510.2,562.92 509.4,563.72 509.4,564.84 C509.4,565.96 510.2,566.76 511.32,566.76 C512.44,566.76 513.24,565.96 513.24,564.84 Z M529.4,577.32 C529.4,574.44 527.16,572.2 524.6,572.2 C522.04,572.2 519.8,574.44 519.8,577.32 C519.8,580.2 522.04,582.44 524.6,582.44 C527.16,582.44 529.4,580.2 529.4,577.32 Z M516.6,577.32 C516.6,573 520.28,569.32 524.6,569.32 C528.92,569.32 532.6,573 532.6,577.32 C532.6,581.64 528.92,585.32 524.6,585.32 C520.28,585.32 516.6,581.64 516.6,577.32 Z M539.32,569.64 L536.12,569.64 L536.12,585 L539.32,585 L539.32,576.68 C539.32,573.8 540.92,572.2 543.32,572.2 C545.4,572.2 547,573.8 547,576.04 L547,585 L550.2,585 L550.2,576.04 C550.2,571.88 547.64,569.32 543.96,569.32 C541.08,569.32 539.32,571.24 539.32,571.24 L539.32,569.64 Z M573.4,577 L560.28,577 L560.28,579.88 L573.4,579.88 L573.4,577 Z M573.4,571.24 L560.28,571.24 L560.28,574.12 L573.4,574.12 L573.4,571.24 Z M581.72,585 L591,562.6 L594.52,562.6 L603.8,585 L600.12,585 L597.72,579.08 L587.8,579.08 L585.4,585 L581.72,585 Z M592.76,566.6 L589.08,575.88 L596.44,575.88 L592.76,566.6 Z M613.08,569.32 C616.12,569.32 618.04,571.4 618.04,571.4 L618.04,562.6 L621.24,562.6 L621.24,585 L618.04,585 L618.04,583.24 C618.04,583.24 616.12,585.32 613.08,585.32 C609.08,585.32 605.56,581.8 605.56,577.32 C605.56,572.84 609.08,569.32 613.08,569.32 Z M613.4,582.44 C615.8,582.44 618.04,580.2 618.04,577.32 C618.04,574.44 615.8,572.2 613.4,572.2 C611,572.2 608.76,574.44 608.76,577.32 C608.76,580.2 611,582.44 613.4,582.44 Z M632.6,569.32 C635.64,569.32 637.56,571.4 637.56,571.4 L637.56,562.6 L640.76,562.6 L640.76,585 L637.56,585 L637.56,583.24 C637.56,583.24 635.64,585.32 632.6,585.32 C628.6,585.32 625.08,581.8 625.08,577.32 C625.08,572.84 628.6,569.32 632.6,569.32 Z M632.92,582.44 C635.32,582.44 637.56,580.2 637.56,577.32 C637.56,574.44 635.32,572.2 632.92,572.2 C630.52,572.2 628.28,574.44 628.28,577.32 C628.28,580.2 630.52,582.44 632.92,582.44 Z M644.12,562.6 L661.08,562.6 L661.08,565.8 L654.36,565.8 L654.36,585 L650.84,585 L650.84,565.8 L644.12,565.8 L644.12,562.6 Z M673.72,577.32 C673.72,574.44 671.48,572.2 668.92,572.2 C666.36,572.2 664.12,574.44 664.12,577.32 C664.12,580.2 666.36,582.44 668.92,582.44 C671.48,582.44 673.72,580.2 673.72,577.32 Z M660.92,577.32 C660.92,573 664.6,569.32 668.92,569.32 C673.24,569.32 676.92,573 676.92,577.32 C676.92,581.64 673.24,585.32 668.92,585.32 C664.6,585.32 660.92,581.64 660.92,577.32 Z M687,569.32 C690.04,569.32 691.96,571.4 691.96,571.4 L691.96,562.6 L695.16,562.6 L695.16,585 L691.96,585 L691.96,583.24 C691.96,583.24 690.04,585.32 687,585.32 C683,585.32 679.48,581.8 679.48,577.32 C679.48,572.84 683,569.32 687,569.32 Z M687.32,582.44 C689.72,582.44 691.96,580.2 691.96,577.32 C691.96,574.44 689.72,572.2 687.32,572.2 C684.92,572.2 682.68,574.44 682.68,577.32 C682.68,580.2 684.92,582.44 687.32,582.44 Z M711.8,577.32 C711.8,574.44 709.56,572.2 707,572.2 C704.44,572.2 702.2,574.44 702.2,577.32 C702.2,580.2 704.44,582.44 707,582.44 C709.56,582.44 711.8,580.2 711.8,577.32 Z M699,577.32 C699,573 702.68,569.32 707,569.32 C711.32,569.32 715,573 715,577.32 C715,581.64 711.32,585.32 707,585.32 C702.68,585.32 699,581.64 699,577.32 Z M729.88,562.28 L727,562.28 L727,591.72 L729.88,591.72 L729.88,562.28 Z M743.64,585 L743.64,562.6 L753.08,562.6 C757.24,562.6 760.28,565.64 760.28,569.48 C760.28,574.44 755.8,576.04 755.8,576.04 L760.92,585 L757.08,585 L752.28,576.36 L747.16,576.36 L747.16,585 L743.64,585 Z M756.76,569.48 C756.76,567.4 755.16,565.8 753.08,565.8 L747.16,565.8 L747.16,573.16 L753.08,573.16 C755.16,573.16 756.76,571.56 756.76,569.48 Z M779.16,578.44 L767.16,578.44 C767.48,580.52 769.4,582.44 771.96,582.44 C775,582.44 776.6,580.04 776.6,580.04 L778.68,582.12 C778.68,582.12 776.28,585.32 771.96,585.32 C767.64,585.32 763.96,581.64 763.96,577.16 C763.96,572.84 767.48,569.32 771.8,569.32 C776.12,569.32 779.32,572.52 779.32,576.84 C779.32,577.8 779.16,578.44 779.16,578.44 Z M771.8,572.04 C769.4,572.04 767.8,573.64 767.288,575.72 L776.184,575.72 C775.8,573.64 774.2,572.04 771.8,572.04 Z M802.68,585 L805.88,585 L805.88,576.04 C805.88,571.56 803.64,569.32 800.12,569.32 C796.6,569.32 794.84,571.88 794.84,571.88 C794.84,571.88 793.56,569.32 790.2,569.32 C787.64,569.32 786.04,571.24 786.04,571.24 L786.04,569.64 L782.84,569.64 L782.84,585 L786.04,585 L786.04,576.68 C786.04,573.8 787.64,572.2 789.56,572.2 C791.48,572.2 792.76,573.48 792.76,576.04 L792.76,585 L795.96,585 L795.96,576.68 C795.96,573.8 797.56,572.2 799.48,572.2 C801.4,572.2 802.68,573.48 802.68,576.04 L802.68,585 Z M822.2,577.32 C822.2,574.44 819.96,572.2 817.4,572.2 C814.84,572.2 812.6,574.44 812.6,577.32 C812.6,580.2 814.84,582.44 817.4,582.44 C819.96,582.44 822.2,580.2 822.2,577.32 Z M809.4,577.32 C809.4,573 813.08,569.32 817.4,569.32 C821.72,569.32 825.4,573 825.4,577.32 C825.4,581.64 821.72,585.32 817.4,585.32 C813.08,585.32 809.4,581.64 809.4,577.32 Z M836.44,585 L842.68,569.64 L839.32,569.64 L834.84,580.84 L830.36,569.64 L827,569.64 L833.24,585 L836.44,585 Z M859.48,578.44 L847.48,578.44 C847.8,580.52 849.72,582.44 852.28,582.44 C855.32,582.44 856.92,580.04 856.92,580.04 L859,582.12 C859,582.12 856.6,585.32 852.28,585.32 C847.96,585.32 844.28,581.64 844.28,577.16 C844.28,572.84 847.8,569.32 852.12,569.32 C856.44,569.32 859.64,572.52 859.64,576.84 C859.64,577.8 859.48,578.44 859.48,578.44 Z M852.12,572.04 C849.72,572.04 848.12,573.64 847.608,575.72 L856.504,575.72 C856.12,573.64 854.52,572.04 852.12,572.04 Z M861.72,562.6 L878.68,562.6 L878.68,565.8 L871.96,565.8 L871.96,585 L868.44,585 L868.44,565.8 L861.72,565.8 L861.72,562.6 Z M891.32,577.32 C891.32,574.44 889.08,572.2 886.52,572.2 C883.96,572.2 881.72,574.44 881.72,577.32 C881.72,580.2 883.96,582.44 886.52,582.44 C889.08,582.44 891.32,580.2 891.32,577.32 Z M878.52,577.32 C878.52,573 882.2,569.32 886.52,569.32 C890.84,569.32 894.52,573 894.52,577.32 C894.52,581.64 890.84,585.32 886.52,585.32 C882.2,585.32 878.52,581.64 878.52,577.32 Z M904.6,569.32 C907.64,569.32 909.56,571.4 909.56,571.4 L909.56,562.6 L912.76,562.6 L912.76,585 L909.56,585 L909.56,583.24 C909.56,583.24 907.64,585.32 904.6,585.32 C900.6,585.32 897.08,581.8 897.08,577.32 C897.08,572.84 900.6,569.32 904.6,569.32 Z M904.92,582.44 C907.32,582.44 909.56,580.2 909.56,577.32 C909.56,574.44 907.32,572.2 904.92,572.2 C902.52,572.2 900.28,574.44 900.28,577.32 C900.28,580.2 902.52,582.44 904.92,582.44 Z M929.4,577.32 C929.4,574.44 927.16,572.2 924.6,572.2 C922.04,572.2 919.8,574.44 919.8,577.32 C919.8,580.2 922.04,582.44 924.6,582.44 C927.16,582.44 929.4,580.2 929.4,577.32 Z M916.6,577.32 C916.6,573 920.28,569.32 924.6,569.32 C928.92,569.32 932.6,573 932.6,577.32 C932.6,581.64 928.92,585.32 924.6,585.32 C920.28,585.32 916.6,581.64 916.6,577.32 Z M947.48,562.28 L944.6,562.28 L944.6,591.72 L947.48,591.72 L947.48,562.28 Z M963.8,583.24 C963.8,582.12 962.84,581.16 961.72,581.16 C960.6,581.16 959.64,582.12 959.64,583.24 C959.64,584.36 960.6,585.32 961.72,585.32 C962.84,585.32 963.8,584.36 963.8,583.24 Z M972.12,583.24 C972.12,582.12 971.16,581.16 970.04,581.16 C968.92,581.16 967.96,582.12 967.96,583.24 C967.96,584.36 968.92,585.32 970.04,585.32 C971.16,585.32 972.12,584.36 972.12,583.24 Z M980.44,583.24 C980.44,582.12 979.48,581.16 978.36,581.16 C977.24,581.16 976.28,582.12 976.28,583.24 C976.28,584.36 977.24,585.32 978.36,585.32 C979.48,585.32 980.44,584.36 980.44,583.24 Z" id="export-const-ADD_TOD" fill="#545E6F"></path>
            <text id="ACTION-CONSTANTS-AND" font-family="TTNorms-Bold, TT Norms" font-size="24" font-weight="bold" fill="#FFFFFF">
                <tspan x="415.92" y="114">ACTION CONSTANTS AND CREATORS</tspan>
            </text>
        </g>
    </g>
</svg>