<?xml version="1.0" encoding="UTF-8"?>
<svg width="1280px" height="720px" viewBox="0 0 1280 720" version="1.1" xmlns="http://www.w3.org/2000/svg" xmlns:xlink="http://www.w3.org/1999/xlink" style="background: #FFFFFF;">
    <!-- Generator: Sketch 47.1 (45422) - http://www.bohemiancoding.com/sketch -->
    <title>dispatching-actions</title>
    <desc>Created with Sketch.</desc>
    <defs></defs>
    <g id="Page-1" stroke="none" stroke-width="1" fill="none" fill-rule="evenodd">
        <g id="dispatching-actions">
            <g id="Group" transform="translate(125.000000, 223.000000)">
                <rect id="Rectangle-7" fill="#F4F6F8" x="0" y="24" width="1030" height="250" rx="15"></rect>
                <path d="M15,0 L1015,0 L1015,1.77635684e-15 C1023.28427,5.91178485e-14 1030,6.71572875 1030,15 L1030,58 L0,58 L0,15 L-1.77635684e-15,15 C-2.79088747e-15,6.71572875 6.71572875,-2.54560899e-16 15,-1.77635684e-15 Z" id="Rectangle" fill="#DF7575"></path>
            </g>
            <path d="M209.4,354 L206.2,354 L206.2,352.4 C206.2,352.4 204.44,354.32 201.56,354.32 C198.36,354.32 196.12,352.08 196.12,349.84 C196.12,347.28 197.88,345.52 200.6,345.04 L206.2,344.08 C206.2,342.48 204.92,341.2 203,341.2 C200.28,341.2 199,343.28 199,343.28 L196.92,341.2 C196.92,341.2 199,338.32 203,338.32 C206.84,338.32 209.4,340.88 209.4,344.08 L209.4,354 Z M202.04,351.44 C204.6,351.44 206.2,349.84 206.2,346.96 L206.2,346.64 L201.24,347.44 C200.12,347.632 199.32,348.4 199.32,349.52 C199.32,350.48 200.28,351.44 202.04,351.44 Z M220.44,338.32 C223.48,338.32 225.4,340.4 225.4,340.4 L225.4,331.6 L228.6,331.6 L228.6,354 L225.4,354 L225.4,352.24 C225.4,352.24 223.48,354.32 220.44,354.32 C216.44,354.32 212.92,350.8 212.92,346.32 C212.92,341.84 216.44,338.32 220.44,338.32 Z M220.76,351.44 C223.16,351.44 225.4,349.2 225.4,346.32 C225.4,343.44 223.16,341.2 220.76,341.2 C218.36,341.2 216.12,343.44 216.12,346.32 C216.12,349.2 218.36,351.44 220.76,351.44 Z M239.96,338.32 C243,338.32 244.92,340.4 244.92,340.4 L244.92,331.6 L248.12,331.6 L248.12,354 L244.92,354 L244.92,352.24 C244.92,352.24 243,354.32 239.96,354.32 C235.96,354.32 232.44,350.8 232.44,346.32 C232.44,341.84 235.96,338.32 239.96,338.32 Z M240.28,351.44 C242.68,351.44 244.92,349.2 244.92,346.32 C244.92,343.44 242.68,341.2 240.28,341.2 C237.88,341.2 235.64,343.44 235.64,346.32 C235.64,349.2 237.88,351.44 240.28,351.44 Z M251.48,331.6 L268.44,331.6 L268.44,334.8 L261.72,334.8 L261.72,354 L258.2,354 L258.2,334.8 L251.48,334.8 L251.48,331.6 Z M281.08,346.32 C281.08,343.44 278.84,341.2 276.28,341.2 C273.72,341.2 271.48,343.44 271.48,346.32 C271.48,349.2 273.72,351.44 276.28,351.44 C278.84,351.44 281.08,349.2 281.08,346.32 Z M268.28,346.32 C268.28,342 271.96,338.32 276.28,338.32 C280.6,338.32 284.28,342 284.28,346.32 C284.28,350.64 280.6,354.32 276.28,354.32 C271.96,354.32 268.28,350.64 268.28,346.32 Z M294.36,338.32 C297.4,338.32 299.32,340.4 299.32,340.4 L299.32,331.6 L302.52,331.6 L302.52,354 L299.32,354 L299.32,352.24 C299.32,352.24 297.4,354.32 294.36,354.32 C290.36,354.32 286.84,350.8 286.84,346.32 C286.84,341.84 290.36,338.32 294.36,338.32 Z M294.68,351.44 C297.08,351.44 299.32,349.2 299.32,346.32 C299.32,343.44 297.08,341.2 294.68,341.2 C292.28,341.2 290.04,343.44 290.04,346.32 C290.04,349.2 292.28,351.44 294.68,351.44 Z M319.16,346.32 C319.16,343.44 316.92,341.2 314.36,341.2 C311.8,341.2 309.56,343.44 309.56,346.32 C309.56,349.2 311.8,351.44 314.36,351.44 C316.92,351.44 319.16,349.2 319.16,346.32 Z M306.36,346.32 C306.36,342 310.04,338.32 314.36,338.32 C318.68,338.32 322.36,342 322.36,346.32 C322.36,350.64 318.68,354.32 314.36,354.32 C310.04,354.32 306.36,350.64 306.36,346.32 Z M329.24,346 C329.24,338 333.72,332.24 333.72,332.24 L331.32,330.8 C331.32,330.8 326.36,336.72 326.36,346 C326.36,355.28 331.32,361.2 331.32,361.2 L333.72,359.76 C333.72,359.76 329.24,354 329.24,346 Z M351,347.44 L339,347.44 C339.32,349.52 341.24,351.44 343.8,351.44 C346.84,351.44 348.44,349.04 348.44,349.04 L350.52,351.12 C350.52,351.12 348.12,354.32 343.8,354.32 C339.48,354.32 335.8,350.64 335.8,346.16 C335.8,341.84 339.32,338.32 343.64,338.32 C347.96,338.32 351.16,341.52 351.16,345.84 C351.16,346.8 351,347.44 351,347.44 Z M343.64,341.04 C341.24,341.04 339.64,342.64 339.128,344.72 L348.024,344.72 C347.64,342.64 346.04,341.04 343.64,341.04 Z M362.2,354 L368.44,338.64 L365.08,338.64 L360.6,349.84 L356.12,338.64 L352.76,338.64 L359,354 L362.2,354 Z M385.24,347.44 L373.24,347.44 C373.56,349.52 375.48,351.44 378.04,351.44 C381.08,351.44 382.68,349.04 382.68,349.04 L384.76,351.12 C384.76,351.12 382.36,354.32 378.04,354.32 C373.72,354.32 370.04,350.64 370.04,346.16 C370.04,341.84 373.56,338.32 377.88,338.32 C382.2,338.32 385.4,341.52 385.4,345.84 C385.4,346.8 385.24,347.44 385.24,347.44 Z M377.88,341.04 C375.48,341.04 373.88,342.64 373.368,344.72 L382.264,344.72 C381.88,342.64 380.28,341.04 377.88,341.04 Z M392.12,338.64 L388.92,338.64 L388.92,354 L392.12,354 L392.12,345.68 C392.12,342.8 393.72,341.2 396.12,341.2 C398.2,341.2 399.8,342.8 399.8,345.04 L399.8,354 L403,354 L403,345.04 C403,340.88 400.44,338.32 396.76,338.32 C393.88,338.32 392.12,340.24 392.12,340.24 L392.12,338.64 Z M409.4,336.72 C409.4,338 408.76,338.64 407.8,338.64 L406.2,338.64 L406.2,341.52 L409.08,341.52 L409.08,349.52 C409.08,352.72 410.68,354.32 413.56,354.32 C414.84,354.32 415.8,354 415.8,354 L415.8,351.12 C415.8,351.12 415,351.44 414.2,351.44 C413.08,351.44 412.28,350.64 412.28,349.488 L412.28,341.52 L415.48,341.52 L415.48,338.64 L412.28,338.64 L412.28,333.52 L409.4,333.52 L409.4,336.72 Z M419.16,352.24 C419.16,353.36 420.12,354.32 421.24,354.32 C422.36,354.32 423.32,353.36 423.32,352.24 C423.32,351.12 422.36,350.16 421.24,350.16 C420.12,350.16 419.16,351.12 419.16,352.24 Z M419.16,340.4 C419.16,341.52 420.12,342.48 421.24,342.48 C422.36,342.48 423.32,341.52 423.32,340.4 C423.32,339.28 422.36,338.32 421.24,338.32 C420.12,338.32 419.16,339.28 419.16,340.4 Z M431.96,331.6 L448.92,331.6 L448.92,334.8 L442.2,334.8 L442.2,354 L438.68,354 L438.68,334.8 L431.96,334.8 L431.96,331.6 Z M461.56,346.32 C461.56,343.44 459.32,341.2 456.76,341.2 C454.2,341.2 451.96,343.44 451.96,346.32 C451.96,349.2 454.2,351.44 456.76,351.44 C459.32,351.44 461.56,349.2 461.56,346.32 Z M448.76,346.32 C448.76,342 452.44,338.32 456.76,338.32 C461.08,338.32 464.76,342 464.76,346.32 C464.76,350.64 461.08,354.32 456.76,354.32 C452.44,354.32 448.76,350.64 448.76,346.32 Z M474.84,338.32 C477.88,338.32 479.8,340.4 479.8,340.4 L479.8,331.6 L483,331.6 L483,354 L479.8,354 L479.8,352.24 C479.8,352.24 477.88,354.32 474.84,354.32 C470.84,354.32 467.32,350.8 467.32,346.32 C467.32,341.84 470.84,338.32 474.84,338.32 Z M475.16,351.44 C477.56,351.44 479.8,349.2 479.8,346.32 C479.8,343.44 477.56,341.2 475.16,341.2 C472.76,341.2 470.52,343.44 470.52,346.32 C470.52,349.2 472.76,351.44 475.16,351.44 Z M499.64,346.32 C499.64,343.44 497.4,341.2 494.84,341.2 C492.28,341.2 490.04,343.44 490.04,346.32 C490.04,349.2 492.28,351.44 494.84,351.44 C497.4,351.44 499.64,349.2 499.64,346.32 Z M486.84,346.32 C486.84,342 490.52,338.32 494.84,338.32 C499.16,338.32 502.84,342 502.84,346.32 C502.84,350.64 499.16,354.32 494.84,354.32 C490.52,354.32 486.84,350.64 486.84,346.32 Z M509.72,346 C509.72,354 505.24,359.76 505.24,359.76 L507.64,361.2 C507.64,361.2 512.6,355.28 512.6,346 C512.6,336.72 507.64,330.8 507.64,330.8 L505.24,332.24 C505.24,332.24 509.72,338 509.72,346 Z M523.48,347.28 C524.76,347.28 525.4,347.92 525.4,349.2 L525.4,356.08 C525.4,358.96 527.16,360.72 530.36,360.72 L532.12,360.72 L532.12,358.16 L530.36,358.16 C529.08,358.16 528.28,357.36 528.28,356.08 L528.28,349.2 C528.28,346.32 526.52,346 526.552,346 C526.52,346 528.28,345.68 528.28,342.8 L528.28,335.92 C528.28,334.64 529.08,333.84 530.36,333.84 L532.12,333.84 L532.12,331.28 L530.36,331.28 C527.16,331.28 525.4,333.04 525.4,335.92 L525.4,342.8 C525.4,344.08 524.76,344.72 523.48,344.72 L523.48,347.28 Z M211.8,378.72 C211.8,380 211.16,380.64 210.2,380.64 L208.6,380.64 L208.6,383.52 L211.48,383.52 L211.48,391.52 C211.48,394.72 213.08,396.32 215.96,396.32 C217.24,396.32 218.2,396 218.2,396 L218.2,393.12 C218.2,393.12 217.4,393.44 216.6,393.44 C215.48,393.44 214.68,392.64 214.68,391.488 L214.68,383.52 L217.88,383.52 L217.88,380.64 L214.68,380.64 L214.68,375.52 L211.8,375.52 L211.8,378.72 Z M225.56,373.6 L222.36,373.6 L222.36,396 L225.56,396 L225.56,387.68 C225.56,384.8 227.16,383.2 229.56,383.2 C231.64,383.2 233.24,384.8 233.24,387.04 L233.24,396 L236.44,396 L236.44,387.04 C236.44,382.88 233.88,380.32 230.2,380.32 C227.32,380.32 225.56,382.24 225.56,382.24 L225.56,373.6 Z M244.28,380.64 L241.08,380.64 L241.08,396 L244.28,396 L244.28,380.64 Z M244.6,375.84 C244.6,374.72 243.8,373.92 242.68,373.92 C241.56,373.92 240.76,374.72 240.76,375.84 C240.76,376.96 241.56,377.76 242.68,377.76 C243.8,377.76 244.6,376.96 244.6,375.84 Z M258.68,382.4 C258.68,382.4 257.08,380.32 253.72,380.32 C250.52,380.32 248.28,382.56 248.28,384.8 C248.28,390.24 256.12,388.64 256.12,391.52 C256.12,392.64 255.32,393.44 253.56,393.44 C251.16,393.44 249.72,391.52 249.72,391.52 L247.64,393.6 C247.64,393.6 249.56,396.32 253.56,396.32 C257.08,396.32 259.32,394.08 259.32,391.52 C259.32,386.08 251.48,387.68 251.48,384.8 C251.48,384 252.28,383.2 253.72,383.2 C255.48,383.2 256.6,384.48 256.6,384.48 L258.68,382.4 Z M266.52,394.24 C266.52,393.12 265.56,392.16 264.44,392.16 C263.32,392.16 262.36,393.12 262.36,394.24 C262.36,395.36 263.32,396.32 264.44,396.32 C265.56,396.32 266.52,395.36 266.52,394.24 Z M279.96,382.4 C279.96,382.4 278.36,380.32 275,380.32 C271.8,380.32 269.56,382.56 269.56,384.8 C269.56,390.24 277.4,388.64 277.4,391.52 C277.4,392.64 276.6,393.44 274.84,393.44 C272.44,393.44 271,391.52 271,391.52 L268.92,393.6 C268.92,393.6 270.84,396.32 274.84,396.32 C278.36,396.32 280.6,394.08 280.6,391.52 C280.6,386.08 272.76,387.68 272.76,384.8 C272.76,384 273.56,383.2 275,383.2 C276.76,383.2 277.88,384.48 277.88,384.48 L279.96,382.4 Z M286.04,378.72 C286.04,380 285.4,380.64 284.44,380.64 L282.84,380.64 L282.84,383.52 L285.72,383.52 L285.72,391.52 C285.72,394.72 287.32,396.32 290.2,396.32 C291.48,396.32 292.44,396 292.44,396 L292.44,393.12 C292.44,393.12 291.64,393.44 290.84,393.44 C289.72,393.44 288.92,392.64 288.92,391.488 L288.92,383.52 L292.12,383.52 L292.12,380.64 L288.92,380.64 L288.92,375.52 L286.04,375.52 L286.04,378.72 Z M307.48,388.32 C307.48,385.44 305.24,383.2 302.68,383.2 C300.12,383.2 297.88,385.44 297.88,388.32 C297.88,391.2 300.12,393.44 302.68,393.44 C305.24,393.44 307.48,391.2 307.48,388.32 Z M294.68,388.32 C294.68,384 298.36,380.32 302.68,380.32 C307,380.32 310.68,384 310.68,388.32 C310.68,392.64 307,396.32 302.68,396.32 C298.36,396.32 294.68,392.64 294.68,388.32 Z M322.84,383.36 L322.84,380.32 L322.04,380.32 C319.16,380.32 317.4,382.24 317.4,382.24 L317.4,380.64 L314.2,380.64 L314.2,396 L317.4,396 L317.4,387.68 C317.4,384.8 319,383.2 321.4,383.2 C322.2,383.2 322.84,383.36 322.84,383.36 Z M339.64,389.44 L327.64,389.44 C327.96,391.52 329.88,393.44 332.44,393.44 C335.48,393.44 337.08,391.04 337.08,391.04 L339.16,393.12 C339.16,393.12 336.76,396.32 332.44,396.32 C328.12,396.32 324.44,392.64 324.44,388.16 C324.44,383.84 327.96,380.32 332.28,380.32 C336.6,380.32 339.8,383.52 339.8,387.84 C339.8,388.8 339.64,389.44 339.64,389.44 Z M332.28,383.04 C329.88,383.04 328.28,384.64 327.768,386.72 L336.664,386.72 C336.28,384.64 334.68,383.04 332.28,383.04 Z M347,394.24 C347,393.12 346.04,392.16 344.92,392.16 C343.8,392.16 342.84,393.12 342.84,394.24 C342.84,395.36 343.8,396.32 344.92,396.32 C346.04,396.32 347,395.36 347,394.24 Z M357.24,380.32 C360.28,380.32 362.2,382.4 362.2,382.4 L362.2,373.6 L365.4,373.6 L365.4,396 L362.2,396 L362.2,394.24 C362.2,394.24 360.28,396.32 357.24,396.32 C353.24,396.32 349.72,392.8 349.72,388.32 C349.72,383.84 353.24,380.32 357.24,380.32 Z M357.56,393.44 C359.96,393.44 362.2,391.2 362.2,388.32 C362.2,385.44 359.96,383.2 357.56,383.2 C355.16,383.2 352.92,385.44 352.92,388.32 C352.92,391.2 355.16,393.44 357.56,393.44 Z M373.56,380.64 L370.36,380.64 L370.36,396 L373.56,396 L373.56,380.64 Z M373.88,375.84 C373.88,374.72 373.08,373.92 371.96,373.92 C370.84,373.92 370.04,374.72 370.04,375.84 C370.04,376.96 370.84,377.76 371.96,377.76 C373.08,377.76 373.88,376.96 373.88,375.84 Z M387.96,382.4 C387.96,382.4 386.36,380.32 383,380.32 C379.8,380.32 377.56,382.56 377.56,384.8 C377.56,390.24 385.4,388.64 385.4,391.52 C385.4,392.64 384.6,393.44 382.84,393.44 C380.44,393.44 379,391.52 379,391.52 L376.92,393.6 C376.92,393.6 378.84,396.32 382.84,396.32 C386.36,396.32 388.6,394.08 388.6,391.52 C388.6,386.08 380.76,387.68 380.76,384.8 C380.76,384 381.56,383.2 383,383.2 C384.76,383.2 385.88,384.48 385.88,384.48 L387.96,382.4 Z M400.28,396.32 C397.24,396.32 395.32,394.24 395.32,394.24 L395.32,402.72 L392.12,402.72 L392.12,380.64 L395.32,380.64 L395.32,382.4 C395.32,382.4 397.24,380.32 400.28,380.32 C404.28,380.32 407.8,383.84 407.8,388.32 C407.8,392.8 404.28,396.32 400.28,396.32 Z M399.96,383.2 C397.56,383.2 395.32,385.44 395.32,388.32 C395.32,391.2 397.56,393.44 399.96,393.44 C402.36,393.44 404.6,391.2 404.6,388.32 C404.6,385.44 402.36,383.2 399.96,383.2 Z M423.64,396 L420.44,396 L420.44,394.4 C420.44,394.4 418.68,396.32 415.8,396.32 C412.6,396.32 410.36,394.08 410.36,391.84 C410.36,389.28 412.12,387.52 414.84,387.04 L420.44,386.08 C420.44,384.48 419.16,383.2 417.24,383.2 C414.52,383.2 413.24,385.28 413.24,385.28 L411.16,383.2 C411.16,383.2 413.24,380.32 417.24,380.32 C421.08,380.32 423.64,382.88 423.64,386.08 L423.64,396 Z M416.28,393.44 C418.84,393.44 420.44,391.84 420.44,388.96 L420.44,388.64 L415.48,389.44 C414.36,389.632 413.56,390.4 413.56,391.52 C413.56,392.48 414.52,393.44 416.28,393.44 Z M430.04,378.72 C430.04,380 429.4,380.64 428.44,380.64 L426.84,380.64 L426.84,383.52 L429.72,383.52 L429.72,391.52 C429.72,394.72 431.32,396.32 434.2,396.32 C435.48,396.32 436.44,396 436.44,396 L436.44,393.12 C436.44,393.12 435.64,393.44 434.84,393.44 C433.72,393.44 432.92,392.64 432.92,391.488 L432.92,383.52 L436.12,383.52 L436.12,380.64 L432.92,380.64 L432.92,375.52 L430.04,375.52 L430.04,378.72 Z M438.68,388.32 C438.68,392.64 442.36,396.32 446.68,396.32 C450.68,396.32 453.08,393.12 453.08,393.12 L451,391.04 C451,391.04 449.4,393.44 446.68,393.44 C444.12,393.44 441.88,391.2 441.88,388.32 C441.88,385.44 444.12,383.2 446.68,383.2 C449.4,383.2 450.84,385.44 450.84,385.44 L452.92,383.36 C452.92,383.36 450.68,380.32 446.68,380.32 C442.36,380.32 438.68,384 438.68,388.32 Z M459.8,373.6 L456.6,373.6 L456.6,396 L459.8,396 L459.8,387.68 C459.8,384.8 461.4,383.2 463.8,383.2 C465.88,383.2 467.48,384.8 467.48,387.04 L467.48,396 L470.68,396 L470.68,387.04 C470.68,382.88 468.12,380.32 464.44,380.32 C461.56,380.32 459.8,382.24 459.8,382.24 L459.8,373.6 Z M478.52,388 C478.52,380 483,374.24 483,374.24 L480.6,372.8 C480.6,372.8 475.64,378.72 475.64,388 C475.64,397.28 480.6,403.2 480.6,403.2 L483,401.76 C483,401.76 478.52,396 478.52,388 Z M489.24,380.64 L486.04,380.64 L486.04,396 L489.24,396 L489.24,387.68 C489.24,384.8 490.84,383.2 493.24,383.2 C495.32,383.2 496.92,384.8 496.92,387.04 L496.92,396 L500.12,396 L500.12,387.04 C500.12,382.88 497.56,380.32 493.88,380.32 C491,380.32 489.24,382.24 489.24,382.24 L489.24,380.64 Z M518.84,389.44 L506.84,389.44 C507.16,391.52 509.08,393.44 511.64,393.44 C514.68,393.44 516.28,391.04 516.28,391.04 L518.36,393.12 C518.36,393.12 515.96,396.32 511.64,396.32 C507.32,396.32 503.64,392.64 503.64,388.16 C503.64,383.84 507.16,380.32 511.48,380.32 C515.8,380.32 519,383.52 519,387.84 C519,388.8 518.84,389.44 518.84,389.44 Z M511.48,383.04 C509.08,383.04 507.48,384.64 506.968,386.72 L515.864,386.72 C515.48,384.64 513.88,383.04 511.48,383.04 Z M531,380.64 L527.48,391.2 L523.96,380.64 L520.6,380.64 L525.88,396 L528.92,396 L532.44,385.76 L535.96,396 L539,396 L544.28,380.64 L540.92,380.64 L537.4,391.2 L533.88,380.64 L531,380.64 Z M560.92,380.64 L557.4,380.64 L557.4,378.112 C557.4,376.96 558.2,376.16 559.32,376.16 C560.12,376.16 560.92,376.48 560.92,376.48 L560.92,373.6 C560.92,373.6 559.96,373.28 558.68,373.28 C555.8,373.28 554.2,374.88 554.2,378.08 L554.2,380.64 L551.96,380.64 L551.96,383.52 L554.2,383.52 L554.2,396 L557.4,396 L557.4,383.52 L560.92,383.52 L560.92,380.64 Z M572.76,383.36 L572.76,380.32 L571.96,380.32 C569.08,380.32 567.32,382.24 567.32,382.24 L567.32,380.64 L564.12,380.64 L564.12,396 L567.32,396 L567.32,387.68 C567.32,384.8 568.92,383.2 571.32,383.2 C572.12,383.2 572.76,383.36 572.76,383.36 Z M587.16,388.32 C587.16,385.44 584.92,383.2 582.36,383.2 C579.8,383.2 577.56,385.44 577.56,388.32 C577.56,391.2 579.8,393.44 582.36,393.44 C584.92,393.44 587.16,391.2 587.16,388.32 Z M574.36,388.32 C574.36,384 578.04,380.32 582.36,380.32 C586.68,380.32 590.36,384 590.36,388.32 C590.36,392.64 586.68,396.32 582.36,396.32 C578.04,396.32 574.36,392.64 574.36,388.32 Z M613.72,396 L616.92,396 L616.92,387.04 C616.92,382.56 614.68,380.32 611.16,380.32 C607.64,380.32 605.88,382.88 605.88,382.88 C605.88,382.88 604.6,380.32 601.24,380.32 C598.68,380.32 597.08,382.24 597.08,382.24 L597.08,380.64 L593.88,380.64 L593.88,396 L597.08,396 L597.08,387.68 C597.08,384.8 598.68,383.2 600.6,383.2 C602.52,383.2 603.8,384.48 603.8,387.04 L603.8,396 L607,396 L607,387.68 C607,384.8 608.6,383.2 610.52,383.2 C612.44,383.2 613.72,384.48 613.72,387.04 L613.72,396 Z M633.08,389.6 C633.08,391.52 631.48,393.12 628.6,393.12 C624.6,393.12 622.84,390.56 622.84,390.56 L620.6,392.8 C620.6,392.8 623.16,396.32 628.6,396.32 C633.72,396.32 636.6,393.44 636.6,389.6 C636.6,381.28 624.76,384.48 624.76,379.36 C624.76,377.92 626.2,376.48 628.6,376.48 C631.64,376.48 633.08,378.4 633.08,378.4 L635.32,376.16 C635.32,376.16 633.08,373.28 628.6,373.28 C623.96,373.28 621.24,376 621.24,379.36 C621.24,387.68 633.08,384.48 633.08,389.6 Z M642.2,378.72 C642.2,380 641.56,380.64 640.6,380.64 L639,380.64 L639,383.52 L641.88,383.52 L641.88,391.52 C641.88,394.72 643.48,396.32 646.36,396.32 C647.64,396.32 648.6,396 648.6,396 L648.6,393.12 C648.6,393.12 647.8,393.44 647,393.44 C645.88,393.44 645.08,392.64 645.08,391.488 L645.08,383.52 L648.28,383.52 L648.28,380.64 L645.08,380.64 L645.08,375.52 L642.2,375.52 L642.2,378.72 Z M663.64,388.32 C663.64,385.44 661.4,383.2 658.84,383.2 C656.28,383.2 654.04,385.44 654.04,388.32 C654.04,391.2 656.28,393.44 658.84,393.44 C661.4,393.44 663.64,391.2 663.64,388.32 Z M650.84,388.32 C650.84,384 654.52,380.32 658.84,380.32 C663.16,380.32 666.84,384 666.84,388.32 C666.84,392.64 663.16,396.32 658.84,396.32 C654.52,396.32 650.84,392.64 650.84,388.32 Z M679,383.36 L679,380.32 L678.2,380.32 C675.32,380.32 673.56,382.24 673.56,382.24 L673.56,380.64 L670.36,380.64 L670.36,396 L673.56,396 L673.56,387.68 C673.56,384.8 675.16,383.2 677.56,383.2 C678.36,383.2 679,383.36 679,383.36 Z M695.8,389.44 L683.8,389.44 C684.12,391.52 686.04,393.44 688.6,393.44 C691.64,393.44 693.24,391.04 693.24,391.04 L695.32,393.12 C695.32,393.12 692.92,396.32 688.6,396.32 C684.28,396.32 680.6,392.64 680.6,388.16 C680.6,383.84 684.12,380.32 688.44,380.32 C692.76,380.32 695.96,383.52 695.96,387.84 C695.96,388.8 695.8,389.44 695.8,389.44 Z M688.44,383.04 C686.04,383.04 684.44,384.64 683.928,386.72 L692.824,386.72 C692.44,384.64 690.84,383.04 688.44,383.04 Z M703.16,394.24 C703.16,393.12 702.2,392.16 701.08,392.16 C699.96,392.16 699,393.12 699,394.24 C699,395.36 699.96,396.32 701.08,396.32 C702.2,396.32 703.16,395.36 703.16,394.24 Z M705.4,396 L714.68,373.6 L718.2,373.6 L727.48,396 L723.8,396 L721.4,390.08 L711.48,390.08 L709.08,396 L705.4,396 Z M716.44,377.6 L712.76,386.88 L720.12,386.88 L716.44,377.6 Z M736.76,380.32 C739.8,380.32 741.72,382.4 741.72,382.4 L741.72,373.6 L744.92,373.6 L744.92,396 L741.72,396 L741.72,394.24 C741.72,394.24 739.8,396.32 736.76,396.32 C732.76,396.32 729.24,392.8 729.24,388.32 C729.24,383.84 732.76,380.32 736.76,380.32 Z M737.08,393.44 C739.48,393.44 741.72,391.2 741.72,388.32 C741.72,385.44 739.48,383.2 737.08,383.2 C734.68,383.2 732.44,385.44 732.44,388.32 C732.44,391.2 734.68,393.44 737.08,393.44 Z M756.28,380.32 C759.32,380.32 761.24,382.4 761.24,382.4 L761.24,373.6 L764.44,373.6 L764.44,396 L761.24,396 L761.24,394.24 C761.24,394.24 759.32,396.32 756.28,396.32 C752.28,396.32 748.76,392.8 748.76,388.32 C748.76,383.84 752.28,380.32 756.28,380.32 Z M756.6,393.44 C759,393.44 761.24,391.2 761.24,388.32 C761.24,385.44 759,383.2 756.6,383.2 C754.2,383.2 751.96,385.44 751.96,388.32 C751.96,391.2 754.2,393.44 756.6,393.44 Z M767.8,373.6 L784.76,373.6 L784.76,376.8 L778.04,376.8 L778.04,396 L774.52,396 L774.52,376.8 L767.8,376.8 L767.8,373.6 Z M797.4,388.32 C797.4,385.44 795.16,383.2 792.6,383.2 C790.04,383.2 787.8,385.44 787.8,388.32 C787.8,391.2 790.04,393.44 792.6,393.44 C795.16,393.44 797.4,391.2 797.4,388.32 Z M784.6,388.32 C784.6,384 788.28,380.32 792.6,380.32 C796.92,380.32 800.6,384 800.6,388.32 C800.6,392.64 796.92,396.32 792.6,396.32 C788.28,396.32 784.6,392.64 784.6,388.32 Z M810.68,380.32 C813.72,380.32 815.64,382.4 815.64,382.4 L815.64,373.6 L818.84,373.6 L818.84,396 L815.64,396 L815.64,394.24 C815.64,394.24 813.72,396.32 810.68,396.32 C806.68,396.32 803.16,392.8 803.16,388.32 C803.16,383.84 806.68,380.32 810.68,380.32 Z M811,393.44 C813.4,393.44 815.64,391.2 815.64,388.32 C815.64,385.44 813.4,383.2 811,383.2 C808.6,383.2 806.36,385.44 806.36,388.32 C806.36,391.2 808.6,393.44 811,393.44 Z M835.48,388.32 C835.48,385.44 833.24,383.2 830.68,383.2 C828.12,383.2 825.88,385.44 825.88,388.32 C825.88,391.2 828.12,393.44 830.68,393.44 C833.24,393.44 835.48,391.2 835.48,388.32 Z M822.68,388.32 C822.68,384 826.36,380.32 830.68,380.32 C835,380.32 838.68,384 838.68,388.32 C838.68,392.64 835,396.32 830.68,396.32 C826.36,396.32 822.68,392.64 822.68,388.32 Z M845.56,388 C845.56,380 850.04,374.24 850.04,374.24 L847.64,372.8 C847.64,372.8 842.68,378.72 842.68,388 C842.68,397.28 847.64,403.2 847.64,403.2 L850.04,401.76 C850.04,401.76 845.56,396 845.56,388 Z M867.32,389.44 L855.32,389.44 C855.64,391.52 857.56,393.44 860.12,393.44 C863.16,393.44 864.76,391.04 864.76,391.04 L866.84,393.12 C866.84,393.12 864.44,396.32 860.12,396.32 C855.8,396.32 852.12,392.64 852.12,388.16 C852.12,383.84 855.64,380.32 859.96,380.32 C864.28,380.32 867.48,383.52 867.48,387.84 C867.48,388.8 867.32,389.44 867.32,389.44 Z M859.96,383.04 C857.56,383.04 855.96,384.64 855.448,386.72 L864.344,386.72 C863.96,384.64 862.36,383.04 859.96,383.04 Z M878.52,396 L884.76,380.64 L881.4,380.64 L876.92,391.84 L872.44,380.64 L869.08,380.64 L875.32,396 L878.52,396 Z M901.56,389.44 L889.56,389.44 C889.88,391.52 891.8,393.44 894.36,393.44 C897.4,393.44 899,391.04 899,391.04 L901.08,393.12 C901.08,393.12 898.68,396.32 894.36,396.32 C890.04,396.32 886.36,392.64 886.36,388.16 C886.36,383.84 889.88,380.32 894.2,380.32 C898.52,380.32 901.72,383.52 901.72,387.84 C901.72,388.8 901.56,389.44 901.56,389.44 Z M894.2,383.04 C891.8,383.04 890.2,384.64 889.688,386.72 L898.584,386.72 C898.2,384.64 896.6,383.04 894.2,383.04 Z M908.44,380.64 L905.24,380.64 L905.24,396 L908.44,396 L908.44,387.68 C908.44,384.8 910.04,383.2 912.44,383.2 C914.52,383.2 916.12,384.8 916.12,387.04 L916.12,396 L919.32,396 L919.32,387.04 C919.32,382.88 916.76,380.32 913.08,380.32 C910.2,380.32 908.44,382.24 908.44,382.24 L908.44,380.64 Z M925.72,378.72 C925.72,380 925.08,380.64 924.12,380.64 L922.52,380.64 L922.52,383.52 L925.4,383.52 L925.4,391.52 C925.4,394.72 927,396.32 929.88,396.32 C931.16,396.32 932.12,396 932.12,396 L932.12,393.12 C932.12,393.12 931.32,393.44 930.52,393.44 C929.4,393.44 928.6,392.64 928.6,391.488 L928.6,383.52 L931.8,383.52 L931.8,380.64 L928.6,380.64 L928.6,375.52 L925.72,375.52 L925.72,378.72 Z M939.32,388 C939.32,396 934.84,401.76 934.84,401.76 L937.24,403.2 C937.24,403.2 942.2,397.28 942.2,388 C942.2,378.72 937.24,372.8 937.24,372.8 L934.84,374.24 C934.84,374.24 939.32,380 939.32,388 Z M950.2,388 C950.2,396 945.72,401.76 945.72,401.76 L948.12,403.2 C948.12,403.2 953.08,397.28 953.08,388 C953.08,378.72 948.12,372.8 948.12,372.8 L945.72,374.24 C945.72,374.24 950.2,380 950.2,388 Z M958.84,392.16 L955.64,399.04 L957.72,400.16 L961.72,393.76 L958.84,392.16 Z M957.72,382.4 C957.72,383.52 958.68,384.48 959.8,384.48 C960.92,384.48 961.88,383.52 961.88,382.4 C961.88,381.28 960.92,380.32 959.8,380.32 C958.68,380.32 957.72,381.28 957.72,382.4 Z M204.6,428.72 C203.32,428.72 202.68,428.08 202.68,426.8 L202.68,419.92 C202.68,417.04 200.92,415.28 197.72,415.28 L195.96,415.28 L195.96,417.84 L197.72,417.84 C199,417.84 199.8,418.64 199.8,419.92 L199.8,426.8 C199.8,429.68 201.56,430 201.528,430 C201.56,430 199.8,430.32 199.8,433.2 L199.8,440.08 C199.8,441.36 199,442.16 197.72,442.16 L195.96,442.16 L195.96,444.72 L197.72,444.72 C200.92,444.72 202.68,442.96 202.68,440.08 L202.68,433.2 C202.68,431.92 203.32,431.28 204.6,431.28 L204.6,428.72 Z" id="addTodo(event:-Todo)" fill="#545E6F"></path>
            <text id="DISPATCHING-ACTIONS" font-family="TTNorms-Bold, TT Norms" font-size="24" font-weight="bold" fill="#FFFFFF">
                <tspan x="498.36" y="261">DISPATCHING ACTIONS</tspan>
            </text>
        </g>
    </g>
</svg>